<svg class="main-svg" xmlns="http://www.w3.org/2000/svg" xmlns:xlink="http://www.w3.org/1999/xlink" width="2200" height="1000" style="" viewBox="0 0 1100 500"><rect x="0" y="0" width="1100" height="500" style="fill: rgb(255, 255, 255); fill-opacity: 1;"/><defs id="defs-6473ca"><g class="clips"><clipPath id="clip6473caxyplot" class="plotclip"><rect width="1025" height="385"/></clipPath><clipPath class="axesclip" id="clip6473cax"><rect x="60" y="0" width="1025" height="500"/></clipPath><clipPath class="axesclip" id="clip6473cay"><rect x="0" y="50" width="1100" height="385"/></clipPath><clipPath class="axesclip" id="clip6473caxy"><rect x="60" y="50" width="1025" height="385"/></clipPath></g><g class="gradients"/><g class="patterns"/></defs><g class="bglayer"/><g class="layer-below"><g class="imagelayer"/><g class="shapelayer"/></g><g class="cartesianlayer"><g class="subplot xy"><g class="layer-subplot"><g class="shapelayer"/><g class="imagelayer"/></g><g class="minor-gridlayer"><g class="x"/><g class="y"/></g><g class="gridlayer"><g class="x"><path class="xgrid crisp" transform="translate(189.83,0)" d="M0,50v385" style="stroke: rgb(0, 0, 0); stroke-opacity: 0.05; stroke-width: 1px;"/><path class="xgrid crisp" transform="translate(326.5,0)" d="M0,50v385" style="stroke: rgb(0, 0, 0); stroke-opacity: 0.05; stroke-width: 1px;"/><path class="xgrid crisp" transform="translate(463.17,0)" d="M0,50v385" style="stroke: rgb(0, 0, 0); stroke-opacity: 0.05; stroke-width: 1px;"/><path class="xgrid crisp" transform="translate(599.83,0)" d="M0,50v385" style="stroke: rgb(0, 0, 0); stroke-opacity: 0.05; stroke-width: 1px;"/><path class="xgrid crisp" transform="translate(736.5,0)" d="M0,50v385" style="stroke: rgb(0, 0, 0); stroke-opacity: 0.05; stroke-width: 1px;"/><path class="xgrid crisp" transform="translate(873.17,0)" d="M0,50v385" style="stroke: rgb(0, 0, 0); stroke-opacity: 0.05; stroke-width: 1px;"/><path class="xgrid crisp" transform="translate(1009.83,0)" d="M0,50v385" style="stroke: rgb(0, 0, 0); stroke-opacity: 0.05; stroke-width: 1px;"/></g><g class="y"><path class="ygrid crisp" transform="translate(0,385.09)" d="M60,0h1025" style="stroke: rgb(0, 0, 0); stroke-opacity: 0.05; stroke-width: 1px;"/><path class="ygrid crisp" transform="translate(0,335.18)" d="M60,0h1025" style="stroke: rgb(0, 0, 0); stroke-opacity: 0.05; stroke-width: 1px;"/><path class="ygrid crisp" transform="translate(0,285.27)" d="M60,0h1025" style="stroke: rgb(0, 0, 0); stroke-opacity: 0.05; stroke-width: 1px;"/><path class="ygrid crisp" transform="translate(0,235.36)" d="M60,0h1025" style="stroke: rgb(0, 0, 0); stroke-opacity: 0.05; stroke-width: 1px;"/><path class="ygrid crisp" transform="translate(0,185.45)" d="M60,0h1025" style="stroke: rgb(0, 0, 0); stroke-opacity: 0.05; stroke-width: 1px;"/><path class="ygrid crisp" transform="translate(0,135.54000000000002)" d="M60,0h1025" style="stroke: rgb(0, 0, 0); stroke-opacity: 0.05; stroke-width: 1px;"/><path class="ygrid crisp" transform="translate(0,85.63)" d="M60,0h1025" style="stroke: rgb(0, 0, 0); stroke-opacity: 0.05; stroke-width: 1px;"/></g></g><g class="zerolinelayer"><path class="yzl zl crisp" transform="translate(0,435)" d="M60,0h1025" style="stroke: rgb(0, 0, 0); stroke-opacity: 0.05; stroke-width: 2px;"/></g><g class="layer-between"><g class="shapelayer"/><g class="imagelayer"/></g><path class="xlines-below"/><path class="ylines-below"/><g class="overlines-below"/><g class="xaxislayer-below"/><g class="yaxislayer-below"/><g class="overaxes-below"/><g class="overplot"><g class="xy" transform="translate(60,50)" clip-path="url(#clip6473caxyplot)"><g class="scatterlayer mlayer"><g class="trace scatter tracebda15a" style="stroke-miterlimit: 2; opacity: 1;"><g class="fills"/><g class="errorbars"/><g class="lines"><path class="js-line" d="M0,247.22L6.83,341.77L13.67,368.02L20.5,375.45L27.33,375.88L34.17,377.34L41,376.92L47.83,377.91L54.67,377.77L88.83,378.41L95.67,377.79L123,378.6L129.83,377.83L143.5,376.96L150.33,375.95L157.17,376.83L164,376.59L170.83,377.05L177.67,376.11L184.5,376.89L191.33,376.56L198.17,377.66L205,377.24L218.67,376.46L225.5,375.6L232.33,377.55L239.17,377.48L252.83,377.79L259.67,377.9L280.17,379.03L287,378.51L293.83,379.32L300.67,376.06L307.5,382.46L314.33,379.83L328,379.12L334.83,379.99L348.5,379.61L355.33,380.27L369,380.45L375.83,381.42L389.5,381.07L396.33,381.9L410,382.45L416.83,382.31L437.33,383.23L444.17,382.4L451,382.77L457.83,382.06L464.67,383.16L471.5,383.39L478.33,384.84L485.17,384.67L498.83,383.87L505.67,384.11L642.33,384.82L649.17,384.83L1011.33,384.81L1018.17,383.61L1025,303.96" style="vector-effect: none; fill: none; stroke: rgb(124, 181, 236); stroke-opacity: 1; stroke-width: 2px; opacity: 1;"/></g><g class="points"/><g class="text"/></g><g class="trace scatter trace242067" style="stroke-miterlimit: 2; opacity: 1;"><g class="fills"/><g class="errorbars"/><g class="lines"><path class="js-line" d="M0,242.82L6.83,336.89L13.67,369.18L20.5,375.7L27.33,375.94L34.17,377.42L41,376.98L47.83,377.2L54.67,378.64L61.5,377.92L68.33,378.53L102.5,377.87L109.33,377.2L116.17,379.84L123,377.51L129.83,377.32L136.67,379.21L143.5,376.89L150.33,376.12L157.17,376.38L164,374.64L170.83,377.64L177.67,377.9L184.5,376.51L191.33,377.16L205,377.58L211.83,376.86L218.67,375.67L225.5,376.74L232.33,377.89L239.17,377.43L246,378.36L252.83,377.5L259.67,377.21L266.5,379L273.33,378.63L280.17,379.25L287,378.64L293.83,379.57L300.67,379.69L307.5,378.32L314.33,379.96L321.17,380.21L328,378.67L334.83,380.33L341.67,379.61L348.5,379.66L355.33,380.33L362.17,379.9L369,381.07L375.83,381.2L382.67,380.59L389.5,381.76L396.33,382.44L403.17,381.78L416.83,382.9L423.67,381.79L430.5,383.16L437.33,383.38L505.67,384.01L512.5,384.78L533,384.41L539.83,384.47L744.83,384.91L751.67,384.92L1018.17,384.89L1025,353.01" style="vector-effect: none; fill: none; stroke: rgb(67, 67, 72); stroke-opacity: 1; stroke-width: 2px; opacity: 1;"/></g><g class="points"/><g class="text"/></g><g class="trace scatter trace4522a2" style="stroke-miterlimit: 2; opacity: 1;"><g class="fills"/><g class="errorbars"/><g class="lines"><path class="js-line" d="M0,239.71L6.83,345.16L13.67,368.13L20.5,372.73L27.33,372.71L34.17,374.9L41,373.88L47.83,375.96L54.67,376.12L61.5,376.14L68.33,377.53L88.83,377.58L95.67,376.29L116.17,377.53L123,377.55L129.83,376.41L136.67,376.4L150.33,373.48L157.17,375.29L164,374.63L170.83,375.56L177.67,374.34L184.5,375.17L191.33,375.05L198.17,376.83L205,375.86L211.83,376.15L218.67,374.25L225.5,373.39L232.33,376.68L239.17,376.09L246,377.55L252.83,376.54L259.67,376.76L266.5,378.51L273.33,377.15L280.17,378.13L293.83,378.81L300.67,375.19L307.5,383L314.33,378.76L321.17,378.67L328,377.53L334.83,380.27L341.67,377.6L355.33,379.96L362.17,379.31L369,378.86L375.83,381.03L396.33,380.62L403.17,382.88L410,383.15L416.83,381.48L423.67,382.75L430.5,383.14L437.33,382.87L444.17,381.04L451,383.56L457.83,382.62L471.5,383.13L478.33,384.9L505.67,384.03L512.5,384.16L628.67,384.81L635.5,384.83L902,384.98L908.83,384.31L929.33,384.98L936.17,384.93L1011.33,384.88L1018.17,384.01L1025,324.79" style="vector-effect: none; fill: none; stroke: rgb(144, 237, 125); stroke-opacity: 1; stroke-width: 2px; opacity: 1;"/></g><g class="points"/><g class="text"/></g><g class="trace scatter tracefe37f2" style="stroke-miterlimit: 2; opacity: 1;"><g class="fills"/><g class="errorbars"/><g class="lines"><path class="js-line" d="M0,228.27L6.83,333.84L13.67,370.85L20.5,372.94L27.33,372.74L34.17,374.99L41,373.71L47.83,373.82L54.67,378.88L61.5,375.84L68.33,377.91L88.83,376.75L95.67,377.04L102.5,376.81L109.33,375.71L116.17,379.44L123,375.79L129.83,375.86L136.67,378.61L143.5,375.22L150.33,373.68L157.17,373.74L164,371.88L170.83,376.51L177.67,377.75L184.5,374.66L191.33,375.81L205,376.81L211.83,375.34L218.67,373.4L225.5,375.51L232.33,376.84L239.17,375.99L246,376.63L252.83,375.28L266.5,380.09L273.33,377.08L280.17,378.46L287,378.52L300.67,379.64L307.5,378.53L314.33,378.7L321.17,379.8L328,378.13L334.83,379.04L348.5,378.42L355.33,379.65L362.17,379.12L369,380.47L382.67,380.28L389.5,381.28L396.33,382.08L403.17,381.53L416.83,382.81L423.67,381.99L437.33,383.15L444.17,383.38L464.67,383.15L471.5,382.9L478.33,382.72L485.17,383.35L498.83,383.5L505.67,384.1L512.5,384.82L519.33,384.42L594.5,384.7L601.33,384.75L785.83,384.95L792.67,384.95L902,384.98L908.83,384.35L929.33,384.98L936.17,384.93L1018.17,384.91L1025,357.62" style="vector-effect: none; fill: none; stroke: rgb(247, 163, 92); stroke-opacity: 1; stroke-width: 2px; opacity: 1;"/></g><g class="points"/><g class="text"/></g><g class="trace scatter trace4b2220" style="stroke-miterlimit: 2; opacity: 1;"><g class="fills"/><g class="errorbars"/><g class="lines"><path class="js-line" d="M0,204.43L6.83,332.7L13.67,362.77L20.5,370.22L27.33,370.56L34.17,372.32L41,372.07L54.67,373.46L61.5,373.63L68.33,374.93L75.17,375.16L88.83,375.27L95.67,374.04L123,375.85L129.83,374.49L136.67,374.45L143.5,373.59L150.33,371.82L157.17,373.41L164,372.9L170.83,373.28L177.67,371.9L184.5,372.87L191.33,372.44L198.17,374.36L211.83,374.44L218.67,372.56L225.5,372.1L232.33,374.88L239.17,374.53L246,375.79L252.83,374.92L259.67,375.08L266.5,376.82L273.33,376L280.17,376.8L287,376.33L293.83,378.48L300.67,373.16L307.5,382.92L314.33,377.75L321.17,377.99L328,376.89L334.83,378.4L341.67,377.12L348.5,377.41L355.33,378.55L369,378.19L375.83,380.35L389.5,379.41L396.33,380.66L410,382.52L416.83,381.2L430.5,382.35L437.33,382.7L444.17,380.32L451,382.35L457.83,381.32L464.67,382.57L471.5,383.07L478.33,384.79L505.67,383.8L512.5,383.91L567.17,384.54L574,384.38L635.5,384.81L642.33,384.81L902,384.95L908.83,382.46L915.67,384.8L922.5,384.94L1011.33,384.93L1018.17,384.42L1025,349.26" style="vector-effect: none; fill: none; stroke: rgb(128, 133, 233); stroke-opacity: 1; stroke-width: 2px; opacity: 1;"/></g><g class="points"/><g class="text"/></g><g class="trace scatter tracea41bde" style="stroke-miterlimit: 2; opacity: 1;"><g class="fills"/><g class="errorbars"/><g class="lines"><path class="js-line" d="M0,201.93L6.83,320.22L13.67,367.02L20.5,370.41L27.33,370.58L34.17,372.4L41,371.75L47.83,370.06L54.67,377.12L61.5,373.08L68.33,375.43L88.83,373.84L95.67,375.05L109.33,373.18L116.17,377.7L123,373.83L129.83,374.03L136.67,376.44L143.5,373.48L150.33,372.08L157.17,372.7L164,370.71L170.83,374.42L184.5,372.76L191.33,372.76L198.17,374.8L205,373.93L211.83,374.55L218.67,372.58L225.5,372.32L232.33,375.05L239.17,374.53L246,375.76L252.83,374.7L259.67,375.71L266.5,376.94L273.33,375.8L287,377.62L293.83,377.9L300.67,378.58L307.5,377.67L314.33,377.52L321.17,378.68L328,377.02L334.83,377.92L348.5,377.33L355.33,378.51L362.17,377.94L369,379.53L375.83,379.86L382.67,379.33L396.33,381.37L403.17,380.78L416.83,382.38L423.67,381.11L437.33,382.78L444.17,383.02L451,382.5L457.83,382.74L478.33,382.01L485.17,382.9L498.83,383.18L505.67,383.94L512.5,384.76L519.33,384.28L560.33,384.54L567.17,384.56L594.5,384.62L601.33,384.69L902,384.95L908.83,382.49L915.67,384.8L922.5,384.94L1018.17,384.96L1025,376.99" style="vector-effect: none; fill: none; stroke: rgb(241, 92, 128); stroke-opacity: 1; stroke-width: 2px; opacity: 1;"/></g><g class="points"/><g class="text"/></g><g class="trace scatter tracee7abc3" style="stroke-miterlimit: 2; opacity: 1;"><g class="fills"/><g class="errorbars"/><g class="lines"><path class="js-line" d="M0,181.78L6.83,319.55L13.67,359.43L20.5,372.75L27.33,374.25L34.17,375.39L41,375.49L47.83,375.05L54.67,375.63L75.17,375.31L82,376.17L109.33,375.01L116.17,375.78L129.83,375.26L136.67,375.13L198.17,375.47L205,376.22L211.83,375.35L218.67,375.71L225.5,374.95L232.33,375.91L252.83,376.45L259.67,376.47L266.5,377.32L273.33,376.95L287,376.98L293.83,378.19L300.67,373.66L307.5,382.3L314.33,378.67L321.17,378.06L328,378.17L334.83,379.19L341.67,378.07L348.5,378.78L369,379.17L375.83,380.45L396.33,380.47L403.17,381.86L410,382.08L416.83,381.02L430.5,382.23L437.33,382.4L444.17,380.82L451,382.44L457.83,381.5L464.67,382.34L471.5,382.39L478.33,384.87L512.5,383.85L519.33,383.92L635.5,384.71L642.33,384.72L833.67,384.92L840.5,384.52L861,384.94L867.83,384.94L1011.33,384.84L1018.17,383.32L1025,277.55" style="vector-effect: none; fill: none; stroke: rgb(228, 211, 84); stroke-opacity: 1; stroke-width: 2px; opacity: 1;"/></g><g class="points"/><g class="text"/></g><g class="trace scatter tracea655b1" style="stroke-miterlimit: 2; opacity: 1;"><g class="fills"/><g class="errorbars"/><g class="lines"><path class="js-line" d="M0,192.85L6.83,322.86L13.67,363.95L20.5,373.09L27.33,374.27L34.17,375.41L41,375.67L47.83,374.09L54.67,376.71L61.5,375.43L68.33,375.88L88.83,375.07L95.67,376.06L109.33,374.03L116.17,377.52L123,374.44L129.83,374.68L136.67,377.07L143.5,375.06L157.17,374.75L164,373.52L170.83,375.84L177.67,375.58L184.5,375.09L191.33,375.47L211.83,375.92L218.67,375.26L225.5,374.58L232.33,376.49L239.17,376.17L246,376.79L259.67,376.04L266.5,377.05L273.33,377.73L280.17,377.57L287,377.41L293.83,378.06L307.5,377.29L314.33,378.9L321.17,378.91L328,377.87L334.83,378.9L341.67,378.44L362.17,379.18L369,380.09L382.67,379.94L389.5,380.9L403.17,380.97L410,381.29L416.83,382.13L423.67,381.16L437.33,382.53L444.17,382.77L457.83,382.69L464.67,382.71L492,382.87L498.83,383.07L512.5,384.7L519.33,384.19L553.5,384.37L560.33,384.43L758.5,384.87L765.33,384.87L1018.17,384.9L1025,360.49" style="vector-effect: none; fill: none; stroke: rgb(43, 144, 143); stroke-opacity: 1; stroke-width: 2px; opacity: 1;"/></g><g class="points"/><g class="text"/></g><g class="trace scatter tracee91f16" style="stroke-miterlimit: 2; opacity: 1;"><g class="fills"/><g class="errorbars"/><g class="lines"><path class="js-line" d="M0,158.87L6.83,319.48L13.67,358.28L20.5,368.12L27.33,369.03L34.17,371.3L41,370.9L61.5,372.04L68.33,373.3L88.83,373.57L95.67,372.72L109.33,372.85L116.17,373.97L123,374.02L129.83,372.96L143.5,372.37L150.33,370.78L157.17,371.9L164,371.91L170.83,372.3L177.67,370.99L184.5,372.1L191.33,371.31L198.17,373.19L205,373.04L211.83,373.17L218.67,371.86L225.5,371.07L232.33,374.29L239.17,373.63L246,375.02L252.83,374.18L259.67,374.29L266.5,376.37L273.33,374.88L280.17,376.23L287,376.26L293.83,376.96L300.67,373.21L307.5,380.82L314.33,377.1L321.17,374.01L328,375.8L334.83,380.46L341.67,373.07L348.5,379.37L355.33,379.86L369,375.74L375.83,379.88L389.5,380.61L396.33,378.03L403.17,383.51L410,383.12L416.83,380.39L423.67,382.77L430.5,383.43L437.33,382.14L444.17,380.73L451,384.07L457.83,382.83L464.67,382.7L471.5,382.51L478.33,384.91L492,384.24L498.83,383.62L526.17,384.22L533,384.26L744.83,384.94L751.67,384.95L1018.17,384.64L1025,363.67" style="vector-effect: none; fill: none; stroke: rgb(244, 91, 91); stroke-opacity: 1; stroke-width: 2px; opacity: 1;"/></g><g class="points"/><g class="text"/></g><g class="trace scatter traced7821c" style="stroke-miterlimit: 2; opacity: 1;"><g class="fills"/><g class="errorbars"/><g class="lines"><path class="js-line" d="M0,138.42L6.83,305.88L13.67,361.4L20.5,368.36L27.33,369.13L34.17,371.31L41,370.88L47.83,369.96L54.67,373.67L61.5,371.77L68.33,373.44L88.83,372.5L95.67,373.26L109.33,372.06L116.17,375.61L123,372.71L129.83,371.92L136.67,374.75L143.5,372.09L150.33,370.98L157.17,371.15L164,369.68L170.83,373.14L177.67,372.92L184.5,371.67L191.33,371.78L198.17,373.79L205,372.39L211.83,373.56L218.67,371.32L225.5,371.82L232.33,374.09L239.17,373.5L246,374.69L252.83,374.67L259.67,373.49L266.5,376.28L287,376.44L293.83,377.23L300.67,377.56L307.5,376.12L314.33,377.69L321.17,378.21L328,376.51L334.83,377.77L348.5,377.02L355.33,378.25L362.17,377.97L369,379.32L375.83,379.65L382.67,379.2L396.33,381.21L403.17,380.61L416.83,382.32L423.67,381.22L437.33,382.76L444.17,382.93L457.83,382.84L464.67,382.82L478.33,382.25L485.17,383.08L498.83,383.29L505.67,383.99L512.5,384.77L519.33,384.35L574,384.49L580.83,384.61L724.33,384.94L731.17,384.94L1018.17,384.98L1025,379.24" style="vector-effect: none; fill: none; stroke: rgb(145, 232, 225); stroke-opacity: 1; stroke-width: 2px; opacity: 1;"/></g><g class="points"/><g class="text"/></g><g class="trace scatter trace7efa0a" style="stroke-miterlimit: 2; opacity: 1;"><g class="fills"/><g class="errorbars"/><g class="lines"><path class="js-line" d="M0,123.53L6.83,297.07L13.67,351.72L20.5,370.88L27.33,372.98L34.17,374.6L41,374.42L68.33,375.3L75.17,374.96L82,375.84L88.83,375.33L95.67,374.7L102.5,375.04L109.33,374.61L116.17,375.32L123,375.68L129.83,374.72L143.5,374.31L150.33,373.38L157.17,374.2L164,374.13L170.83,374.53L177.67,373.76L198.17,375.05L205,375.01L225.5,373.38L232.33,375.73L239.17,375.09L246,375.84L259.67,375.85L266.5,376.54L280.17,376.28L287,377.03L293.83,377.42L300.67,372.32L307.5,382.18L314.33,377.37L321.17,354.86L328,379.27L334.83,383.4L341.67,373.59L348.5,380.86L355.33,382.83L362.17,377.47L369,375.85L375.83,382.63L382.67,382.82L389.5,383.28L396.33,380.31L403.17,384.56L410,384L416.83,381.3L423.67,384.13L430.5,384.39L437.33,383.02L444.17,382.51L451,384.74L464.67,383.51L471.5,382.94L478.33,384.9L485.17,384.9L505.67,383.93L512.5,384.04L683.33,384.89L690.17,384.9L1011.33,384.9L1018.17,384.39L1025,349.03" style="vector-effect: none; fill: none; stroke: rgb(124, 181, 236); stroke-opacity: 1; stroke-width: 2px; opacity: 1;"/></g><g class="points"/><g class="text"/></g><g class="trace scatter trace2db54c" style="stroke-miterlimit: 2; opacity: 1;"><g class="fills"/><g class="errorbars"/><g class="lines"><path class="js-line" d="M0,143.73L6.83,304.36L13.67,356.97L20.5,370.79L27.33,372.94L34.17,374.71L41,374.44L47.83,373.49L54.67,376.71L61.5,374.98L68.33,375.67L109.33,374.79L116.17,376.23L129.83,373.73L136.67,376.14L143.5,374.25L150.33,373.63L157.17,373.66L164,372.53L170.83,375.13L177.67,375.37L184.5,374.4L191.33,374.76L198.17,375.43L205,374.68L211.83,374.89L218.67,374.33L225.5,373.6L232.33,374.85L266.5,376.7L273.33,376.6L300.67,377.87L307.5,377.05L314.33,378.43L321.17,378.61L328,377.64L334.83,378.71L348.5,378.54L355.33,379.24L362.17,379.17L369,380.08L382.67,380.09L389.5,381.03L416.83,382.27L423.67,381.36L437.33,382.75L444.17,382.94L457.83,382.91L464.67,382.98L498.83,383.3L505.67,383.86L512.5,384.75L519.33,384.32L553.5,384.5L560.33,384.54L908.83,384.95L915.67,384.83L956.67,384.92L963.5,384.84L1018.17,384.95L1025,371.4" style="vector-effect: none; fill: none; stroke: rgb(67, 67, 72); stroke-opacity: 1; stroke-width: 2px; opacity: 1;"/></g><g class="points"/><g class="text"/></g><g class="trace scatter trace3aa1c1" style="stroke-miterlimit: 2; opacity: 1;"><g class="fills"/><g class="errorbars"/><g class="lines"><path class="js-line" d="M0,254.15L6.83,345.48L13.67,369.46L20.5,375.54L27.33,375.69L34.17,377.32L41,376.57L54.67,378.21L61.5,377.75L68.33,378.55L75.17,378.44L88.83,378.67L95.67,377.84L123,378.74L129.83,377.94L143.5,377.32L150.33,376.19L157.17,377.08L164,376.86L170.83,377.4L177.67,376.37L184.5,377.13L191.33,376.69L198.17,377.64L205,377.45L211.83,377.57L218.67,376.31L225.5,375.76L232.33,377.93L239.17,377.17L246,378.46L252.83,377.3L259.67,377.88L266.5,379.29L273.33,378.16L280.17,379.09L287,378.69L293.83,379.39L300.67,376.5L307.5,382.31L314.33,379.57L328,378.51L334.83,380.41L341.67,378.38L348.5,379.63L355.33,380.26L362.17,379.78L369,379.35L375.83,381.09L396.33,380.49L403.17,382.88L410,383.08L416.83,381.58L430.5,383.04L437.33,382.69L444.17,381.17L451,383.45L457.83,382.43L464.67,382.78L471.5,382.94L478.33,384.9L512.5,384.07L519.33,384.18L635.5,384.83L642.33,384.83L908.83,384.92L915.67,384.8L956.67,384.93L963.5,384.83L1004.5,384.91L1011.33,384.89L1018.17,383.95L1025,325.26" style="vector-effect: none; fill: none; stroke: rgb(144, 237, 125); stroke-opacity: 1; stroke-width: 2px; opacity: 1;"/></g><g class="points"/><g class="text"/></g><g class="trace scatter tracef17ad7" style="stroke-miterlimit: 2; opacity: 1;"><g class="fills"/><g class="errorbars"/><g class="lines"><path class="js-line" d="M0,240.12L6.83,340.3L13.67,371.29L20.5,375.5L27.33,375.73L34.17,377.33L41,376.58L47.83,376.36L54.67,379.31L61.5,377.56L68.33,378.68L109.33,377.37L116.17,379.96L123,377.56L129.83,377.4L136.67,379.35L143.5,377.19L164,375L170.83,377.89L177.67,378.57L184.5,376.68L198.17,377.5L205,377.59L211.83,377.47L218.67,376.5L225.5,375.61L232.33,377.47L246,378.62L252.83,377.4L266.5,379.18L273.33,378.12L280.17,379.22L287,379.08L300.67,379.8L307.5,378.74L321.17,380.18L328,378.64L334.83,379.83L341.67,379.31L348.5,379.12L355.33,380.01L362.17,379.76L369,380.64L389.5,381.17L396.33,382.02L403.17,381.53L410,382.08L416.83,382.79L423.67,381.9L437.33,383.04L444.17,383.21L478.33,382.69L485.17,383.3L505.67,383.94L512.5,384.78L533,384.33L539.83,384.38L703.83,384.92L710.67,384.92L1018.17,384.92L1025,365.26" style="vector-effect: none; fill: none; stroke: rgb(247, 163, 92); stroke-opacity: 1; stroke-width: 2px; opacity: 1;"/></g><g class="points"/><g class="text"/></g><g class="trace scatter trace8c4333" style="stroke-miterlimit: 2; opacity: 1;"><g class="fills"/><g class="errorbars"/><g class="lines"><path class="js-line" d="M0,31.21L6.83,264.37L13.67,337.86L20.5,365.88L27.33,369.71L34.17,371.29L41,371.66L47.83,370.58L54.67,371.89L75.17,371.16L82,372.06L95.67,371.55L102.5,371.63L109.33,371.04L116.17,371.82L123,372.51L129.83,371.82L136.67,371.56L143.5,372.08L150.33,371.46L157.17,371.99L198.17,372.96L205,373.67L225.5,373.7L232.33,374.06L239.17,373.82L246,375.29L252.83,374.54L259.67,375.09L266.5,375.94L273.33,375.59L280.17,376.25L287,376.05L293.83,377.28L300.67,372.35L307.5,382.36L314.33,378.32L328,378.23L334.83,379.28L341.67,378.84L348.5,379.49L382.67,381L389.5,380.93L410,382.72L416.83,381.91L437.33,383.15L444.17,382.16L451,383.06L457.83,382.57L478.33,384.9L485.17,384.77L498.83,384.15L505.67,384.21L642.33,384.9L649.17,384.91L1018.17,384.94L1025,381.12" style="vector-effect: none; fill: none; stroke: rgb(128, 133, 233); stroke-opacity: 1; stroke-width: 2px; opacity: 1;"/></g><g class="points"/><g class="text"/></g><g class="trace scatter trace2ab8eb" style="stroke-miterlimit: 2; opacity: 1;"><g class="fills"/><g class="errorbars"/><g class="lines"><path class="js-line" d="M0,61.71L6.83,274.53L13.67,341.84L20.5,365.46L27.33,369.57L34.17,371.52L41,371.74L47.83,368.68L54.67,374.43L61.5,371.38L68.33,372.17L75.17,371.48L82,371.69L88.83,371.18L95.67,372.39L109.33,370.17L116.17,374.19L123,370.46L129.83,370.89L136.67,374.5L143.5,372.06L150.33,371.86L157.17,370.55L164,369.37L170.83,373.35L177.67,375.64L184.5,372.18L191.33,373.77L198.17,372.23L205,374.45L211.83,372.91L218.67,373.31L225.5,374.62L239.17,374.33L246,374.89L252.83,373.96L259.67,375.76L287,376.41L293.83,377.35L307.5,376.52L314.33,378.87L328,377.94L334.83,379.38L348.5,379.39L355.33,379.87L382.67,380.77L389.5,381.62L416.83,382.69L423.67,382L437.33,383.2L444.17,383.33L478.33,383.62L485.17,383.82L505.67,384.15L512.5,384.83L533,384.52L539.83,384.56L902,384.98L908.83,384.94L1018.17,384.99L1025,384.17" style="vector-effect: none; fill: none; stroke: rgb(241, 92, 128); stroke-opacity: 1; stroke-width: 2px; opacity: 1;"/></g><g class="points"/><g class="text"/></g><g class="trace scatter trace90d722" style="stroke-miterlimit: 2; opacity: 1;"><g class="fills"/><g class="errorbars"/><g class="lines"><path class="js-line" d="M0,110.15L6.83,293.14L13.67,349.27L20.5,368.62L27.33,370.42L34.17,372.47L41,372.21L47.83,372.28L54.67,373.15L61.5,372.84L68.33,373.41L75.17,373.11L82,373.93L109.33,372.64L116.17,373.63L123,373.57L129.83,366.82L136.67,379.31L143.5,372.53L150.33,371.6L157.17,372.06L170.83,372.72L177.67,371.76L184.5,372.68L191.33,372.54L205,373.36L211.83,373.26L225.5,371.86L232.33,373.04L246,374.64L252.83,374.48L259.67,374.53L266.5,375.61L273.33,374.65L280.17,375.5L287,375.35L293.83,376.53L300.67,370.59L307.5,381.75L314.33,378.05L321.17,376.43L328,375.99L334.83,379.04L341.67,376.37L348.5,377.77L355.33,378.55L362.17,378.41L369,377.63L375.83,379.76L396.33,379.39L403.17,382.07L410,382.26L416.83,380.32L423.67,381.85L430.5,382.35L437.33,382.21L444.17,380.28L451,382.93L457.83,381.93L471.5,382.4L478.33,384.88L492,383.99L498.83,383.57L539.83,384.25L546.67,384.33L615,384.76L621.83,384.76L751.67,384.96L758.5,384.96L1018.17,384.67L1025,366.52" style="vector-effect: none; fill: none; stroke: rgb(228, 211, 84); stroke-opacity: 1; stroke-width: 2px; opacity: 1;"/></g><g class="points"/><g class="text"/></g><g class="trace scatter trace8e7b2d" style="stroke-miterlimit: 2; opacity: 1;"><g class="fills"/><g class="errorbars"/><g class="lines"><path class="js-line" d="M0,129.89L6.83,300.67L13.67,356.13L20.5,368.6L27.33,370.44L34.17,372.61L41,372.18L47.83,370.73L54.67,375.27L61.5,372.71L68.33,373.84L88.83,372.9L95.67,373.6L102.5,373.04L109.33,371.53L116.17,375.94L123,371.81L129.83,372.31L136.67,375.51L143.5,372.48L150.33,371.8L164,369.99L170.83,373.52L177.67,374.26L184.5,372.6L205,373.51L211.83,373.37L225.5,371.4L232.33,373.96L246,374.85L252.83,374.33L266.5,374.59L273.33,376.07L287,375.9L293.83,376.6L300.67,376.81L307.5,375.87L314.33,377.43L321.17,377.66L328,376.52L334.83,377.73L348.5,377.41L355.33,378.21L362.17,378.21L369,379.32L382.67,379.31L389.5,380.36L396.33,380.87L403.17,380.61L416.83,381.86L423.67,380.93L437.33,382.42L444.17,382.66L464.67,382.74L471.5,382.68L478.33,382.48L485.17,383.05L498.83,383.09L505.67,383.69L512.5,384.73L519.33,384.26L553.5,384.46L560.33,384.53L908.83,384.97L915.67,384.9L990.83,384.93L997.67,384.92L1018.17,384.98L1025,379.34" style="vector-effect: none; fill: none; stroke: rgb(43, 144, 143); stroke-opacity: 1; stroke-width: 2px; opacity: 1;"/></g><g class="points"/><g class="text"/></g><g class="trace scatter traceceba2e" style="stroke-miterlimit: 2; opacity: 1;"><g class="fills"/><g class="errorbars"/><g class="lines"><path class="js-line" d="M0,206.98L6.83,330.35L13.67,364.91L20.5,373.14L27.33,373.62L34.17,375.71L41,374.92L47.83,376.15L54.67,376.5L88.83,376.84L95.67,376.06L123,377L129.83,376L143.5,375.22L150.33,373.62L157.17,374.99L164,374.48L170.83,375.03L177.67,373.83L198.17,375.43L205,375.13L218.67,374.01L225.5,372.88L232.33,375.32L239.17,374.69L246,376.56L252.83,376.09L259.67,375.96L266.5,376.9L273.33,375.98L280.17,377.16L287,376.66L293.83,377.58L300.67,373.01L307.5,381.84L314.33,378.21L321.17,377.06L328,376.23L334.83,379.58L341.67,376.27L348.5,378.06L355.33,378.9L362.17,378.18L369,377.39L375.83,379.84L389.5,379.57L396.33,378.85L403.17,382.31L410,382.4L416.83,380.29L423.67,381.99L430.5,382.4L437.33,381.99L444.17,379.88L451,382.99L457.83,381.72L464.67,382.06L471.5,382.11L478.33,384.88L492,383.86L498.83,383.28L533,383.96L539.83,384.04L649.17,384.74L656,384.72L833.67,384.92L840.5,384.42L861,384.94L867.83,384.93L963.5,384.55L970.33,384.86L1011.33,384.71L1018.17,382.53L1025,241.03" style="vector-effect: none; fill: none; stroke: rgb(244, 91, 91); stroke-opacity: 1; stroke-width: 2px; opacity: 1;"/></g><g class="points"/><g class="text"/></g><g class="trace scatter traced25e6f" style="stroke-miterlimit: 2; opacity: 1;"><g class="fills"/><g class="errorbars"/><g class="lines"><path class="js-line" d="M0,182.6L6.83,320.91L13.67,365.09L20.5,372.9L27.33,373.57L34.17,375.7L41,374.85L47.83,374.77L54.67,378.04L61.5,376.24L68.33,377.19L88.83,376.1L95.67,376.43L109.33,375.39L116.17,378.58L123,375.51L129.83,375.33L136.67,377.73L143.5,375.03L150.33,373.79L157.17,373.86L164,372.41L170.83,375.76L177.67,376.05L184.5,374.13L198.17,375.63L205,374.9L211.83,375.1L218.67,373.37L225.5,373.27L232.33,375.81L239.17,375.03L246,376.48L252.83,375.51L259.67,375.38L266.5,377.49L273.33,376.52L280.17,377.19L287,377L300.67,378.08L307.5,376.77L321.17,378.46L328,376.74L334.83,378.24L341.67,377.6L348.5,377.47L355.33,378.44L362.17,378.11L369,379.21L389.5,380.09L396.33,380.99L403.17,380.48L410,381.03L416.83,381.93L423.67,381.16L444.17,382.62L451,382.2L471.5,382.32L478.33,382.04L485.17,382.7L492,382.52L505.67,383.52L512.5,384.68L526.17,384L533,384.03L690.17,384.81L697,384.83L1018.17,384.82L1025,335.94" style="vector-effect: none; fill: none; stroke: rgb(145, 232, 225); stroke-opacity: 1; stroke-width: 2px; opacity: 1;"/></g><g class="points"/><g class="text"/></g><g class="trace scatter trace168de1" style="stroke-miterlimit: 2; opacity: 1;"><g class="fills"/><g class="errorbars"/><g class="lines"><path class="js-line" d="M0,176.47L6.83,323.15L13.67,360.25L20.5,368.92L27.33,369.54L34.17,371.61L41,371.41L82,374.41L88.83,374.06L95.67,373.18L102.5,373.25L109.33,373.39L116.17,374.61L123,374.52L129.83,373.38L136.67,373.27L143.5,372.4L150.33,370.88L157.17,372.44L164,372.08L170.83,372.57L177.67,371.03L184.5,371.73L191.33,371.45L198.17,373.26L205,372.69L211.83,373.02L218.67,371.51L225.5,370.83L232.33,373.56L239.17,373.05L246,374.92L252.83,373.81L259.67,374.33L266.5,375.97L273.33,374.72L280.17,375.86L293.83,376.75L300.67,372.03L307.5,381.97L314.33,377L321.17,377.62L328,376.39L334.83,377.25L341.67,376.87L348.5,376.86L355.33,377.95L369,378.29L375.83,379.68L382.67,379.72L389.5,378.95L396.33,380.78L403.17,380.81L410,381.72L416.83,381.26L437.33,382.5L444.17,381.38L451,381.44L457.83,380.37L464.67,382.33L471.5,382.79L478.33,384.7L485.17,384.49L498.83,383.29L505.67,383.66L560.33,384.48L567.17,384.5L594.5,384.6L601.33,384.64L1011.33,384.88L1018.17,384.19L1025,333.21" style="vector-effect: none; fill: none; stroke: rgb(124, 181, 236); stroke-opacity: 1; stroke-width: 2px; opacity: 1;"/></g><g class="points"/><g class="text"/></g><g class="trace scatter trace5f2720" style="stroke-miterlimit: 2; opacity: 1;"><g class="fills"/><g class="errorbars"/><g class="lines"><path class="js-line" d="M0,153.32L6.83,308.63L13.67,361.64L20.5,368.81L27.33,369.44L34.17,371.58L41,371.37L47.83,370.06L54.67,374.38L61.5,372.11L68.33,373.83L88.83,372.57L95.67,373.45L109.33,372L116.17,376.68L123,372.37L129.83,372.47L136.67,375.7L143.5,372.1L157.17,370.52L164,368.76L170.83,373.39L177.67,374.6L184.5,371.04L191.33,372.27L211.83,372.81L218.67,371.93L225.5,370.56L232.33,373.08L239.17,372.81L246,375.01L252.83,374.31L259.67,374.54L280.17,376.13L287,376.24L300.67,377.51L307.5,375.89L321.17,378.01L328,376.08L334.83,377.42L341.67,377.06L348.5,376.8L355.33,377.98L362.17,377.52L369,378.96L389.5,379.84L396.33,380.97L403.17,380.47L410,380.97L416.83,382.02L423.67,380.99L437.33,382.54L444.17,382.75L457.83,382.6L464.67,382.64L478.33,381.96L485.17,382.84L498.83,382.96L505.67,383.71L512.5,384.71L519.33,384.19L574,384.37L580.83,384.49L1018.17,384.94L1025,372.41" style="vector-effect: none; fill: none; stroke: rgb(67, 67, 72); stroke-opacity: 1; stroke-width: 2px; opacity: 1;"/></g><g class="points"/><g class="text"/></g><g class="trace scatter trace82b39a" style="stroke-miterlimit: 2; opacity: 1;"><g class="fills"/><g class="errorbars"/><g class="lines"><path class="js-line" d="M0,161.07L6.83,316.6L13.67,358.71L20.5,369.34L27.33,370.19L34.17,372.08L41,371.98L75.17,373.56L82,374.57L95.67,373.43L102.5,373.61L109.33,373.4L116.17,374.46L123,374.34L129.83,373.4L143.5,373.2L150.33,372.01L157.17,372.86L164,372.78L170.83,373.29L177.67,371.91L184.5,373.24L191.33,372.39L198.17,373.55L205,373.68L211.83,373.92L218.67,372.65L225.5,371.97L232.33,374.82L239.17,374.13L246,374.86L259.67,374.81L266.5,376.19L273.33,375.22L280.17,376.08L293.83,377.04L300.67,372.1L307.5,381.55L314.33,376.08L321.17,349.66L328,377.86L334.83,383.04L341.67,372.28L348.5,380.86L355.33,382.69L362.17,375.57L369,375.74L375.83,382.77L382.67,382.91L389.5,383.36L396.33,380.02L403.17,384.62L410,384.01L416.83,381.42L423.67,384.22L430.5,384.45L437.33,382.92L444.17,382.61L451,384.77L464.67,383.49L471.5,382.93L478.33,384.89L485.17,384.9L505.67,383.8L512.5,383.94L683.33,384.82L690.17,384.84L908.83,384.93L915.67,384.65L936.17,384.9L943,384.87L1011.33,384.89L1018.17,383.93L1025,325.32" style="vector-effect: none; fill: none; stroke: rgb(144, 237, 125); stroke-opacity: 1; stroke-width: 2px; opacity: 1;"/></g><g class="points"/><g class="text"/></g><g class="trace scatter tracec582b9" style="stroke-miterlimit: 2; opacity: 1;"><g class="fills"/><g class="errorbars"/><g class="lines"><path class="js-line" d="M0,135.23L6.83,307.71L13.67,361.02L20.5,369.42L27.33,370.16L34.17,372.06L41,371.92L47.83,370.42L54.67,374.81L61.5,372.53L68.33,373.97L88.83,372.82L95.67,373.91L109.33,372.42L116.17,376.2L123,372.55L129.83,372.41L136.67,375.6L143.5,372.91L150.33,372.12L157.17,372.26L164,370.5L170.83,373.93L177.67,373.96L184.5,372.65L191.33,372.9L198.17,374.02L205,373.06L211.83,374.2L218.67,372.24L225.5,372.54L232.33,374.62L239.17,374.23L246,375.11L252.83,374.2L259.67,374.06L266.5,375.5L273.33,377.16L280.17,376.35L300.67,377.48L307.5,376.45L321.17,378.07L328,376.82L334.83,377.98L341.67,377.82L348.5,377.7L355.33,378.61L362.17,378.18L369,379.41L375.83,379.76L382.67,379.28L389.5,380.67L396.33,381.22L403.17,380.69L410,381.2L416.83,382.23L423.67,381.02L430.5,382.22L437.33,382.6L457.83,382.76L464.67,382.87L492,382.9L498.83,383.16L512.5,384.73L519.33,384.22L580.83,384.51L587.67,384.52L676.5,384.82L683.33,384.82L833.67,384.95L840.5,384.7L867.83,384.96L874.67,384.94L1018.17,384.93L1025,368.36" style="vector-effect: none; fill: none; stroke: rgb(247, 163, 92); stroke-opacity: 1; stroke-width: 2px; opacity: 1;"/></g><g class="points"/><g class="text"/></g><g class="trace scatter trace4690e5" style="stroke-miterlimit: 2; opacity: 1;"><g class="fills"/><g class="errorbars"/><g class="lines"><path class="js-line" d="M0,102.8L6.83,294.48L13.67,348.89L20.5,365.22L27.33,367.05L34.17,369.16L41,369.14L47.83,369.2L54.67,370.08L61.5,370.06L68.33,370.83L75.17,370.55L82,371.39L102.5,370.41L109.33,370.1L116.17,371.21L123,371.37L129.83,370.16L136.67,369.91L143.5,369.63L150.33,368.16L164,369.16L170.83,369.47L177.67,368.18L184.5,369.39L191.33,368.62L198.17,370.07L211.83,369.86L218.67,368.92L225.5,368.02L232.33,370.79L239.17,370.06L246,371.51L259.67,371.06L266.5,372.45L273.33,371.67L280.17,372.78L293.83,373.38L300.67,367.3L307.5,380.49L314.33,374.39L321.17,374.71L328,373.4L334.83,374.92L341.67,374.04L362.17,375.68L369,375.82L375.83,377.64L382.67,377.71L389.5,376.85L396.33,378.61L410,380.56L416.83,379.42L423.67,380.39L430.5,380.49L437.33,381.31L444.17,379.21L451,380.34L457.83,378.88L464.67,381.23L471.5,381.9L478.33,384.69L485.17,384.36L498.83,382.77L505.67,383.19L567.17,384.25L574,384.12L628.67,384.68L635.5,384.71L861,384.98L867.83,384.98L1018.17,384.59L1025,355.41" style="vector-effect: none; fill: none; stroke: rgb(128, 133, 233); stroke-opacity: 1; stroke-width: 2px; opacity: 1;"/></g><g class="points"/><g class="text"/></g><g class="trace scatter tracea7ca72" style="stroke-miterlimit: 2; opacity: 1;"><g class="fills"/><g class="errorbars"/><g class="lines"><path class="js-line" d="M0,103.38L6.83,290.47L13.67,352.59L20.5,365.14L27.33,366.97L34.17,369.28L41,369.3L47.83,367.72L54.67,371.95L61.5,369.94L68.33,371.25L88.83,370.1L95.67,371.07L109.33,369.67L116.17,373.03L123,369.96L129.83,368.89L136.67,372.37L143.5,369.44L150.33,368.41L157.17,368.57L164,366.75L170.83,370.65L184.5,369.12L191.33,369.25L198.17,370.72L205,369.32L211.83,370.43L218.67,368.38L225.5,368.54L232.33,370.78L239.17,369.24L246,371.34L252.83,372.5L259.67,371.19L266.5,371.4L273.33,373.53L280.17,372.69L287,373.26L300.67,374.27L307.5,372.79L314.33,374.69L321.17,375.19L328,373.17L334.83,374.98L348.5,374.45L355.33,375.69L362.17,375.27L369,376.95L382.67,376.8L389.5,378.52L396.33,379.29L403.17,378.68L410,379.34L416.83,380.8L423.67,379L430.5,380.74L444.17,381.7L451,381.18L464.67,381.66L471.5,381.36L478.33,381.07L485.17,382.02L498.83,382.28L505.67,383.21L512.5,384.61L519.33,383.88L546.67,383.97L553.5,384.17L669.67,384.79L676.5,384.83L956.67,384.94L963.5,384.86L1018.17,384.97L1025,379.36" style="vector-effect: none; fill: none; stroke: rgb(241, 92, 128); stroke-opacity: 1; stroke-width: 2px; opacity: 1;"/></g><g class="points"/><g class="text"/></g><g class="trace scatter tracee3abab" style="stroke-miterlimit: 2; opacity: 1;"><g class="fills"/><g class="errorbars"/><g class="lines"><path class="js-line" d="M0,239.46L6.83,342.99L13.67,367.98L20.5,372.65L27.33,372.85L34.17,375.75L41,374.46L47.83,376.09L54.67,376.1L61.5,376.15L68.33,377.4L88.83,377.32L95.67,376.2L123,377.33L129.83,376.03L136.67,375.94L143.5,375.05L150.33,373.41L157.17,374.97L164,374.53L170.83,375.23L177.67,373.95L184.5,374.76L191.33,374.44L198.17,376L205,374.69L211.83,375.1L218.67,373.09L225.5,372.35L232.33,375.64L239.17,375.06L246,376.66L252.83,376.31L259.67,376.13L266.5,377.87L273.33,376.56L280.17,377.41L287,377.17L293.83,378.31L300.67,374.2L307.5,382.03L314.33,377.55L321.17,377.71L328,376.51L334.83,378.64L341.67,376.73L348.5,377.52L355.33,378.65L362.17,378.26L369,377.85L375.83,380.05L396.33,379.6L403.17,381.95L410,382.43L416.83,380.76L423.67,381.94L430.5,382.32L437.33,382.29L444.17,380.1L451,382.7L457.83,381.46L471.5,381.99L478.33,384.87L492,383.86L498.83,383.18L519.33,383.91L526.17,384.01L649.17,384.81L656,384.81L1011.33,384.91L1018.17,384.06L1025,339.96" style="vector-effect: none; fill: none; stroke: rgb(228, 211, 84); stroke-opacity: 1; stroke-width: 2px; opacity: 1;"/></g><g class="points"/><g class="text"/></g><g class="trace scatter trace741b97" style="stroke-miterlimit: 2; opacity: 1;"><g class="fills"/><g class="errorbars"/><g class="lines"><path class="js-line" d="M0,213.57L6.83,333.86L13.67,368.64L20.5,372.79L27.33,372.88L34.17,375.75L41,374.43L47.83,374.57L54.67,377.85L61.5,375.89L68.33,377.6L109.33,375.61L116.17,379L123,375.84L129.83,375.35L136.67,377.85L143.5,374.89L150.33,373.58L157.17,374.11L164,372L170.83,375.68L177.67,376.73L184.5,374.29L198.17,376.1L205,374.5L211.83,375.2L218.67,371.03L225.5,374.35L232.33,376.07L239.17,374.83L246,377.1L259.67,375.46L266.5,377.39L280.17,377.73L287,377.59L300.67,378.44L307.5,377.23L321.17,378.64L328,376.67L334.83,377.93L341.67,377.71L348.5,377.11L355.33,378.4L362.17,377.97L369,379.43L389.5,379.87L396.33,381.1L403.17,380.5L410,381.2L416.83,382.21L423.67,380.99L437.33,382.59L444.17,382.81L457.83,382.54L464.67,382.44L478.33,381.76L485.17,382.72L498.83,382.89L505.67,383.77L512.5,384.71L519.33,384.17L553.5,384.43L560.33,384.49L1018.17,384.94L1025,369.39" style="vector-effect: none; fill: none; stroke: rgb(43, 144, 143); stroke-opacity: 1; stroke-width: 2px; opacity: 1;"/></g><g class="points"/><g class="text"/></g><g class="trace scatter trace2c5b61" style="stroke-miterlimit: 2; opacity: 1;"><g class="fills"/><g class="errorbars"/><g class="lines"><path class="js-line" d="M0,118.86L6.83,293.11L13.67,349.22L20.5,369.42L27.33,370.99L34.17,372.59L41,372.28L47.83,372.48L54.67,373.58L61.5,373.04L68.33,373.47L75.17,373.09L82,373.66L109.33,372.51L116.17,373.14L123,373.77L129.83,372.62L143.5,372.05L150.33,370.33L157.17,372.16L164,371.45L170.83,372.17L177.67,371.06L205,372.67L211.83,372.16L225.5,370.77L232.33,372.45L246,373.56L252.83,372.86L293.83,375.11L300.67,369.3L307.5,381.44L314.33,376.02L328,375.4L334.83,376.64L341.67,375.71L348.5,376.09L362.17,377.33L369,377.26L375.83,378.79L382.67,378.81L389.5,378.2L396.33,379.54L410,381.06L416.83,379.98L423.67,380.96L430.5,381.16L437.33,381.87L444.17,380.04L451,381.21L457.83,380.03L464.67,381.95L471.5,382.47L478.33,384.74L485.17,384.45L498.83,383.15L505.67,383.43L567.17,384.42L574,384.32L628.67,384.75L635.5,384.77L908.83,384.87L915.67,384.83L977.17,384.9L984,384.85L1018.17,384.43L1025,351.9" style="vector-effect: none; fill: none; stroke: rgb(244, 91, 91); stroke-opacity: 1; stroke-width: 2px; opacity: 1;"/></g><g class="points"/><g class="text"/></g><g class="trace scatter trace66b190" style="stroke-miterlimit: 2; opacity: 1;"><g class="fills"/><g class="errorbars"/><g class="lines"><path class="js-line" d="M0,152.19L6.83,302.69L13.67,355.73L20.5,369.26L27.33,370.92L34.17,372.77L41,372.25L47.83,371.03L54.67,375.6L61.5,372.82L68.33,374.02L88.83,372.23L95.67,373.75L102.5,373.03L109.33,371.09L116.17,375.92L123,371.77L129.83,372.37L136.67,374.62L143.5,372.04L150.33,371.14L157.17,371.42L164,369.75L170.83,373L177.67,372.1L191.33,372.27L198.17,372.78L211.83,372.98L218.67,371.49L225.5,371.11L232.33,372.77L252.83,372.33L259.67,374.45L266.5,373.55L273.33,374.37L287,374.64L293.83,375.33L300.67,375.64L307.5,374.47L314.33,376.23L321.17,376.59L328,375.25L334.83,376.57L348.5,376.09L355.33,377.05L362.17,376.95L369,378.29L382.67,378.04L389.5,379.59L396.33,380.12L403.17,379.7L416.83,381.17L423.67,379.87L430.5,381.37L437.33,381.93L457.83,382.06L464.67,382.25L478.33,381.89L485.17,382.59L498.83,382.66L505.67,383.4L512.5,384.68L519.33,384.06L546.67,384.21L553.5,384.31L642.33,384.8L649.17,384.82L1018.17,384.95L1025,372.76" style="vector-effect: none; fill: none; stroke: rgb(145, 232, 225); stroke-opacity: 1; stroke-width: 2px; opacity: 1;"/></g><g class="points"/><g class="text"/></g><g class="trace scatter trace1699e7" style="stroke-miterlimit: 2; opacity: 1;"><g class="fills"/><g class="errorbars"/><g class="lines"><path class="js-line" d="M0,231.28L6.83,342.29L13.67,366.65L20.5,372.6L27.33,373.46L34.17,374.79L41,374.89L47.83,374.74L54.67,376.55L61.5,375.93L68.33,376.88L88.83,376.81L95.67,376.02L123,376.74L129.83,376L143.5,374.9L150.33,373.49L157.17,374.95L164,374.28L170.83,374.75L177.67,373.64L191.33,374.45L198.17,376L211.83,375.44L218.67,373.98L225.5,373.42L232.33,375.89L239.17,375.72L246,376.58L252.83,375.96L259.67,376.57L280.17,377.52L287,376.97L293.83,378.19L300.67,373.56L307.5,382.15L314.33,378.39L328,377.06L334.83,378.41L341.67,377.07L348.5,377.43L355.33,378.43L362.17,378.22L369,378.31L375.83,380.16L389.5,379.22L396.33,380.37L410,382.25L416.83,380.98L430.5,382.08L437.33,382.47L444.17,380.19L451,382.07L457.83,380.92L464.67,382.1L471.5,382.66L478.33,384.78L492,383.72L498.83,383.14L519.33,383.79L526.17,383.93L662.83,384.64L669.67,384.59L724.33,384.78L731.17,384.76L833.67,384.88L840.5,384.14L854.17,384.89L861,384.91L908.83,384.9L915.67,383.98L929.33,384.92L936.17,384.73L984,384.9L990.83,384.91L1011.33,384.74L1018.17,381.92L1025,206.76" style="vector-effect: none; fill: none; stroke: rgb(124, 181, 236); stroke-opacity: 1; stroke-width: 2px; opacity: 1;"/></g><g class="points"/><g class="text"/></g><g class="trace scatter trace74f3b5" style="stroke-miterlimit: 2; opacity: 1;"><g class="fills"/><g class="errorbars"/><g class="lines"><path class="js-line" d="M0,224.95L6.83,329.67L13.67,368.52L20.5,372.69L27.33,373.52L34.17,374.86L41,374.85L47.83,373.72L54.67,377.94L61.5,375.73L68.33,377.14L102.5,376.14L109.33,375.23L116.17,378.56L123,375.35L129.83,375.37L136.67,377.68L143.5,374.8L150.33,373.91L157.17,373.76L164,372.02L170.83,375.56L177.67,375.93L184.5,374.04L191.33,374.88L205,376.16L211.83,374.88L218.67,373.05L225.5,374.77L232.33,376.03L239.17,375.92L246,376.8L252.83,374.88L259.67,377.97L266.5,376.76L293.83,378.21L300.67,378.75L307.5,377.15L314.33,378.02L321.17,378.86L328,376.95L334.83,378.06L341.67,377.38L348.5,377.25L355.33,378.48L362.17,378.06L369,379.54L389.5,380.15L396.33,381.18L403.17,380.53L410,381.13L416.83,382.12L423.67,381.14L437.33,382.52L444.17,382.77L457.83,382.54L464.67,382.41L478.33,381.79L485.17,382.72L498.83,382.74L505.67,383.55L512.5,384.67L519.33,384.08L574,384.23L580.83,384.38L703.83,384.77L710.67,384.79L847.33,384.72L854.17,384.89L908.83,384.9L915.67,383.98L929.33,384.93L936.17,384.73L984,384.9L990.83,384.91L1018.17,384.84L1025,344.08" style="vector-effect: none; fill: none; stroke: rgb(67, 67, 72); stroke-opacity: 1; stroke-width: 2px; opacity: 1;"/></g><g class="points"/><g class="text"/></g><g class="trace scatter tracea8ddc1" style="stroke-miterlimit: 2; opacity: 1;"><g class="fills"/><g class="errorbars"/><g class="lines"><path class="js-line" d="M0,168.51L6.83,315.58L13.67,357.41L20.5,369.89L27.33,370.85L34.17,372.33L41,372.52L47.83,372.35L54.67,373.13L61.5,373.13L68.33,373.95L109.33,373.49L116.17,374.12L123,374.52L129.83,373.48L143.5,372.96L150.33,371.78L157.17,372.52L164,372.47L170.83,372.72L177.67,371.68L184.5,372.49L191.33,372.4L198.17,373.8L205,373.89L211.83,373.82L218.67,372.6L225.5,371.72L232.33,374.46L259.67,374.74L266.5,375.72L273.33,375.25L280.17,376.02L287,375.71L293.83,377.35L300.67,373.1L307.5,381.24L314.33,377.22L321.17,377.65L328,376.8L334.83,377.76L341.67,376.83L348.5,377.34L362.17,378.24L369,378.43L375.83,379.9L382.67,379.84L389.5,379.29L396.33,380.51L410,381.81L416.83,381.11L430.5,381.95L437.33,382.42L444.17,381.16L451,382.16L457.83,381.12L464.67,382.17L471.5,382.26L478.33,384.82L505.67,383.8L512.5,383.94L615,384.74L621.83,384.75L833.67,384.97L840.5,384.85L895.17,384.98L902,384.98L1018.17,384.51L1025,353.78" style="vector-effect: none; fill: none; stroke: rgb(144, 237, 125); stroke-opacity: 1; stroke-width: 2px; opacity: 1;"/></g><g class="points"/><g class="text"/></g><g class="trace scatter tracea2af76" style="stroke-miterlimit: 2; opacity: 1;"><g class="fills"/><g class="errorbars"/><g class="lines"><path class="js-line" d="M0,181.41L6.83,314.25L13.67,362.68L20.5,370.03L27.33,370.9L34.17,372.44L41,372.27L47.83,369.75L54.67,376.4L61.5,372.69L68.33,374.47L88.83,372.92L95.67,374.05L102.5,373.48L109.33,372.11L116.17,376.5L123,372.34L129.83,372.75L136.67,376.08L143.5,372.84L150.33,371.99L164,369.39L170.83,373.82L177.67,375.28L184.5,372.12L198.17,373.79L205,373.95L211.83,374.02L218.67,372.71L225.5,372.09L232.33,374.21L239.17,374.29L246,375.44L252.83,374.34L259.67,374.91L266.5,375.88L273.33,375.29L293.83,377.04L300.67,377.49L307.5,376.57L314.33,377.3L321.17,378.14L328,376.68L334.83,377.76L341.67,377.24L348.5,377.25L355.33,378.12L362.17,377.96L369,379.36L389.5,380.14L396.33,380.88L410,381.05L416.83,381.99L423.67,381.16L430.5,381.93L444.17,382.75L451,382.46L471.5,382.47L478.33,382.19L485.17,382.99L492,382.91L505.67,383.85L512.5,384.76L526.17,384.2L533,384.22L710.67,384.93L717.5,384.92L1018.17,384.97L1025,377.75" style="vector-effect: none; fill: none; stroke: rgb(247, 163, 92); stroke-opacity: 1; stroke-width: 2px; opacity: 1;"/></g><g class="points"/><g class="text"/></g><g class="trace scatter trace029566" style="stroke-miterlimit: 2; opacity: 1;"><g class="fills"/><g class="errorbars"/><g class="lines"><path class="js-line" d="M0,131.33L6.83,301.43L13.67,351.49L20.5,367.6L27.33,369.59L34.17,371.12L41,371.42L47.83,371.09L54.67,371.88L75.17,371.92L82,372.93L95.67,371.87L102.5,371.95L109.33,371.6L116.17,372.41L123,372.7L129.83,371.85L157.17,370.8L164,371.14L170.83,371.49L177.67,370.59L184.5,371.62L191.33,371.07L198.17,372.39L205,372.32L211.83,372.3L218.67,371.37L225.5,370.71L232.33,373.16L259.67,373.68L266.5,374.9L273.33,373.91L280.17,374.59L293.83,375.49L300.67,370.2L307.5,381.59L314.33,376.94L321.17,376.81L328,375.88L334.83,377.49L341.67,376.42L362.17,378.06L369,378.27L375.83,379.47L382.67,379.66L389.5,379.17L396.33,380.01L410,381.68L416.83,380.78L430.5,381.8L437.33,382.21L444.17,380.97L451,382.01L457.83,381.05L464.67,382.12L471.5,382.2L478.33,384.84L505.67,383.71L512.5,383.86L690.17,384.88L697,384.91L902,384.95L908.83,381.27L915.67,384.81L922.5,384.95L1018.17,384.59L1025,357.92" style="vector-effect: none; fill: none; stroke: rgb(128, 133, 233); stroke-opacity: 1; stroke-width: 2px; opacity: 1;"/></g><g class="points"/><g class="text"/></g><g class="trace scatter trace089e7e" style="stroke-miterlimit: 2; opacity: 1;"><g class="fills"/><g class="errorbars"/><g class="lines"><path class="js-line" d="M0,138.48L6.83,301.27L13.67,355.54L20.5,367.72L27.33,369.56L34.17,371.2L41,371.43L47.83,369.66L54.67,373.79L61.5,371.71L68.33,372.7L88.83,371.49L95.67,372.65L109.33,370.58L116.17,374.59L123,370.67L129.83,370.81L136.67,374.43L143.5,371.19L157.17,369.85L164,368.85L170.83,372.56L177.67,372.86L184.5,371.36L191.33,371.64L198.17,372.75L205,372.02L211.83,372.51L218.67,371.37L225.5,370.91L232.33,373.6L246,372.77L252.83,373.6L266.5,375.43L273.33,374.03L287,375.4L293.83,375.83L300.67,376.17L307.5,375.34L314.33,376.74L321.17,377.19L328,375.86L334.83,377.4L348.5,377.03L355.33,377.82L362.17,377.78L369,379.1L382.67,379.02L389.5,380.31L416.83,381.68L423.67,380.38L430.5,382.03L437.33,382.45L464.67,382.6L471.5,382.49L492,382.89L498.83,383.01L512.5,384.71L519.33,384.22L553.5,384.42L560.33,384.46L772.17,384.95L779,384.95L902,384.95L908.83,381.35L915.67,384.81L922.5,384.96L1018.17,384.97L1025,378.77" style="vector-effect: none; fill: none; stroke: rgb(241, 92, 128); stroke-opacity: 1; stroke-width: 2px; opacity: 1;"/></g><g class="points"/><g class="text"/></g><g class="trace scatter traceadc680" style="stroke-miterlimit: 2; opacity: 1;"><g class="fills"/><g class="errorbars"/><g class="lines"><path class="js-line" d="M0,39.68L6.83,273.54L13.67,343.23L20.5,362.53L27.33,364.44L34.17,367.73L41,367.01L68.33,368.93L75.17,368.59L82,370.17L88.83,369.15L95.67,368.36L102.5,368.67L109.33,368.03L116.17,369.46L123,369.51L129.83,367.81L143.5,367.43L150.33,365.88L170.83,367.75L177.67,366.13L184.5,367.12L191.33,367.03L198.17,368.53L205,368.06L211.83,368.33L218.67,366.5L225.5,365.61L232.33,369.71L239.17,368.68L246,369.97L252.83,369.1L259.67,369.78L266.5,371.51L273.33,369.8L287,372.02L293.83,372.18L300.67,364.28L307.5,380.33L314.33,373.6L321.17,373.61L328,372.22L334.83,373.76L341.67,372.99L348.5,373.25L355.33,374.52L362.17,374.92L369,375.28L375.83,376.95L382.67,377.21L389.5,376.57L410,379.69L416.83,379.15L423.67,380.07L430.5,380.09L437.33,380.92L444.17,379.46L451,380.07L457.83,378.47L464.67,380.69L471.5,380.94L478.33,384.67L485.17,384.34L498.83,382.66L505.67,383.14L580.83,384.33L587.67,384.31L642.33,384.75L649.17,384.77L779,384.93L785.83,384.94L902,384.96L908.83,383.75L915.67,384.74L922.5,384.95L1011.33,384.9L1018.17,384.13L1025,333.8" style="vector-effect: none; fill: none; stroke: rgb(228, 211, 84); stroke-opacity: 1; stroke-width: 2px; opacity: 1;"/></g><g class="points"/><g class="text"/></g><g class="trace scatter trace6c168d" style="stroke-miterlimit: 2; opacity: 1;"><g class="fills"/><g class="errorbars"/><g class="lines"><path class="js-line" d="M0,19.25L6.83,273.37L13.67,347.65L20.5,362.89L27.33,364.54L34.17,367.71L41,367.19L47.83,366.44L54.67,369.66L61.5,368.36L68.33,369L82,368.8L88.83,367.84L95.67,369.28L102.5,368.46L109.33,366.44L116.17,372.35L123,366.68L129.83,366.67L136.67,371.34L143.5,367.16L150.33,366.1L157.17,366.07L164,364.57L170.83,368.62L191.33,367.12L198.17,369.1L205,367.47L211.83,368.63L218.67,366.34L225.5,365.93L232.33,368.17L239.17,369.42L246,371.06L252.83,368.12L259.67,369.34L266.5,373.4L273.33,370.05L280.17,371.23L287,372.31L293.83,372.27L300.67,372.74L307.5,371.97L321.17,373.91L328,372.5L334.83,373.6L341.67,373.52L348.5,373.27L355.33,374.55L362.17,374.56L369,376.18L389.5,377.15L396.33,378.36L403.17,378.18L410,378.86L416.83,380.12L423.67,378.7L430.5,380.38L437.33,381L444.17,381.43L451,380.92L471.5,381.19L478.33,380.84L485.17,381.87L492,381.78L505.67,383.13L512.5,384.59L526.17,383.74L533,383.82L744.83,384.9L751.67,384.92L902,384.97L908.83,383.8L922.5,384.95L929.33,384.97L1018.17,384.94L1025,368.7" style="vector-effect: none; fill: none; stroke: rgb(43, 144, 143); stroke-opacity: 1; stroke-width: 2px; opacity: 1;"/></g><g class="points"/><g class="text"/></g><g class="trace scatter trace42a72b" style="stroke-miterlimit: 2; opacity: 1;"><g class="fills"/><g class="errorbars"/><g class="lines"><path class="js-line" d="M0,178.05L6.83,320.47L13.67,359.87L20.5,371.08L27.33,372L34.17,374L41,373.16L54.67,374.79L61.5,374.73L68.33,375.47L75.17,375.13L82,375.67L88.83,375.29L95.67,374.49L102.5,374.75L109.33,374.59L116.17,375.66L123,375.61L129.83,374.63L143.5,373.95L150.33,372.66L157.17,373.8L164,373.55L170.83,374.13L177.67,372.91L198.17,374.65L205,374.24L225.5,372.73L232.33,375.33L239.17,374.33L246,375.52L259.67,375.4L266.5,376.54L273.33,375.91L280.17,376.69L293.83,376.97L300.67,372.99L307.5,381.9L314.33,378.5L321.17,378.34L328,377.15L334.83,378.26L341.67,377.65L348.5,377.66L355.33,378.69L369,379.16L375.83,380.12L382.67,380.34L389.5,379.53L396.33,381.15L403.17,381.28L410,382.01L416.83,381.65L423.67,382.22L430.5,381.98L437.33,382.67L444.17,381.77L451,381.75L457.83,380.84L464.67,382.74L471.5,383.21L478.33,384.74L485.17,384.55L498.83,383.55L505.67,383.84L560.33,384.55L567.17,384.57L601.33,384.7L608.17,384.71L833.67,384.96L840.5,384.78L874.67,384.96L881.5,384.92L902,384.95L908.83,382.24L915.67,384.75L922.5,384.94L1011.33,384.9L1018.17,384.14L1025,336.1" style="vector-effect: none; fill: none; stroke: rgb(244, 91, 91); stroke-opacity: 1; stroke-width: 2px; opacity: 1;"/></g><g class="points"/><g class="text"/></g><g class="trace scatter trace91846f" style="stroke-miterlimit: 2; opacity: 1;"><g class="fills"/><g class="errorbars"/><g class="lines"><path class="js-line" d="M0,166.39L6.83,315.15L13.67,362.87L20.5,370.95L27.33,371.91L34.17,374.03L41,373.08L47.83,372.38L54.67,377.03L61.5,374.39L68.33,375.78L88.83,374.47L95.67,374.97L109.33,373.57L116.17,377.43L123,373.85L129.83,373.84L136.67,376.8L143.5,373.79L164,370.84L170.83,374.84L177.67,376.16L184.5,373.09L191.33,374.36L198.17,374.16L205,374.8L211.83,373.91L218.67,373.73L225.5,371.98L232.33,375.88L239.17,373.92L246,375.23L252.83,374.91L259.67,376.75L266.5,376.76L273.33,375.78L280.17,376.81L300.67,377.94L307.5,376.92L321.17,378.48L328,377.02L334.83,378.33L341.67,377.87L348.5,377.69L355.33,378.77L362.17,378.58L369,379.63L389.5,380.57L396.33,381.3L403.17,380.95L410,381.42L416.83,382.3L423.67,381.45L437.33,382.67L444.17,382.91L457.83,382.86L464.67,382.91L478.33,382.55L485.17,383.14L498.83,383.2L505.67,383.81L512.5,384.75L519.33,384.33L553.5,384.5L560.33,384.56L902,384.95L908.83,382.31L915.67,384.76L922.5,384.94L1018.17,384.94L1025,366.92" style="vector-effect: none; fill: none; stroke: rgb(145, 232, 225); stroke-opacity: 1; stroke-width: 2px; opacity: 1;"/></g><g class="points"/><g class="text"/></g><g class="trace scatter tracef68d9c" style="stroke-miterlimit: 2; opacity: 1;"><g class="fills"/><g class="errorbars"/><g class="lines"><path class="js-line" d="M0,219.9L6.83,337.16L13.67,365.72L20.5,372.35L27.33,373.17L34.17,374.78L41,374.65L88.83,376.4L95.67,375.79L109.33,375.9L116.17,376.83L136.67,375.8L143.5,375.2L150.33,374.32L157.17,375.06L191.33,374.64L198.17,375.89L211.83,375.77L218.67,374.64L225.5,374.13L232.33,376.35L239.17,376.22L246,377.13L252.83,376.46L259.67,376.83L266.5,377.9L273.33,377.35L293.83,378.55L300.67,374.64L307.5,382.69L314.33,378.65L321.17,378.82L328,377.8L334.83,379.12L341.67,378.15L362.17,379.25L369,379.37L375.83,380.7L382.67,380.71L389.5,380.26L396.33,380.96L410,382.5L416.83,381.68L430.5,382.53L437.33,382.76L444.17,381.65L451,382.74L457.83,381.81L464.67,382.5L471.5,382.53L478.33,384.87L512.5,384.05L519.33,384.12L642.33,384.82L649.17,384.85L854.17,384.97L861,384.98L1018.17,384.26L1025,339.27" style="vector-effect: none; fill: none; stroke: rgb(124, 181, 236); stroke-opacity: 1; stroke-width: 2px; opacity: 1;"/></g><g class="points"/><g class="text"/></g><g class="trace scatter tracef400c4" style="stroke-miterlimit: 2; opacity: 1;"><g class="fills"/><g class="errorbars"/><g class="lines"><path class="js-line" d="M0,207.77L6.83,326.12L13.67,366.94L20.5,372.8L27.33,373.23L34.17,374.83L41,374.45L47.83,373.39L54.67,377.23L61.5,375.03L68.33,376.52L88.83,375.58L95.67,376.23L109.33,375.19L116.17,378.19L123,375.04L129.83,375.13L136.67,377.94L143.5,375.06L164,373.63L170.83,375.62L191.33,374.91L198.17,376.2L205,375.24L211.83,376.1L218.67,373.46L225.5,374.7L232.33,376.83L239.17,376.23L259.67,376.94L266.5,378.08L273.33,377.33L280.17,378L300.67,378.97L307.5,378.22L321.17,379.27L328,377.91L334.83,378.82L341.67,378.58L348.5,378.5L355.33,379.32L362.17,378.95L369,380.25L382.67,379.9L389.5,381.31L396.33,381.73L403.17,381.2L416.83,382.59L423.67,381.51L437.33,382.99L444.17,383.18L457.83,383.02L464.67,382.98L478.33,382.54L485.17,383.26L498.83,383.39L505.67,384.03L512.5,384.78L519.33,384.33L574,384.47L580.83,384.57L826.83,384.95L833.67,384.96L854.17,384.97L861,384.98L1018.17,384.96L1025,373.69" style="vector-effect: none; fill: none; stroke: rgb(67, 67, 72); stroke-opacity: 1; stroke-width: 2px; opacity: 1;"/></g><g class="points"/><g class="text"/></g><g class="trace scatter trace8e2549" style="stroke-miterlimit: 2; opacity: 1;"><g class="fills"/><g class="errorbars"/><g class="lines"><path class="js-line" d="M0,199.46L6.83,330.25L13.67,362.59L20.5,370.33L27.33,370.85L34.17,372.39L41,372.22L61.5,373.35L68.33,374.41L88.83,374.47L95.67,373.53L109.33,373.76L116.17,374.91L123,374.8L129.83,373.8L143.5,373.25L150.33,371.83L157.17,372.72L164,372.54L170.83,372.76L177.67,371.64L184.5,372.6L191.33,372L198.17,373.75L205,373.85L211.83,373.86L218.67,372.64L225.5,372.01L232.33,374.51L246,374.88L252.83,374.94L259.67,374.74L266.5,375.98L273.33,375.48L280.17,376.37L293.83,377L300.67,373.71L307.5,381.03L314.33,376.86L321.17,377.73L328,376.42L334.83,377.78L341.67,376.84L369,378.32L375.83,379.86L389.5,379.24L396.33,380.35L410,381.97L416.83,381.08L423.67,381.9L430.5,381.95L437.33,382.33L444.17,380.98L451,382.13L457.83,381.01L464.67,382.18L471.5,382.36L478.33,384.82L485.17,384.59L498.83,383.4L505.67,383.67L567.17,384.43L574,384.32L642.33,384.72L649.17,384.73L847.33,384.83L854.17,384.93L1011.33,384.85L1018.17,383.46L1025,284.89" style="vector-effect: none; fill: none; stroke: rgb(144, 237, 125); stroke-opacity: 1; stroke-width: 2px; opacity: 1;"/></g><g class="points"/><g class="text"/></g><g class="trace scatter trace3b5431" style="stroke-miterlimit: 2; opacity: 1;"><g class="fills"/><g class="errorbars"/><g class="lines"><path class="js-line" d="M0,192.87L6.83,319.36L13.67,365.44L20.5,370.33L27.33,370.78L34.17,372.38L41,372.04L47.83,370.49L54.67,375.65L61.5,372.87L68.33,374.57L95.67,373.68L102.5,373.44L109.33,373.28L116.17,376.04L123,372.78L129.83,372.92L136.67,376L143.5,372.96L150.33,371.84L157.17,371.62L164,369.78L170.83,373.66L177.67,374.14L184.5,372.24L191.33,372.48L198.17,373.79L211.83,374.1L218.67,370.74L225.5,373.53L232.33,375.09L246,373.84L252.83,374.45L259.67,375.27L266.5,377.46L273.33,375.24L280.17,376.48L300.67,377.68L307.5,376.24L321.17,378.17L328,376.38L334.83,377.65L341.67,377.24L348.5,377.18L355.33,378.19L362.17,377.82L369,379.24L389.5,380.25L396.33,381.04L403.17,380.44L410,381.06L416.83,382.04L423.67,381.04L437.33,382.41L444.17,382.73L457.83,382.62L464.67,382.69L478.33,382.14L485.17,382.89L498.83,382.98L505.67,383.63L512.5,384.72L519.33,384.2L546.67,384.22L553.5,384.38L765.33,384.88L772.17,384.87L1018.17,384.9L1025,360.27" style="vector-effect: none; fill: none; stroke: rgb(247, 163, 92); stroke-opacity: 1; stroke-width: 2px; opacity: 1;"/></g><g class="points"/><g class="text"/></g><g class="trace scatter trace907385" style="stroke-miterlimit: 2; opacity: 1;"><g class="fills"/><g class="errorbars"/><g class="lines"><path class="js-line" d="M0,48.33L6.83,272.65L13.67,341.29L20.5,364.15L27.33,367.53L34.17,369.49L41,369.98L47.83,368.84L54.67,369.81L75.17,369.38L82,370.42L95.67,369.61L102.5,369.71L109.33,369.15L116.17,369.96L123,370.73L129.83,369.82L157.17,369.28L164,369.98L177.67,369.54L184.5,370.44L191.33,370.04L198.17,370.68L218.67,370.51L225.5,370.48L232.33,371.62L239.17,371.81L252.83,372.49L259.67,372.71L273.33,373.43L280.17,373.46L287,373.51L293.83,375.15L300.67,368.74L307.5,381.29L314.33,376.2L321.17,375.94L328,375.84L334.83,376.93L341.67,376.69L348.5,377.25L382.67,379.4L389.5,379.04L403.17,380.61L410,381.39L416.83,380.83L423.67,381.44L437.33,382.27L444.17,381.29L451,381.63L457.83,380.88L464.67,382.48L471.5,382.78L478.33,384.81L485.17,384.6L498.83,383.59L505.67,383.74L642.33,384.83L649.17,384.84L1018.17,384.85L1025,375.69" style="vector-effect: none; fill: none; stroke: rgb(128, 133, 233); stroke-opacity: 1; stroke-width: 2px; opacity: 1;"/></g><g class="points"/><g class="text"/></g><g class="trace scatter trace9dba9d" style="stroke-miterlimit: 2; opacity: 1;"><g class="fills"/><g class="errorbars"/><g class="lines"><path class="js-line" d="M0,61.15L6.83,273.63L13.67,341.93L20.5,364.09L27.33,367.46L34.17,369.61L41,370.25L47.83,367.72L54.67,371.3L61.5,369.72L68.33,370.24L88.83,369.43L95.67,370.63L109.33,368.55L116.17,372.2L123,368.99L129.83,368.39L136.67,372.36L143.5,369.66L150.33,369.48L157.17,367.89L164,366.5L170.83,371.45L177.67,373.39L184.5,369.76L191.33,371.11L198.17,370.53L211.83,371.29L218.67,370.55L225.5,370.22L232.33,371.34L239.17,372.67L246,371.87L252.83,372.02L259.67,373.51L273.33,373.37L280.17,374.63L287,373.97L293.83,375.17L300.67,374.99L307.5,373.69L314.33,377.04L321.17,376.31L328,375.29L334.83,377.38L348.5,377.2L355.33,377.85L362.17,377.87L369,378.85L382.67,378.86L389.5,380.15L410,380.64L416.83,381.68L423.67,380.47L430.5,381.87L444.17,382.49L451,382.27L471.5,382.75L478.33,382.75L505.67,383.58L512.5,384.71L526.17,384.11L533,384.19L724.33,384.94L731.17,384.94L1018.17,384.99L1025,382.63" style="vector-effect: none; fill: none; stroke: rgb(241, 92, 128); stroke-opacity: 1; stroke-width: 2px; opacity: 1;"/></g><g class="points"/><g class="text"/></g><g class="trace scatter trace330c0a" style="stroke-miterlimit: 2; opacity: 1;"><g class="fills"/><g class="errorbars"/><g class="lines"><path class="js-line" d="M0,257.18L6.83,346.06L13.67,369.51L20.5,374.37L27.33,375.03L34.17,376.94L41,376.11L54.67,377.33L61.5,377.43L75.17,377.73L82,378.01L109.33,377.13L116.17,377.97L136.67,376.8L143.5,376.16L150.33,374.95L157.17,376.01L177.67,375.65L184.5,376.1L191.33,375.93L198.17,376.92L205,376.03L211.83,376.35L218.67,375.13L225.5,374.72L232.33,376.97L239.17,376.44L246,377.98L252.83,377.29L259.67,377.53L266.5,378.57L273.33,377.38L280.17,378.19L287,378.08L293.83,378.88L300.67,374.16L307.5,382.73L314.33,377.94L321.17,343.94L328,379.05L334.83,384.03L341.67,374.5L348.5,381.43L355.33,383.97L362.17,379.03L369,378.45L375.83,383.79L389.5,384.17L396.33,381.98L403.17,384.81L410,384.41L416.83,382.49L423.67,384.61L430.5,384.65L437.33,383.59L444.17,383.29L451,384.86L471.5,383.44L478.33,384.9L492,384.6L498.83,383.86L601.33,384.63L608.17,384.61L785.83,384.93L792.67,384.94L902,384.94L908.83,380.55L915.67,384.67L922.5,384.95L1011.33,384.88L1018.17,383.66L1025,306.95" style="vector-effect: none; fill: none; stroke: rgb(228, 211, 84); stroke-opacity: 1; stroke-width: 2px; opacity: 1;"/></g><g class="points"/><g class="text"/></g><g class="trace scatter tracef8db20" style="stroke-miterlimit: 2; opacity: 1;"><g class="fills"/><g class="errorbars"/><g class="lines"><path class="js-line" d="M0,242.4L6.83,340.27L13.67,369.85L20.5,374.6L27.33,375L34.17,376.9L41,376.15L47.83,376.22L54.67,378.25L61.5,377.25L68.33,378.02L109.33,377.12L116.17,378.54L129.83,376.05L136.67,378.23L143.5,376L150.33,375.13L157.17,375.57L164,374.73L170.83,376.88L177.67,376.39L191.33,376.07L198.17,377.11L205,375.76L211.83,376.58L218.67,374.9L225.5,374.98L239.17,377.09L246,377.59L252.83,377.8L259.67,377.11L266.5,379.24L273.33,377.51L280.17,378.51L287,378.47L300.67,379.25L307.5,378.24L321.17,379.69L328,378L334.83,379.25L341.67,378.91L348.5,378.66L355.33,379.51L362.17,379.42L369,380.55L382.67,380.26L389.5,381.26L396.33,381.82L403.17,381.31L416.83,382.66L423.67,381.62L437.33,382.99L444.17,383.13L457.83,383L464.67,382.89L478.33,382.51L485.17,383.15L498.83,383.16L505.67,383.83L512.5,384.72L519.33,384.29L560.33,384.44L567.17,384.49L608.17,384.62L615,384.66L902,384.94L908.83,380.64L915.67,384.67L922.5,384.95L1018.17,384.93L1025,363.9" style="vector-effect: none; fill: none; stroke: rgb(43, 144, 143); stroke-opacity: 1; stroke-width: 2px; opacity: 1;"/></g><g class="points"/><g class="text"/></g><g class="trace scatter trace1f68eb" style="stroke-miterlimit: 2; opacity: 1;"><g class="fills"/><g class="errorbars"/><g class="lines"><path class="js-line" d="M0,164.27L6.83,310.74L13.67,355.32L20.5,369.77L27.33,371.33L34.17,372.39L41,372.58L47.83,372.34L54.67,373.3L75.17,373.35L82,373.92L109.33,372.93L116.17,373.73L123,374.01L129.83,373.25L143.5,372.74L150.33,371.72L157.17,372.54L164,372.39L170.83,372.68L177.67,371.77L205,373.92L211.83,372.69L218.67,374.2L225.5,371.84L232.33,375.29L239.17,373.91L252.83,375.11L259.67,374.77L273.33,375.74L280.17,375.97L287,375.68L293.83,377.39L300.67,372.58L307.5,381.7L314.33,377.84L321.17,377.91L328,377.14L334.83,378.24L341.67,377.5L348.5,377.85L362.17,378.81L369,378.96L375.83,380.15L382.67,380.19L389.5,379.75L396.33,380.87L410,382.03L416.83,381.25L437.33,382.61L444.17,381.25L451,382.01L457.83,381.1L464.67,382.49L471.5,382.83L478.33,384.81L485.17,384.6L498.83,383.53L505.67,383.76L567.17,384.51L574,384.4L635.5,384.78L642.33,384.79L908.83,384.94L915.67,384.79L949.83,384.93L956.67,384.93L1004.5,384.87L1011.33,384.91L1018.17,384.44L1025,347.36" style="vector-effect: none; fill: none; stroke: rgb(244, 91, 91); stroke-opacity: 1; stroke-width: 2px; opacity: 1;"/></g><g class="points"/><g class="text"/></g><g class="trace scatter trace03b72c" style="stroke-miterlimit: 2; opacity: 1;"><g class="fills"/><g class="errorbars"/><g class="lines"><path class="js-line" d="M0,185.5L6.83,314.58L13.67,360.51L20.5,369.75L27.33,371.26L34.17,372.5L41,372.47L47.83,370.54L54.67,375.57L61.5,372.87L68.33,373.91L88.83,372.59L95.67,373.79L109.33,371.69L116.17,376.04L123,371.91L129.83,372.4L136.67,375.81L143.5,372.65L150.33,372.09L157.17,370.76L164,369.41L170.83,373.66L177.67,375.24L184.5,371.95L191.33,373.4L198.17,373.32L205,374.22L211.83,373.7L225.5,372.55L232.33,374.96L239.17,374.09L246,374.78L259.67,374.03L266.5,377.66L273.33,375.3L280.17,376.29L293.83,377.09L300.67,377.44L307.5,376.41L314.33,377.9L321.17,378.31L328,377.01L334.83,378.22L341.67,377.79L348.5,377.82L355.33,378.63L362.17,378.57L369,379.74L382.67,379.73L389.5,380.81L396.33,381.23L403.17,380.83L416.83,382.1L423.67,381.22L437.33,382.59L444.17,382.84L457.83,382.76L464.67,382.78L478.33,382.46L485.17,383.07L498.83,383.1L505.67,383.71L512.5,384.74L519.33,384.26L546.67,384.32L553.5,384.43L683.33,384.87L690.17,384.88L1018.17,384.96L1025,376.36" style="vector-effect: none; fill: none; stroke: rgb(145, 232, 225); stroke-opacity: 1; stroke-width: 2px; opacity: 1;"/></g><g class="points"/><g class="text"/></g></g></g></g><path class="xlines-above crisp" d="M0,0" style="fill: none;"/><path class="ylines-above crisp" d="M0,0" style="fill: none;"/><g class="overlines-above"/><g class="xaxislayer-above"><g class="xtick"><text text-anchor="middle" x="0" y="451" transform="translate(189.83,0)" style="font-family: 'Lucida Grande', 'Open Sans', verdana, arial, sans-serif; font-size: 10px; fill: rgb(0, 0, 0); fill-opacity: 1; white-space: pre; opacity: 1;">20 bp</text></g><g class="xtick"><text text-anchor="middle" x="0" y="451" style="font-family: 'Lucida Grande', 'Open Sans', verdana, arial, sans-serif; font-size: 10px; fill: rgb(0, 0, 0); fill-opacity: 1; white-space: pre; opacity: 1;" transform="translate(326.5,0)">40 bp</text></g><g class="xtick"><text text-anchor="middle" x="0" y="451" style="font-family: 'Lucida Grande', 'Open Sans', verdana, arial, sans-serif; font-size: 10px; fill: rgb(0, 0, 0); fill-opacity: 1; white-space: pre; opacity: 1;" transform="translate(463.17,0)">60 bp</text></g><g class="xtick"><text text-anchor="middle" x="0" y="451" style="font-family: 'Lucida Grande', 'Open Sans', verdana, arial, sans-serif; font-size: 10px; fill: rgb(0, 0, 0); fill-opacity: 1; white-space: pre; opacity: 1;" transform="translate(599.83,0)">80 bp</text></g><g class="xtick"><text text-anchor="middle" x="0" y="451" style="font-family: 'Lucida Grande', 'Open Sans', verdana, arial, sans-serif; font-size: 10px; fill: rgb(0, 0, 0); fill-opacity: 1; white-space: pre; opacity: 1;" transform="translate(736.5,0)">100 bp</text></g><g class="xtick"><text text-anchor="middle" x="0" y="451" style="font-family: 'Lucida Grande', 'Open Sans', verdana, arial, sans-serif; font-size: 10px; fill: rgb(0, 0, 0); fill-opacity: 1; white-space: pre; opacity: 1;" transform="translate(873.17,0)">120 bp</text></g><g class="xtick"><text text-anchor="middle" x="0" y="451" style="font-family: 'Lucida Grande', 'Open Sans', verdana, arial, sans-serif; font-size: 10px; fill: rgb(0, 0, 0); fill-opacity: 1; white-space: pre; opacity: 1;" transform="translate(1009.83,0)">140 bp</text></g></g><g class="yaxislayer-above"><g class="ytick"><text text-anchor="end" x="54" y="3.5" transform="translate(0,435)" style="font-family: 'Lucida Grande', 'Open Sans', verdana, arial, sans-serif; font-size: 10px; fill: rgb(0, 0, 0); fill-opacity: 1; white-space: pre; opacity: 1;">0</text></g><g class="ytick"><text text-anchor="end" x="54" y="3.5" style="font-family: 'Lucida Grande', 'Open Sans', verdana, arial, sans-serif; font-size: 10px; fill: rgb(0, 0, 0); fill-opacity: 1; white-space: pre; opacity: 1;" transform="translate(0,385.09)">1M</text></g><g class="ytick"><text text-anchor="end" x="54" y="3.5" style="font-family: 'Lucida Grande', 'Open Sans', verdana, arial, sans-serif; font-size: 10px; fill: rgb(0, 0, 0); fill-opacity: 1; white-space: pre; opacity: 1;" transform="translate(0,335.18)">2M</text></g><g class="ytick"><text text-anchor="end" x="54" y="3.5" style="font-family: 'Lucida Grande', 'Open Sans', verdana, arial, sans-serif; font-size: 10px; fill: rgb(0, 0, 0); fill-opacity: 1; white-space: pre; opacity: 1;" transform="translate(0,285.27)">3M</text></g><g class="ytick"><text text-anchor="end" x="54" y="3.5" style="font-family: 'Lucida Grande', 'Open Sans', verdana, arial, sans-serif; font-size: 10px; fill: rgb(0, 0, 0); fill-opacity: 1; white-space: pre; opacity: 1;" transform="translate(0,235.36)">4M</text></g><g class="ytick"><text text-anchor="end" x="54" y="3.5" style="font-family: 'Lucida Grande', 'Open Sans', verdana, arial, sans-serif; font-size: 10px; fill: rgb(0, 0, 0); fill-opacity: 1; white-space: pre; opacity: 1;" transform="translate(0,185.45)">5M</text></g><g class="ytick"><text text-anchor="end" x="54" y="3.5" style="font-family: 'Lucida Grande', 'Open Sans', verdana, arial, sans-serif; font-size: 10px; fill: rgb(0, 0, 0); fill-opacity: 1; white-space: pre; opacity: 1;" transform="translate(0,135.54000000000002)">6M</text></g><g class="ytick"><text text-anchor="end" x="54" y="3.5" style="font-family: 'Lucida Grande', 'Open Sans', verdana, arial, sans-serif; font-size: 10px; fill: rgb(0, 0, 0); fill-opacity: 1; white-space: pre; opacity: 1;" transform="translate(0,85.63)">7M</text></g></g><g class="overaxes-above"/></g></g><g class="polarlayer"/><g class="smithlayer"/><g class="ternarylayer"/><g class="geolayer"/><g class="funnelarealayer"/><g class="pielayer"/><g class="iciclelayer"/><g class="treemaplayer"/><g class="sunburstlayer"/><g class="glimages"/><defs id="topdefs-6473ca"><g class="clips"/></defs><g class="layer-above"><g class="imagelayer"/><g class="shapelayer"/></g><g class="infolayer"><g class="g-gtitle"><text class="gtitle" x="550" y="25" text-anchor="middle" dy="0em" style="opacity: 1; font-family: 'Lucida Grande', 'Open Sans', verdana, arial, sans-serif; font-size: 20px; fill: rgb(42, 63, 95); fill-opacity: 1; white-space: pre;"><tspan class="line" dy="0em" x="550" y="25">Cutadapt: Lengths of Trimmed Sequences (3' end)</tspan><tspan class="line" dy="1.3em" x="550" y="25"><tspan style="font-size:70%" dy="-0.6em">Counts, 50 samples</tspan><tspan dy="0.42em"></tspan></tspan></text></g><g class="g-xtitle"><text class="xtitle" x="572.5" y="472.3" text-anchor="middle" style="opacity: 0.3; font-family: 'Lucida Grande', 'Open Sans', verdana, arial, sans-serif; font-size: 14px; fill: rgb(0, 0, 0); fill-opacity: 1; white-space: pre;">Length Trimmed (bp)</text></g><g class="g-ytitle"><text class="ytitle" transform="rotate(-90,24.6,242.5)" x="24.6" y="242.5" text-anchor="middle" style="opacity: 0.3; font-family: 'Lucida Grande', 'Open Sans', verdana, arial, sans-serif; font-size: 14px; fill: rgb(0, 0, 0); fill-opacity: 1; white-space: pre;">Count</text></g></g></svg>