<svg class="main-svg" xmlns="http://www.w3.org/2000/svg" xmlns:xlink="http://www.w3.org/1999/xlink" width="2200" height="1000" style="" viewBox="0 0 1100 500"><rect x="0" y="0" width="1100" height="500" style="fill: rgb(255, 255, 255); fill-opacity: 1;"/><defs id="defs-409e2d"><g class="clips"><clipPath id="clip409e2dxyplot" class="plotclip"><rect width="1025" height="385"/></clipPath><clipPath class="axesclip" id="clip409e2dx"><rect x="60" y="0" width="1025" height="500"/></clipPath><clipPath class="axesclip" id="clip409e2dy"><rect x="0" y="50" width="1100" height="385"/></clipPath><clipPath class="axesclip" id="clip409e2dxy"><rect x="60" y="50" width="1025" height="385"/></clipPath></g><g class="gradients"/><g class="patterns"/></defs><g class="bglayer"/><g class="layer-below"><g class="imagelayer"/><g class="shapelayer"/></g><g class="cartesianlayer"><g class="subplot xy"><g class="layer-subplot"><g class="shapelayer"/><g class="imagelayer"/></g><g class="minor-gridlayer"><g class="x"/><g class="y"/></g><g class="gridlayer"><g class="x"><path class="xgrid crisp" transform="translate(189.83,0)" d="M0,50v385" style="stroke: rgb(0, 0, 0); stroke-opacity: 0.05; stroke-width: 1px;"/><path class="xgrid crisp" transform="translate(326.5,0)" d="M0,50v385" style="stroke: rgb(0, 0, 0); stroke-opacity: 0.05; stroke-width: 1px;"/><path class="xgrid crisp" transform="translate(463.17,0)" d="M0,50v385" style="stroke: rgb(0, 0, 0); stroke-opacity: 0.05; stroke-width: 1px;"/><path class="xgrid crisp" transform="translate(599.83,0)" d="M0,50v385" style="stroke: rgb(0, 0, 0); stroke-opacity: 0.05; stroke-width: 1px;"/><path class="xgrid crisp" transform="translate(736.5,0)" d="M0,50v385" style="stroke: rgb(0, 0, 0); stroke-opacity: 0.05; stroke-width: 1px;"/><path class="xgrid crisp" transform="translate(873.17,0)" d="M0,50v385" style="stroke: rgb(0, 0, 0); stroke-opacity: 0.05; stroke-width: 1px;"/><path class="xgrid crisp" transform="translate(1009.83,0)" d="M0,50v385" style="stroke: rgb(0, 0, 0); stroke-opacity: 0.05; stroke-width: 1px;"/></g><g class="y"><path class="ygrid crisp" transform="translate(0,383.79)" d="M60,0h1025" style="stroke: rgb(0, 0, 0); stroke-opacity: 0.05; stroke-width: 1px;"/><path class="ygrid crisp" transform="translate(0,332.59)" d="M60,0h1025" style="stroke: rgb(0, 0, 0); stroke-opacity: 0.05; stroke-width: 1px;"/><path class="ygrid crisp" transform="translate(0,281.38)" d="M60,0h1025" style="stroke: rgb(0, 0, 0); stroke-opacity: 0.05; stroke-width: 1px;"/><path class="ygrid crisp" transform="translate(0,230.17)" d="M60,0h1025" style="stroke: rgb(0, 0, 0); stroke-opacity: 0.05; stroke-width: 1px;"/><path class="ygrid crisp" transform="translate(0,178.97)" d="M60,0h1025" style="stroke: rgb(0, 0, 0); stroke-opacity: 0.05; stroke-width: 1px;"/><path class="ygrid crisp" transform="translate(0,127.76)" d="M60,0h1025" style="stroke: rgb(0, 0, 0); stroke-opacity: 0.05; stroke-width: 1px;"/><path class="ygrid crisp" transform="translate(0,76.56)" d="M60,0h1025" style="stroke: rgb(0, 0, 0); stroke-opacity: 0.05; stroke-width: 1px;"/></g></g><g class="zerolinelayer"><path class="yzl zl crisp" transform="translate(0,435)" d="M60,0h1025" style="stroke: rgb(0, 0, 0); stroke-opacity: 0.05; stroke-width: 2px;"/></g><g class="layer-between"><g class="shapelayer"/><g class="imagelayer"/></g><path class="xlines-below"/><path class="ylines-below"/><g class="overlines-below"/><g class="xaxislayer-below"/><g class="yaxislayer-below"/><g class="overaxes-below"/><g class="overplot"><g class="xy" transform="translate(60,50)" clip-path="url(#clip409e2dxyplot)"><g class="scatterlayer mlayer"><g class="trace scatter trace27f07e" style="stroke-miterlimit: 2; opacity: 1;"><g class="fills"/><g class="errorbars"/><g class="lines"><path class="js-line" d="M0,385L61.5,384.68L68.33,383.83L75.17,380.17L82,368.59L88.83,368.08L95.67,366.52L109.33,366.73L116.17,368.56L123,368.57L129.83,366.6L136.67,366.21L143.5,364.38L150.33,361.79L157.17,364.04L164,363.43L170.83,364.62L177.67,362.19L184.5,364.21L191.33,363.35L198.17,366.18L205,365.11L211.83,364.98L225.5,360.9L232.33,365.9L239.17,365.7L246,366.77L259.67,366.79L266.5,367.42L280.17,369.7L287,368.35L293.83,370.44L300.67,362.08L307.5,378.47L314.33,371.74L321.17,371.69L328,369.93L334.83,372.15L341.67,370.75L348.5,371.17L355.33,372.86L362.17,372.69L369,373.33L375.83,375.81L382.67,375.82L389.5,374.93L396.33,377.06L403.17,378.25L410,378.46L416.83,378.09L423.67,379.3L430.5,379.37L437.33,380.47L444.17,378.34L451,379.27L457.83,377.46L464.67,380.27L471.5,380.88L478.33,384.58L485.17,384.16L492,382.92L498.83,382.1L505.67,382.73L594.5,384.24L601.33,384.29L833.67,384.87L840.5,383.85L854.17,384.85L861,384.89L908.83,384.82L915.67,383.88L929.33,384.86L936.17,384.59L1011.33,384.52L1018.17,381.44L1025,177.13" style="vector-effect: none; fill: none; stroke: rgb(124, 181, 236); stroke-opacity: 1; stroke-width: 2px; opacity: 1;"/></g><g class="points"/><g class="text"/></g><g class="trace scatter traceef5435" style="stroke-miterlimit: 2; opacity: 1;"><g class="fills"/><g class="errorbars"/><g class="lines"><path class="js-line" d="M0,385L61.5,384.68L68.33,383.84L75.17,380.23L82,367.57L88.83,366.72L95.67,367.53L102.5,366.72L109.33,365L116.17,371.75L123,365.79L129.83,365.31L136.67,370.14L143.5,364.2L150.33,362.23L157.17,362.88L164,358.44L170.83,366.13L177.67,366.8L184.5,363.21L191.33,364.89L205,365.98L211.83,364.12L218.67,361.07L225.5,363.82L232.33,366.77L239.17,365.58L246,367.98L252.83,365.76L259.67,365.02L266.5,369.6L273.33,368.67L280.17,370.26L287,368.69L293.83,371.06L300.67,371.38L307.5,367.87L314.33,372.08L321.17,372.71L328,368.75L334.83,373.03L341.67,371.18L348.5,371.31L355.33,373.01L362.17,371.92L369,374.93L375.83,375.26L382.67,373.68L389.5,376.7L396.33,378.43L403.17,376.75L416.83,379.61L423.67,376.78L430.5,380.27L437.33,380.85L464.67,380.96L471.5,380.47L478.33,380.29L485.17,381.37L498.83,381.28L505.67,382.45L512.5,384.44L519.33,383.66L539.83,383.63L546.67,383.62L567.17,384.08L574,383.82L601.33,384.32L608.17,384.33L662.83,384.58L669.67,384.54L738,384.77L744.83,384.77L833.67,384.87L840.5,383.84L854.17,384.85L861,384.9L908.83,384.83L915.67,383.88L929.33,384.86L936.17,384.59L1018.17,384.71L1025,302.94" style="vector-effect: none; fill: none; stroke: rgb(67, 67, 72); stroke-opacity: 1; stroke-width: 2px; opacity: 1;"/></g><g class="points"/><g class="text"/></g><g class="trace scatter tracefa8b74" style="stroke-miterlimit: 2; opacity: 1;"><g class="fills"/><g class="errorbars"/><g class="lines"><path class="js-line" d="M0,385L61.5,384.65L68.33,383.82L75.17,380.1L82,365.39L88.83,365.96L95.67,362.65L102.5,364.09L109.33,364.34L116.17,365.84L123,365.89L129.83,362.97L136.67,362.94L143.5,360.11L150.33,355.44L157.17,360.1L164,358.39L170.83,360.78L177.67,357.66L184.5,359.8L191.33,359.49L198.17,364.05L205,361.56L211.83,362.3L218.67,357.42L225.5,355.22L232.33,363.66L239.17,362.15L246,365.89L252.83,363.3L259.67,363.86L266.5,368.34L273.33,364.86L280.17,367.38L287,368.3L293.83,369.13L300.67,359.84L307.5,379.88L314.33,368.98L321.17,368.76L328,365.83L334.83,372.87L341.67,366.02L355.33,372.08L362.17,370.41L369,369.25L375.83,374.81L382.67,374.53L389.5,373.44L396.33,373.76L403.17,379.57L410,380.25L416.83,375.98L423.67,379.22L430.5,380.23L437.33,379.55L444.17,374.83L451,381.31L457.83,378.89L471.5,380.21L478.33,384.74L485.17,384.29L492,382.9L498.83,381.67L505.67,382.52L539.83,383.46L546.67,383.6L567.17,384.08L574,383.7L601.33,384.33L608.17,384.3L656,384.58L662.83,384.65L758.5,384.84L765.33,384.85L902,384.94L908.83,383.24L922.5,384.86L929.33,384.94L970.33,384.87L977.17,384.92L1011.33,384.69L1018.17,382.46L1025,230.55" style="vector-effect: none; fill: none; stroke: rgb(144, 237, 125); stroke-opacity: 1; stroke-width: 2px; opacity: 1;"/></g><g class="points"/><g class="text"/></g><g class="trace scatter trace7971db" style="stroke-miterlimit: 2; opacity: 1;"><g class="fills"/><g class="errorbars"/><g class="lines"><path class="js-line" d="M0,385L61.5,384.64L68.33,383.88L75.17,380.12L82,365.14L88.83,363.83L95.67,364.58L102.5,364L109.33,361.17L116.17,370.73L123,361.38L129.83,361.57L136.67,368.6L143.5,359.93L150.33,355.98L157.17,356.11L164,351.35L170.83,363.24L177.67,366.4L184.5,358.49L191.33,361.44L198.17,361.87L205,364L211.83,360.23L218.67,355.25L225.5,360.66L232.33,364.07L239.17,361.89L246,363.53L252.83,360.07L259.67,366.82L266.5,372.41L273.33,364.69L280.17,368.22L287,368.37L300.67,371.25L307.5,368.42L314.33,368.83L321.17,371.66L328,367.38L334.83,369.72L348.5,368.12L355.33,371.28L362.17,369.91L369,373.38L375.83,373.98L382.67,372.9L396.33,377.52L403.17,376.09L416.83,379.37L423.67,377.27L430.5,379.27L437.33,380.26L444.17,380.85L451,380.05L464.67,380.26L471.5,379.62L478.33,379.15L485.17,380.76L498.83,381.14L505.67,382.68L512.5,384.54L519.33,383.51L546.67,383.67L553.5,383.97L628.67,384.55L635.5,384.6L833.67,384.92L840.5,384.32L854.17,384.92L861,384.94L902,384.94L908.83,383.33L922.5,384.86L929.33,384.94L977.17,384.92L984,384.91L1018.17,384.77L1025,314.78" style="vector-effect: none; fill: none; stroke: rgb(247, 163, 92); stroke-opacity: 1; stroke-width: 2px; opacity: 1;"/></g><g class="points"/><g class="text"/></g><g class="trace scatter traceb5b29d" style="stroke-miterlimit: 2; opacity: 1;"><g class="fills"/><g class="errorbars"/><g class="lines"><path class="js-line" d="M0,385L61.5,384.62L68.33,383.66L75.17,379.69L82,364.81L88.83,365.03L95.67,362.52L102.5,363.75L109.33,363.8L123,366.23L129.83,363.43L136.67,363.36L143.5,361.59L150.33,357.96L157.17,361.22L164,360.18L170.83,360.94L177.67,358.11L184.5,360.1L191.33,359.23L198.17,363.16L211.83,363.32L218.67,359.47L225.5,358.52L232.33,364.24L239.17,363.51L246,366.11L252.83,364.31L259.67,364.64L266.5,368.22L273.33,366.53L280.17,368.17L287,367.2L293.83,371.62L300.67,360.71L307.5,380.73L314.33,370.12L321.17,370.61L328,368.36L334.83,371.45L341.67,368.83L348.5,369.43L355.33,371.75L369,371.03L375.83,375.46L389.5,373.52L396.33,376.1L410,379.92L416.83,377.19L423.67,378.77L430.5,379.56L437.33,380.29L444.17,375.4L451,379.56L457.83,377.45L464.67,380.02L471.5,381.05L478.33,384.57L485.17,384.04L498.83,381.72L505.67,382.53L567.17,384.06L574,383.73L608.17,384.34L615,384.47L676.5,384.74L683.33,384.73L902,384.91L908.83,379.79L915.67,384.58L922.5,384.89L1011.33,384.85L1018.17,383.81L1025,311.66" style="vector-effect: none; fill: none; stroke: rgb(128, 133, 233); stroke-opacity: 1; stroke-width: 2px; opacity: 1;"/></g><g class="points"/><g class="text"/></g><g class="trace scatter trace641c4c" style="stroke-miterlimit: 2; opacity: 1;"><g class="fills"/><g class="errorbars"/><g class="lines"><path class="js-line" d="M0,385L61.5,384.6L68.33,383.73L75.17,379.65L82,364.28L88.83,362.11L95.67,364.59L102.5,363.41L109.33,360.74L116.17,370.03L123,362.08L129.83,362.48L136.67,367.44L143.5,361.36L150.33,358.5L157.17,359.77L164,355.68L170.83,363.3L177.67,361.23L184.5,359.88L191.33,359.89L198.17,364.06L205,362.29L211.83,363.55L218.67,359.52L225.5,358.98L232.33,364.58L239.17,363.51L246,366.05L252.83,363.87L259.67,365.95L266.5,368.47L273.33,366.13L287,369.85L293.83,370.43L300.67,371.82L307.5,369.97L314.33,369.66L321.17,372.03L328,368.63L334.83,370.46L348.5,369.27L355.33,371.67L362.17,370.51L369,373.78L375.83,374.46L382.67,373.36L389.5,376.12L396.33,377.55L403.17,376.33L410,377.44L416.83,379.63L423.67,377.01L430.5,379.43L437.33,380.45L444.17,380.94L451,379.88L464.67,380.37L471.5,379.79L478.33,378.86L485.17,380.69L498.83,381.27L505.67,382.82L512.5,384.51L519.33,383.51L546.67,383.63L553.5,383.94L615,384.49L621.83,384.44L676.5,384.74L683.33,384.75L902,384.91L908.83,379.86L915.67,384.58L922.5,384.89L1004.5,384.88L1011.33,384.87L1018.17,384.92L1025,368.56" style="vector-effect: none; fill: none; stroke: rgb(241, 92, 128); stroke-opacity: 1; stroke-width: 2px; opacity: 1;"/></g><g class="points"/><g class="text"/></g><g class="trace scatter traceab9e1c" style="stroke-miterlimit: 2; opacity: 1;"><g class="fills"/><g class="errorbars"/><g class="lines"><path class="js-line" d="M0,385L61.5,384.68L68.33,383.7L75.17,379.77L82,366.88L95.67,364.99L102.5,365.39L109.33,364.5L116.17,366.08L123,366.17L129.83,365.02L143.5,364.83L150.33,363.66L170.83,364.8L177.67,364.09L198.17,365.44L205,366.97L211.83,365.2L218.67,365.94L225.5,364.37L232.33,366.35L246,368.32L252.83,367.45L259.67,367.49L266.5,369.24L273.33,368.48L280.17,368.82L287,368.54L293.83,371.03L300.67,361.73L307.5,379.46L314.33,372.01L321.17,370.77L328,370.99L334.83,373.08L341.67,370.79L348.5,372.23L362.17,373.28L369,373.05L375.83,375.67L382.67,375.55L389.5,375.03L396.33,375.7L403.17,378.55L410,379L416.83,376.83L423.67,378.64L437.33,379.67L444.17,376.43L451,379.75L457.83,377.82L464.67,379.55L471.5,379.65L478.33,384.73L485.17,384.33L498.83,381.98L505.67,382.36L553.5,383.66L560.33,383.81L710.67,384.65L717.5,384.65L833.67,384.84L840.5,384.01L854.17,384.86L861,384.87L908.83,384.86L915.67,383.83L922.5,384.8L929.33,384.9L963.5,384.24L970.33,384.78L1011.33,384.66L1018.17,381.54L1025,164.51" style="vector-effect: none; fill: none; stroke: rgb(228, 211, 84); stroke-opacity: 1; stroke-width: 2px; opacity: 1;"/></g><g class="points"/><g class="text"/></g><g class="trace scatter trace53416b" style="stroke-miterlimit: 2; opacity: 1;"><g class="fills"/><g class="errorbars"/><g class="lines"><path class="js-line" d="M0,385L61.5,384.67L68.33,383.75L75.17,379.96L82,365.81L88.83,364.63L95.67,366.66L102.5,365.2L109.33,362.48L116.17,369.66L123,363.33L129.83,363.82L136.67,368.73L143.5,364.6L150.33,364.1L157.17,363.96L164,361.44L170.83,366.19L177.67,365.66L184.5,364.67L191.33,365.45L198.17,366.22L205,366.14L211.83,366.38L218.67,365.01L225.5,363.62L232.33,367.54L239.17,366.88L246,368.16L252.83,367.96L259.67,366.62L273.33,370.08L280.17,369.75L287,369.42L293.83,370.76L300.67,370.7L307.5,369.18L314.33,372.48L321.17,372.49L328,370.37L334.83,372.49L341.67,371.53L348.5,371.83L355.33,372.91L362.17,373.06L369,374.93L375.83,374.93L382.67,374.62L389.5,376.58L396.33,377.41L403.17,376.74L410,377.38L416.83,379.11L423.67,377.12L430.5,379.14L444.17,380.41L451,379.78L464.67,380.31L471.5,380.11L478.33,379.7L485.17,380.95L498.83,381.03L505.67,382.21L512.5,384.39L519.33,383.34L539.83,383.35L546.67,383.53L594.5,384.08L601.33,384.16L690.17,384.57L697,384.64L833.67,384.84L840.5,384.01L854.17,384.86L861,384.88L908.83,384.87L915.67,383.83L922.5,384.8L929.33,384.9L963.5,384.25L970.33,384.78L1018.17,384.8L1025,334.71" style="vector-effect: none; fill: none; stroke: rgb(43, 144, 143); stroke-opacity: 1; stroke-width: 2px; opacity: 1;"/></g><g class="points"/><g class="text"/></g><g class="trace scatter trace69ad5c" style="stroke-miterlimit: 2; opacity: 1;"><g class="fills"/><g class="errorbars"/><g class="lines"><path class="js-line" d="M0,385L61.5,384.61L68.33,383.59L75.17,379.26L82,362.27L88.83,361.54L95.67,359.81L109.33,360.06L116.17,362.36L123,362.48L129.83,360.3L143.5,359.08L150.33,355.82L157.17,358.12L164,358.15L170.83,358.95L177.67,356.24L184.5,358.54L191.33,356.91L198.17,360.76L205,360.47L211.83,360.73L218.67,358.05L225.5,356.41L232.33,363.02L239.17,361.66L246,364.51L252.83,362.79L259.67,363.03L266.5,367.3L273.33,364.24L280.17,367L287,367.07L293.83,368.51L300.67,360.82L307.5,376.42L314.33,368.79L321.17,362.45L328,366.12L334.83,375.69L341.67,360.52L348.5,373.46L355.33,374.46L362.17,369.42L369,366.01L375.83,374.49L382.67,375.71L389.5,375.98L396.33,370.7L403.17,381.94L410,381.14L416.83,375.53L423.67,380.42L430.5,381.77L437.33,379.13L444.17,376.24L451,383.09L457.83,380.54L464.67,380.28L471.5,379.89L478.33,384.81L485.17,384.57L492,383.45L498.83,382.17L505.67,382.85L615,384.55L621.83,384.53L690.17,384.82L697,384.84L1018.17,384.26L1025,341.23" style="vector-effect: none; fill: none; stroke: rgb(244, 91, 91); stroke-opacity: 1; stroke-width: 2px; opacity: 1;"/></g><g class="points"/><g class="text"/></g><g class="trace scatter traceba9a6a" style="stroke-miterlimit: 2; opacity: 1;"><g class="fills"/><g class="errorbars"/><g class="lines"><path class="js-line" d="M0,385L61.5,384.6L68.33,383.6L75.17,379.3L82,360.51L88.83,359.34L95.67,360.91L109.33,358.46L116.17,365.73L123,359.78L129.83,358.15L136.67,363.97L143.5,358.5L150.33,356.23L157.17,356.58L164,353.56L170.83,360.66L177.67,360.22L184.5,357.64L191.33,357.88L198.17,361.99L205,359.13L211.83,361.52L218.67,356.94L225.5,357.96L232.33,362.62L239.17,361.41L246,363.84L252.83,363.81L259.67,361.39L266.5,367.1L273.33,366.79L280.17,367.45L287,367.43L293.83,369.07L300.67,369.73L307.5,366.77L314.33,370L321.17,371.07L328,367.59L334.83,370.17L348.5,368.62L355.33,371.16L362.17,370.58L369,373.34L375.83,374.02L382.67,373.09L396.33,377.21L403.17,375.99L416.83,379.5L423.67,377.25L430.5,379.52L437.33,380.41L444.17,380.76L451,380.06L464.67,380.52L471.5,380.02L478.33,379.36L485.17,381.05L498.83,381.49L505.67,382.92L512.5,384.53L519.33,383.66L546.67,383.81L553.5,384.06L615,384.57L621.83,384.55L690.17,384.82L697,384.84L1018.17,384.95L1025,373.18" style="vector-effect: none; fill: none; stroke: rgb(145, 232, 225); stroke-opacity: 1; stroke-width: 2px; opacity: 1;"/></g><g class="points"/><g class="text"/></g><g class="trace scatter trace9ffbf2" style="stroke-miterlimit: 2; opacity: 1;"><g class="fills"/><g class="errorbars"/><g class="lines"><path class="js-line" d="M0,385L61.5,384.7L68.33,383.84L75.17,380.1L82,366.2L95.67,363.86L102.5,364.56L109.33,363.68L116.17,365.14L123,365.87L129.83,363.9L143.5,363.06L150.33,361.15L157.17,362.83L164,362.69L170.83,363.52L177.67,361.93L184.5,363.25L191.33,363.29L198.17,364.59L205,364.5L218.67,362.99L225.5,361.16L232.33,365.98L239.17,364.67L246,366.2L252.83,366.14L259.67,366.22L266.5,367.64L280.17,367.1L287,368.65L293.83,369.45L300.67,358.98L307.5,379.21L314.33,369.34L321.17,323.15L328,373.24L334.83,381.72L341.67,361.59L348.5,376.5L355.33,380.55L362.17,369.55L369,366.22L375.83,380.13L382.67,380.52L389.5,381.46L396.33,375.37L403.17,384.1L410,382.95L416.83,377.4L423.67,383.22L430.5,383.76L437.33,380.94L444.17,379.88L451,384.46L457.83,382.65L464.67,381.95L471.5,380.78L478.33,384.8L485.17,384.79L492,383.95L498.83,382.73L505.67,382.81L567.17,384.07L574,383.99L635.5,384.64L642.33,384.65L779,384.91L785.83,384.92L1011.33,384.79L1018.17,383.74L1025,311.19" style="vector-effect: none; fill: none; stroke: rgb(124, 181, 236); stroke-opacity: 1; stroke-width: 2px; opacity: 1;"/></g><g class="points"/><g class="text"/></g><g class="trace scatter trace751f06" style="stroke-miterlimit: 2; opacity: 1;"><g class="fills"/><g class="errorbars"/><g class="lines"><path class="js-line" d="M0,385L61.5,384.7L68.33,383.89L75.17,380.32L82,365.02L109.33,364.05L116.17,367L129.83,361.87L136.67,366.82L143.5,362.93L150.33,361.66L157.17,361.74L164,359.41L170.83,364.74L177.67,365.25L184.5,363.24L191.33,363.99L198.17,365.37L205,363.83L211.83,364.25L218.67,363.1L225.5,361.6L232.33,364.17L246,366.22L252.83,366.51L266.5,367.96L273.33,367.76L300.67,370.37L307.5,368.68L314.33,371.51L321.17,371.89L328,369.9L334.83,372.09L348.5,371.74L355.33,373.18L362.17,373.04L369,374.9L382.67,374.93L389.5,376.85L396.33,377.64L403.17,377.09L410,377.71L416.83,379.4L423.67,377.54L430.5,379.62L444.17,380.77L451,380.27L464.67,380.85L471.5,380.71L478.33,380.59L485.17,381.42L492,381.03L498.83,381.51L512.5,384.49L519.33,383.6L539.83,383.62L546.67,383.74L574,384L580.83,384.16L908.83,384.9L915.67,384.65L943,384.82L949.83,384.87L1018.17,384.9L1025,357.09" style="vector-effect: none; fill: none; stroke: rgb(67, 67, 72); stroke-opacity: 1; stroke-width: 2px; opacity: 1;"/></g><g class="points"/><g class="text"/></g><g class="trace scatter trace0ffae1" style="stroke-miterlimit: 2; opacity: 1;"><g class="fills"/><g class="errorbars"/><g class="lines"><path class="js-line" d="M0,385L61.5,384.66L68.33,383.77L75.17,380.2L82,363.16L88.83,363.36L95.67,360.51L102.5,361.42L109.33,361.31L116.17,363.68L123,363.6L129.83,360.86L136.67,360.25L143.5,358.73L150.33,354.86L157.17,357.9L164,357.15L170.83,358.99L177.67,355.49L184.5,358.08L191.33,356.59L198.17,359.82L205,359.18L211.83,359.6L218.67,355.27L225.5,353.4L232.33,360.84L239.17,358.23L246,362.62L252.83,358.68L259.67,360.66L266.5,365.46L273.33,361.6L280.17,364.78L287,363.43L293.83,365.82L300.67,355.94L307.5,375.81L314.33,366.43L321.17,365.45L328,362.81L334.83,369.3L341.67,362.37L348.5,366.63L355.33,368.78L369,365.69L375.83,371.62L382.67,371.62L389.5,370.26L396.33,369.59L403.17,377.75L410,378.43L416.83,373.29L423.67,376.9L430.5,378.28L437.33,377.09L444.17,371.92L451,379.71L457.83,376.22L471.5,377.94L478.33,384.65L485.17,384.04L492,382.21L498.83,380.58L505.67,381.52L567.17,383.61L574,383.33L608.17,384.11L615,384.2L669.67,384.48L676.5,384.62L833.67,384.89L840.5,384.26L854.17,384.9L861,384.91L1011.33,384.61L1018.17,381.4L1025,180.68" style="vector-effect: none; fill: none; stroke: rgb(144, 237, 125); stroke-opacity: 1; stroke-width: 2px; opacity: 1;"/></g><g class="points"/><g class="text"/></g><g class="trace scatter tracee7fe4c" style="stroke-miterlimit: 2; opacity: 1;"><g class="fills"/><g class="errorbars"/><g class="lines"><path class="js-line" d="M0,385L61.5,384.65L68.33,383.8L75.17,380.18L82,361.75L88.83,361.12L95.67,361.49L102.5,361.12L109.33,358.91L116.17,367.78L123,359.55L129.83,359L136.67,365.69L143.5,358.29L150.33,355.38L157.17,354.67L164,350.8L170.83,360.68L177.67,363.02L184.5,356.53L191.33,358.48L205,359.66L211.83,359.24L225.5,352.9L232.33,359.24L239.17,360.57L246,363.17L252.83,359L259.67,361.22L266.5,365.09L273.33,361.47L280.17,365.22L287,364.75L300.67,367.21L307.5,363.58L314.33,366.7L321.17,368.5L328,363.25L334.83,367.3L341.67,365.55L348.5,364.9L355.33,367.94L362.17,367.09L369,370.1L375.83,370.92L382.67,370.1L389.5,371.89L396.33,374.82L403.17,373.14L416.83,377.43L423.67,374.39L430.5,377.19L437.33,378.3L444.17,378.88L451,378.09L464.67,378.63L471.5,377.96L478.33,377.09L485.17,379.19L498.83,379.43L505.67,381.37L512.5,384.24L519.33,382.92L539.83,382.89L546.67,383.05L567.17,383.64L574,383.36L608.17,384.13L615,384.24L669.67,384.49L676.5,384.63L1018.17,384.74L1025,317.49" style="vector-effect: none; fill: none; stroke: rgb(247, 163, 92); stroke-opacity: 1; stroke-width: 2px; opacity: 1;"/></g><g class="points"/><g class="text"/></g><g class="trace scatter trace929f24" style="stroke-miterlimit: 2; opacity: 1;"><g class="fills"/><g class="errorbars"/><g class="lines"><path class="js-line" d="M0,385L61.5,384.66L68.33,383.63L75.17,379.32L82,362.87L95.67,362.01L102.5,362.13L109.33,361.13L116.17,362.47L123,363.64L129.83,362.47L136.67,362.02L143.5,362.91L150.33,361.85L157.17,362.76L170.83,363.72L177.67,362.91L184.5,364.15L191.33,363.87L205,365.63L211.83,365.36L218.67,365.11L225.5,365.67L232.33,366.29L239.17,365.88L246,368.39L252.83,367.12L266.5,369.51L273.33,368.9L280.17,370.04L287,369.69L293.83,371.81L300.67,363.37L307.5,380.49L314.33,373.58L321.17,373.11L328,373.42L334.83,375.23L341.67,374.47L355.33,376.21L362.17,376.58L369,376.47L375.83,378.14L389.5,378.04L396.33,378.82L403.17,380.36L410,381.1L416.83,379.71L423.67,380.84L437.33,381.83L444.17,380.14L451,381.68L457.83,380.84L464.67,382.41L471.5,382.86L478.33,384.84L485.17,384.6L498.83,383.55L505.67,383.65L601.33,384.68L608.17,384.71L936.17,384.96L943,384.95L1018.17,384.9L1025,378.37" style="vector-effect: none; fill: none; stroke: rgb(128, 133, 233); stroke-opacity: 1; stroke-width: 2px; opacity: 1;"/></g><g class="points"/><g class="text"/></g><g class="trace scatter trace8d95b3" style="stroke-miterlimit: 2; opacity: 1;"><g class="fills"/><g class="errorbars"/><g class="lines"><path class="js-line" d="M0,385L61.5,384.65L68.33,383.7L75.17,379.45L82,362.23L88.83,361.37L95.67,363.43L102.5,362.05L109.33,359.65L116.17,366.51L123,360.14L129.83,360.87L136.67,367.05L143.5,362.87L150.33,362.53L164,358.27L170.83,365.08L177.67,368.99L184.5,363.07L191.33,365.79L198.17,363.16L205,366.96L211.83,364.32L218.67,365.02L225.5,367.25L239.17,366.76L246,367.71L252.83,366.12L259.67,369.2L273.33,369.89L280.17,370.67L287,370.31L293.83,371.92L300.67,371.67L307.5,370.51L314.33,374.51L321.17,373.96L328,372.93L334.83,375.39L341.67,374.94L348.5,375.4L369,377.65L375.83,377.58L382.67,377.77L389.5,379.23L410,379.88L416.83,381.05L423.67,379.86L430.5,381.33L444.17,382.14L451,382.03L485.17,382.98L492,382.75L505.67,383.55L512.5,384.7L526.17,384.1L533,384.18L669.67,384.88L676.5,384.89L1018.17,384.99L1025,383.58" style="vector-effect: none; fill: none; stroke: rgb(241, 92, 128); stroke-opacity: 1; stroke-width: 2px; opacity: 1;"/></g><g class="points"/><g class="text"/></g><g class="trace scatter trace91ca7c" style="stroke-miterlimit: 2; opacity: 1;"><g class="fills"/><g class="errorbars"/><g class="lines"><path class="js-line" d="M0,385L61.5,384.67L68.33,383.72L75.17,379.69L82,366.08L95.67,364.29L102.5,364.57L109.33,363.86L116.17,365.56L123,365.45L129.83,353.91L136.67,375.27L143.5,363.68L150.33,362.08L157.17,362.87L170.83,364.01L177.67,362.36L184.5,363.93L191.33,363.69L198.17,365L205,365.1L211.83,364.93L218.67,363.39L225.5,362.53L232.33,364.55L239.17,366.54L246,367.28L259.67,367.09L266.5,368.95L273.33,367.3L280.17,368.76L287,368.5L293.83,370.51L300.67,360.37L307.5,379.44L314.33,373.12L321.17,370.34L328,369.6L334.83,374.81L341.67,370.25L348.5,372.64L355.33,373.97L362.17,373.73L369,372.39L375.83,376.03L389.5,375.69L396.33,375.4L403.17,379.99L410,380.31L416.83,377L423.67,379.61L430.5,380.47L437.33,380.23L444.17,376.93L451,381.47L457.83,379.75L464.67,380.54L471.5,380.55L478.33,384.79L485.17,384.48L492,383.28L498.83,382.56L505.67,382.93L567.17,384.21L574,384.09L621.83,384.59L628.67,384.67L765.33,384.94L772.17,384.94L1018.17,384.43L1025,353.39" style="vector-effect: none; fill: none; stroke: rgb(228, 211, 84); stroke-opacity: 1; stroke-width: 2px; opacity: 1;"/></g><g class="points"/><g class="text"/></g><g class="trace scatter trace9c9072" style="stroke-miterlimit: 2; opacity: 1;"><g class="fills"/><g class="errorbars"/><g class="lines"><path class="js-line" d="M0,385L61.5,384.66L68.33,383.77L75.17,379.83L82,365.22L88.83,364.3L95.67,365.51L102.5,364.55L109.33,361.97L116.17,369.51L123,362.45L129.83,363.3L136.67,368.77L143.5,363.59L150.33,362.44L157.17,361.33L164,359.34L170.83,365.36L177.67,366.63L184.5,363.79L191.33,364.56L211.83,365.11L218.67,363.6L225.5,361.75L232.33,366.11L246,367.64L252.83,366.76L266.5,367.21L273.33,369.73L287,369.44L293.83,370.64L300.67,371L307.5,369.39L314.33,372.05L321.17,372.46L328,370.49L334.83,372.57L348.5,372.03L355.33,373.4L362.17,373.39L369,375.28L382.67,375.28L389.5,377.06L396.33,377.94L403.17,377.49L410,378.14L416.83,379.63L423.67,378.05L430.5,379.88L444.17,381L451,380.62L471.5,381.04L478.33,380.68L485.17,381.67L492,381.5L498.83,381.74L505.67,382.76L512.5,384.53L519.33,383.74L539.83,383.78L546.67,383.91L594.5,384.43L601.33,384.51L956.67,384.93L963.5,384.84L1018.17,384.96L1025,375.33" style="vector-effect: none; fill: none; stroke: rgb(43, 144, 143); stroke-opacity: 1; stroke-width: 2px; opacity: 1;"/></g><g class="points"/><g class="text"/></g><g class="trace scatter trace56581b" style="stroke-miterlimit: 2; opacity: 1;"><g class="fills"/><g class="errorbars"/><g class="lines"><path class="js-line" d="M0,385L61.5,384.71L68.33,383.93L75.17,380.55L82,368.82L88.83,368.26L95.67,366.65L102.5,367.17L109.33,366.91L116.17,368.91L123,368.58L129.83,366.54L136.67,366.12L143.5,364.94L150.33,361.64L157.17,364.45L164,363.42L170.83,364.55L177.67,362.08L191.33,363.43L198.17,365.37L211.83,364.18L218.67,362.46L225.5,360.13L232.33,365.13L239.17,363.83L246,367.68L259.67,366.45L266.5,368.37L273.33,366.5L280.17,368.92L287,367.88L293.83,369.78L300.67,360.39L307.5,378.52L314.33,371.06L321.17,368.7L328,367.01L334.83,373.88L341.67,367.09L348.5,370.76L355.33,372.48L362.17,371.01L369,369.37L375.83,374.41L382.67,374.72L389.5,373.85L396.33,372.38L403.17,379.48L410,379.66L416.83,375.33L423.67,378.83L430.5,379.66L437.33,378.81L444.17,374.5L451,380.87L457.83,378.28L471.5,379.06L478.33,384.75L485.17,384.29L492,382.66L498.83,381.46L505.67,382.03L533,382.87L539.83,383.03L601.33,384.12L608.17,384.09L662.83,384.49L669.67,384.42L724.33,384.67L731.17,384.69L833.67,384.83L840.5,383.81L854.17,384.85L861,384.87L908.83,384.82L915.67,383.76L929.33,384.85L936.17,384.56L970.33,384.7L977.17,384.8L1011.33,384.41L1018.17,379.93L1025,89.57" style="vector-effect: none; fill: none; stroke: rgb(244, 91, 91); stroke-opacity: 1; stroke-width: 2px; opacity: 1;"/></g><g class="points"/><g class="text"/></g><g class="trace scatter trace166cca" style="stroke-miterlimit: 2; opacity: 1;"><g class="fills"/><g class="errorbars"/><g class="lines"><path class="js-line" d="M0,385L61.5,384.7L68.33,383.95L75.17,380.58L82,367.42L88.83,366.73L95.67,367.42L102.5,366.88L109.33,365.28L116.17,371.84L123,365.53L129.83,365.16L136.67,370.08L143.5,364.55L150.33,362L157.17,362.15L164,359.17L170.83,366.03L177.67,366.64L184.5,362.69L191.33,364.16L198.17,365.77L205,364.27L211.83,364.68L218.67,361.14L225.5,360.94L232.33,366.14L239.17,364.53L246,367.52L252.83,365.54L259.67,365.26L266.5,369.58L273.33,367.61L280.17,368.97L287,368.59L293.83,370.3L300.67,370.8L307.5,368.12L314.33,370.49L321.17,371.57L328,368.06L334.83,371.14L341.67,369.81L348.5,369.55L355.33,371.55L362.17,370.87L369,373.13L375.83,373.83L382.67,373.46L396.33,376.77L403.17,375.72L416.83,378.71L423.67,377.12L437.33,379.54L444.17,380.12L451,379.26L457.83,379.85L478.33,378.93L485.17,380.28L492,379.92L498.83,380.45L505.67,381.97L512.5,384.35L519.33,383.14L526.17,382.94L724.33,384.68L731.17,384.69L833.67,384.84L840.5,383.8L854.17,384.85L861,384.89L908.83,384.83L915.67,383.76L929.33,384.86L936.17,384.57L970.33,384.7L977.17,384.8L1018.17,384.64L1025,284.33" style="vector-effect: none; fill: none; stroke: rgb(145, 232, 225); stroke-opacity: 1; stroke-width: 2px; opacity: 1;"/></g><g class="points"/><g class="text"/></g><g class="trace scatter trace2695f9" style="stroke-miterlimit: 2; opacity: 1;"><g class="fills"/><g class="errorbars"/><g class="lines"><path class="js-line" d="M0,385L61.5,384.62L68.33,383.63L75.17,379.57L82,363.26L88.83,362.55L95.67,360.74L109.33,361.18L116.17,363.68L123,363.49L129.83,361.15L136.67,360.93L143.5,359.14L150.33,356.02L157.17,359.23L164,358.49L170.83,359.5L177.67,356.33L184.5,357.77L191.33,357.19L198.17,360.9L205,359.74L211.83,360.42L218.67,357.31L225.5,355.91L232.33,361.53L239.17,360.48L246,364.32L252.83,362.04L259.67,363.11L266.5,366.46L273.33,363.91L280.17,366.25L293.83,368.07L300.67,358.4L307.5,378.78L314.33,368.59L321.17,369.85L328,367.33L334.83,369.1L341.67,368.32L348.5,368.3L355.33,370.54L362.17,370.15L369,371.24L375.83,374.08L382.67,374.18L389.5,372.58L396.33,376.35L403.17,376.41L410,378.27L416.83,377.32L423.67,378.56L430.5,378.39L437.33,379.88L444.17,377.56L451,377.7L457.83,375.5L464.67,379.52L471.5,380.46L478.33,384.38L485.17,383.95L492,382.44L498.83,381.49L505.67,382.25L533,383.18L539.83,383.28L580.83,383.93L587.67,383.92L615,384.37L621.83,384.37L683.33,384.69L690.17,384.71L833.67,384.91L840.5,384.37L861,384.93L867.83,384.92L970.33,384.84L977.17,384.88L1011.33,384.76L1018.17,383.33L1025,278.73" style="vector-effect: none; fill: none; stroke: rgb(124, 181, 236); stroke-opacity: 1; stroke-width: 2px; opacity: 1;"/></g><g class="points"/><g class="text"/></g><g class="trace scatter trace7b32e9" style="stroke-miterlimit: 2; opacity: 1;"><g class="fills"/><g class="errorbars"/><g class="lines"><path class="js-line" d="M0,385L61.5,384.61L68.33,383.64L75.17,379.45L82,360.85L88.83,359.49L95.67,361.3L102.5,360.33L109.33,358.33L116.17,367.93L123,359.09L129.83,359.3L136.67,365.91L143.5,358.52L150.33,356.5L157.17,355.28L164,351.69L170.83,361.19L177.67,363.65L184.5,356.36L191.33,358.89L205,360.71L211.83,359.98L218.67,358.18L225.5,355.36L232.33,360.54L239.17,359.99L246,364.5L252.83,363.06L259.67,363.54L266.5,365.06L280.17,366.8L287,367.03L300.67,369.64L307.5,366.31L314.33,368.92L321.17,370.66L328,366.7L334.83,369.45L348.5,368.18L355.33,370.6L362.17,369.66L369,372.61L375.83,373.42L382.67,373.37L389.5,374.4L396.33,376.73L403.17,375.71L410,376.73L416.83,378.89L423.67,376.77L430.5,378.87L437.33,379.96L444.17,380.38L451,379.55L464.67,380.15L471.5,379.57L478.33,378.77L485.17,380.56L498.83,380.81L505.67,382.36L512.5,384.41L519.33,383.34L546.67,383.54L553.5,383.83L649.17,384.63L656,384.61L1018.17,384.87L1025,359.16" style="vector-effect: none; fill: none; stroke: rgb(67, 67, 72); stroke-opacity: 1; stroke-width: 2px; opacity: 1;"/></g><g class="points"/><g class="text"/></g><g class="trace scatter tracef8774b" style="stroke-miterlimit: 2; opacity: 1;"><g class="fills"/><g class="errorbars"/><g class="lines"><path class="js-line" d="M0,385L61.5,384.63L68.33,383.61L75.17,379.41L82,363.6L95.67,361.25L102.5,361.63L109.33,361.19L116.17,363.36L123,363.12L129.83,361.19L143.5,360.79L150.33,358.35L157.17,360.1L164,359.92L170.83,360.97L177.67,358.15L184.5,360.87L191.33,359.12L198.17,361.51L205,361.77L211.83,362.26L218.67,359.65L225.5,358.26L232.33,364.1L239.17,362.69L246,364.2L252.83,363.37L259.67,364.09L266.5,366.92L273.33,364.94L280.17,366.7L287,367.16L293.83,368.68L300.67,358.53L307.5,377.93L314.33,366.69L321.17,312.48L328,370.35L334.83,380.98L341.67,358.9L348.5,376.5L355.33,380.27L362.17,365.64L369,365.99L375.83,380.43L382.67,380.71L389.5,381.63L396.33,374.79L403.17,384.22L410,382.96L416.83,377.65L423.67,383.39L430.5,383.88L437.33,380.74L444.17,380.1L451,384.53L457.83,382.54L464.67,381.9L471.5,380.75L478.33,384.77L485.17,384.79L492,383.94L498.83,382.5L505.67,382.54L546.67,383.54L553.5,383.8L642.33,384.52L649.17,384.57L724.33,384.75L731.17,384.76L1011.33,384.77L1018.17,382.81L1025,262.53" style="vector-effect: none; fill: none; stroke: rgb(144, 237, 125); stroke-opacity: 1; stroke-width: 2px; opacity: 1;"/></g><g class="points"/><g class="text"/></g><g class="trace scatter trace469647" style="stroke-miterlimit: 2; opacity: 1;"><g class="fills"/><g class="errorbars"/><g class="lines"><path class="js-line" d="M0,385L61.5,384.62L68.33,383.64L75.17,379.46L82,361.54L88.83,360L95.67,362.25L102.5,361.17L109.33,359.18L116.17,366.95L123,359.45L129.83,359.16L136.67,365.71L143.5,360.19L150.33,358.58L157.17,358.86L164,355.24L170.83,362.28L177.67,362.35L184.5,359.66L191.33,360.17L198.17,362.46L205,360.5L211.83,362.84L218.67,358.81L225.5,359.44L232.33,363.7L239.17,362.9L246,364.7L252.83,362.85L259.67,362.54L273.33,368.91L280.17,367.25L300.67,369.58L307.5,367.45L321.17,370.78L328,368.21L334.83,370.6L341.67,370.26L348.5,370.02L355.33,371.88L362.17,371.02L369,373.52L375.83,374.25L382.67,373.27L389.5,376.11L396.33,377.24L403.17,376.16L410,377.19L416.83,379.32L423.67,376.84L430.5,379.29L437.33,380.07L444.17,380.62L451,379.89L464.67,380.63L471.5,380.46L478.33,379.77L485.17,381.01L492,380.68L498.83,381.23L512.5,384.45L519.33,383.4L546.67,383.6L553.5,383.85L662.83,384.58L669.67,384.5L717.5,384.76L724.33,384.76L908.83,384.87L915.67,384.28L929.33,384.94L936.17,384.79L1004.5,384.8L1011.33,384.79L1018.17,384.87L1025,350.85" style="vector-effect: none; fill: none; stroke: rgb(247, 163, 92); stroke-opacity: 1; stroke-width: 2px; opacity: 1;"/></g><g class="points"/><g class="text"/></g><g class="trace scatter trace8da24c" style="stroke-miterlimit: 2; opacity: 1;"><g class="fills"/><g class="errorbars"/><g class="lines"><path class="js-line" d="M0,385L61.5,384.63L68.33,383.6L75.17,379.3L82,361.73L95.67,359.82L102.5,360.05L109.33,359.52L116.17,361.42L123,361.7L129.83,359.62L143.5,358.72L150.33,356.21L157.17,357.58L164,357.92L170.83,358.45L177.67,356.24L184.5,358.31L191.33,356.99L198.17,359.47L205,359.27L211.83,359.12L218.67,357.5L225.5,355.97L232.33,360.71L239.17,359.45L246,361.93L259.67,361.16L266.5,363.54L273.33,362.21L280.17,364.1L293.83,365.13L300.67,354.74L307.5,377.29L314.33,366.85L321.17,367.41L328,365.16L334.83,367.77L341.67,366.26L348.5,367.14L355.33,369.01L369,369.3L375.83,372.41L382.67,372.53L389.5,371.06L396.33,374.08L403.17,375.63L410,377.41L416.83,375.46L423.67,377.12L430.5,377.28L437.33,378.69L444.17,375.09L451,377.03L457.83,374.54L464.67,378.56L471.5,379.7L478.33,384.47L485.17,383.91L492,382.12L498.83,381.19L512.5,382.19L519.33,382.44L615,384.31L621.83,384.31L669.67,384.64L676.5,384.71L902,384.96L908.83,384.94L943,384.86L949.83,384.9L1018.17,384.29L1025,334.4" style="vector-effect: none; fill: none; stroke: rgb(128, 133, 233); stroke-opacity: 1; stroke-width: 2px; opacity: 1;"/></g><g class="points"/><g class="text"/></g><g class="trace scatter traceb4da41" style="stroke-miterlimit: 2; opacity: 1;"><g class="fills"/><g class="errorbars"/><g class="lines"><path class="js-line" d="M0,385L61.5,384.63L68.33,383.64L75.17,379.4L82,360.6L88.83,359.53L95.67,361.18L109.33,358.78L116.17,364.52L123,359.29L129.83,357.45L136.67,363.41L143.5,358.4L150.33,356.63L157.17,356.9L164,353.8L170.83,360.47L184.5,357.84L191.33,358.08L198.17,360.59L205,358.19L211.83,360.08L218.67,356.57L225.5,356.85L232.33,360.68L239.17,358.05L246,361.64L252.83,363.62L259.67,361.38L266.5,361.75L273.33,365.38L280.17,363.95L287,364.92L300.67,366.66L307.5,364.13L314.33,367.36L321.17,368.23L328,364.77L334.83,367.87L348.5,366.96L355.33,369.08L362.17,368.36L369,371.23L375.83,371.59L382.67,370.97L389.5,373.91L396.33,375.24L403.17,374.2L410,375.33L416.83,377.82L423.67,374.75L430.5,377.71L437.33,378.98L444.17,379.35L451,378.47L464.67,379.29L471.5,378.77L478.33,378.28L485.17,379.91L492,379.63L498.83,380.35L505.67,381.94L512.5,384.33L519.33,383.08L526.17,382.82L635.5,384.53L642.33,384.56L765.33,384.91L772.17,384.91L1018.17,384.95L1025,375.36" style="vector-effect: none; fill: none; stroke: rgb(241, 92, 128); stroke-opacity: 1; stroke-width: 2px; opacity: 1;"/></g><g class="points"/><g class="text"/></g><g class="trace scatter traceb5125d" style="stroke-miterlimit: 2; opacity: 1;"><g class="fills"/><g class="errorbars"/><g class="lines"><path class="js-line" d="M0,385L61.5,384.64L68.33,383.74L75.17,380.04L82,365.45L88.83,365.29L95.67,362.43L102.5,363.44L109.33,363.14L116.17,365.76L123,365.33L129.83,361.99L136.67,361.76L143.5,359.48L150.33,355.27L157.17,359.27L164,358.14L170.83,359.94L177.67,356.65L184.5,358.74L191.33,357.9L198.17,361.92L205,358.56L211.83,359.6L218.67,354.46L225.5,352.56L232.33,360.99L239.17,359.5L246,363.61L259.67,362.24L266.5,366.71L273.33,363.35L280.17,365.53L287,364.92L293.83,367.84L300.67,357.3L307.5,377.37L314.33,365.9L321.17,366.29L328,363.23L334.83,368.68L341.67,363.8L348.5,365.82L355.33,368.7L362.17,367.72L369,366.67L375.83,372.31L382.67,372L389.5,370.25L396.33,371.14L403.17,377.17L410,378.42L416.83,374.12L423.67,377.14L430.5,378.13L437.33,378.05L444.17,372.42L451,379.11L457.83,375.91L464.67,377.15L471.5,377.28L478.33,384.66L485.17,384.09L498.83,380.34L505.67,381.56L567.17,383.66L574,383.15L594.5,383.81L601.33,384.1L1011.33,384.76L1018.17,382.6L1025,269.48" style="vector-effect: none; fill: none; stroke: rgb(228, 211, 84); stroke-opacity: 1; stroke-width: 2px; opacity: 1;"/></g><g class="points"/><g class="text"/></g><g class="trace scatter trace091a09" style="stroke-miterlimit: 2; opacity: 1;"><g class="fills"/><g class="errorbars"/><g class="lines"><path class="js-line" d="M0,385L61.5,384.62L68.33,383.77L75.17,380.03L82,364.14L88.83,363.32L95.67,363.64L102.5,363.02L109.33,360.91L116.17,369.61L123,361.51L129.83,360.24L136.67,366.65L143.5,359.08L150.33,355.7L157.17,357.07L164,351.65L170.83,361.1L177.67,363.8L184.5,357.52L191.33,359.4L198.17,362.16L205,358.08L211.83,359.85L218.67,349.16L225.5,357.67L232.33,362.11L239.17,358.91L246,364.74L252.83,361.73L259.67,360.54L266.5,365.49L273.33,366.68L287,366L293.83,367.22L300.67,368.18L307.5,365.06L321.17,368.68L328,363.63L334.83,366.87L341.67,366.29L348.5,364.77L355.33,368.07L362.17,366.97L369,370.72L389.5,371.84L396.33,375L403.17,373.45L410,375.26L416.83,377.84L423.67,374.71L430.5,377.45L437.33,378.83L444.17,379.39L451,378.12L457.83,378.68L464.67,378.42L478.33,376.69L485.17,379.16L492,378.78L498.83,379.59L512.5,384.26L519.33,382.86L539.83,382.9L546.67,383.15L567.17,383.69L574,383.19L594.5,383.86L601.33,384.12L792.67,384.86L799.5,384.88L1018.17,384.85L1025,344.96" style="vector-effect: none; fill: none; stroke: rgb(43, 144, 143); stroke-opacity: 1; stroke-width: 2px; opacity: 1;"/></g><g class="points"/><g class="text"/></g><g class="trace scatter trace510e16" style="stroke-miterlimit: 2; opacity: 1;"><g class="fills"/><g class="errorbars"/><g class="lines"><path class="js-line" d="M0,385L61.5,384.68L68.33,383.77L75.17,379.91L82,365.62L95.67,363.79L102.5,364.38L109.33,363.65L116.17,364.73L123,365.79L129.83,363.83L136.67,363.72L143.5,362.86L150.33,359.91L157.17,363.05L164,361.83L170.83,363.07L177.67,361.16L184.5,362.02L205,363.92L211.83,363.04L218.67,362.36L225.5,360.66L232.33,363.54L239.17,364.04L246,365.43L252.83,364.25L266.5,365.86L273.33,365.67L287,367.21L293.83,368.1L300.67,358.15L307.5,378.92L314.33,369.65L321.17,369.62L328,368.59L334.83,370.71L341.67,369.12L348.5,369.76L355.33,371.33L362.17,371.88L369,371.76L375.83,374.38L382.67,374.42L389.5,373.37L403.17,377.19L410,378.26L416.83,376.42L423.67,378.1L430.5,378.44L437.33,379.65L444.17,376.52L451,378.51L457.83,376.5L464.67,379.78L471.5,380.67L478.33,384.55L485.17,384.05L492,382.54L498.83,381.83L505.67,382.32L553.5,383.77L560.33,383.94L738,384.88L744.83,384.89L1011.33,384.77L1018.17,384.02L1025,328.41" style="vector-effect: none; fill: none; stroke: rgb(244, 91, 91); stroke-opacity: 1; stroke-width: 2px; opacity: 1;"/></g><g class="points"/><g class="text"/></g><g class="trace scatter tracebf25dd" style="stroke-miterlimit: 2; opacity: 1;"><g class="fills"/><g class="errorbars"/><g class="lines"><path class="js-line" d="M0,385L61.5,384.67L68.33,383.83L75.17,380.01L82,364.96L88.83,363.16L95.67,365.77L102.5,364.54L109.33,361.22L116.17,369.48L123,362.38L129.83,363.4L136.67,367.25L143.5,362.84L150.33,361.3L157.17,361.78L164,358.92L170.83,364.48L177.67,362.94L184.5,362.46L191.33,363.23L198.17,364.1L205,363.64L211.83,364.45L218.67,361.89L225.5,361.25L232.33,364.08L246,364.58L252.83,363.33L259.67,366.96L266.5,365.43L273.33,366.83L280.17,366.81L300.67,368.99L307.5,366.99L314.33,370.01L321.17,370.61L328,368.33L334.83,370.58L348.5,369.76L355.33,371.41L362.17,371.24L369,373.53L375.83,373.84L382.67,373.1L389.5,375.75L396.33,376.65L403.17,375.95L410,376.62L416.83,378.45L423.67,376.22L430.5,378.79L437.33,379.74L444.17,380.22L451,379.56L464.67,380.3L471.5,379.92L478.33,379.69L485.17,380.88L498.83,381L505.67,382.27L512.5,384.44L519.33,383.39L539.83,383.46L546.67,383.64L601.33,384.39L608.17,384.43L690.17,384.81L697,384.84L1018.17,384.91L1025,364.06" style="vector-effect: none; fill: none; stroke: rgb(145, 232, 225); stroke-opacity: 1; stroke-width: 2px; opacity: 1;"/></g><g class="points"/><g class="text"/></g><g class="trace scatter trace6bbbb0" style="stroke-miterlimit: 2; opacity: 1;"><g class="fills"/><g class="errorbars"/><g class="lines"><path class="js-line" d="M0,385L61.5,384.68L68.33,383.86L75.17,380.37L82,368.38L88.83,368.2L95.67,366.58L109.33,366.9L116.17,368.55L123,368.05L129.83,366.53L136.67,365.87L143.5,364.28L150.33,361.38L157.17,364.38L164,363.01L170.83,363.96L177.67,361.7L184.5,362.89L191.33,363.35L198.17,366.54L211.83,365.39L218.67,362.39L225.5,361.24L232.33,366.32L239.17,365.96L246,367.73L252.83,366.45L259.67,367.7L266.5,368.32L273.33,367.86L280.17,369.66L287,368.51L293.83,371.04L300.67,361.52L307.5,379.15L314.33,371.44L321.17,370.75L328,368.7L334.83,371.47L341.67,368.73L348.5,369.47L355.33,371.52L369,371.27L375.83,375.07L382.67,374.57L389.5,373.15L403.17,377.54L410,379.37L416.83,376.76L423.67,378.46L437.33,379.82L444.17,375.13L451,379L457.83,376.63L464.67,379.05L471.5,380.21L478.33,384.54L485.17,383.98L498.83,381.18L505.67,382.08L533,382.93L539.83,383.06L567.17,383.76L574,383.39L601.33,384L608.17,383.94L717.5,384.52L724.33,384.55L826.83,384.68L833.67,384.76L840.5,383.24L847.33,384.42L867.83,384.81L874.67,384.7L895.17,384.72L902,384.85L908.83,384.79L915.67,382.9L922.5,384.59L929.33,384.85L943,384.27L949.83,384.61L956.67,384.6L963.5,383.77L977.17,384.82L984,384.79L1011.33,384.46L1018.17,378.68L1025,19.25" style="vector-effect: none; fill: none; stroke: rgb(124, 181, 236); stroke-opacity: 1; stroke-width: 2px; opacity: 1;"/></g><g class="points"/><g class="text"/></g><g class="trace scatter trace1af4fc" style="stroke-miterlimit: 2; opacity: 1;"><g class="fills"/><g class="errorbars"/><g class="lines"><path class="js-line" d="M0,385L61.5,384.67L68.33,383.9L75.17,380.4L82,367.86L88.83,367.06L95.67,367.5L102.5,366.83L109.33,364.96L116.17,371.79L123,365.19L129.83,365.25L136.67,369.98L143.5,364.06L150.33,362.24L157.17,361.93L164,358.37L170.83,365.63L177.67,366.38L184.5,362.52L191.33,364.23L205,366.85L211.83,364.24L218.67,360.48L225.5,364.02L232.33,366.59L239.17,366.36L246,368.18L252.83,364.23L259.67,370.58L266.5,368.08L287,369.58L293.83,371.06L300.67,372.18L307.5,368.89L321.17,372.4L328,368.48L334.83,370.76L341.67,369.37L348.5,369.1L355.33,371.62L362.17,370.75L369,373.79L382.67,373.85L389.5,375.06L396.33,377.17L403.17,375.83L410,377.05L416.83,379.1L423.67,377.09L430.5,378.94L444.17,380.42L451,379.57L464.67,379.68L471.5,379.2L478.33,378.42L485.17,380.32L498.83,380.37L505.67,382.02L512.5,384.33L519.33,383.11L546.67,383.4L553.5,383.7L833.67,384.76L840.5,383.22L847.33,384.43L854.17,384.78L908.83,384.8L915.67,382.9L922.5,384.59L929.33,384.85L943,384.27L949.83,384.61L956.67,384.6L963.5,383.78L977.17,384.82L984,384.8L1018.17,384.67L1025,301.04" style="vector-effect: none; fill: none; stroke: rgb(67, 67, 72); stroke-opacity: 1; stroke-width: 2px; opacity: 1;"/></g><g class="points"/><g class="text"/></g><g class="trace scatter trace436697" style="stroke-miterlimit: 2; opacity: 1;"><g class="fills"/><g class="errorbars"/><g class="lines"><path class="js-line" d="M0,385L61.5,384.63L68.33,383.63L75.17,379.53L82,362.86L95.67,360.99L102.5,361.44L109.33,361.37L116.17,362.68L123,363.5L129.83,361.36L143.5,360.3L150.33,357.87L157.17,359.39L164,359.29L170.83,359.81L177.67,357.68L184.5,359.34L191.33,359.14L198.17,362.02L205,362.21L211.83,362.06L218.67,359.56L225.5,357.75L232.33,363.38L239.17,363.26L246,364.43L252.83,363.29L259.67,363.96L266.5,365.95L273.33,364.99L280.17,366.58L287,365.95L293.83,369.3L300.67,360.59L307.5,377.28L314.33,369.04L321.17,369.93L328,368.17L334.83,370.14L341.67,368.24L355.33,370.9L362.17,371.12L369,371.51L375.83,374.53L382.67,374.42L389.5,373.28L396.33,375.79L403.17,377.24L410,378.45L416.83,377.02L423.67,378.55L430.5,378.74L437.33,379.71L444.17,377.13L451,379.18L457.83,377.04L464.67,379.19L471.5,379.38L478.33,384.64L485.17,384.2L498.83,381.89L505.67,382.54L560.33,384.04L567.17,384.07L580.83,384.11L587.67,384.08L635.5,384.62L642.33,384.65L833.67,384.94L840.5,384.69L867.83,384.95L874.67,384.93L1011.33,384.86L1018.17,383.99L1025,320.94" style="vector-effect: none; fill: none; stroke: rgb(144, 237, 125); stroke-opacity: 1; stroke-width: 2px; opacity: 1;"/></g><g class="points"/><g class="text"/></g><g class="trace scatter trace4187f5" style="stroke-miterlimit: 2; opacity: 1;"><g class="fills"/><g class="errorbars"/><g class="lines"><path class="js-line" d="M0,385L61.5,384.62L68.33,383.7L75.17,379.59L82,361.74L88.83,360.21L95.67,362.54L102.5,361.37L109.33,358.55L116.17,367.56L123,359.02L129.83,359.86L136.67,366.69L143.5,360.06L150.33,358.31L157.17,356.19L164,352.97L170.83,362.06L177.67,365.05L184.5,358.57L191.33,360.61L198.17,362.01L205,362.33L211.83,362.48L218.67,359.78L225.5,358.51L232.33,362.85L239.17,363.02L246,365.39L252.83,363.14L259.67,364.29L266.5,366.28L273.33,365.07L287,367.6L293.83,368.66L300.67,369.58L307.5,367.71L321.17,370.92L328,367.92L334.83,370.13L341.67,369.07L348.5,369.09L355.33,370.88L362.17,370.56L369,373.42L389.5,375.02L396.33,376.55L403.17,375.99L410,376.89L416.83,378.83L423.67,377.11L437.33,379.86L444.17,380.38L451,379.79L457.83,380.27L471.5,379.81L478.33,379.24L485.17,380.88L492,380.71L498.83,381.14L505.67,382.64L512.5,384.51L519.33,383.46L546.67,383.68L553.5,383.96L649.17,384.69L656,384.69L908.83,384.94L915.67,384.64L936.17,384.88L943,384.83L1018.17,384.93L1025,370.12" style="vector-effect: none; fill: none; stroke: rgb(247, 163, 92); stroke-opacity: 1; stroke-width: 2px; opacity: 1;"/></g><g class="points"/><g class="text"/></g><g class="trace scatter traceb16913" style="stroke-miterlimit: 2; opacity: 1;"><g class="fills"/><g class="errorbars"/><g class="lines"><path class="js-line" d="M0,385L61.5,384.64L68.33,383.58L75.17,379.16L82,364.35L95.67,362.54L102.5,362.69L109.33,362.09L116.17,363.46L123,363.96L129.83,362.51L143.5,361.75L150.33,360.22L170.83,361.9L177.67,360.36L184.5,362.12L191.33,361.18L198.17,363.44L205,363.32L211.83,363.28L218.67,361.69L225.5,360.56L232.33,364.76L246,364.92L252.83,366L259.67,365.65L266.5,367.73L273.33,366.03L280.17,367.2L287,368.5L293.83,368.73L300.67,359.69L307.5,379.16L314.33,371.22L321.17,370.99L328,369.41L334.83,372.15L341.67,370.32L348.5,371.46L355.33,372.78L362.17,373.13L369,373.49L375.83,375.54L382.67,375.86L389.5,375.04L410,379.32L416.83,377.79L423.67,379.29L430.5,379.53L437.33,380.23L444.17,378.1L451,379.89L457.83,378.25L464.67,380.08L471.5,380.22L478.33,384.73L485.17,384.35L498.83,382.37L505.67,382.8L560.33,384.06L567.17,384.12L594.5,384.32L601.33,384.42L902,384.92L908.83,378.62L915.67,384.68L922.5,384.92L1011.33,384.89L1018.17,384.3L1025,338.69" style="vector-effect: none; fill: none; stroke: rgb(128, 133, 233); stroke-opacity: 1; stroke-width: 2px; opacity: 1;"/></g><g class="points"/><g class="text"/></g><g class="trace scatter trace3c3c47" style="stroke-miterlimit: 2; opacity: 1;"><g class="fills"/><g class="errorbars"/><g class="lines"><path class="js-line" d="M0,385L61.5,384.63L68.33,383.63L75.17,379.31L82,362.99L88.83,361.89L95.67,363.89L109.33,360.34L116.17,367.2L123,360.5L129.83,360.74L136.67,366.92L143.5,361.39L157.17,359.09L164,357.38L170.83,363.72L177.67,364.25L184.5,361.68L191.33,362.15L198.17,364.05L205,362.81L211.83,363.65L218.67,361.69L225.5,360.9L232.33,365.5L239.17,364.2L246,364.08L266.5,368.64L273.33,366.24L280.17,368.03L287,368.58L300.67,369.9L307.5,368.48L314.33,370.88L321.17,371.64L328,369.36L334.83,372L341.67,371.25L348.5,371.38L355.33,372.73L362.17,372.65L369,374.9L375.83,375.06L382.67,374.78L389.5,376.98L396.33,377.57L403.17,377.13L410,377.84L416.83,379.32L423.67,377.1L430.5,379.92L444.17,380.92L451,380.35L464.67,380.89L471.5,380.71L478.33,380.53L485.17,381.58L498.83,381.59L505.67,382.63L512.5,384.5L519.33,383.67L539.83,383.68L546.67,383.82L580.83,384.19L587.67,384.2L649.17,384.72L656,384.7L874.67,384.95L881.5,384.93L902,384.92L908.83,378.76L915.67,384.68L922.5,384.92L1018.17,384.96L1025,374.35" style="vector-effect: none; fill: none; stroke: rgb(241, 92, 128); stroke-opacity: 1; stroke-width: 2px; opacity: 1;"/></g><g class="points"/><g class="text"/></g><g class="trace scatter trace21243c" style="stroke-miterlimit: 2; opacity: 1;"><g class="fills"/><g class="errorbars"/><g class="lines"><path class="js-line" d="M0,385L61.5,384.66L68.33,383.67L75.17,379.57L82,365.97L95.67,363.66L102.5,364.06L109.33,363.24L116.17,365.07L123,365.14L129.83,362.95L143.5,362.47L150.33,360.48L170.83,362.88L177.67,360.79L184.5,362.06L191.33,361.95L198.17,363.88L205,363.27L211.83,363.62L218.67,361.27L225.5,360.13L232.33,365.39L239.17,364.07L246,365.73L252.83,364.61L259.67,365.48L266.5,367.7L273.33,365.51L287,368.36L293.83,368.56L300.67,358.42L307.5,379.02L314.33,370.37L321.17,370.4L328,368.61L334.83,370.58L341.67,369.59L348.5,369.93L355.33,371.55L362.17,372.07L369,372.54L375.83,374.68L382.67,375.01L389.5,374.19L410,378.19L416.83,377.49L423.67,378.68L430.5,378.7L437.33,379.77L444.17,377.9L451,378.67L457.83,376.62L464.67,379.48L471.5,379.79L478.33,384.58L485.17,384.16L498.83,382L505.67,382.61L567.17,384.08L574,383.92L615,384.5L621.83,384.53L744.83,384.87L751.67,384.89L902,384.96L908.83,383.39L915.67,384.66L922.5,384.94L1011.33,384.87L1018.17,383.88L1025,319.33" style="vector-effect: none; fill: none; stroke: rgb(228, 211, 84); stroke-opacity: 1; stroke-width: 2px; opacity: 1;"/></g><g class="points"/><g class="text"/></g><g class="trace scatter tracec434f4" style="stroke-miterlimit: 2; opacity: 1;"><g class="fills"/><g class="errorbars"/><g class="lines"><path class="js-line" d="M0,385L61.5,384.66L68.33,383.68L75.17,379.67L82,364.23L88.83,362.99L95.67,364.84L102.5,363.78L109.33,361.2L116.17,368.78L123,361.51L129.83,361.49L136.67,367.48L143.5,362.12L150.33,360.77L157.17,360.73L164,358.79L170.83,363.99L177.67,363.07L191.33,362.07L198.17,364.61L205,362.52L211.83,364.01L218.67,361.07L225.5,360.55L232.33,363.41L239.17,365.02L246,367.12L252.83,363.35L259.67,364.91L266.5,370.13L273.33,365.83L280.17,367.34L287,368.73L293.83,368.67L300.67,369.28L307.5,368.29L321.17,370.78L328,368.97L334.83,370.38L341.67,370.27L348.5,369.95L355.33,371.6L362.17,371.61L369,373.68L389.5,374.94L396.33,376.49L403.17,376.25L410,377.13L416.83,378.74L423.67,376.92L430.5,379.08L437.33,379.88L444.17,380.42L451,379.77L464.67,380.36L471.5,380.11L478.33,379.67L485.17,380.98L498.83,381.25L505.67,382.6L512.5,384.48L519.33,383.52L539.83,383.55L546.67,383.76L580.83,384.16L587.67,384.14L635.5,384.67L642.33,384.69L833.67,384.95L840.5,384.73L874.67,384.95L881.5,384.91L902,384.96L908.83,383.46L915.67,384.66L922.5,384.94L1018.17,384.93L1025,364.1" style="vector-effect: none; fill: none; stroke: rgb(43, 144, 143); stroke-opacity: 1; stroke-width: 2px; opacity: 1;"/></g><g class="points"/><g class="text"/></g><g class="trace scatter trace8765bf" style="stroke-miterlimit: 2; opacity: 1;"><g class="fills"/><g class="errorbars"/><g class="lines"><path class="js-line" d="M0,385L61.5,384.66L68.33,383.75L75.17,379.67L82,365.85L88.83,365.08L95.67,363.43L102.5,363.96L109.33,363.64L116.17,365.84L123,365.72L129.83,363.72L136.67,363.47L143.5,362.33L150.33,359.68L157.17,362.02L164,361.51L170.83,362.69L177.67,360.18L184.5,361.56L191.33,361.72L198.17,363.77L205,362.91L211.83,362.38L218.67,360.77L225.5,359.83L232.33,365.16L239.17,363.1L246,365.56L259.67,365.3L266.5,367.65L273.33,366.36L280.17,367.94L293.83,368.52L300.67,360.36L307.5,378.65L314.33,371.66L321.17,371.34L328,368.88L334.83,371.17L341.67,369.93L348.5,369.94L355.33,372.06L369,373.01L375.83,374.98L382.67,375.43L389.5,373.77L396.33,377.1L403.17,377.36L410,378.87L416.83,378.12L423.67,379.3L430.5,378.8L437.33,380.22L444.17,378.37L451,378.34L457.83,376.46L464.67,380.36L471.5,381.32L478.33,384.47L485.17,384.09L498.83,382.02L505.67,382.62L533,383.37L539.83,383.49L601.33,384.39L608.17,384.4L703.83,384.8L710.67,384.83L902,384.91L908.83,379.35L915.67,384.5L922.5,384.87L990.83,384.87L997.67,384.84L1011.33,384.79L1018.17,383.24L1025,284.67" style="vector-effect: none; fill: none; stroke: rgb(244, 91, 91); stroke-opacity: 1; stroke-width: 2px; opacity: 1;"/></g><g class="points"/><g class="text"/></g><g class="trace scatter traceb0107d" style="stroke-miterlimit: 2; opacity: 1;"><g class="fills"/><g class="errorbars"/><g class="lines"><path class="js-line" d="M0,385L61.5,384.65L68.33,383.79L75.17,379.71L82,364.49L88.83,363.39L95.67,364.43L102.5,363.62L109.33,361.55L116.17,369.47L123,362.12L129.83,362.09L136.67,368.17L143.5,362L150.33,359.98L157.17,359.07L164,355.95L170.83,364.15L177.67,366.87L184.5,360.56L191.33,363.16L198.17,362.77L205,364.08L211.83,362.24L218.67,361.86L225.5,358.28L232.33,366.29L239.17,362.27L246,364.96L252.83,364.3L259.67,368.06L266.5,368.1L273.33,366.09L280.17,368.2L287,368.5L300.67,370.51L307.5,368.41L314.33,370.59L321.17,371.63L328,368.62L334.83,371.32L348.5,369.99L355.33,372.22L362.17,371.82L369,373.97L375.83,374.59L382.67,374.29L396.33,377.4L403.17,376.68L410,377.66L416.83,379.46L423.67,377.71L430.5,379.33L444.17,380.71L451,380.16L464.67,380.72L471.5,380.32L478.33,379.98L485.17,381.18L498.83,381.31L505.67,382.57L512.5,384.5L519.33,383.63L539.83,383.57L546.67,383.71L567.17,384.13L574,383.9L608.17,384.41L615,384.5L902,384.91L908.83,379.48L915.67,384.5L922.5,384.87L990.83,384.87L997.67,384.84L1018.17,384.87L1025,347.89" style="vector-effect: none; fill: none; stroke: rgb(145, 232, 225); stroke-opacity: 1; stroke-width: 2px; opacity: 1;"/></g><g class="points"/><g class="text"/></g><g class="trace scatter tracee3763b" style="stroke-miterlimit: 2; opacity: 1;"><g class="fills"/><g class="errorbars"/><g class="lines"><path class="js-line" d="M0,385L61.5,384.62L68.33,383.62L75.17,379.42L82,363.86L95.67,361.39L102.5,361.71L109.33,361.66L116.17,364.05L123,363.62L129.83,361.58L136.67,361.4L143.5,359.86L150.33,357.61L157.17,359.49L164,359.01L170.83,359.89L177.67,357.57L184.5,358.94L191.33,358.44L198.17,361.63L205,360.98L211.83,361.33L218.67,358.44L225.5,357.11L232.33,362.81L239.17,362.48L246,364.8L252.83,363.09L259.67,364.05L266.5,366.79L273.33,365.39L280.17,366.54L287,366.7L293.83,368.45L300.67,358.42L307.5,379.07L314.33,368.7L321.17,369.14L328,366.52L334.83,369.92L341.67,367.42L348.5,368.67L355.33,370.58L362.17,370.24L369,370.57L375.83,373.97L382.67,373.99L389.5,372.83L410,378.58L416.83,376.47L423.67,378.38L430.5,378.65L437.33,379.26L444.17,376.4L451,379.2L457.83,376.81L464.67,378.58L471.5,378.66L478.33,384.67L485.17,384.23L498.83,381.57L505.67,382.25L539.83,383.18L546.67,383.39L567.17,383.92L574,383.6L601.33,384.25L608.17,384.24L676.5,384.67L683.33,384.69L806.33,384.87L813.17,384.88L1011.33,384.79L1018.17,383.09L1025,267.72" style="vector-effect: none; fill: none; stroke: rgb(124, 181, 236); stroke-opacity: 1; stroke-width: 2px; opacity: 1;"/></g><g class="points"/><g class="text"/></g><g class="trace scatter tracee56ec9" style="stroke-miterlimit: 2; opacity: 1;"><g class="fills"/><g class="errorbars"/><g class="lines"><path class="js-line" d="M0,385L61.5,384.61L68.33,383.66L75.17,379.43L82,362.42L88.83,360.84L95.67,362.51L109.33,359.83L116.17,367.53L123,359.45L129.83,359.68L136.67,366.89L143.5,359.51L150.33,358.07L157.17,358.09L164,355.84L170.83,360.94L177.67,360.47L184.5,358.55L191.33,359.12L198.17,362.44L205,359.97L211.83,362.18L218.67,355.4L225.5,358.59L232.33,364.05L239.17,362.52L252.83,364.37L259.67,364.34L266.5,367.25L273.33,365.33L280.17,367.04L287,367.79L300.67,369.53L307.5,367.61L314.33,368.39L321.17,370.31L328,366.8L334.83,369.14L348.5,368.34L355.33,370.43L362.17,369.47L369,372.81L375.83,373.3L382.67,371.92L389.5,375.53L396.33,376.61L403.17,375.24L410,376.53L416.83,378.81L423.67,376.05L430.5,378.73L437.33,379.84L444.17,380.33L451,379.39L464.67,379.82L471.5,379.29L478.33,378.69L485.17,380.54L492,380.24L498.83,380.86L512.5,384.44L519.33,383.28L539.83,383.26L546.67,383.47L567.17,383.95L574,383.64L608.17,384.26L615,384.38L1018.17,384.89L1025,355.98" style="vector-effect: none; fill: none; stroke: rgb(67, 67, 72); stroke-opacity: 1; stroke-width: 2px; opacity: 1;"/></g><g class="points"/><g class="text"/></g><g class="trace scatter tracedc1803" style="stroke-miterlimit: 2; opacity: 1;"><g class="fills"/><g class="errorbars"/><g class="lines"><path class="js-line" d="M0,385L61.5,384.63L68.33,383.64L75.17,379.54L82,363.84L88.83,363.4L95.67,361.46L109.33,361.94L116.17,364.29L123,364.07L129.83,362.02L143.5,360.88L150.33,357.98L157.17,359.81L164,359.43L170.83,359.88L177.67,357.58L184.5,359.55L191.33,358.32L198.17,361.91L205,362.11L211.83,362.14L218.67,359.64L225.5,358.35L232.33,363.48L239.17,363.13L246,364.24L259.67,363.94L266.5,366.48L273.33,365.47L280.17,367.29L287,367.19L293.83,368.59L300.67,361.83L307.5,376.86L314.33,368.31L321.17,370.09L328,367.4L334.83,370.18L341.67,368.25L348.5,369.12L355.33,371.08L362.17,370.86L369,371.29L375.83,374.45L382.67,374.55L389.5,373.18L403.17,377.11L410,378.79L416.83,376.96L423.67,378.63L437.33,379.51L444.17,376.74L451,379.11L457.83,376.82L464.67,379.21L471.5,379.58L478.33,384.63L485.17,384.15L498.83,381.72L505.67,382.26L539.83,383.14L546.67,383.32L567.17,383.84L574,383.6L608.17,384.08L615,384.19L751.67,384.73L758.5,384.71L833.67,384.84L840.5,383.97L854.17,384.87L861,384.9L902,384.91L908.83,384L915.67,383.89L922.5,384.82L956.67,384.77L963.5,384.34L977.17,384.9L984,384.88L1011.33,384.7L1018.17,381.84L1025,179.59" style="vector-effect: none; fill: none; stroke: rgb(144, 237, 125); stroke-opacity: 1; stroke-width: 2px; opacity: 1;"/></g><g class="points"/><g class="text"/></g><g class="trace scatter trace4bc6f9" style="stroke-miterlimit: 2; opacity: 1;"><g class="fills"/><g class="errorbars"/><g class="lines"><path class="js-line" d="M0,385L61.5,384.61L68.33,383.66L75.17,379.44L82,362.1L88.83,361.26L95.67,361.77L109.33,360.95L116.17,366.61L123,359.92L129.83,360.21L136.67,366.53L143.5,360.3L150.33,357.99L157.17,357.54L164,353.77L170.83,361.73L177.67,362.71L184.5,358.82L191.33,359.31L198.17,362L205,361.86L211.83,362.63L218.67,355.74L225.5,361.47L232.33,364.66L239.17,362.97L246,362.1L252.83,363.35L259.67,365.04L266.5,369.53L273.33,364.96L280.17,367.53L287,367.88L293.83,368.99L300.67,369.99L307.5,367.02L314.33,369.41L321.17,370.98L328,367.32L334.83,369.92L348.5,368.96L355.33,371.03L362.17,370.27L369,373.18L375.83,373.86L382.67,373.5L396.33,376.87L403.17,375.65L416.83,378.93L423.67,376.88L430.5,378.86L437.33,379.69L444.17,380.35L451,379.66L464.67,380.25L471.5,379.8L478.33,379.13L485.17,380.68L498.83,380.86L505.67,382.2L512.5,384.42L519.33,383.35L539.83,383.24L546.67,383.4L567.17,383.87L574,383.62L601.33,384.11L608.17,384.11L662.83,384.45L669.67,384.36L717.5,384.69L724.33,384.67L833.67,384.85L840.5,383.96L854.17,384.87L861,384.9L902,384.92L908.83,384.02L915.67,383.89L922.5,384.82L956.67,384.77L963.5,384.34L977.17,384.9L984,384.88L1018.17,384.8L1025,334.26" style="vector-effect: none; fill: none; stroke: rgb(247, 163, 92); stroke-opacity: 1; stroke-width: 2px; opacity: 1;"/></g><g class="points"/><g class="text"/></g><g class="trace scatter trace05336a" style="stroke-miterlimit: 2; opacity: 1;"><g class="fills"/><g class="errorbars"/><g class="lines"><path class="js-line" d="M0,385L61.5,384.63L68.33,383.51L75.17,378.84L82,363.63L95.67,362.45L102.5,362.59L109.33,361.76L116.17,362.95L123,364.09L129.83,362.75L136.67,362.32L143.5,362.73L150.33,361.94L157.17,361.96L164,362.99L170.83,363.18L177.67,362.35L184.5,363.65L191.33,363.07L198.17,364.02L211.83,364.42L218.67,363.76L225.5,363.72L232.33,365.39L259.67,366.98L266.5,367.98L287,368.15L293.83,370.56L300.67,361.17L307.5,379.57L314.33,372.1L321.17,371.72L328,371.58L334.83,373.17L341.67,372.82L348.5,373.65L362.17,374.82L369,375.07L375.83,376.52L382.67,376.79L389.5,376.26L396.33,377.8L410,379.71L416.83,378.88L437.33,381L444.17,379.56L451,380.06L457.83,378.96L464.67,381.31L471.5,381.75L478.33,384.72L485.17,384.42L498.83,382.93L505.67,383.15L615,384.6L621.83,384.63L738,384.93L744.83,384.93L1018.17,384.79L1025,371.35" style="vector-effect: none; fill: none; stroke: rgb(128, 133, 233); stroke-opacity: 1; stroke-width: 2px; opacity: 1;"/></g><g class="points"/><g class="text"/></g><g class="trace scatter traceb1ed88" style="stroke-miterlimit: 2; opacity: 1;"><g class="fills"/><g class="errorbars"/><g class="lines"><path class="js-line" d="M0,385L61.5,384.63L68.33,383.56L75.17,379.01L82,362.58L88.83,362.17L95.67,363.93L109.33,360.89L116.17,366.23L123,361.54L129.83,360.66L136.67,366.48L143.5,362.51L150.33,362.26L157.17,359.92L164,357.88L170.83,365.14L177.67,367.98L184.5,362.66L191.33,364.64L198.17,363.79L211.83,364.91L218.67,363.81L225.5,363.34L232.33,364.99L239.17,366.93L246,365.76L252.83,365.97L259.67,368.16L273.33,367.95L280.17,369.8L287,368.83L293.83,370.59L300.67,370.33L307.5,368.43L314.33,373.33L321.17,372.26L328,370.77L334.83,373.84L341.67,373.16L348.5,373.56L355.33,374.52L362.17,374.55L369,375.99L375.83,375.97L382.67,376L389.5,377.89L410,378.62L416.83,380.14L423.67,378.36L430.5,380.41L444.17,381.31L451,381.01L471.5,381.7L478.33,381.7L485.17,382.25L492,381.92L505.67,382.92L512.5,384.57L526.17,383.69L533,383.82L697,384.88L703.83,384.89L1018.17,384.98L1025,381.52" style="vector-effect: none; fill: none; stroke: rgb(241, 92, 128); stroke-opacity: 1; stroke-width: 2px; opacity: 1;"/></g><g class="points"/><g class="text"/></g><g class="trace scatter trace4338dd" style="stroke-miterlimit: 2; opacity: 1;"><g class="fills"/><g class="errorbars"/><g class="lines"><path class="js-line" d="M0,385L61.5,384.65L68.33,383.7L75.17,379.67L82,361.08L95.67,358.71L102.5,359.05L109.33,358.08L116.17,360.97L123,360.34L129.83,357.28L136.67,356.95L143.5,354.77L150.33,350.62L157.17,354.25L164,353.68L170.83,355.54L177.67,353.03L184.5,354.55L191.33,353.99L198.17,357.35L205,354.33L211.83,355.42L218.67,351.24L225.5,349.83L232.33,357.53L239.17,355.72L246,360.99L252.83,358.63L259.67,359.46L266.5,363L273.33,358.95L280.17,361.7L287,361.35L293.83,364.07L300.67,347.92L307.5,377.24L314.33,360.84L321.17,244.59L328,364.67L334.83,381.67L341.67,349.09L348.5,372.79L355.33,381.48L362.17,364.59L369,362.6L375.83,380.85L389.5,382.18L396.33,374.67L403.17,384.35L410,382.98L416.83,376.42L423.67,383.67L430.5,383.79L437.33,380.18L444.17,379.15L451,384.54L457.83,382.34L464.67,381.03L471.5,379.65L478.33,384.65L485.17,384.73L492,383.62L498.83,381.1L505.67,381.44L539.83,382.33L546.67,382.56L567.17,383.21L574,382.9L628.67,383.99L635.5,384.12L833.67,384.84L840.5,384.26L854.17,384.89L861,384.91L902,384.8L908.83,369.77L915.67,383.86L922.5,384.83L956.67,384.79L963.5,384.42L977.17,384.88L984,384.85L1011.33,384.58L1018.17,380.42L1025,118.09" style="vector-effect: none; fill: none; stroke: rgb(228, 211, 84); stroke-opacity: 1; stroke-width: 2px; opacity: 1;"/></g><g class="points"/><g class="text"/></g><g class="trace scatter traceb42d63" style="stroke-miterlimit: 2; opacity: 1;"><g class="fills"/><g class="errorbars"/><g class="lines"><path class="js-line" d="M0,385L61.5,384.64L68.33,383.72L75.17,379.73L82,359.38L88.83,358.43L95.67,359.89L102.5,358.23L109.33,358.05L116.17,362.92L123,357.64L129.83,354.39L136.67,361.83L143.5,354.22L150.33,351.26L157.17,352.73L164,349.87L170.83,357.24L177.67,355.57L184.5,354.55L191.33,354.45L198.17,358.02L205,353.41L211.83,356.2L218.67,350.46L225.5,350.73L232.33,354.85L239.17,357.96L246,359.67L252.83,360.36L259.67,358.02L266.5,365.32L273.33,359.38L280.17,362.82L287,362.66L300.67,365.35L307.5,361.9L314.33,365.21L321.17,366.82L328,361.06L334.83,365.33L348.5,363.32L355.33,366.22L362.17,365.91L369,369.78L375.83,369.92L382.67,368.78L389.5,372.2L396.33,374.13L403.17,372.37L410,374.25L416.83,377L423.67,373.43L430.5,376.81L437.33,378.12L444.17,378.62L451,377.46L457.83,378.17L464.67,377.8L478.33,376.49L485.17,378.69L498.83,378.7L505.67,381L512.5,384.05L519.33,382.57L533,382.32L539.83,382.47L601.33,383.77L608.17,383.7L662.83,384.2L669.67,384.2L717.5,384.58L724.33,384.58L833.67,384.85L840.5,384.25L854.17,384.89L861,384.91L902,384.8L908.83,370.09L915.67,383.87L922.5,384.83L956.67,384.79L963.5,384.42L977.17,384.88L984,384.85L1018.17,384.75L1025,312.84" style="vector-effect: none; fill: none; stroke: rgb(43, 144, 143); stroke-opacity: 1; stroke-width: 2px; opacity: 1;"/></g><g class="points"/><g class="text"/></g><g class="trace scatter traceb2753b" style="stroke-miterlimit: 2; opacity: 1;"><g class="fills"/><g class="errorbars"/><g class="lines"><path class="js-line" d="M0,385L61.5,384.63L68.33,383.58L75.17,379.31L82,362.26L95.67,360.34L102.5,360.76L109.33,360.22L116.17,361.88L123,362.45L129.83,360.89L143.5,359.85L150.33,357.75L157.17,359.44L164,359.13L170.83,359.72L177.67,357.85L184.5,359.32L191.33,359.28L198.17,361.35L205,362.26L211.83,359.74L218.67,362.84L225.5,357.99L232.33,365.08L239.17,362.25L246,364.11L252.83,364.71L259.67,364L266.5,365.53L273.33,365.99L280.17,366.46L287,365.87L293.83,369.38L300.67,359.51L307.5,378.22L314.33,370.3L321.17,370.46L328,368.87L334.83,371.14L341.67,369.62L348.5,370.33L355.33,371.87L369,372.62L375.83,375.05L382.67,375.13L389.5,374.24L396.33,376.52L403.17,377.39L410,378.91L416.83,377.3L423.67,378.66L430.5,378.92L437.33,380.09L444.17,377.3L451,378.87L457.83,377L464.67,379.84L471.5,380.54L478.33,384.61L485.17,384.18L498.83,381.98L505.67,382.46L553.5,383.78L560.33,383.92L717.5,384.8L724.33,384.83L1011.33,384.82L1018.17,383.86L1025,307.75" style="vector-effect: none; fill: none; stroke: rgb(244, 91, 91); stroke-opacity: 1; stroke-width: 2px; opacity: 1;"/></g><g class="points"/><g class="text"/></g><g class="trace scatter trace751dcf" style="stroke-miterlimit: 2; opacity: 1;"><g class="fills"/><g class="errorbars"/><g class="lines"><path class="js-line" d="M0,385L61.5,384.63L68.33,383.63L75.17,379.35L82,361.19L88.83,359.54L95.67,362L102.5,360.6L109.33,357.69L116.17,366.62L123,358.13L129.83,359.14L136.67,366.14L143.5,359.67L150.33,358.5L164,353.02L170.83,361.73L177.67,364.98L184.5,358.23L191.33,361.2L198.17,361.04L205,362.88L211.83,361.81L225.5,359.46L232.33,364.41L239.17,362.61L246,364.03L259.67,362.49L266.5,369.93L273.33,365.11L280.17,367.12L287,367.34L293.83,368.77L300.67,369.49L307.5,367.37L314.33,370.44L321.17,371.26L328,368.6L334.83,371.09L341.67,370.22L348.5,370.28L355.33,371.92L362.17,371.8L369,374.21L375.83,374.33L382.67,374.19L389.5,376.39L396.33,377.27L403.17,376.45L410,377.18L416.83,379.05L423.67,377.25L430.5,379.16L444.17,380.56L451,379.97L464.67,380.44L471.5,380.12L478.33,379.79L485.17,381.03L498.83,381.1L505.67,382.36L512.5,384.46L519.33,383.48L539.83,383.46L546.67,383.61L580.83,384.04L587.67,384.01L621.83,384.43L628.67,384.5L731.17,384.82L738,384.84L1018.17,384.92L1025,367.28" style="vector-effect: none; fill: none; stroke: rgb(145, 232, 225); stroke-opacity: 1; stroke-width: 2px; opacity: 1;"/></g><g class="points"/><g class="text"/></g></g></g></g><path class="xlines-above crisp" d="M0,0" style="fill: none;"/><path class="ylines-above crisp" d="M0,0" style="fill: none;"/><g class="overlines-above"/><g class="xaxislayer-above"><g class="xtick"><text text-anchor="middle" x="0" y="451" transform="translate(189.83,0)" style="font-family: 'Lucida Grande', 'Open Sans', verdana, arial, sans-serif; font-size: 10px; fill: rgb(0, 0, 0); fill-opacity: 1; white-space: pre; opacity: 1;">20 bp</text></g><g class="xtick"><text text-anchor="middle" x="0" y="451" style="font-family: 'Lucida Grande', 'Open Sans', verdana, arial, sans-serif; font-size: 10px; fill: rgb(0, 0, 0); fill-opacity: 1; white-space: pre; opacity: 1;" transform="translate(326.5,0)">40 bp</text></g><g class="xtick"><text text-anchor="middle" x="0" y="451" style="font-family: 'Lucida Grande', 'Open Sans', verdana, arial, sans-serif; font-size: 10px; fill: rgb(0, 0, 0); fill-opacity: 1; white-space: pre; opacity: 1;" transform="translate(463.17,0)">60 bp</text></g><g class="xtick"><text text-anchor="middle" x="0" y="451" style="font-family: 'Lucida Grande', 'Open Sans', verdana, arial, sans-serif; font-size: 10px; fill: rgb(0, 0, 0); fill-opacity: 1; white-space: pre; opacity: 1;" transform="translate(599.83,0)">80 bp</text></g><g class="xtick"><text text-anchor="middle" x="0" y="451" style="font-family: 'Lucida Grande', 'Open Sans', verdana, arial, sans-serif; font-size: 10px; fill: rgb(0, 0, 0); fill-opacity: 1; white-space: pre; opacity: 1;" transform="translate(736.5,0)">100 bp</text></g><g class="xtick"><text text-anchor="middle" x="0" y="451" style="font-family: 'Lucida Grande', 'Open Sans', verdana, arial, sans-serif; font-size: 10px; fill: rgb(0, 0, 0); fill-opacity: 1; white-space: pre; opacity: 1;" transform="translate(873.17,0)">120 bp</text></g><g class="xtick"><text text-anchor="middle" x="0" y="451" style="font-family: 'Lucida Grande', 'Open Sans', verdana, arial, sans-serif; font-size: 10px; fill: rgb(0, 0, 0); fill-opacity: 1; white-space: pre; opacity: 1;" transform="translate(1009.83,0)">140 bp</text></g></g><g class="yaxislayer-above"><g class="ytick"><text text-anchor="end" x="54" y="3.5" transform="translate(0,435)" style="font-family: 'Lucida Grande', 'Open Sans', verdana, arial, sans-serif; font-size: 10px; fill: rgb(0, 0, 0); fill-opacity: 1; white-space: pre; opacity: 1;">0</text></g><g class="ytick"><text text-anchor="end" x="54" y="3.5" style="font-family: 'Lucida Grande', 'Open Sans', verdana, arial, sans-serif; font-size: 10px; fill: rgb(0, 0, 0); fill-opacity: 1; white-space: pre; opacity: 1;" transform="translate(0,383.79)">1M</text></g><g class="ytick"><text text-anchor="end" x="54" y="3.5" style="font-family: 'Lucida Grande', 'Open Sans', verdana, arial, sans-serif; font-size: 10px; fill: rgb(0, 0, 0); fill-opacity: 1; white-space: pre; opacity: 1;" transform="translate(0,332.59)">2M</text></g><g class="ytick"><text text-anchor="end" x="54" y="3.5" style="font-family: 'Lucida Grande', 'Open Sans', verdana, arial, sans-serif; font-size: 10px; fill: rgb(0, 0, 0); fill-opacity: 1; white-space: pre; opacity: 1;" transform="translate(0,281.38)">3M</text></g><g class="ytick"><text text-anchor="end" x="54" y="3.5" style="font-family: 'Lucida Grande', 'Open Sans', verdana, arial, sans-serif; font-size: 10px; fill: rgb(0, 0, 0); fill-opacity: 1; white-space: pre; opacity: 1;" transform="translate(0,230.17)">4M</text></g><g class="ytick"><text text-anchor="end" x="54" y="3.5" style="font-family: 'Lucida Grande', 'Open Sans', verdana, arial, sans-serif; font-size: 10px; fill: rgb(0, 0, 0); fill-opacity: 1; white-space: pre; opacity: 1;" transform="translate(0,178.97)">5M</text></g><g class="ytick"><text text-anchor="end" x="54" y="3.5" style="font-family: 'Lucida Grande', 'Open Sans', verdana, arial, sans-serif; font-size: 10px; fill: rgb(0, 0, 0); fill-opacity: 1; white-space: pre; opacity: 1;" transform="translate(0,127.76)">6M</text></g><g class="ytick"><text text-anchor="end" x="54" y="3.5" style="font-family: 'Lucida Grande', 'Open Sans', verdana, arial, sans-serif; font-size: 10px; fill: rgb(0, 0, 0); fill-opacity: 1; white-space: pre; opacity: 1;" transform="translate(0,76.56)">7M</text></g></g><g class="overaxes-above"/></g></g><g class="polarlayer"/><g class="smithlayer"/><g class="ternarylayer"/><g class="geolayer"/><g class="funnelarealayer"/><g class="pielayer"/><g class="iciclelayer"/><g class="treemaplayer"/><g class="sunburstlayer"/><g class="glimages"/><defs id="topdefs-409e2d"><g class="clips"/></defs><g class="layer-above"><g class="imagelayer"/><g class="shapelayer"/></g><g class="infolayer"><g class="g-gtitle"><text class="gtitle" x="550" y="25" text-anchor="middle" dy="0em" style="opacity: 1; font-family: 'Lucida Grande', 'Open Sans', verdana, arial, sans-serif; font-size: 20px; fill: rgb(42, 63, 95); fill-opacity: 1; white-space: pre;"><tspan class="line" dy="0em" x="550" y="25">Cutadapt: Lengths of Trimmed Sequences (3' end)</tspan><tspan class="line" dy="1.3em" x="550" y="25"><tspan style="font-size:70%" dy="-0.6em">Obs/Exp, 50 samples</tspan><tspan dy="0.42em"></tspan></tspan></text></g><g class="g-xtitle"><text class="xtitle" x="572.5" y="472.3" text-anchor="middle" style="opacity: 0.3; font-family: 'Lucida Grande', 'Open Sans', verdana, arial, sans-serif; font-size: 14px; fill: rgb(0, 0, 0); fill-opacity: 1; white-space: pre;">Length Trimmed (bp)</text></g><g class="g-ytitle"><text class="ytitle" transform="rotate(-90,24.6,242.5)" x="24.6" y="242.5" text-anchor="middle" style="opacity: 0.3; font-family: 'Lucida Grande', 'Open Sans', verdana, arial, sans-serif; font-size: 14px; fill: rgb(0, 0, 0); fill-opacity: 1; white-space: pre;">Observed / Expected</text></g></g></svg>