<svg class="main-svg" xmlns="http://www.w3.org/2000/svg" xmlns:xlink="http://www.w3.org/1999/xlink" width="2200" height="1000" style="" viewBox="0 0 1100 500"><rect x="0" y="0" width="1100" height="500" style="fill: rgb(255, 255, 255); fill-opacity: 1;"/><defs id="defs-ac3179"><g class="clips"><clipPath id="clipac3179xyplot" class="plotclip"><rect width="1025" height="385"/></clipPath><clipPath class="axesclip" id="clipac3179x"><rect x="60" y="0" width="1025" height="500"/></clipPath><clipPath class="axesclip" id="clipac3179y"><rect x="0" y="50" width="1100" height="385"/></clipPath><clipPath class="axesclip" id="clipac3179xy"><rect x="60" y="50" width="1025" height="385"/></clipPath></g><g class="gradients"/><g class="patterns"/></defs><g class="bglayer"/><g class="layer-below"><g class="imagelayer"/><g class="shapelayer"><g class="shape-group" data-index="0" clip-path="url(#clipac3179y)"><path data-index="0" fill-rule="evenodd" d="M60,155.28H1085V-563.99H60Z" style="opacity: 1; stroke: rgb(0, 0, 0); stroke-opacity: 0; fill: rgb(195, 230, 195); fill-opacity: 1; stroke-width: 0px;"/></g><g class="shape-group" data-index="1" clip-path="url(#clipac3179y)"><path data-index="1" fill-rule="evenodd" d="M60,235.2H1085V155.28H60Z" style="opacity: 1; stroke: rgb(0, 0, 0); stroke-opacity: 0; fill: rgb(230, 220, 195); fill-opacity: 1; stroke-width: 0px;"/></g><g class="shape-group" data-index="2" clip-path="url(#clipac3179y)"><path data-index="2" fill-rule="evenodd" d="M60,435H1085V235.2H60Z" style="opacity: 1; stroke: rgb(0, 0, 0); stroke-opacity: 0; fill: rgb(230, 195, 195); fill-opacity: 1; stroke-width: 0px;"/></g><g class="shape-group" data-index="3" clip-path="url(#clipac3179y)"><path data-index="3" fill-rule="evenodd" d="M60,155.28H1085V-563.99H60Z" style="opacity: 1; stroke: rgb(0, 0, 0); stroke-opacity: 0; fill: rgb(195, 230, 195); fill-opacity: 1; stroke-width: 0px;"/></g><g class="shape-group" data-index="4" clip-path="url(#clipac3179y)"><path data-index="4" fill-rule="evenodd" d="M60,235.2H1085V155.28H60Z" style="opacity: 1; stroke: rgb(0, 0, 0); stroke-opacity: 0; fill: rgb(230, 220, 195); fill-opacity: 1; stroke-width: 0px;"/></g><g class="shape-group" data-index="5" clip-path="url(#clipac3179y)"><path data-index="5" fill-rule="evenodd" d="M60,435H1085V235.2H60Z" style="opacity: 1; stroke: rgb(0, 0, 0); stroke-opacity: 0; fill: rgb(230, 195, 195); fill-opacity: 1; stroke-width: 0px;"/></g></g></g><g class="cartesianlayer"><g class="subplot xy"><g class="layer-subplot"><g class="shapelayer"/><g class="imagelayer"/></g><g class="minor-gridlayer"><g class="x"/><g class="y"/></g><g class="gridlayer"><g class="x"><path class="xgrid crisp" transform="translate(196.67,0)" d="M0,50v385" style="stroke: rgb(0, 0, 0); stroke-opacity: 0.05; stroke-width: 1px;"/><path class="xgrid crisp" transform="translate(333.33,0)" d="M0,50v385" style="stroke: rgb(0, 0, 0); stroke-opacity: 0.05; stroke-width: 1px;"/><path class="xgrid crisp" transform="translate(470,0)" d="M0,50v385" style="stroke: rgb(0, 0, 0); stroke-opacity: 0.05; stroke-width: 1px;"/><path class="xgrid crisp" transform="translate(606.67,0)" d="M0,50v385" style="stroke: rgb(0, 0, 0); stroke-opacity: 0.05; stroke-width: 1px;"/><path class="xgrid crisp" transform="translate(743.33,0)" d="M0,50v385" style="stroke: rgb(0, 0, 0); stroke-opacity: 0.05; stroke-width: 1px;"/><path class="xgrid crisp" transform="translate(880,0)" d="M0,50v385" style="stroke: rgb(0, 0, 0); stroke-opacity: 0.05; stroke-width: 1px;"/><path class="xgrid crisp" transform="translate(1016.67,0)" d="M0,50v385" style="stroke: rgb(0, 0, 0); stroke-opacity: 0.05; stroke-width: 1px;"/></g><g class="y"><path class="ygrid crisp" transform="translate(0,385.05)" d="M60,0h1025" style="stroke: rgb(0, 0, 0); stroke-opacity: 0.05; stroke-width: 1px;"/><path class="ygrid crisp" transform="translate(0,335.1)" d="M60,0h1025" style="stroke: rgb(0, 0, 0); stroke-opacity: 0.05; stroke-width: 1px;"/><path class="ygrid crisp" transform="translate(0,285.15)" d="M60,0h1025" style="stroke: rgb(0, 0, 0); stroke-opacity: 0.05; stroke-width: 1px;"/><path class="ygrid crisp" transform="translate(0,235.2)" d="M60,0h1025" style="stroke: rgb(0, 0, 0); stroke-opacity: 0.05; stroke-width: 1px;"/><path class="ygrid crisp" transform="translate(0,185.25)" d="M60,0h1025" style="stroke: rgb(0, 0, 0); stroke-opacity: 0.05; stroke-width: 1px;"/><path class="ygrid crisp" transform="translate(0,135.3)" d="M60,0h1025" style="stroke: rgb(0, 0, 0); stroke-opacity: 0.05; stroke-width: 1px;"/><path class="ygrid crisp" transform="translate(0,85.35)" d="M60,0h1025" style="stroke: rgb(0, 0, 0); stroke-opacity: 0.05; stroke-width: 1px;"/></g></g><g class="zerolinelayer"><path class="xzl zl crisp" transform="translate(60,0)" d="M0,50v385" style="stroke: rgb(0, 0, 0); stroke-opacity: 0.05; stroke-width: 2px;"/><path class="yzl zl crisp" transform="translate(0,435)" d="M60,0h1025" style="stroke: rgb(0, 0, 0); stroke-opacity: 0.05; stroke-width: 2px;"/></g><g class="layer-between"><g class="shapelayer"/><g class="imagelayer"/></g><path class="xlines-below"/><path class="ylines-below"/><g class="overlines-below"/><g class="xaxislayer-below"/><g class="yaxislayer-below"/><g class="overaxes-below"/><g class="overplot"><g class="xy" transform="translate(60,50)" clip-path="url(#clipac3179xyplot)"><g class="scatterlayer mlayer"><g class="trace scatter trace85684c" style="stroke-miterlimit: 2; opacity: 1;"><g class="fills"/><g class="errorbars"/><g class="lines"><path class="js-line" d="M6.83,21.19L20.5,19.41L27.33,19.2L47.83,19.46L54.67,18.92L68.33,18.59L102.5,18.53L307.5,20.3L341.67,19.9L580.83,21.23L615,21.15L922.5,23.61L956.67,25.26L990.83,24.45L1025,21.69" style="vector-effect: none; fill: none; stroke: rgb(92, 184, 92); stroke-opacity: 1; stroke-width: 2px; opacity: 1;"/></g><g class="points"/><g class="text"/></g><g class="trace scatter trace26aa99" style="stroke-miterlimit: 2; opacity: 1;"><g class="fills"/><g class="errorbars"/><g class="lines"><path class="js-line" d="M6.83,21.13L20.5,19.28L27.33,19.65L41,19.27L47.83,19.98L68.33,19.4L102.5,19.82L478.33,23.17L512.5,23.29L683.33,25.65L717.5,26.57L785.83,26.86L820,28.68L922.5,29.63L956.67,31.91L990.83,32.08L1025,27.75" style="vector-effect: none; fill: none; stroke: rgb(92, 184, 92); stroke-opacity: 1; stroke-width: 2px; opacity: 1;"/></g><g class="points"/><g class="text"/></g><g class="trace scatter traceeaab72" style="stroke-miterlimit: 2; opacity: 1;"><g class="fills"/><g class="errorbars"/><g class="lines"><path class="js-line" d="M6.83,21.06L20.5,19.24L27.33,18.97L47.83,19.21L54.67,18.75L68.33,18.43L102.5,18.33L239.17,19.59L273.33,20.62L375.83,19.71L410,19.94L820,21.16L854.17,21.71L922.5,21.93L956.67,24.75L990.83,22.89L1025,20.14" style="vector-effect: none; fill: none; stroke: rgb(92, 184, 92); stroke-opacity: 1; stroke-width: 2px; opacity: 1;"/></g><g class="points"/><g class="text"/></g><g class="trace scatter trace720159" style="stroke-miterlimit: 2; opacity: 1;"><g class="fills"/><g class="errorbars"/><g class="lines"><path class="js-line" d="M6.83,22.04L20.5,20.08L27.33,20.55L41,19.91L47.83,21.37L61.5,20.16L68.33,20.35L170.83,21.25L205,21.11L307.5,22.81L341.67,22.5L444.17,24.11L478.33,24.17L649.17,24.8L683.33,25.75L717.5,27.14L751.67,27.05L785.83,26.51L820,28.67L854.17,27.96L888.33,28.58L922.5,28.61L956.67,31.04L990.83,30.67L1025,26.95" style="vector-effect: none; fill: none; stroke: rgb(92, 184, 92); stroke-opacity: 1; stroke-width: 2px; opacity: 1;"/></g><g class="points"/><g class="text"/></g><g class="trace scatter traceaa86cb" style="stroke-miterlimit: 2; opacity: 1;"><g class="fills"/><g class="errorbars"/><g class="lines"><path class="js-line" d="M6.83,21.72L20.5,19.73L27.33,19.44L47.83,19.74L54.67,19.11L68.33,18.76L102.5,18.72L239.17,20.11L273.33,21.47L341.67,20.12L375.83,20.54L478.33,20.98L512.5,21.13L649.17,21.24L683.33,21.91L785.83,22.23L820,22.39L922.5,23.37L956.67,25.96L990.83,24.21L1025,21.05" style="vector-effect: none; fill: none; stroke: rgb(92, 184, 92); stroke-opacity: 1; stroke-width: 2px; opacity: 1;"/></g><g class="points"/><g class="text"/></g><g class="trace scatter trace14aba7" style="stroke-miterlimit: 2; opacity: 1;"><g class="fills"/><g class="errorbars"/><g class="lines"><path class="js-line" d="M6.83,20.29L20.5,19.15L27.33,19.55L41,19.09L47.83,20.07L68.33,19.41L102.5,19.79L170.83,20.3L205,20.18L307.5,21.7L341.67,21.52L478.33,23.14L512.5,23.06L615,23.61L649.17,23.87L717.5,25.87L751.67,25.84L785.83,25.57L820,27.43L854.17,27.11L888.33,27.63L922.5,27.8L956.67,29.93L990.83,29.83L1025,26.12" style="vector-effect: none; fill: none; stroke: rgb(92, 184, 92); stroke-opacity: 1; stroke-width: 2px; opacity: 1;"/></g><g class="points"/><g class="text"/></g><g class="trace scatter tracea78891" style="stroke-miterlimit: 2; opacity: 1;"><g class="fills"/><g class="errorbars"/><g class="lines"><path class="js-line" d="M6.83,21.2L27.33,19.42L34.17,19.57L41,19.25L47.83,19.76L61.5,18.86L68.33,18.87L205,19.37L239.17,19.79L341.67,20.23L375.83,20.41L444.17,21.24L478.33,21.13L820,23.37L854.17,23.83L956.67,25.87L990.83,25.52L1025,22.7" style="vector-effect: none; fill: none; stroke: rgb(92, 184, 92); stroke-opacity: 1; stroke-width: 2px; opacity: 1;"/></g><g class="points"/><g class="text"/></g><g class="trace scatter trace7ba71f" style="stroke-miterlimit: 2; opacity: 1;"><g class="fills"/><g class="errorbars"/><g class="lines"><path class="js-line" d="M6.83,20.8L20.5,19.24L27.33,19.61L68.33,19.4L102.5,19.8L546.67,23.98L580.83,24.22L683.33,25.9L717.5,26.68L785.83,26.99L820,28.66L854.17,28.66L888.33,29.66L922.5,29.55L956.67,31.76L990.83,32.25L1025,28.07" style="vector-effect: none; fill: none; stroke: rgb(92, 184, 92); stroke-opacity: 1; stroke-width: 2px; opacity: 1;"/></g><g class="points"/><g class="text"/></g><g class="trace scatter trace79bb27" style="stroke-miterlimit: 2; opacity: 1;"><g class="fills"/><g class="errorbars"/><g class="lines"><path class="js-line" d="M6.83,21.22L20.5,19.47L27.33,19.23L47.83,19.49L54.67,18.97L68.33,18.73L102.5,18.63L307.5,20.27L341.67,19.94L580.83,21.18L615,21.08L922.5,23.44L956.67,25.41L990.83,24.23L1025,21.61" style="vector-effect: none; fill: none; stroke: rgb(92, 184, 92); stroke-opacity: 1; stroke-width: 2px; opacity: 1;"/></g><g class="points"/><g class="text"/></g><g class="trace scatter traceb9c485" style="stroke-miterlimit: 2; opacity: 1;"><g class="fills"/><g class="errorbars"/><g class="lines"><path class="js-line" d="M6.83,20.58L20.5,19.01L27.33,19.45L41,19.07L47.83,19.81L68.33,19.14L102.5,19.48L307.5,21.24L341.67,21.17L512.5,22.55L546.67,22.73L683.33,24.53L717.5,25.44L785.83,25.42L820,27.25L854.17,26.92L888.33,27.74L922.5,27.71L956.67,29.94L990.83,30.1L1025,26.62" style="vector-effect: none; fill: none; stroke: rgb(92, 184, 92); stroke-opacity: 1; stroke-width: 2px; opacity: 1;"/></g><g class="points"/><g class="text"/></g><g class="trace scatter trace0cece3" style="stroke-miterlimit: 2; opacity: 1;"><g class="fills"/><g class="errorbars"/><g class="lines"><path class="js-line" d="M6.83,21.74L20.5,19.83L27.33,19.63L47.83,19.97L54.67,19.31L68.33,19.01L102.5,18.94L751.67,22.9L785.83,23.36L922.5,24.66L956.67,25.87L990.83,25.56L1025,22.67" style="vector-effect: none; fill: none; stroke: rgb(92, 184, 92); stroke-opacity: 1; stroke-width: 2px; opacity: 1;"/></g><g class="points"/><g class="text"/></g><g class="trace scatter tracec08466" style="stroke-miterlimit: 2; opacity: 1;"><g class="fills"/><g class="errorbars"/><g class="lines"><path class="js-line" d="M6.83,21.18L20.5,19.6L27.33,20L68.33,19.72L102.5,20.17L683.33,26.51L717.5,27.3L785.83,27.66L820,29.31L854.17,29.42L888.33,30.42L922.5,30.4L956.67,32.6L990.83,33.04L1025,28.43" style="vector-effect: none; fill: none; stroke: rgb(92, 184, 92); stroke-opacity: 1; stroke-width: 2px; opacity: 1;"/></g><g class="points"/><g class="text"/></g><g class="trace scatter tracef92c3b" style="stroke-miterlimit: 2; opacity: 1;"><g class="fills"/><g class="errorbars"/><g class="lines"><path class="js-line" d="M6.83,21.17L20.5,19.41L27.33,19.19L47.83,19.42L54.67,18.92L68.33,18.66L102.5,18.6L307.5,20.32L341.67,20.02L546.67,21.26L580.83,21.28L649.17,21.37L683.33,21.84L785.83,22.18L820,22.4L922.5,23.32L956.67,25.19L990.83,24.16L1025,21.63" style="vector-effect: none; fill: none; stroke: rgb(92, 184, 92); stroke-opacity: 1; stroke-width: 2px; opacity: 1;"/></g><g class="points"/><g class="text"/></g><g class="trace scatter trace0f62fb" style="stroke-miterlimit: 2; opacity: 1;"><g class="fills"/><g class="errorbars"/><g class="lines"><path class="js-line" d="M6.83,20.46L20.5,19.08L27.33,19.35L41,19.01L47.83,19.74L68.33,19.15L102.5,19.5L478.33,22.71L512.5,22.73L649.17,24.02L683.33,24.78L717.5,25.64L751.67,25.68L785.83,25.73L820,27.51L854.17,27.5L888.33,28.37L922.5,28.41L956.67,30.75L990.83,30.9L1025,27.17" style="vector-effect: none; fill: none; stroke: rgb(92, 184, 92); stroke-opacity: 1; stroke-width: 2px; opacity: 1;"/></g><g class="points"/><g class="text"/></g><g class="trace scatter trace9ed484" style="stroke-miterlimit: 2; opacity: 1;"><g class="fills"/><g class="errorbars"/><g class="lines"><path class="js-line" d="M6.83,21.32L20.5,19.6L27.33,19.46L54.67,19.05L61.5,18.78L444.17,21.01L478.33,21.04L580.83,21.9L615,21.97L854.17,24.07L888.33,24.88L990.83,25.66L1025,23.24" style="vector-effect: none; fill: none; stroke: rgb(92, 184, 92); stroke-opacity: 1; stroke-width: 2px; opacity: 1;"/></g><g class="points"/><g class="text"/></g><g class="trace scatter trace3cec6a" style="stroke-miterlimit: 2; opacity: 1;"><g class="fills"/><g class="errorbars"/><g class="lines"><path class="js-line" d="M6.83,20.82L20.5,19.59L27.33,20.09L68.33,19.7L102.5,20.11L615,25.8L649.17,26.77L785.83,28.5L820,30.08L854.17,30.41L888.33,31.56L922.5,31.57L956.67,33.89L990.83,34.65L1025,29.7" style="vector-effect: none; fill: none; stroke: rgb(92, 184, 92); stroke-opacity: 1; stroke-width: 2px; opacity: 1;"/></g><g class="points"/><g class="text"/></g><g class="trace scatter trace558b2f" style="stroke-miterlimit: 2; opacity: 1;"><g class="fills"/><g class="errorbars"/><g class="lines"><path class="js-line" d="M6.83,21.56L20.5,19.66L27.33,19.49L47.83,19.8L54.67,19.2L68.33,18.87L102.5,18.77L854.17,23.63L888.33,24.19L922.5,24.28L956.67,25.64L990.83,25.07L1025,22.34" style="vector-effect: none; fill: none; stroke: rgb(92, 184, 92); stroke-opacity: 1; stroke-width: 2px; opacity: 1;"/></g><g class="points"/><g class="text"/></g><g class="trace scatter tracedd3cd8" style="stroke-miterlimit: 2; opacity: 1;"><g class="fills"/><g class="errorbars"/><g class="lines"><path class="js-line" d="M6.83,21.18L20.5,19.64L27.33,20.04L68.33,19.68L102.5,20.12L512.5,24.03L546.67,24.3L649.17,25.79L683.33,26.42L717.5,27.32L751.67,27.29L785.83,27.54L820,29.21L854.17,29.24L888.33,30.23L922.5,30.23L956.67,32.44L990.83,32.84L1025,28.32" style="vector-effect: none; fill: none; stroke: rgb(92, 184, 92); stroke-opacity: 1; stroke-width: 2px; opacity: 1;"/></g><g class="points"/><g class="text"/></g><g class="trace scatter trace527a29" style="stroke-miterlimit: 2; opacity: 1;"><g class="fills"/><g class="errorbars"/><g class="lines"><path class="js-line" d="M6.83,21.28L20.5,19.48L27.33,19.23L47.83,19.47L54.67,19L68.33,18.67L102.5,18.64L444.17,21.16L478.33,21.12L717.5,22.1L751.67,22.32L922.5,23.83L956.67,25.49L990.83,24.6L1025,22.04" style="vector-effect: none; fill: none; stroke: rgb(92, 184, 92); stroke-opacity: 1; stroke-width: 2px; opacity: 1;"/></g><g class="points"/><g class="text"/></g><g class="trace scatter tracecd32e8" style="stroke-miterlimit: 2; opacity: 1;"><g class="fills"/><g class="errorbars"/><g class="lines"><path class="js-line" d="M6.83,21.53L13.67,20.05L20.5,19.45L34.17,19.66L41,19.49L47.83,20.22L54.67,19.79L68.33,19.6L102.5,19.98L478.33,23.29L512.5,23.35L649.17,24.73L683.33,25.36L751.67,26.2L785.83,26.32L820,28.21L854.17,28.02L888.33,29.03L922.5,29L956.67,31.45L990.83,31.68L1025,27.83" style="vector-effect: none; fill: none; stroke: rgb(92, 184, 92); stroke-opacity: 1; stroke-width: 2px; opacity: 1;"/></g><g class="points"/><g class="text"/></g><g class="trace scatter trace3bee55" style="stroke-miterlimit: 2; opacity: 1;"><g class="fills"/><g class="errorbars"/><g class="lines"><path class="js-line" d="M6.83,20.96L20.5,19.38L27.33,19.15L47.83,19.32L54.67,18.87L68.33,18.58L102.5,18.55L239.17,19.81L273.33,21.24L341.67,20.11L375.83,20.62L444.17,20.82L478.33,20.98L580.83,21.25L615,21.1L922.5,23.61L956.67,25.61L990.83,24.37L1025,21.71" style="vector-effect: none; fill: none; stroke: rgb(92, 184, 92); stroke-opacity: 1; stroke-width: 2px; opacity: 1;"/></g><g class="points"/><g class="text"/></g><g class="trace scatter trace601940" style="stroke-miterlimit: 2; opacity: 1;"><g class="fills"/><g class="errorbars"/><g class="lines"><path class="js-line" d="M6.83,20.84L20.5,19.36L27.33,19.67L41,19.32L47.83,20.09L61.5,19.28L68.33,19.44L478.33,23.04L512.5,23.04L649.17,24.29L683.33,25.06L717.5,25.98L751.67,25.96L785.83,25.97L820,27.8L854.17,27.64L888.33,28.51L922.5,28.45L956.67,30.9L990.83,31.08L1025,27.33" style="vector-effect: none; fill: none; stroke: rgb(92, 184, 92); stroke-opacity: 1; stroke-width: 2px; opacity: 1;"/></g><g class="points"/><g class="text"/></g><g class="trace scatter trace87b7ef" style="stroke-miterlimit: 2; opacity: 1;"><g class="fills"/><g class="errorbars"/><g class="lines"><path class="js-line" d="M6.83,21.09L27.33,19.23L34.17,19.36L68.33,18.72L102.5,18.69L512.5,21.34L546.67,21.44L683.33,22.1L717.5,22.26L922.5,24.09L956.67,25.52L990.83,24.67L1025,22.33" style="vector-effect: none; fill: none; stroke: rgb(92, 184, 92); stroke-opacity: 1; stroke-width: 2px; opacity: 1;"/></g><g class="points"/><g class="text"/></g><g class="trace scatter trace8421a4" style="stroke-miterlimit: 2; opacity: 1;"><g class="fills"/><g class="errorbars"/><g class="lines"><path class="js-line" d="M6.83,20.03L20.5,19.1L27.33,19.59L68.33,19.23L102.5,19.57L683.33,24.98L717.5,25.78L785.83,25.86L820,27.67L854.17,27.51L888.33,28.53L922.5,28.45L956.67,30.91L990.83,31.3L1025,27.8" style="vector-effect: none; fill: none; stroke: rgb(92, 184, 92); stroke-opacity: 1; stroke-width: 2px; opacity: 1;"/></g><g class="points"/><g class="text"/></g><g class="trace scatter tracede00aa" style="stroke-miterlimit: 2; opacity: 1;"><g class="fills"/><g class="errorbars"/><g class="lines"><path class="js-line" d="M6.83,21.18L20.5,19.47L27.33,19.26L47.83,19.47L54.67,18.96L68.33,18.7L102.5,18.66L307.5,20.17L341.67,20.02L785.83,22.53L820,22.82L922.5,23.9L956.67,25.39L990.83,24.6L1025,22.07" style="vector-effect: none; fill: none; stroke: rgb(92, 184, 92); stroke-opacity: 1; stroke-width: 2px; opacity: 1;"/></g><g class="points"/><g class="text"/></g><g class="trace scatter trace115e74" style="stroke-miterlimit: 2; opacity: 1;"><g class="fills"/><g class="errorbars"/><g class="lines"><path class="js-line" d="M6.83,21.4L13.67,20.09L20.5,19.56L34.17,19.91L41,19.72L47.83,20.35L54.67,19.92L68.33,19.77L102.5,20.16L478.33,23.91L512.5,23.99L649.17,25.75L683.33,26.46L717.5,27.35L751.67,27.31L785.83,27.6L820,29.43L854.17,29.45L888.33,30.5L922.5,30.52L956.67,32.89L990.83,33.3L1025,28.69" style="vector-effect: none; fill: none; stroke: rgb(92, 184, 92); stroke-opacity: 1; stroke-width: 2px; opacity: 1;"/></g><g class="points"/><g class="text"/></g><g class="trace scatter trace16b3ab" style="stroke-miterlimit: 2; opacity: 1;"><g class="fills"/><g class="errorbars"/><g class="lines"><path class="js-line" d="M6.83,21.18L20.5,19.34L27.33,19.11L47.83,19.46L54.67,18.97L68.33,18.68L102.5,18.58L239.17,19.71L273.33,20.86L341.67,19.85L375.83,20.21L478.33,20.73L512.5,20.85L649.17,21.05L683.33,21.5L820,22.23L854.17,22.73L922.5,23.2L956.67,25.39L990.83,24.11L1025,21.68" style="vector-effect: none; fill: none; stroke: rgb(92, 184, 92); stroke-opacity: 1; stroke-width: 2px; opacity: 1;"/></g><g class="points"/><g class="text"/></g><g class="trace scatter trace3d5fdc" style="stroke-miterlimit: 2; opacity: 1;"><g class="fills"/><g class="errorbars"/><g class="lines"><path class="js-line" d="M6.83,20.91L20.5,19.71L27.33,20.25L41,19.75L47.83,20.69L61.5,19.69L68.33,19.82L307.5,22.11L341.67,21.96L444.17,23.17L478.33,23.35L649.17,24.79L683.33,25.64L717.5,26.59L751.67,26.65L785.83,26.52L820,28.7L854.17,28.23L888.33,29.36L922.5,29.22L956.67,32.1L990.83,32.12L1025,28.26" style="vector-effect: none; fill: none; stroke: rgb(92, 184, 92); stroke-opacity: 1; stroke-width: 2px; opacity: 1;"/></g><g class="points"/><g class="text"/></g><g class="trace scatter trace0eb285" style="stroke-miterlimit: 2; opacity: 1;"><g class="fills"/><g class="errorbars"/><g class="lines"><path class="js-line" d="M6.83,21.56L20.5,19.61L27.33,19.42L47.83,19.76L54.67,19.11L68.33,18.79L102.5,18.71L854.17,23.66L888.33,24.22L922.5,24.31L956.67,25.7L990.83,25.19L1025,22.25" style="vector-effect: none; fill: none; stroke: rgb(92, 184, 92); stroke-opacity: 1; stroke-width: 2px; opacity: 1;"/></g><g class="points"/><g class="text"/></g><g class="trace scatter traceefb22a" style="stroke-miterlimit: 2; opacity: 1;"><g class="fills"/><g class="errorbars"/><g class="lines"><path class="js-line" d="M6.83,21.55L20.5,19.72L27.33,20.1L41,19.8L47.83,20.51L68.33,19.91L102.5,20.44L444.17,24.07L478.33,24.38L580.83,25.15L615,25.57L751.67,27.88L785.83,28.13L820,29.79L854.17,29.9L888.33,30.87L922.5,30.93L956.67,33.08L990.83,33.47L1025,28.53" style="vector-effect: none; fill: none; stroke: rgb(92, 184, 92); stroke-opacity: 1; stroke-width: 2px; opacity: 1;"/></g><g class="points"/><g class="text"/></g><g class="trace scatter traced0a71f" style="stroke-miterlimit: 2; opacity: 1;"><g class="fills"/><g class="errorbars"/><g class="lines"><path class="js-line" d="M6.83,21.02L20.5,19.35L27.33,19.1L47.83,19.37L54.67,18.87L68.33,18.48L102.5,18.49L239.17,19.6L273.33,20.81L341.67,19.69L375.83,20.39L410,21.08L444.17,20.97L649.17,20.66L683.33,21.21L820,21.61L854.17,22.14L922.5,22.62L956.67,24.78L990.83,23.43L1025,20.74" style="vector-effect: none; fill: none; stroke: rgb(92, 184, 92); stroke-opacity: 1; stroke-width: 2px; opacity: 1;"/></g><g class="points"/><g class="text"/></g><g class="trace scatter trace573fd2" style="stroke-miterlimit: 2; opacity: 1;"><g class="fills"/><g class="errorbars"/><g class="lines"><path class="js-line" d="M6.83,21.06L20.5,19.28L27.33,19.47L41,19.02L47.83,20.08L68.33,19.38L102.5,19.74L307.5,21.59L341.67,21.41L512.5,22.88L546.67,22.91L649.17,23.79L683.33,24.53L717.5,25.59L751.67,25.77L785.83,25.59L820,27.42L922.5,27.94L956.67,30.16L990.83,30.13L1025,26.47" style="vector-effect: none; fill: none; stroke: rgb(92, 184, 92); stroke-opacity: 1; stroke-width: 2px; opacity: 1;"/></g><g class="points"/><g class="text"/></g><g class="trace scatter trace760f1f" style="stroke-miterlimit: 2; opacity: 1;"><g class="fills"/><g class="errorbars"/><g class="lines"><path class="js-line" d="M6.83,21.18L20.5,19.51L27.33,19.32L47.83,19.6L54.67,19.05L68.33,18.75L102.5,18.65L854.17,23.18L888.33,23.54L922.5,23.65L956.67,25.42L990.83,24.56L1025,21.61" style="vector-effect: none; fill: none; stroke: rgb(92, 184, 92); stroke-opacity: 1; stroke-width: 2px; opacity: 1;"/></g><g class="points"/><g class="text"/></g><g class="trace scatter trace00f322" style="stroke-miterlimit: 2; opacity: 1;"><g class="fills"/><g class="errorbars"/><g class="lines"><path class="js-line" d="M6.83,20.06L27.33,19.54L34.17,19.4L41,19.19L47.83,19.9L61.5,19.13L68.33,19.29L478.33,23.09L512.5,23.13L615,23.91L649.17,24.43L751.67,26.08L785.83,26.08L820,27.75L854.17,27.78L922.5,28.52L956.67,30.58L990.83,30.74L1025,26.81" style="vector-effect: none; fill: none; stroke: rgb(92, 184, 92); stroke-opacity: 1; stroke-width: 2px; opacity: 1;"/></g><g class="points"/><g class="text"/></g><g class="trace scatter trace64c354" style="stroke-miterlimit: 2; opacity: 1;"><g class="fills"/><g class="errorbars"/><g class="lines"><path class="js-line" d="M6.83,21.14L20.5,19.5L27.33,19.3L47.83,19.64L54.67,19.05L68.33,18.76L102.5,18.68L854.17,23.67L888.33,24.24L922.5,24.38L956.67,25.58L990.83,25.15L1025,22.43" style="vector-effect: none; fill: none; stroke: rgb(92, 184, 92); stroke-opacity: 1; stroke-width: 2px; opacity: 1;"/></g><g class="points"/><g class="text"/></g><g class="trace scatter trace417fa8" style="stroke-miterlimit: 2; opacity: 1;"><g class="fills"/><g class="errorbars"/><g class="lines"><path class="js-line" d="M6.83,20.77L20.5,19.42L27.33,19.81L41,19.46L47.83,20.07L68.33,19.48L102.5,19.89L683.33,26.1L717.5,26.97L785.83,27.27L820,29.02L854.17,29.08L888.33,30.04L922.5,29.98L956.67,32.23L990.83,32.6L1025,28.13" style="vector-effect: none; fill: none; stroke: rgb(92, 184, 92); stroke-opacity: 1; stroke-width: 2px; opacity: 1;"/></g><g class="points"/><g class="text"/></g><g class="trace scatter tracec36fc0" style="stroke-miterlimit: 2; opacity: 1;"><g class="fills"/><g class="errorbars"/><g class="lines"><path class="js-line" d="M6.83,21.23L20.5,19.54L27.33,19.31L47.83,19.64L54.67,19.14L68.33,18.81L102.5,18.75L615,21.39L649.17,21.57L751.67,22.39L785.83,22.78L922.5,24.07L956.67,25.31L990.83,24.8L1025,22.42" style="vector-effect: none; fill: none; stroke: rgb(92, 184, 92); stroke-opacity: 1; stroke-width: 2px; opacity: 1;"/></g><g class="points"/><g class="text"/></g><g class="trace scatter trace373d0c" style="stroke-miterlimit: 2; opacity: 1;"><g class="fills"/><g class="errorbars"/><g class="lines"><path class="js-line" d="M6.83,21.33L20.5,19.72L27.33,20.13L41,19.71L47.83,20.33L68.33,19.62L102.5,20.04L649.17,25.38L683.33,26.06L717.5,26.93L751.67,26.89L785.83,27.19L820,29L854.17,28.97L888.33,30.1L922.5,30L956.67,32.49L990.83,32.93L1025,28.81" style="vector-effect: none; fill: none; stroke: rgb(92, 184, 92); stroke-opacity: 1; stroke-width: 2px; opacity: 1;"/></g><g class="points"/><g class="text"/></g><g class="trace scatter trace961269" style="stroke-miterlimit: 2; opacity: 1;"><g class="fills"/><g class="errorbars"/><g class="lines"><path class="js-line" d="M6.83,20.93L20.5,19.24L27.33,19.01L47.83,19.23L54.67,18.76L68.33,18.5L102.5,18.44L307.5,20.03L341.67,19.82L512.5,20.91L546.67,21.01L751.67,22.07L785.83,22.41L922.5,23.77L956.67,25.33L990.83,24.47L1025,21.91" style="vector-effect: none; fill: none; stroke: rgb(92, 184, 92); stroke-opacity: 1; stroke-width: 2px; opacity: 1;"/></g><g class="points"/><g class="text"/></g><g class="trace scatter trace8a1d34" style="stroke-miterlimit: 2; opacity: 1;"><g class="fills"/><g class="errorbars"/><g class="lines"><path class="js-line" d="M6.83,22.09L13.67,20.16L20.5,19.72L34.17,19.73L41,19.51L47.83,20.31L54.67,19.81L68.33,19.56L102.5,19.95L444.17,23.17L478.33,23.47L580.83,23.97L615,24.31L751.67,26.44L785.83,26.55L820,28.37L854.17,28.24L888.33,29.22L922.5,29.23L956.67,31.65L990.83,31.95L1025,27.97" style="vector-effect: none; fill: none; stroke: rgb(92, 184, 92); stroke-opacity: 1; stroke-width: 2px; opacity: 1;"/></g><g class="points"/><g class="text"/></g><g class="trace scatter trace0e879a" style="stroke-miterlimit: 2; opacity: 1;"><g class="fills"/><g class="errorbars"/><g class="lines"><path class="js-line" d="M6.83,21.31L20.5,19.55L27.33,19.28L47.83,19.64L54.67,19.06L68.33,18.83L102.5,18.69L580.83,21.24L615,21.09L922.5,23.39L956.67,25.2L990.83,24.29L1025,21.76" style="vector-effect: none; fill: none; stroke: rgb(92, 184, 92); stroke-opacity: 1; stroke-width: 2px; opacity: 1;"/></g><g class="points"/><g class="text"/></g><g class="trace scatter trace4d5245" style="stroke-miterlimit: 2; opacity: 1;"><g class="fills"/><g class="errorbars"/><g class="lines"><path class="js-line" d="M6.83,20.97L20.5,19.55L27.33,19.99L41,19.61L47.83,20.38L68.33,19.67L102.5,20.05L478.33,23.21L512.5,23.28L649.17,24.75L683.33,25.54L717.5,26.42L751.67,26.39L785.83,26.38L820,28.42L854.17,27.96L888.33,28.78L922.5,28.61L956.67,30.99L990.83,31.08L1025,27.1" style="vector-effect: none; fill: none; stroke: rgb(92, 184, 92); stroke-opacity: 1; stroke-width: 2px; opacity: 1;"/></g><g class="points"/><g class="text"/></g><g class="trace scatter trace0634ed" style="stroke-miterlimit: 2; opacity: 1;"><g class="fills"/><g class="errorbars"/><g class="lines"><path class="js-line" d="M6.83,20.97L20.5,19.36L27.33,19.1L47.83,19.4L54.67,18.85L68.33,18.56L102.5,18.5L375.83,20.45L410,20.92L751.67,23.11L785.83,23.43L854.17,24.06L888.33,24.15L922.5,24.4L956.67,26.21L990.83,25.43L1025,21.92" style="vector-effect: none; fill: none; stroke: rgb(92, 184, 92); stroke-opacity: 1; stroke-width: 2px; opacity: 1;"/></g><g class="points"/><g class="text"/></g><g class="trace scatter tracef23b76" style="stroke-miterlimit: 2; opacity: 1;"><g class="fills"/><g class="errorbars"/><g class="lines"><path class="js-line" d="M6.83,20.91L20.5,19.08L27.33,19.45L41,19.05L47.83,19.83L68.33,19.25L102.5,19.61L307.5,21.55L341.67,21.43L546.67,23.01L580.83,23.2L683.33,24.67L717.5,25.61L785.83,25.53L820,27.27L854.17,27.11L888.33,27.87L922.5,27.85L956.67,30.1L990.83,30.22L1025,26.81" style="vector-effect: none; fill: none; stroke: rgb(92, 184, 92); stroke-opacity: 1; stroke-width: 2px; opacity: 1;"/></g><g class="points"/><g class="text"/></g><g class="trace scatter trace308628" style="stroke-miterlimit: 2; opacity: 1;"><g class="fills"/><g class="errorbars"/><g class="lines"><path class="js-line" d="M6.83,21.17L20.5,19.52L27.33,19.31L54.67,18.98L61.5,18.76L375.83,20.39L410,20.9L649.17,22.13L683.33,22.51L854.17,24.03L888.33,24.85L922.5,24.87L956.67,25.71L990.83,25.59L1025,23.15" style="vector-effect: none; fill: none; stroke: rgb(92, 184, 92); stroke-opacity: 1; stroke-width: 2px; opacity: 1;"/></g><g class="points"/><g class="text"/></g><g class="trace scatter tracea4d479" style="stroke-miterlimit: 2; opacity: 1;"><g class="fills"/><g class="errorbars"/><g class="lines"><path class="js-line" d="M6.83,20.68L20.5,19.39L27.33,19.84L68.33,19.52L102.5,19.89L649.17,26.04L683.33,26.55L717.5,27.27L751.67,27.22L785.83,27.65L820,29.33L854.17,29.51L888.33,30.68L922.5,30.67L956.67,33.07L990.83,33.79L1025,29.21" style="vector-effect: none; fill: none; stroke: rgb(92, 184, 92); stroke-opacity: 1; stroke-width: 2px; opacity: 1;"/></g><g class="points"/><g class="text"/></g><g class="trace scatter trace42e8ff" style="stroke-miterlimit: 2; opacity: 1;"><g class="fills"/><g class="errorbars"/><g class="lines"><path class="js-line" d="M6.83,21.42L20.5,19.55L27.33,19.24L47.83,19.56L54.67,19.13L68.33,18.8L102.5,18.76L239.17,19.9L273.33,20.8L649.17,21.7L683.33,22.2L820,23.05L854.17,23.87L922.5,24.11L956.67,25.96L990.83,25.36L1025,22.23" style="vector-effect: none; fill: none; stroke: rgb(92, 184, 92); stroke-opacity: 1; stroke-width: 2px; opacity: 1;"/></g><g class="points"/><g class="text"/></g><g class="trace scatter trace602f99" style="stroke-miterlimit: 2; opacity: 1;"><g class="fills"/><g class="errorbars"/><g class="lines"><path class="js-line" d="M6.83,20.47L20.5,19.45L27.33,19.88L41,19.55L47.83,20.3L68.33,19.61L102.5,19.95L375.83,22.17L410,22.43L546.67,23.38L580.83,23.66L683.33,25.22L717.5,26.05L785.83,26.03L820,28.01L854.17,27.74L888.33,28.83L922.5,28.72L956.67,31.33L990.83,31.54L1025,27.7" style="vector-effect: none; fill: none; stroke: rgb(92, 184, 92); stroke-opacity: 1; stroke-width: 2px; opacity: 1;"/></g><g class="points"/><g class="text"/></g><g class="trace scatter trace71ca3a" style="stroke-miterlimit: 2; opacity: 1;"><g class="fills"/><g class="errorbars"/><g class="lines"><path class="js-line" d="M6.83,21.21L20.5,19.5L27.33,19.32L47.83,19.67L54.67,19.05L68.33,18.73L102.5,18.64L307.5,20.24L341.67,20.07L546.67,21.29L580.83,21.47L649.17,21.63L683.33,22.31L820,23.08L854.17,23.55L922.5,24.12L956.67,25.62L990.83,25.09L1025,22.06" style="vector-effect: none; fill: none; stroke: rgb(92, 184, 92); stroke-opacity: 1; stroke-width: 2px; opacity: 1;"/></g><g class="points"/><g class="text"/></g><g class="trace scatter traceeda297" style="stroke-miterlimit: 2; opacity: 1;"><g class="fills"/><g class="errorbars"/><g class="lines"><path class="js-line" d="M6.83,21.2L13.67,19.86L20.5,19.38L34.17,19.54L41,19.32L47.83,19.96L54.67,19.59L68.33,19.46L102.5,19.88L341.67,21.99L375.83,22.32L683.33,25.77L717.5,26.7L785.83,26.94L820,28.58L854.17,28.68L888.33,29.54L922.5,29.58L956.67,31.73L990.83,32L1025,27.85" style="vector-effect: none; fill: none; stroke: rgb(92, 184, 92); stroke-opacity: 1; stroke-width: 2px; opacity: 1;"/></g><g class="points"/><g class="text"/></g></g></g></g><path class="xlines-above crisp" d="M0,0" style="fill: none;"/><path class="ylines-above crisp" d="M0,0" style="fill: none;"/><g class="overlines-above"/><g class="xaxislayer-above"><g class="xtick"><text text-anchor="middle" x="0" y="451" transform="translate(60,0)" style="font-family: 'Lucida Grande', 'Open Sans', verdana, arial, sans-serif; font-size: 10px; fill: rgb(0, 0, 0); fill-opacity: 1; white-space: pre; opacity: 1;">0 bp</text></g><g class="xtick"><text text-anchor="middle" x="0" y="451" style="font-family: 'Lucida Grande', 'Open Sans', verdana, arial, sans-serif; font-size: 10px; fill: rgb(0, 0, 0); fill-opacity: 1; white-space: pre; opacity: 1;" transform="translate(196.67,0)">20 bp</text></g><g class="xtick"><text text-anchor="middle" x="0" y="451" style="font-family: 'Lucida Grande', 'Open Sans', verdana, arial, sans-serif; font-size: 10px; fill: rgb(0, 0, 0); fill-opacity: 1; white-space: pre; opacity: 1;" transform="translate(333.33,0)">40 bp</text></g><g class="xtick"><text text-anchor="middle" x="0" y="451" style="font-family: 'Lucida Grande', 'Open Sans', verdana, arial, sans-serif; font-size: 10px; fill: rgb(0, 0, 0); fill-opacity: 1; white-space: pre; opacity: 1;" transform="translate(470,0)">60 bp</text></g><g class="xtick"><text text-anchor="middle" x="0" y="451" style="font-family: 'Lucida Grande', 'Open Sans', verdana, arial, sans-serif; font-size: 10px; fill: rgb(0, 0, 0); fill-opacity: 1; white-space: pre; opacity: 1;" transform="translate(606.67,0)">80 bp</text></g><g class="xtick"><text text-anchor="middle" x="0" y="451" style="font-family: 'Lucida Grande', 'Open Sans', verdana, arial, sans-serif; font-size: 10px; fill: rgb(0, 0, 0); fill-opacity: 1; white-space: pre; opacity: 1;" transform="translate(743.33,0)">100 bp</text></g><g class="xtick"><text text-anchor="middle" x="0" y="451" style="font-family: 'Lucida Grande', 'Open Sans', verdana, arial, sans-serif; font-size: 10px; fill: rgb(0, 0, 0); fill-opacity: 1; white-space: pre; opacity: 1;" transform="translate(880,0)">120 bp</text></g><g class="xtick"><text text-anchor="middle" x="0" y="451" style="font-family: 'Lucida Grande', 'Open Sans', verdana, arial, sans-serif; font-size: 10px; fill: rgb(0, 0, 0); fill-opacity: 1; white-space: pre; opacity: 1;" transform="translate(1016.67,0)">140 bp</text></g></g><g class="yaxislayer-above"><g class="ytick"><text text-anchor="end" x="54" y="3.5" transform="translate(0,435)" style="font-family: 'Lucida Grande', 'Open Sans', verdana, arial, sans-serif; font-size: 10px; fill: rgb(0, 0, 0); fill-opacity: 1; white-space: pre; opacity: 1;">0</text></g><g class="ytick"><text text-anchor="end" x="54" y="3.5" style="font-family: 'Lucida Grande', 'Open Sans', verdana, arial, sans-serif; font-size: 10px; fill: rgb(0, 0, 0); fill-opacity: 1; white-space: pre; opacity: 1;" transform="translate(0,385.05)">5</text></g><g class="ytick"><text text-anchor="end" x="54" y="3.5" style="font-family: 'Lucida Grande', 'Open Sans', verdana, arial, sans-serif; font-size: 10px; fill: rgb(0, 0, 0); fill-opacity: 1; white-space: pre; opacity: 1;" transform="translate(0,335.1)">10</text></g><g class="ytick"><text text-anchor="end" x="54" y="3.5" style="font-family: 'Lucida Grande', 'Open Sans', verdana, arial, sans-serif; font-size: 10px; fill: rgb(0, 0, 0); fill-opacity: 1; white-space: pre; opacity: 1;" transform="translate(0,285.15)">15</text></g><g class="ytick"><text text-anchor="end" x="54" y="3.5" style="font-family: 'Lucida Grande', 'Open Sans', verdana, arial, sans-serif; font-size: 10px; fill: rgb(0, 0, 0); fill-opacity: 1; white-space: pre; opacity: 1;" transform="translate(0,235.2)">20</text></g><g class="ytick"><text text-anchor="end" x="54" y="3.5" style="font-family: 'Lucida Grande', 'Open Sans', verdana, arial, sans-serif; font-size: 10px; fill: rgb(0, 0, 0); fill-opacity: 1; white-space: pre; opacity: 1;" transform="translate(0,185.25)">25</text></g><g class="ytick"><text text-anchor="end" x="54" y="3.5" style="font-family: 'Lucida Grande', 'Open Sans', verdana, arial, sans-serif; font-size: 10px; fill: rgb(0, 0, 0); fill-opacity: 1; white-space: pre; opacity: 1;" transform="translate(0,135.3)">30</text></g><g class="ytick"><text text-anchor="end" x="54" y="3.5" style="font-family: 'Lucida Grande', 'Open Sans', verdana, arial, sans-serif; font-size: 10px; fill: rgb(0, 0, 0); fill-opacity: 1; white-space: pre; opacity: 1;" transform="translate(0,85.35)">35</text></g></g><g class="overaxes-above"/></g></g><g class="polarlayer"/><g class="smithlayer"/><g class="ternarylayer"/><g class="geolayer"/><g class="funnelarealayer"/><g class="pielayer"/><g class="iciclelayer"/><g class="treemaplayer"/><g class="sunburstlayer"/><g class="glimages"/><defs id="topdefs-ac3179"><g class="clips"/></defs><g class="layer-above"><g class="imagelayer"/><g class="shapelayer"/></g><g class="infolayer"><g class="g-gtitle"><text class="gtitle" x="550" y="25" text-anchor="middle" dy="0em" style="opacity: 1; font-family: 'Lucida Grande', 'Open Sans', verdana, arial, sans-serif; font-size: 20px; fill: rgb(42, 63, 95); fill-opacity: 1; white-space: pre;"><tspan class="line" dy="0em" x="550" y="25">FastQC: Mean Quality Scores</tspan><tspan class="line" dy="1.3em" x="550" y="25">​<tspan style="font-size:70%" dy="-0.6em">50 samples</tspan><tspan dy="0.42em">​</tspan></tspan></text></g><g class="g-xtitle"><text class="xtitle" x="572.5" y="472.3" text-anchor="middle" style="opacity: 0.3; font-family: 'Lucida Grande', 'Open Sans', verdana, arial, sans-serif; font-size: 14px; fill: rgb(0, 0, 0); fill-opacity: 1; white-space: pre;">Position (bp)</text></g><g class="g-ytitle"><text class="ytitle" transform="rotate(-90,26.865625,242.5)" x="26.865625" y="242.5" text-anchor="middle" style="opacity: 0.3; font-family: 'Lucida Grande', 'Open Sans', verdana, arial, sans-serif; font-size: 14px; fill: rgb(0, 0, 0); fill-opacity: 1; white-space: pre;">Phred Score</text></g></g></svg>