<svg class="main-svg" xmlns="http://www.w3.org/2000/svg" xmlns:xlink="http://www.w3.org/1999/xlink" width="2200" height="1000" style="" viewBox="0 0 1100 500"><rect x="0" y="0" width="1100" height="500" style="fill: rgb(255, 255, 255); fill-opacity: 1;"/><defs id="defs-e0ea1a"><g class="clips"><clipPath id="clipe0ea1axyplot" class="plotclip"><rect width="1021" height="385"/></clipPath><clipPath class="axesclip" id="clipe0ea1ax"><rect x="64" y="0" width="1021" height="500"/></clipPath><clipPath class="axesclip" id="clipe0ea1ay"><rect x="0" y="50" width="1100" height="385"/></clipPath><clipPath class="axesclip" id="clipe0ea1axy"><rect x="64" y="50" width="1021" height="385"/></clipPath></g><g class="gradients"/><g class="patterns"/></defs><g class="bglayer"/><g class="layer-below"><g class="imagelayer"/><g class="shapelayer"><g class="shape-group" data-index="0" clip-path="url(#clipe0ea1ax)"><path data-index="0" fill-rule="evenodd" d="M836.65,435H2823.46V50H836.65Z" style="opacity: 1; stroke: rgb(0, 0, 0); stroke-opacity: 0; fill: rgb(195, 230, 195); fill-opacity: 1; stroke-width: 0px;"/></g><g class="shape-group" data-index="1" clip-path="url(#clipe0ea1ax)"><path data-index="1" fill-rule="evenodd" d="M615.89,435H836.65V50H615.89Z" style="opacity: 1; stroke: rgb(0, 0, 0); stroke-opacity: 0; fill: rgb(230, 220, 195); fill-opacity: 1; stroke-width: 0px;"/></g><g class="shape-group" data-index="2" clip-path="url(#clipe0ea1ax)"><path data-index="2" fill-rule="evenodd" d="M64,435H615.89V50H64Z" style="opacity: 1; stroke: rgb(0, 0, 0); stroke-opacity: 0; fill: rgb(230, 195, 195); fill-opacity: 1; stroke-width: 0px;"/></g><g class="shape-group" data-index="3" clip-path="url(#clipe0ea1ax)"><path data-index="3" fill-rule="evenodd" d="M836.65,435H2823.46V50H836.65Z" style="opacity: 1; stroke: rgb(0, 0, 0); stroke-opacity: 0; fill: rgb(195, 230, 195); fill-opacity: 1; stroke-width: 0px;"/></g><g class="shape-group" data-index="4" clip-path="url(#clipe0ea1ax)"><path data-index="4" fill-rule="evenodd" d="M615.89,435H836.65V50H615.89Z" style="opacity: 1; stroke: rgb(0, 0, 0); stroke-opacity: 0; fill: rgb(230, 220, 195); fill-opacity: 1; stroke-width: 0px;"/></g><g class="shape-group" data-index="5" clip-path="url(#clipe0ea1ax)"><path data-index="5" fill-rule="evenodd" d="M64,435H615.89V50H64Z" style="opacity: 1; stroke: rgb(0, 0, 0); stroke-opacity: 0; fill: rgb(230, 195, 195); fill-opacity: 1; stroke-width: 0px;"/></g></g></g><g class="cartesianlayer"><g class="subplot xy"><g class="layer-subplot"><g class="shapelayer"/><g class="imagelayer"/></g><g class="minor-gridlayer"><g class="x"/><g class="y"/></g><g class="gridlayer"><g class="x"><path class="xgrid crisp" transform="translate(201.97,0)" d="M0,50v385" style="stroke: rgb(0, 0, 0); stroke-opacity: 0.05; stroke-width: 1px;"/><path class="xgrid crisp" transform="translate(339.95,0)" d="M0,50v385" style="stroke: rgb(0, 0, 0); stroke-opacity: 0.05; stroke-width: 1px;"/><path class="xgrid crisp" transform="translate(477.92,0)" d="M0,50v385" style="stroke: rgb(0, 0, 0); stroke-opacity: 0.05; stroke-width: 1px;"/><path class="xgrid crisp" transform="translate(615.89,0)" d="M0,50v385" style="stroke: rgb(0, 0, 0); stroke-opacity: 0.05; stroke-width: 1px;"/><path class="xgrid crisp" transform="translate(753.86,0)" d="M0,50v385" style="stroke: rgb(0, 0, 0); stroke-opacity: 0.05; stroke-width: 1px;"/><path class="xgrid crisp" transform="translate(891.84,0)" d="M0,50v385" style="stroke: rgb(0, 0, 0); stroke-opacity: 0.05; stroke-width: 1px;"/><path class="xgrid crisp" transform="translate(1029.81,0)" d="M0,50v385" style="stroke: rgb(0, 0, 0); stroke-opacity: 0.05; stroke-width: 1px;"/></g><g class="y"><path class="ygrid crisp" transform="translate(0,385.38)" d="M64,0h1021" style="stroke: rgb(0, 0, 0); stroke-opacity: 0.05; stroke-width: 1px;"/><path class="ygrid crisp" transform="translate(0,335.76)" d="M64,0h1021" style="stroke: rgb(0, 0, 0); stroke-opacity: 0.05; stroke-width: 1px;"/><path class="ygrid crisp" transform="translate(0,286.14)" d="M64,0h1021" style="stroke: rgb(0, 0, 0); stroke-opacity: 0.05; stroke-width: 1px;"/><path class="ygrid crisp" transform="translate(0,236.51)" d="M64,0h1021" style="stroke: rgb(0, 0, 0); stroke-opacity: 0.05; stroke-width: 1px;"/><path class="ygrid crisp" transform="translate(0,186.89)" d="M64,0h1021" style="stroke: rgb(0, 0, 0); stroke-opacity: 0.05; stroke-width: 1px;"/><path class="ygrid crisp" transform="translate(0,137.26999999999998)" d="M64,0h1021" style="stroke: rgb(0, 0, 0); stroke-opacity: 0.05; stroke-width: 1px;"/><path class="ygrid crisp" transform="translate(0,87.65)" d="M64,0h1021" style="stroke: rgb(0, 0, 0); stroke-opacity: 0.05; stroke-width: 1px;"/></g></g><g class="zerolinelayer"><path class="xzl zl crisp" transform="translate(64,0)" d="M0,50v385" style="stroke: rgb(0, 0, 0); stroke-opacity: 0.05; stroke-width: 2px;"/><path class="yzl zl crisp" transform="translate(0,435)" d="M64,0h1021" style="stroke: rgb(0, 0, 0); stroke-opacity: 0.05; stroke-width: 2px;"/></g><g class="layer-between"><g class="shapelayer"/><g class="imagelayer"/></g><path class="xlines-below"/><path class="ylines-below"/><g class="overlines-below"/><g class="xaxislayer-below"/><g class="yaxislayer-below"/><g class="overaxes-below"/><g class="overplot"><g class="xy" transform="translate(64,50)" clip-path="url(#clipe0ea1axyplot)"><g class="scatterlayer mlayer"><g class="trace scatter trace41c437" style="stroke-miterlimit: 2; opacity: 1;"><g class="fills"/><g class="errorbars"/><g class="lines"><path class="js-line" d="M386.32,385L772.65,384.25L800.24,383.95L883.03,382.64L910.62,381.67L938.22,378.45L965.81,360.8L993.41,238.3L1021,338.17" style="vector-effect: none; fill: none; stroke: rgb(92, 184, 92); stroke-opacity: 1; stroke-width: 2px; opacity: 1;"/></g><g class="points"/><g class="text"/></g><g class="trace scatter trace801895" style="stroke-miterlimit: 2; opacity: 1;"><g class="fills"/><g class="errorbars"/><g class="lines"><path class="js-line" d="M303.54,385L607.08,384.22L634.68,382.2L662.27,380.51L689.86,382.73L717.46,384.08L745.05,384.19L855.43,383.02L883.03,382.39L910.62,380.97L938.22,377.06L965.81,358.4L993.41,226.2L1021,366.9" style="vector-effect: none; fill: none; stroke: rgb(92, 184, 92); stroke-opacity: 1; stroke-width: 2px; opacity: 1;"/></g><g class="points"/><g class="text"/></g><g class="trace scatter trace9fbab2" style="stroke-miterlimit: 2; opacity: 1;"><g class="fills"/><g class="errorbars"/><g class="lines"><path class="js-line" d="M358.73,385L745.05,384.47L772.65,384.23L883.03,382.42L910.62,379.37L938.22,372.19L965.81,369.74L993.41,222.77L1021,320.72" style="vector-effect: none; fill: none; stroke: rgb(92, 184, 92); stroke-opacity: 1; stroke-width: 2px; opacity: 1;"/></g><g class="points"/><g class="text"/></g><g class="trace scatter tracefb2316" style="stroke-miterlimit: 2; opacity: 1;"><g class="fills"/><g class="errorbars"/><g class="lines"><path class="js-line" d="M303.54,385L607.08,384.51L634.68,383.78L662.27,382.39L689.86,382.4L745.05,383.96L772.65,383.89L855.43,382.75L883.03,382L910.62,380.3L938.22,375.45L965.81,350.62L993.41,197.77L1021,370.75" style="vector-effect: none; fill: none; stroke: rgb(92, 184, 92); stroke-opacity: 1; stroke-width: 2px; opacity: 1;"/></g><g class="points"/><g class="text"/></g><g class="trace scatter tracecf4dc5" style="stroke-miterlimit: 2; opacity: 1;"><g class="fills"/><g class="errorbars"/><g class="lines"><path class="js-line" d="M386.32,385L745.05,384.27L772.65,383.98L883.03,381.8L910.62,380.39L938.22,375.23L965.81,364.2L993.41,178L1021,321.01" style="vector-effect: none; fill: none; stroke: rgb(92, 184, 92); stroke-opacity: 1; stroke-width: 2px; opacity: 1;"/></g><g class="points"/><g class="text"/></g><g class="trace scatter trace5a073e" style="stroke-miterlimit: 2; opacity: 1;"><g class="fills"/><g class="errorbars"/><g class="lines"><path class="js-line" d="M303.54,385L634.68,384.28L662.27,383.28L689.86,382.13L717.46,383.03L745.05,383.83L772.65,383.82L883.03,381.79L910.62,380.16L938.22,376.15L965.81,355.4L993.41,155.77L1021,358.36" style="vector-effect: none; fill: none; stroke: rgb(92, 184, 92); stroke-opacity: 1; stroke-width: 2px; opacity: 1;"/></g><g class="points"/><g class="text"/></g><g class="trace scatter traceec9bc1" style="stroke-miterlimit: 2; opacity: 1;"><g class="fills"/><g class="errorbars"/><g class="lines"><path class="js-line" d="M386.32,385L745.05,384.29L772.65,383.98L883.03,381.52L910.62,379.36L965.81,356.37L993.41,187.84L1021,334.17" style="vector-effect: none; fill: none; stroke: rgb(92, 184, 92); stroke-opacity: 1; stroke-width: 2px; opacity: 1;"/></g><g class="points"/><g class="text"/></g><g class="trace scatter trace642961" style="stroke-miterlimit: 2; opacity: 1;"><g class="fills"/><g class="errorbars"/><g class="lines"><path class="js-line" d="M303.54,385L579.49,384.54L607.08,384.05L634.68,381.8L662.27,377.8L689.86,379.95L717.46,383.32L745.05,383.95L772.65,383.82L855.43,382.55L883.03,381.66L910.62,379.77L938.22,375.19L965.81,352.31L993.41,172.93L1021,363.37" style="vector-effect: none; fill: none; stroke: rgb(92, 184, 92); stroke-opacity: 1; stroke-width: 2px; opacity: 1;"/></g><g class="points"/><g class="text"/></g><g class="trace scatter trace545f71" style="stroke-miterlimit: 2; opacity: 1;"><g class="fills"/><g class="errorbars"/><g class="lines"><path class="js-line" d="M358.73,385L745.05,384.26L772.65,383.91L855.43,382.27L883.03,381.2L910.62,376.68L938.22,373.98L965.81,365.55L993.41,160.76L1021,310.03" style="vector-effect: none; fill: none; stroke: rgb(92, 184, 92); stroke-opacity: 1; stroke-width: 2px; opacity: 1;"/></g><g class="points"/><g class="text"/></g><g class="trace scatter trace3cf164" style="stroke-miterlimit: 2; opacity: 1;"><g class="fills"/><g class="errorbars"/><g class="lines"><path class="js-line" d="M303.54,385L607.08,384.6L634.68,383.96L662.27,383.26L689.86,383.71L745.05,384.02L772.65,383.81L855.43,382.45L883.03,381.62L910.62,379.89L938.22,375.55L965.81,353.04L993.41,128.88L1021,353.18" style="vector-effect: none; fill: none; stroke: rgb(92, 184, 92); stroke-opacity: 1; stroke-width: 2px; opacity: 1;"/></g><g class="points"/><g class="text"/></g><g class="trace scatter tracefe813d" style="stroke-miterlimit: 2; opacity: 1;"><g class="fills"/><g class="errorbars"/><g class="lines"><path class="js-line" d="M386.32,385L717.46,384.46L745.05,384.16L827.84,382.71L855.43,381.85L883.03,376.84L910.62,373.27L938.22,373.72L965.81,362L993.41,152.03L1021,326.18" style="vector-effect: none; fill: none; stroke: rgb(92, 184, 92); stroke-opacity: 1; stroke-width: 2px; opacity: 1;"/></g><g class="points"/><g class="text"/></g><g class="trace scatter tracee3aa06" style="stroke-miterlimit: 2; opacity: 1;"><g class="fills"/><g class="errorbars"/><g class="lines"><path class="js-line" d="M303.54,385L607.08,384.44L634.68,383.56L662.27,382.44L689.86,383.25L717.46,383.89L745.05,383.76L827.84,382.57L855.43,381.8L883.03,380.66L910.62,378.23L938.22,372.67L965.81,346.72L993.41,136.36L1021,357.41" style="vector-effect: none; fill: none; stroke: rgb(92, 184, 92); stroke-opacity: 1; stroke-width: 2px; opacity: 1;"/></g><g class="points"/><g class="text"/></g><g class="trace scatter trace5f4a97" style="stroke-miterlimit: 2; opacity: 1;"><g class="fills"/><g class="errorbars"/><g class="lines"><path class="js-line" d="M358.73,385L772.65,384.29L800.24,383.99L883.03,382.64L910.62,380.09L938.22,372.45L965.81,369.52L993.41,244.83L1021,341.24" style="vector-effect: none; fill: none; stroke: rgb(92, 184, 92); stroke-opacity: 1; stroke-width: 2px; opacity: 1;"/></g><g class="points"/><g class="text"/></g><g class="trace scatter tracee6c7da" style="stroke-miterlimit: 2; opacity: 1;"><g class="fills"/><g class="errorbars"/><g class="lines"><path class="js-line" d="M303.54,385L607.08,384.49L634.68,383.37L662.27,381.43L689.86,382.46L717.46,384.06L745.05,384.32L855.43,383.33L883.03,382.78L910.62,381.54L938.22,378.36L965.81,361.93L993.41,227.78L1021,366.99" style="vector-effect: none; fill: none; stroke: rgb(92, 184, 92); stroke-opacity: 1; stroke-width: 2px; opacity: 1;"/></g><g class="points"/><g class="text"/></g><g class="trace scatter trace3ad7dd" style="stroke-miterlimit: 2; opacity: 1;"><g class="fills"/><g class="errorbars"/><g class="lines"><path class="js-line" d="M358.73,385L717.46,384.34L745.05,383.98L827.84,382.28L855.43,381.4L910.62,378.63L938.22,374.83L965.81,361.19L993.41,96.92L1021,308.75" style="vector-effect: none; fill: none; stroke: rgb(92, 184, 92); stroke-opacity: 1; stroke-width: 2px; opacity: 1;"/></g><g class="points"/><g class="text"/></g><g class="trace scatter trace017fac" style="stroke-miterlimit: 2; opacity: 1;"><g class="fills"/><g class="errorbars"/><g class="lines"><path class="js-line" d="M303.54,385L634.68,384.34L662.27,384.05L800.24,382.59L827.84,381.97L883.03,379.61L910.62,376.58L938.22,369.12L965.81,332.71L993.41,87.08L1021,361.68" style="vector-effect: none; fill: none; stroke: rgb(92, 184, 92); stroke-opacity: 1; stroke-width: 2px; opacity: 1;"/></g><g class="points"/><g class="text"/></g><g class="trace scatter trace3601f4" style="stroke-miterlimit: 2; opacity: 1;"><g class="fills"/><g class="errorbars"/><g class="lines"><path class="js-line" d="M386.32,385L717.46,384.46L745.05,384.15L827.84,382.6L855.43,381.8L883.03,380.77L910.62,378.12L938.22,372.81L965.81,360.19L993.41,118.38L1021,322.2" style="vector-effect: none; fill: none; stroke: rgb(92, 184, 92); stroke-opacity: 1; stroke-width: 2px; opacity: 1;"/></g><g class="points"/><g class="text"/></g><g class="trace scatter trace6483fb" style="stroke-miterlimit: 2; opacity: 1;"><g class="fills"/><g class="errorbars"/><g class="lines"><path class="js-line" d="M303.54,385L607.08,384.52L634.68,384.08L662.27,383.37L689.86,383.43L745.05,383.62L772.65,383.33L855.43,381.48L883.03,380.29L910.62,377.71L938.22,371.65L965.81,342.62L993.41,110.71L1021,356.57" style="vector-effect: none; fill: none; stroke: rgb(92, 184, 92); stroke-opacity: 1; stroke-width: 2px; opacity: 1;"/></g><g class="points"/><g class="text"/></g><g class="trace scatter trace7c766f" style="stroke-miterlimit: 2; opacity: 1;"><g class="fills"/><g class="errorbars"/><g class="lines"><path class="js-line" d="M358.73,385L745.05,384.27L772.65,383.96L855.43,382.32L883.03,381.17L910.62,373.44L938.22,361.57L965.81,361.05L993.41,199.28L1021,327.26" style="vector-effect: none; fill: none; stroke: rgb(92, 184, 92); stroke-opacity: 1; stroke-width: 2px; opacity: 1;"/></g><g class="points"/><g class="text"/></g><g class="trace scatter trace81516c" style="stroke-miterlimit: 2; opacity: 1;"><g class="fills"/><g class="errorbars"/><g class="lines"><path class="js-line" d="M303.54,385L579.49,384.49L607.08,383.9L634.68,381.01L662.27,376.73L717.46,383.36L745.05,383.98L827.84,383.24L855.43,382.69L883.03,381.86L910.62,380.05L938.22,375.3L965.81,351.22L993.41,170.95L1021,363.65" style="vector-effect: none; fill: none; stroke: rgb(92, 184, 92); stroke-opacity: 1; stroke-width: 2px; opacity: 1;"/></g><g class="points"/><g class="text"/></g><g class="trace scatter trace397676" style="stroke-miterlimit: 2; opacity: 1;"><g class="fills"/><g class="errorbars"/><g class="lines"><path class="js-line" d="M358.73,385L745.05,384.26L772.65,383.94L883.03,381.7L910.62,380.45L938.22,377.54L965.81,359.99L993.41,154.97L1021,317.22" style="vector-effect: none; fill: none; stroke: rgb(92, 184, 92); stroke-opacity: 1; stroke-width: 2px; opacity: 1;"/></g><g class="points"/><g class="text"/></g><g class="trace scatter trace8ad07e" style="stroke-miterlimit: 2; opacity: 1;"><g class="fills"/><g class="errorbars"/><g class="lines"><path class="js-line" d="M303.54,385L607.08,384.4L634.68,383.24L662.27,381.46L689.86,382.37L717.46,383.72L745.05,383.94L827.84,382.97L855.43,382.35L883.03,381.45L910.62,379.45L938.22,374.18L965.81,347.08L993.41,138.03L1021,360.12" style="vector-effect: none; fill: none; stroke: rgb(92, 184, 92); stroke-opacity: 1; stroke-width: 2px; opacity: 1;"/></g><g class="points"/><g class="text"/></g><g class="trace scatter trace9e1371" style="stroke-miterlimit: 2; opacity: 1;"><g class="fills"/><g class="errorbars"/><g class="lines"><path class="js-line" d="M358.73,385L745.05,384.25L772.65,383.9L855.43,382.01L883.03,374.97L910.62,370.65L938.22,374.71L965.81,364.35L993.41,168.42L1021,321.72" style="vector-effect: none; fill: none; stroke: rgb(92, 184, 92); stroke-opacity: 1; stroke-width: 2px; opacity: 1;"/></g><g class="points"/><g class="text"/></g><g class="trace scatter trace0b7c78" style="stroke-miterlimit: 2; opacity: 1;"><g class="fills"/><g class="errorbars"/><g class="lines"><path class="js-line" d="M303.54,385L607.08,384.54L634.68,383.84L662.27,381.93L689.86,381.32L717.46,383.13L745.05,383.92L827.84,383.22L855.43,382.65L883.03,381.75L910.62,379.79L938.22,374.59L965.81,347.33L993.41,138.87L1021,360.28" style="vector-effect: none; fill: none; stroke: rgb(92, 184, 92); stroke-opacity: 1; stroke-width: 2px; opacity: 1;"/></g><g class="points"/><g class="text"/></g><g class="trace scatter trace0cd0f6" style="stroke-miterlimit: 2; opacity: 1;"><g class="fills"/><g class="errorbars"/><g class="lines"><path class="js-line" d="M358.73,385L717.46,384.36L745.05,384.03L855.43,381.65L883.03,380.71L910.62,379.04L938.22,374.64L965.81,357.11L993.41,100.16L1021,298.51" style="vector-effect: none; fill: none; stroke: rgb(92, 184, 92); stroke-opacity: 1; stroke-width: 2px; opacity: 1;"/></g><g class="points"/><g class="text"/></g><g class="trace scatter trace1c3411" style="stroke-miterlimit: 2; opacity: 1;"><g class="fills"/><g class="errorbars"/><g class="lines"><path class="js-line" d="M303.54,385L607.08,384.4L634.68,383.55L662.27,382.33L689.86,382.81L717.46,383.56L745.05,383.51L827.84,382.16L855.43,381.3L883.03,380.03L910.62,377.29L938.22,370.39L965.81,336.17L993.41,79.54L1021,356.03" style="vector-effect: none; fill: none; stroke: rgb(92, 184, 92); stroke-opacity: 1; stroke-width: 2px; opacity: 1;"/></g><g class="points"/><g class="text"/></g><g class="trace scatter tracea7fe20" style="stroke-miterlimit: 2; opacity: 1;"><g class="fills"/><g class="errorbars"/><g class="lines"><path class="js-line" d="M386.32,385L772.65,384.25L800.24,383.92L883.03,382.43L910.62,380.42L965.81,367.08L993.41,218.3L1021,335.65" style="vector-effect: none; fill: none; stroke: rgb(92, 184, 92); stroke-opacity: 1; stroke-width: 2px; opacity: 1;"/></g><g class="points"/><g class="text"/></g><g class="trace scatter trace3f3fa7" style="stroke-miterlimit: 2; opacity: 1;"><g class="fills"/><g class="errorbars"/><g class="lines"><path class="js-line" d="M303.54,385L607.08,384.57L634.68,383.66L662.27,382.41L689.86,383.06L717.46,384.05L745.05,384.22L855.43,383.01L883.03,382.25L910.62,380.51L938.22,375.67L965.81,351.58L993.41,204.14L1021,370.55" style="vector-effect: none; fill: none; stroke: rgb(92, 184, 92); stroke-opacity: 1; stroke-width: 2px; opacity: 1;"/></g><g class="points"/><g class="text"/></g><g class="trace scatter trace136498" style="stroke-miterlimit: 2; opacity: 1;"><g class="fills"/><g class="errorbars"/><g class="lines"><path class="js-line" d="M358.73,385L717.46,384.42L745.05,384.11L827.84,382.59L855.43,381.78L910.62,379.12L938.22,374.76L965.81,357.32L993.41,121.43L1021,309.13" style="vector-effect: none; fill: none; stroke: rgb(92, 184, 92); stroke-opacity: 1; stroke-width: 2px; opacity: 1;"/></g><g class="points"/><g class="text"/></g><g class="trace scatter trace9737fc" style="stroke-miterlimit: 2; opacity: 1;"><g class="fills"/><g class="errorbars"/><g class="lines"><path class="js-line" d="M303.54,385L607.08,384.36L634.68,383.6L662.27,382.64L689.86,383.05L745.05,383.51L772.65,383.2L855.43,381.29L883.03,380.01L910.62,377.29L938.22,370.88L965.81,340.02L993.41,106.73L1021,357.4" style="vector-effect: none; fill: none; stroke: rgb(92, 184, 92); stroke-opacity: 1; stroke-width: 2px; opacity: 1;"/></g><g class="points"/><g class="text"/></g><g class="trace scatter trace90ad78" style="stroke-miterlimit: 2; opacity: 1;"><g class="fills"/><g class="errorbars"/><g class="lines"><path class="js-line" d="M386.32,385L745.05,384.33L772.65,384.07L883.03,381.96L910.62,379.51L938.22,363.26L965.81,352.11L993.41,209.75L1021,328.61" style="vector-effect: none; fill: none; stroke: rgb(92, 184, 92); stroke-opacity: 1; stroke-width: 2px; opacity: 1;"/></g><g class="points"/><g class="text"/></g><g class="trace scatter trace4dc91a" style="stroke-miterlimit: 2; opacity: 1;"><g class="fills"/><g class="errorbars"/><g class="lines"><path class="js-line" d="M303.54,385L579.49,384.28L607.08,383.24L662.27,373.15L689.86,379.15L717.46,383.31L745.05,384L827.84,383.26L855.43,382.76L883.03,382.07L910.62,380.55L938.22,376.48L965.81,356.07L993.41,187.17L1021,361.59" style="vector-effect: none; fill: none; stroke: rgb(92, 184, 92); stroke-opacity: 1; stroke-width: 2px; opacity: 1;"/></g><g class="points"/><g class="text"/></g><g class="trace scatter trace9f8ef1" style="stroke-miterlimit: 2; opacity: 1;"><g class="fills"/><g class="errorbars"/><g class="lines"><path class="js-line" d="M358.73,385L717.46,384.5L745.05,384.24L855.43,382.31L883.03,381.56L910.62,380.24L938.22,376.57L965.81,363.49L993.41,161.02L1021,310.85" style="vector-effect: none; fill: none; stroke: rgb(92, 184, 92); stroke-opacity: 1; stroke-width: 2px; opacity: 1;"/></g><g class="points"/><g class="text"/></g><g class="trace scatter trace7ac186" style="stroke-miterlimit: 2; opacity: 1;"><g class="fills"/><g class="errorbars"/><g class="lines"><path class="js-line" d="M303.54,385L634.68,384.33L662.27,383.63L689.86,382.76L717.46,382.91L772.65,383.59L800.24,383.27L883.03,381.38L910.62,379.51L938.22,374.86L965.81,350.66L993.41,136.64L1021,357.59" style="vector-effect: none; fill: none; stroke: rgb(92, 184, 92); stroke-opacity: 1; stroke-width: 2px; opacity: 1;"/></g><g class="points"/><g class="text"/></g><g class="trace scatter trace495e75" style="stroke-miterlimit: 2; opacity: 1;"><g class="fills"/><g class="errorbars"/><g class="lines"><path class="js-line" d="M386.32,385L717.46,384.44L745.05,384.14L855.43,381.92L883.03,381.04L910.62,379.47L938.22,374.99L965.81,360.15L993.41,131.56L1021,311.57" style="vector-effect: none; fill: none; stroke: rgb(92, 184, 92); stroke-opacity: 1; stroke-width: 2px; opacity: 1;"/></g><g class="points"/><g class="text"/></g><g class="trace scatter trace9d83e2" style="stroke-miterlimit: 2; opacity: 1;"><g class="fills"/><g class="errorbars"/><g class="lines"><path class="js-line" d="M303.54,385L607.08,384.5L634.68,383.9L662.27,382.73L689.86,382.9L717.46,383.73L745.05,383.71L827.84,382.46L855.43,381.72L883.03,380.6L910.62,378.25L938.22,372.43L965.81,343.6L993.41,114.32L1021,357.02" style="vector-effect: none; fill: none; stroke: rgb(92, 184, 92); stroke-opacity: 1; stroke-width: 2px; opacity: 1;"/></g><g class="points"/><g class="text"/></g><g class="trace scatter tracee05c84" style="stroke-miterlimit: 2; opacity: 1;"><g class="fills"/><g class="errorbars"/><g class="lines"><path class="js-line" d="M358.73,385L717.46,384.31L745.05,383.91L827.84,381.96L855.43,380.98L883.03,379.8L910.62,377.84L938.22,373.18L965.81,349.54L993.41,39.37L1021,287.76" style="vector-effect: none; fill: none; stroke: rgb(92, 184, 92); stroke-opacity: 1; stroke-width: 2px; opacity: 1;"/></g><g class="points"/><g class="text"/></g><g class="trace scatter tracec8eaf6" style="stroke-miterlimit: 2; opacity: 1;"><g class="fills"/><g class="errorbars"/><g class="lines"><path class="js-line" d="M303.54,385L607.08,384.25L634.68,382.98L662.27,381.39L689.86,382.4L717.46,383.41L745.05,383.38L827.84,381.83L855.43,380.83L883.03,379.34L910.62,376.1L938.22,367.8L965.81,325.67L993.41,19.25L1021,349.64" style="vector-effect: none; fill: none; stroke: rgb(92, 184, 92); stroke-opacity: 1; stroke-width: 2px; opacity: 1;"/></g><g class="points"/><g class="text"/></g><g class="trace scatter trace9dfd42" style="stroke-miterlimit: 2; opacity: 1;"><g class="fills"/><g class="errorbars"/><g class="lines"><path class="js-line" d="M386.32,385L745.05,384.38L772.65,384.08L883.03,381.87L910.62,380.62L938.22,377.62L965.81,360.33L993.41,173.33L1021,320.74" style="vector-effect: none; fill: none; stroke: rgb(92, 184, 92); stroke-opacity: 1; stroke-width: 2px; opacity: 1;"/></g><g class="points"/><g class="text"/></g><g class="trace scatter trace6c1e95" style="stroke-miterlimit: 2; opacity: 1;"><g class="fills"/><g class="errorbars"/><g class="lines"><path class="js-line" d="M303.54,385L607.08,384.37L634.68,382.98L662.27,382.02L689.86,383.41L717.46,384.12L745.05,384.05L855.43,382.43L883.03,381.47L910.62,379.39L938.22,373.94L965.81,346.66L993.41,156.79L1021,364.44" style="vector-effect: none; fill: none; stroke: rgb(92, 184, 92); stroke-opacity: 1; stroke-width: 2px; opacity: 1;"/></g><g class="points"/><g class="text"/></g><g class="trace scatter trace5b9480" style="stroke-miterlimit: 2; opacity: 1;"><g class="fills"/><g class="errorbars"/><g class="lines"><path class="js-line" d="M386.32,385L745.05,384.43L772.65,384.16L883.03,382.27L910.62,381.03L938.22,375.84L965.81,365.59L993.41,213.65L1021,328.71" style="vector-effect: none; fill: none; stroke: rgb(92, 184, 92); stroke-opacity: 1; stroke-width: 2px; opacity: 1;"/></g><g class="points"/><g class="text"/></g><g class="trace scatter trace04ce37" style="stroke-miterlimit: 2; opacity: 1;"><g class="fills"/><g class="errorbars"/><g class="lines"><path class="js-line" d="M303.54,385L607.08,384.56L634.68,383.69L662.27,381.87L689.86,382.45L717.46,384L745.05,384.2L855.43,382.93L883.03,382.21L910.62,380.62L938.22,376.44L965.81,355.05L993.41,194.09L1021,366.5" style="vector-effect: none; fill: none; stroke: rgb(92, 184, 92); stroke-opacity: 1; stroke-width: 2px; opacity: 1;"/></g><g class="points"/><g class="text"/></g><g class="trace scatter traceac9728" style="stroke-miterlimit: 2; opacity: 1;"><g class="fills"/><g class="errorbars"/><g class="lines"><path class="js-line" d="M358.73,385L745.05,384.28L772.65,383.98L883.03,381.59L910.62,380.09L938.22,373.2L965.81,354.73L993.41,178.26L1021,319.9" style="vector-effect: none; fill: none; stroke: rgb(92, 184, 92); stroke-opacity: 1; stroke-width: 2px; opacity: 1;"/></g><g class="points"/><g class="text"/></g><g class="trace scatter trace80037e" style="stroke-miterlimit: 2; opacity: 1;"><g class="fills"/><g class="errorbars"/><g class="lines"><path class="js-line" d="M303.54,385L579.49,384.56L607.08,384.07L634.68,381.77L662.27,378.45L717.46,383.45L745.05,383.97L827.84,383.18L855.43,382.63L883.03,381.83L910.62,380.06L938.22,375.5L965.81,351.66L993.41,153.36L1021,360.03" style="vector-effect: none; fill: none; stroke: rgb(92, 184, 92); stroke-opacity: 1; stroke-width: 2px; opacity: 1;"/></g><g class="points"/><g class="text"/></g><g class="trace scatter trace8c9c82" style="stroke-miterlimit: 2; opacity: 1;"><g class="fills"/><g class="errorbars"/><g class="lines"><path class="js-line" d="M386.32,385L717.46,384.33L745.05,383.96L855.43,381.38L883.03,380.38L910.62,378.64L938.22,375.08L965.81,359.42L993.41,87.31L1021,306.27" style="vector-effect: none; fill: none; stroke: rgb(92, 184, 92); stroke-opacity: 1; stroke-width: 2px; opacity: 1;"/></g><g class="points"/><g class="text"/></g><g class="trace scatter tracef25c9f" style="stroke-miterlimit: 2; opacity: 1;"><g class="fills"/><g class="errorbars"/><g class="lines"><path class="js-line" d="M303.54,385L634.68,384.23L662.27,383.74L772.65,383.27L800.24,382.8L855.43,381.31L883.03,379.99L910.62,377.1L938.22,369.79L965.81,332.94L993.41,72.35L1021,360" style="vector-effect: none; fill: none; stroke: rgb(92, 184, 92); stroke-opacity: 1; stroke-width: 2px; opacity: 1;"/></g><g class="points"/><g class="text"/></g><g class="trace scatter trace3bae95" style="stroke-miterlimit: 2; opacity: 1;"><g class="fills"/><g class="errorbars"/><g class="lines"><path class="js-line" d="M358.73,385L745.05,384.42L772.65,384.2L855.43,382.68L883.03,369.73L938.22,377.51L965.81,370.29L993.41,245.78L1021,348.15" style="vector-effect: none; fill: none; stroke: rgb(92, 184, 92); stroke-opacity: 1; stroke-width: 2px; opacity: 1;"/></g><g class="points"/><g class="text"/></g><g class="trace scatter trace142a63" style="stroke-miterlimit: 2; opacity: 1;"><g class="fills"/><g class="errorbars"/><g class="lines"><path class="js-line" d="M303.54,385L607.08,384.47L634.68,383.38L662.27,380.68L689.86,380.72L717.46,383.34L745.05,384.22L827.84,383.81L855.43,383.41L910.62,381.47L938.22,377.9L965.81,359.28L993.41,226.32L1021,368.16" style="vector-effect: none; fill: none; stroke: rgb(92, 184, 92); stroke-opacity: 1; stroke-width: 2px; opacity: 1;"/></g><g class="points"/><g class="text"/></g><g class="trace scatter trace248f77" style="stroke-miterlimit: 2; opacity: 1;"><g class="fills"/><g class="errorbars"/><g class="lines"><path class="js-line" d="M386.32,385L745.05,384.26L772.65,383.93L883.03,381.4L910.62,379.87L938.22,374.53L965.81,361.53L993.41,154.05L1021,321.52" style="vector-effect: none; fill: none; stroke: rgb(92, 184, 92); stroke-opacity: 1; stroke-width: 2px; opacity: 1;"/></g><g class="points"/><g class="text"/></g><g class="trace scatter trace166952" style="stroke-miterlimit: 2; opacity: 1;"><g class="fills"/><g class="errorbars"/><g class="lines"><path class="js-line" d="M303.54,385L607.08,384.44L634.68,383.53L662.27,382.08L689.86,382.76L717.46,383.81L745.05,383.84L827.84,382.74L855.43,382.05L883.03,381.04L910.62,378.88L938.22,373.51L965.81,347.02L993.41,140.72L1021,360.45" style="vector-effect: none; fill: none; stroke: rgb(92, 184, 92); stroke-opacity: 1; stroke-width: 2px; opacity: 1;"/></g><g class="points"/><g class="text"/></g></g></g></g><path class="xlines-above crisp" d="M0,0" style="fill: none;"/><path class="ylines-above crisp" d="M0,0" style="fill: none;"/><g class="overlines-above"/><g class="xaxislayer-above"><g class="xtick"><text text-anchor="middle" x="0" y="451" transform="translate(64,0)" style="font-family: 'Lucida Grande', 'Open Sans', verdana, arial, sans-serif; font-size: 10px; fill: rgb(0, 0, 0); fill-opacity: 1; white-space: pre; opacity: 1;">0</text></g><g class="xtick"><text text-anchor="middle" x="0" y="451" style="font-family: 'Lucida Grande', 'Open Sans', verdana, arial, sans-serif; font-size: 10px; fill: rgb(0, 0, 0); fill-opacity: 1; white-space: pre; opacity: 1;" transform="translate(201.97,0)">5</text></g><g class="xtick"><text text-anchor="middle" x="0" y="451" style="font-family: 'Lucida Grande', 'Open Sans', verdana, arial, sans-serif; font-size: 10px; fill: rgb(0, 0, 0); fill-opacity: 1; white-space: pre; opacity: 1;" transform="translate(339.95,0)">10</text></g><g class="xtick"><text text-anchor="middle" x="0" y="451" style="font-family: 'Lucida Grande', 'Open Sans', verdana, arial, sans-serif; font-size: 10px; fill: rgb(0, 0, 0); fill-opacity: 1; white-space: pre; opacity: 1;" transform="translate(477.92,0)">15</text></g><g class="xtick"><text text-anchor="middle" x="0" y="451" style="font-family: 'Lucida Grande', 'Open Sans', verdana, arial, sans-serif; font-size: 10px; fill: rgb(0, 0, 0); fill-opacity: 1; white-space: pre; opacity: 1;" transform="translate(615.89,0)">20</text></g><g class="xtick"><text text-anchor="middle" x="0" y="451" style="font-family: 'Lucida Grande', 'Open Sans', verdana, arial, sans-serif; font-size: 10px; fill: rgb(0, 0, 0); fill-opacity: 1; white-space: pre; opacity: 1;" transform="translate(753.86,0)">25</text></g><g class="xtick"><text text-anchor="middle" x="0" y="451" style="font-family: 'Lucida Grande', 'Open Sans', verdana, arial, sans-serif; font-size: 10px; fill: rgb(0, 0, 0); fill-opacity: 1; white-space: pre; opacity: 1;" transform="translate(891.84,0)">30</text></g><g class="xtick"><text text-anchor="middle" x="0" y="451" style="font-family: 'Lucida Grande', 'Open Sans', verdana, arial, sans-serif; font-size: 10px; fill: rgb(0, 0, 0); fill-opacity: 1; white-space: pre; opacity: 1;" transform="translate(1029.81,0)">35</text></g></g><g class="yaxislayer-above"><g class="ytick"><text text-anchor="end" x="58" y="3.5" transform="translate(0,435)" style="font-family: 'Lucida Grande', 'Open Sans', verdana, arial, sans-serif; font-size: 10px; fill: rgb(0, 0, 0); fill-opacity: 1; white-space: pre; opacity: 1;">0</text></g><g class="ytick"><text text-anchor="end" x="58" y="3.5" style="font-family: 'Lucida Grande', 'Open Sans', verdana, arial, sans-serif; font-size: 10px; fill: rgb(0, 0, 0); fill-opacity: 1; white-space: pre; opacity: 1;" transform="translate(0,385.38)">5M</text></g><g class="ytick"><text text-anchor="end" x="58" y="3.5" style="font-family: 'Lucida Grande', 'Open Sans', verdana, arial, sans-serif; font-size: 10px; fill: rgb(0, 0, 0); fill-opacity: 1; white-space: pre; opacity: 1;" transform="translate(0,335.76)">10M</text></g><g class="ytick"><text text-anchor="end" x="58" y="3.5" style="font-family: 'Lucida Grande', 'Open Sans', verdana, arial, sans-serif; font-size: 10px; fill: rgb(0, 0, 0); fill-opacity: 1; white-space: pre; opacity: 1;" transform="translate(0,286.14)">15M</text></g><g class="ytick"><text text-anchor="end" x="58" y="3.5" style="font-family: 'Lucida Grande', 'Open Sans', verdana, arial, sans-serif; font-size: 10px; fill: rgb(0, 0, 0); fill-opacity: 1; white-space: pre; opacity: 1;" transform="translate(0,236.51)">20M</text></g><g class="ytick"><text text-anchor="end" x="58" y="3.5" style="font-family: 'Lucida Grande', 'Open Sans', verdana, arial, sans-serif; font-size: 10px; fill: rgb(0, 0, 0); fill-opacity: 1; white-space: pre; opacity: 1;" transform="translate(0,186.89)">25M</text></g><g class="ytick"><text text-anchor="end" x="58" y="3.5" style="font-family: 'Lucida Grande', 'Open Sans', verdana, arial, sans-serif; font-size: 10px; fill: rgb(0, 0, 0); fill-opacity: 1; white-space: pre; opacity: 1;" transform="translate(0,137.26999999999998)">30M</text></g><g class="ytick"><text text-anchor="end" x="58" y="3.5" style="font-family: 'Lucida Grande', 'Open Sans', verdana, arial, sans-serif; font-size: 10px; fill: rgb(0, 0, 0); fill-opacity: 1; white-space: pre; opacity: 1;" transform="translate(0,87.65)">35M</text></g></g><g class="overaxes-above"/></g></g><g class="polarlayer"/><g class="smithlayer"/><g class="ternarylayer"/><g class="geolayer"/><g class="funnelarealayer"/><g class="pielayer"/><g class="iciclelayer"/><g class="treemaplayer"/><g class="sunburstlayer"/><g class="glimages"/><defs id="topdefs-e0ea1a"><g class="clips"/></defs><g class="layer-above"><g class="imagelayer"/><g class="shapelayer"/></g><g class="infolayer"><g class="g-gtitle"><text class="gtitle" x="550" y="25" text-anchor="middle" dy="0em" style="opacity: 1; font-family: 'Lucida Grande', 'Open Sans', verdana, arial, sans-serif; font-size: 20px; fill: rgb(42, 63, 95); fill-opacity: 1; white-space: pre;"><tspan class="line" dy="0em" x="550" y="25">FastQC: Per Sequence Quality Scores</tspan><tspan class="line" dy="1.3em" x="550" y="25">​<tspan style="font-size:70%" dy="-0.6em">50 samples</tspan><tspan dy="0.42em">​</tspan></tspan></text></g><g class="g-xtitle"><text class="xtitle" x="574.5" y="472.3" text-anchor="middle" style="opacity: 0.3; font-family: 'Lucida Grande', 'Open Sans', verdana, arial, sans-serif; font-size: 14px; fill: rgb(0, 0, 0); fill-opacity: 1; white-space: pre;">Mean Sequence Quality (Phred Score)</text></g><g class="g-ytitle"><text class="ytitle" transform="rotate(-90,22.240625,242.5)" x="22.240625" y="242.5" text-anchor="middle" style="opacity: 0.3; font-family: 'Lucida Grande', 'Open Sans', verdana, arial, sans-serif; font-size: 14px; fill: rgb(0, 0, 0); fill-opacity: 1; white-space: pre;">Count</text></g></g></svg>