<svg class="main-svg" xmlns="http://www.w3.org/2000/svg" xmlns:xlink="http://www.w3.org/1999/xlink" width="2200" height="1000" style="" viewBox="0 0 1100 500"><rect x="0" y="0" width="1100" height="500" style="fill: rgb(255, 255, 255); fill-opacity: 1;"/><defs id="defs-e22fd9"><g class="clips"><clipPath id="clipe22fd9xyplot" class="plotclip"><rect width="1025" height="385"/></clipPath><clipPath class="axesclip" id="clipe22fd9x"><rect x="60" y="0" width="1025" height="500"/></clipPath><clipPath class="axesclip" id="clipe22fd9y"><rect x="0" y="50" width="1100" height="385"/></clipPath><clipPath class="axesclip" id="clipe22fd9xy"><rect x="60" y="50" width="1025" height="385"/></clipPath></g><g class="gradients"/><g class="patterns"/></defs><g class="bglayer"/><g class="layer-below"><g class="imagelayer"/><g class="shapelayer"><g class="shape-group" data-index="0" clip-path="url(#clipe22fd9y)"><path data-index="0" fill-rule="evenodd" d="M60,155.3H1085V-563.94H60Z" style="opacity: 1; stroke: rgb(0, 0, 0); stroke-opacity: 0; fill: rgb(195, 230, 195); fill-opacity: 1; stroke-width: 0px;"/></g><g class="shape-group" data-index="1" clip-path="url(#clipe22fd9y)"><path data-index="1" fill-rule="evenodd" d="M60,235.21H1085V155.3H60Z" style="opacity: 1; stroke: rgb(0, 0, 0); stroke-opacity: 0; fill: rgb(230, 220, 195); fill-opacity: 1; stroke-width: 0px;"/></g><g class="shape-group" data-index="2" clip-path="url(#clipe22fd9y)"><path data-index="2" fill-rule="evenodd" d="M60,435H1085V235.21H60Z" style="opacity: 1; stroke: rgb(0, 0, 0); stroke-opacity: 0; fill: rgb(230, 195, 195); fill-opacity: 1; stroke-width: 0px;"/></g><g class="shape-group" data-index="3" clip-path="url(#clipe22fd9y)"><path data-index="3" fill-rule="evenodd" d="M60,155.3H1085V-563.94H60Z" style="opacity: 1; stroke: rgb(0, 0, 0); stroke-opacity: 0; fill: rgb(195, 230, 195); fill-opacity: 1; stroke-width: 0px;"/></g><g class="shape-group" data-index="4" clip-path="url(#clipe22fd9y)"><path data-index="4" fill-rule="evenodd" d="M60,235.21H1085V155.3H60Z" style="opacity: 1; stroke: rgb(0, 0, 0); stroke-opacity: 0; fill: rgb(230, 220, 195); fill-opacity: 1; stroke-width: 0px;"/></g><g class="shape-group" data-index="5" clip-path="url(#clipe22fd9y)"><path data-index="5" fill-rule="evenodd" d="M60,435H1085V235.21H60Z" style="opacity: 1; stroke: rgb(0, 0, 0); stroke-opacity: 0; fill: rgb(230, 195, 195); fill-opacity: 1; stroke-width: 0px;"/></g></g></g><g class="cartesianlayer"><g class="subplot xy"><g class="layer-subplot"><g class="shapelayer"/><g class="imagelayer"/></g><g class="minor-gridlayer"><g class="x"/><g class="y"/></g><g class="gridlayer"><g class="x"><path class="xgrid crisp" transform="translate(196.67,0)" d="M0,50v385" style="stroke: rgb(0, 0, 0); stroke-opacity: 0.05; stroke-width: 1px;"/><path class="xgrid crisp" transform="translate(333.33,0)" d="M0,50v385" style="stroke: rgb(0, 0, 0); stroke-opacity: 0.05; stroke-width: 1px;"/><path class="xgrid crisp" transform="translate(470,0)" d="M0,50v385" style="stroke: rgb(0, 0, 0); stroke-opacity: 0.05; stroke-width: 1px;"/><path class="xgrid crisp" transform="translate(606.67,0)" d="M0,50v385" style="stroke: rgb(0, 0, 0); stroke-opacity: 0.05; stroke-width: 1px;"/><path class="xgrid crisp" transform="translate(743.33,0)" d="M0,50v385" style="stroke: rgb(0, 0, 0); stroke-opacity: 0.05; stroke-width: 1px;"/><path class="xgrid crisp" transform="translate(880,0)" d="M0,50v385" style="stroke: rgb(0, 0, 0); stroke-opacity: 0.05; stroke-width: 1px;"/><path class="xgrid crisp" transform="translate(1016.67,0)" d="M0,50v385" style="stroke: rgb(0, 0, 0); stroke-opacity: 0.05; stroke-width: 1px;"/></g><g class="y"><path class="ygrid crisp" transform="translate(0,385.05)" d="M60,0h1025" style="stroke: rgb(0, 0, 0); stroke-opacity: 0.05; stroke-width: 1px;"/><path class="ygrid crisp" transform="translate(0,335.11)" d="M60,0h1025" style="stroke: rgb(0, 0, 0); stroke-opacity: 0.05; stroke-width: 1px;"/><path class="ygrid crisp" transform="translate(0,285.15999999999997)" d="M60,0h1025" style="stroke: rgb(0, 0, 0); stroke-opacity: 0.05; stroke-width: 1px;"/><path class="ygrid crisp" transform="translate(0,235.21)" d="M60,0h1025" style="stroke: rgb(0, 0, 0); stroke-opacity: 0.05; stroke-width: 1px;"/><path class="ygrid crisp" transform="translate(0,185.26)" d="M60,0h1025" style="stroke: rgb(0, 0, 0); stroke-opacity: 0.05; stroke-width: 1px;"/><path class="ygrid crisp" transform="translate(0,135.32)" d="M60,0h1025" style="stroke: rgb(0, 0, 0); stroke-opacity: 0.05; stroke-width: 1px;"/><path class="ygrid crisp" transform="translate(0,85.37)" d="M60,0h1025" style="stroke: rgb(0, 0, 0); stroke-opacity: 0.05; stroke-width: 1px;"/></g></g><g class="zerolinelayer"><path class="xzl zl crisp" transform="translate(60,0)" d="M0,50v385" style="stroke: rgb(0, 0, 0); stroke-opacity: 0.05; stroke-width: 2px;"/><path class="yzl zl crisp" transform="translate(0,435)" d="M60,0h1025" style="stroke: rgb(0, 0, 0); stroke-opacity: 0.05; stroke-width: 2px;"/></g><g class="layer-between"><g class="shapelayer"/><g class="imagelayer"/></g><path class="xlines-below"/><path class="ylines-below"/><g class="overlines-below"/><g class="xaxislayer-below"/><g class="yaxislayer-below"/><g class="overaxes-below"/><g class="overplot"><g class="xy" transform="translate(60,50)" clip-path="url(#clipe22fd9xyplot)"><g class="scatterlayer mlayer"><g class="trace scatter trace1396e0" style="stroke-miterlimit: 2; opacity: 1;"><g class="fills"/><g class="errorbars"/><g class="lines"><path class="js-line" d="M6.83,21.12L20.5,19.34L27.33,19.15L47.83,19.31L54.67,18.78L68.33,18.55L102.5,18.48L239.17,19.95L273.33,21.06L307.5,25.6L341.67,20.63L375.83,22.45L410,25.05L444.17,29.42L478.33,30.63L512.5,21.97L546.67,21.68L751.67,22.22L785.83,22.55L888.33,23.93L922.5,24.45L956.67,26.18L990.83,26.74L1025,29.11" style="vector-effect: none; fill: none; stroke: rgb(92, 184, 92); stroke-opacity: 1; stroke-width: 2px; opacity: 1;"/></g><g class="points"/><g class="text"/></g><g class="trace scatter traced050b9" style="stroke-miterlimit: 2; opacity: 1;"><g class="fills"/><g class="errorbars"/><g class="lines"><path class="js-line" d="M6.83,21.02L20.5,19.69L27.33,20.7L41,19.79L47.83,22.54L54.67,25.74L61.5,25.24L68.33,27.64L102.5,27.7L136.67,28.47L170.83,30.66L410,33.11L444.17,34.41L478.33,33.69L512.5,36.58L546.67,33.43L580.83,29.1L615,26.3L649.17,25.78L785.83,27.36L820,29.17L922.5,30.78L956.67,33.3L990.83,34.34L1025,37.68" style="vector-effect: none; fill: none; stroke: rgb(92, 184, 92); stroke-opacity: 1; stroke-width: 2px; opacity: 1;"/></g><g class="points"/><g class="text"/></g><g class="trace scatter trace942c8b" style="stroke-miterlimit: 2; opacity: 1;"><g class="fills"/><g class="errorbars"/><g class="lines"><path class="js-line" d="M6.83,21.03L20.5,19.22L27.33,18.96L47.83,19.14L54.67,18.7L68.33,18.41L102.5,18.33L239.17,19.63L273.33,20.95L307.5,24.2L341.67,22.7L410,26.82L444.17,26.67L478.33,27.96L512.5,21.24L615,20.58L649.17,20.65L888.33,23.29L922.5,24.26L956.67,27.21L990.83,27.69L1025,29.93" style="vector-effect: none; fill: none; stroke: rgb(92, 184, 92); stroke-opacity: 1; stroke-width: 2px; opacity: 1;"/></g><g class="points"/><g class="text"/></g><g class="trace scatter tracead0585" style="stroke-miterlimit: 2; opacity: 1;"><g class="fills"/><g class="errorbars"/><g class="lines"><path class="js-line" d="M6.83,21.95L20.5,20.34L27.33,21.14L41,20.21L47.83,22.64L54.67,23.82L61.5,23.51L68.33,24.5L102.5,24.83L136.67,25.52L170.83,27.2L239.17,27.86L273.33,28.37L375.83,29.17L410,29.08L444.17,30.37L478.33,30.55L512.5,32.63L546.67,29.47L580.83,26.91L615,25.68L649.17,25.48L683.33,26.38L717.5,27.75L751.67,27.75L785.83,27.57L820,29.79L854.17,29.57L888.33,30.44L922.5,30.88L956.67,33.47L990.83,34.13L1025,37.76" style="vector-effect: none; fill: none; stroke: rgb(92, 184, 92); stroke-opacity: 1; stroke-width: 2px; opacity: 1;"/></g><g class="points"/><g class="text"/></g><g class="trace scatter trace1405c8" style="stroke-miterlimit: 2; opacity: 1;"><g class="fills"/><g class="errorbars"/><g class="lines"><path class="js-line" d="M6.83,21.71L20.5,19.73L27.33,19.44L47.83,19.69L54.67,19.1L68.33,18.76L102.5,18.74L239.17,20.15L273.33,21.65L307.5,22.43L341.67,21.03L410,23.69L444.17,23.95L478.33,24.74L512.5,21.96L649.17,21.67L683.33,22.3L785.83,22.79L820,23.1L922.5,25.16L956.67,27.8L990.83,28.04L1025,30.38" style="vector-effect: none; fill: none; stroke: rgb(92, 184, 92); stroke-opacity: 1; stroke-width: 2px; opacity: 1;"/></g><g class="points"/><g class="text"/></g><g class="trace scatter traced3421c" style="stroke-miterlimit: 2; opacity: 1;"><g class="fills"/><g class="errorbars"/><g class="lines"><path class="js-line" d="M6.83,20.27L20.5,19.26L27.33,19.77L41,19.2L47.83,20.6L54.67,21.2L61.5,20.82L68.33,21.75L102.5,21.98L136.67,22.74L170.83,24.51L239.17,25.36L273.33,25.75L341.67,26.05L375.83,26.26L410,26.27L444.17,27.45L512.5,28.28L546.67,26.87L580.83,24.95L615,24.61L649.17,24.5L683.33,25.31L717.5,26.47L751.67,26.46L785.83,26.38L820,28.18L854.17,28.05L888.33,28.69L922.5,29.05L956.67,31.37L990.83,32.16L1025,35.21" style="vector-effect: none; fill: none; stroke: rgb(92, 184, 92); stroke-opacity: 1; stroke-width: 2px; opacity: 1;"/></g><g class="points"/><g class="text"/></g><g class="trace scatter traceadb066" style="stroke-miterlimit: 2; opacity: 1;"><g class="fills"/><g class="errorbars"/><g class="lines"><path class="js-line" d="M6.83,21.17L27.33,19.36L34.17,19.54L61.5,18.86L68.33,18.8L170.83,19.31L205,19.65L239.17,19.76L273.33,20.74L307.5,26.38L341.67,22.08L410,29.06L444.17,31.42L478.33,30.92L512.5,22.13L615,21.88L649.17,22.05L922.5,25.69L956.67,27.28L990.83,28.27L1025,31.12" style="vector-effect: none; fill: none; stroke: rgb(92, 184, 92); stroke-opacity: 1; stroke-width: 2px; opacity: 1;"/></g><g class="points"/><g class="text"/></g><g class="trace scatter trace745994" style="stroke-miterlimit: 2; opacity: 1;"><g class="fills"/><g class="errorbars"/><g class="lines"><path class="js-line" d="M6.83,20.71L20.5,19.71L27.33,20.81L41,19.96L47.83,23.27L54.67,27.49L61.5,27.05L68.33,29.41L102.5,29L136.67,29.8L170.83,33.66L307.5,34.48L341.67,35.11L375.83,35.21L410,34.5L444.17,36.47L478.33,36.64L512.5,38.36L546.67,35.68L580.83,29.6L615,26.29L683.33,26.15L717.5,26.73L785.83,27.02L820,28.56L854.17,28.64L888.33,29.55L922.5,29.56L956.67,31.8L990.83,32.88L1025,36.11" style="vector-effect: none; fill: none; stroke: rgb(92, 184, 92); stroke-opacity: 1; stroke-width: 2px; opacity: 1;"/></g><g class="points"/><g class="text"/></g><g class="trace scatter trace48c517" style="stroke-miterlimit: 2; opacity: 1;"><g class="fills"/><g class="errorbars"/><g class="lines"><path class="js-line" d="M6.83,21.23L20.5,19.47L27.33,19.24L47.83,19.48L54.67,18.98L68.33,18.74L102.5,18.63L239.17,19.82L273.33,20.58L307.5,21.92L341.67,21.63L410,23.28L444.17,23.19L478.33,23.16L512.5,21.67L649.17,21.68L683.33,22.31L820,23.42L854.17,24.32L922.5,26.46L956.67,29.32L990.83,30.74L1025,34.02" style="vector-effect: none; fill: none; stroke: rgb(92, 184, 92); stroke-opacity: 1; stroke-width: 2px; opacity: 1;"/></g><g class="points"/><g class="text"/></g><g class="trace scatter tracec3f48c" style="stroke-miterlimit: 2; opacity: 1;"><g class="fills"/><g class="errorbars"/><g class="lines"><path class="js-line" d="M6.83,20.59L20.5,19.14L27.33,19.71L41,19.21L47.83,20.41L68.33,20.88L102.5,21.14L307.5,23.55L341.67,23.51L512.5,25.3L546.67,24.89L615,23.84L649.17,24.21L751.67,25.81L785.83,25.94L820,27.75L854.17,27.61L922.5,28.71L956.67,31.12L990.83,32.03L1025,35.47" style="vector-effect: none; fill: none; stroke: rgb(92, 184, 92); stroke-opacity: 1; stroke-width: 2px; opacity: 1;"/></g><g class="points"/><g class="text"/></g><g class="trace scatter tracebb91dd" style="stroke-miterlimit: 2; opacity: 1;"><g class="fills"/><g class="errorbars"/><g class="lines"><path class="js-line" d="M6.83,21.73L20.5,19.82L27.33,19.63L47.83,19.94L54.67,19.29L68.33,19L102.5,18.93L273.33,20.34L307.5,23.21L410,25.67L444.17,25.53L478.33,25.24L512.5,22.12L615,22L649.17,22.26L820,24.4L854.17,25.51L922.5,28.25L956.67,31L990.83,33.48L1025,37.35" style="vector-effect: none; fill: none; stroke: rgb(92, 184, 92); stroke-opacity: 1; stroke-width: 2px; opacity: 1;"/></g><g class="points"/><g class="text"/></g><g class="trace scatter traced8cc90" style="stroke-miterlimit: 2; opacity: 1;"><g class="fills"/><g class="errorbars"/><g class="lines"><path class="js-line" d="M6.83,21.16L20.5,19.72L27.33,20.29L41,19.88L47.83,21.04L54.67,21.6L61.5,21.27L68.33,22.05L102.5,22.48L307.5,25.61L341.67,25.72L478.33,27.38L512.5,28.24L615,25.79L649.17,26.27L785.83,27.83L820,29.43L854.17,29.61L888.33,30.61L922.5,30.77L956.67,33.05L990.83,34.14L1025,37.23" style="vector-effect: none; fill: none; stroke: rgb(92, 184, 92); stroke-opacity: 1; stroke-width: 2px; opacity: 1;"/></g><g class="points"/><g class="text"/></g><g class="trace scatter traced25fb1" style="stroke-miterlimit: 2; opacity: 1;"><g class="fills"/><g class="errorbars"/><g class="lines"><path class="js-line" d="M6.83,21.13L20.5,19.38L27.33,19.16L47.83,19.36L54.67,18.99L68.33,18.63L102.5,18.56L239.17,20.12L273.33,20.79L307.5,25.26L341.67,23.12L375.83,26.41L410,28.67L478.33,29.13L512.5,22L649.17,21.75L683.33,22.17L785.83,22.78L820,23.24L922.5,25.97L956.67,28.39L990.83,29.51L1025,32.42" style="vector-effect: none; fill: none; stroke: rgb(92, 184, 92); stroke-opacity: 1; stroke-width: 2px; opacity: 1;"/></g><g class="points"/><g class="text"/></g><g class="trace scatter trace4a8243" style="stroke-miterlimit: 2; opacity: 1;"><g class="fills"/><g class="errorbars"/><g class="lines"><path class="js-line" d="M6.83,20.41L20.5,19.51L27.33,20.24L41,19.46L47.83,21.84L54.67,24.25L61.5,23.94L68.33,25.64L102.5,25.69L136.67,26.33L170.83,28.67L341.67,30.1L375.83,30.45L410,30.22L444.17,31.52L478.33,31.54L512.5,33.42L546.67,31.03L580.83,27.23L615,24.95L649.17,24.75L751.67,26.28L785.83,26.54L820,28.33L854.17,28.57L922.5,29.83L956.67,32.27L990.83,33.3L1025,36.49" style="vector-effect: none; fill: none; stroke: rgb(92, 184, 92); stroke-opacity: 1; stroke-width: 2px; opacity: 1;"/></g><g class="points"/><g class="text"/></g><g class="trace scatter trace029cbf" style="stroke-miterlimit: 2; opacity: 1;"><g class="fills"/><g class="errorbars"/><g class="lines"><path class="js-line" d="M6.83,21.34L20.5,19.62L27.33,19.48L54.67,19.07L61.5,18.8L785.83,23.5L820,23.84L922.5,25.62L956.67,26.67L990.83,27.49L1025,30.5" style="vector-effect: none; fill: none; stroke: rgb(92, 184, 92); stroke-opacity: 1; stroke-width: 2px; opacity: 1;"/></g><g class="points"/><g class="text"/></g><g class="trace scatter trace01a0da" style="stroke-miterlimit: 2; opacity: 1;"><g class="fills"/><g class="errorbars"/><g class="lines"><path class="js-line" d="M6.83,20.85L20.5,19.63L27.33,20.15L61.5,19.75L68.33,20L615,26.3L649.17,27.3L785.83,29.32L820,31.05L854.17,31.53L888.33,32.81L922.5,33.02L956.67,35.58L990.83,37L1025,40.58" style="vector-effect: none; fill: none; stroke: rgb(92, 184, 92); stroke-opacity: 1; stroke-width: 2px; opacity: 1;"/></g><g class="points"/><g class="text"/></g><g class="trace scatter traceadbe69" style="stroke-miterlimit: 2; opacity: 1;"><g class="fills"/><g class="errorbars"/><g class="lines"><path class="js-line" d="M6.83,21.56L20.5,19.67L27.33,19.49L47.83,19.79L54.67,19.2L68.33,18.88L102.5,18.78L136.67,19.4L170.83,19.23L273.33,20.17L307.5,21.19L341.67,20.84L375.83,21.34L410,22.22L444.17,22.29L478.33,22.68L512.5,21.63L649.17,22.07L683.33,22.67L820,24.29L854.17,25.06L922.5,26.96L956.67,28.86L990.83,29.98L1025,33.08" style="vector-effect: none; fill: none; stroke: rgb(92, 184, 92); stroke-opacity: 1; stroke-width: 2px; opacity: 1;"/></g><g class="points"/><g class="text"/></g><g class="trace scatter trace4a5edc" style="stroke-miterlimit: 2; opacity: 1;"><g class="fills"/><g class="errorbars"/><g class="lines"><path class="js-line" d="M6.83,21.19L20.5,19.72L27.33,20.2L41,19.77L47.83,20.65L307.5,24.05L341.67,24.15L546.67,26.09L580.83,25.64L649.17,26.29L683.33,26.93L717.5,27.85L751.67,27.85L785.83,28.2L820,29.91L854.17,30.06L888.33,31.05L922.5,31.2L956.67,33.55L990.83,34.61L1025,37.79" style="vector-effect: none; fill: none; stroke: rgb(92, 184, 92); stroke-opacity: 1; stroke-width: 2px; opacity: 1;"/></g><g class="points"/><g class="text"/></g><g class="trace scatter trace3c8711" style="stroke-miterlimit: 2; opacity: 1;"><g class="fills"/><g class="errorbars"/><g class="lines"><path class="js-line" d="M6.83,21.21L20.5,19.38L27.33,19.16L47.83,19.26L54.67,18.85L68.33,18.58L102.5,18.56L205,19.48L239.17,20.72L273.33,20.73L307.5,29.85L341.67,26.65L375.83,31.2L410,34.81L444.17,35.18L478.33,35.77L512.5,22.72L580.83,21.86L615,21.68L751.67,22.7L785.83,23.15L854.17,24.37L888.33,25.38L922.5,26.33L956.67,28.56L990.83,29.81L1025,32.59" style="vector-effect: none; fill: none; stroke: rgb(92, 184, 92); stroke-opacity: 1; stroke-width: 2px; opacity: 1;"/></g><g class="points"/><g class="text"/></g><g class="trace scatter trace90f39f" style="stroke-miterlimit: 2; opacity: 1;"><g class="fills"/><g class="errorbars"/><g class="lines"><path class="js-line" d="M6.83,21.33L13.67,20.17L20.5,20.09L27.33,21.3L34.17,20.78L41,20.2L47.83,23.71L54.67,28.05L61.5,27.69L68.33,30.67L102.5,30.62L136.67,31.42L170.83,35.18L375.83,36.86L410,36.28L444.17,38.07L478.33,38.02L512.5,41.3L546.67,37.08L580.83,30.42L615,26.28L649.17,25.43L683.33,25.69L751.67,26.27L785.83,26.48L820,28.2L854.17,28.18L888.33,29.11L922.5,29.25L956.67,31.6L990.83,32.49L1025,35.59" style="vector-effect: none; fill: none; stroke: rgb(92, 184, 92); stroke-opacity: 1; stroke-width: 2px; opacity: 1;"/></g><g class="points"/><g class="text"/></g><g class="trace scatter traceefa172" style="stroke-miterlimit: 2; opacity: 1;"><g class="fills"/><g class="errorbars"/><g class="lines"><path class="js-line" d="M6.83,20.97L20.5,19.37L27.33,19.15L47.83,19.26L54.67,18.84L68.33,18.57L102.5,18.54L239.17,19.95L273.33,21.56L307.5,22.59L341.67,20.7L444.17,24.65L478.33,25.57L512.5,22.13L546.67,22.02L649.17,21.87L683.33,22.47L854.17,23.95L888.33,24.34L922.5,25.1L956.67,27.16L990.83,27.46L1025,29.83" style="vector-effect: none; fill: none; stroke: rgb(92, 184, 92); stroke-opacity: 1; stroke-width: 2px; opacity: 1;"/></g><g class="points"/><g class="text"/></g><g class="trace scatter trace368779" style="stroke-miterlimit: 2; opacity: 1;"><g class="fills"/><g class="errorbars"/><g class="lines"><path class="js-line" d="M6.83,20.83L20.5,19.66L27.33,20.3L41,19.65L47.83,21.56L54.67,22.92L61.5,22.53L68.33,23.71L102.5,23.87L136.67,24.4L170.83,25.82L239.17,26.5L273.33,26.65L375.83,27.4L410,27.39L444.17,28.53L478.33,28.65L512.5,29.42L546.67,28.35L580.83,26.09L615,24.82L683.33,25.57L717.5,26.47L785.83,26.7L820,28.59L854.17,28.68L888.33,29.67L922.5,29.93L956.67,32.55L990.83,33.57L1025,37.02" style="vector-effect: none; fill: none; stroke: rgb(92, 184, 92); stroke-opacity: 1; stroke-width: 2px; opacity: 1;"/></g><g class="points"/><g class="text"/></g><g class="trace scatter trace0d9557" style="stroke-miterlimit: 2; opacity: 1;"><g class="fills"/><g class="errorbars"/><g class="lines"><path class="js-line" d="M6.83,21.09L27.33,19.22L34.17,19.36L68.33,18.7L102.5,18.67L239.17,19.87L273.33,20.69L307.5,25.39L341.67,26.81L375.83,28.84L410,29.13L478.33,28.13L512.5,22.58L615,21.96L649.17,22.17L854.17,25.4L888.33,26.79L922.5,28.48L956.67,31.6L990.83,34.15L1025,38.33" style="vector-effect: none; fill: none; stroke: rgb(92, 184, 92); stroke-opacity: 1; stroke-width: 2px; opacity: 1;"/></g><g class="points"/><g class="text"/></g><g class="trace scatter trace1ca454" style="stroke-miterlimit: 2; opacity: 1;"><g class="fills"/><g class="errorbars"/><g class="lines"><path class="js-line" d="M6.83,20.01L20.5,19.27L27.33,19.98L41,19.46L47.83,20.8L54.67,22.22L61.5,21.85L68.33,23.21L102.5,23.29L136.67,23.89L170.83,26.1L375.83,27.71L410,27.47L444.17,28.9L478.33,29.37L512.5,30.37L546.67,28.38L580.83,25.58L615,24.42L683.33,25.29L717.5,26.04L785.83,26.21L820,27.99L854.17,27.98L888.33,29L922.5,29.13L956.67,31.64L990.83,32.65L1025,36.14" style="vector-effect: none; fill: none; stroke: rgb(92, 184, 92); stroke-opacity: 1; stroke-width: 2px; opacity: 1;"/></g><g class="points"/><g class="text"/></g><g class="trace scatter tracef7d699" style="stroke-miterlimit: 2; opacity: 1;"><g class="fills"/><g class="errorbars"/><g class="lines"><path class="js-line" d="M6.83,21.19L20.5,19.47L27.33,19.27L47.83,19.45L54.67,18.96L68.33,18.7L102.5,18.66L273.33,20.4L307.5,21.24L341.67,20.34L375.83,21.04L444.17,22.64L478.33,22.75L512.5,21.4L546.67,21.4L751.67,22.44L785.83,22.8L888.33,24.62L922.5,25.27L956.67,27.08L990.83,27.79L1025,30.62" style="vector-effect: none; fill: none; stroke: rgb(92, 184, 92); stroke-opacity: 1; stroke-width: 2px; opacity: 1;"/></g><g class="points"/><g class="text"/></g><g class="trace scatter tracec8a31f" style="stroke-miterlimit: 2; opacity: 1;"><g class="fills"/><g class="errorbars"/><g class="lines"><path class="js-line" d="M6.83,21.4L13.67,20.13L20.5,19.68L27.33,20.32L34.17,20.12L41,19.87L47.83,21.01L54.67,21.49L61.5,21.16L68.33,21.85L102.5,22.14L307.5,25.15L341.67,25.27L478.33,26.88L512.5,27.25L615,25.63L649.17,26.15L751.67,27.59L785.83,27.93L820,29.7L854.17,29.81L888.33,30.83L922.5,30.99L956.67,33.47L990.83,34.61L1025,38.18" style="vector-effect: none; fill: none; stroke: rgb(92, 184, 92); stroke-opacity: 1; stroke-width: 2px; opacity: 1;"/></g><g class="points"/><g class="text"/></g><g class="trace scatter trace02ca60" style="stroke-miterlimit: 2; opacity: 1;"><g class="fills"/><g class="errorbars"/><g class="lines"><path class="js-line" d="M6.83,21.17L20.5,19.32L27.33,19.1L47.83,19.39L54.67,18.94L68.33,18.67L102.5,18.58L239.17,19.8L273.33,21.13L307.5,23.34L341.67,22.01L410,25.68L444.17,25.75L478.33,26.47L512.5,21.64L615,21.17L649.17,21.39L854.17,23.81L888.33,24.66L922.5,25.65L956.67,28.26L990.83,29.29L1025,32.27" style="vector-effect: none; fill: none; stroke: rgb(92, 184, 92); stroke-opacity: 1; stroke-width: 2px; opacity: 1;"/></g><g class="points"/><g class="text"/></g><g class="trace scatter trace284e7a" style="stroke-miterlimit: 2; opacity: 1;"><g class="fills"/><g class="errorbars"/><g class="lines"><path class="js-line" d="M6.83,20.89L20.5,19.97L27.33,20.83L41,20.05L47.83,22.04L54.67,23.28L61.5,22.86L68.33,23.98L102.5,24.18L136.67,24.76L170.83,26.22L239.17,26.93L273.33,27.25L341.67,27.69L375.83,28.06L410,28.02L444.17,29.02L478.33,29.22L512.5,30.53L615,25.17L649.17,25.35L751.67,27.07L785.83,27.16L820,29.25L854.17,29.08L888.33,30.16L922.5,30.41L956.67,33.32L990.83,34.2L1025,37.89" style="vector-effect: none; fill: none; stroke: rgb(92, 184, 92); stroke-opacity: 1; stroke-width: 2px; opacity: 1;"/></g><g class="points"/><g class="text"/></g><g class="trace scatter traceb09702" style="stroke-miterlimit: 2; opacity: 1;"><g class="fills"/><g class="errorbars"/><g class="lines"><path class="js-line" d="M6.83,21.56L20.5,19.61L27.33,19.42L47.83,19.73L54.67,19.1L68.33,18.78L102.5,18.71L273.33,20.27L307.5,21.3L341.67,20.45L375.83,21.1L444.17,22.86L478.33,23.5L512.5,21.67L546.67,21.61L751.67,22.79L785.83,23.24L854.17,24.25L888.33,25.09L922.5,25.67L956.67,27.4L990.83,28.28L1025,31.07" style="vector-effect: none; fill: none; stroke: rgb(92, 184, 92); stroke-opacity: 1; stroke-width: 2px; opacity: 1;"/></g><g class="points"/><g class="text"/></g><g class="trace scatter trace3bff8f" style="stroke-miterlimit: 2; opacity: 1;"><g class="fills"/><g class="errorbars"/><g class="lines"><path class="js-line" d="M6.83,21.54L20.5,19.87L27.33,20.4L41,19.97L47.83,21.2L54.67,21.62L61.5,21.27L68.33,21.9L102.5,22.35L307.5,25.53L341.67,25.6L478.33,27.29L512.5,27.99L615,26.32L649.17,26.85L751.67,28.34L785.83,28.66L820,30.26L854.17,30.42L888.33,31.33L922.5,31.44L956.67,33.67L990.83,34.75L1025,37.84" style="vector-effect: none; fill: none; stroke: rgb(92, 184, 92); stroke-opacity: 1; stroke-width: 2px; opacity: 1;"/></g><g class="points"/><g class="text"/></g><g class="trace scatter trace2a5684" style="stroke-miterlimit: 2; opacity: 1;"><g class="fills"/><g class="errorbars"/><g class="lines"><path class="js-line" d="M6.83,20.94L20.5,19.24L27.33,19.01L54.67,19.33L61.5,18.7L68.33,18.4L102.5,18.38L239.17,19.58L273.33,21.44L307.5,31.69L341.67,22.39L375.83,29.91L410,34.66L444.17,37.77L478.33,37.2L512.5,22.06L546.67,21.4L717.5,21.5L751.67,21.61L888.33,23.44L922.5,24.19L956.67,26.32L990.83,26.9L1025,29.15" style="vector-effect: none; fill: none; stroke: rgb(92, 184, 92); stroke-opacity: 1; stroke-width: 2px; opacity: 1;"/></g><g class="points"/><g class="text"/></g><g class="trace scatter traceff54a3" style="stroke-miterlimit: 2; opacity: 1;"><g class="fills"/><g class="errorbars"/><g class="lines"><path class="js-line" d="M6.83,20.94L13.67,20.32L20.5,20.65L27.33,22.41L34.17,21.54L41,20.55L47.83,26.49L54.67,33.59L61.5,33.11L68.33,37.18L102.5,36.89L136.67,37.96L170.83,42.57L239.17,43.28L273.33,42.57L307.5,42.51L341.67,43.44L375.83,43.77L410,42.82L444.17,45.35L478.33,44.33L512.5,47.29L546.67,43.72L580.83,34.03L615,27.28L649.17,25.2L683.33,25.27L751.67,26.04L785.83,26.06L820,27.76L854.17,27.94L922.5,28.77L956.67,30.99L990.83,31.79L1025,34.92" style="vector-effect: none; fill: none; stroke: rgb(92, 184, 92); stroke-opacity: 1; stroke-width: 2px; opacity: 1;"/></g><g class="points"/><g class="text"/></g><g class="trace scatter trace158c86" style="stroke-miterlimit: 2; opacity: 1;"><g class="fills"/><g class="errorbars"/><g class="lines"><path class="js-line" d="M6.83,21.18L20.5,19.51L27.33,19.32L47.83,19.57L54.67,19.05L68.33,18.75L102.5,18.66L273.33,20.12L307.5,21.32L341.67,20.47L375.83,21.38L444.17,23.28L478.33,23.63L512.5,21.65L546.67,21.57L820,23.15L854.17,23.73L922.5,24.82L956.67,26.69L990.83,27.21L1025,29.73" style="vector-effect: none; fill: none; stroke: rgb(92, 184, 92); stroke-opacity: 1; stroke-width: 2px; opacity: 1;"/></g><g class="points"/><g class="text"/></g><g class="trace scatter tracea2f4f2" style="stroke-miterlimit: 2; opacity: 1;"><g class="fills"/><g class="errorbars"/><g class="lines"><path class="js-line" d="M6.83,20.05L20.5,19.32L27.33,19.75L41,19.29L47.83,20.39L68.33,21.29L102.5,21.53L136.67,22.08L170.83,23.5L273.33,24.36L307.5,25.16L410,25.15L444.17,26.36L512.5,27.28L546.67,26.31L580.83,24.89L615,24.58L683.33,25.75L717.5,26.83L785.83,27.03L820,28.78L922.5,30.03L956.67,32.28L990.83,33.25L1025,36.26" style="vector-effect: none; fill: none; stroke: rgb(92, 184, 92); stroke-opacity: 1; stroke-width: 2px; opacity: 1;"/></g><g class="points"/><g class="text"/></g><g class="trace scatter trace96634f" style="stroke-miterlimit: 2; opacity: 1;"><g class="fills"/><g class="errorbars"/><g class="lines"><path class="js-line" d="M6.83,21.15L20.5,19.51L27.33,19.3L47.83,19.61L54.67,19.05L68.33,18.76L102.5,18.68L273.33,20.24L307.5,21.43L341.67,20.58L375.83,21.34L444.17,23.02L478.33,23.27L512.5,21.88L546.67,21.93L615,22.01L649.17,22.03L717.5,22.87L751.67,23.01L922.5,25.63L956.67,27.17L990.83,28.02L1025,30.82" style="vector-effect: none; fill: none; stroke: rgb(92, 184, 92); stroke-opacity: 1; stroke-width: 2px; opacity: 1;"/></g><g class="points"/><g class="text"/></g><g class="trace scatter trace12d772" style="stroke-miterlimit: 2; opacity: 1;"><g class="fills"/><g class="errorbars"/><g class="lines"><path class="js-line" d="M6.83,20.77L20.5,19.52L27.33,20.02L41,19.57L47.83,20.59L54.67,21.03L61.5,20.66L68.33,21.39L102.5,21.72L375.83,25.21L410,25.45L512.5,27.11L546.67,26.79L580.83,25.73L615,25.69L683.33,26.56L717.5,27.42L785.83,27.84L820,29.59L854.17,29.79L888.33,30.76L922.5,30.91L956.67,33.34L990.83,34.49L1025,37.88" style="vector-effect: none; fill: none; stroke: rgb(92, 184, 92); stroke-opacity: 1; stroke-width: 2px; opacity: 1;"/></g><g class="points"/><g class="text"/></g><g class="trace scatter trace87cda3" style="stroke-miterlimit: 2; opacity: 1;"><g class="fills"/><g class="errorbars"/><g class="lines"><path class="js-line" d="M6.83,21.23L20.5,19.54L27.33,19.31L47.83,19.61L54.67,19.13L68.33,18.81L102.5,18.75L273.33,20.41L307.5,21.76L341.67,20.52L375.83,21.15L444.17,23.43L478.33,23.91L512.5,21.77L546.67,21.75L785.83,23.09L820,23.4L922.5,25.18L956.67,26.74L990.83,27.48L1025,30.16" style="vector-effect: none; fill: none; stroke: rgb(92, 184, 92); stroke-opacity: 1; stroke-width: 2px; opacity: 1;"/></g><g class="points"/><g class="text"/></g><g class="trace scatter trace758829" style="stroke-miterlimit: 2; opacity: 1;"><g class="fills"/><g class="errorbars"/><g class="lines"><path class="js-line" d="M6.83,21.32L20.5,19.87L27.33,20.47L41,19.89L47.83,21.17L54.67,21.84L61.5,21.35L68.33,22.26L102.5,22.56L341.67,25.5L375.83,25.63L478.33,26.96L512.5,27.67L615,25.35L649.17,25.75L751.67,27.11L785.83,27.5L820,29.21L854.17,29.27L888.33,30.32L922.5,30.32L956.67,32.82L990.83,33.87L1025,37.33" style="vector-effect: none; fill: none; stroke: rgb(92, 184, 92); stroke-opacity: 1; stroke-width: 2px; opacity: 1;"/></g><g class="points"/><g class="text"/></g><g class="trace scatter trace02bc67" style="stroke-miterlimit: 2; opacity: 1;"><g class="fills"/><g class="errorbars"/><g class="lines"><path class="js-line" d="M6.83,20.92L20.5,19.22L27.33,19.01L47.83,19.17L54.67,18.73L68.33,18.48L102.5,18.42L239.17,19.72L273.33,20.63L307.5,22.27L341.67,20.21L410,22.69L444.17,24.2L478.33,25.12L512.5,21.59L649.17,21.55L683.33,22.09L820,23.12L854.17,23.74L922.5,24.94L956.67,26.65L990.83,27.17L1025,29.74" style="vector-effect: none; fill: none; stroke: rgb(92, 184, 92); stroke-opacity: 1; stroke-width: 2px; opacity: 1;"/></g><g class="points"/><g class="text"/></g><g class="trace scatter trace61c68b" style="stroke-miterlimit: 2; opacity: 1;"><g class="fills"/><g class="errorbars"/><g class="lines"><path class="js-line" d="M6.83,22.03L13.67,20.23L20.5,20.06L27.33,20.58L34.17,20.27L41,19.87L47.83,21.77L54.67,22.82L61.5,22.53L68.33,23.33L102.5,23.61L273.33,26.21L307.5,26.58L410,27.24L444.17,28.05L478.33,28.07L512.5,29.28L546.67,28.32L580.83,26.56L615,25.62L649.17,25.56L751.67,27L785.83,27.27L820,29.14L854.17,29.24L888.33,30.26L922.5,30.52L956.67,33.04L990.83,34.07L1025,37.41" style="vector-effect: none; fill: none; stroke: rgb(92, 184, 92); stroke-opacity: 1; stroke-width: 2px; opacity: 1;"/></g><g class="points"/><g class="text"/></g><g class="trace scatter tracefb0b48" style="stroke-miterlimit: 2; opacity: 1;"><g class="fills"/><g class="errorbars"/><g class="lines"><path class="js-line" d="M6.83,21.3L20.5,19.52L27.33,19.27L47.83,19.56L54.67,19.05L68.33,18.8L102.5,18.68L239.17,19.8L273.33,20.49L307.5,23.11L341.67,21.2L410,24.64L444.17,25.62L478.33,26L512.5,21.85L649.17,21.68L683.33,22.13L820,23.07L854.17,23.78L922.5,24.98L956.67,27.02L990.83,27.71L1025,30.35" style="vector-effect: none; fill: none; stroke: rgb(92, 184, 92); stroke-opacity: 1; stroke-width: 2px; opacity: 1;"/></g><g class="points"/><g class="text"/></g><g class="trace scatter trace840cc7" style="stroke-miterlimit: 2; opacity: 1;"><g class="fills"/><g class="errorbars"/><g class="lines"><path class="js-line" d="M6.83,20.93L20.5,19.76L27.33,20.46L41,19.84L47.83,21.53L54.67,22.92L61.5,22.45L68.33,24.12L102.5,24.37L136.67,24.86L170.83,26.76L239.17,27.64L273.33,27.97L375.83,28.49L410,28.43L444.17,29.58L478.33,29.72L512.5,30.61L546.67,29.14L580.83,26.43L615,25.09L683.33,25.89L717.5,26.67L785.83,26.73L820,28.63L854.17,28.37L888.33,29.2L922.5,29.28L956.67,31.75L990.83,32.66L1025,36.13" style="vector-effect: none; fill: none; stroke: rgb(92, 184, 92); stroke-opacity: 1; stroke-width: 2px; opacity: 1;"/></g><g class="points"/><g class="text"/></g><g class="trace scatter trace60f763" style="stroke-miterlimit: 2; opacity: 1;"><g class="fills"/><g class="errorbars"/><g class="lines"><path class="js-line" d="M6.83,20.95L20.5,19.33L27.33,19.08L47.83,19.26L54.67,18.86L68.33,18.52L102.5,18.46L239.17,19.77L273.33,20.48L307.5,24.32L341.67,21.62L410,27.39L444.17,29.79L478.33,29.8L512.5,22.6L649.17,22.43L683.33,23.09L820,23.91L854.17,24.56L922.5,25.53L956.67,27.35L990.83,28.04L1025,30.34" style="vector-effect: none; fill: none; stroke: rgb(92, 184, 92); stroke-opacity: 1; stroke-width: 2px; opacity: 1;"/></g><g class="points"/><g class="text"/></g><g class="trace scatter trace01c24a" style="stroke-miterlimit: 2; opacity: 1;"><g class="fills"/><g class="errorbars"/><g class="lines"><path class="js-line" d="M6.83,20.85L20.5,19.61L27.33,20.63L41,19.64L47.83,22.47L54.67,25.64L61.5,25.27L68.33,27.55L102.5,27.63L136.67,28.49L170.83,31.23L375.83,32.71L410,32.29L444.17,34.04L478.33,34.09L512.5,35.64L546.67,33.22L580.83,28.25L615,25.36L649.17,24.72L683.33,25.19L717.5,26L751.67,25.99L785.83,26.1L820,27.82L854.17,27.92L888.33,28.83L922.5,29.12L956.67,31.44L990.83,32.39L1025,35.66" style="vector-effect: none; fill: none; stroke: rgb(92, 184, 92); stroke-opacity: 1; stroke-width: 2px; opacity: 1;"/></g><g class="points"/><g class="text"/></g><g class="trace scatter trace935dbd" style="stroke-miterlimit: 2; opacity: 1;"><g class="fills"/><g class="errorbars"/><g class="lines"><path class="js-line" d="M6.83,21.19L20.5,19.54L27.33,19.33L54.67,18.99L61.5,18.78L273.33,20.07L307.5,20.56L375.83,20.59L410,21.25L546.67,21.75L580.83,21.94L751.67,22.96L785.83,23.34L922.5,25.42L956.67,26.52L990.83,27.31L1025,30.23" style="vector-effect: none; fill: none; stroke: rgb(92, 184, 92); stroke-opacity: 1; stroke-width: 2px; opacity: 1;"/></g><g class="points"/><g class="text"/></g><g class="trace scatter trace07943a" style="stroke-miterlimit: 2; opacity: 1;"><g class="fills"/><g class="errorbars"/><g class="lines"><path class="js-line" d="M6.83,20.7L20.5,19.44L27.33,19.93L41,19.69L47.83,20.26L68.33,20.15L102.5,20.5L546.67,25.31L580.83,25.33L649.17,26.48L683.33,27.02L717.5,27.78L751.67,27.76L785.83,28.27L820,30.06L854.17,30.37L888.33,31.6L922.5,31.78L956.67,34.41L990.83,35.77L1025,39.47" style="vector-effect: none; fill: none; stroke: rgb(92, 184, 92); stroke-opacity: 1; stroke-width: 2px; opacity: 1;"/></g><g class="points"/><g class="text"/></g><g class="trace scatter tracebeca32" style="stroke-miterlimit: 2; opacity: 1;"><g class="fills"/><g class="errorbars"/><g class="lines"><path class="js-line" d="M6.83,21.37L20.5,19.49L27.33,19.19L47.83,19.4L54.67,19.07L68.33,18.73L102.5,18.7L239.17,19.89L273.33,21.34L307.5,30.49L341.67,33.62L375.83,36.98L410,37.16L444.17,37.03L478.33,35.72L512.5,23.99L546.67,22.87L683.33,22.69L717.5,22.94L820,24.74L854.17,26.4L922.5,30.15L956.67,34.06L1025,41.99" style="vector-effect: none; fill: none; stroke: rgb(92, 184, 92); stroke-opacity: 1; stroke-width: 2px; opacity: 1;"/></g><g class="points"/><g class="text"/></g><g class="trace scatter tracea78502" style="stroke-miterlimit: 2; opacity: 1;"><g class="fills"/><g class="errorbars"/><g class="lines"><path class="js-line" d="M6.83,20.37L20.5,19.74L27.33,20.62L41,19.85L47.83,22.36L54.67,25.68L61.5,25.18L68.33,27.85L102.5,27.89L136.67,28.82L170.83,32.4L375.83,34.01L410,32.96L444.17,35.19L478.33,35.7L512.5,37.67L546.67,33.83L580.83,28.02L615,25.71L649.17,24.89L683.33,25.25L751.67,25.78L785.83,25.83L820,27.57L854.17,27.47L888.33,28.39L922.5,28.51L956.67,30.97L990.83,31.92L1025,35.29" style="vector-effect: none; fill: none; stroke: rgb(92, 184, 92); stroke-opacity: 1; stroke-width: 2px; opacity: 1;"/></g><g class="points"/><g class="text"/></g><g class="trace scatter trace6f4749" style="stroke-miterlimit: 2; opacity: 1;"><g class="fills"/><g class="errorbars"/><g class="lines"><path class="js-line" d="M6.83,21.22L20.5,19.49L27.33,19.31L47.83,19.62L54.67,19.05L68.33,18.72L102.5,18.63L170.83,19.24L205,20.39L239.17,19.94L273.33,20.72L307.5,21.93L341.67,20.6L444.17,24.18L478.33,24.12L512.5,21.77L546.67,21.73L751.67,22.89L785.83,23.34L888.33,25.01L922.5,25.56L956.67,27.28L990.83,28.07L1025,30.77" style="vector-effect: none; fill: none; stroke: rgb(92, 184, 92); stroke-opacity: 1; stroke-width: 2px; opacity: 1;"/></g><g class="points"/><g class="text"/></g><g class="trace scatter traceee681a" style="stroke-miterlimit: 2; opacity: 1;"><g class="fills"/><g class="errorbars"/><g class="lines"><path class="js-line" d="M6.83,21.19L13.67,19.91L20.5,19.59L34.17,19.87L41,19.54L54.67,21.89L61.5,21.52L68.33,22.5L102.5,22.77L307.5,26.17L341.67,26.28L478.33,27.79L512.5,28.45L546.67,27.86L580.83,26.18L615,25.45L649.17,25.77L785.83,27.8L820,29.58L922.5,31.23L956.67,33.68L990.83,34.81L1025,38.07" style="vector-effect: none; fill: none; stroke: rgb(92, 184, 92); stroke-opacity: 1; stroke-width: 2px; opacity: 1;"/></g><g class="points"/><g class="text"/></g></g></g></g><path class="xlines-above crisp" d="M0,0" style="fill: none;"/><path class="ylines-above crisp" d="M0,0" style="fill: none;"/><g class="overlines-above"/><g class="xaxislayer-above"><g class="xtick"><text text-anchor="middle" x="0" y="451" transform="translate(60,0)" style="font-family: 'Lucida Grande', 'Open Sans', verdana, arial, sans-serif; font-size: 10px; fill: rgb(0, 0, 0); fill-opacity: 1; white-space: pre; opacity: 1;">0 bp</text></g><g class="xtick"><text text-anchor="middle" x="0" y="451" style="font-family: 'Lucida Grande', 'Open Sans', verdana, arial, sans-serif; font-size: 10px; fill: rgb(0, 0, 0); fill-opacity: 1; white-space: pre; opacity: 1;" transform="translate(196.67,0)">20 bp</text></g><g class="xtick"><text text-anchor="middle" x="0" y="451" style="font-family: 'Lucida Grande', 'Open Sans', verdana, arial, sans-serif; font-size: 10px; fill: rgb(0, 0, 0); fill-opacity: 1; white-space: pre; opacity: 1;" transform="translate(333.33,0)">40 bp</text></g><g class="xtick"><text text-anchor="middle" x="0" y="451" style="font-family: 'Lucida Grande', 'Open Sans', verdana, arial, sans-serif; font-size: 10px; fill: rgb(0, 0, 0); fill-opacity: 1; white-space: pre; opacity: 1;" transform="translate(470,0)">60 bp</text></g><g class="xtick"><text text-anchor="middle" x="0" y="451" style="font-family: 'Lucida Grande', 'Open Sans', verdana, arial, sans-serif; font-size: 10px; fill: rgb(0, 0, 0); fill-opacity: 1; white-space: pre; opacity: 1;" transform="translate(606.67,0)">80 bp</text></g><g class="xtick"><text text-anchor="middle" x="0" y="451" style="font-family: 'Lucida Grande', 'Open Sans', verdana, arial, sans-serif; font-size: 10px; fill: rgb(0, 0, 0); fill-opacity: 1; white-space: pre; opacity: 1;" transform="translate(743.33,0)">100 bp</text></g><g class="xtick"><text text-anchor="middle" x="0" y="451" style="font-family: 'Lucida Grande', 'Open Sans', verdana, arial, sans-serif; font-size: 10px; fill: rgb(0, 0, 0); fill-opacity: 1; white-space: pre; opacity: 1;" transform="translate(880,0)">120 bp</text></g><g class="xtick"><text text-anchor="middle" x="0" y="451" style="font-family: 'Lucida Grande', 'Open Sans', verdana, arial, sans-serif; font-size: 10px; fill: rgb(0, 0, 0); fill-opacity: 1; white-space: pre; opacity: 1;" transform="translate(1016.67,0)">140 bp</text></g></g><g class="yaxislayer-above"><g class="ytick"><text text-anchor="end" x="54" y="3.5" transform="translate(0,435)" style="font-family: 'Lucida Grande', 'Open Sans', verdana, arial, sans-serif; font-size: 10px; fill: rgb(0, 0, 0); fill-opacity: 1; white-space: pre; opacity: 1;">0</text></g><g class="ytick"><text text-anchor="end" x="54" y="3.5" style="font-family: 'Lucida Grande', 'Open Sans', verdana, arial, sans-serif; font-size: 10px; fill: rgb(0, 0, 0); fill-opacity: 1; white-space: pre; opacity: 1;" transform="translate(0,385.05)">5</text></g><g class="ytick"><text text-anchor="end" x="54" y="3.5" style="font-family: 'Lucida Grande', 'Open Sans', verdana, arial, sans-serif; font-size: 10px; fill: rgb(0, 0, 0); fill-opacity: 1; white-space: pre; opacity: 1;" transform="translate(0,335.11)">10</text></g><g class="ytick"><text text-anchor="end" x="54" y="3.5" style="font-family: 'Lucida Grande', 'Open Sans', verdana, arial, sans-serif; font-size: 10px; fill: rgb(0, 0, 0); fill-opacity: 1; white-space: pre; opacity: 1;" transform="translate(0,285.15999999999997)">15</text></g><g class="ytick"><text text-anchor="end" x="54" y="3.5" style="font-family: 'Lucida Grande', 'Open Sans', verdana, arial, sans-serif; font-size: 10px; fill: rgb(0, 0, 0); fill-opacity: 1; white-space: pre; opacity: 1;" transform="translate(0,235.21)">20</text></g><g class="ytick"><text text-anchor="end" x="54" y="3.5" style="font-family: 'Lucida Grande', 'Open Sans', verdana, arial, sans-serif; font-size: 10px; fill: rgb(0, 0, 0); fill-opacity: 1; white-space: pre; opacity: 1;" transform="translate(0,185.26)">25</text></g><g class="ytick"><text text-anchor="end" x="54" y="3.5" style="font-family: 'Lucida Grande', 'Open Sans', verdana, arial, sans-serif; font-size: 10px; fill: rgb(0, 0, 0); fill-opacity: 1; white-space: pre; opacity: 1;" transform="translate(0,135.32)">30</text></g><g class="ytick"><text text-anchor="end" x="54" y="3.5" style="font-family: 'Lucida Grande', 'Open Sans', verdana, arial, sans-serif; font-size: 10px; fill: rgb(0, 0, 0); fill-opacity: 1; white-space: pre; opacity: 1;" transform="translate(0,85.37)">35</text></g></g><g class="overaxes-above"/></g></g><g class="polarlayer"/><g class="smithlayer"/><g class="ternarylayer"/><g class="geolayer"/><g class="funnelarealayer"/><g class="pielayer"/><g class="iciclelayer"/><g class="treemaplayer"/><g class="sunburstlayer"/><g class="glimages"/><defs id="topdefs-e22fd9"><g class="clips"/></defs><g class="layer-above"><g class="imagelayer"/><g class="shapelayer"/></g><g class="infolayer"><g class="g-gtitle"><text class="gtitle" x="550" y="25" text-anchor="middle" dy="0em" style="opacity: 1; font-family: 'Lucida Grande', 'Open Sans', verdana, arial, sans-serif; font-size: 20px; fill: rgb(42, 63, 95); fill-opacity: 1; white-space: pre;"><tspan class="line" dy="0em" x="550" y="25">FastQC: Mean Quality Scores</tspan><tspan class="line" dy="1.3em" x="550" y="25">​<tspan style="font-size:70%" dy="-0.6em">50 samples</tspan><tspan dy="0.42em">​</tspan></tspan></text></g><g class="g-xtitle"><text class="xtitle" x="572.5" y="472.3" text-anchor="middle" style="opacity: 0.3; font-family: 'Lucida Grande', 'Open Sans', verdana, arial, sans-serif; font-size: 14px; fill: rgb(0, 0, 0); fill-opacity: 1; white-space: pre;">Position (bp)</text></g><g class="g-ytitle"><text class="ytitle" transform="rotate(-90,26.865625,242.5)" x="26.865625" y="242.5" text-anchor="middle" style="opacity: 0.3; font-family: 'Lucida Grande', 'Open Sans', verdana, arial, sans-serif; font-size: 14px; fill: rgb(0, 0, 0); fill-opacity: 1; white-space: pre;">Phred Score</text></g></g></svg>