<svg class="main-svg" xmlns="http://www.w3.org/2000/svg" xmlns:xlink="http://www.w3.org/1999/xlink" width="2200" height="1000" style="" viewBox="0 0 1100 500"><rect x="0" y="0" width="1100" height="500" style="fill: rgb(255, 255, 255); fill-opacity: 1;"/><defs id="defs-362cb4"><g class="clips"><clipPath id="clip362cb4xyplot" class="plotclip"><rect width="1009" height="385"/></clipPath><clipPath class="axesclip" id="clip362cb4x"><rect x="65" y="0" width="1009" height="500"/></clipPath><clipPath class="axesclip" id="clip362cb4y"><rect x="0" y="50" width="1100" height="385"/></clipPath><clipPath class="axesclip" id="clip362cb4xy"><rect x="65" y="50" width="1009" height="385"/></clipPath></g><g class="gradients"/><g class="patterns"/></defs><g class="bglayer"/><g class="layer-below"><g class="imagelayer"/><g class="shapelayer"/></g><g class="cartesianlayer"><g class="subplot xy"><g class="layer-subplot"><g class="shapelayer"/><g class="imagelayer"/></g><g class="minor-gridlayer"><g class="x"/><g class="y"/></g><g class="gridlayer"><g class="x"><path class="xgrid crisp" transform="translate(266.8,0)" d="M0,50v385" style="stroke: rgb(0, 0, 0); stroke-opacity: 0.05; stroke-width: 1px;"/><path class="xgrid crisp" transform="translate(468.6,0)" d="M0,50v385" style="stroke: rgb(0, 0, 0); stroke-opacity: 0.05; stroke-width: 1px;"/><path class="xgrid crisp" transform="translate(670.4,0)" d="M0,50v385" style="stroke: rgb(0, 0, 0); stroke-opacity: 0.05; stroke-width: 1px;"/><path class="xgrid crisp" transform="translate(872.2,0)" d="M0,50v385" style="stroke: rgb(0, 0, 0); stroke-opacity: 0.05; stroke-width: 1px;"/></g><g class="y"><path class="ygrid crisp" transform="translate(0,381.24)" d="M65,0h1009" style="stroke: rgb(0, 0, 0); stroke-opacity: 0.05; stroke-width: 1px;"/><path class="ygrid crisp" transform="translate(0,327.48)" d="M65,0h1009" style="stroke: rgb(0, 0, 0); stroke-opacity: 0.05; stroke-width: 1px;"/><path class="ygrid crisp" transform="translate(0,273.72)" d="M65,0h1009" style="stroke: rgb(0, 0, 0); stroke-opacity: 0.05; stroke-width: 1px;"/><path class="ygrid crisp" transform="translate(0,219.96)" d="M65,0h1009" style="stroke: rgb(0, 0, 0); stroke-opacity: 0.05; stroke-width: 1px;"/><path class="ygrid crisp" transform="translate(0,166.2)" d="M65,0h1009" style="stroke: rgb(0, 0, 0); stroke-opacity: 0.05; stroke-width: 1px;"/><path class="ygrid crisp" transform="translate(0,112.44)" d="M65,0h1009" style="stroke: rgb(0, 0, 0); stroke-opacity: 0.05; stroke-width: 1px;"/><path class="ygrid crisp" transform="translate(0,58.68)" d="M65,0h1009" style="stroke: rgb(0, 0, 0); stroke-opacity: 0.05; stroke-width: 1px;"/></g></g><g class="zerolinelayer"><path class="xzl zl crisp" transform="translate(65,0)" d="M0,50v385" style="stroke: rgb(0, 0, 0); stroke-opacity: 0.05; stroke-width: 2px;"/><path class="yzl zl crisp" transform="translate(0,435)" d="M65,0h1009" style="stroke: rgb(0, 0, 0); stroke-opacity: 0.05; stroke-width: 2px;"/></g><g class="layer-between"><g class="shapelayer"/><g class="imagelayer"/></g><path class="xlines-below"/><path class="ylines-below"/><g class="overlines-below"/><g class="xaxislayer-below"/><g class="yaxislayer-below"/><g class="overaxes-below"/><g class="overplot"><g class="xy" transform="translate(65,50)" clip-path="url(#clip362cb4xyplot)"><g class="scatterlayer mlayer"><g class="trace scatter tracef5c1a9" style="stroke-miterlimit: 2; opacity: 1;"><g class="fills"/><g class="errorbars"/><g class="lines"><path class="js-line" d="M0,384.96L211.89,384.44L221.98,384.3L262.34,382.29L272.43,381.55L292.61,379.96L302.7,378.48L322.88,375.07L332.97,372.89L353.15,367.02L363.24,363.82L373.33,359.48L383.42,356.79L393.51,356.38L403.6,354.85L413.69,355.81L423.78,357.8L433.87,357.25L443.96,355.71L464.14,351.88L474.23,350.81L494.41,348.17L504.5,347.48L514.59,346.79L524.68,345.25L534.77,343.98L544.86,344.46L554.95,344.54L565.04,341.62L575.13,334.14L585.22,320.61L595.31,248.76L605.4,187.91L615.49,145.65L625.58,150.11L635.67,228.16L645.76,271.89L655.85,277.44L665.94,305.79L676.03,350.19L686.12,359.46L706.3,356.04L716.39,350.31L726.48,335.15L736.57,326.36L746.66,320.25L756.75,326.55L766.84,349.84L776.93,365.11L807.2,369.95L817.29,374.93L827.38,381.81L837.47,383.65L867.74,384.11L877.83,383.4L928.28,384.66L938.37,384.36L948.46,382.91L958.55,383.25L968.64,384.8L978.73,384.85L998.91,384.36L1009,384.94" style="vector-effect: none; fill: none; stroke: rgb(217, 83, 79); stroke-opacity: 1; stroke-width: 2px; opacity: 1;"/></g><g class="points"/><g class="text"/></g><g class="trace scatter trace07f16d" style="stroke-miterlimit: 2; opacity: 1;"><g class="fills"/><g class="errorbars"/><g class="lines"><path class="js-line" d="M0,384.93L201.8,384.69L211.89,384.44L262.34,383.39L272.43,382.85L292.61,381.4L302.7,380L322.88,376.39L332.97,374.04L353.15,369.42L363.24,366.84L373.33,364L383.42,362.53L403.6,357.57L413.69,357.73L433.87,358.46L443.96,356.56L454.05,353.34L464.14,351.5L474.23,350.14L484.32,347.82L514.59,345.44L524.68,344.12L544.86,342.42L554.95,341.93L565.04,334.71L575.13,310.32L585.22,288.19L595.31,259.97L605.4,204.25L615.49,161.55L625.58,196.56L635.67,205.74L645.76,235.85L655.85,332.37L665.94,365.36L676.03,367.62L686.12,366.19L696.21,363.9L706.3,360.76L716.39,354.09L726.48,342.14L736.57,325L746.66,295.95L756.75,288.57L766.84,323.12L776.93,352.31L787.02,358.59L797.11,358.32L807.2,363.31L817.29,372.67L827.38,377.49L837.47,378.62L847.56,379.18L857.65,380.53L877.83,380.97L887.92,382.51L898.01,383.52L908.1,383.68L958.55,384.72L968.64,384.76L998.91,384.73L1009,380.78" style="vector-effect: none; fill: none; stroke: rgb(217, 83, 79); stroke-opacity: 1; stroke-width: 2px; opacity: 1;"/></g><g class="points"/><g class="text"/></g><g class="trace scatter trace03be28" style="stroke-miterlimit: 2; opacity: 1;"><g class="fills"/><g class="errorbars"/><g class="lines"><path class="js-line" d="M0,384.98L262.34,384.24L272.43,384.07L302.7,383.21L312.79,382.72L343.06,380.68L353.15,379.58L383.42,377.23L393.51,377.13L403.6,376.46L413.69,376.65L423.78,377.17L433.87,376.81L464.14,374.91L474.23,374.79L534.77,372.89L544.86,372.88L554.95,371.84L565.04,366.85L575.13,352.68L585.22,325.01L595.31,205.32L605.4,106.88L615.49,23.09L625.58,19.25L635.67,128.3L645.76,219.58L655.85,300.8L665.94,333.79L676.03,353.63L686.12,358.16L706.3,351.02L716.39,344.5L726.48,319.92L736.57,302.99L746.66,302.64L756.75,313.27L766.84,336.31L776.93,356.78L787.02,364.22L797.11,367.95L807.2,371.31L817.29,376.66L827.38,382.79L837.47,384.27L867.74,384.5L877.83,383.84L938.37,384.53L948.46,383.42L958.55,383.6L968.64,384.82L1009,384.91" style="vector-effect: none; fill: none; stroke: rgb(217, 83, 79); stroke-opacity: 1; stroke-width: 2px; opacity: 1;"/></g><g class="points"/><g class="text"/></g><g class="trace scatter traceae5686" style="stroke-miterlimit: 2; opacity: 1;"><g class="fills"/><g class="errorbars"/><g class="lines"><path class="js-line" d="M0,384.96L252.25,384.56L262.34,384.4L312.79,382.62L322.88,382L373.33,378.6L383.42,378.43L403.6,376.86L413.69,377L443.96,376.62L454.05,375.66L514.59,373.26L524.68,372.04L554.95,370.41L565.04,363.04L585.22,273.45L595.31,232.68L615.49,86.78L625.58,107.88L635.67,87.12L645.76,135.65L655.85,311.07L665.94,369.74L676.03,372.86L686.12,370.61L696.21,367.24L706.3,362.53L716.39,353.59L726.48,336.6L736.57,312.19L746.66,277.77L756.75,273.08L766.84,315.87L776.93,353.1L787.02,362.12L797.11,359L807.2,362.51L817.29,373.11L827.38,378.78L837.47,379.33L847.56,379.11L867.74,380.1L877.83,380.14L898.01,382.14L908.1,382.42L968.64,384.55L978.73,384.66L998.91,384.74L1009,382.31" style="vector-effect: none; fill: none; stroke: rgb(217, 83, 79); stroke-opacity: 1; stroke-width: 2px; opacity: 1;"/></g><g class="points"/><g class="text"/></g><g class="trace scatter trace7b6e69" style="stroke-miterlimit: 2; opacity: 1;"><g class="fills"/><g class="errorbars"/><g class="lines"><path class="js-line" d="M0,384.96L232.07,384.58L242.16,384.44L292.61,383.17L302.7,382.59L332.97,380.32L343.06,379.07L373.33,375.12L383.42,374.36L413.69,374L423.78,374.41L443.96,373.21L454.05,372.13L494.41,369.86L504.5,369.67L544.86,367.91L554.95,365.87L565.04,361.35L575.13,348.85L585.22,324.18L595.31,226.25L615.49,40.66L625.58,44.09L635.67,156.95L645.76,246.68L655.85,320.88L665.94,345.23L676.03,358.21L686.12,357.52L696.21,349.4L706.3,343.53L716.39,336.27L726.48,313.05L736.57,295.73L746.66,293.1L756.75,303.7L766.84,330.3L776.93,352.12L787.02,359.24L807.2,368.63L817.29,375L827.38,381.93L837.47,383.72L867.74,384.01L877.83,382.25L887.92,382.35L898.01,383.99L938.37,384.14L948.46,381.84L958.55,382.16L968.64,384.62L978.73,384.75L988.82,383.94L998.91,384.02L1009,384.87" style="vector-effect: none; fill: none; stroke: rgb(217, 83, 79); stroke-opacity: 1; stroke-width: 2px; opacity: 1;"/></g><g class="points"/><g class="text"/></g><g class="trace scatter tracec65cc8" style="stroke-miterlimit: 2; opacity: 1;"><g class="fills"/><g class="errorbars"/><g class="lines"><path class="js-line" d="M0,384.92L232.07,384.71L242.16,384.62L292.61,383.55L302.7,383.02L332.97,380.27L343.06,379.32L393.51,375.31L403.6,374.5L443.96,373.58L454.05,372.28L494.41,369.45L504.5,369.3L514.59,369.2L524.68,368.16L534.77,365.71L544.86,365.72L554.95,366.5L565.04,359.55L585.22,280.08L595.31,247.45L605.4,187.94L615.49,134.81L625.58,137.43L635.67,99.26L645.76,150.37L655.85,314.96L665.94,369L676.03,371.02L686.12,367.5L696.21,362.67L706.3,357.8L716.39,348.39L726.48,330.4L736.57,304.36L746.66,267.74L756.75,262.9L766.84,308.26L776.93,348.9L787.02,360.29L797.11,357.5L807.2,360.68L817.29,372.95L827.38,379.88L837.47,379.75L847.56,378.81L857.65,379.91L867.74,380.07L877.83,379.32L898.01,381.47L908.1,381.23L938.37,382.61L948.46,382.97L998.91,384.53L1009,383.18" style="vector-effect: none; fill: none; stroke: rgb(217, 83, 79); stroke-opacity: 1; stroke-width: 2px; opacity: 1;"/></g><g class="points"/><g class="text"/></g><g class="trace scatter traceebb7c8" style="stroke-miterlimit: 2; opacity: 1;"><g class="fills"/><g class="errorbars"/><g class="lines"><path class="js-line" d="M0,384.98L201.8,384.35L211.89,384.04L242.16,383.03L252.25,382.5L272.43,380.46L282.52,379.03L292.61,376.53L302.7,373.19L312.79,370.53L322.88,366.41L332.97,359.69L343.06,351.1L353.15,341.97L363.24,334.34L373.33,326.87L383.42,325.65L393.51,328.48L403.6,327.95L413.69,331.35L423.78,335.95L433.87,337L443.96,337.11L454.05,334.36L464.14,334.11L474.23,335.41L484.32,335.19L494.41,337.91L504.5,339.66L544.86,343.83L554.95,345.1L565.04,344.38L575.13,339.56L585.22,331.58L595.31,297.53L605.4,270.56L615.49,247.37L625.58,244.92L635.67,285.86L645.76,326.25L655.85,339.92L665.94,298.52L676.03,299.45L686.12,341.69L696.21,348.72L716.39,345.76L726.48,341.14L736.57,333.59L746.66,327.14L756.75,330.34L766.84,341.48L776.93,350.89L787.02,356.63L817.29,377.03L827.38,382.51L837.47,383.93L847.56,384.24L867.74,384.34L877.83,383.05L887.92,383.12L898.01,384.34L938.37,384.63L948.46,383.86L958.55,383.94L968.64,384.86L1009,384.94" style="vector-effect: none; fill: none; stroke: rgb(217, 83, 79); stroke-opacity: 1; stroke-width: 2px; opacity: 1;"/></g><g class="points"/><g class="text"/></g><g class="trace scatter traceda3385" style="stroke-miterlimit: 2; opacity: 1;"><g class="fills"/><g class="errorbars"/><g class="lines"><path class="js-line" d="M0,384.97L221.98,384.26L232.07,384.04L252.25,383.18L262.34,381.82L272.43,379.69L282.52,379.1L292.61,378.03L302.7,374.92L312.79,370.83L322.88,365.73L332.97,357.71L343.06,350.88L353.15,345.43L363.24,338.73L373.33,332.95L383.42,331.62L403.6,328.34L413.69,331.75L423.78,334.54L433.87,336.25L443.96,336.81L454.05,332.7L464.14,332.26L474.23,333.96L484.32,333.07L494.41,335.68L504.5,338.86L514.59,340.67L544.86,342.69L554.95,343.73L565.04,341.52L575.13,328.22L595.31,306.42L605.4,282.72L615.49,256.98L625.58,270.02L635.67,269.36L645.76,285.77L655.85,346.39L665.94,366.3L676.03,364.77L686.12,357.94L696.21,348.76L706.3,342.51L726.48,334.8L736.57,329.12L746.66,317.22L756.75,312.98L766.84,329.44L776.93,348.86L787.02,354.67L797.11,353.51L807.2,358.46L817.29,368.87L827.38,375.15L837.47,376.76L847.56,377.42L857.65,379.13L867.74,380.58L877.83,381.26L898.01,383.02L908.1,383.38L948.46,384.61L958.55,384.7L998.91,384.74L1009,380.9" style="vector-effect: none; fill: none; stroke: rgb(217, 83, 79); stroke-opacity: 1; stroke-width: 2px; opacity: 1;"/></g><g class="points"/><g class="text"/></g><g class="trace scatter trace91545a" style="stroke-miterlimit: 2; opacity: 1;"><g class="fills"/><g class="errorbars"/><g class="lines"><path class="js-line" d="M0,384.99L221.98,384.42L232.07,384.04L272.43,381.55L282.52,380.67L312.79,374.55L322.88,371.64L332.97,366.71L343.06,359.5L353.15,350.93L363.24,344.98L373.33,338.84L383.42,337.4L393.51,340.13L403.6,341.07L423.78,351.27L433.87,352.67L454.05,349.77L464.14,350.37L474.23,351.08L484.32,350.73L504.5,353.1L514.59,353.64L534.77,353.57L544.86,354.5L554.95,354.92L565.04,352.38L575.13,342.43L585.22,323.02L605.4,170.29L615.49,97.27L625.58,97.78L635.67,186.17L655.85,345.38L665.94,367.91L676.03,370.11L686.12,368.56L706.3,362.72L716.39,357.19L726.48,349.08L736.57,344.12L746.66,340.09L756.75,343.98L766.84,355.32L776.93,364.34L787.02,366.82L797.11,368.18L807.2,370.31L817.29,375.38L827.38,382.09L837.47,384.06L867.74,384.28L877.83,383.19L887.92,383.31L898.01,384.34L938.37,384.15L948.46,381.95L958.55,382.33L968.64,384.66L978.73,384.77L988.82,383.97L1009,384.9" style="vector-effect: none; fill: none; stroke: rgb(217, 83, 79); stroke-opacity: 1; stroke-width: 2px; opacity: 1;"/></g><g class="points"/><g class="text"/></g><g class="trace scatter tracef36c2d" style="stroke-miterlimit: 2; opacity: 1;"><g class="fills"/><g class="errorbars"/><g class="lines"><path class="js-line" d="M0,384.98L221.98,384.52L232.07,384.35L252.25,383.73L262.34,382.51L272.43,380.9L282.52,380.65L292.61,379.94L302.7,377.74L322.88,368.98L332.97,362.08L343.06,357.32L353.15,354.1L363.24,349.33L373.33,346.58L383.42,346.79L393.51,345.79L403.6,343.85L413.69,345.96L423.78,349.25L433.87,351.73L443.96,352.24L454.05,349.47L464.14,349.02L474.23,350.2L484.32,348.88L494.41,349.95L514.59,353.61L524.68,353.7L534.77,352.96L544.86,353.38L554.95,353.92L565.04,349.61L585.22,288.8L595.31,263.82L605.4,217.17L615.49,177.35L625.58,179.85L635.67,144.35L645.76,185.03L655.85,322.72L665.94,370.28L676.03,373L686.12,371.04L696.21,367.98L706.3,365.27L716.39,361.45L726.48,356.01L736.57,347.32L746.66,326.81L756.75,318.13L776.93,364.21L787.02,367.45L797.11,365.32L807.2,368.54L817.29,376.76L827.38,381.08L837.47,381.49L847.56,381.14L857.65,382.04L867.74,381.86L877.83,381.35L887.92,382.94L898.01,383.95L908.1,383.78L978.73,384.89L988.82,384.9L998.91,384.9L1009,383.98" style="vector-effect: none; fill: none; stroke: rgb(217, 83, 79); stroke-opacity: 1; stroke-width: 2px; opacity: 1;"/></g><g class="points"/><g class="text"/></g><g class="trace scatter trace9b2df7" style="stroke-miterlimit: 2; opacity: 1;"><g class="fills"/><g class="errorbars"/><g class="lines"><path class="js-line" d="M0,384.96L191.71,384.57L201.8,384.28L242.16,382.31L252.25,381.48L282.52,377.78L292.61,375.92L312.79,371.12L322.88,367.98L343.06,359.38L353.15,354.01L373.33,344.16L383.42,341.31L393.51,340.97L403.6,338.59L413.69,337.78L423.78,338.34L433.87,336.92L443.96,334.25L454.05,331.6L464.14,330.18L484.32,328.04L494.41,328.33L534.77,331.13L544.86,334.34L554.95,337.31L565.04,338.21L575.13,336.33L585.22,330.69L595.31,292.65L605.4,262.62L615.49,239.97L625.58,240.73L655.85,352.82L665.94,358.73L676.03,354.68L686.12,347.97L696.21,338.77L706.3,332.6L716.39,331.01L726.48,326.79L736.57,320.71L746.66,318.16L756.75,323.96L766.84,338.33L776.93,349.74L787.02,354.48L807.2,368.73L817.29,376.17L827.38,382.41L837.47,384.13L867.74,384.61L877.83,384.31L1009,384.98" style="vector-effect: none; fill: none; stroke: rgb(217, 83, 79); stroke-opacity: 1; stroke-width: 2px; opacity: 1;"/></g><g class="points"/><g class="text"/></g><g class="trace scatter trace41d6eb" style="stroke-miterlimit: 2; opacity: 1;"><g class="fills"/><g class="errorbars"/><g class="lines"><path class="js-line" d="M0,384.92L181.62,384.78L191.71,384.71L242.16,383.49L252.25,382.99L282.52,380.07L292.61,378.94L312.79,374.24L322.88,370.86L363.24,353.96L373.33,350.09L383.42,347.71L393.51,344.48L403.6,341.06L413.69,339.94L433.87,337.39L443.96,334.69L454.05,330.95L464.14,328.96L474.23,327.7L484.32,325.61L494.41,325.59L504.5,326.43L524.68,328.47L534.77,329.12L544.86,331.01L554.95,333.71L565.04,334.19L575.13,321.44L595.31,298.36L605.4,276.89L615.49,255.84L625.58,267.16L635.67,267.53L645.76,288.1L655.85,347L665.94,364.69L676.03,362.39L686.12,355.42L696.21,346.13L706.3,341.07L716.39,338.38L726.48,333.09L736.57,325.37L746.66,308.58L756.75,302.02L766.84,324.7L776.93,350.74L787.02,358.94L797.11,358.03L807.2,362.33L817.29,373.19L827.38,379.76L837.47,381.24L847.56,381.69L877.83,383.08L887.92,383.58L928.28,384.55L938.37,384.66L998.91,384.86L1009,383.49" style="vector-effect: none; fill: none; stroke: rgb(217, 83, 79); stroke-opacity: 1; stroke-width: 2px; opacity: 1;"/></g><g class="points"/><g class="text"/></g><g class="trace scatter tracebac686" style="stroke-miterlimit: 2; opacity: 1;"><g class="fills"/><g class="errorbars"/><g class="lines"><path class="js-line" d="M0,384.84L181.62,384.88L191.71,384.84L242.16,383.6L252.25,383.11L292.61,379.65L302.7,377.3L312.79,375.49L322.88,372.83L332.97,368.65L343.06,362.85L353.15,354.93L363.24,348.9L373.33,341.14L383.42,338.76L393.51,341.92L403.6,341.09L413.69,345.95L423.78,352.97L433.87,354.82L443.96,354.04L454.05,352.58L464.14,353.05L474.23,354L484.32,353.81L504.5,356.04L514.59,356.26L544.86,355.55L554.95,355.82L565.04,351.55L575.13,341.08L585.22,324.06L595.31,240.22L605.4,168.23L615.49,122.28L625.58,133.68L635.67,204.52L645.76,245.68L655.85,310.16L665.94,354.3L676.03,362.97L686.12,364.04L696.21,361.63L706.3,359.2L716.39,352.94L726.48,337.93L736.57,329.43L746.66,327.39L756.75,334.72L766.84,353.84L776.93,367L797.11,370.49L807.2,372.28L817.29,376.59L827.38,382.58L837.47,384.17L847.56,384.4L867.74,384.48L877.83,383.93L928.28,384.74L938.37,384.29L948.46,382.34L958.55,382.71L968.64,384.73L978.73,384.82L988.82,384.07L998.91,384.15L1009,384.93" style="vector-effect: none; fill: none; stroke: rgb(217, 83, 79); stroke-opacity: 1; stroke-width: 2px; opacity: 1;"/></g><g class="points"/><g class="text"/></g><g class="trace scatter trace88c02d" style="stroke-miterlimit: 2; opacity: 1;"><g class="fills"/><g class="errorbars"/><g class="lines"><path class="js-line" d="M0,384.74L100.9,384.95L110.99,384.95L232.07,384.34L242.16,384.13L262.34,383.14L272.43,382.06L292.61,380.8L302.7,378.59L312.79,375.65L322.88,371.69L332.97,365.97L343.06,361.6L353.15,357.72L363.24,352.98L373.33,348.59L383.42,348.26L403.6,344.49L413.69,347.31L433.87,355.07L443.96,355.44L454.05,351.46L464.14,351.31L474.23,352.32L484.32,350.33L494.41,351.81L504.5,354.28L514.59,355.76L524.68,355.27L534.77,353.67L544.86,353.49L554.95,353.67L565.04,343.78L585.22,284.29L595.31,247.25L605.4,186.87L615.49,171.47L625.58,212.2L635.67,192.09L645.76,223.07L655.85,333.29L665.94,369.18L676.03,370.64L686.12,368.78L696.21,366.13L706.3,362.67L716.39,356.25L726.48,344.92L736.57,329.04L746.66,303.62L756.75,298.96L766.84,332.2L776.93,359.28L787.02,364.69L797.11,363.6L807.2,367.14L817.29,375.34L827.38,379.7L837.47,380.68L867.74,381.55L877.83,381.19L898.01,383.96L908.1,383.93L968.64,384.83L978.73,384.84L998.91,384.83L1009,381.87" style="vector-effect: none; fill: none; stroke: rgb(217, 83, 79); stroke-opacity: 1; stroke-width: 2px; opacity: 1;"/></g><g class="points"/><g class="text"/></g><g class="trace scatter trace1787c4" style="stroke-miterlimit: 2; opacity: 1;"><g class="fills"/><g class="errorbars"/><g class="lines"><path class="js-line" d="M0,384.99L191.71,384.28L201.8,383.9L232.07,381.83L242.16,380.68L262.34,377.27L272.43,375.14L292.61,369.65L302.7,366.02L322.88,357.76L332.97,352.68L363.24,334.96L373.33,330.14L383.42,326.28L393.51,323.36L403.6,319.58L413.69,316.76L423.78,314.28L433.87,310.71L454.05,303.14L464.14,300.93L484.32,298.43L494.41,298.44L524.68,301.74L534.77,305.36L544.86,311.97L554.95,317.3L575.13,327L585.22,330.41L615.49,314.83L625.58,319.36L635.67,332.9L645.76,345L655.85,358.14L665.94,363.85L676.03,365.19L686.12,363.43L696.21,358.7L706.3,355.53L716.39,355.39L726.48,353.22L736.57,349.32L746.66,347.18L756.75,348.54L766.84,354.61L776.93,360.89L787.02,364.32L817.29,379.27L827.38,383.06L837.47,384.21L847.56,384.44L918.19,384.88L928.28,384.93L1009,384.99" style="vector-effect: none; fill: none; stroke: rgb(240, 173, 78); stroke-opacity: 1; stroke-width: 2px; opacity: 1;"/></g><g class="points"/><g class="text"/></g><g class="trace scatter traceca3cdd" style="stroke-miterlimit: 2; opacity: 1;"><g class="fills"/><g class="errorbars"/><g class="lines"><path class="js-line" d="M0,384.98L201.8,384.26L211.89,383.96L242.16,382.34L252.25,381.35L282.52,375.58L292.61,373.49L302.7,370.22L312.79,365.64L332.97,355.29L343.06,349.86L363.24,339.06L373.33,334.73L383.42,330.89L393.51,326.14L403.6,321.06L413.69,317.42L433.87,310.57L443.96,306.54L454.05,302.25L464.14,299.37L484.32,296.54L494.41,296.39L504.5,297.62L514.59,299.9L534.77,305.24L544.86,309.51L565.04,319.95L575.13,321.92L595.31,325.5L605.4,324.8L615.49,325.63L625.58,330L635.67,326.75L645.76,334.83L655.85,356.81L665.94,365.01L676.03,364.75L686.12,360.9L696.21,354.49L706.3,352.13L716.39,353L726.48,351.78L736.57,349.26L746.66,342.73L756.75,338.14L766.84,348.45L776.93,363.99L787.02,369.25L797.11,368.99L807.2,372.24L817.29,378.3L827.38,381.91L837.47,383.05L847.56,383.43L887.92,384.43L898.01,384.57L998.91,384.92L1009,384.58" style="vector-effect: none; fill: none; stroke: rgb(240, 173, 78); stroke-opacity: 1; stroke-width: 2px; opacity: 1;"/></g><g class="points"/><g class="text"/></g><g class="trace scatter traced9ea12" style="stroke-miterlimit: 2; opacity: 1;"><g class="fills"/><g class="errorbars"/><g class="lines"><path class="js-line" d="M0,385L201.8,384.44L211.89,384.17L242.16,382.77L252.25,382.05L282.52,378.73L292.61,376.96L322.88,368.83L332.97,364.33L343.06,358.79L353.15,352.21L373.33,341.6L383.42,339.97L393.51,340.86L403.6,338.94L413.69,339.71L423.78,342L433.87,341.63L443.96,339.54L454.05,337.31L464.14,336.89L474.23,336.95L484.32,336.25L534.77,339.59L544.86,342.15L554.95,344.19L565.04,344.61L575.13,341.35L585.22,332.75L595.31,287.92L605.4,250.14L615.49,216.1L625.58,213.98L645.76,304.06L655.85,345.13L665.94,356.92L676.03,358.72L686.12,353.14L696.21,343.89L706.3,337.5L716.39,334L726.48,326.5L736.57,316.04L746.66,312.66L756.75,322.03L766.84,336.04L776.93,346.18L787.02,351.66L797.11,359.22L827.38,382.16L837.47,383.97L867.74,384.47L877.83,383.86L938.37,384.68L948.46,383.9L1009,384.96" style="vector-effect: none; fill: none; stroke: rgb(217, 83, 79); stroke-opacity: 1; stroke-width: 2px; opacity: 1;"/></g><g class="points"/><g class="text"/></g><g class="trace scatter trace0acda3" style="stroke-miterlimit: 2; opacity: 1;"><g class="fills"/><g class="errorbars"/><g class="lines"><path class="js-line" d="M0,384.99L221.98,384.25L232.07,384.02L252.25,383.12L262.34,381.98L272.43,380.46L282.52,379.88L292.61,378.94L302.7,376.81L322.88,369.5L332.97,364.32L373.33,347.82L383.42,346.47L403.6,341.2L413.69,340.85L433.87,341.51L443.96,340.27L454.05,336.72L464.14,335.46L474.23,335.33L484.32,333.81L504.5,336.02L514.59,337.45L544.86,340.02L554.95,341.95L565.04,341.19L575.13,324.97L585.22,308.94L595.31,295.25L605.4,271.39L615.49,252.37L625.58,257.28L635.67,241.1L645.76,266.84L655.85,342.72L665.94,365.49L676.03,363.05L686.12,355.53L696.21,344.49L706.3,336.63L716.39,333.85L726.48,330.49L736.57,323.77L746.66,305.36L756.75,297.61L776.93,350.49L787.02,358L797.11,356.75L807.2,360.77L817.29,372.43L827.38,379.9L837.47,381.37L847.56,381.68L867.74,382.95L877.83,382.97L908.1,384.09L918.19,384.28L968.64,384.85L978.73,384.87L998.91,384.88L1009,384.11" style="vector-effect: none; fill: none; stroke: rgb(217, 83, 79); stroke-opacity: 1; stroke-width: 2px; opacity: 1;"/></g><g class="points"/><g class="text"/></g><g class="trace scatter trace2eecf9" style="stroke-miterlimit: 2; opacity: 1;"><g class="fills"/><g class="errorbars"/><g class="lines"><path class="js-line" d="M0,384.86L191.71,384.81L201.8,384.61L242.16,383.38L252.25,382.89L292.61,379.85L302.7,377.74L322.88,373.43L332.97,369.74L343.06,365.41L353.15,360.18L363.24,355.3L373.33,348.35L383.42,345.18L393.51,346.42L403.6,343.91L413.69,345.89L423.78,350.62L433.87,351.08L454.05,347.32L464.14,346.75L474.23,346.89L484.32,345.62L504.5,345.5L514.59,344.52L524.68,342.44L534.77,341.31L554.95,342.46L565.04,339.25L575.13,331.39L585.22,316.74L595.31,250.98L605.4,198.23L615.49,152.15L625.58,156.67L635.67,192.3L645.76,198.75L655.85,274.34L665.94,340.35L676.03,359.52L686.12,365.4L706.3,365.53L716.39,363.6L726.48,355.76L736.57,350.03L746.66,348.94L756.75,354.6L766.84,366.27L776.93,372.84L797.11,375.88L807.2,377.23L817.29,379.55L827.38,382.8L847.56,384.03L857.65,384.32L867.74,383.98L877.83,382.83L887.92,383.18L898.01,384.37L938.37,384.23L948.46,382.4L958.55,382.79L968.64,384.75L1009,384.92" style="vector-effect: none; fill: none; stroke: rgb(217, 83, 79); stroke-opacity: 1; stroke-width: 2px; opacity: 1;"/></g><g class="points"/><g class="text"/></g><g class="trace scatter trace87b110" style="stroke-miterlimit: 2; opacity: 1;"><g class="fills"/><g class="errorbars"/><g class="lines"><path class="js-line" d="M0,384.75L100.9,384.95L110.99,384.94L232.07,384.25L242.16,384L272.43,382.61L282.52,382.14L302.7,379.41L312.79,377.63L322.88,374.43L332.97,370.33L353.15,363.75L363.24,359.21L373.33,354.38L383.42,353.04L403.6,346.68L413.69,348.33L433.87,352.47L443.96,351.04L454.05,346.94L464.14,345.87L474.23,345.58L484.32,342.95L514.59,343.9L524.68,342.76L534.77,340.34L544.86,339.62L554.95,340.11L565.04,337.61L585.22,287.66L595.31,255.25L605.4,187.25L615.49,157.48L625.58,196.86L635.67,203.94L645.76,239.88L655.85,330.82L665.94,363.02L676.03,364.71L686.12,363.67L696.21,361.01L706.3,358.61L716.39,356.99L726.48,351.56L736.57,343.76L746.66,332.09L756.75,330.72L766.84,348.19L776.93,361.89L787.02,365.42L797.11,366.57L807.2,369.98L817.29,374.68L827.38,377.45L837.47,378.74L847.56,379.19L857.65,380.58L877.83,380.9L887.92,382.6L898.01,383.69L908.1,383.74L958.55,384.71L968.64,384.74L998.91,384.69L1009,379.75" style="vector-effect: none; fill: none; stroke: rgb(217, 83, 79); stroke-opacity: 1; stroke-width: 2px; opacity: 1;"/></g><g class="points"/><g class="text"/></g><g class="trace scatter trace0b0b64" style="stroke-miterlimit: 2; opacity: 1;"><g class="fills"/><g class="errorbars"/><g class="lines"><path class="js-line" d="M0,384.96L221.98,384.51L232.07,384.14L282.52,381.69L292.61,380.39L322.88,374.32L332.97,370.65L343.06,365.55L353.15,359.29L373.33,347.78L383.42,345.72L393.51,347.45L403.6,346.13L413.69,349.22L423.78,354.72L433.87,355.84L443.96,354.2L454.05,351.95L464.14,351.72L474.23,351.74L484.32,351L504.5,352.18L514.59,351.82L534.77,349.83L544.86,350.31L554.95,350.56L565.04,347.41L575.13,338.35L585.22,321.8L605.4,163.71L615.49,94.34L625.58,103.04L635.67,204.77L645.76,279.95L655.85,319.97L665.94,338.82L676.03,362L686.12,367.03L696.21,365.54L706.3,364.38L716.39,359.57L726.48,345.81L736.57,336.67L746.66,331.91L756.75,337.83L766.84,357.63L776.93,369.55L787.02,369.17L797.11,369.76L807.2,370.51L817.29,374.66L827.38,381.67L837.47,383.63L867.74,383.83L877.83,382.56L887.92,382.91L898.01,384.17L928.28,384.4L938.37,383.57L948.46,380.08L958.55,380.86L968.64,384.52L978.73,384.64L988.82,383.21L998.91,383.39L1009,384.88" style="vector-effect: none; fill: none; stroke: rgb(217, 83, 79); stroke-opacity: 1; stroke-width: 2px; opacity: 1;"/></g><g class="points"/><g class="text"/></g><g class="trace scatter trace93c971" style="stroke-miterlimit: 2; opacity: 1;"><g class="fills"/><g class="errorbars"/><g class="lines"><path class="js-line" d="M0,384.91L201.8,384.8L211.89,384.64L262.34,383.58L272.43,382.74L292.61,381.47L302.7,379.76L312.79,377.57L322.88,374.15L332.97,369.71L343.06,366.14L373.33,354.31L383.42,353.77L403.6,348.69L413.69,350.37L433.87,355.93L443.96,355.74L454.05,351.85L464.14,350.63L474.23,350.45L484.32,348.13L494.41,349.03L504.5,350.79L514.59,351.35L524.68,350.35L534.77,348.66L544.86,348.25L554.95,348.55L565.04,340.01L585.22,283.95L595.31,252.53L605.4,200.47L615.49,166.12L625.58,188.54L635.67,166.34L645.76,199.39L655.85,324.66L665.94,368.81L676.03,372.57L696.21,371.19L706.3,369.51L716.39,364.19L726.48,352.74L736.57,337.13L746.66,312.52L756.75,306.64L766.84,336.92L776.93,361.69L787.02,365.74L797.11,364.14L807.2,367.72L817.29,375.32L827.38,379.01L837.47,379.66L847.56,379.51L857.65,380.71L867.74,379.68L877.83,378.58L887.92,381.53L898.01,383.43L908.1,383.25L958.55,384.79L968.64,384.82L998.91,384.84L1009,382.92" style="vector-effect: none; fill: none; stroke: rgb(217, 83, 79); stroke-opacity: 1; stroke-width: 2px; opacity: 1;"/></g><g class="points"/><g class="text"/></g><g class="trace scatter tracea467ab" style="stroke-miterlimit: 2; opacity: 1;"><g class="fills"/><g class="errorbars"/><g class="lines"><path class="js-line" d="M0,384.98L221.98,384.29L232.07,383.66L262.34,381.82L272.43,380.54L282.52,379.76L292.61,377.41L322.88,365.57L332.97,359.68L343.06,350.39L353.15,338.03L363.24,329.28L373.33,318.31L383.42,313.76L393.51,318.51L403.6,318.56L413.69,327.19L423.78,339.64L433.87,342.32L454.05,338.73L464.14,340.55L474.23,342.32L484.32,341.9L494.41,344.94L504.5,346.59L524.68,348.43L534.77,347.22L554.95,348.31L565.04,346.76L575.13,340.87L585.22,329.16L605.4,219.97L615.49,166.6L625.58,174.96L635.67,241.1L645.76,297.05L655.85,348.02L665.94,358.17L676.03,355.8L696.21,352.7L706.3,354.5L716.39,355.73L726.48,349.74L736.57,344.77L746.66,343.25L756.75,348.13L766.84,362.14L776.93,371.38L787.02,371.83L807.2,374.64L817.29,378.32L827.38,382.89L837.47,383.86L867.74,383.76L877.83,381.76L887.92,382.01L898.01,383.77L938.37,383.92L948.46,381.72L958.55,382.13L968.64,384.62L978.73,384.72L988.82,383.83L998.91,383.91L1009,384.85" style="vector-effect: none; fill: none; stroke: rgb(217, 83, 79); stroke-opacity: 1; stroke-width: 2px; opacity: 1;"/></g><g class="points"/><g class="text"/></g><g class="trace scatter tracecae197" style="stroke-miterlimit: 2; opacity: 1;"><g class="fills"/><g class="errorbars"/><g class="lines"><path class="js-line" d="M0,384.96L211.89,384.49L221.98,384.41L252.25,383.64L262.34,382.7L272.43,380.97L282.52,380.31L292.61,378.79L302.7,375.56L312.79,371.47L322.88,365.59L343.06,349.35L353.15,341.63L373.33,327.84L383.42,326.65L403.6,320.61L413.69,327.64L423.78,335.58L433.87,340.92L443.96,342.4L454.05,337.57L464.14,337.98L474.23,339.95L484.32,336.98L494.41,340.46L504.5,345.39L514.59,348.13L524.68,347.88L534.77,346.12L544.86,346.03L554.95,346.79L565.04,344.13L575.13,324.19L585.22,304.14L595.31,285.99L615.49,223.95L625.58,218.65L635.67,196.42L645.76,233.62L655.85,333.88L665.94,368.93L676.03,371.87L686.12,371.94L706.3,369.81L716.39,367.31L726.48,361.26L736.57,351.2L746.66,334.17L756.75,328.83L766.84,347.52L776.93,364.63L787.02,368.25L797.11,367.09L807.2,369.4L817.29,375.57L827.38,378.64L837.47,378.18L847.56,377.24L857.65,378.3L877.83,377.87L887.92,379.78L898.01,381.14L908.1,381.26L958.55,384.08L968.64,384.35L998.91,384.7L1009,382.45" style="vector-effect: none; fill: none; stroke: rgb(217, 83, 79); stroke-opacity: 1; stroke-width: 2px; opacity: 1;"/></g><g class="points"/><g class="text"/></g><g class="trace scatter trace0de13a" style="stroke-miterlimit: 2; opacity: 1;"><g class="fills"/><g class="errorbars"/><g class="lines"><path class="js-line" d="M0,384.9L181.62,384.73L191.71,384.62L232.07,383.38L242.16,382.79L262.34,381.07L272.43,379.92L292.61,376.98L302.7,374.22L322.88,368.47L332.97,364.15L343.06,358.1L353.15,350.86L373.33,341.47L383.42,339.88L393.51,340.47L403.6,338.32L413.69,338.99L423.78,341.58L433.87,341.55L443.96,339L454.05,336.24L464.14,335.67L494.41,335.83L504.5,336.61L514.59,337.05L524.68,336.02L534.77,336.49L544.86,339.5L554.95,341.55L565.04,341.08L575.13,335.25L585.22,324.44L595.31,280.32L605.4,232.38L615.49,178.6L625.58,180.3L635.67,234.91L645.76,280.86L655.85,338.09L665.94,362.52L676.03,365.46L686.12,362.95L716.39,348.19L726.48,341.36L736.57,333.92L746.66,332.93L756.75,339.61L766.84,349.71L776.93,359.73L787.02,364.88L817.29,377.83L827.38,382.72L837.47,384.07L847.56,384.34L867.74,384.43L877.83,383.76L938.37,384.63L948.46,383.68L958.55,383.83L968.64,384.85L1009,384.95" style="vector-effect: none; fill: none; stroke: rgb(217, 83, 79); stroke-opacity: 1; stroke-width: 2px; opacity: 1;"/></g><g class="points"/><g class="text"/></g><g class="trace scatter trace282859" style="stroke-miterlimit: 2; opacity: 1;"><g class="fills"/><g class="errorbars"/><g class="lines"><path class="js-line" d="M0,384.82L141.26,384.91L151.35,384.89L232.07,383.98L242.16,383.62L252.25,383.09L262.34,381.8L272.43,380.04L282.52,379.5L292.61,378.67L302.7,376.46L322.88,368.68L332.97,363.51L363.24,350.16L373.33,347.3L383.42,346.45L393.51,343.86L403.6,340.43L413.69,340.18L433.87,341.02L443.96,339.75L454.05,335.93L464.14,334.47L474.23,334.63L484.32,333.52L504.5,335.4L514.59,336.64L534.77,336.37L544.86,337.66L554.95,339.6L565.04,339.35L585.22,299.22L595.31,284.27L615.49,228.11L625.58,227.35L635.67,210.26L645.76,244.35L655.85,337.17L665.94,366.87L676.03,367.49L686.12,363.92L696.21,357.96L706.3,353.24L716.39,351.32L726.48,347.9L736.57,339.58L746.66,322.18L756.75,316.82L766.84,339.15L776.93,361.06L787.02,366.61L797.11,365.27L807.2,368.04L817.29,375.61L827.38,380.2L837.47,381.18L847.56,381.28L867.74,382.32L877.83,382.29L898.01,383.71L908.1,383.81L968.64,384.81L978.73,384.84L998.91,384.83L1009,383.9" style="vector-effect: none; fill: none; stroke: rgb(217, 83, 79); stroke-opacity: 1; stroke-width: 2px; opacity: 1;"/></g><g class="points"/><g class="text"/></g><g class="trace scatter traceee35f6" style="stroke-miterlimit: 2; opacity: 1;"><g class="fills"/><g class="errorbars"/><g class="lines"><path class="js-line" d="M0,384.99L221.98,384.34L232.07,383.94L262.34,381.93L272.43,380.94L282.52,380.3L292.61,378.65L322.88,369.21L332.97,364.42L343.06,358L353.15,349.2L373.33,336.75L383.42,335.34L393.51,337.95L403.6,337.26L413.69,341.98L423.78,348.85L433.87,350.86L443.96,349.99L454.05,348.97L464.14,350.41L474.23,352L484.32,352.07L504.5,355L514.59,355.48L534.77,354.77L544.86,355.92L554.95,355.6L565.04,351.1L575.13,337.85L585.22,316.91L595.31,233.78L605.4,161.99L615.49,89.41L625.58,82.77L645.76,264.5L655.85,339.08L665.94,336.57L676.03,345.55L686.12,365.74L696.21,369.5L706.3,370.42L716.39,369.12L726.48,361.88L736.57,356.06L746.66,355.03L756.75,361.39L766.84,372.34L776.93,377.84L807.2,380.09L817.29,381.59L827.38,383.71L837.47,384.37L867.74,384.54L877.83,384.14L928.28,384.76L938.37,384.39L948.46,382.82L958.55,383.15L968.64,384.79L978.73,384.85L998.91,384.24L1009,384.94" style="vector-effect: none; fill: none; stroke: rgb(217, 83, 79); stroke-opacity: 1; stroke-width: 2px; opacity: 1;"/></g><g class="points"/><g class="text"/></g><g class="trace scatter trace2d8db2" style="stroke-miterlimit: 2; opacity: 1;"><g class="fills"/><g class="errorbars"/><g class="lines"><path class="js-line" d="M0,384.98L211.89,384.51L221.98,384.39L252.25,383.51L262.34,382.4L272.43,380.56L282.52,380.28L292.61,379.76L302.7,377.16L322.88,367.7L332.97,360.95L353.15,352.96L363.24,347.42L373.33,344.56L383.42,344.86L403.6,339.82L413.69,343.54L423.78,347.41L433.87,350.25L443.96,350.69L454.05,348.44L474.23,350.41L484.32,349.45L514.59,355.28L524.68,355.16L534.77,354.38L544.86,354.62L554.95,354.51L565.04,348.71L585.22,278.26L595.31,242.59L605.4,188.87L615.49,143.66L625.58,150.73L635.67,141.23L645.76,194.39L655.85,326.1L665.94,371.6L676.03,375.88L686.12,376.33L696.21,374.74L716.39,372.11L726.48,366.9L736.57,358.91L746.66,345.28L756.75,343.35L766.84,359.5L776.93,371.92L787.02,375.27L797.11,374.79L807.2,375.88L817.29,378.56L827.38,379.88L857.65,380.56L867.74,380.19L877.83,379.97L887.92,381.58L898.01,382.66L908.1,382.87L958.55,384.59L968.64,384.71L998.91,384.81L1009,382.61" style="vector-effect: none; fill: none; stroke: rgb(217, 83, 79); stroke-opacity: 1; stroke-width: 2px; opacity: 1;"/></g><g class="points"/><g class="text"/></g><g class="trace scatter trace347520" style="stroke-miterlimit: 2; opacity: 1;"><g class="fills"/><g class="errorbars"/><g class="lines"><path class="js-line" d="M0,384.97L201.8,384.48L211.89,384.23L242.16,382.93L252.25,382.27L292.61,378.08L302.7,376.36L322.88,372.31L332.97,369.76L373.33,358.14L383.42,356.06L393.51,354.54L403.6,352.1L433.87,347.52L443.96,344.84L454.05,342.21L464.14,340.5L484.32,337.38L494.41,336.75L524.68,336.66L534.77,337.28L554.95,341.26L565.04,340.94L575.13,337.28L585.22,329.32L595.31,281.2L605.4,245.24L615.49,220.97L625.58,221.24L635.67,264.5L645.76,298.98L655.85,339.06L665.94,359.18L676.03,358.02L686.12,350.15L696.21,339.48L706.3,332.08L716.39,326.96L726.48,316.63L736.57,304.1L746.66,296.05L756.75,302.94L766.84,320.98L776.93,336.28L787.02,344.62L827.38,381.49L837.47,383.77L867.74,384.38L877.83,383.69L938.37,384.63L948.46,383.7L958.55,383.84L968.64,384.86L1009,384.94" style="vector-effect: none; fill: none; stroke: rgb(217, 83, 79); stroke-opacity: 1; stroke-width: 2px; opacity: 1;"/></g><g class="points"/><g class="text"/></g><g class="trace scatter trace4b1c62" style="stroke-miterlimit: 2; opacity: 1;"><g class="fills"/><g class="errorbars"/><g class="lines"><path class="js-line" d="M0,384.94L211.89,384.48L221.98,384.3L262.34,382.73L272.43,381.79L292.61,380.24L302.7,378.78L322.88,374.79L332.97,372.05L393.51,356.94L403.6,354.06L433.87,348.49L443.96,345.76L454.05,342.48L464.14,340.11L484.32,336.3L494.41,335.38L514.59,335.41L524.68,335.43L534.77,335.39L544.86,336.79L554.95,338.91L565.04,334.96L575.13,319.6L585.22,306.42L595.31,289.33L605.4,262.94L615.49,253.27L625.58,269.18L635.67,252.7L645.76,272.79L655.85,342.25L665.94,362.71L676.03,359.42L686.12,350.64L696.21,339.86L706.3,332.24L716.39,326.99L726.48,319.61L736.57,309.3L746.66,287.84L756.75,278.1L766.84,308.11L776.93,341.85L787.02,350.18L797.11,348.28L807.2,354.43L817.29,369.81L827.38,378.87L837.47,380.53L847.56,380.78L867.74,382.34L877.83,382.37L908.1,383.83L918.19,384.06L958.55,384.75L968.64,384.81L998.91,384.83L1009,383.66" style="vector-effect: none; fill: none; stroke: rgb(217, 83, 79); stroke-opacity: 1; stroke-width: 2px; opacity: 1;"/></g><g class="points"/><g class="text"/></g><g class="trace scatter trace0581b5" style="stroke-miterlimit: 2; opacity: 1;"><g class="fills"/><g class="errorbars"/><g class="lines"><path class="js-line" d="M0,384.83L161.44,384.94L171.53,384.92L242.16,384.05L252.25,383.63L292.61,382.18L302.7,381.06L322.88,378.66L332.97,378.09L353.15,376.11L363.24,374.83L383.42,372.64L393.51,370.93L403.6,369.49L413.69,369.78L423.78,370.81L433.87,370.36L464.14,366.64L474.23,365.92L494.41,364.26L504.5,363.68L524.68,361.87L534.77,360.75L554.95,359.67L565.04,354.99L575.13,341.45L585.22,318.24L595.31,238.9L605.4,169.11L615.49,91.9L625.58,83.38L645.76,268.03L655.85,316.81L665.94,247.51L676.03,251.35L686.12,331.31L696.21,349.77L706.3,353.2L716.39,347.58L726.48,334.43L736.57,326.12L746.66,316.43L756.75,323.55L766.84,350.9L776.93,367.81L807.2,372.29L817.29,376.56L827.38,382.23L837.47,383.88L867.74,384.35L877.83,383.87L938.37,384.53L948.46,383.61L958.55,383.83L968.64,384.87L1009,384.91" style="vector-effect: none; fill: none; stroke: rgb(217, 83, 79); stroke-opacity: 1; stroke-width: 2px; opacity: 1;"/></g><g class="points"/><g class="text"/></g><g class="trace scatter trace9768ac" style="stroke-miterlimit: 2; opacity: 1;"><g class="fills"/><g class="errorbars"/><g class="lines"><path class="js-line" d="M0,384.71L90.81,384.95L100.9,384.95L242.16,384.25L252.25,384.07L282.52,383.06L292.61,382.49L332.97,378.14L343.06,377.65L363.24,375.67L373.33,374.72L383.42,374L393.51,371.27L403.6,369.48L413.69,370.36L423.78,370.76L433.87,370.25L464.14,366.88L474.23,366.05L544.86,358.38L554.95,357.36L565.04,352.02L575.13,316.71L585.22,283.99L595.31,255.37L605.4,192.29L615.49,122.1L625.58,142.81L635.67,142.72L645.76,182.03L655.85,318.96L665.94,366.25L676.03,368.64L696.21,362.92L706.3,359.03L716.39,350.06L726.48,336.16L736.57,317.24L746.66,287.6L756.75,283.93L766.84,319.07L776.93,346.99L787.02,354.22L797.11,352.53L807.2,356.47L817.29,367.21L827.38,373.4L847.56,376.44L857.65,378.16L887.92,381.63L898.01,382.8L948.46,384.56L958.55,384.64L998.91,384.7L1009,378" style="vector-effect: none; fill: none; stroke: rgb(217, 83, 79); stroke-opacity: 1; stroke-width: 2px; opacity: 1;"/></g><g class="points"/><g class="text"/></g><g class="trace scatter tracec87477" style="stroke-miterlimit: 2; opacity: 1;"><g class="fills"/><g class="errorbars"/><g class="lines"><path class="js-line" d="M0,384.99L221.98,384.45L232.07,384.16L282.52,381.86L292.61,380.78L322.88,376.07L332.97,372.83L373.33,355.5L383.42,354.05L393.51,355.24L403.6,354.44L413.69,355.73L423.78,357.99L433.87,357.99L443.96,356.69L454.05,354.72L464.14,353.78L494.41,352.69L504.5,353.07L534.77,352.39L544.86,353.34L554.95,354.2L565.04,351.95L575.13,342.95L585.22,325.94L595.31,259.82L605.4,203.9L615.49,147.55L625.58,143.9L635.67,219L645.76,288.15L655.85,343.78L665.94,344.05L676.03,342.93L686.12,350.82L696.21,344.78L706.3,340.68L716.39,332.63L726.48,314.24L736.57,301.25L746.66,298.16L756.75,308L766.84,327.93L776.93,346.36L787.02,355.89L797.11,362.3L807.2,367.49L827.38,381.71L837.47,383.43L867.74,384.05L877.83,383.05L887.92,383.25L898.01,384.32L938.37,384.32L948.46,382.66L958.55,382.95L968.64,384.74L1009,384.91" style="vector-effect: none; fill: none; stroke: rgb(217, 83, 79); stroke-opacity: 1; stroke-width: 2px; opacity: 1;"/></g><g class="points"/><g class="text"/></g><g class="trace scatter traceebc1cc" style="stroke-miterlimit: 2; opacity: 1;"><g class="fills"/><g class="errorbars"/><g class="lines"><path class="js-line" d="M0,384.97L232.07,384.48L242.16,384.31L262.34,383.41L272.43,382.47L292.61,381.75L302.7,380.49L322.88,375.76L332.97,371.99L373.33,360.34L383.42,359.56L403.6,356.71L413.69,356.68L433.87,358.09L443.96,357.45L454.05,354.33L464.14,352.8L474.23,352.63L484.32,351L494.41,351.15L504.5,352.1L514.59,352.73L524.68,352.3L534.77,351.37L544.86,351.71L554.95,352.52L565.04,348.63L585.22,297.35L595.31,276.48L605.4,237.83L615.49,204.57L625.58,208.74L635.67,183.73L645.76,217.78L655.85,329.26L665.94,366.5L676.03,364.73L696.21,350.72L706.3,342.68L716.39,336.03L726.48,327.53L736.57,310.99L746.66,281.82L756.75,274.33L766.84,312.74L776.93,349.64L787.02,358.34L797.11,356.45L807.2,360.56L817.29,372.12L827.38,379.01L837.47,379.83L847.56,379.57L857.65,380.5L867.74,380.53L877.83,380.21L887.92,381.53L898.01,382.43L908.1,382.49L978.73,384.66L988.82,384.74L998.91,384.78L1009,383.56" style="vector-effect: none; fill: none; stroke: rgb(217, 83, 79); stroke-opacity: 1; stroke-width: 2px; opacity: 1;"/></g><g class="points"/><g class="text"/></g><g class="trace scatter tracef9c5f3" style="stroke-miterlimit: 2; opacity: 1;"><g class="fills"/><g class="errorbars"/><g class="lines"><path class="js-line" d="M0,384.99L211.89,384.3L221.98,384.13L262.34,381.55L272.43,380.52L292.61,377.77L302.7,375.26L322.88,369.55L332.97,365.22L353.15,353.3L363.24,347.64L373.33,342.14L383.42,340.19L393.51,340.32L403.6,338.62L413.69,340.32L423.78,343.72L433.87,343.42L443.96,340.81L454.05,337.82L464.14,337.09L474.23,337.02L484.32,335.81L514.59,337.05L524.68,336.97L534.77,337L544.86,338.18L565.04,337.92L575.13,335.16L585.22,326.21L595.31,286.39L605.4,248.96L615.49,207.84L625.58,200.33L635.67,243.85L645.76,295.32L655.85,338.43L665.94,351.52L676.03,360.27L686.12,359.81L696.21,353.93L716.39,344.44L726.48,337.27L736.57,327.23L746.66,319.29L756.75,325.61L766.84,340.06L776.93,352.03L787.02,358.11L807.2,367.88L817.29,374.78L827.38,381.89L837.47,383.77L867.74,384.01L877.83,381.94L887.92,382.02L898.01,383.93L938.37,384.28L948.46,382.52L958.55,382.76L968.64,384.72L1009,384.91" style="vector-effect: none; fill: none; stroke: rgb(217, 83, 79); stroke-opacity: 1; stroke-width: 2px; opacity: 1;"/></g><g class="points"/><g class="text"/></g><g class="trace scatter trace31936c" style="stroke-miterlimit: 2; opacity: 1;"><g class="fills"/><g class="errorbars"/><g class="lines"><path class="js-line" d="M0,384.98L211.89,384.48L221.98,384.34L252.25,383.4L262.34,382.52L282.52,380.72L292.61,379.57L302.7,377.29L312.79,374.2L322.88,370.21L332.97,365.18L353.15,356.71L363.24,351.8L373.33,348.35L383.42,347.17L403.6,340.8L413.69,341.52L423.78,342.53L433.87,342.57L443.96,340.96L454.05,337.37L464.14,336.13L474.23,336.04L484.32,334.22L494.41,334.45L514.59,336.15L524.68,334.34L534.77,333.7L544.86,336.08L554.95,338.05L565.04,338.39L585.22,304.15L595.31,292.21L615.49,239.85L625.58,244.52L635.67,229.51L645.76,256.01L655.85,339.32L665.94,365.83L676.03,366.11L686.12,361.72L696.21,355.86L706.3,351.34L716.39,347.57L726.48,342.02L736.57,332.29L746.66,310.22L756.75,301.15L766.84,328.35L776.93,354.76L787.02,359.17L797.11,356.57L807.2,360.8L817.29,372.41L827.38,379.24L837.47,379.69L847.56,379.02L867.74,381.54L877.83,381.43L898.01,383.32L908.1,383.3L968.64,384.77L978.73,384.81L998.91,384.84L1009,383.8" style="vector-effect: none; fill: none; stroke: rgb(217, 83, 79); stroke-opacity: 1; stroke-width: 2px; opacity: 1;"/></g><g class="points"/><g class="text"/></g><g class="trace scatter trace2f6116" style="stroke-miterlimit: 2; opacity: 1;"><g class="fills"/><g class="errorbars"/><g class="lines"><path class="js-line" d="M0,384.99L221.98,384.25L232.07,383.8L262.34,381.57L272.43,380.46L282.52,379.56L292.61,377.14L302.7,373.61L312.79,371.07L322.88,366.71L332.97,360.1L343.06,351.5L353.15,340.26L363.24,330.35L373.33,318.93L383.42,316.64L393.51,321L403.6,320.56L413.69,327.29L423.78,336.28L433.87,338.4L443.96,336.94L454.05,334.59L474.23,337.12L484.32,336.88L504.5,341.3L514.59,342.26L524.68,342.76L534.77,342.23L554.95,344.16L565.04,342.41L575.13,336.1L585.22,325.66L595.31,278.78L605.4,239.39L615.49,204.53L625.58,203.51L645.76,307.75L655.85,349.8L665.94,347.24L676.03,348.98L686.12,360.82L696.21,361.51L706.3,359.97L716.39,356.23L726.48,345.79L736.57,337.03L746.66,333.14L756.75,339.34L766.84,352.64L776.93,362.13L807.2,372.05L817.29,376.92L827.38,382.55L837.47,384.07L867.74,384.32L877.83,383.28L887.92,383.39L898.01,384.39L938.37,384.28L948.46,382.56L958.55,382.89L968.64,384.74L1009,384.9" style="vector-effect: none; fill: none; stroke: rgb(217, 83, 79); stroke-opacity: 1; stroke-width: 2px; opacity: 1;"/></g><g class="points"/><g class="text"/></g><g class="trace scatter tracecf565d" style="stroke-miterlimit: 2; opacity: 1;"><g class="fills"/><g class="errorbars"/><g class="lines"><path class="js-line" d="M0,384.99L221.98,384.4L232.07,384.23L252.25,383.44L262.34,382.31L272.43,380.55L282.52,380.16L292.61,379.04L302.7,375.98L312.79,371.16L322.88,364.79L332.97,356.06L343.06,349.3L353.15,343.19L363.24,335.47L373.33,329.52L383.42,329.15L393.51,327.35L403.6,324.65L433.87,337.7L443.96,338.57L454.05,333.84L464.14,333.72L474.23,335.67L484.32,333.51L494.41,335.9L504.5,339.75L514.59,342.04L524.68,341.97L534.77,340.51L544.86,340.83L554.95,342.34L565.04,340.24L585.22,302.33L595.31,287.33L605.4,261.53L615.49,240.01L625.58,244.08L635.67,230.29L645.76,261.31L655.85,342.34L665.94,368.14L676.03,369.4L686.12,367.67L696.21,364.63L716.39,357.57L726.48,351.54L736.57,341.82L746.66,322.9L756.75,316.07L766.84,339.46L776.93,361.06L787.02,364.89L797.11,363.63L807.2,367.19L817.29,375.5L827.38,380.07L867.74,381.67L877.83,381.44L898.01,383.65L908.1,383.64L968.64,384.83L978.73,384.86L998.91,384.86L1009,383.63" style="vector-effect: none; fill: none; stroke: rgb(217, 83, 79); stroke-opacity: 1; stroke-width: 2px; opacity: 1;"/></g><g class="points"/><g class="text"/></g><g class="trace scatter traceffabaf" style="stroke-miterlimit: 2; opacity: 1;"><g class="fills"/><g class="errorbars"/><g class="lines"><path class="js-line" d="M0,384.95L201.8,384.48L211.89,384.24L242.16,382.93L252.25,382.24L292.61,377.67L302.7,375.04L322.88,369.61L332.97,365.75L343.06,360.45L353.15,353.63L363.24,348.46L373.33,342.15L383.42,339.86L393.51,341.54L403.6,339.76L413.69,342.21L423.78,346.65L433.87,346.88L454.05,343.77L464.14,343.72L474.23,344.36L484.32,343.76L514.59,344.99L524.68,343.84L534.77,342.4L544.86,344.01L554.95,346.35L565.04,345.15L575.13,338.13L585.22,323.68L595.31,255.9L605.4,199.25L615.49,154.32L625.58,150.71L635.67,197.5L645.76,263.63L655.85,345.1L665.94,366.47L676.03,367.51L686.12,364.33L706.3,352.9L716.39,349.31L736.57,336.98L746.66,336.83L756.75,343.85L766.84,357.03L776.93,365.65L787.02,367.63L817.29,378.43L827.38,382.76L837.47,383.95L847.56,384.2L867.74,384.18L877.83,382.88L887.92,383.01L898.01,384.23L938.37,384.24L948.46,382.35L958.55,382.67L968.64,384.72L1009,384.9" style="vector-effect: none; fill: none; stroke: rgb(217, 83, 79); stroke-opacity: 1; stroke-width: 2px; opacity: 1;"/></g><g class="points"/><g class="text"/></g><g class="trace scatter tracea5e503" style="stroke-miterlimit: 2; opacity: 1;"><g class="fills"/><g class="errorbars"/><g class="lines"><path class="js-line" d="M0,384.91L191.71,384.76L201.8,384.64L252.25,383.32L262.34,382.44L272.43,381.06L282.52,380.55L292.61,379.63L302.7,377.35L322.88,370.6L332.97,365.5L373.33,348.46L383.42,347.38L403.6,341.86L413.69,343.5L433.87,347.19L443.96,346.4L454.05,342.85L464.14,342.32L474.23,342.65L484.32,341L514.59,344.42L524.68,342.8L534.77,342.11L544.86,344.15L554.95,345.35L565.04,342.17L585.22,292.54L595.31,270.23L615.49,190.6L625.58,204.12L635.67,200.13L645.76,233.85L655.85,333.99L665.94,365.9L676.03,366.27L686.12,362.51L696.21,356.54L706.3,353.38L716.39,352.03L726.48,347.82L736.57,339.93L746.66,325.45L756.75,322.97L766.84,342.38L776.93,360.76L787.02,366.88L797.11,366.71L807.2,369.39L817.29,375.95L827.38,380.03L837.47,380.82L847.56,380.63L857.65,381.79L867.74,382.15L877.83,381.85L887.92,383.2L898.01,384.13L908.1,384.01L978.73,384.87L988.82,384.87L998.91,384.86L1009,383.09" style="vector-effect: none; fill: none; stroke: rgb(217, 83, 79); stroke-opacity: 1; stroke-width: 2px; opacity: 1;"/></g><g class="points"/><g class="text"/></g><g class="trace scatter trace3db3b0" style="stroke-miterlimit: 2; opacity: 1;"><g class="fills"/><g class="errorbars"/><g class="lines"><path class="js-line" d="M0,384.98L221.98,384.42L232.07,384.02L282.52,380.99L292.61,379.69L322.88,372.06L332.97,368.3L343.06,362.14L353.15,354.06L373.33,343.17L383.42,342.1L393.51,343.81L403.6,342.15L413.69,345.78L423.78,352.26L433.87,353.9L443.96,352.59L454.05,350.68L464.14,350.95L474.23,351.94L484.32,351.64L504.5,352.82L514.59,352.66L534.77,351.01L544.86,351.84L554.95,352.16L565.04,349.01L575.13,339.49L585.22,322.7L605.4,168.78L615.49,102.6L625.58,106.79L635.67,203.7L645.76,280.28L655.85,318.82L665.94,336.61L676.03,359.76L686.12,365.68L696.21,364.5L706.3,363.21L716.39,358.32L726.48,347.13L736.57,338.75L746.66,334.97L756.75,342.2L766.84,359.37L776.93,369.44L787.02,370.52L797.11,372.55L807.2,374.21L817.29,377.57L827.38,382.19L837.47,383.76L867.74,384.06L877.83,382.99L887.92,383.22L898.01,384.29L938.37,384.16L948.46,382.27L958.55,382.69L968.64,384.74L978.73,384.81L988.82,384.01L1009,384.92" style="vector-effect: none; fill: none; stroke: rgb(217, 83, 79); stroke-opacity: 1; stroke-width: 2px; opacity: 1;"/></g><g class="points"/><g class="text"/></g><g class="trace scatter traceb9350a" style="stroke-miterlimit: 2; opacity: 1;"><g class="fills"/><g class="errorbars"/><g class="lines"><path class="js-line" d="M0,384.95L211.89,384.5L221.98,384.42L252.25,383.71L262.34,382.7L272.43,381L282.52,380.77L292.61,380.37L302.7,378.16L322.88,370.31L332.97,365.18L363.24,353.91L373.33,351.02L383.42,350.81L393.51,348.01L403.6,345.01L413.69,347.4L433.87,353.08L443.96,353.43L454.05,350.49L464.14,349.93L474.23,350.58L484.32,349.31L514.59,352.35L524.68,351.76L534.77,350.53L544.86,350.33L554.95,350.2L565.04,341.83L595.31,257.2L605.4,207.62L615.49,174.28L625.58,194.25L635.67,165.61L645.76,196.22L655.85,323.8L665.94,368.47L676.03,371.66L686.12,370.12L706.3,365.42L716.39,361.17L726.48,352.51L736.57,340.67L746.66,321.85L756.75,318.49L766.84,343.04L776.93,363.18L787.02,367.65L797.11,366.03L807.2,368.47L817.29,374.98L827.38,378.44L837.47,379.22L847.56,379.16L857.65,380.22L877.83,379.96L887.92,381.75L898.01,382.96L908.1,383.08L958.55,384.63L968.64,384.72L998.91,384.77L1009,382.51" style="vector-effect: none; fill: none; stroke: rgb(217, 83, 79); stroke-opacity: 1; stroke-width: 2px; opacity: 1;"/></g><g class="points"/><g class="text"/></g><g class="trace scatter trace6a5222" style="stroke-miterlimit: 2; opacity: 1;"><g class="fills"/><g class="errorbars"/><g class="lines"><path class="js-line" d="M0,384.95L221.98,384.64L232.07,384.4L282.52,382.6L292.61,381.69L322.88,376.34L332.97,373.96L343.06,369.89L353.15,364.34L363.24,360.24L373.33,355.19L383.42,352.82L393.51,354.61L403.6,354.22L413.69,357.81L423.78,363.19L433.87,364.14L464.14,362.2L474.23,362.45L484.32,361.67L494.41,362.22L514.59,361.93L524.68,360.82L534.77,359.66L544.86,360.02L554.95,359.41L565.04,355.9L575.13,345.45L585.22,326.92L605.4,183.08L615.49,115.88L625.58,114L635.67,191.25L645.76,251.92L655.85,279.6L665.94,306.39L676.03,351.98L686.12,359.03L696.21,354.98L706.3,352.58L716.39,347.84L726.48,330.23L736.57,314.4L746.66,309.59L756.75,319.84L766.84,344.58L776.93,361.15L787.02,363.57L797.11,366.91L807.2,370.61L817.29,376.44L827.38,381.8L837.47,382.97L857.65,383.67L867.74,382.9L877.83,379.52L887.92,379.84L898.01,382.85L908.1,382.76L918.19,382.75L928.28,383.55L938.37,383.38L948.46,379.75L958.55,380.32L968.64,384.37L978.73,384.56L988.82,383.22L998.91,383.33L1009,384.76" style="vector-effect: none; fill: none; stroke: rgb(217, 83, 79); stroke-opacity: 1; stroke-width: 2px; opacity: 1;"/></g><g class="points"/><g class="text"/></g><g class="trace scatter trace008087" style="stroke-miterlimit: 2; opacity: 1;"><g class="fills"/><g class="errorbars"/><g class="lines"><path class="js-line" d="M0,384.88L191.71,384.89L201.8,384.82L262.34,383.82L272.43,383.08L292.61,382.04L302.7,380.59L312.79,378.97L322.88,376.51L363.24,363.19L373.33,358.71L393.51,356.49L403.6,355.08L423.78,361.32L433.87,363.24L443.96,363.73L454.05,360.84L464.14,360.48L474.23,361.25L484.32,359.52L494.41,360.27L504.5,361.57L514.59,361.84L554.95,358.37L565.04,353.45L585.22,296.26L595.31,271.57L615.49,169.19L625.58,176.74L635.67,150.43L645.76,183.55L655.85,318.29L665.94,364.56L676.03,366.7L686.12,364.55L706.3,357.57L716.39,351.61L726.48,338.45L736.57,318.05L746.66,291.13L756.75,287.03L766.84,318.65L776.93,347.68L787.02,356.24L797.11,354.84L807.2,358.46L817.29,368.97L827.38,374.82L837.47,374.45L847.56,373.75L857.65,376.59L867.74,377.7L877.83,377.52L887.92,380.45L898.01,382.43L918.19,382.92L928.28,384.01L958.55,384.65L968.64,384.72L998.91,384.74L1009,381.42" style="vector-effect: none; fill: none; stroke: rgb(217, 83, 79); stroke-opacity: 1; stroke-width: 2px; opacity: 1;"/></g><g class="points"/><g class="text"/></g><g class="trace scatter traceb40640" style="stroke-miterlimit: 2; opacity: 1;"><g class="fills"/><g class="errorbars"/><g class="lines"><path class="js-line" d="M0,384.98L181.62,384.58L191.71,384.41L221.98,383.13L232.07,382.27L252.25,379.99L262.34,378.12L282.52,374.16L292.61,371.35L312.79,363.33L322.88,358.53L332.97,353.06L343.06,345.14L353.15,335.99L363.24,331.5L373.33,327.8L383.42,325.16L393.51,323.76L403.6,319.67L413.69,317.06L423.78,315.5L433.87,312.61L443.96,308.64L454.05,305.07L464.14,303.15L494.41,300.7L504.5,301.75L514.59,302.57L524.68,299.85L534.77,302.57L544.86,310.93L554.95,316.08L565.04,320.11L575.13,323.08L585.22,324.25L595.31,310.05L605.4,293.87L615.49,279.52L625.58,282.71L645.76,337.21L655.85,355.67L665.94,361.95L676.03,365.62L686.12,365.65L696.21,364.15L706.3,363.68L716.39,364.66L726.48,364.93L736.57,363.77L746.66,364.38L756.75,367.6L766.84,371.57L776.93,374.43L797.11,377.98L807.2,379.98L827.38,383.72L837.47,384.19L877.83,384.3L887.92,384.39L918.19,384.81L928.28,384.87L1009,384.99" style="vector-effect: none; fill: none; stroke: rgb(217, 83, 79); stroke-opacity: 1; stroke-width: 2px; opacity: 1;"/></g><g class="points"/><g class="text"/></g><g class="trace scatter tracedb87a9" style="stroke-miterlimit: 2; opacity: 1;"><g class="fills"/><g class="errorbars"/><g class="lines"><path class="js-line" d="M0,384.96L191.71,384.51L201.8,384.31L242.16,382.48L252.25,381.42L262.34,378.8L272.43,375.34L292.61,373.59L302.7,370.25L343.06,347.2L353.15,342.44L363.24,336.6L373.33,332.89L383.42,330.19L393.51,326L403.6,321.02L413.69,317.89L443.96,309.09L454.05,304.5L464.14,302.06L474.23,301.23L484.32,299.96L494.41,299.94L504.5,300.88L514.59,302.96L534.77,306.3L544.86,309.39L554.95,313.78L565.04,316.27L585.22,312.86L595.31,309.65L605.4,301.88L615.49,302.05L625.58,310.45L635.67,298.16L645.76,310.6L655.85,352.25L665.94,365.01L676.03,365.81L686.12,363.7L696.21,359.44L706.3,359.77L716.39,362.77L726.48,364.33L736.57,364.35L746.66,361.46L756.75,361.21L776.93,374.28L787.02,376.87L797.11,377.11L807.2,378.33L817.29,380.81L827.38,382.47L867.74,384.02L877.83,384.16L938.37,384.85L948.46,384.88L1009,384.38" style="vector-effect: none; fill: none; stroke: rgb(217, 83, 79); stroke-opacity: 1; stroke-width: 2px; opacity: 1;"/></g><g class="points"/><g class="text"/></g><g class="trace scatter tracea3d768" style="stroke-miterlimit: 2; opacity: 1;"><g class="fills"/><g class="errorbars"/><g class="lines"><path class="js-line" d="M0,384.98L211.89,384.33L221.98,384.22L252.25,382.69L262.34,381.77L292.61,378.78L302.7,375.82L322.88,369.57L332.97,365.41L343.06,359.24L353.15,350.99L373.33,337.71L383.42,336.04L393.51,338.12L403.6,336.88L413.69,341.45L423.78,348.39L433.87,349.89L443.96,348.84L454.05,347.36L464.14,348.18L474.23,349.2L484.32,348.52L504.5,350.03L514.59,350.06L534.77,347.5L544.86,347.43L554.95,347.09L565.04,343.56L575.13,332.39L585.22,316.52L595.31,257.66L605.4,204.43L615.49,151.1L625.58,135.52L635.67,187.68L645.76,261.3L655.85,329.61L665.94,341.67L676.03,342.53L686.12,345.05L696.21,349.21L706.3,354.59L716.39,356.76L726.48,352.35L736.57,347.4L746.66,347.62L756.75,355.49L766.84,366.86L776.93,373.66L787.02,375.15L807.2,378.18L817.29,380.49L827.38,383.15L837.47,384.04L867.74,384.31L877.83,383.71L938.37,384.42L948.46,383.03L958.55,383.32L968.64,384.8L1009,384.94" style="vector-effect: none; fill: none; stroke: rgb(217, 83, 79); stroke-opacity: 1; stroke-width: 2px; opacity: 1;"/></g><g class="points"/><g class="text"/></g><g class="trace scatter traced2a90f" style="stroke-miterlimit: 2; opacity: 1;"><g class="fills"/><g class="errorbars"/><g class="lines"><path class="js-line" d="M0,384.97L211.89,384.36L221.98,384.2L252.25,383.21L262.34,382.19L272.43,380.55L282.52,380.23L292.61,379.51L302.7,376.84L322.88,368.22L332.97,361.94L353.15,354.37L363.24,348.98L373.33,345.5L383.42,345.07L393.51,341.7L403.6,339.18L423.78,347.24L433.87,349.39L443.96,349.18L454.05,346.61L474.23,347.69L484.32,346.15L504.5,349.29L514.59,349.34L524.68,344.89L534.77,343.37L544.86,346.25L554.95,346.9L565.04,342.56L575.13,314.59L585.22,286.92L595.31,261.83L615.49,169.86L625.58,188.49L635.67,192.03L645.76,225.11L655.85,330.83L665.94,367.59L676.03,370.37L686.12,369.87L716.39,363.38L726.48,358.92L736.57,351.26L746.66,338.24L756.75,336.3L766.84,352.61L776.93,365.41L787.02,368.34L797.11,367.79L807.2,369.6L817.29,373.36L827.38,375.39L877.83,377.95L887.92,379.76L908.1,381.66L918.19,382.34L948.46,384.03L958.55,384.3L998.91,384.62L1009,380.6" style="vector-effect: none; fill: none; stroke: rgb(217, 83, 79); stroke-opacity: 1; stroke-width: 2px; opacity: 1;"/></g><g class="points"/><g class="text"/></g><g class="trace scatter traceaa02b5" style="stroke-miterlimit: 2; opacity: 1;"><g class="fills"/><g class="errorbars"/><g class="lines"><path class="js-line" d="M0,384.95L211.89,384.44L221.98,384.27L262.34,382.39L272.43,381.63L292.61,379.55L302.7,377.78L322.88,373.87L332.97,370.63L363.24,358.14L373.33,354.35L383.42,352.65L393.51,352.76L403.6,351.42L413.69,352.23L423.78,353.96L433.87,353.54L464.14,348.21L474.23,347.51L484.32,346.28L494.41,346.18L534.77,346.24L544.86,347.24L554.95,348.07L565.04,346.99L575.13,341.22L585.22,329.7L595.31,280L605.4,236.88L615.49,194.32L625.58,188.69L645.76,293.98L655.85,328.28L676.03,354.7L686.12,352.34L696.21,343.55L706.3,338.45L716.39,332.2L726.48,318.77L736.57,305.78L746.66,296.59L756.75,302.76L766.84,319.59L776.93,334.41L787.02,344.26L817.29,371.21L827.38,380.78L837.47,383.52L847.56,384.01L867.74,384.07L877.83,382.45L887.92,382.6L898.01,384.16L938.37,384.3L948.46,382.39L958.55,382.66L968.64,384.71L1009,384.91" style="vector-effect: none; fill: none; stroke: rgb(217, 83, 79); stroke-opacity: 1; stroke-width: 2px; opacity: 1;"/></g><g class="points"/><g class="text"/></g><g class="trace scatter tracebc8b8b" style="stroke-miterlimit: 2; opacity: 1;"><g class="fills"/><g class="errorbars"/><g class="lines"><path class="js-line" d="M0,384.9L191.71,384.8L201.8,384.71L252.25,383.74L262.34,383.05L282.52,381.58L292.61,380.84L312.79,377.21L322.88,374.49L343.06,367.82L353.15,364.96L373.33,359.08L383.42,357.86L403.6,353.43L413.69,353.28L433.87,353.18L443.96,351.65L454.05,348.55L464.14,347.1L474.23,346.58L484.32,344.87L504.5,344.91L514.59,345.49L544.86,345.33L554.95,346.44L565.04,344.36L575.13,324.51L595.31,289.08L605.4,254.61L615.49,232.88L625.58,244.95L635.67,223.46L645.76,247.35L655.85,335.34L665.94,364.22L676.03,361.38L686.12,353.28L696.21,343.71L706.3,335.82L716.39,330.82L726.48,323.63L736.57,311.07L746.66,284.88L756.75,270.96L766.84,304.99L776.93,342.58L787.02,348.82L797.11,345.94L807.2,352.36L817.29,368.54L827.38,378.35L837.47,379.89L847.56,379.83L857.65,381.41L867.74,382.15L877.83,381.97L887.92,383.23L898.01,384.04L908.1,383.94L978.73,384.87L988.82,384.87L998.91,384.86L1009,383.53" style="vector-effect: none; fill: none; stroke: rgb(217, 83, 79); stroke-opacity: 1; stroke-width: 2px; opacity: 1;"/></g><g class="points"/><g class="text"/></g></g></g></g><path class="xlines-above crisp" d="M0,0" style="fill: none;"/><path class="ylines-above crisp" d="M0,0" style="fill: none;"/><g class="overlines-above"/><g class="xaxislayer-above"><g class="xtick"><text text-anchor="middle" x="0" y="451" transform="translate(65,0)" style="font-family: 'Lucida Grande', 'Open Sans', verdana, arial, sans-serif; font-size: 10px; fill: rgb(0, 0, 0); fill-opacity: 1; white-space: pre; opacity: 1;">0%</text></g><g class="xtick"><text text-anchor="middle" x="0" y="451" style="font-family: 'Lucida Grande', 'Open Sans', verdana, arial, sans-serif; font-size: 10px; fill: rgb(0, 0, 0); fill-opacity: 1; white-space: pre; opacity: 1;" transform="translate(266.8,0)">20%</text></g><g class="xtick"><text text-anchor="middle" x="0" y="451" style="font-family: 'Lucida Grande', 'Open Sans', verdana, arial, sans-serif; font-size: 10px; fill: rgb(0, 0, 0); fill-opacity: 1; white-space: pre; opacity: 1;" transform="translate(468.6,0)">40%</text></g><g class="xtick"><text text-anchor="middle" x="0" y="451" style="font-family: 'Lucida Grande', 'Open Sans', verdana, arial, sans-serif; font-size: 10px; fill: rgb(0, 0, 0); fill-opacity: 1; white-space: pre; opacity: 1;" transform="translate(670.4,0)">60%</text></g><g class="xtick"><text text-anchor="middle" x="0" y="451" style="font-family: 'Lucida Grande', 'Open Sans', verdana, arial, sans-serif; font-size: 10px; fill: rgb(0, 0, 0); fill-opacity: 1; white-space: pre; opacity: 1;" transform="translate(872.2,0)">80%</text></g><g class="xtick"><text text-anchor="middle" x="0" y="451" style="font-family: 'Lucida Grande', 'Open Sans', verdana, arial, sans-serif; font-size: 10px; fill: rgb(0, 0, 0); fill-opacity: 1; white-space: pre; opacity: 1;" transform="translate(1074,0)">100%</text></g></g><g class="yaxislayer-above"><g class="ytick"><text text-anchor="end" x="59" y="3.5" transform="translate(0,435)" style="font-family: 'Lucida Grande', 'Open Sans', verdana, arial, sans-serif; font-size: 10px; fill: rgb(0, 0, 0); fill-opacity: 1; white-space: pre; opacity: 1;">0%</text></g><g class="ytick"><text text-anchor="end" x="59" y="3.5" style="font-family: 'Lucida Grande', 'Open Sans', verdana, arial, sans-serif; font-size: 10px; fill: rgb(0, 0, 0); fill-opacity: 1; white-space: pre; opacity: 1;" transform="translate(0,381.24)">2%</text></g><g class="ytick"><text text-anchor="end" x="59" y="3.5" style="font-family: 'Lucida Grande', 'Open Sans', verdana, arial, sans-serif; font-size: 10px; fill: rgb(0, 0, 0); fill-opacity: 1; white-space: pre; opacity: 1;" transform="translate(0,327.48)">4%</text></g><g class="ytick"><text text-anchor="end" x="59" y="3.5" style="font-family: 'Lucida Grande', 'Open Sans', verdana, arial, sans-serif; font-size: 10px; fill: rgb(0, 0, 0); fill-opacity: 1; white-space: pre; opacity: 1;" transform="translate(0,273.72)">6%</text></g><g class="ytick"><text text-anchor="end" x="59" y="3.5" style="font-family: 'Lucida Grande', 'Open Sans', verdana, arial, sans-serif; font-size: 10px; fill: rgb(0, 0, 0); fill-opacity: 1; white-space: pre; opacity: 1;" transform="translate(0,219.96)">8%</text></g><g class="ytick"><text text-anchor="end" x="59" y="3.5" style="font-family: 'Lucida Grande', 'Open Sans', verdana, arial, sans-serif; font-size: 10px; fill: rgb(0, 0, 0); fill-opacity: 1; white-space: pre; opacity: 1;" transform="translate(0,166.2)">10%</text></g><g class="ytick"><text text-anchor="end" x="59" y="3.5" style="font-family: 'Lucida Grande', 'Open Sans', verdana, arial, sans-serif; font-size: 10px; fill: rgb(0, 0, 0); fill-opacity: 1; white-space: pre; opacity: 1;" transform="translate(0,112.44)">12%</text></g><g class="ytick"><text text-anchor="end" x="59" y="3.5" style="font-family: 'Lucida Grande', 'Open Sans', verdana, arial, sans-serif; font-size: 10px; fill: rgb(0, 0, 0); fill-opacity: 1; white-space: pre; opacity: 1;" transform="translate(0,58.68)">14%</text></g></g><g class="overaxes-above"/></g></g><g class="polarlayer"/><g class="smithlayer"/><g class="ternarylayer"/><g class="geolayer"/><g class="funnelarealayer"/><g class="pielayer"/><g class="iciclelayer"/><g class="treemaplayer"/><g class="sunburstlayer"/><g class="glimages"/><defs id="topdefs-362cb4"><g class="clips"/></defs><g class="layer-above"><g class="imagelayer"/><g class="shapelayer"/></g><g class="infolayer"><g class="g-gtitle"><text class="gtitle" x="550" y="25" text-anchor="middle" dy="0em" style="opacity: 1; font-family: 'Lucida Grande', 'Open Sans', verdana, arial, sans-serif; font-size: 20px; fill: rgb(42, 63, 95); fill-opacity: 1; white-space: pre;"><tspan class="line" dy="0em" x="550" y="25">FastQC: Per Sequence GC Content</tspan><tspan class="line" dy="1.3em" x="550" y="25"><tspan style="font-size:70%" dy="-0.6em">Percentages, 50 samples</tspan><tspan dy="0.42em"></tspan></tspan></text></g><g class="g-xtitle"><text class="xtitle" x="569.5" y="472.3" text-anchor="middle" style="opacity: 0.3; font-family: 'Lucida Grande', 'Open Sans', verdana, arial, sans-serif; font-size: 14px; fill: rgb(0, 0, 0); fill-opacity: 1; white-space: pre;">% GC</text></g><g class="g-ytitle"><text class="ytitle" transform="rotate(-90,22.365625,242.5)" x="22.365625" y="242.5" text-anchor="middle" style="opacity: 0.3; font-family: 'Lucida Grande', 'Open Sans', verdana, arial, sans-serif; font-size: 14px; fill: rgb(0, 0, 0); fill-opacity: 1; white-space: pre;">Percentage</text></g></g></svg>