<svg class="main-svg" xmlns="http://www.w3.org/2000/svg" xmlns:xlink="http://www.w3.org/1999/xlink" width="2200" height="1000" style="" viewBox="0 0 1100 500"><rect x="0" y="0" width="1100" height="500" style="fill: rgb(255, 255, 255); fill-opacity: 1;"/><defs id="defs-c30fed"><g class="clips"><clipPath id="clipc30fedxyplot" class="plotclip"><rect width="1021" height="385"/></clipPath><clipPath class="axesclip" id="clipc30fedx"><rect x="64" y="0" width="1021" height="500"/></clipPath><clipPath class="axesclip" id="clipc30fedy"><rect x="0" y="50" width="1100" height="385"/></clipPath><clipPath class="axesclip" id="clipc30fedxy"><rect x="64" y="50" width="1021" height="385"/></clipPath></g><g class="gradients"/><g class="patterns"/></defs><g class="bglayer"/><g class="layer-below"><g class="imagelayer"/><g class="shapelayer"/></g><g class="cartesianlayer"><g class="subplot xy"><g class="layer-subplot"><g class="shapelayer"/><g class="imagelayer"/></g><g class="minor-gridlayer"><g class="x"/><g class="y"/></g><g class="gridlayer"><g class="x"><path class="xgrid crisp" transform="translate(221.08,0)" d="M0,50v385" style="stroke: rgb(0, 0, 0); stroke-opacity: 0.05; stroke-width: 1px;"/><path class="xgrid crisp" transform="translate(378.15,0)" d="M0,50v385" style="stroke: rgb(0, 0, 0); stroke-opacity: 0.05; stroke-width: 1px;"/><path class="xgrid crisp" transform="translate(535.23,0)" d="M0,50v385" style="stroke: rgb(0, 0, 0); stroke-opacity: 0.05; stroke-width: 1px;"/><path class="xgrid crisp" transform="translate(692.31,0)" d="M0,50v385" style="stroke: rgb(0, 0, 0); stroke-opacity: 0.05; stroke-width: 1px;"/><path class="xgrid crisp" transform="translate(849.38,0)" d="M0,50v385" style="stroke: rgb(0, 0, 0); stroke-opacity: 0.05; stroke-width: 1px;"/><path class="xgrid crisp" transform="translate(1006.46,0)" d="M0,50v385" style="stroke: rgb(0, 0, 0); stroke-opacity: 0.05; stroke-width: 1px;"/></g><g class="y"><path class="ygrid crisp" transform="translate(0,371.7)" d="M64,0h1021" style="stroke: rgb(0, 0, 0); stroke-opacity: 0.05; stroke-width: 1px;"/><path class="ygrid crisp" transform="translate(0,308.39)" d="M64,0h1021" style="stroke: rgb(0, 0, 0); stroke-opacity: 0.05; stroke-width: 1px;"/><path class="ygrid crisp" transform="translate(0,245.09)" d="M64,0h1021" style="stroke: rgb(0, 0, 0); stroke-opacity: 0.05; stroke-width: 1px;"/><path class="ygrid crisp" transform="translate(0,181.78)" d="M64,0h1021" style="stroke: rgb(0, 0, 0); stroke-opacity: 0.05; stroke-width: 1px;"/><path class="ygrid crisp" transform="translate(0,118.48)" d="M64,0h1021" style="stroke: rgb(0, 0, 0); stroke-opacity: 0.05; stroke-width: 1px;"/><path class="ygrid crisp" transform="translate(0,55.17)" d="M64,0h1021" style="stroke: rgb(0, 0, 0); stroke-opacity: 0.05; stroke-width: 1px;"/></g></g><g class="zerolinelayer"><path class="yzl zl crisp" transform="translate(0,435)" d="M64,0h1021" style="stroke: rgb(0, 0, 0); stroke-opacity: 0.05; stroke-width: 2px;"/></g><g class="layer-between"><g class="shapelayer"/><g class="imagelayer"/></g><path class="xlines-below"/><path class="ylines-below"/><g class="overlines-below"/><g class="xaxislayer-below"/><g class="yaxislayer-below"/><g class="overaxes-below"/><g class="overplot"><g class="xy" transform="translate(64,50)" clip-path="url(#clipc30fedxyplot)"><g class="scatterlayer mlayer"><g class="trace scatter trace6feb08" style="stroke-miterlimit: 2; opacity: 1;"><g class="fills"/><g class="errorbars"/><g class="lines"><path class="js-line" d="M0,384.88L431.96,383.6L471.23,382.84L510.5,382.31L549.77,380.95L628.31,377.99L667.58,377.65L746.12,374.67L785.38,374.7L824.65,374.39L863.92,376.26L942.46,375.7L981.73,361.49L1021,228.52" style="vector-effect: none; fill: none; stroke: rgb(240, 173, 78); stroke-opacity: 1; stroke-width: 2px; opacity: 1;"/></g><g class="points"/><g class="text"/></g><g class="trace scatter trace36827c" style="stroke-miterlimit: 2; opacity: 1;"><g class="fills"/><g class="errorbars"/><g class="lines"><path class="js-line" d="M0,384.87L431.96,383.59L471.23,382.83L510.5,382.31L549.77,380.96L628.31,378L667.58,377.68L746.12,374.73L785.38,374.74L824.65,374.39L863.92,376.26L942.46,375.62L981.73,359.27L1021,230.66" style="vector-effect: none; fill: none; stroke: rgb(240, 173, 78); stroke-opacity: 1; stroke-width: 2px; opacity: 1;"/></g><g class="points"/><g class="text"/></g><g class="trace scatter trace32a0e4" style="stroke-miterlimit: 2; opacity: 1;"><g class="fills"/><g class="errorbars"/><g class="lines"><path class="js-line" d="M0,384.93L392.69,384.16L431.96,383.45L549.77,380.52L589.04,378.19L628.31,376.98L667.58,377.18L746.12,372.71L785.38,372.87L824.65,372.07L863.92,374.81L903.19,374.9L942.46,373.34L981.73,360.56L1021,197.25" style="vector-effect: none; fill: none; stroke: rgb(240, 173, 78); stroke-opacity: 1; stroke-width: 2px; opacity: 1;"/></g><g class="points"/><g class="text"/></g><g class="trace scatter trace2b1be5" style="stroke-miterlimit: 2; opacity: 1;"><g class="fills"/><g class="errorbars"/><g class="lines"><path class="js-line" d="M0,384.92L392.69,384.15L431.96,383.44L549.77,380.54L589.04,378.21L628.31,377.02L667.58,377.25L746.12,372.8L785.38,372.95L824.65,372.11L863.92,374.85L903.19,374.85L942.46,373.33L981.73,356.97L1021,200.33" style="vector-effect: none; fill: none; stroke: rgb(240, 173, 78); stroke-opacity: 1; stroke-width: 2px; opacity: 1;"/></g><g class="points"/><g class="text"/></g><g class="trace scatter trace3c372c" style="stroke-miterlimit: 2; opacity: 1;"><g class="fills"/><g class="errorbars"/><g class="lines"><path class="js-line" d="M0,384.94L392.69,383.93L431.96,383.05L510.5,381.49L549.77,379.58L589.04,376.86L628.31,375.58L667.58,375.7L706.85,373.15L746.12,370.66L785.38,369.98L824.65,369.71L863.92,372.22L903.19,372.02L942.46,370.04L981.73,353.51L1021,161.52" style="vector-effect: none; fill: none; stroke: rgb(240, 173, 78); stroke-opacity: 1; stroke-width: 2px; opacity: 1;"/></g><g class="points"/><g class="text"/></g><g class="trace scatter trace569b9e" style="stroke-miterlimit: 2; opacity: 1;"><g class="fills"/><g class="errorbars"/><g class="lines"><path class="js-line" d="M0,384.93L392.69,383.91L431.96,383.05L510.5,381.5L549.77,379.6L589.04,376.87L628.31,375.59L667.58,375.77L706.85,373.24L746.12,370.74L785.38,370.03L824.65,369.68L863.92,372.2L903.19,371.77L942.46,369.99L981.73,350.26L1021,164.37" style="vector-effect: none; fill: none; stroke: rgb(240, 173, 78); stroke-opacity: 1; stroke-width: 2px; opacity: 1;"/></g><g class="points"/><g class="text"/></g><g class="trace scatter traceb2b936" style="stroke-miterlimit: 2; opacity: 1;"><g class="fills"/><g class="errorbars"/><g class="lines"><path class="js-line" d="M0,384.88L392.69,383.82L431.96,383.06L549.77,379.81L589.04,377.88L746.12,373.14L785.38,372.73L824.65,372.19L863.92,372.82L942.46,372.66L981.73,351.02L1021,176.42" style="vector-effect: none; fill: none; stroke: rgb(240, 173, 78); stroke-opacity: 1; stroke-width: 2px; opacity: 1;"/></g><g class="points"/><g class="text"/></g><g class="trace scatter trace10ffe6" style="stroke-miterlimit: 2; opacity: 1;"><g class="fills"/><g class="errorbars"/><g class="lines"><path class="js-line" d="M0,384.86L392.69,383.8L431.96,383.05L549.77,379.8L589.04,377.87L746.12,373.19L785.38,372.78L824.65,372.23L863.92,372.86L942.46,372.66L981.73,351.77L1021,175.54" style="vector-effect: none; fill: none; stroke: rgb(240, 173, 78); stroke-opacity: 1; stroke-width: 2px; opacity: 1;"/></g><g class="points"/><g class="text"/></g><g class="trace scatter tracecfee96" style="stroke-miterlimit: 2; opacity: 1;"><g class="fills"/><g class="errorbars"/><g class="lines"><path class="js-line" d="M0,384.96L392.69,384.05L431.96,383.22L510.5,381.5L549.77,379.39L589.04,376.63L628.31,375.12L667.58,374.7L706.85,372.22L746.12,369.55L785.38,368.65L824.65,368.24L863.92,370.19L903.19,369.99L942.46,368.15L981.73,347.32L1021,132.94" style="vector-effect: none; fill: none; stroke: rgb(240, 173, 78); stroke-opacity: 1; stroke-width: 2px; opacity: 1;"/></g><g class="points"/><g class="text"/></g><g class="trace scatter trace22f8fc" style="stroke-miterlimit: 2; opacity: 1;"><g class="fills"/><g class="errorbars"/><g class="lines"><path class="js-line" d="M0,384.95L392.69,384.03L431.96,383.22L510.5,381.5L549.77,379.39L589.04,376.63L628.31,375.13L667.58,374.74L706.85,372.27L746.12,369.6L785.38,368.65L824.65,368.17L863.92,370.14L903.19,369.66L942.46,368.04L981.73,343.04L1021,137.14" style="vector-effect: none; fill: none; stroke: rgb(240, 173, 78); stroke-opacity: 1; stroke-width: 2px; opacity: 1;"/></g><g class="points"/><g class="text"/></g><g class="trace scatter traceb1641d" style="stroke-miterlimit: 2; opacity: 1;"><g class="fills"/><g class="errorbars"/><g class="lines"><path class="js-line" d="M0,384.94L392.69,383.99L431.96,383.28L549.77,379.98L589.04,377.9L746.12,371.86L785.38,371.68L824.65,371.1L863.92,372.28L942.46,371.98L981.73,341.53L1021,114.59" style="vector-effect: none; fill: none; stroke: rgb(240, 173, 78); stroke-opacity: 1; stroke-width: 2px; opacity: 1;"/></g><g class="points"/><g class="text"/></g><g class="trace scatter traced18177" style="stroke-miterlimit: 2; opacity: 1;"><g class="fills"/><g class="errorbars"/><g class="lines"><path class="js-line" d="M0,384.91L392.69,383.96L431.96,383.26L549.77,379.97L589.04,377.9L746.12,371.93L785.38,371.76L824.65,371.16L863.92,372.35L942.46,371.9L981.73,342.66L1021,113.47" style="vector-effect: none; fill: none; stroke: rgb(240, 173, 78); stroke-opacity: 1; stroke-width: 2px; opacity: 1;"/></g><g class="points"/><g class="text"/></g><g class="trace scatter trace496be3" style="stroke-miterlimit: 2; opacity: 1;"><g class="fills"/><g class="errorbars"/><g class="lines"><path class="js-line" d="M0,384.93L392.69,384.09L431.96,383.39L549.77,380.57L589.04,378.71L628.31,377.79L667.58,377.79L746.12,374.82L785.38,374.9L824.65,374.76L863.92,376.44L903.19,376.47L942.46,375.56L981.73,362.84L1021,235.78" style="vector-effect: none; fill: none; stroke: rgb(240, 173, 78); stroke-opacity: 1; stroke-width: 2px; opacity: 1;"/></g><g class="points"/><g class="text"/></g><g class="trace scatter tracea3954f" style="stroke-miterlimit: 2; opacity: 1;"><g class="fills"/><g class="errorbars"/><g class="lines"><path class="js-line" d="M0,384.92L392.69,384.08L431.96,383.38L549.77,380.58L589.04,378.73L628.31,377.8L667.58,377.83L746.12,374.87L785.38,374.92L824.65,374.73L863.92,376.44L942.46,375.48L981.73,360.9L1021,237.59" style="vector-effect: none; fill: none; stroke: rgb(240, 173, 78); stroke-opacity: 1; stroke-width: 2px; opacity: 1;"/></g><g class="points"/><g class="text"/></g><g class="trace scatter trace62504f" style="stroke-miterlimit: 2; opacity: 1;"><g class="fills"/><g class="errorbars"/><g class="lines"><path class="js-line" d="M0,384.98L392.69,384.31L431.96,383.81L510.5,382.13L549.77,380.68L746.12,370.75L785.38,369.52L824.65,368.45L863.92,368.18L942.46,367.45L981.73,325.44L1021,54.9" style="vector-effect: none; fill: none; stroke: rgb(240, 173, 78); stroke-opacity: 1; stroke-width: 2px; opacity: 1;"/></g><g class="points"/><g class="text"/></g><g class="trace scatter trace34d65a" style="stroke-miterlimit: 2; opacity: 1;"><g class="fills"/><g class="errorbars"/><g class="lines"><path class="js-line" d="M0,384.94L392.69,384.26L431.96,383.77L510.5,382.09L549.77,380.65L746.12,370.81L785.38,369.6L824.65,368.55L863.92,368.28L942.46,367.4L981.73,325.73L1021,54.85" style="vector-effect: none; fill: none; stroke: rgb(240, 173, 78); stroke-opacity: 1; stroke-width: 2px; opacity: 1;"/></g><g class="points"/><g class="text"/></g><g class="trace scatter traceff59cc" style="stroke-miterlimit: 2; opacity: 1;"><g class="fills"/><g class="errorbars"/><g class="lines"><path class="js-line" d="M0,384.97L353.42,384.36L392.69,383.92L510.5,381.06L549.77,379.2L628.31,374.94L667.58,373.94L746.12,369.77L785.38,369.4L824.65,368.69L863.92,370.01L903.19,370.02L942.46,369.2L981.73,338.12L1021,94.19" style="vector-effect: none; fill: none; stroke: rgb(240, 173, 78); stroke-opacity: 1; stroke-width: 2px; opacity: 1;"/></g><g class="points"/><g class="text"/></g><g class="trace scatter tracef8049a" style="stroke-miterlimit: 2; opacity: 1;"><g class="fills"/><g class="errorbars"/><g class="lines"><path class="js-line" d="M0,384.94L353.42,384.32L392.69,383.89L510.5,381.05L549.77,379.19L628.31,374.96L667.58,373.99L746.12,369.86L785.38,369.49L824.65,368.77L863.92,370.09L903.19,370.01L942.46,369.16L981.73,339.65L1021,92.46" style="vector-effect: none; fill: none; stroke: rgb(240, 173, 78); stroke-opacity: 1; stroke-width: 2px; opacity: 1;"/></g><g class="points"/><g class="text"/></g><g class="trace scatter trace107891" style="stroke-miterlimit: 2; opacity: 1;"><g class="fills"/><g class="errorbars"/><g class="lines"><path class="js-line" d="M0,384.83L392.69,383.67L431.96,382.78L549.77,379.18L589.04,376.78L628.31,375.52L667.58,375.47L746.12,371.66L785.38,371.83L824.65,371.83L863.92,374.12L903.19,374.27L942.46,373.66L981.73,355.71L1021,180.73" style="vector-effect: none; fill: none; stroke: rgb(240, 173, 78); stroke-opacity: 1; stroke-width: 2px; opacity: 1;"/></g><g class="points"/><g class="text"/></g><g class="trace scatter trace47fa92" style="stroke-miterlimit: 2; opacity: 1;"><g class="fills"/><g class="errorbars"/><g class="lines"><path class="js-line" d="M0,384.82L392.69,383.66L431.96,382.77L549.77,379.19L589.04,376.8L628.31,375.56L667.58,375.52L746.12,371.7L785.38,371.85L824.65,371.79L863.92,374.11L942.46,373.56L981.73,351.56L1021,184.68" style="vector-effect: none; fill: none; stroke: rgb(240, 173, 78); stroke-opacity: 1; stroke-width: 2px; opacity: 1;"/></g><g class="points"/><g class="text"/></g><g class="trace scatter traceafc520" style="stroke-miterlimit: 2; opacity: 1;"><g class="fills"/><g class="errorbars"/><g class="lines"><path class="js-line" d="M0,384.91L392.69,383.84L431.96,382.92L510.5,381.17L549.77,379.12L589.04,376.24L628.31,374.68L667.58,374.43L706.85,371.89L746.12,369.1L785.38,368.52L824.65,368.52L863.92,370.81L903.19,370.57L942.46,368.78L981.73,349.31L1021,145.81" style="vector-effect: none; fill: none; stroke: rgb(240, 173, 78); stroke-opacity: 1; stroke-width: 2px; opacity: 1;"/></g><g class="points"/><g class="text"/></g><g class="trace scatter traceda6a80" style="stroke-miterlimit: 2; opacity: 1;"><g class="fills"/><g class="errorbars"/><g class="lines"><path class="js-line" d="M0,384.91L392.69,383.83L431.96,382.92L510.5,381.17L549.77,379.12L589.04,376.25L628.31,374.72L667.58,374.48L706.85,371.91L746.12,369.1L785.38,368.46L824.65,368.34L863.92,370.69L942.46,368.57L981.73,344.15L1021,150.96" style="vector-effect: none; fill: none; stroke: rgb(240, 173, 78); stroke-opacity: 1; stroke-width: 2px; opacity: 1;"/></g><g class="points"/><g class="text"/></g><g class="trace scatter tracea0a31c" style="stroke-miterlimit: 2; opacity: 1;"><g class="fills"/><g class="errorbars"/><g class="lines"><path class="js-line" d="M0,384.91L392.69,383.88L431.96,383.12L510.5,381.33L549.77,379.48L589.04,377L628.31,375.32L667.58,374.7L706.85,372.47L746.12,370.38L785.38,369.7L824.65,369.49L863.92,370.76L903.19,370.68L942.46,369.15L981.73,347.39L1021,145.8" style="vector-effect: none; fill: none; stroke: rgb(240, 173, 78); stroke-opacity: 1; stroke-width: 2px; opacity: 1;"/></g><g class="points"/><g class="text"/></g><g class="trace scatter trace2d761a" style="stroke-miterlimit: 2; opacity: 1;"><g class="fills"/><g class="errorbars"/><g class="lines"><path class="js-line" d="M0,384.91L392.69,383.88L431.96,383.12L510.5,381.34L549.77,379.49L589.04,377.03L628.31,375.36L667.58,374.76L706.85,372.55L746.12,370.42L785.38,369.69L824.65,369.39L863.92,370.7L903.19,370.35L942.46,369.09L981.73,343.89L1021,148.99" style="vector-effect: none; fill: none; stroke: rgb(240, 173, 78); stroke-opacity: 1; stroke-width: 2px; opacity: 1;"/></g><g class="points"/><g class="text"/></g><g class="trace scatter trace860b14" style="stroke-miterlimit: 2; opacity: 1;"><g class="fills"/><g class="errorbars"/><g class="lines"><path class="js-line" d="M0,384.95L353.42,383.97L392.69,383.34L510.5,379.43L549.77,376.85L589.04,373.39L628.31,371.22L667.58,370.47L706.85,367.9L746.12,365.45L785.38,364.98L824.65,364.69L863.92,366.67L903.19,366.73L942.46,365.48L981.73,335.88L1021,89.89" style="vector-effect: none; fill: none; stroke: rgb(240, 173, 78); stroke-opacity: 1; stroke-width: 2px; opacity: 1;"/></g><g class="points"/><g class="text"/></g><g class="trace scatter traceafb0a2" style="stroke-miterlimit: 2; opacity: 1;"><g class="fills"/><g class="errorbars"/><g class="lines"><path class="js-line" d="M0,384.93L314.15,384.29L353.42,383.94L431.96,382.14L471.23,380.46L510.5,379.43L549.77,376.86L589.04,373.4L628.31,371.25L667.58,370.54L706.85,367.99L746.12,365.56L785.38,365.07L824.65,364.73L863.92,366.72L903.19,366.63L942.46,365.42L981.73,333.02L1021,92.43" style="vector-effect: none; fill: none; stroke: rgb(240, 173, 78); stroke-opacity: 1; stroke-width: 2px; opacity: 1;"/></g><g class="points"/><g class="text"/></g><g class="trace scatter trace751311" style="stroke-miterlimit: 2; opacity: 1;"><g class="fills"/><g class="errorbars"/><g class="lines"><path class="js-line" d="M0,384.94L392.69,383.82L431.96,382.83L471.23,381.6L510.5,381.28L589.04,376.74L628.31,375.55L667.58,376.03L706.85,374.43L746.12,371.4L785.38,372.01L824.65,371.8L863.92,374.42L903.19,374.72L942.46,373.47L981.73,359.92L1021,219.47" style="vector-effect: none; fill: none; stroke: rgb(240, 173, 78); stroke-opacity: 1; stroke-width: 2px; opacity: 1;"/></g><g class="points"/><g class="text"/></g><g class="trace scatter trace0fafd4" style="stroke-miterlimit: 2; opacity: 1;"><g class="fills"/><g class="errorbars"/><g class="lines"><path class="js-line" d="M0,384.94L353.42,384.25L392.69,383.81L510.5,381.28L549.77,379.31L589.04,376.76L628.31,375.58L667.58,376.07L706.85,374.47L746.12,371.43L785.38,372.03L824.65,371.78L863.92,374.42L903.19,374.53L942.46,373.42L981.73,356.17L1021,222.97" style="vector-effect: none; fill: none; stroke: rgb(240, 173, 78); stroke-opacity: 1; stroke-width: 2px; opacity: 1;"/></g><g class="points"/><g class="text"/></g><g class="trace scatter traceb2ecc7" style="stroke-miterlimit: 2; opacity: 1;"><g class="fills"/><g class="errorbars"/><g class="lines"><path class="js-line" d="M0,384.93L353.42,384.18L392.69,383.65L510.5,380.17L549.77,378.06L589.04,375.23L628.31,373.32L667.58,372.28L706.85,370.27L746.12,368.52L785.38,368.4L824.65,367.95L863.92,369.66L942.46,369.44L981.73,338.5L1021,98.7" style="vector-effect: none; fill: none; stroke: rgb(240, 173, 78); stroke-opacity: 1; stroke-width: 2px; opacity: 1;"/></g><g class="points"/><g class="text"/></g><g class="trace scatter trace979140" style="stroke-miterlimit: 2; opacity: 1;"><g class="fills"/><g class="errorbars"/><g class="lines"><path class="js-line" d="M0,384.9L353.42,384.14L392.69,383.61L510.5,380.16L549.77,378.06L589.04,375.25L628.31,373.37L667.58,372.37L706.85,370.4L746.12,368.64L785.38,368.53L824.65,368.03L863.92,369.75L942.46,369.4L981.73,340.37L1021,96.5" style="vector-effect: none; fill: none; stroke: rgb(240, 173, 78); stroke-opacity: 1; stroke-width: 2px; opacity: 1;"/></g><g class="points"/><g class="text"/></g><g class="trace scatter trace720617" style="stroke-miterlimit: 2; opacity: 1;"><g class="fills"/><g class="errorbars"/><g class="lines"><path class="js-line" d="M0,384.78L157.08,384.69L196.35,384.66L392.69,383.7L431.96,382.79L471.23,381.57L510.5,381.24L628.31,375.61L667.58,376.03L746.12,372.17L785.38,372.04L824.65,371.59L863.92,373.99L903.19,374.22L942.46,373.17L981.73,359.42L1021,201.69" style="vector-effect: none; fill: none; stroke: rgb(240, 173, 78); stroke-opacity: 1; stroke-width: 2px; opacity: 1;"/></g><g class="points"/><g class="text"/></g><g class="trace scatter trace2ebe55" style="stroke-miterlimit: 2; opacity: 1;"><g class="fills"/><g class="errorbars"/><g class="lines"><path class="js-line" d="M0,384.78L157.08,384.71L196.35,384.68L392.69,383.7L431.96,382.79L471.23,381.58L510.5,381.26L628.31,375.64L667.58,376.08L746.12,372.25L785.38,372.09L824.65,371.57L863.92,374L903.19,374.09L942.46,373.08L981.73,355.36L1021,205.42" style="vector-effect: none; fill: none; stroke: rgb(240, 173, 78); stroke-opacity: 1; stroke-width: 2px; opacity: 1;"/></g><g class="points"/><g class="text"/></g><g class="trace scatter traceb05cc9" style="stroke-miterlimit: 2; opacity: 1;"><g class="fills"/><g class="errorbars"/><g class="lines"><path class="js-line" d="M0,384.95L392.69,383.93L431.96,383.09L549.77,379.25L589.04,376.61L628.31,375.08L667.58,374.55L746.12,370.24L785.38,369.57L824.65,369.05L863.92,370.78L903.19,370.61L942.46,369.54L981.73,347.25L1021,138.92" style="vector-effect: none; fill: none; stroke: rgb(240, 173, 78); stroke-opacity: 1; stroke-width: 2px; opacity: 1;"/></g><g class="points"/><g class="text"/></g><g class="trace scatter tracec7a4bd" style="stroke-miterlimit: 2; opacity: 1;"><g class="fills"/><g class="errorbars"/><g class="lines"><path class="js-line" d="M0,384.93L392.69,383.92L431.96,383.09L549.77,379.27L589.04,376.64L628.31,375.12L667.58,374.63L746.12,370.34L785.38,369.65L824.65,369.06L863.92,370.81L942.46,369.5L981.73,346.89L1021,138.77" style="vector-effect: none; fill: none; stroke: rgb(240, 173, 78); stroke-opacity: 1; stroke-width: 2px; opacity: 1;"/></g><g class="points"/><g class="text"/></g><g class="trace scatter tracea288d1" style="stroke-miterlimit: 2; opacity: 1;"><g class="fills"/><g class="errorbars"/><g class="lines"><path class="js-line" d="M0,384.95L392.69,383.84L431.96,383.01L549.77,378.96L589.04,376.27L628.31,374.26L667.58,373.05L746.12,368.7L785.38,367.96L824.65,367.23L863.92,368.53L903.19,368.6L942.46,367.82L981.73,340.32L1021,115.63" style="vector-effect: none; fill: none; stroke: rgb(240, 173, 78); stroke-opacity: 1; stroke-width: 2px; opacity: 1;"/></g><g class="points"/><g class="text"/></g><g class="trace scatter trace1b632e" style="stroke-miterlimit: 2; opacity: 1;"><g class="fills"/><g class="errorbars"/><g class="lines"><path class="js-line" d="M0,384.93L353.42,384.25L392.69,383.81L510.5,380.89L549.77,378.96L628.31,374.29L667.58,373.12L746.12,368.8L785.38,368.05L824.65,367.24L863.92,368.55L942.46,367.79L981.73,339.12L1021,116.38" style="vector-effect: none; fill: none; stroke: rgb(240, 173, 78); stroke-opacity: 1; stroke-width: 2px; opacity: 1;"/></g><g class="points"/><g class="text"/></g><g class="trace scatter trace1bd226" style="stroke-miterlimit: 2; opacity: 1;"><g class="fills"/><g class="errorbars"/><g class="lines"><path class="js-line" d="M0,384.93L353.42,384.01L392.69,383.36L510.5,378.99L549.77,376.01L589.04,372.25L628.31,369.66L667.58,368.73L706.85,366.08L746.12,363.1L785.38,362.6L824.65,361.97L863.92,364.09L903.19,364.52L942.46,363.1L981.73,326.72L1021,19.25" style="vector-effect: none; fill: none; stroke: rgb(240, 173, 78); stroke-opacity: 1; stroke-width: 2px; opacity: 1;"/></g><g class="points"/><g class="text"/></g><g class="trace scatter trace1987c9" style="stroke-miterlimit: 2; opacity: 1;"><g class="fills"/><g class="errorbars"/><g class="lines"><path class="js-line" d="M0,384.91L353.42,383.98L392.69,383.34L510.5,378.98L549.77,376.02L589.04,372.26L628.31,369.7L667.58,368.81L706.85,366.18L746.12,363.17L785.38,362.64L824.65,361.93L863.92,364.07L903.19,364.19L942.46,362.99L981.73,324.61L1021,21.07" style="vector-effect: none; fill: none; stroke: rgb(240, 173, 78); stroke-opacity: 1; stroke-width: 2px; opacity: 1;"/></g><g class="points"/><g class="text"/></g><g class="trace scatter trace5adecb" style="stroke-miterlimit: 2; opacity: 1;"><g class="fills"/><g class="errorbars"/><g class="lines"><path class="js-line" d="M0,384.93L392.69,383.98L431.96,383.22L549.77,379.7L589.04,377.24L628.31,375.73L667.58,375.26L746.12,370.94L785.38,370.8L824.65,370.49L863.92,372.31L903.19,372.29L942.46,371.43L981.73,350.22L1021,156.98" style="vector-effect: none; fill: none; stroke: rgb(240, 173, 78); stroke-opacity: 1; stroke-width: 2px; opacity: 1;"/></g><g class="points"/><g class="text"/></g><g class="trace scatter traced32563" style="stroke-miterlimit: 2; opacity: 1;"><g class="fills"/><g class="errorbars"/><g class="lines"><path class="js-line" d="M0,384.92L392.69,383.97L431.96,383.22L549.77,379.71L589.04,377.26L628.31,375.77L667.58,375.31L746.12,370.99L785.38,370.83L824.65,370.46L863.92,372.3L942.46,371.37L981.73,347.76L1021,159.09" style="vector-effect: none; fill: none; stroke: rgb(240, 173, 78); stroke-opacity: 1; stroke-width: 2px; opacity: 1;"/></g><g class="points"/><g class="text"/></g><g class="trace scatter trace7ae823" style="stroke-miterlimit: 2; opacity: 1;"><g class="fills"/><g class="errorbars"/><g class="lines"><path class="js-line" d="M0,384.94L392.69,384.02L431.96,383.33L549.77,380.19L589.04,377.97L628.31,376.69L667.58,376.64L746.12,372.84L785.38,372.38L824.65,372.17L863.92,373.85L903.19,373.79L942.46,372.5L981.73,357.38L1021,201.3" style="vector-effect: none; fill: none; stroke: rgb(240, 173, 78); stroke-opacity: 1; stroke-width: 2px; opacity: 1;"/></g><g class="points"/><g class="text"/></g><g class="trace scatter tracea5d5f8" style="stroke-miterlimit: 2; opacity: 1;"><g class="fills"/><g class="errorbars"/><g class="lines"><path class="js-line" d="M0,384.94L392.69,384.02L431.96,383.33L549.77,380.2L589.04,377.98L628.31,376.71L667.58,376.68L746.12,372.88L785.38,372.39L824.65,372.13L863.92,373.84L903.19,373.56L942.46,372.44L981.73,353.56L1021,204.87" style="vector-effect: none; fill: none; stroke: rgb(240, 173, 78); stroke-opacity: 1; stroke-width: 2px; opacity: 1;"/></g><g class="points"/><g class="text"/></g><g class="trace scatter trace2ea0a0" style="stroke-miterlimit: 2; opacity: 1;"><g class="fills"/><g class="errorbars"/><g class="lines"><path class="js-line" d="M0,384.86L235.62,384.12L274.88,384.55L392.69,383.77L431.96,382.95L510.5,381.15L549.77,379.22L589.04,376.55L628.31,374.95L667.58,374.73L706.85,372.5L746.12,370.36L785.38,369.46L824.65,369.21L863.92,371.26L903.19,371.12L942.46,369.65L981.73,352.67L1021,169.64" style="vector-effect: none; fill: none; stroke: rgb(240, 173, 78); stroke-opacity: 1; stroke-width: 2px; opacity: 1;"/></g><g class="points"/><g class="text"/></g><g class="trace scatter trace84d475" style="stroke-miterlimit: 2; opacity: 1;"><g class="fills"/><g class="errorbars"/><g class="lines"><path class="js-line" d="M0,384.87L392.69,383.77L431.96,382.96L510.5,381.16L549.77,379.26L589.04,376.59L628.31,375.01L667.58,374.82L706.85,372.61L746.12,370.41L785.38,369.44L824.65,369.07L863.92,371.15L942.46,369.59L981.73,349.54L1021,172.21" style="vector-effect: none; fill: none; stroke: rgb(240, 173, 78); stroke-opacity: 1; stroke-width: 2px; opacity: 1;"/></g><g class="points"/><g class="text"/></g><g class="trace scatter tracedd8ed6" style="stroke-miterlimit: 2; opacity: 1;"><g class="fills"/><g class="errorbars"/><g class="lines"><path class="js-line" d="M0,384.98L353.42,384.29L392.69,383.84L471.23,382L510.5,380.77L589.04,376.22L628.31,373.77L746.12,367.32L785.38,366.31L824.65,365.46L863.92,365.76L942.46,365.17L981.73,327.35L1021,71.12" style="vector-effect: none; fill: none; stroke: rgb(240, 173, 78); stroke-opacity: 1; stroke-width: 2px; opacity: 1;"/></g><g class="points"/><g class="text"/></g><g class="trace scatter tracea28161" style="stroke-miterlimit: 2; opacity: 1;"><g class="fills"/><g class="errorbars"/><g class="lines"><path class="js-line" d="M0,384.95L353.42,384.24L392.69,383.81L471.23,381.96L510.5,380.75L589.04,376.21L628.31,373.78L746.12,367.4L785.38,366.4L824.65,365.54L863.92,365.83L942.46,365.15L981.73,324.84L1021,73.74" style="vector-effect: none; fill: none; stroke: rgb(240, 173, 78); stroke-opacity: 1; stroke-width: 2px; opacity: 1;"/></g><g class="points"/><g class="text"/></g><g class="trace scatter tracef7427a" style="stroke-miterlimit: 2; opacity: 1;"><g class="fills"/><g class="errorbars"/><g class="lines"><path class="js-line" d="M0,384.93L392.69,383.92L431.96,383.21L549.77,380.36L589.04,378.31L628.31,377.15L667.58,377.1L706.85,375.8L746.12,373.53L824.65,373.36L863.92,375.27L903.19,375.58L942.46,374.91L981.73,362.39L1021,244.26" style="vector-effect: none; fill: none; stroke: rgb(240, 173, 78); stroke-opacity: 1; stroke-width: 2px; opacity: 1;"/></g><g class="points"/><g class="text"/></g><g class="trace scatter trace054df0" style="stroke-miterlimit: 2; opacity: 1;"><g class="fills"/><g class="errorbars"/><g class="lines"><path class="js-line" d="M0,384.93L392.69,383.92L431.96,383.21L549.77,380.36L589.04,378.32L628.31,377.17L667.58,377.13L706.85,375.84L746.12,373.56L824.65,373.34L863.92,375.26L903.19,375.46L942.46,374.86L981.73,359.92L1021,246.59" style="vector-effect: none; fill: none; stroke: rgb(240, 173, 78); stroke-opacity: 1; stroke-width: 2px; opacity: 1;"/></g><g class="points"/><g class="text"/></g><g class="trace scatter trace0ef487" style="stroke-miterlimit: 2; opacity: 1;"><g class="fills"/><g class="errorbars"/><g class="lines"><path class="js-line" d="M0,384.94L392.69,383.88L431.96,383.1L549.77,379.63L589.04,377.22L706.85,372.46L746.12,370.51L824.65,368.95L863.92,370.27L942.46,369.44L981.73,345.38L1021,140.78" style="vector-effect: none; fill: none; stroke: rgb(240, 173, 78); stroke-opacity: 1; stroke-width: 2px; opacity: 1;"/></g><g class="points"/><g class="text"/></g><g class="trace scatter trace0342c1" style="stroke-miterlimit: 2; opacity: 1;"><g class="fills"/><g class="errorbars"/><g class="lines"><path class="js-line" d="M0,384.92L353.42,384.28L392.69,383.87L510.5,381.32L549.77,379.63L589.04,377.23L628.31,375.61L667.58,374.63L706.85,372.55L746.12,370.6L785.38,369.62L824.65,368.96L863.92,370.31L942.46,369.4L981.73,346.03L1021,139.68" style="vector-effect: none; fill: none; stroke: rgb(240, 173, 78); stroke-opacity: 1; stroke-width: 2px; opacity: 1;"/></g><g class="points"/><g class="text"/></g></g></g></g><path class="xlines-above crisp" d="M0,0" style="fill: none;"/><path class="ylines-above crisp" d="M0,0" style="fill: none;"/><g class="overlines-above"/><g class="xaxislayer-above"><g class="xtick"><text text-anchor="middle" x="0" y="451" transform="translate(64,0)" style="font-family: 'Lucida Grande', 'Open Sans', verdana, arial, sans-serif; font-size: 10px; fill: rgb(0, 0, 0); fill-opacity: 1; white-space: pre; opacity: 1;">20 bp</text></g><g class="xtick"><text text-anchor="middle" x="0" y="451" style="font-family: 'Lucida Grande', 'Open Sans', verdana, arial, sans-serif; font-size: 10px; fill: rgb(0, 0, 0); fill-opacity: 1; white-space: pre; opacity: 1;" transform="translate(221.08,0)">40 bp</text></g><g class="xtick"><text text-anchor="middle" x="0" y="451" style="font-family: 'Lucida Grande', 'Open Sans', verdana, arial, sans-serif; font-size: 10px; fill: rgb(0, 0, 0); fill-opacity: 1; white-space: pre; opacity: 1;" transform="translate(378.15,0)">60 bp</text></g><g class="xtick"><text text-anchor="middle" x="0" y="451" style="font-family: 'Lucida Grande', 'Open Sans', verdana, arial, sans-serif; font-size: 10px; fill: rgb(0, 0, 0); fill-opacity: 1; white-space: pre; opacity: 1;" transform="translate(535.23,0)">80 bp</text></g><g class="xtick"><text text-anchor="middle" x="0" y="451" style="font-family: 'Lucida Grande', 'Open Sans', verdana, arial, sans-serif; font-size: 10px; fill: rgb(0, 0, 0); fill-opacity: 1; white-space: pre; opacity: 1;" transform="translate(692.31,0)">100 bp</text></g><g class="xtick"><text text-anchor="middle" x="0" y="451" style="font-family: 'Lucida Grande', 'Open Sans', verdana, arial, sans-serif; font-size: 10px; fill: rgb(0, 0, 0); fill-opacity: 1; white-space: pre; opacity: 1;" transform="translate(849.38,0)">120 bp</text></g><g class="xtick"><text text-anchor="middle" x="0" y="451" style="font-family: 'Lucida Grande', 'Open Sans', verdana, arial, sans-serif; font-size: 10px; fill: rgb(0, 0, 0); fill-opacity: 1; white-space: pre; opacity: 1;" transform="translate(1006.46,0)">140 bp</text></g></g><g class="yaxislayer-above"><g class="ytick"><text text-anchor="end" x="58" y="3.5" transform="translate(0,435)" style="font-family: 'Lucida Grande', 'Open Sans', verdana, arial, sans-serif; font-size: 10px; fill: rgb(0, 0, 0); fill-opacity: 1; white-space: pre; opacity: 1;">0</text></g><g class="ytick"><text text-anchor="end" x="58" y="3.5" style="font-family: 'Lucida Grande', 'Open Sans', verdana, arial, sans-serif; font-size: 10px; fill: rgb(0, 0, 0); fill-opacity: 1; white-space: pre; opacity: 1;" transform="translate(0,371.7)">5M</text></g><g class="ytick"><text text-anchor="end" x="58" y="3.5" style="font-family: 'Lucida Grande', 'Open Sans', verdana, arial, sans-serif; font-size: 10px; fill: rgb(0, 0, 0); fill-opacity: 1; white-space: pre; opacity: 1;" transform="translate(0,308.39)">10M</text></g><g class="ytick"><text text-anchor="end" x="58" y="3.5" style="font-family: 'Lucida Grande', 'Open Sans', verdana, arial, sans-serif; font-size: 10px; fill: rgb(0, 0, 0); fill-opacity: 1; white-space: pre; opacity: 1;" transform="translate(0,245.09)">15M</text></g><g class="ytick"><text text-anchor="end" x="58" y="3.5" style="font-family: 'Lucida Grande', 'Open Sans', verdana, arial, sans-serif; font-size: 10px; fill: rgb(0, 0, 0); fill-opacity: 1; white-space: pre; opacity: 1;" transform="translate(0,181.78)">20M</text></g><g class="ytick"><text text-anchor="end" x="58" y="3.5" style="font-family: 'Lucida Grande', 'Open Sans', verdana, arial, sans-serif; font-size: 10px; fill: rgb(0, 0, 0); fill-opacity: 1; white-space: pre; opacity: 1;" transform="translate(0,118.48)">25M</text></g><g class="ytick"><text text-anchor="end" x="58" y="3.5" style="font-family: 'Lucida Grande', 'Open Sans', verdana, arial, sans-serif; font-size: 10px; fill: rgb(0, 0, 0); fill-opacity: 1; white-space: pre; opacity: 1;" transform="translate(0,55.17)">30M</text></g></g><g class="overaxes-above"/></g></g><g class="polarlayer"/><g class="smithlayer"/><g class="ternarylayer"/><g class="geolayer"/><g class="funnelarealayer"/><g class="pielayer"/><g class="iciclelayer"/><g class="treemaplayer"/><g class="sunburstlayer"/><g class="glimages"/><defs id="topdefs-c30fed"><g class="clips"/></defs><g class="layer-above"><g class="imagelayer"/><g class="shapelayer"/></g><g class="infolayer"><g class="g-gtitle"><text class="gtitle" x="550" y="25" text-anchor="middle" dy="0em" style="opacity: 1; font-family: 'Lucida Grande', 'Open Sans', verdana, arial, sans-serif; font-size: 20px; fill: rgb(42, 63, 95); fill-opacity: 1; white-space: pre;"><tspan class="line" dy="0em" x="550" y="25">FastQC: Sequence Length Distribution</tspan><tspan class="line" dy="1.3em" x="550" y="25">​<tspan style="font-size:70%" dy="-0.6em">50 samples</tspan><tspan dy="0.42em">​</tspan></tspan></text></g><g class="g-xtitle"><text class="xtitle" x="574.5" y="472.3" text-anchor="middle" style="opacity: 0.3; font-family: 'Lucida Grande', 'Open Sans', verdana, arial, sans-serif; font-size: 14px; fill: rgb(0, 0, 0); fill-opacity: 1; white-space: pre;">Sequence Length (bp)</text></g><g class="g-ytitle"><text class="ytitle" transform="rotate(-90,22.240625,242.5)" x="22.240625" y="242.5" text-anchor="middle" style="opacity: 0.3; font-family: 'Lucida Grande', 'Open Sans', verdana, arial, sans-serif; font-size: 14px; fill: rgb(0, 0, 0); fill-opacity: 1; white-space: pre;">Read Count</text></g></g></svg>