<svg class="main-svg" xmlns="http://www.w3.org/2000/svg" xmlns:xlink="http://www.w3.org/1999/xlink" width="2200" height="1000" style="" viewBox="0 0 1100 500"><rect x="0" y="0" width="1100" height="500" style="fill: rgb(255, 255, 255); fill-opacity: 1;"/><defs id="defs-af4b5a"><g class="clips"><clipPath id="clipaf4b5axyplot" class="plotclip"><rect width="999" height="385"/></clipPath><clipPath class="axesclip" id="clipaf4b5ax"><rect x="71" y="0" width="999" height="500"/></clipPath><clipPath class="axesclip" id="clipaf4b5ay"><rect x="0" y="50" width="1100" height="385"/></clipPath><clipPath class="axesclip" id="clipaf4b5axy"><rect x="71" y="50" width="999" height="385"/></clipPath></g><g class="gradients"/><g class="patterns"/></defs><g class="bglayer"/><g class="layer-below"><g class="imagelayer"/><g class="shapelayer"/></g><g class="cartesianlayer"><g class="subplot xy"><g class="layer-subplot"><g class="shapelayer"/><g class="imagelayer"/></g><g class="minor-gridlayer"><g class="x"/><g class="y"/></g><g class="gridlayer"><g class="x"><path class="xgrid crisp" transform="translate(137.6,0)" d="M0,50v385" style="stroke: rgb(0, 0, 0); stroke-opacity: 0.05; stroke-width: 1px;"/><path class="xgrid crisp" transform="translate(204.2,0)" d="M0,50v385" style="stroke: rgb(0, 0, 0); stroke-opacity: 0.05; stroke-width: 1px;"/><path class="xgrid crisp" transform="translate(270.8,0)" d="M0,50v385" style="stroke: rgb(0, 0, 0); stroke-opacity: 0.05; stroke-width: 1px;"/><path class="xgrid crisp" transform="translate(337.4,0)" d="M0,50v385" style="stroke: rgb(0, 0, 0); stroke-opacity: 0.05; stroke-width: 1px;"/><path class="xgrid crisp" transform="translate(404,0)" d="M0,50v385" style="stroke: rgb(0, 0, 0); stroke-opacity: 0.05; stroke-width: 1px;"/><path class="xgrid crisp" transform="translate(470.6,0)" d="M0,50v385" style="stroke: rgb(0, 0, 0); stroke-opacity: 0.05; stroke-width: 1px;"/><path class="xgrid crisp" transform="translate(537.2,0)" d="M0,50v385" style="stroke: rgb(0, 0, 0); stroke-opacity: 0.05; stroke-width: 1px;"/><path class="xgrid crisp" transform="translate(603.8,0)" d="M0,50v385" style="stroke: rgb(0, 0, 0); stroke-opacity: 0.05; stroke-width: 1px;"/><path class="xgrid crisp" transform="translate(670.4,0)" d="M0,50v385" style="stroke: rgb(0, 0, 0); stroke-opacity: 0.05; stroke-width: 1px;"/><path class="xgrid crisp" transform="translate(737,0)" d="M0,50v385" style="stroke: rgb(0, 0, 0); stroke-opacity: 0.05; stroke-width: 1px;"/><path class="xgrid crisp" transform="translate(803.6,0)" d="M0,50v385" style="stroke: rgb(0, 0, 0); stroke-opacity: 0.05; stroke-width: 1px;"/><path class="xgrid crisp" transform="translate(870.2,0)" d="M0,50v385" style="stroke: rgb(0, 0, 0); stroke-opacity: 0.05; stroke-width: 1px;"/><path class="xgrid crisp" transform="translate(936.8,0)" d="M0,50v385" style="stroke: rgb(0, 0, 0); stroke-opacity: 0.05; stroke-width: 1px;"/><path class="xgrid crisp" transform="translate(1003.4,0)" d="M0,50v385" style="stroke: rgb(0, 0, 0); stroke-opacity: 0.05; stroke-width: 1px;"/></g><g class="y"><path class="ygrid crisp" transform="translate(0,358)" d="M71,0h999" style="stroke: rgb(0, 0, 0); stroke-opacity: 0.05; stroke-width: 1px;"/><path class="ygrid crisp" transform="translate(0,281)" d="M71,0h999" style="stroke: rgb(0, 0, 0); stroke-opacity: 0.05; stroke-width: 1px;"/><path class="ygrid crisp" transform="translate(0,204)" d="M71,0h999" style="stroke: rgb(0, 0, 0); stroke-opacity: 0.05; stroke-width: 1px;"/><path class="ygrid crisp" transform="translate(0,127)" d="M71,0h999" style="stroke: rgb(0, 0, 0); stroke-opacity: 0.05; stroke-width: 1px;"/></g></g><g class="zerolinelayer"><path class="yzl zl crisp" transform="translate(0,435)" d="M71,0h999" style="stroke: rgb(0, 0, 0); stroke-opacity: 0.05; stroke-width: 2px;"/></g><g class="layer-between"><g class="shapelayer"/><g class="imagelayer"/></g><path class="xlines-below"/><path class="ylines-below"/><g class="overlines-below"/><g class="xaxislayer-below"/><g class="yaxislayer-below"/><g class="overaxes-below"/><g class="overplot"><g class="xy" transform="translate(71,50)" clip-path="url(#clipaf4b5axyplot)"><g class="scatterlayer mlayer"><g class="trace scatter trace709b2c" style="stroke-miterlimit: 2; opacity: 1;"><g class="fills"/><g class="errorbars"/><g class="lines"><path class="js-line" d="M0,377L66.6,378.29L133.2,375.8L199.8,374.23L266.4,373.73L399.6,375.74L466.2,377.14L532.8,378.4L599.4,347.04L666,377.86L732.6,365.74L799.2,374.58L865.8,353.58L932.4,366.26L999,205.25" style="vector-effect: none; fill: none; stroke: rgb(217, 83, 79); stroke-opacity: 1; stroke-width: 2px; opacity: 1;"/></g><g class="points"/><g class="text"/></g><g class="trace scatter tracee4cf85" style="stroke-miterlimit: 2; opacity: 1;"><g class="fills"/><g class="errorbars"/><g class="lines"><path class="js-line" d="M0,365.35L66.6,377.04L133.2,375.17L199.8,373.71L266.4,373.4L399.6,375.42L466.2,376.98L532.8,378.43L599.4,347.07L666,378.02L732.6,367.19L799.2,375.9L865.8,359.98L932.4,367.17L999,210.07" style="vector-effect: none; fill: none; stroke: rgb(217, 83, 79); stroke-opacity: 1; stroke-width: 2px; opacity: 1;"/></g><g class="points"/><g class="text"/></g><g class="trace scatter tracebfda77" style="stroke-miterlimit: 2; opacity: 1;"><g class="fills"/><g class="errorbars"/><g class="lines"><path class="js-line" d="M0,380.97L66.6,382.24L133.2,381.74L333,382.13L399.6,382.55L532.8,383.4L599.4,372.39L666,379.49L732.6,368.77L799.2,376.96L865.8,356.38L932.4,365.27L999,116.27" style="vector-effect: none; fill: none; stroke: rgb(217, 83, 79); stroke-opacity: 1; stroke-width: 2px; opacity: 1;"/></g><g class="points"/><g class="text"/></g><g class="trace scatter trace286a1c" style="stroke-miterlimit: 2; opacity: 1;"><g class="fills"/><g class="errorbars"/><g class="lines"><path class="js-line" d="M0,373.31L66.6,381.5L133.2,381.4L333,382.06L399.6,382.6L532.8,383.41L599.4,372.12L666,379.46L732.6,370.56L799.2,377.99L865.8,360.1L932.4,368.57L999,115.84" style="vector-effect: none; fill: none; stroke: rgb(217, 83, 79); stroke-opacity: 1; stroke-width: 2px; opacity: 1;"/></g><g class="points"/><g class="text"/></g><g class="trace scatter tracecf98e9" style="stroke-miterlimit: 2; opacity: 1;"><g class="fills"/><g class="errorbars"/><g class="lines"><path class="js-line" d="M0,375.2L66.6,377.08L133.2,378.14L266.4,381.14L333,382.19L466.2,383.52L532.8,383.88L599.4,373.56L666,379.79L732.6,369.2L799.2,375.89L865.8,354.21L932.4,363.16L999,135.16" style="vector-effect: none; fill: none; stroke: rgb(217, 83, 79); stroke-opacity: 1; stroke-width: 2px; opacity: 1;"/></g><g class="points"/><g class="text"/></g><g class="trace scatter trace4dfeb7" style="stroke-miterlimit: 2; opacity: 1;"><g class="fills"/><g class="errorbars"/><g class="lines"><path class="js-line" d="M0,367.77L66.6,376.81L133.2,378.27L333,382.29L399.6,383.05L532.8,383.95L599.4,374.35L666,380.4L732.6,371.53L799.2,377.4L865.8,356.84L932.4,368.21L999,129.69" style="vector-effect: none; fill: none; stroke: rgb(217, 83, 79); stroke-opacity: 1; stroke-width: 2px; opacity: 1;"/></g><g class="points"/><g class="text"/></g><g class="trace scatter trace9114c6" style="stroke-miterlimit: 2; opacity: 1;"><g class="fills"/><g class="errorbars"/><g class="lines"><path class="js-line" d="M0,369.27L133.2,367.16L199.8,368.4L399.6,377.47L466.2,379.19L532.8,380.98L599.4,362.01L666,377.83L732.6,359.49L799.2,365.91L865.8,328.45L932.4,357.54L999,266.69" style="vector-effect: none; fill: none; stroke: rgb(217, 83, 79); stroke-opacity: 1; stroke-width: 2px; opacity: 1;"/></g><g class="points"/><g class="text"/></g><g class="trace scatter trace15b202" style="stroke-miterlimit: 2; opacity: 1;"><g class="fills"/><g class="errorbars"/><g class="lines"><path class="js-line" d="M0,358.25L66.6,366.76L133.2,366.18L199.8,367.86L266.4,370.95L399.6,377.26L466.2,379.17L532.8,380.77L599.4,360.88L666,378.36L732.6,359.95L799.2,363.71L865.8,321.62L932.4,359.32L999,289.75" style="vector-effect: none; fill: none; stroke: rgb(217, 83, 79); stroke-opacity: 1; stroke-width: 2px; opacity: 1;"/></g><g class="points"/><g class="text"/></g><g class="trace scatter traced89186" style="stroke-miterlimit: 2; opacity: 1;"><g class="fills"/><g class="errorbars"/><g class="lines"><path class="js-line" d="M0,369.43L199.8,374.53L266.4,377.08L399.6,380.82L466.2,381.82L532.8,382.56L599.4,367.4L666,378.89L732.6,365.38L799.2,372.19L865.8,345.9L932.4,365.39L999,191.12" style="vector-effect: none; fill: none; stroke: rgb(217, 83, 79); stroke-opacity: 1; stroke-width: 2px; opacity: 1;"/></g><g class="points"/><g class="text"/></g><g class="trace scatter trace615bf4" style="stroke-miterlimit: 2; opacity: 1;"><g class="fills"/><g class="errorbars"/><g class="lines"><path class="js-line" d="M0,365.71L66.6,370.82L133.2,371.98L333,379.09L399.6,380.74L532.8,382.65L599.4,368.94L666,379.73L732.6,365.86L799.2,371.51L865.8,346.88L932.4,369.68L999,187.91" style="vector-effect: none; fill: none; stroke: rgb(217, 83, 79); stroke-opacity: 1; stroke-width: 2px; opacity: 1;"/></g><g class="points"/><g class="text"/></g><g class="trace scatter trace941086" style="stroke-miterlimit: 2; opacity: 1;"><g class="fills"/><g class="errorbars"/><g class="lines"><path class="js-line" d="M0,353.42L66.6,354.65L133.2,359.18L199.8,365.55L266.4,370.52L333,375.44L399.6,378.28L466.2,380.35L532.8,381.58L599.4,362.23L666,378.04L732.6,364.16L799.2,371.12L865.8,340.71L932.4,362.11L999,277.68" style="vector-effect: none; fill: none; stroke: rgb(217, 83, 79); stroke-opacity: 1; stroke-width: 2px; opacity: 1;"/></g><g class="points"/><g class="text"/></g><g class="trace scatter trace40544b" style="stroke-miterlimit: 2; opacity: 1;"><g class="fills"/><g class="errorbars"/><g class="lines"><path class="js-line" d="M0,346.76L66.6,353.97L133.2,358.7L199.8,365.3L266.4,370.82L333,375.51L399.6,378.5L466.2,380.6L532.8,381.78L599.4,364.5L666,379.2L732.6,365.08L799.2,370.17L865.8,336.05L932.4,363.53L999,284.53" style="vector-effect: none; fill: none; stroke: rgb(217, 83, 79); stroke-opacity: 1; stroke-width: 2px; opacity: 1;"/></g><g class="points"/><g class="text"/></g><g class="trace scatter trace1b2003" style="stroke-miterlimit: 2; opacity: 1;"><g class="fills"/><g class="errorbars"/><g class="lines"><path class="js-line" d="M0,374.92L66.6,375.43L133.2,375.16L199.8,375.97L266.4,377.68L399.6,380.69L466.2,381.68L532.8,382.41L599.4,365.28L666,376.78L732.6,358.14L799.2,369.59L865.8,339.82L932.4,362.46L999,199.67" style="vector-effect: none; fill: none; stroke: rgb(217, 83, 79); stroke-opacity: 1; stroke-width: 2px; opacity: 1;"/></g><g class="points"/><g class="text"/></g><g class="trace scatter trace57e4e7" style="stroke-miterlimit: 2; opacity: 1;"><g class="fills"/><g class="errorbars"/><g class="lines"><path class="js-line" d="M0,366.16L66.6,374.2L133.2,374.33L199.8,375.51L266.4,377.45L466.2,381.63L532.8,382.4L599.4,365.12L666,377.27L732.6,357.97L799.2,369.93L865.8,346.31L932.4,365.99L999,201.12" style="vector-effect: none; fill: none; stroke: rgb(217, 83, 79); stroke-opacity: 1; stroke-width: 2px; opacity: 1;"/></g><g class="points"/><g class="text"/></g><g class="trace scatter tracea9ce15" style="stroke-miterlimit: 2; opacity: 1;"><g class="fills"/><g class="errorbars"/><g class="lines"><path class="js-line" d="M0,278.49L66.6,327.37L133.2,351.57L199.8,365.3L266.4,373.85L333,377.35L399.6,379.56L532.8,381.96L599.4,358.11L666,377.83L732.6,367.97L799.2,373.92L865.8,354.25L932.4,370.75L999,355.84" style="vector-effect: none; fill: none; stroke: rgb(217, 83, 79); stroke-opacity: 1; stroke-width: 2px; opacity: 1;"/></g><g class="points"/><g class="text"/></g><g class="trace scatter tracee126c3" style="stroke-miterlimit: 2; opacity: 1;"><g class="fills"/><g class="errorbars"/><g class="lines"><path class="js-line" d="M0,272.5L66.6,326.17L133.2,351.68L199.8,366.53L266.4,373.6L333,377.68L399.6,380.19L532.8,382.11L599.4,361.82L666,378.81L732.6,367.24L799.2,373.31L865.8,349.4L932.4,373.93L999,358.77" style="vector-effect: none; fill: none; stroke: rgb(217, 83, 79); stroke-opacity: 1; stroke-width: 2px; opacity: 1;"/></g><g class="points"/><g class="text"/></g><g class="trace scatter trace47fc1b" style="stroke-miterlimit: 2; opacity: 1;"><g class="fills"/><g class="errorbars"/><g class="lines"><path class="js-line" d="M0,354.34L66.6,357.85L133.2,362.95L199.8,369.55L266.4,374.61L333,378.16L399.6,380.29L532.8,382.63L599.4,365.84L666,378.23L732.6,363.01L799.2,371.34L865.8,338.32L932.4,360.83L999,255.43" style="vector-effect: none; fill: none; stroke: rgb(217, 83, 79); stroke-opacity: 1; stroke-width: 2px; opacity: 1;"/></g><g class="points"/><g class="text"/></g><g class="trace scatter tracee3dc88" style="stroke-miterlimit: 2; opacity: 1;"><g class="fills"/><g class="errorbars"/><g class="lines"><path class="js-line" d="M0,349.9L66.6,357.4L133.2,362.97L199.8,369.43L266.4,374.64L333,378.36L399.6,380.29L466.2,381.88L532.8,382.69L599.4,367.57L666,378.94L732.6,364.46L799.2,369.73L865.8,336.32L932.4,360.95L999,259.47" style="vector-effect: none; fill: none; stroke: rgb(217, 83, 79); stroke-opacity: 1; stroke-width: 2px; opacity: 1;"/></g><g class="points"/><g class="text"/></g><g class="trace scatter tracef74ab5" style="stroke-miterlimit: 2; opacity: 1;"><g class="fills"/><g class="errorbars"/><g class="lines"><path class="js-line" d="M0,377.35L66.6,379.58L133.2,377.13L199.8,375.67L266.4,375.11L399.6,376.67L466.2,377.79L532.8,378.91L599.4,346.03L666,375.71L732.6,360.55L799.2,372.08L865.8,350.89L932.4,369.67L999,206.17" style="vector-effect: none; fill: none; stroke: rgb(217, 83, 79); stroke-opacity: 1; stroke-width: 2px; opacity: 1;"/></g><g class="points"/><g class="text"/></g><g class="trace scatter traceb30070" style="stroke-miterlimit: 2; opacity: 1;"><g class="fills"/><g class="errorbars"/><g class="lines"><path class="js-line" d="M0,364.86L66.6,377.78L133.2,376.16L266.4,374.53L333,375.18L532.8,378.75L599.4,343.54L666,375.23L732.6,360.52L799.2,371.68L865.8,354.06L932.4,372.66L999,221.34" style="vector-effect: none; fill: none; stroke: rgb(217, 83, 79); stroke-opacity: 1; stroke-width: 2px; opacity: 1;"/></g><g class="points"/><g class="text"/></g><g class="trace scatter traceeb3fa8" style="stroke-miterlimit: 2; opacity: 1;"><g class="fills"/><g class="errorbars"/><g class="lines"><path class="js-line" d="M0,374.21L66.6,374.96L133.2,374.66L199.8,375.66L266.4,377.43L466.2,381.32L532.8,382.29L599.4,363.15L666,377.23L732.6,361.49L799.2,372.54L865.8,350.31L932.4,364.9L999,185.55" style="vector-effect: none; fill: none; stroke: rgb(217, 83, 79); stroke-opacity: 1; stroke-width: 2px; opacity: 1;"/></g><g class="points"/><g class="text"/></g><g class="trace scatter trace3c6168" style="stroke-miterlimit: 2; opacity: 1;"><g class="fills"/><g class="errorbars"/><g class="lines"><path class="js-line" d="M0,368.26L66.6,374.26L133.2,374.18L266.4,377.38L333,378.84L466.2,381.45L532.8,382.12L599.4,362.86L666,377.15L732.6,362.21L799.2,372.3L865.8,353.48L932.4,370.41L999,184.35" style="vector-effect: none; fill: none; stroke: rgb(217, 83, 79); stroke-opacity: 1; stroke-width: 2px; opacity: 1;"/></g><g class="points"/><g class="text"/></g><g class="trace scatter trace0e260b" style="stroke-miterlimit: 2; opacity: 1;"><g class="fills"/><g class="errorbars"/><g class="lines"><path class="js-line" d="M0,375.68L66.6,376.99L133.2,375.54L199.8,375.34L266.4,376.03L532.8,381.01L599.4,355.93L666,375.89L732.6,357.67L799.2,368.93L865.8,333.39L932.4,360.34L999,226" style="vector-effect: none; fill: none; stroke: rgb(217, 83, 79); stroke-opacity: 1; stroke-width: 2px; opacity: 1;"/></g><g class="points"/><g class="text"/></g><g class="trace scatter trace730296" style="stroke-miterlimit: 2; opacity: 1;"><g class="fills"/><g class="errorbars"/><g class="lines"><path class="js-line" d="M0,369.28L66.6,376.33L133.2,375.07L266.4,375.82L333,377.38L532.8,381.04L599.4,356.81L666,376.41L732.6,358.91L799.2,367.78L865.8,332.54L932.4,362L999,231.83" style="vector-effect: none; fill: none; stroke: rgb(217, 83, 79); stroke-opacity: 1; stroke-width: 2px; opacity: 1;"/></g><g class="points"/><g class="text"/></g><g class="trace scatter trace163485" style="stroke-miterlimit: 2; opacity: 1;"><g class="fills"/><g class="errorbars"/><g class="lines"><path class="js-line" d="M0,353.34L66.6,360.27L133.2,366.05L199.8,371.68L266.4,376L333,378.86L399.6,380.77L532.8,382.63L599.4,363.71L666,377.12L732.6,361.02L799.2,371.72L865.8,346.07L932.4,366.76L999,237.12" style="vector-effect: none; fill: none; stroke: rgb(217, 83, 79); stroke-opacity: 1; stroke-width: 2px; opacity: 1;"/></g><g class="points"/><g class="text"/></g><g class="trace scatter trace14b6d7" style="stroke-miterlimit: 2; opacity: 1;"><g class="fills"/><g class="errorbars"/><g class="lines"><path class="js-line" d="M0,348.08L66.6,359.42L133.2,365.75L199.8,371.74L266.4,375.94L333,378.94L399.6,380.78L532.8,382.77L599.4,364.7L666,377.23L732.6,361.4L799.2,370.64L865.8,347.22L932.4,368.39L999,240.01" style="vector-effect: none; fill: none; stroke: rgb(217, 83, 79); stroke-opacity: 1; stroke-width: 2px; opacity: 1;"/></g><g class="points"/><g class="text"/></g><g class="trace scatter trace957b6a" style="stroke-miterlimit: 2; opacity: 1;"><g class="fills"/><g class="errorbars"/><g class="lines"><path class="js-line" d="M0,376.96L66.6,377.6L133.2,376.31L199.8,376.05L266.4,376.75L532.8,381.65L599.4,362.21L666,377.41L732.6,361.93L799.2,371.46L865.8,347.38L932.4,369.25L999,181.87" style="vector-effect: none; fill: none; stroke: rgb(217, 83, 79); stroke-opacity: 1; stroke-width: 2px; opacity: 1;"/></g><g class="points"/><g class="text"/></g><g class="trace scatter trace422cfb" style="stroke-miterlimit: 2; opacity: 1;"><g class="fills"/><g class="errorbars"/><g class="lines"><path class="js-line" d="M0,370.32L66.6,376.91L133.2,375.96L199.8,375.81L266.4,376.55L532.8,381.63L599.4,362.45L666,377.76L732.6,361.16L799.2,370.66L865.8,353.02L932.4,370.74L999,183.94" style="vector-effect: none; fill: none; stroke: rgb(217, 83, 79); stroke-opacity: 1; stroke-width: 2px; opacity: 1;"/></g><g class="points"/><g class="text"/></g><g class="trace scatter traceafea58" style="stroke-miterlimit: 2; opacity: 1;"><g class="fills"/><g class="errorbars"/><g class="lines"><path class="js-line" d="M0,361.54L66.6,362.35L133.2,363.98L199.8,367.46L266.4,372.09L399.6,378.27L466.2,380.23L532.8,381.43L599.4,363.6L666,378.19L732.6,365.62L799.2,373.48L865.8,343.34L932.4,362.24L999,245.66" style="vector-effect: none; fill: none; stroke: rgb(217, 83, 79); stroke-opacity: 1; stroke-width: 2px; opacity: 1;"/></g><g class="points"/><g class="text"/></g><g class="trace scatter trace067d57" style="stroke-miterlimit: 2; opacity: 1;"><g class="fills"/><g class="errorbars"/><g class="lines"><path class="js-line" d="M0,356.47L66.6,361.79L133.2,363.82L333,375.7L399.6,378.45L532.8,381.61L599.4,363.58L666,378.99L732.6,367.9L799.2,373.96L865.8,340.8L932.4,359.64L999,252" style="vector-effect: none; fill: none; stroke: rgb(217, 83, 79); stroke-opacity: 1; stroke-width: 2px; opacity: 1;"/></g><g class="points"/><g class="text"/></g><g class="trace scatter trace727301" style="stroke-miterlimit: 2; opacity: 1;"><g class="fills"/><g class="errorbars"/><g class="lines"><path class="js-line" d="M0,379.7L66.6,381.15L133.2,379.88L199.8,378.94L266.4,378.78L399.6,379.58L466.2,380.44L532.8,381.27L599.4,362.41L666,379.83L732.6,371.65L799.2,377.78L865.8,360.09L932.4,369.31L999,135.21" style="vector-effect: none; fill: none; stroke: rgb(217, 83, 79); stroke-opacity: 1; stroke-width: 2px; opacity: 1;"/></g><g class="points"/><g class="text"/></g><g class="trace scatter trace99e1d1" style="stroke-miterlimit: 2; opacity: 1;"><g class="fills"/><g class="errorbars"/><g class="lines"><path class="js-line" d="M0,362.16L66.6,378.66L133.2,378.43L266.4,377.89L333,378.34L532.8,380.98L599.4,358.03L666,378.95L732.6,372.4L799.2,378.61L865.8,365.02L932.4,371.74L999,156.46" style="vector-effect: none; fill: none; stroke: rgb(217, 83, 79); stroke-opacity: 1; stroke-width: 2px; opacity: 1;"/></g><g class="points"/><g class="text"/></g><g class="trace scatter tracee17025" style="stroke-miterlimit: 2; opacity: 1;"><g class="fills"/><g class="errorbars"/><g class="lines"><path class="js-line" d="M0,366.73L133.2,371.2L199.8,374.99L266.4,377.95L333,380.01L399.6,381.66L466.2,382.53L532.8,383.21L599.4,368.7L666,378.24L732.6,363.65L799.2,372.13L865.8,344.67L932.4,361.14L999,199.04" style="vector-effect: none; fill: none; stroke: rgb(217, 83, 79); stroke-opacity: 1; stroke-width: 2px; opacity: 1;"/></g><g class="points"/><g class="text"/></g><g class="trace scatter trace2a04ba" style="stroke-miterlimit: 2; opacity: 1;"><g class="fills"/><g class="errorbars"/><g class="lines"><path class="js-line" d="M0,363.45L66.6,368.77L133.2,371.22L266.4,377.96L333,380.01L466.2,382.63L532.8,383.12L599.4,369.06L666,378.87L732.6,364.13L799.2,372.5L865.8,346.65L932.4,362.79L999,197.41" style="vector-effect: none; fill: none; stroke: rgb(217, 83, 79); stroke-opacity: 1; stroke-width: 2px; opacity: 1;"/></g><g class="points"/><g class="text"/></g><g class="trace scatter trace6d48e8" style="stroke-miterlimit: 2; opacity: 1;"><g class="fills"/><g class="errorbars"/><g class="lines"><path class="js-line" d="M0,356.45L66.6,360.71L133.2,365.77L266.4,375.17L333,378.06L466.2,381.56L532.8,382.23L599.4,361.47L666,376.45L732.6,360.64L799.2,370.43L865.8,342.68L932.4,362.78L999,249.7" style="vector-effect: none; fill: none; stroke: rgb(217, 83, 79); stroke-opacity: 1; stroke-width: 2px; opacity: 1;"/></g><g class="points"/><g class="text"/></g><g class="trace scatter trace97b683" style="stroke-miterlimit: 2; opacity: 1;"><g class="fills"/><g class="errorbars"/><g class="lines"><path class="js-line" d="M0,350.16L66.6,360.33L133.2,365.41L199.8,370.73L266.4,375.11L333,378.23L399.6,380.26L532.8,382.39L599.4,363.26L666,377.13L732.6,361.64L799.2,370.06L865.8,341.87L932.4,364.9L999,251.87" style="vector-effect: none; fill: none; stroke: rgb(217, 83, 79); stroke-opacity: 1; stroke-width: 2px; opacity: 1;"/></g><g class="points"/><g class="text"/></g><g class="trace scatter tracea417ca" style="stroke-miterlimit: 2; opacity: 1;"><g class="fills"/><g class="errorbars"/><g class="lines"><path class="js-line" d="M0,375.9L66.6,377.98L133.2,376.18L266.4,374.89L333,375.62L532.8,378.94L599.4,347.01L666,376.4L732.6,361.8L799.2,370.73L865.8,337.52L932.4,360.55L999,231.46" style="vector-effect: none; fill: none; stroke: rgb(217, 83, 79); stroke-opacity: 1; stroke-width: 2px; opacity: 1;"/></g><g class="points"/><g class="text"/></g><g class="trace scatter traceb42dbf" style="stroke-miterlimit: 2; opacity: 1;"><g class="fills"/><g class="errorbars"/><g class="lines"><path class="js-line" d="M0,370.63L66.6,377.33L133.2,375.75L266.4,374.81L333,375.56L532.8,378.99L599.4,348.09L666,377.38L732.6,364L799.2,370.11L865.8,334.21L932.4,360.92L999,237.89" style="vector-effect: none; fill: none; stroke: rgb(217, 83, 79); stroke-opacity: 1; stroke-width: 2px; opacity: 1;"/></g><g class="points"/><g class="text"/></g><g class="trace scatter trace500467" style="stroke-miterlimit: 2; opacity: 1;"><g class="fills"/><g class="errorbars"/><g class="lines"><path class="js-line" d="M0,373.32L66.6,373.51L133.2,371.89L199.8,372.29L266.4,373.9L532.8,380.73L599.4,357.27L666,376.82L732.6,360.83L799.2,370.34L865.8,341.89L932.4,366.31L999,223.1" style="vector-effect: none; fill: none; stroke: rgb(217, 83, 79); stroke-opacity: 1; stroke-width: 2px; opacity: 1;"/></g><g class="points"/><g class="text"/></g><g class="trace scatter trace3062d1" style="stroke-miterlimit: 2; opacity: 1;"><g class="fills"/><g class="errorbars"/><g class="lines"><path class="js-line" d="M0,366.06L66.6,372.74L133.2,371.39L199.8,372.05L266.4,373.63L399.6,377.8L466.2,379.44L532.8,380.76L599.4,358.29L666,377.63L732.6,361.02L799.2,368.65L865.8,343.16L932.4,367.98L999,228.53" style="vector-effect: none; fill: none; stroke: rgb(217, 83, 79); stroke-opacity: 1; stroke-width: 2px; opacity: 1;"/></g><g class="points"/><g class="text"/></g><g class="trace scatter trace1b1806" style="stroke-miterlimit: 2; opacity: 1;"><g class="fills"/><g class="errorbars"/><g class="lines"><path class="js-line" d="M0,371.66L133.2,372.64L199.8,374.64L333,379.04L399.6,380.57L532.8,382.47L599.4,364.08L666,377.26L732.6,361L799.2,371.6L865.8,344.44L932.4,365.6L999,198.92" style="vector-effect: none; fill: none; stroke: rgb(217, 83, 79); stroke-opacity: 1; stroke-width: 2px; opacity: 1;"/></g><g class="points"/><g class="text"/></g><g class="trace scatter trace9c7229" style="stroke-miterlimit: 2; opacity: 1;"><g class="fills"/><g class="errorbars"/><g class="lines"><path class="js-line" d="M0,360.09L66.6,371.97L133.2,372.57L399.6,380.6L466.2,381.81L532.8,382.54L599.4,365.3L666,377.68L732.6,361.96L799.2,370.94L865.8,348.71L932.4,368.81L999,201.41" style="vector-effect: none; fill: none; stroke: rgb(217, 83, 79); stroke-opacity: 1; stroke-width: 2px; opacity: 1;"/></g><g class="points"/><g class="text"/></g><g class="trace scatter trace759cf2" style="stroke-miterlimit: 2; opacity: 1;"><g class="fills"/><g class="errorbars"/><g class="lines"><path class="js-line" d="M0,379.21L66.6,381.5L133.2,380.28L266.4,379L333,379.22L532.8,381.05L599.4,359L666,377.91L732.6,363.37L799.2,372.19L865.8,346.1L932.4,363.02L999,173.87" style="vector-effect: none; fill: none; stroke: rgb(217, 83, 79); stroke-opacity: 1; stroke-width: 2px; opacity: 1;"/></g><g class="points"/><g class="text"/></g><g class="trace scatter trace90c2e6" style="stroke-miterlimit: 2; opacity: 1;"><g class="fills"/><g class="errorbars"/><g class="lines"><path class="js-line" d="M0,369.28L66.6,380.17L133.2,379.6L266.4,378.63L333,379.05L466.2,380.19L532.8,380.91L599.4,358.13L666,378.05L732.6,363.57L799.2,371.92L865.8,349.28L932.4,366.04L999,181.91" style="vector-effect: none; fill: none; stroke: rgb(217, 83, 79); stroke-opacity: 1; stroke-width: 2px; opacity: 1;"/></g><g class="points"/><g class="text"/></g><g class="trace scatter trace434acd" style="stroke-miterlimit: 2; opacity: 1;"><g class="fills"/><g class="errorbars"/><g class="lines"><path class="js-line" d="M0,307.48L66.6,335.08L133.2,353.16L199.8,364.69L266.4,371.69L333,376.09L399.6,378.39L466.2,380.12L532.8,380.93L599.4,350.74L666,375.72L732.6,363.44L799.2,373.79L865.8,354.4L932.4,375.73L999,333.55" style="vector-effect: none; fill: none; stroke: rgb(217, 83, 79); stroke-opacity: 1; stroke-width: 2px; opacity: 1;"/></g><g class="points"/><g class="text"/></g><g class="trace scatter tracec6bfcd" style="stroke-miterlimit: 2; opacity: 1;"><g class="fills"/><g class="errorbars"/><g class="lines"><path class="js-line" d="M0,301.68L66.6,333.16L133.2,352.58L199.8,364.74L266.4,371.84L333,376.24L399.6,378.68L466.2,380.52L532.8,381.6L599.4,354.37L666,376.71L732.6,362.17L799.2,372L865.8,357.6L932.4,375.57L999,335.53" style="vector-effect: none; fill: none; stroke: rgb(217, 83, 79); stroke-opacity: 1; stroke-width: 2px; opacity: 1;"/></g><g class="points"/><g class="text"/></g><g class="trace scatter traceb54452" style="stroke-miterlimit: 2; opacity: 1;"><g class="fills"/><g class="errorbars"/><g class="lines"><path class="js-line" d="M0,377.68L66.6,380.66L133.2,378.98L266.4,376.91L333,376.69L466.2,377.6L532.8,378.64L599.4,344.24L666,376.03L732.6,359.48L799.2,369.78L865.8,344.02L932.4,367.31L999,212.4" style="vector-effect: none; fill: none; stroke: rgb(217, 83, 79); stroke-opacity: 1; stroke-width: 2px; opacity: 1;"/></g><g class="points"/><g class="text"/></g><g class="trace scatter tracef3bd37" style="stroke-miterlimit: 2; opacity: 1;"><g class="fills"/><g class="errorbars"/><g class="lines"><path class="js-line" d="M0,364.79L66.6,378.88L133.2,378.03L266.4,376.33L333,376.27L466.2,377.44L532.8,378.53L599.4,344.71L666,376.92L732.6,358.61L799.2,368.82L865.8,348.39L932.4,369.32L999,224.47" style="vector-effect: none; fill: none; stroke: rgb(217, 83, 79); stroke-opacity: 1; stroke-width: 2px; opacity: 1;"/></g><g class="points"/><g class="text"/></g><g class="trace scatter trace704e1f" style="stroke-miterlimit: 2; opacity: 1;"><g class="fills"/><g class="errorbars"/><g class="lines"><path class="js-line" d="M0,355.8L199.8,373.71L266.4,377.75L333,380.13L399.6,381.74L532.8,383.18L599.4,368.22L666,378.53L732.6,364.33L799.2,371.1L865.8,339.75L932.4,361.5L999,226.55" style="vector-effect: none; fill: none; stroke: rgb(217, 83, 79); stroke-opacity: 1; stroke-width: 2px; opacity: 1;"/></g><g class="points"/><g class="text"/></g><g class="trace scatter trace9eecca" style="stroke-miterlimit: 2; opacity: 1;"><g class="fills"/><g class="errorbars"/><g class="lines"><path class="js-line" d="M0,349.15L66.6,361.25L133.2,368.15L199.8,373.55L266.4,377.7L399.6,381.77L466.2,382.63L532.8,383.25L599.4,369.54L666,379.49L732.6,365.99L799.2,371.24L865.8,339.15L932.4,361.22L999,230.84" style="vector-effect: none; fill: none; stroke: rgb(217, 83, 79); stroke-opacity: 1; stroke-width: 2px; opacity: 1;"/></g><g class="points"/><g class="text"/></g></g></g></g><path class="xlines-above crisp" d="M0,0" style="fill: none;"/><path class="ylines-above crisp" d="M0,0" style="fill: none;"/><g class="overlines-above"/><g class="xaxislayer-above"><g class="xtick"><text text-anchor="middle" x="0" y="451" transform="translate(71,0)" style="font-family: 'Lucida Grande', 'Open Sans', verdana, arial, sans-serif; font-size: 10px; fill: rgb(0, 0, 0); fill-opacity: 1; white-space: pre; opacity: 1;">1</text></g><g class="xtick"><text text-anchor="middle" x="0" y="451" transform="translate(137.6,0)" style="font-family: 'Lucida Grande', 'Open Sans', verdana, arial, sans-serif; font-size: 10px; fill: rgb(0, 0, 0); fill-opacity: 1; white-space: pre; opacity: 1;">2</text></g><g class="xtick"><text text-anchor="middle" x="0" y="451" transform="translate(204.2,0)" style="font-family: 'Lucida Grande', 'Open Sans', verdana, arial, sans-serif; font-size: 10px; fill: rgb(0, 0, 0); fill-opacity: 1; white-space: pre; opacity: 1;">3</text></g><g class="xtick"><text text-anchor="middle" x="0" y="451" transform="translate(270.8,0)" style="font-family: 'Lucida Grande', 'Open Sans', verdana, arial, sans-serif; font-size: 10px; fill: rgb(0, 0, 0); fill-opacity: 1; white-space: pre; opacity: 1;">4</text></g><g class="xtick"><text text-anchor="middle" x="0" y="451" transform="translate(337.4,0)" style="font-family: 'Lucida Grande', 'Open Sans', verdana, arial, sans-serif; font-size: 10px; fill: rgb(0, 0, 0); fill-opacity: 1; white-space: pre; opacity: 1;">5</text></g><g class="xtick"><text text-anchor="middle" x="0" y="451" transform="translate(404,0)" style="font-family: 'Lucida Grande', 'Open Sans', verdana, arial, sans-serif; font-size: 10px; fill: rgb(0, 0, 0); fill-opacity: 1; white-space: pre; opacity: 1;">6</text></g><g class="xtick"><text text-anchor="middle" x="0" y="451" transform="translate(470.6,0)" style="font-family: 'Lucida Grande', 'Open Sans', verdana, arial, sans-serif; font-size: 10px; fill: rgb(0, 0, 0); fill-opacity: 1; white-space: pre; opacity: 1;">7</text></g><g class="xtick"><text text-anchor="middle" x="0" y="451" transform="translate(537.2,0)" style="font-family: 'Lucida Grande', 'Open Sans', verdana, arial, sans-serif; font-size: 10px; fill: rgb(0, 0, 0); fill-opacity: 1; white-space: pre; opacity: 1;">8</text></g><g class="xtick"><text text-anchor="middle" x="0" y="451" transform="translate(603.8,0)" style="font-family: 'Lucida Grande', 'Open Sans', verdana, arial, sans-serif; font-size: 10px; fill: rgb(0, 0, 0); fill-opacity: 1; white-space: pre; opacity: 1;">9</text></g><g class="xtick"><text text-anchor="middle" x="0" y="451" transform="translate(670.4,0)" style="font-family: 'Lucida Grande', 'Open Sans', verdana, arial, sans-serif; font-size: 10px; fill: rgb(0, 0, 0); fill-opacity: 1; white-space: pre; opacity: 1;">>10</text></g><g class="xtick"><text text-anchor="middle" x="0" y="451" transform="translate(737,0)" style="font-family: 'Lucida Grande', 'Open Sans', verdana, arial, sans-serif; font-size: 10px; fill: rgb(0, 0, 0); fill-opacity: 1; white-space: pre; opacity: 1;">>50</text></g><g class="xtick"><text text-anchor="middle" x="0" y="451" transform="translate(803.6,0)" style="font-family: 'Lucida Grande', 'Open Sans', verdana, arial, sans-serif; font-size: 10px; fill: rgb(0, 0, 0); fill-opacity: 1; white-space: pre; opacity: 1;">>100</text></g><g class="xtick"><text text-anchor="middle" x="0" y="451" transform="translate(870.2,0)" style="font-family: 'Lucida Grande', 'Open Sans', verdana, arial, sans-serif; font-size: 10px; fill: rgb(0, 0, 0); fill-opacity: 1; white-space: pre; opacity: 1;">>500</text></g><g class="xtick"><text text-anchor="middle" x="0" y="451" transform="translate(936.8,0)" style="font-family: 'Lucida Grande', 'Open Sans', verdana, arial, sans-serif; font-size: 10px; fill: rgb(0, 0, 0); fill-opacity: 1; white-space: pre; opacity: 1;">>1k</text></g><g class="xtick"><text text-anchor="middle" x="0" y="451" transform="translate(1003.4,0)" style="font-family: 'Lucida Grande', 'Open Sans', verdana, arial, sans-serif; font-size: 10px; fill: rgb(0, 0, 0); fill-opacity: 1; white-space: pre; opacity: 1;">>5k</text></g><g class="xtick"><text text-anchor="middle" x="0" y="451" transform="translate(1070,0)" style="font-family: 'Lucida Grande', 'Open Sans', verdana, arial, sans-serif; font-size: 10px; fill: rgb(0, 0, 0); fill-opacity: 1; white-space: pre; opacity: 1;">>10k+</text></g></g><g class="yaxislayer-above"><g class="ytick"><text text-anchor="end" x="65" y="3.5" transform="translate(0,435)" style="font-family: 'Lucida Grande', 'Open Sans', verdana, arial, sans-serif; font-size: 10px; fill: rgb(0, 0, 0); fill-opacity: 1; white-space: pre; opacity: 1;">0%</text></g><g class="ytick"><text text-anchor="end" x="65" y="3.5" style="font-family: 'Lucida Grande', 'Open Sans', verdana, arial, sans-serif; font-size: 10px; fill: rgb(0, 0, 0); fill-opacity: 1; white-space: pre; opacity: 1;" transform="translate(0,358)">20%</text></g><g class="ytick"><text text-anchor="end" x="65" y="3.5" style="font-family: 'Lucida Grande', 'Open Sans', verdana, arial, sans-serif; font-size: 10px; fill: rgb(0, 0, 0); fill-opacity: 1; white-space: pre; opacity: 1;" transform="translate(0,281)">40%</text></g><g class="ytick"><text text-anchor="end" x="65" y="3.5" style="font-family: 'Lucida Grande', 'Open Sans', verdana, arial, sans-serif; font-size: 10px; fill: rgb(0, 0, 0); fill-opacity: 1; white-space: pre; opacity: 1;" transform="translate(0,204)">60%</text></g><g class="ytick"><text text-anchor="end" x="65" y="3.5" style="font-family: 'Lucida Grande', 'Open Sans', verdana, arial, sans-serif; font-size: 10px; fill: rgb(0, 0, 0); fill-opacity: 1; white-space: pre; opacity: 1;" transform="translate(0,127)">80%</text></g><g class="ytick"><text text-anchor="end" x="65" y="3.5" style="font-family: 'Lucida Grande', 'Open Sans', verdana, arial, sans-serif; font-size: 10px; fill: rgb(0, 0, 0); fill-opacity: 1; white-space: pre; opacity: 1;" transform="translate(0,50)">100%</text></g></g><g class="overaxes-above"/></g></g><g class="polarlayer"/><g class="smithlayer"/><g class="ternarylayer"/><g class="geolayer"/><g class="funnelarealayer"/><g class="pielayer"/><g class="iciclelayer"/><g class="treemaplayer"/><g class="sunburstlayer"/><g class="glimages"/><defs id="topdefs-af4b5a"><g class="clips"/></defs><g class="layer-above"><g class="imagelayer"/><g class="shapelayer"/></g><g class="infolayer"><g class="g-gtitle"><text class="gtitle" x="550" y="25" text-anchor="middle" dy="0em" style="opacity: 1; font-family: 'Lucida Grande', 'Open Sans', verdana, arial, sans-serif; font-size: 20px; fill: rgb(42, 63, 95); fill-opacity: 1; white-space: pre;"><tspan class="line" dy="0em" x="550" y="25">FastQC: Sequence Duplication Levels</tspan><tspan class="line" dy="1.3em" x="550" y="25">​<tspan style="font-size:70%" dy="-0.6em">50 samples</tspan><tspan dy="0.42em">​</tspan></tspan></text></g><g class="g-xtitle"><text class="xtitle" x="570.5" y="472.3" text-anchor="middle" style="opacity: 0.3; font-family: 'Lucida Grande', 'Open Sans', verdana, arial, sans-serif; font-size: 14px; fill: rgb(0, 0, 0); fill-opacity: 1; white-space: pre;">Sequence Duplication Level</text></g><g class="g-ytitle"><text class="ytitle" transform="rotate(-90,22.00625,242.5)" x="22.00625" y="242.5" text-anchor="middle" style="opacity: 0.3; font-family: 'Lucida Grande', 'Open Sans', verdana, arial, sans-serif; font-size: 14px; fill: rgb(0, 0, 0); fill-opacity: 1; white-space: pre;">% of Library</text></g></g></svg>