<svg class="main-svg" xmlns="http://www.w3.org/2000/svg" xmlns:xlink="http://www.w3.org/1999/xlink" width="2200" height="1000" style="" viewBox="0 0 1100 500"><rect x="0" y="0" width="1100" height="500" style="fill: rgb(255, 255, 255); fill-opacity: 1;"/><defs id="defs-700845"><g class="clips"><clipPath id="clip700845xyplot" class="plotclip"><rect width="999" height="385"/></clipPath><clipPath class="axesclip" id="clip700845x"><rect x="71" y="0" width="999" height="500"/></clipPath><clipPath class="axesclip" id="clip700845y"><rect x="0" y="50" width="1100" height="385"/></clipPath><clipPath class="axesclip" id="clip700845xy"><rect x="71" y="50" width="999" height="385"/></clipPath></g><g class="gradients"/><g class="patterns"/></defs><g class="bglayer"/><g class="layer-below"><g class="imagelayer"/><g class="shapelayer"/></g><g class="cartesianlayer"><g class="subplot xy"><g class="layer-subplot"><g class="shapelayer"/><g class="imagelayer"/></g><g class="minor-gridlayer"><g class="x"/><g class="y"/></g><g class="gridlayer"><g class="x"><path class="xgrid crisp" transform="translate(137.6,0)" d="M0,50v385" style="stroke: rgb(0, 0, 0); stroke-opacity: 0.05; stroke-width: 1px;"/><path class="xgrid crisp" transform="translate(204.2,0)" d="M0,50v385" style="stroke: rgb(0, 0, 0); stroke-opacity: 0.05; stroke-width: 1px;"/><path class="xgrid crisp" transform="translate(270.8,0)" d="M0,50v385" style="stroke: rgb(0, 0, 0); stroke-opacity: 0.05; stroke-width: 1px;"/><path class="xgrid crisp" transform="translate(337.4,0)" d="M0,50v385" style="stroke: rgb(0, 0, 0); stroke-opacity: 0.05; stroke-width: 1px;"/><path class="xgrid crisp" transform="translate(404,0)" d="M0,50v385" style="stroke: rgb(0, 0, 0); stroke-opacity: 0.05; stroke-width: 1px;"/><path class="xgrid crisp" transform="translate(470.6,0)" d="M0,50v385" style="stroke: rgb(0, 0, 0); stroke-opacity: 0.05; stroke-width: 1px;"/><path class="xgrid crisp" transform="translate(537.2,0)" d="M0,50v385" style="stroke: rgb(0, 0, 0); stroke-opacity: 0.05; stroke-width: 1px;"/><path class="xgrid crisp" transform="translate(603.8,0)" d="M0,50v385" style="stroke: rgb(0, 0, 0); stroke-opacity: 0.05; stroke-width: 1px;"/><path class="xgrid crisp" transform="translate(670.4,0)" d="M0,50v385" style="stroke: rgb(0, 0, 0); stroke-opacity: 0.05; stroke-width: 1px;"/><path class="xgrid crisp" transform="translate(737,0)" d="M0,50v385" style="stroke: rgb(0, 0, 0); stroke-opacity: 0.05; stroke-width: 1px;"/><path class="xgrid crisp" transform="translate(803.6,0)" d="M0,50v385" style="stroke: rgb(0, 0, 0); stroke-opacity: 0.05; stroke-width: 1px;"/><path class="xgrid crisp" transform="translate(870.2,0)" d="M0,50v385" style="stroke: rgb(0, 0, 0); stroke-opacity: 0.05; stroke-width: 1px;"/><path class="xgrid crisp" transform="translate(936.8,0)" d="M0,50v385" style="stroke: rgb(0, 0, 0); stroke-opacity: 0.05; stroke-width: 1px;"/><path class="xgrid crisp" transform="translate(1003.4,0)" d="M0,50v385" style="stroke: rgb(0, 0, 0); stroke-opacity: 0.05; stroke-width: 1px;"/></g><g class="y"><path class="ygrid crisp" transform="translate(0,358)" d="M71,0h999" style="stroke: rgb(0, 0, 0); stroke-opacity: 0.05; stroke-width: 1px;"/><path class="ygrid crisp" transform="translate(0,281)" d="M71,0h999" style="stroke: rgb(0, 0, 0); stroke-opacity: 0.05; stroke-width: 1px;"/><path class="ygrid crisp" transform="translate(0,204)" d="M71,0h999" style="stroke: rgb(0, 0, 0); stroke-opacity: 0.05; stroke-width: 1px;"/><path class="ygrid crisp" transform="translate(0,127)" d="M71,0h999" style="stroke: rgb(0, 0, 0); stroke-opacity: 0.05; stroke-width: 1px;"/></g></g><g class="zerolinelayer"><path class="yzl zl crisp" transform="translate(0,435)" d="M71,0h999" style="stroke: rgb(0, 0, 0); stroke-opacity: 0.05; stroke-width: 2px;"/></g><g class="layer-between"><g class="shapelayer"/><g class="imagelayer"/></g><path class="xlines-below"/><path class="ylines-below"/><g class="overlines-below"/><g class="xaxislayer-below"/><g class="yaxislayer-below"/><g class="overaxes-below"/><g class="overplot"><g class="xy" transform="translate(71,50)" clip-path="url(#clip700845xyplot)"><g class="scatterlayer mlayer"><g class="trace scatter tracee7e571" style="stroke-miterlimit: 2; opacity: 1;"><g class="fills"/><g class="errorbars"/><g class="lines"><path class="js-line" d="M0,376.47L66.6,377.69L133.2,374.96L199.8,373.21L266.4,372.74L333,373.38L399.6,374.93L532.8,377.83L599.4,343.82L666,377.36L732.6,364.75L799.2,374.08L865.8,351.49L932.4,364.82L999,221.05" style="vector-effect: none; fill: none; stroke: rgb(217, 83, 79); stroke-opacity: 1; stroke-width: 2px; opacity: 1;"/></g><g class="points"/><g class="text"/></g><g class="trace scatter trace0f98bf" style="stroke-miterlimit: 2; opacity: 1;"><g class="fills"/><g class="errorbars"/><g class="lines"><path class="js-line" d="M0,373.75L66.6,377.65L133.2,375.02L199.8,373.15L266.4,372.71L333,373.38L399.6,374.88L532.8,378.02L599.4,346.03L666,378.02L732.6,366.91L799.2,375.42L865.8,358.35L932.4,366.14L999,209.13" style="vector-effect: none; fill: none; stroke: rgb(217, 83, 79); stroke-opacity: 1; stroke-width: 2px; opacity: 1;"/></g><g class="points"/><g class="text"/></g><g class="trace scatter tracebde0ae" style="stroke-miterlimit: 2; opacity: 1;"><g class="fills"/><g class="errorbars"/><g class="lines"><path class="js-line" d="M0,380.8L66.6,382.06L133.2,381.52L266.4,381.52L333,381.96L532.8,383.31L599.4,371.59L666,379.17L732.6,368.07L799.2,376.63L865.8,355.53L932.4,364.77L999,121.33" style="vector-effect: none; fill: none; stroke: rgb(217, 83, 79); stroke-opacity: 1; stroke-width: 2px; opacity: 1;"/></g><g class="points"/><g class="text"/></g><g class="trace scatter trace3617e4" style="stroke-miterlimit: 2; opacity: 1;"><g class="fills"/><g class="errorbars"/><g class="lines"><path class="js-line" d="M0,377.64L66.6,381.92L133.2,381.51L333,382.02L399.6,382.55L532.8,383.42L599.4,372.28L666,379.4L732.6,370.51L799.2,378.01L865.8,359.43L932.4,367.61L999,112.65" style="vector-effect: none; fill: none; stroke: rgb(217, 83, 79); stroke-opacity: 1; stroke-width: 2px; opacity: 1;"/></g><g class="points"/><g class="text"/></g><g class="trace scatter trace9a9cc0" style="stroke-miterlimit: 2; opacity: 1;"><g class="fills"/><g class="errorbars"/><g class="lines"><path class="js-line" d="M0,374.9L133.2,377.88L199.8,379.6L333,382.1L399.6,383.01L532.8,383.84L599.4,373.09L666,379.59L732.6,368.6L799.2,375.6L865.8,353.33L932.4,362.6L999,139.63" style="vector-effect: none; fill: none; stroke: rgb(217, 83, 79); stroke-opacity: 1; stroke-width: 2px; opacity: 1;"/></g><g class="points"/><g class="text"/></g><g class="trace scatter trace5b6270" style="stroke-miterlimit: 2; opacity: 1;"><g class="fills"/><g class="errorbars"/><g class="lines"><path class="js-line" d="M0,373.15L66.6,376.82L133.2,378.11L333,382.21L399.6,383.02L532.8,383.91L599.4,374.05L666,380.16L732.6,370.96L799.2,377.23L865.8,355.9L932.4,367.93L999,127.36" style="vector-effect: none; fill: none; stroke: rgb(217, 83, 79); stroke-opacity: 1; stroke-width: 2px; opacity: 1;"/></g><g class="points"/><g class="text"/></g><g class="trace scatter tracecdf74f" style="stroke-miterlimit: 2; opacity: 1;"><g class="fills"/><g class="errorbars"/><g class="lines"><path class="js-line" d="M0,367.88L133.2,365.57L199.8,366.91L399.6,376.81L466.2,378.68L532.8,380.61L599.4,360.07L666,377.42L732.6,357.71L799.2,364.78L865.8,324.16L932.4,356.09L999,287.38" style="vector-effect: none; fill: none; stroke: rgb(217, 83, 79); stroke-opacity: 1; stroke-width: 2px; opacity: 1;"/></g><g class="points"/><g class="text"/></g><g class="trace scatter tracef51cc7" style="stroke-miterlimit: 2; opacity: 1;"><g class="fills"/><g class="errorbars"/><g class="lines"><path class="js-line" d="M0,365.69L66.6,366.91L133.2,365.64L199.8,367.03L266.4,370.36L399.6,376.99L466.2,378.93L532.8,380.78L599.4,362.32L666,378.82L732.6,359.45L799.2,362.41L865.8,317.62L932.4,357.6L999,290.61" style="vector-effect: none; fill: none; stroke: rgb(217, 83, 79); stroke-opacity: 1; stroke-width: 2px; opacity: 1;"/></g><g class="points"/><g class="text"/></g><g class="trace scatter trace2e77cd" style="stroke-miterlimit: 2; opacity: 1;"><g class="fills"/><g class="errorbars"/><g class="lines"><path class="js-line" d="M0,369.13L199.8,374.36L266.4,376.95L399.6,380.75L466.2,381.77L532.8,382.52L599.4,367.05L666,378.75L732.6,364.88L799.2,371.95L865.8,345.52L932.4,365.37L999,194.13" style="vector-effect: none; fill: none; stroke: rgb(217, 83, 79); stroke-opacity: 1; stroke-width: 2px; opacity: 1;"/></g><g class="points"/><g class="text"/></g><g class="trace scatter trace003e19" style="stroke-miterlimit: 2; opacity: 1;"><g class="fills"/><g class="errorbars"/><g class="lines"><path class="js-line" d="M0,367.33L66.6,370.77L133.2,371.87L333,379.05L399.6,380.71L532.8,382.65L599.4,368.97L666,379.69L732.6,365.58L799.2,371.37L865.8,346.47L932.4,369.36L999,187.79" style="vector-effect: none; fill: none; stroke: rgb(217, 83, 79); stroke-opacity: 1; stroke-width: 2px; opacity: 1;"/></g><g class="points"/><g class="text"/></g><g class="trace scatter trace8dfa2a" style="stroke-miterlimit: 2; opacity: 1;"><g class="fills"/><g class="errorbars"/><g class="lines"><path class="js-line" d="M0,352.4L66.6,353.79L133.2,358.48L199.8,365.06L266.4,370.13L333,375.22L399.6,378.13L466.2,380.23L532.8,381.49L599.4,361.83L666,377.91L732.6,363.72L799.2,370.92L865.8,340.05L932.4,362.06L999,283.57" style="vector-effect: none; fill: none; stroke: rgb(217, 83, 79); stroke-opacity: 1; stroke-width: 2px; opacity: 1;"/></g><g class="points"/><g class="text"/></g><g class="trace scatter trace8bf82b" style="stroke-miterlimit: 2; opacity: 1;"><g class="fills"/><g class="errorbars"/><g class="lines"><path class="js-line" d="M0,349.47L133.2,358.11L199.8,364.92L266.4,370.5L333,375.32L399.6,378.4L466.2,380.51L532.8,381.74L599.4,364.41L666,379.18L732.6,364.85L799.2,369.81L865.8,335.15L932.4,362.82L999,286.36" style="vector-effect: none; fill: none; stroke: rgb(217, 83, 79); stroke-opacity: 1; stroke-width: 2px; opacity: 1;"/></g><g class="points"/><g class="text"/></g><g class="trace scatter trace03d923" style="stroke-miterlimit: 2; opacity: 1;"><g class="fills"/><g class="errorbars"/><g class="lines"><path class="js-line" d="M0,374.31L199.8,375.33L266.4,377.16L399.6,380.38L466.2,381.44L532.8,382.23L599.4,363.96L666,376.31L732.6,356.79L799.2,368.85L865.8,337.71L932.4,361.68L999,210.83" style="vector-effect: none; fill: none; stroke: rgb(217, 83, 79); stroke-opacity: 1; stroke-width: 2px; opacity: 1;"/></g><g class="points"/><g class="text"/></g><g class="trace scatter traceef4600" style="stroke-miterlimit: 2; opacity: 1;"><g class="fills"/><g class="errorbars"/><g class="lines"><path class="js-line" d="M0,372.34L66.6,374.66L133.2,374.3L266.4,377.29L333,378.96L466.2,381.59L532.8,382.4L599.4,365.83L666,377.2L732.6,356.82L799.2,369.28L865.8,344.25L932.4,364.94L999,199.2" style="vector-effect: none; fill: none; stroke: rgb(217, 83, 79); stroke-opacity: 1; stroke-width: 2px; opacity: 1;"/></g><g class="points"/><g class="text"/></g><g class="trace scatter trace5eb803" style="stroke-miterlimit: 2; opacity: 1;"><g class="fills"/><g class="errorbars"/><g class="lines"><path class="js-line" d="M0,277.79L66.6,327.09L133.2,351.52L199.8,365.24L266.4,373.86L333,377.34L399.6,379.62L532.8,381.94L599.4,358.19L666,377.86L732.6,367.98L799.2,373.96L865.8,354.33L932.4,370.75L999,356.64" style="vector-effect: none; fill: none; stroke: rgb(217, 83, 79); stroke-opacity: 1; stroke-width: 2px; opacity: 1;"/></g><g class="points"/><g class="text"/></g><g class="trace scatter trace286687" style="stroke-miterlimit: 2; opacity: 1;"><g class="fills"/><g class="errorbars"/><g class="lines"><path class="js-line" d="M0,272.22L66.6,326.02L133.2,351.66L199.8,366.51L266.4,373.6L333,377.69L399.6,380.2L532.8,382.14L599.4,361.87L666,378.87L732.6,367.26L799.2,373.32L865.8,349.47L932.4,373.98L999,358.91" style="vector-effect: none; fill: none; stroke: rgb(217, 83, 79); stroke-opacity: 1; stroke-width: 2px; opacity: 1;"/></g><g class="points"/><g class="text"/></g><g class="trace scatter traceebf1d6" style="stroke-miterlimit: 2; opacity: 1;"><g class="fills"/><g class="errorbars"/><g class="lines"><path class="js-line" d="M0,353.75L66.6,357.37L133.2,362.62L199.8,369.35L266.4,374.46L333,378.07L399.6,380.22L532.8,382.63L599.4,365.6L666,378.18L732.6,362.78L799.2,371.24L865.8,338L932.4,360.89L999,258.26" style="vector-effect: none; fill: none; stroke: rgb(217, 83, 79); stroke-opacity: 1; stroke-width: 2px; opacity: 1;"/></g><g class="points"/><g class="text"/></g><g class="trace scatter trace6640dc" style="stroke-miterlimit: 2; opacity: 1;"><g class="fills"/><g class="errorbars"/><g class="lines"><path class="js-line" d="M0,350.61L66.6,357.14L133.2,362.72L199.8,369.33L266.4,374.57L333,378.32L399.6,380.31L532.8,382.67L599.4,367.76L666,378.93L732.6,364.36L799.2,369.54L865.8,336.09L932.4,360.41L999,260.37" style="vector-effect: none; fill: none; stroke: rgb(217, 83, 79); stroke-opacity: 1; stroke-width: 2px; opacity: 1;"/></g><g class="points"/><g class="text"/></g><g class="trace scatter trace648dd8" style="stroke-miterlimit: 2; opacity: 1;"><g class="fills"/><g class="errorbars"/><g class="lines"><path class="js-line" d="M0,376.72L66.6,378.93L133.2,376.15L199.8,374.52L266.4,373.9L399.6,375.65L466.2,376.96L532.8,378.21L599.4,341.66L666,374.72L732.6,358.35L799.2,371.08L865.8,348.47L932.4,368.52L999,226.64" style="vector-effect: none; fill: none; stroke: rgb(217, 83, 79); stroke-opacity: 1; stroke-width: 2px; opacity: 1;"/></g><g class="points"/><g class="text"/></g><g class="trace scatter tracebd5241" style="stroke-miterlimit: 2; opacity: 1;"><g class="fills"/><g class="errorbars"/><g class="lines"><path class="js-line" d="M0,374.17L66.6,378.99L133.2,376.24L199.8,374.65L266.4,374.01L399.6,375.7L466.2,377L532.8,378.42L599.4,343.33L666,375.22L732.6,359.22L799.2,370.8L865.8,351.31L932.4,371.26L999,220.03" style="vector-effect: none; fill: none; stroke: rgb(217, 83, 79); stroke-opacity: 1; stroke-width: 2px; opacity: 1;"/></g><g class="points"/><g class="text"/></g><g class="trace scatter tracef00967" style="stroke-miterlimit: 2; opacity: 1;"><g class="fills"/><g class="errorbars"/><g class="lines"><path class="js-line" d="M0,373.85L66.6,374.47L133.2,374.19L266.4,377.12L333,378.63L466.2,381.18L532.8,382.19L599.4,362.37L666,376.89L732.6,360.61L799.2,372.11L865.8,348.8L932.4,364.58L999,192.49" style="vector-effect: none; fill: none; stroke: rgb(217, 83, 79); stroke-opacity: 1; stroke-width: 2px; opacity: 1;"/></g><g class="points"/><g class="text"/></g><g class="trace scatter trace23c4bf" style="stroke-miterlimit: 2; opacity: 1;"><g class="fills"/><g class="errorbars"/><g class="lines"><path class="js-line" d="M0,371.75L66.6,374.53L133.2,374.19L266.4,377.26L333,378.76L466.2,381.43L532.8,382.12L599.4,363.37L666,377.19L732.6,361.79L799.2,372.12L865.8,352.59L932.4,369.95L999,182.29" style="vector-effect: none; fill: none; stroke: rgb(217, 83, 79); stroke-opacity: 1; stroke-width: 2px; opacity: 1;"/></g><g class="points"/><g class="text"/></g><g class="trace scatter trace975740" style="stroke-miterlimit: 2; opacity: 1;"><g class="fills"/><g class="errorbars"/><g class="lines"><path class="js-line" d="M0,375.3L66.6,376.54L133.2,375.05L199.8,374.87L266.4,375.57L466.2,379.78L532.8,380.83L599.4,354.91L666,375.53L732.6,356.6L799.2,368.33L865.8,331.66L932.4,360.04L999,234.32" style="vector-effect: none; fill: none; stroke: rgb(217, 83, 79); stroke-opacity: 1; stroke-width: 2px; opacity: 1;"/></g><g class="points"/><g class="text"/></g><g class="trace scatter tracedbc0ad" style="stroke-miterlimit: 2; opacity: 1;"><g class="fills"/><g class="errorbars"/><g class="lines"><path class="js-line" d="M0,373.77L66.6,376.59L133.2,374.93L266.4,375.63L333,377.14L532.8,380.93L599.4,357L666,376.42L732.6,358.38L799.2,367.3L865.8,331.04L932.4,361.2L999,231.23" style="vector-effect: none; fill: none; stroke: rgb(217, 83, 79); stroke-opacity: 1; stroke-width: 2px; opacity: 1;"/></g><g class="points"/><g class="text"/></g><g class="trace scatter trace5d459e" style="stroke-miterlimit: 2; opacity: 1;"><g class="fills"/><g class="errorbars"/><g class="lines"><path class="js-line" d="M0,352.47L66.6,359.61L133.2,365.6L199.8,371.4L266.4,375.85L333,378.73L399.6,380.68L532.8,382.6L599.4,363.37L666,376.97L732.6,360.55L799.2,371.5L865.8,345.63L932.4,366.22L999,241.98" style="vector-effect: none; fill: none; stroke: rgb(217, 83, 79); stroke-opacity: 1; stroke-width: 2px; opacity: 1;"/></g><g class="points"/><g class="text"/></g><g class="trace scatter trace494f7c" style="stroke-miterlimit: 2; opacity: 1;"><g class="fills"/><g class="errorbars"/><g class="lines"><path class="js-line" d="M0,349.87L66.6,359.16L133.2,365.5L199.8,371.58L266.4,375.88L333,378.94L399.6,380.75L532.8,382.77L599.4,364.94L666,377.17L732.6,361.14L799.2,370.46L865.8,346.51L932.4,368.08L999,240.28" style="vector-effect: none; fill: none; stroke: rgb(217, 83, 79); stroke-opacity: 1; stroke-width: 2px; opacity: 1;"/></g><g class="points"/><g class="text"/></g><g class="trace scatter trace305e67" style="stroke-miterlimit: 2; opacity: 1;"><g class="fills"/><g class="errorbars"/><g class="lines"><path class="js-line" d="M0,376.72L66.6,377.19L133.2,375.85L199.8,375.58L266.4,376.32L532.8,381.47L599.4,361.08L666,377.07L732.6,360.85L799.2,370.8L865.8,346.29L932.4,369.04L999,189.4" style="vector-effect: none; fill: none; stroke: rgb(217, 83, 79); stroke-opacity: 1; stroke-width: 2px; opacity: 1;"/></g><g class="points"/><g class="text"/></g><g class="trace scatter trace2a9ecf" style="stroke-miterlimit: 2; opacity: 1;"><g class="fills"/><g class="errorbars"/><g class="lines"><path class="js-line" d="M0,374.63L66.6,377.15L133.2,375.87L199.8,375.5L266.4,376.29L532.8,381.56L599.4,362.36L666,377.66L732.6,360.71L799.2,370.36L865.8,351.75L932.4,369.92L999,183.61" style="vector-effect: none; fill: none; stroke: rgb(217, 83, 79); stroke-opacity: 1; stroke-width: 2px; opacity: 1;"/></g><g class="points"/><g class="text"/></g><g class="trace scatter traceba197d" style="stroke-miterlimit: 2; opacity: 1;"><g class="fills"/><g class="errorbars"/><g class="lines"><path class="js-line" d="M0,360.86L66.6,361.7L133.2,363.47L199.8,367.02L266.4,371.79L399.6,378.1L466.2,380.13L532.8,381.32L599.4,363.17L666,378.13L732.6,365.24L799.2,373.34L865.8,342.6L932.4,361.66L999,251.16" style="vector-effect: none; fill: none; stroke: rgb(217, 83, 79); stroke-opacity: 1; stroke-width: 2px; opacity: 1;"/></g><g class="points"/><g class="text"/></g><g class="trace scatter trace4d8291" style="stroke-miterlimit: 2; opacity: 1;"><g class="fills"/><g class="errorbars"/><g class="lines"><path class="js-line" d="M0,358.04L66.6,361.46L133.2,363.45L333,375.54L399.6,378.41L532.8,381.56L599.4,363.69L666,379.02L732.6,367.83L799.2,373.91L865.8,340.15L932.4,359.36L999,252.89" style="vector-effect: none; fill: none; stroke: rgb(217, 83, 79); stroke-opacity: 1; stroke-width: 2px; opacity: 1;"/></g><g class="points"/><g class="text"/></g><g class="trace scatter trace119cc7" style="stroke-miterlimit: 2; opacity: 1;"><g class="fills"/><g class="errorbars"/><g class="lines"><path class="js-line" d="M0,379.18L66.6,380.58L133.2,379.07L199.8,377.99L266.4,377.78L399.6,378.73L466.2,379.73L532.8,380.71L599.4,358.93L666,379.1L732.6,370.13L799.2,376.98L865.8,357.5L932.4,367.94L999,152.61" style="vector-effect: none; fill: none; stroke: rgb(217, 83, 79); stroke-opacity: 1; stroke-width: 2px; opacity: 1;"/></g><g class="points"/><g class="text"/></g><g class="trace scatter trace0c2dea" style="stroke-miterlimit: 2; opacity: 1;"><g class="fills"/><g class="errorbars"/><g class="lines"><path class="js-line" d="M0,377.04L66.6,380.65L133.2,379.08L266.4,377.71L333,378.03L532.8,380.78L599.4,359.76L666,379.75L732.6,373.02L799.2,378.46L865.8,363.29L932.4,370.3L999,140.38" style="vector-effect: none; fill: none; stroke: rgb(217, 83, 79); stroke-opacity: 1; stroke-width: 2px; opacity: 1;"/></g><g class="points"/><g class="text"/></g><g class="trace scatter traceaac25f" style="stroke-miterlimit: 2; opacity: 1;"><g class="fills"/><g class="errorbars"/><g class="lines"><path class="js-line" d="M0,366.15L133.2,370.82L199.8,374.73L266.4,377.77L333,379.86L399.6,381.59L466.2,382.48L532.8,383.16L599.4,368.24L666,378.07L732.6,363.13L799.2,371.81L865.8,343.99L932.4,360.91L999,203.6" style="vector-effect: none; fill: none; stroke: rgb(217, 83, 79); stroke-opacity: 1; stroke-width: 2px; opacity: 1;"/></g><g class="points"/><g class="text"/></g><g class="trace scatter traceb0e6eb" style="stroke-miterlimit: 2; opacity: 1;"><g class="fills"/><g class="errorbars"/><g class="lines"><path class="js-line" d="M0,364.38L66.6,368.67L133.2,371.05L266.4,377.92L333,380.02L466.2,382.63L532.8,383.16L599.4,369.62L666,379.07L732.6,364.31L799.2,372.5L865.8,346.21L932.4,362.51L999,196.54" style="vector-effect: none; fill: none; stroke: rgb(217, 83, 79); stroke-opacity: 1; stroke-width: 2px; opacity: 1;"/></g><g class="points"/><g class="text"/></g><g class="trace scatter tracedd2b49" style="stroke-miterlimit: 2; opacity: 1;"><g class="fills"/><g class="errorbars"/><g class="lines"><path class="js-line" d="M0,355.68L66.6,360.09L133.2,365.29L199.8,370.52L266.4,374.93L333,377.9L399.6,380.03L466.2,381.49L532.8,382.17L599.4,360.95L666,376.21L732.6,360.29L799.2,370.06L865.8,342L932.4,362.59L999,254.79" style="vector-effect: none; fill: none; stroke: rgb(217, 83, 79); stroke-opacity: 1; stroke-width: 2px; opacity: 1;"/></g><g class="points"/><g class="text"/></g><g class="trace scatter tracedbf611" style="stroke-miterlimit: 2; opacity: 1;"><g class="fills"/><g class="errorbars"/><g class="lines"><path class="js-line" d="M0,353.25L66.6,359.96L133.2,365.09L199.8,370.46L266.4,374.94L333,378.13L399.6,380.18L532.8,382.41L599.4,362.85L666,376.98L732.6,361.22L799.2,369.79L865.8,341.36L932.4,364.52L999,252.31" style="vector-effect: none; fill: none; stroke: rgb(217, 83, 79); stroke-opacity: 1; stroke-width: 2px; opacity: 1;"/></g><g class="points"/><g class="text"/></g><g class="trace scatter trace58fffe" style="stroke-miterlimit: 2; opacity: 1;"><g class="fills"/><g class="errorbars"/><g class="lines"><path class="js-line" d="M0,375.58L66.6,377.71L133.2,375.85L266.4,374.54L333,375.33L532.8,378.77L599.4,345.96L666,376.18L732.6,361.27L799.2,370.35L865.8,336.5L932.4,360.18L999,237.52" style="vector-effect: none; fill: none; stroke: rgb(217, 83, 79); stroke-opacity: 1; stroke-width: 2px; opacity: 1;"/></g><g class="points"/><g class="text"/></g><g class="trace scatter trace607e42" style="stroke-miterlimit: 2; opacity: 1;"><g class="fills"/><g class="errorbars"/><g class="lines"><path class="js-line" d="M0,373.53L66.6,377.56L133.2,375.66L266.4,374.59L333,375.33L532.8,378.9L599.4,347.7L666,377.34L732.6,363.63L799.2,369.8L865.8,333.25L932.4,360.64L999,238.18" style="vector-effect: none; fill: none; stroke: rgb(217, 83, 79); stroke-opacity: 1; stroke-width: 2px; opacity: 1;"/></g><g class="points"/><g class="text"/></g><g class="trace scatter tracef45090" style="stroke-miterlimit: 2; opacity: 1;"><g class="fills"/><g class="errorbars"/><g class="lines"><path class="js-line" d="M0,372.84L66.6,373L133.2,371.26L199.8,371.74L266.4,373.41L466.2,379.04L532.8,380.57L599.4,356.22L666,376.55L732.6,360.03L799.2,369.79L865.8,340.53L932.4,365.93L999,231.24" style="vector-effect: none; fill: none; stroke: rgb(217, 83, 79); stroke-opacity: 1; stroke-width: 2px; opacity: 1;"/></g><g class="points"/><g class="text"/></g><g class="trace scatter trace0e2bf2" style="stroke-miterlimit: 2; opacity: 1;"><g class="fills"/><g class="errorbars"/><g class="lines"><path class="js-line" d="M0,370.45L66.6,372.89L133.2,371.14L199.8,371.69L266.4,373.35L399.6,377.61L466.2,379.32L532.8,380.62L599.4,358.07L666,377.41L732.6,360.23L799.2,368.15L865.8,341.88L932.4,367.28L999,229.26" style="vector-effect: none; fill: none; stroke: rgb(217, 83, 79); stroke-opacity: 1; stroke-width: 2px; opacity: 1;"/></g><g class="points"/><g class="text"/></g><g class="trace scatter traceac20af" style="stroke-miterlimit: 2; opacity: 1;"><g class="fills"/><g class="errorbars"/><g class="lines"><path class="js-line" d="M0,371.08L133.2,372.05L199.8,374.14L333,378.77L399.6,380.37L532.8,382.36L599.4,363.21L666,376.93L732.6,360.12L799.2,371.21L865.8,342.93L932.4,365.26L999,206.66" style="vector-effect: none; fill: none; stroke: rgb(217, 83, 79); stroke-opacity: 1; stroke-width: 2px; opacity: 1;"/></g><g class="points"/><g class="text"/></g><g class="trace scatter trace168448" style="stroke-miterlimit: 2; opacity: 1;"><g class="fills"/><g class="errorbars"/><g class="lines"><path class="js-line" d="M0,368.86L66.6,371.74L133.2,372.05L399.6,380.42L466.2,381.66L532.8,382.47L599.4,364.39L666,377.35L732.6,361.01L799.2,370.44L865.8,347.77L932.4,367.93L999,199.3" style="vector-effect: none; fill: none; stroke: rgb(217, 83, 79); stroke-opacity: 1; stroke-width: 2px; opacity: 1;"/></g><g class="points"/><g class="text"/></g><g class="trace scatter trace9000eb" style="stroke-miterlimit: 2; opacity: 1;"><g class="fills"/><g class="errorbars"/><g class="lines"><path class="js-line" d="M0,378.89L66.6,381.15L133.2,379.83L266.4,378.48L333,378.77L466.2,379.96L532.8,380.76L599.4,356.98L666,377.39L732.6,362.06L799.2,371.49L865.8,343.31L932.4,362.41L999,185.5" style="vector-effect: none; fill: none; stroke: rgb(217, 83, 79); stroke-opacity: 1; stroke-width: 2px; opacity: 1;"/></g><g class="points"/><g class="text"/></g><g class="trace scatter trace8fa9cb" style="stroke-miterlimit: 2; opacity: 1;"><g class="fills"/><g class="errorbars"/><g class="lines"><path class="js-line" d="M0,377.28L66.6,381.12L133.2,379.94L199.8,378.83L266.4,378.51L532.8,380.82L599.4,358.58L666,378.22L732.6,362.97L799.2,371.53L865.8,347.5L932.4,365.13L999,176.34" style="vector-effect: none; fill: none; stroke: rgb(217, 83, 79); stroke-opacity: 1; stroke-width: 2px; opacity: 1;"/></g><g class="points"/><g class="text"/></g><g class="trace scatter trace6b89f7" style="stroke-miterlimit: 2; opacity: 1;"><g class="fills"/><g class="errorbars"/><g class="lines"><path class="js-line" d="M0,306.51L66.6,334.56L133.2,352.91L199.8,364.62L266.4,371.63L333,376.07L399.6,378.4L466.2,380.1L532.8,380.91L599.4,350.74L666,375.75L732.6,363.45L799.2,373.79L865.8,354.36L932.4,375.72L999,335.5" style="vector-effect: none; fill: none; stroke: rgb(217, 83, 79); stroke-opacity: 1; stroke-width: 2px; opacity: 1;"/></g><g class="points"/><g class="text"/></g><g class="trace scatter trace3cc463" style="stroke-miterlimit: 2; opacity: 1;"><g class="fills"/><g class="errorbars"/><g class="lines"><path class="js-line" d="M0,301.48L66.6,332.78L133.2,352.45L199.8,364.66L266.4,371.86L333,376.26L399.6,378.71L466.2,380.54L532.8,381.59L599.4,354.53L666,376.72L732.6,362.17L799.2,372.02L865.8,357.49L932.4,375.89L999,335.85" style="vector-effect: none; fill: none; stroke: rgb(217, 83, 79); stroke-opacity: 1; stroke-width: 2px; opacity: 1;"/></g><g class="points"/><g class="text"/></g><g class="trace scatter tracea11aa7" style="stroke-miterlimit: 2; opacity: 1;"><g class="fills"/><g class="errorbars"/><g class="lines"><path class="js-line" d="M0,377.21L66.6,380.22L133.2,378.34L266.4,376.13L333,375.9L466.2,376.94L532.8,378.09L599.4,341.16L666,375.56L732.6,357.41L799.2,368.5L865.8,341.06L932.4,367.58L999,227.75" style="vector-effect: none; fill: none; stroke: rgb(217, 83, 79); stroke-opacity: 1; stroke-width: 2px; opacity: 1;"/></g><g class="points"/><g class="text"/></g><g class="trace scatter trace6edfef" style="stroke-miterlimit: 2; opacity: 1;"><g class="fills"/><g class="errorbars"/><g class="lines"><path class="js-line" d="M0,375.48L66.6,380.19L133.2,378.38L266.4,376L333,375.83L466.2,377.01L532.8,378.15L599.4,343.31L666,376.59L732.6,356.72L799.2,367.93L865.8,345.51L932.4,368.24L999,222.74" style="vector-effect: none; fill: none; stroke: rgb(217, 83, 79); stroke-opacity: 1; stroke-width: 2px; opacity: 1;"/></g><g class="points"/><g class="text"/></g><g class="trace scatter trace5c41bd" style="stroke-miterlimit: 2; opacity: 1;"><g class="fills"/><g class="errorbars"/><g class="lines"><path class="js-line" d="M0,354.86L199.8,373.34L266.4,377.54L333,379.99L399.6,381.64L532.8,383.12L599.4,367.7L666,378.36L732.6,363.9L799.2,370.73L865.8,338.97L932.4,360.88L999,232.66" style="vector-effect: none; fill: none; stroke: rgb(217, 83, 79); stroke-opacity: 1; stroke-width: 2px; opacity: 1;"/></g><g class="points"/><g class="text"/></g><g class="trace scatter trace50c2e6" style="stroke-miterlimit: 2; opacity: 1;"><g class="fills"/><g class="errorbars"/><g class="lines"><path class="js-line" d="M0,352.54L66.6,361.21L133.2,367.93L199.8,373.42L266.4,377.62L399.6,381.76L466.2,382.63L532.8,383.27L599.4,369.59L666,379.43L732.6,365.48L799.2,370.91L865.8,338.27L932.4,360.71L999,230.2" style="vector-effect: none; fill: none; stroke: rgb(217, 83, 79); stroke-opacity: 1; stroke-width: 2px; opacity: 1;"/></g><g class="points"/><g class="text"/></g></g></g></g><path class="xlines-above crisp" d="M0,0" style="fill: none;"/><path class="ylines-above crisp" d="M0,0" style="fill: none;"/><g class="overlines-above"/><g class="xaxislayer-above"><g class="xtick"><text text-anchor="middle" x="0" y="451" transform="translate(71,0)" style="font-family: 'Lucida Grande', 'Open Sans', verdana, arial, sans-serif; font-size: 10px; fill: rgb(0, 0, 0); fill-opacity: 1; white-space: pre; opacity: 1;">1</text></g><g class="xtick"><text text-anchor="middle" x="0" y="451" transform="translate(137.6,0)" style="font-family: 'Lucida Grande', 'Open Sans', verdana, arial, sans-serif; font-size: 10px; fill: rgb(0, 0, 0); fill-opacity: 1; white-space: pre; opacity: 1;">2</text></g><g class="xtick"><text text-anchor="middle" x="0" y="451" transform="translate(204.2,0)" style="font-family: 'Lucida Grande', 'Open Sans', verdana, arial, sans-serif; font-size: 10px; fill: rgb(0, 0, 0); fill-opacity: 1; white-space: pre; opacity: 1;">3</text></g><g class="xtick"><text text-anchor="middle" x="0" y="451" transform="translate(270.8,0)" style="font-family: 'Lucida Grande', 'Open Sans', verdana, arial, sans-serif; font-size: 10px; fill: rgb(0, 0, 0); fill-opacity: 1; white-space: pre; opacity: 1;">4</text></g><g class="xtick"><text text-anchor="middle" x="0" y="451" transform="translate(337.4,0)" style="font-family: 'Lucida Grande', 'Open Sans', verdana, arial, sans-serif; font-size: 10px; fill: rgb(0, 0, 0); fill-opacity: 1; white-space: pre; opacity: 1;">5</text></g><g class="xtick"><text text-anchor="middle" x="0" y="451" transform="translate(404,0)" style="font-family: 'Lucida Grande', 'Open Sans', verdana, arial, sans-serif; font-size: 10px; fill: rgb(0, 0, 0); fill-opacity: 1; white-space: pre; opacity: 1;">6</text></g><g class="xtick"><text text-anchor="middle" x="0" y="451" transform="translate(470.6,0)" style="font-family: 'Lucida Grande', 'Open Sans', verdana, arial, sans-serif; font-size: 10px; fill: rgb(0, 0, 0); fill-opacity: 1; white-space: pre; opacity: 1;">7</text></g><g class="xtick"><text text-anchor="middle" x="0" y="451" transform="translate(537.2,0)" style="font-family: 'Lucida Grande', 'Open Sans', verdana, arial, sans-serif; font-size: 10px; fill: rgb(0, 0, 0); fill-opacity: 1; white-space: pre; opacity: 1;">8</text></g><g class="xtick"><text text-anchor="middle" x="0" y="451" transform="translate(603.8,0)" style="font-family: 'Lucida Grande', 'Open Sans', verdana, arial, sans-serif; font-size: 10px; fill: rgb(0, 0, 0); fill-opacity: 1; white-space: pre; opacity: 1;">9</text></g><g class="xtick"><text text-anchor="middle" x="0" y="451" transform="translate(670.4,0)" style="font-family: 'Lucida Grande', 'Open Sans', verdana, arial, sans-serif; font-size: 10px; fill: rgb(0, 0, 0); fill-opacity: 1; white-space: pre; opacity: 1;">>10</text></g><g class="xtick"><text text-anchor="middle" x="0" y="451" transform="translate(737,0)" style="font-family: 'Lucida Grande', 'Open Sans', verdana, arial, sans-serif; font-size: 10px; fill: rgb(0, 0, 0); fill-opacity: 1; white-space: pre; opacity: 1;">>50</text></g><g class="xtick"><text text-anchor="middle" x="0" y="451" transform="translate(803.6,0)" style="font-family: 'Lucida Grande', 'Open Sans', verdana, arial, sans-serif; font-size: 10px; fill: rgb(0, 0, 0); fill-opacity: 1; white-space: pre; opacity: 1;">>100</text></g><g class="xtick"><text text-anchor="middle" x="0" y="451" transform="translate(870.2,0)" style="font-family: 'Lucida Grande', 'Open Sans', verdana, arial, sans-serif; font-size: 10px; fill: rgb(0, 0, 0); fill-opacity: 1; white-space: pre; opacity: 1;">>500</text></g><g class="xtick"><text text-anchor="middle" x="0" y="451" transform="translate(936.8,0)" style="font-family: 'Lucida Grande', 'Open Sans', verdana, arial, sans-serif; font-size: 10px; fill: rgb(0, 0, 0); fill-opacity: 1; white-space: pre; opacity: 1;">>1k</text></g><g class="xtick"><text text-anchor="middle" x="0" y="451" transform="translate(1003.4,0)" style="font-family: 'Lucida Grande', 'Open Sans', verdana, arial, sans-serif; font-size: 10px; fill: rgb(0, 0, 0); fill-opacity: 1; white-space: pre; opacity: 1;">>5k</text></g><g class="xtick"><text text-anchor="middle" x="0" y="451" transform="translate(1070,0)" style="font-family: 'Lucida Grande', 'Open Sans', verdana, arial, sans-serif; font-size: 10px; fill: rgb(0, 0, 0); fill-opacity: 1; white-space: pre; opacity: 1;">>10k+</text></g></g><g class="yaxislayer-above"><g class="ytick"><text text-anchor="end" x="65" y="3.5" transform="translate(0,435)" style="font-family: 'Lucida Grande', 'Open Sans', verdana, arial, sans-serif; font-size: 10px; fill: rgb(0, 0, 0); fill-opacity: 1; white-space: pre; opacity: 1;">0%</text></g><g class="ytick"><text text-anchor="end" x="65" y="3.5" style="font-family: 'Lucida Grande', 'Open Sans', verdana, arial, sans-serif; font-size: 10px; fill: rgb(0, 0, 0); fill-opacity: 1; white-space: pre; opacity: 1;" transform="translate(0,358)">20%</text></g><g class="ytick"><text text-anchor="end" x="65" y="3.5" style="font-family: 'Lucida Grande', 'Open Sans', verdana, arial, sans-serif; font-size: 10px; fill: rgb(0, 0, 0); fill-opacity: 1; white-space: pre; opacity: 1;" transform="translate(0,281)">40%</text></g><g class="ytick"><text text-anchor="end" x="65" y="3.5" style="font-family: 'Lucida Grande', 'Open Sans', verdana, arial, sans-serif; font-size: 10px; fill: rgb(0, 0, 0); fill-opacity: 1; white-space: pre; opacity: 1;" transform="translate(0,204)">60%</text></g><g class="ytick"><text text-anchor="end" x="65" y="3.5" style="font-family: 'Lucida Grande', 'Open Sans', verdana, arial, sans-serif; font-size: 10px; fill: rgb(0, 0, 0); fill-opacity: 1; white-space: pre; opacity: 1;" transform="translate(0,127)">80%</text></g><g class="ytick"><text text-anchor="end" x="65" y="3.5" style="font-family: 'Lucida Grande', 'Open Sans', verdana, arial, sans-serif; font-size: 10px; fill: rgb(0, 0, 0); fill-opacity: 1; white-space: pre; opacity: 1;" transform="translate(0,50)">100%</text></g></g><g class="overaxes-above"/></g></g><g class="polarlayer"/><g class="smithlayer"/><g class="ternarylayer"/><g class="geolayer"/><g class="funnelarealayer"/><g class="pielayer"/><g class="iciclelayer"/><g class="treemaplayer"/><g class="sunburstlayer"/><g class="glimages"/><defs id="topdefs-700845"><g class="clips"/></defs><g class="layer-above"><g class="imagelayer"/><g class="shapelayer"/></g><g class="infolayer"><g class="g-gtitle"><text class="gtitle" x="550" y="25" text-anchor="middle" dy="0em" style="opacity: 1; font-family: 'Lucida Grande', 'Open Sans', verdana, arial, sans-serif; font-size: 20px; fill: rgb(42, 63, 95); fill-opacity: 1; white-space: pre;"><tspan class="line" dy="0em" x="550" y="25">FastQC: Sequence Duplication Levels</tspan><tspan class="line" dy="1.3em" x="550" y="25">​<tspan style="font-size:70%" dy="-0.6em">50 samples</tspan><tspan dy="0.42em">​</tspan></tspan></text></g><g class="g-xtitle"><text class="xtitle" x="570.5" y="472.3" text-anchor="middle" style="opacity: 0.3; font-family: 'Lucida Grande', 'Open Sans', verdana, arial, sans-serif; font-size: 14px; fill: rgb(0, 0, 0); fill-opacity: 1; white-space: pre;">Sequence Duplication Level</text></g><g class="g-ytitle"><text class="ytitle" transform="rotate(-90,22.00625,242.5)" x="22.00625" y="242.5" text-anchor="middle" style="opacity: 0.3; font-family: 'Lucida Grande', 'Open Sans', verdana, arial, sans-serif; font-size: 14px; fill: rgb(0, 0, 0); fill-opacity: 1; white-space: pre;">% of Library</text></g></g></svg>