<svg class="main-svg" xmlns="http://www.w3.org/2000/svg" xmlns:xlink="http://www.w3.org/1999/xlink" width="2200" height="1000" style="" viewBox="0 0 1100 500"><rect x="0" y="0" width="1100" height="500" style="fill: rgb(255, 255, 255); fill-opacity: 1;"/><defs id="defs-380356"><g class="clips"><clipPath id="clip380356xyplot" class="plotclip"><rect width="1007" height="385"/></clipPath><clipPath class="axesclip" id="clip380356x"><rect x="67" y="0" width="1007" height="500"/></clipPath><clipPath class="axesclip" id="clip380356y"><rect x="0" y="50" width="1100" height="385"/></clipPath><clipPath class="axesclip" id="clip380356xy"><rect x="67" y="50" width="1007" height="385"/></clipPath></g><g class="gradients"/><g class="patterns"/></defs><g class="bglayer"/><g class="layer-below"><g class="imagelayer"/><g class="shapelayer"/></g><g class="cartesianlayer"><g class="subplot xy"><g class="layer-subplot"><g class="shapelayer"/><g class="imagelayer"/></g><g class="minor-gridlayer"><g class="x"/><g class="y"/></g><g class="gridlayer"><g class="x"><path class="xgrid crisp" transform="translate(268.4,0)" d="M0,50v385" style="stroke: rgb(0, 0, 0); stroke-opacity: 0.05; stroke-width: 1px;"/><path class="xgrid crisp" transform="translate(469.8,0)" d="M0,50v385" style="stroke: rgb(0, 0, 0); stroke-opacity: 0.05; stroke-width: 1px;"/><path class="xgrid crisp" transform="translate(671.2,0)" d="M0,50v385" style="stroke: rgb(0, 0, 0); stroke-opacity: 0.05; stroke-width: 1px;"/><path class="xgrid crisp" transform="translate(872.6,0)" d="M0,50v385" style="stroke: rgb(0, 0, 0); stroke-opacity: 0.05; stroke-width: 1px;"/></g><g class="y"><path class="ygrid crisp" transform="translate(0,390.88)" d="M67,0h1007" style="stroke: rgb(0, 0, 0); stroke-opacity: 0.05; stroke-width: 1px;"/><path class="ygrid crisp" transform="translate(0,346.75)" d="M67,0h1007" style="stroke: rgb(0, 0, 0); stroke-opacity: 0.05; stroke-width: 1px;"/><path class="ygrid crisp" transform="translate(0,302.63)" d="M67,0h1007" style="stroke: rgb(0, 0, 0); stroke-opacity: 0.05; stroke-width: 1px;"/><path class="ygrid crisp" transform="translate(0,258.5)" d="M67,0h1007" style="stroke: rgb(0, 0, 0); stroke-opacity: 0.05; stroke-width: 1px;"/><path class="ygrid crisp" transform="translate(0,214.38)" d="M67,0h1007" style="stroke: rgb(0, 0, 0); stroke-opacity: 0.05; stroke-width: 1px;"/><path class="ygrid crisp" transform="translate(0,170.25)" d="M67,0h1007" style="stroke: rgb(0, 0, 0); stroke-opacity: 0.05; stroke-width: 1px;"/><path class="ygrid crisp" transform="translate(0,126.13)" d="M67,0h1007" style="stroke: rgb(0, 0, 0); stroke-opacity: 0.05; stroke-width: 1px;"/><path class="ygrid crisp" transform="translate(0,82)" d="M67,0h1007" style="stroke: rgb(0, 0, 0); stroke-opacity: 0.05; stroke-width: 1px;"/></g></g><g class="zerolinelayer"><path class="xzl zl crisp" transform="translate(67,0)" d="M0,50v385" style="stroke: rgb(0, 0, 0); stroke-opacity: 0.05; stroke-width: 2px;"/><path class="yzl zl crisp" transform="translate(0,435)" d="M67,0h1007" style="stroke: rgb(0, 0, 0); stroke-opacity: 0.05; stroke-width: 2px;"/></g><g class="layer-between"><g class="shapelayer"/><g class="imagelayer"/></g><path class="xlines-below"/><path class="ylines-below"/><g class="overlines-below"/><g class="xaxislayer-below"/><g class="yaxislayer-below"/><g class="overaxes-below"/><g class="overplot"><g class="xy" transform="translate(67,50)" clip-path="url(#clip380356xyplot)"><g class="scatterlayer mlayer"><g class="trace scatter trace72d32a" style="stroke-miterlimit: 2; opacity: 1;"><g class="fills"/><g class="errorbars"/><g class="lines"><path class="js-line" d="M0,384.94L201.4,384.66L211.47,384.51L241.68,383.63L251.75,383.21L292.03,380.83L302.1,379.62L332.31,375.16L342.38,373.08L362.52,367.99L372.59,364.56L382.66,362.47L392.73,362.25L402.8,361.14L412.87,361.93L422.94,363.48L433.01,363L493.43,355.73L503.5,355.25L523.64,353.97L533.71,353.01L553.85,352.62L563.92,351.02L573.99,345.91L584.06,334.1L594.13,276.92L604.2,230.27L614.27,196.16L624.34,198.62L634.41,261.82L644.48,318.76L654.55,360.05L664.62,369.7L684.76,367.35L694.83,364.46L704.9,363.09L714.97,358.54L725.04,345.89L735.11,338.19L745.18,333.09L755.25,338.04L765.32,356.24L775.39,367.81L805.6,372.42L815.67,376.7L825.74,382.31L835.81,383.81L866.02,384.03L876.09,383.03L886.16,382.79L896.23,383.72L916.37,384.45L926.44,384.49L956.65,383.72L966.72,384.63L1007,384.98" style="vector-effect: none; fill: none; stroke: rgb(217, 83, 79); stroke-opacity: 1; stroke-width: 2px; opacity: 1;"/></g><g class="points"/><g class="text"/></g><g class="trace scatter trace832d1b" style="stroke-miterlimit: 2; opacity: 1;"><g class="fills"/><g class="errorbars"/><g class="lines"><path class="js-line" d="M0,384.88L181.26,384.88L191.33,384.84L261.82,383.65L271.89,383.2L292.03,382L302.1,380.87L322.24,378.01L332.31,376.13L362.52,370.43L372.59,368.18L382.66,367.05L392.73,365.11L402.8,363.38L412.87,363.55L433.01,364.07L443.08,362.58L453.15,360.09L463.22,358.58L493.43,355.15L503.5,354.83L523.64,353.56L533.71,352.45L553.85,351.08L563.92,345.1L584.06,309L594.13,287.64L604.2,253.71L614.27,234.58L624.34,253.67L634.41,245.8L644.48,268.73L654.55,344.8L664.62,371.12L674.69,373.36L694.83,371.54L704.9,369.82L714.97,365.09L725.04,355.45L735.11,341.6L745.18,318.91L755.25,313.32L765.32,340.29L775.39,362.67L785.46,367.48L795.53,367.46L805.6,371.35L815.67,378.62L825.74,382.18L855.95,383.3L866.02,383.17L876.09,382.9L886.16,383.84L906.3,384.39L916.37,384.52L956.65,384.88L966.72,384.9L996.93,384.76L1007,382.89" style="vector-effect: none; fill: none; stroke: rgb(217, 83, 79); stroke-opacity: 1; stroke-width: 2px; opacity: 1;"/></g><g class="points"/><g class="text"/></g><g class="trace scatter tracee5f27d" style="stroke-miterlimit: 2; opacity: 1;"><g class="fills"/><g class="errorbars"/><g class="lines"><path class="js-line" d="M0,384.97L261.82,384.27L271.89,384.1L312.17,382.84L322.24,382.34L362.52,379.14L372.59,378.28L412.87,377.44L422.94,377.89L443.08,376.93L453.15,376.07L553.85,373.26L563.92,369.78L573.99,357.65L584.06,330.75L594.13,222.52L604.2,136.57L614.27,60.34L624.34,54.84L654.55,349.03L664.62,369.96L674.69,368.15L684.76,364.92L694.83,359.2L704.9,355.93L714.97,350.01L725.04,326.91L735.11,310.59L745.18,309.72L755.25,319.17L765.32,340.03L775.39,358.33L785.46,365.2L805.6,372.07L815.67,377.2L825.74,382.89L835.81,384.24L866.02,384.36L876.09,383.42L886.16,383.09L896.23,383.82L926.44,384.47L936.51,384.3L946.58,383.64L956.65,383.81L976.79,384.82L986.86,384.73L1007,384.97" style="vector-effect: none; fill: none; stroke: rgb(217, 83, 79); stroke-opacity: 1; stroke-width: 2px; opacity: 1;"/></g><g class="points"/><g class="text"/></g><g class="trace scatter tracef466f2" style="stroke-miterlimit: 2; opacity: 1;"><g class="fills"/><g class="errorbars"/><g class="lines"><path class="js-line" d="M0,384.93L241.68,384.67L251.75,384.58L302.1,383.35L312.17,382.78L402.8,377.65L412.87,377.8L443.08,377.46L453.15,376.59L503.5,374.89L513.57,374.76L553.85,371.7L563.92,364.77L584.06,284.4L594.13,248.58L604.2,189.41L614.27,139.8L624.34,151.36L634.41,117.99L644.48,161.63L654.55,318.85L664.62,371.46L674.69,374.49L684.76,372.65L694.83,369.96L704.9,366.44L714.97,358.86L725.04,342.87L735.11,320.15L745.18,289.16L755.25,285.2L765.32,323.85L775.39,357.33L785.46,365.86L795.53,363.65L805.6,367.26L815.67,377.22L825.74,382.6L835.81,383.2L855.95,383.6L866.02,383.65L876.09,383.43L886.16,384.13L906.3,384.48L916.37,384.56L956.65,384.89L966.72,384.9L996.93,384.78L1007,383.44" style="vector-effect: none; fill: none; stroke: rgb(217, 83, 79); stroke-opacity: 1; stroke-width: 2px; opacity: 1;"/></g><g class="points"/><g class="text"/></g><g class="trace scatter trace825ed5" style="stroke-miterlimit: 2; opacity: 1;"><g class="fills"/><g class="errorbars"/><g class="lines"><path class="js-line" d="M0,384.94L221.54,384.68L231.61,384.53L292.03,382.93L302.1,382.29L332.31,379.82L342.38,378.49L372.59,374.33L382.66,373.57L412.87,373.24L422.94,373.67L443.08,372.39L453.15,371.28L483.36,369.19L493.43,368.84L543.78,367.36L553.85,366.81L563.92,363.06L573.99,348.9L584.06,319.5L594.13,214.51L614.27,19.25L624.34,20.51L634.41,141.74L644.48,244.85L654.55,341.17L664.62,365.91L674.69,363.62L684.76,357.92L694.83,348.48L704.9,342.51L714.97,334.79L725.04,308.9L735.11,289.22L745.18,285.73L755.25,296.84L765.32,325.38L775.39,348.55L785.46,356.41L795.53,362.15L805.6,366.9L825.74,381.58L835.81,383.53L855.95,384.1L866.02,383.6L876.09,380.94L886.16,380.12L896.23,382.24L906.3,383.26L926.44,383.87L936.51,383.49L946.58,381.86L956.65,382.26L966.72,384.27L976.79,384.64L996.93,384.6L1007,384.94" style="vector-effect: none; fill: none; stroke: rgb(217, 83, 79); stroke-opacity: 1; stroke-width: 2px; opacity: 1;"/></g><g class="points"/><g class="text"/></g><g class="trace scatter trace5e2504" style="stroke-miterlimit: 2; opacity: 1;"><g class="fills"/><g class="errorbars"/><g class="lines"><path class="js-line" d="M0,384.86L161.12,384.94L171.19,384.92L261.82,384.22L271.89,383.92L302.1,382.75L312.17,382.01L382.66,375.39L392.73,374.61L412.87,373.6L422.94,373.61L443.08,372.78L453.15,371.45L493.43,368.41L503.5,368.24L523.64,367.58L533.71,366.57L553.85,365.64L563.92,357.88L584.06,272.68L594.13,238.67L614.27,121.01L624.34,126.05L634.41,85.7L644.48,136.36L654.55,310.71L664.62,367.99L674.69,370.3L684.76,366.7L704.9,357.46L714.97,347.8L725.04,327.65L735.11,298.87L745.18,259.65L755.25,254.59L765.32,302.93L775.39,346.06L785.46,358.56L795.53,356.17L805.6,359.94L815.67,373.47L825.74,381.27L835.81,381.43L845.88,380.76L855.95,382.13L866.02,382.45L876.09,381.85L896.23,384.28L906.3,383.99L976.79,384.88L986.86,384.82L996.93,384.72L1007,383.7" style="vector-effect: none; fill: none; stroke: rgb(217, 83, 79); stroke-opacity: 1; stroke-width: 2px; opacity: 1;"/></g><g class="points"/><g class="text"/></g><g class="trace scatter trace4ec4f2" style="stroke-miterlimit: 2; opacity: 1;"><g class="fills"/><g class="errorbars"/><g class="lines"><path class="js-line" d="M0,384.95L191.33,384.67L201.4,384.27L251.75,382.27L261.82,381.33L281.96,378.53L292.03,375.77L312.17,369.3L322.24,364.78L332.31,357.55L342.38,348.59L352.45,339.21L362.52,331.51L372.59,324.06L382.66,322.93L392.73,326.05L402.8,325.77L412.87,329.28L422.94,333.87L433.01,334.82L443.08,334.92L453.15,332.34L463.22,332.17L473.29,333.58L483.36,333.45L493.43,336.14L503.5,337.95L553.85,343.05L563.92,342.99L573.99,338.75L584.06,329.29L594.13,293.05L604.2,266.21L614.27,241.95L624.34,238.41L644.48,324.92L654.55,358.04L664.62,366.96L674.69,365.96L684.76,361.61L694.83,353.56L704.9,348.01L714.97,345.4L725.04,339.46L735.11,330.73L745.18,323.7L755.25,326.86L765.32,338.59L775.39,348.55L785.46,354.75L795.53,361.91L815.67,376.4L825.74,382.21L835.81,383.75L845.88,384.11L866.02,384.1L876.09,382.45L886.16,382.22L896.23,383.7L926.44,384.35L936.51,384.44L956.65,384.13L966.72,384.79L1007,384.98" style="vector-effect: none; fill: none; stroke: rgb(217, 83, 79); stroke-opacity: 1; stroke-width: 2px; opacity: 1;"/></g><g class="points"/><g class="text"/></g><g class="trace scatter tracee44194" style="stroke-miterlimit: 2; opacity: 1;"><g class="fills"/><g class="errorbars"/><g class="lines"><path class="js-line" d="M0,384.94L201.4,384.6L211.47,384.36L251.75,383L261.82,381.57L271.89,379.33L281.96,378.65L292.03,377.38L302.1,374.02L312.17,369.68L322.24,364.16L332.31,355.6L342.38,348.46L352.45,342.87L362.52,336.11L372.59,330.37L382.66,329.19L402.8,326.34L412.87,329.92L422.94,332.65L433.01,334.25L443.08,334.84L453.15,330.87L463.22,330.51L473.29,332.31L483.36,331.56L493.43,334.26L503.5,337.63L513.57,339.94L553.85,342.17L563.92,339.85L584.06,314.61L594.13,303.8L604.2,285.24L614.27,272.8L624.34,281.18L634.41,265.94L644.48,283.1L654.55,346.33L664.62,367.59L674.69,366.8L684.76,360.34L694.83,351.51L704.9,346.03L714.97,343.16L725.04,339.1L735.11,333.15L745.18,321.12L755.25,317.08L765.32,334.51L775.39,354.87L785.46,361.04L795.53,359.72L805.6,364.54L815.67,374.94L825.74,380.84L835.81,381.77L845.88,381.73L855.95,382.72L876.09,383.57L886.16,384.03L916.37,384.49L926.44,384.74L996.93,384.77L1007,382.33" style="vector-effect: none; fill: none; stroke: rgb(217, 83, 79); stroke-opacity: 1; stroke-width: 2px; opacity: 1;"/></g><g class="points"/><g class="text"/></g><g class="trace scatter tracebe35d0" style="stroke-miterlimit: 2; opacity: 1;"><g class="fills"/><g class="errorbars"/><g class="lines"><path class="js-line" d="M0,384.98L221.54,384.29L231.61,383.84L261.82,381.87L271.89,380.83L281.96,379.71L292.03,377.36L302.1,374.31L312.17,372.29L322.24,368.82L332.31,362.93L342.38,354.48L352.45,344.42L372.59,330.59L382.66,329.12L392.73,332.51L402.8,333.86L422.94,345.77L433.01,347.28L453.15,343.99L463.22,344.64L473.29,345.44L483.36,345.1L503.5,347.9L513.57,348.62L533.71,348.56L543.78,349.63L553.85,350.26L563.92,348.13L573.99,336.86L584.06,311.32L594.13,217.7L604.2,134.26L614.27,48.48L624.34,50.75L634.41,161.11L644.48,256.72L654.55,344.52L664.62,368.16L674.69,369.23L684.76,366.61L694.83,362.55L704.9,359.62L714.97,353.23L725.04,343.15L735.11,336.75L745.18,331.77L755.25,336.14L765.32,349.36L775.39,359.72L785.46,362.75L795.53,364.58L805.6,367.25L815.67,373.48L825.74,381.48L835.81,383.81L845.88,384.17L866.02,383.81L876.09,381.55L886.16,380.62L896.23,382.33L906.3,383.49L916.37,383.8L936.51,383.31L946.58,381.65L956.65,382.12L966.72,384.19L986.86,384.52L996.93,384.7L1007,384.97" style="vector-effect: none; fill: none; stroke: rgb(217, 83, 79); stroke-opacity: 1; stroke-width: 2px; opacity: 1;"/></g><g class="points"/><g class="text"/></g><g class="trace scatter trace5a2e30" style="stroke-miterlimit: 2; opacity: 1;"><g class="fills"/><g class="errorbars"/><g class="lines"><path class="js-line" d="M0,384.96L211.47,384.53L221.54,384.41L251.75,383.44L261.82,382L271.89,380.08L281.96,379.7L292.03,378.74L302.1,376.06L312.17,371.35L322.24,365.71L332.31,357.52L342.38,351.92L352.45,348.08L362.52,342.55L372.59,339.55L382.66,339.99L392.73,339.07L402.8,337.09L412.87,339.65L422.94,343.4L433.01,346.18L443.08,346.76L453.15,343.6L463.22,343.05L473.29,344.41L483.36,342.93L493.43,344.15L503.5,346.62L513.57,348.43L523.64,348.58L533.71,347.73L543.78,348.06L553.85,348.6L563.92,343.59L584.06,271.58L594.13,242.46L604.2,190.13L614.27,142.57L624.34,147.31L634.41,106.55L644.48,151.33L654.55,312.2L664.62,367.87L674.69,371.27L684.76,369.12L694.83,365.77L704.9,363.02L714.97,358.86L725.04,352.06L735.11,341.44L745.18,317.49L755.25,307.36L775.39,361.05L785.46,365.01L795.53,362.84L805.6,366.78L815.67,376.65L825.74,381.81L835.81,382.22L845.88,381.72L855.95,382.63L866.02,382.25L876.09,381.51L886.16,383.22L896.23,384.26L906.3,383.96L976.79,384.91L986.86,384.87L1007,384.01" style="vector-effect: none; fill: none; stroke: rgb(217, 83, 79); stroke-opacity: 1; stroke-width: 2px; opacity: 1;"/></g><g class="points"/><g class="text"/></g><g class="trace scatter traced7d839" style="stroke-miterlimit: 2; opacity: 1;"><g class="fills"/><g class="errorbars"/><g class="lines"><path class="js-line" d="M0,384.93L181.26,384.61L191.33,384.46L231.61,382.58L241.68,381.73L261.82,379.41L271.89,377.92L292.03,373.99L302.1,371.11L312.17,368.21L322.24,364.41L342.38,354.05L352.45,347.7L372.59,336.16L382.66,332.87L392.73,332.56L402.8,329.87L412.87,328.93L422.94,329.52L433.01,327.82L443.08,324.71L453.15,321.68L463.22,320.02L483.36,317.59L493.43,317.96L513.57,319.73L523.64,319.89L533.71,321.29L543.78,324.96L553.85,328.49L563.92,330.13L573.99,328.16L584.06,320.28L594.13,274.72L604.2,240.22L614.27,212.98L624.34,213.02L634.41,256.94L644.48,304.8L654.55,351.32L664.62,362.34L674.69,360.15L684.76,352.63L694.83,340.8L704.9,331.8L714.97,327.57L725.04,319.29L735.11,309.47L745.18,305.19L755.25,311.42L765.32,328.38L775.39,341.91L785.46,347.7L805.6,364.99L815.67,374.15L825.74,381.75L835.81,383.85L866.02,384.42L876.09,383.88L896.23,384.35L906.3,384.62L1007,384.99" style="vector-effect: none; fill: none; stroke: rgb(217, 83, 79); stroke-opacity: 1; stroke-width: 2px; opacity: 1;"/></g><g class="points"/><g class="text"/></g><g class="trace scatter trace510646" style="stroke-miterlimit: 2; opacity: 1;"><g class="fills"/><g class="errorbars"/><g class="lines"><path class="js-line" d="M0,384.87L161.12,384.83L171.19,384.79L221.54,383.95L231.61,383.61L261.82,381.52L271.89,380.01L292.03,377.57L302.1,375.13L312.17,371.88L322.24,367.8L342.38,357.82L352.45,352.92L372.59,343.14L382.66,340.38L402.8,332.79L412.87,331.5L433.01,328.41L443.08,325.27L453.15,320.94L463.22,318.64L473.29,317.16L483.36,314.76L493.43,314.81L503.5,315.88L523.64,318.54L533.71,319.2L543.78,321.3L553.85,324.27L563.92,324.76L573.99,309.94L594.13,282.42L604.2,259.94L614.27,243.16L624.34,254.01L634.41,245.83L644.48,270.24L654.55,340.17L664.62,361.38L674.69,358.99L684.76,350.89L694.83,340.14L704.9,334.59L714.97,331.7L725.04,324.61L735.11,314.64L745.18,294.72L755.25,287.05L765.32,314.15L775.39,345.13L785.46,355.11L795.53,354.33L805.6,359.69L815.67,372.86L825.74,380.77L835.81,382.46L845.88,382.88L866.02,383.84L876.09,383.89L916.37,384.66L926.44,384.78L996.93,384.72L1007,383.62" style="vector-effect: none; fill: none; stroke: rgb(217, 83, 79); stroke-opacity: 1; stroke-width: 2px; opacity: 1;"/></g><g class="points"/><g class="text"/></g><g class="trace scatter trace94a746" style="stroke-miterlimit: 2; opacity: 1;"><g class="fills"/><g class="errorbars"/><g class="lines"><path class="js-line" d="M0,384.85L191.33,384.86L201.4,384.72L251.75,383.51L261.82,382.98L292.03,380.71L302.1,378.87L322.24,375.42L332.31,372.14L342.38,367.77L352.45,361.84L362.52,357.35L372.59,351.63L382.66,350.01L392.73,352.55L402.8,352.11L412.87,355.81L422.94,361.01L433.01,362.32L453.15,360.75L463.22,361.07L473.29,361.78L483.36,361.61L503.5,363.34L513.57,363.65L553.85,363.19L563.92,360.76L573.99,352.98L584.06,338.22L594.13,274.77L604.2,222.26L614.27,187L624.34,195.2L634.41,262.87L644.48,319.36L654.55,362.71L664.62,373.3L674.69,372.53L684.76,370.83L694.83,368.29L704.9,366.53L714.97,361.76L725.04,349.65L735.11,342.52L745.18,340.59L755.25,346.03L765.32,360.59L775.39,370.4L785.46,372.1L805.6,374.9L815.67,378.41L825.74,383.07L835.81,384.29L866.02,384.37L876.09,383.46L886.16,382.98L896.23,383.66L916.37,384.49L926.44,384.49L956.65,383.33L966.72,384.54L1007,384.98" style="vector-effect: none; fill: none; stroke: rgb(217, 83, 79); stroke-opacity: 1; stroke-width: 2px; opacity: 1;"/></g><g class="points"/><g class="text"/></g><g class="trace scatter trace9297c6" style="stroke-miterlimit: 2; opacity: 1;"><g class="fills"/><g class="errorbars"/><g class="lines"><path class="js-line" d="M0,384.75L100.7,384.96L110.77,384.96L241.68,384.3L251.75,384.05L292.03,381.61L302.1,379.87L312.17,377.65L322.24,374.6L332.31,370.19L342.38,366.87L362.52,360.43L372.59,357.23L382.66,357.14L392.73,356.16L402.8,354.71L412.87,356.93L433.01,362.62L443.08,362.92L453.15,360.03L463.22,359.85L473.29,360.58L483.36,359.12L493.43,360.31L503.5,362.38L513.57,363.62L523.64,363.17L533.71,361.99L543.78,361.71L553.85,361.56L563.92,353.86L584.06,309.03L594.13,286.48L604.2,253.75L614.27,236.48L624.34,254.28L634.41,239.84L644.48,264.28L654.55,347.37L664.62,374.65L674.69,376.24L694.83,373.8L704.9,371.96L714.97,367.57L725.04,358.54L735.11,346.13L745.18,326.95L755.25,323.49L765.32,348.47L775.39,368.52L785.46,372.49L795.53,371.68L805.6,374.17L815.67,380.17L825.74,383.22L855.95,383.81L866.02,383.29L876.09,382.79L886.16,383.88L896.23,384.54L906.3,384.43L996.93,384.82L1007,383.53" style="vector-effect: none; fill: none; stroke: rgb(217, 83, 79); stroke-opacity: 1; stroke-width: 2px; opacity: 1;"/></g><g class="points"/><g class="text"/></g><g class="trace scatter trace765c79" style="stroke-miterlimit: 2; opacity: 1;"><g class="fills"/><g class="errorbars"/><g class="lines"><path class="js-line" d="M0,384.98L181.26,384.29L191.33,383.96L221.54,381.84L231.61,380.5L251.75,376.81L261.82,374.06L281.96,367.62L292.03,363.23L312.17,352.67L322.24,346.34L332.31,339.13L342.38,330.78L352.45,321.53L362.52,314.36L372.59,307.7L382.66,302.4L392.73,298.39L402.8,293.16L422.94,285.83L433.01,280.83L443.08,275.11L453.15,270.47L463.22,267.46L473.29,265.42L483.36,264.11L493.43,264.18L513.57,268.21L523.64,268.85L533.71,273.9L543.78,283.1L563.92,297.59L573.99,304.14L584.06,308.52L594.13,300.84L614.27,286.74L624.34,292.85L654.55,349.98L664.62,358.07L674.69,358.24L684.76,355.1L694.83,348.4L704.9,344.1L714.97,343.9L725.04,340.51L735.11,334.7L745.18,331.61L755.25,333.41L765.32,341.92L775.39,350.8L785.46,355.68L815.67,376.83L825.74,382.21L835.81,383.84L845.88,384.18L876.09,384.26L886.16,384.33L926.44,384.87L936.51,384.88L1007,385" style="vector-effect: none; fill: none; stroke: rgb(240, 173, 78); stroke-opacity: 1; stroke-width: 2px; opacity: 1;"/></g><g class="points"/><g class="text"/></g><g class="trace scatter tracef4e512" style="stroke-miterlimit: 2; opacity: 1;"><g class="fills"/><g class="errorbars"/><g class="lines"><path class="js-line" d="M0,384.95L181.26,384.42L191.33,384.23L221.54,382.96L231.61,382.2L251.75,379.78L261.82,377.28L271.89,374L281.96,371.58L292.03,368.57L302.1,363.91L322.24,350.63L332.31,342.74L362.52,320.01L372.59,314.03L382.66,308.76L392.73,302.19L402.8,295.16L412.87,290.11L433.01,280.58L443.08,275L453.15,269.14L463.22,265.21L483.36,261.38L493.43,261.26L503.5,263.06L513.57,266.29L533.71,273.72L543.78,279.68L563.92,294.17L573.99,296.86L594.13,302L604.2,301.69L614.27,302.29L624.34,307.57L634.41,303.13L644.48,314.55L654.55,345.31L664.62,356.86L674.69,356.59L684.76,351.23L694.83,342.37L704.9,339.29L714.97,340.64L725.04,338.65L735.11,334.82L745.18,325.66L755.25,319.16L765.32,333.59L775.39,355.4L785.46,362.81L795.53,362.49L805.6,367.11L815.67,375.68L825.74,380.8L835.81,382.39L845.88,382.92L886.16,384.33L896.23,384.5L996.93,384.73L1007,384.27" style="vector-effect: none; fill: none; stroke: rgb(240, 173, 78); stroke-opacity: 1; stroke-width: 2px; opacity: 1;"/></g><g class="points"/><g class="text"/></g><g class="trace scatter trace74ecce" style="stroke-miterlimit: 2; opacity: 1;"><g class="fills"/><g class="errorbars"/><g class="lines"><path class="js-line" d="M0,384.99L201.4,384.24L211.47,383.89L231.61,382.84L241.68,382.03L261.82,379.7L271.89,378.17L281.96,376.69L292.03,374.3L312.17,367.89L322.24,363.53L332.31,357.59L342.38,350.4L352.45,341.93L362.52,335.23L372.59,328.48L382.66,326.56L392.73,327.84L402.8,325.5L412.87,326.52L422.94,329.35L433.01,328.82L443.08,326.19L453.15,323.47L463.22,322.94L473.29,323.06L483.36,322.24L533.71,326.65L543.78,329.96L553.85,332.77L563.92,333.66L573.99,329.51L584.06,316.94L594.13,258.4L604.2,211.07L614.27,166.53L624.34,162.7L644.48,284.8L654.55,345.25L664.62,359.35L674.69,355.56L684.76,345.84L694.83,332.98L704.9,324.8L714.97,320.3L725.04,309.45L735.11,294.91L745.18,290.29L755.25,302.18L765.32,320.39L775.39,333.6L785.46,340.87L795.53,350.83L825.74,381.17L835.81,383.56L855.95,384.28L866.02,384.13L876.09,382.95L886.16,382.65L906.3,384.3L916.37,384.4L936.51,384.35L946.58,383.74L1007,384.98" style="vector-effect: none; fill: none; stroke: rgb(217, 83, 79); stroke-opacity: 1; stroke-width: 2px; opacity: 1;"/></g><g class="points"/><g class="text"/></g><g class="trace scatter traceec4c2a" style="stroke-miterlimit: 2; opacity: 1;"><g class="fills"/><g class="errorbars"/><g class="lines"><path class="js-line" d="M0,384.97L201.4,384.48L211.47,384.21L241.68,383.17L251.75,382.47L281.96,378.19L292.03,376.86L302.1,374.01L312.17,369.66L322.24,364.41L332.31,357.58L362.52,340.77L372.59,336.43L382.66,334.84L392.73,332.09L402.8,328.38L412.87,327.97L433.01,328.64L443.08,327.11L453.15,322.65L463.22,321.06L473.29,320.93L483.36,319.05L493.43,320.03L503.5,321.9L513.57,323.82L523.64,324.89L533.71,325.39L543.78,327.15L553.85,329.72L563.92,328.54L584.06,286.19L594.13,268.75L604.2,239.33L614.27,214.82L624.34,223.31L634.41,202.08L644.48,232.49L654.55,330.42L664.62,359.98L674.69,357.15L684.76,347.48L694.83,333.33L704.9,323.64L714.97,320.4L725.04,315.12L735.11,305.53L745.18,281.76L755.25,271.73L775.39,340.22L785.46,350.16L795.53,348.86L805.6,354.27L815.67,369.66L825.74,379.51L835.81,381.41L845.88,381.79L866.02,383.26L876.09,383.19L896.23,384.33L906.3,384.29L986.86,384.82L996.93,384.73L1007,384.02" style="vector-effect: none; fill: none; stroke: rgb(217, 83, 79); stroke-opacity: 1; stroke-width: 2px; opacity: 1;"/></g><g class="points"/><g class="text"/></g><g class="trace scatter trace154404" style="stroke-miterlimit: 2; opacity: 1;"><g class="fills"/><g class="errorbars"/><g class="lines"><path class="js-line" d="M0,384.8L140.98,384.93L151.05,384.92L221.54,384.18L231.61,383.68L281.96,380.54L292.03,379.18L322.24,372.23L332.31,368.22L342.38,363.69L352.45,358.18L362.52,353.06L372.59,345.82L382.66,342.6L392.73,344.14L402.8,341.75L412.87,343.83L422.94,348.66L433.01,349.13L453.15,345.38L463.22,344.75L473.29,344.87L483.36,343.59L513.57,342.92L523.64,340.9L533.71,339.46L543.78,339.87L553.85,339.79L563.92,337.64L573.99,329.89L584.06,312.34L594.13,242.45L604.2,189.41L614.27,140.3L624.34,145.17L634.41,216.55L644.48,281.18L654.55,348.76L664.62,366.44L674.69,368.3L684.76,367.9L694.83,366.04L704.9,365.28L714.97,363.03L725.04,354.13L735.11,347.52L745.18,345.88L755.25,351.73L765.32,364.22L775.39,371.13L785.46,372.53L815.67,378.94L825.74,382.52L835.81,383.59L845.88,383.87L855.95,384.1L866.02,383.52L876.09,381.54L886.16,381.13L896.23,382.85L906.3,383.8L936.51,383.71L946.58,382.54L956.65,382.94L966.72,384.45L1007,384.97" style="vector-effect: none; fill: none; stroke: rgb(217, 83, 79); stroke-opacity: 1; stroke-width: 2px; opacity: 1;"/></g><g class="points"/><g class="text"/></g><g class="trace scatter tracee3cc2c" style="stroke-miterlimit: 2; opacity: 1;"><g class="fills"/><g class="errorbars"/><g class="lines"><path class="js-line" d="M0,384.64L70.49,384.96L80.56,384.96L231.61,384.15L241.68,383.87L271.89,382.33L281.96,381.77L292.03,380.62L302.1,378.71L312.17,376.82L322.24,373.37L332.31,368.94L342.38,365.84L352.45,362.05L362.52,357.28L372.59,352.26L382.66,350.96L402.8,344.85L412.87,346.6L433.01,350.85L443.08,349.39L453.15,345.26L463.22,344.11L473.29,343.73L483.36,341.14L493.43,341.46L503.5,342.72L513.57,343.15L523.64,341.68L533.71,339.27L543.78,338.23L553.85,337.96L563.92,335.02L584.06,283.12L594.13,260.2L614.27,178.77L624.34,187.88L634.41,195.7L644.48,235.04L654.55,331.6L664.62,366.36L674.69,369.19L684.76,368.99L704.9,365.56L714.97,364.56L725.04,358.8L735.11,350.32L745.18,337.76L755.25,336.17L765.32,354.32L775.39,368.16L785.46,371.39L795.53,372.09L805.6,374.96L815.67,379.22L825.74,381.42L835.81,382.01L845.88,381.81L855.95,382.58L876.09,381.84L886.16,383.28L896.23,384.18L906.3,384.09L976.79,384.89L986.86,384.83L996.93,384.71L1007,381.76" style="vector-effect: none; fill: none; stroke: rgb(217, 83, 79); stroke-opacity: 1; stroke-width: 2px; opacity: 1;"/></g><g class="points"/><g class="text"/></g><g class="trace scatter trace410964" style="stroke-miterlimit: 2; opacity: 1;"><g class="fills"/><g class="errorbars"/><g class="lines"><path class="js-line" d="M0,384.92L201.4,384.67L211.47,384.5L241.68,383.48L251.75,383.09L281.96,380.97L292.03,379.37L322.24,372.15L332.31,367.73L342.38,361.8L352.45,354.53L372.59,341.36L382.66,339.05L392.73,341.26L402.8,340.02L412.87,343.64L422.94,349.89L433.01,351.09L443.08,349.18L453.15,346.67L463.22,346.42L473.29,346.47L483.36,345.63L503.5,346.94L513.57,346.62L533.71,344.54L543.78,344.82L553.85,345.37L563.92,342.54L573.99,332.46L584.06,311L604.2,128.78L614.27,47.04L624.34,55.35L634.41,174.77L644.48,272.51L654.55,346.32L664.62,366.12L674.69,367.05L684.76,365.87L694.83,363.05L704.9,361.86L714.97,356.35L725.04,339.68L735.11,328.31L745.18,322.22L755.25,328.96L765.32,352.07L775.39,365.72L785.46,365.45L795.53,366.39L805.6,367.47L815.67,372.65L825.74,380.99L835.81,383.28L855.95,383.85L866.02,382.93L876.09,379.77L886.16,378.52L906.3,382.92L916.37,383.32L926.44,383.33L936.51,382.19L946.58,379.57L956.65,380.41L966.72,383.68L976.79,384.5L996.93,384.49L1007,384.96" style="vector-effect: none; fill: none; stroke: rgb(217, 83, 79); stroke-opacity: 1; stroke-width: 2px; opacity: 1;"/></g><g class="points"/><g class="text"/></g><g class="trace scatter trace9c84b4" style="stroke-miterlimit: 2; opacity: 1;"><g class="fills"/><g class="errorbars"/><g class="lines"><path class="js-line" d="M0,384.84L140.98,384.94L151.05,384.93L241.68,384.09L251.75,383.82L281.96,381.78L292.03,380.64L312.17,376.04L322.24,371.98L332.31,366.67L342.38,362.52L372.59,348.9L382.66,348.37L402.8,343L412.87,345.04L433.01,351.27L443.08,351.06L453.15,346.64L463.22,345.24L473.29,345.03L483.36,342.4L493.43,343.43L503.5,345.52L513.57,346.48L523.64,345.43L533.71,343.32L543.78,342.7L553.85,342.79L563.92,332.69L584.06,267.43L594.13,231.5L604.2,175.5L614.27,140.96L624.34,162.81L634.41,130.97L644.48,170.21L654.55,315.63L664.62,366.97L674.69,371.76L684.76,371.73L694.83,370.89L704.9,369.68L714.97,364.04L725.04,350.44L735.11,331.92L745.18,303.32L755.25,296.7L765.32,332L775.39,360.59L785.46,365.51L795.53,363.95L805.6,368.09L815.67,376.98L825.74,381.23L835.81,381.67L845.88,381.15L855.95,382.05L876.09,378.73L886.16,381.86L896.23,383.8L906.3,383.43L956.65,384.86L966.72,384.89L996.93,384.74L1007,383.21" style="vector-effect: none; fill: none; stroke: rgb(217, 83, 79); stroke-opacity: 1; stroke-width: 2px; opacity: 1;"/></g><g class="points"/><g class="text"/></g><g class="trace scatter trace1dae86" style="stroke-miterlimit: 2; opacity: 1;"><g class="fills"/><g class="errorbars"/><g class="lines"><path class="js-line" d="M0,384.96L201.4,384.49L211.47,384.25L231.61,383.39L241.68,382.77L261.82,381.2L271.89,379.69L281.96,378.65L292.03,375.76L322.24,361.87L332.31,354.89L342.38,344.18L352.45,329.91L362.52,319.8L372.59,307.35L382.66,302.5L392.73,308.36L402.8,308.86L412.87,318.98L422.94,333.04L433.01,335.94L453.15,331.96L463.22,334.06L473.29,336.06L483.36,335.52L493.43,338.93L503.5,340.87L523.64,342.95L533.71,341.51L553.85,342.59L563.92,341.66L573.99,335.41L584.06,320.5L614.27,133.91L624.34,141.51L634.41,218.52L644.48,285.32L654.55,348.73L664.62,366.66L674.69,368.53L684.76,367.8L694.83,364.91L704.9,363.83L714.97,361.17L725.04,349.98L735.11,340.98L745.18,337.33L755.25,342L765.32,357.76L775.39,368.16L785.46,368.88L805.6,372.51L815.67,377.01L825.74,382.43L835.81,383.58L855.95,383.95L866.02,383.05L876.09,379.7L886.16,378.92L896.23,381.55L906.3,382.68L936.51,382.94L946.58,381.37L956.65,381.89L966.72,384.09L986.86,384.39L996.93,384.61L1007,384.95" style="vector-effect: none; fill: none; stroke: rgb(217, 83, 79); stroke-opacity: 1; stroke-width: 2px; opacity: 1;"/></g><g class="points"/><g class="text"/></g><g class="trace scatter trace8be2d6" style="stroke-miterlimit: 2; opacity: 1;"><g class="fills"/><g class="errorbars"/><g class="lines"><path class="js-line" d="M0,384.9L171.19,384.89L181.26,384.86L231.61,384.09L241.68,383.75L261.82,382.23L271.89,380.18L281.96,379.3L292.03,377.36L302.1,373.51L312.17,368.8L322.24,361.91L332.31,352.04L352.45,334.05L362.52,326.01L372.59,318.25L382.66,317.25L402.8,311.22L412.87,319.58L422.94,328.52L433.01,334.45L443.08,336.17L453.15,330.73L463.22,331.22L473.29,333.43L483.36,329.98L493.43,333.99L503.5,339.64L513.57,342.87L523.64,342.76L533.71,340.76L543.78,340.26L553.85,341.05L563.92,337.95L573.99,315.3L584.06,292L594.13,271.25L614.27,203.05L624.34,205.37L634.41,178.11L644.48,211.19L654.55,326.04L664.62,366.38L674.69,369.99L684.76,370.21L704.9,368.54L714.97,366.01L725.04,358.65L735.11,346.71L745.18,327.2L755.25,321.25L765.32,342.92L775.39,362.77L785.46,367.55L795.53,366.96L805.6,370.16L815.67,377.8L825.74,381.79L835.81,381.51L845.88,380.58L855.95,381.73L876.09,380.92L886.16,382.87L896.23,384.06L906.3,383.8L966.72,384.86L976.79,384.88L996.93,384.73L1007,383.1" style="vector-effect: none; fill: none; stroke: rgb(217, 83, 79); stroke-opacity: 1; stroke-width: 2px; opacity: 1;"/></g><g class="points"/><g class="text"/></g><g class="trace scatter trace175826" style="stroke-miterlimit: 2; opacity: 1;"><g class="fills"/><g class="errorbars"/><g class="lines"><path class="js-line" d="M0,384.83L140.98,384.87L151.05,384.82L211.47,383.78L221.54,383.39L251.75,380.7L261.82,379.18L281.96,375.79L292.03,372.96L322.24,360.33L332.31,353.87L342.38,345.14L352.45,334.76L372.59,321.63L382.66,319.61L392.73,320.69L402.8,317.86L412.87,318.86L422.94,322.46L433.01,322.36L443.08,318.77L453.15,315L463.22,314.32L473.29,314.56L483.36,314.03L513.57,316.56L523.64,315.16L533.71,315.75L543.78,320.02L553.85,323.07L563.92,323.35L573.99,315.34L584.06,296.89L604.2,166.2L614.27,87.86L624.34,88.17L634.41,171.83L654.55,337.76L664.62,359.09L674.69,358.69L684.76,354.07L704.9,339.64L714.97,333.15L735.11,310.36L745.18,308.46L755.25,317.89L765.32,332.81L775.39,347.32L785.46,354.89L815.67,374.31L825.74,381.54L835.81,383.54L845.88,383.95L866.02,383.92L876.09,382.45L886.16,382.04L896.23,383.28L916.37,384.21L926.44,384.33L956.65,383.46L966.72,384.56L1007,384.98" style="vector-effect: none; fill: none; stroke: rgb(217, 83, 79); stroke-opacity: 1; stroke-width: 2px; opacity: 1;"/></g><g class="points"/><g class="text"/></g><g class="trace scatter tracefc120c" style="stroke-miterlimit: 2; opacity: 1;"><g class="fills"/><g class="errorbars"/><g class="lines"><path class="js-line" d="M0,384.68L90.63,384.93L100.7,384.92L211.47,384.09L221.54,383.83L251.75,382.12L261.82,380.24L271.89,377.65L281.96,376.76L292.03,375.39L302.1,372.05L322.24,360.63L332.31,352.95L362.52,333.76L372.59,329.86L382.66,328.89L392.73,325.45L402.8,320.8L412.87,320.52L433.01,321.58L443.08,319.78L453.15,314.46L463.22,312.55L473.29,312.82L483.36,311.27L493.43,312.19L503.5,314L513.57,315.9L523.64,316.07L533.71,315.56L543.78,317.27L553.85,320.07L563.92,319.63L584.06,260.81L594.13,239.62L604.2,202.41L614.27,160.17L624.34,160.28L634.41,136.36L644.48,182.82L654.55,316.25L664.62,359.09L674.69,360.37L684.76,355.39L694.83,347.06L704.9,340.85L714.97,338.45L725.04,332.66L735.11,319.76L745.18,294.61L755.25,287.04L775.39,351.24L785.46,359.53L795.53,358L805.6,362.33L815.67,373.58L825.74,380.35L835.81,381.77L845.88,381.85L866.02,382.93L876.09,382.69L896.23,384.25L906.3,384.18L976.79,384.85L986.86,384.78L996.93,384.64L1007,383.66" style="vector-effect: none; fill: none; stroke: rgb(217, 83, 79); stroke-opacity: 1; stroke-width: 2px; opacity: 1;"/></g><g class="points"/><g class="text"/></g><g class="trace scatter trace11010e" style="stroke-miterlimit: 2; opacity: 1;"><g class="fills"/><g class="errorbars"/><g class="lines"><path class="js-line" d="M0,384.98L211.47,384.51L221.54,384.39L261.82,382.25L271.89,381.35L281.96,380.71L292.03,379.13L322.24,370.67L332.31,366.3L342.38,360.76L352.45,353.22L372.59,342.8L382.66,341.86L392.73,344.32L402.8,343.99L412.87,348.14L422.94,353.91L433.01,355.54L443.08,354.77L453.15,354.02L463.22,355.29L473.29,356.66L483.36,356.76L503.5,359.2L513.57,359.64L533.71,359.06L543.78,360.11L553.85,360.31L563.92,357.27L573.99,345.75L584.06,324.89L594.13,251.91L604.2,192.72L614.27,129.07L624.34,120.93L654.55,357.32L664.62,373.94L674.69,375.99L684.76,375.81L694.83,374.04L704.9,373.38L714.97,371.78L725.04,364.99L735.11,359.51L745.18,358.28L755.25,363.7L765.32,373.35L775.39,378.16L785.46,378.85L815.67,381.88L825.74,383.81L845.88,384.52L855.95,384.59L876.09,383.53L886.16,383.07L916.37,384.47L926.44,384.44L956.65,383.41L966.72,384.55L1007,384.98" style="vector-effect: none; fill: none; stroke: rgb(217, 83, 79); stroke-opacity: 1; stroke-width: 2px; opacity: 1;"/></g><g class="points"/><g class="text"/></g><g class="trace scatter tracefdffaf" style="stroke-miterlimit: 2; opacity: 1;"><g class="fills"/><g class="errorbars"/><g class="lines"><path class="js-line" d="M0,384.96L221.54,384.44L231.61,384.32L251.75,383.64L261.82,382.66L271.89,381.04L281.96,380.71L292.03,380.1L302.1,377.76L322.24,369.41L332.31,363.35L352.45,356.47L362.52,351.74L372.59,349.46L382.66,349.99L402.8,346.21L412.87,349.54L422.94,352.78L433.01,355.09L443.08,355.44L453.15,353.62L473.29,355.36L483.36,354.57L513.57,359.57L523.64,359.59L543.78,358.85L553.85,358.79L563.92,353.62L573.99,323.9L594.13,261.34L604.2,217.7L614.27,179.33L624.34,192.38L634.41,183.46L644.48,220.95L654.55,334.12L664.62,373.39L674.69,377.32L684.76,377.85L714.97,375.06L725.04,370.38L735.11,363.3L745.18,351.53L755.25,350.09L765.32,364.43L775.39,375.4L785.46,378.65L795.53,378.62L805.6,379.75L815.67,382.26L825.74,383.53L855.95,383.81L866.02,383.23L876.09,382.78L886.16,383.88L906.3,384.44L916.37,384.56L956.65,384.92L966.72,384.93L996.93,384.85L1007,383.78" style="vector-effect: none; fill: none; stroke: rgb(217, 83, 79); stroke-opacity: 1; stroke-width: 2px; opacity: 1;"/></g><g class="points"/><g class="text"/></g><g class="trace scatter tracea6a916" style="stroke-miterlimit: 2; opacity: 1;"><g class="fills"/><g class="errorbars"/><g class="lines"><path class="js-line" d="M0,384.93L181.26,384.64L191.33,384.51L231.61,382.93L241.68,382.18L261.82,380.11L271.89,378.75L292.03,375.55L302.1,373.21L322.24,367.74L332.31,364.26L362.52,352.68L372.59,348.95L402.8,341.13L412.87,339.19L422.94,337.81L433.01,335.1L453.15,328.2L463.22,325.9L483.36,321.92L493.43,321.13L523.64,321.33L533.71,322.14L553.85,327.52L563.92,327.68L573.99,322.87L584.06,310.55L594.13,246.12L604.2,199.74L614.27,166.98L624.34,166.85L634.41,233.54L644.48,295.12L654.55,343.85L664.62,356.11L674.69,351.21L684.76,339.94L694.83,325.65L704.9,316.47L714.97,309.86L725.04,294.54L735.11,276.26L745.18,264.82L755.25,273.45L765.32,297.48L775.39,317.92L785.46,329.34L805.6,355.05L815.67,368.27L825.74,380.07L835.81,383.21L855.95,384.13L866.02,383.93L876.09,382.56L886.16,382.25L906.3,384.1L916.37,384.25L936.51,384.24L946.58,383.49L956.65,383.7L966.72,384.67L1007,384.98" style="vector-effect: none; fill: none; stroke: rgb(217, 83, 79); stroke-opacity: 1; stroke-width: 2px; opacity: 1;"/></g><g class="points"/><g class="text"/></g><g class="trace scatter tracec3ab54" style="stroke-miterlimit: 2; opacity: 1;"><g class="fills"/><g class="errorbars"/><g class="lines"><path class="js-line" d="M0,384.86L151.05,384.87L161.12,384.84L231.61,383.73L241.68,383.3L261.82,381.87L271.89,380.6L292.03,378.41L302.1,376.42L322.24,371.02L332.31,367.29L402.8,343.66L412.87,341.28L433.01,336.3L443.08,332.7L453.15,328.45L463.22,325.28L483.36,320.38L493.43,319.22L503.5,318.85L513.57,319.4L533.71,319.54L543.78,321.27L553.85,323.76L563.92,318.56L573.99,298.58L584.06,280.49L594.13,258.16L604.2,224.35L614.27,210.35L624.34,232.89L634.41,219.31L644.48,244.43L654.55,329L664.62,356.04L674.69,352.14L684.76,340.51L694.83,326.37L704.9,317.08L714.97,310.66L725.04,299.61L735.11,284.46L745.18,255.59L755.25,242.44L765.32,282.28L775.39,327.13L785.46,338.61L795.53,336.66L805.6,345.32L815.67,366.23L825.74,378.51L835.81,380.75L845.88,381.06L866.02,382.88L876.09,382.8L896.23,384.15L906.3,384.11L976.79,384.83L986.86,384.76L996.93,384.63L1007,383.56" style="vector-effect: none; fill: none; stroke: rgb(217, 83, 79); stroke-opacity: 1; stroke-width: 2px; opacity: 1;"/></g><g class="points"/><g class="text"/></g><g class="trace scatter trace300843" style="stroke-miterlimit: 2; opacity: 1;"><g class="fills"/><g class="errorbars"/><g class="lines"><path class="js-line" d="M0,384.78L151.05,384.93L161.12,384.92L231.61,384.32L241.68,383.93L302.1,380.71L312.17,379.36L332.31,377.67L342.38,377.01L402.8,369.09L412.87,369.43L422.94,370.4L433.01,369.93L463.22,365.93L473.29,365.25L503.5,362.84L513.57,362.35L553.85,358.68L563.92,354.98L573.99,342.23L584.06,317.04L594.13,235.73L604.2,168.01L614.27,89.32L624.34,77.87L644.48,268.08L654.55,348.82L664.62,367.61L674.69,366.38L684.76,364.28L694.83,359.36L704.9,356.48L714.97,348.94L725.04,334.31L735.11,324.64L745.18,314.13L755.25,321.25L765.32,349L775.39,365.81L805.6,371.13L815.67,375.92L825.74,381.93L835.81,383.68L866.02,384.06L876.09,383.21L886.16,382.96L896.23,383.68L926.44,384.33L936.51,384.12L946.58,383.45L956.65,383.63L976.79,384.8L986.86,384.72L1007,384.97" style="vector-effect: none; fill: none; stroke: rgb(217, 83, 79); stroke-opacity: 1; stroke-width: 2px; opacity: 1;"/></g><g class="points"/><g class="text"/></g><g class="trace scatter trace255d3a" style="stroke-miterlimit: 2; opacity: 1;"><g class="fills"/><g class="errorbars"/><g class="lines"><path class="js-line" d="M0,384.61L70.49,384.96L80.56,384.97L241.68,384.19L251.75,384.01L281.96,382.91L292.03,382.3L332.31,377.89L342.38,377.4L362.52,375.37L372.59,374.38L382.66,373.67L392.73,371.01L402.8,369.37L412.87,370.32L422.94,370.67L433.01,370.18L473.29,365.65L483.36,364.6L503.5,362.69L513.57,362.31L533.71,360.18L543.78,358.87L553.85,357.39L563.92,351.4L584.06,283.36L594.13,255.23L614.27,154.96L624.34,165.21L634.41,143.07L644.48,183.36L654.55,322.09L664.62,370.72L674.69,374.3L684.76,372.83L704.9,368.63L714.97,360.91L725.04,347.2L735.11,327.96L745.18,298.3L755.25,295.13L765.32,330.73L775.39,358.4L785.46,365.46L795.53,363.48L805.6,366.75L815.67,376.87L825.74,382.16L835.81,382.81L876.09,382.98L886.16,383.87L906.3,384.4L916.37,384.53L956.65,384.88L966.72,384.9L996.93,384.77L1007,380.74" style="vector-effect: none; fill: none; stroke: rgb(217, 83, 79); stroke-opacity: 1; stroke-width: 2px; opacity: 1;"/></g><g class="points"/><g class="text"/></g><g class="trace scatter trace2d92f3" style="stroke-miterlimit: 2; opacity: 1;"><g class="fills"/><g class="errorbars"/><g class="lines"><path class="js-line" d="M0,384.97L221.54,384.32L231.61,383.98L281.96,381.25L292.03,379.92L322.24,374.27L332.31,370.45L362.52,355.48L372.59,350.74L382.66,349.17L392.73,350.59L402.8,349.8L412.87,351.29L422.94,353.78L433.01,353.75L463.22,349.02L473.29,348.59L483.36,347.56L493.43,347.79L513.57,348.27L523.64,347.88L533.71,347.6L543.78,348.58L553.85,349.64L563.92,348.02L573.99,338.24L584.06,316.36L594.13,239.1L604.2,176.7L614.27,111.08L624.34,105.31L644.48,273.53L654.55,344.24L664.62,361.5L674.69,357.38L684.76,350.03L694.83,340.19L704.9,335.37L714.97,326.12L725.04,303.76L735.11,287.6L745.18,283.44L755.25,294.51L775.39,339.13L785.46,350.37L795.53,357.96L805.6,364.16L825.74,381.03L835.81,383.08L866.02,383.57L876.09,381.7L886.16,381.23L896.23,382.87L916.37,383.95L926.44,384.08L936.51,383.71L946.58,382.44L956.65,382.82L966.72,384.43L1007,384.97" style="vector-effect: none; fill: none; stroke: rgb(217, 83, 79); stroke-opacity: 1; stroke-width: 2px; opacity: 1;"/></g><g class="points"/><g class="text"/></g><g class="trace scatter traced614c4" style="stroke-miterlimit: 2; opacity: 1;"><g class="fills"/><g class="errorbars"/><g class="lines"><path class="js-line" d="M0,384.93L211.47,384.61L221.54,384.51L251.75,383.85L261.82,383.08L271.89,381.99L281.96,381.66L292.03,381.05L302.1,379.52L322.24,373.93L332.31,369.5L372.59,356.25L382.66,355.47L402.8,352.4L412.87,352.4L433.01,353.88L443.08,353.15L453.15,349.63L463.22,347.91L473.29,347.7L483.36,345.84L493.43,346.04L503.5,347.16L513.57,347.96L523.64,347.57L533.71,346.53L543.78,346.77L553.85,347.62L563.92,343.03L584.06,283.41L594.13,259.62L604.2,216.88L614.27,178.48L624.34,185.96L634.41,156.9L644.48,192.59L654.55,320.88L664.62,363.82L674.69,362.03L694.83,346.14L704.9,337.6L714.97,330.3L725.04,319.5L735.11,299.44L745.18,265.59L755.25,256.93L765.32,301.41L775.39,344.1L785.46,354.55L795.53,352.85L805.6,358.01L815.67,371.81L825.74,380.13L835.81,381.3L845.88,381.17L855.95,382.31L866.02,382.35L876.09,381.94L886.16,383.35L896.23,384.23L906.3,384.09L976.79,384.87L986.86,384.82L996.93,384.71L1007,383.71" style="vector-effect: none; fill: none; stroke: rgb(217, 83, 79); stroke-opacity: 1; stroke-width: 2px; opacity: 1;"/></g><g class="points"/><g class="text"/></g><g class="trace scatter trace4bce8c" style="stroke-miterlimit: 2; opacity: 1;"><g class="fills"/><g class="errorbars"/><g class="lines"><path class="js-line" d="M0,384.98L201.4,384.36L211.47,384.07L231.61,383.23L241.68,382.46L261.82,380.49L271.89,379.15L281.96,377.79L292.03,375.5L312.17,369.01L322.24,364.75L332.31,359.12L342.38,352L352.45,343.91L362.52,336.81L372.59,329.97L382.66,327.6L392.73,327.92L402.8,325.98L412.87,328.17L422.94,332.36L433.01,331.93L443.08,328.67L453.15,324.98L463.22,324.1L473.29,324.08L483.36,322.63L513.57,324.27L523.64,324.25L533.71,324.36L543.78,326.11L553.85,328.15L563.92,328.79L573.99,323.69L584.06,309.83L594.13,258.12L604.2,212.31L614.27,159.44L624.34,148.47L634.41,204.63L644.48,275.5L654.55,344.02L664.62,360.54L674.69,359.23L684.76,354.57L694.83,346.39L704.9,340.06L714.97,334.59L725.04,324.48L735.11,310.6L745.18,300L755.25,307.83L765.32,326.39L775.39,341.63L785.46,349.55L805.6,362.47L815.67,371.65L825.74,380.9L835.81,383.35L855.95,384.03L866.02,383.36L876.09,379.8L886.16,379.05L896.23,382.08L906.3,383.22L936.51,383.65L946.58,382.32L956.65,382.68L966.72,384.44L1007,384.96" style="vector-effect: none; fill: none; stroke: rgb(217, 83, 79); stroke-opacity: 1; stroke-width: 2px; opacity: 1;"/></g><g class="points"/><g class="text"/></g><g class="trace scatter trace28b7da" style="stroke-miterlimit: 2; opacity: 1;"><g class="fills"/><g class="errorbars"/><g class="lines"><path class="js-line" d="M0,384.95L201.4,384.56L211.47,384.3L251.75,382.88L261.82,381.74L271.89,380.09L281.96,379.34L292.03,377.78L302.1,374.79L312.17,370.8L322.24,365.59L332.31,359.06L342.38,353.72L362.52,342.06L372.59,337.77L382.66,336.38L392.73,332.7L402.8,328.72L412.87,329.71L422.94,330.89L433.01,330.85L443.08,328.87L453.15,324.44L463.22,322.9L473.29,322.83L483.36,320.61L493.43,320.94L513.57,323.64L523.64,323.63L533.71,322.87L543.78,323.64L553.85,325.62L563.92,325.8L584.06,281.7L594.13,266.59L614.27,205.18L624.34,208.49L634.41,186.56L644.48,220.75L654.55,326.85L664.62,360.69L674.69,361.34L684.76,355.96L694.83,348.74L704.9,343.46L714.97,339.12L725.04,331.31L735.11,317.97L745.18,289.73L755.25,278.22L765.32,313.01L775.39,346.67L785.46,352.57L795.53,349.69L805.6,355.45L815.67,370.65L825.74,379.59L835.81,380.23L845.88,379.41L866.02,382.35L876.09,382.02L896.23,384.1L906.3,383.87L966.72,384.87L976.79,384.88L996.93,384.72L1007,383.75" style="vector-effect: none; fill: none; stroke: rgb(217, 83, 79); stroke-opacity: 1; stroke-width: 2px; opacity: 1;"/></g><g class="points"/><g class="text"/></g><g class="trace scatter tracee5a617" style="stroke-miterlimit: 2; opacity: 1;"><g class="fills"/><g class="errorbars"/><g class="lines"><path class="js-line" d="M0,384.98L201.4,384.26L211.47,383.86L231.61,382.85L241.68,381.94L251.75,380.84L261.82,378.91L281.96,375.25L292.03,370.8L302.1,364.49L312.17,360.05L322.24,352.31L332.31,340.58L342.38,325.74L352.45,306.39L362.52,289.6L372.59,270.45L382.66,266.81L392.73,274.75L402.8,274.68L412.87,286.35L422.94,301.4L433.01,304.82L443.08,302.39L453.15,298.7L473.29,303.08L483.36,302.65L493.43,306.94L503.5,310.18L513.57,311.82L523.64,312.62L533.71,311.76L543.78,313L553.85,315.24L563.92,314.06L573.99,303.74L584.06,282.06L594.13,199.77L604.2,134.85L614.27,74.09L624.34,70L654.55,335.93L664.62,356.3L674.69,356.02L684.76,352.8L694.83,346.84L704.9,343.48L714.97,337.08L725.04,317.87L735.11,301.5L745.18,294.22L755.25,304.56L765.32,327.54L775.39,343.81L785.46,349.89L795.53,355.41L805.6,361.81L815.67,370.66L825.74,380.6L835.81,383.28L845.88,383.74L855.95,384.02L866.02,383.33L876.09,380.33L886.16,379.35L896.23,381.83L906.3,383.2L926.44,383.59L936.51,382.99L946.58,381.13L956.65,381.71L966.72,384.1L976.79,384.6L996.93,384.54L1007,384.93" style="vector-effect: none; fill: none; stroke: rgb(217, 83, 79); stroke-opacity: 1; stroke-width: 2px; opacity: 1;"/></g><g class="points"/><g class="text"/></g><g class="trace scatter trace2436d9" style="stroke-miterlimit: 2; opacity: 1;"><g class="fills"/><g class="errorbars"/><g class="lines"><path class="js-line" d="M0,384.95L191.33,384.71L201.4,384.52L251.75,382.19L261.82,380.2L271.89,377.13L281.96,376.31L292.03,374.08L302.1,368.57L312.17,360.22L322.24,349.01L332.31,333.66L342.38,321.96L352.45,311.36L362.52,298.31L372.59,288.5L382.66,288.13L392.73,285.55L402.8,281.63L422.94,297.5L433.01,303.73L443.08,305.3L453.15,297.47L463.22,297.37L473.29,300.64L483.36,296.94L493.43,301.06L503.5,307.64L513.57,311.61L523.64,311.68L533.71,309.95L543.78,310.23L553.85,312.04L563.92,308.17L573.99,275.36L584.06,241.89L594.13,216.32L604.2,174.5L614.27,138.69L624.34,153.39L634.41,128.31L644.48,172.62L654.55,311.74L664.62,356.39L674.69,359.02L684.76,356.28L694.83,351.37L714.97,340.74L725.04,329.5L735.11,311.81L745.18,279.21L755.25,267.56L765.32,307.94L775.39,345.09L785.46,352.05L795.53,350.49L805.6,356.99L815.67,371.64L825.74,379.69L835.81,380.58L845.88,380.1L855.95,381.55L866.02,381.49L876.09,380.78L886.16,382.77L896.23,383.93L906.3,383.64L956.65,384.82L966.72,384.84L996.93,384.67L1007,383.29" style="vector-effect: none; fill: none; stroke: rgb(217, 83, 79); stroke-opacity: 1; stroke-width: 2px; opacity: 1;"/></g><g class="points"/><g class="text"/></g><g class="trace scatter trace222db2" style="stroke-miterlimit: 2; opacity: 1;"><g class="fills"/><g class="errorbars"/><g class="lines"><path class="js-line" d="M0,384.92L191.33,384.64L201.4,384.4L241.68,382.69L251.75,381.94L281.96,378.66L292.03,376.77L322.24,367.89L332.31,363.59L342.38,357.89L352.45,350.57L362.52,345.05L372.59,338.37L382.66,336.05L392.73,338L402.8,336.27L412.87,338.97L422.94,343.64L433.01,343.82L453.15,340.66L463.22,340.6L473.29,341.37L483.36,340.73L513.57,342.34L523.64,341.24L533.71,341.14L543.78,343.08L553.85,344.29L563.92,343.03L573.99,335.44L584.06,318.06L594.13,244.29L604.2,185.17L614.27,136.44L624.34,142.41L634.41,215.7L644.48,283.39L654.55,350.2L664.62,366.54L674.69,366.68L684.76,363.06L704.9,350.88L714.97,347.06L735.11,332.45L745.18,331.94L755.25,339.36L765.32,353.82L775.39,363.23L785.46,365.5L815.67,377.63L825.74,382.44L835.81,383.77L845.88,384.06L866.02,383.79L876.09,381.58L886.16,380.86L896.23,382.66L916.37,383.88L926.44,384.04L936.51,383.7L946.58,382.42L956.65,382.77L966.72,384.39L1007,384.96" style="vector-effect: none; fill: none; stroke: rgb(217, 83, 79); stroke-opacity: 1; stroke-width: 2px; opacity: 1;"/></g><g class="points"/><g class="text"/></g><g class="trace scatter trace74d3ca" style="stroke-miterlimit: 2; opacity: 1;"><g class="fills"/><g class="errorbars"/><g class="lines"><path class="js-line" d="M0,384.85L151.05,384.89L161.12,384.86L231.61,383.93L241.68,383.56L261.82,382.14L271.89,380.63L292.03,378.9L302.1,376.38L312.17,373.13L322.24,368.99L332.31,363.34L342.38,358.62L372.59,345.13L382.66,344.11L402.8,338.53L412.87,340.37L433.01,344.2L443.08,343.41L453.15,339.71L463.22,339.17L473.29,339.57L483.36,337.82L493.43,338.88L503.5,340.73L513.57,342.05L523.64,342.12L533.71,341.29L543.78,341.63L553.85,342.43L563.92,338.75L584.06,285.09L594.13,261.48L604.2,223.86L614.27,190.64L624.34,199.71L634.41,185.76L644.48,222.64L654.55,330.87L664.62,365.57L674.69,366.43L684.76,362.66L694.83,356.51L704.9,353.54L714.97,352.41L725.04,347.47L735.11,338.5L745.18,322.77L755.25,320.06L775.39,360.91L785.46,367.51L795.53,367.34L805.6,370.13L815.67,377.14L825.74,381.4L835.81,381.99L845.88,381.56L855.95,382.52L866.02,382.63L876.09,382.11L886.16,383.4L896.23,384.28L906.3,384.09L976.79,384.92L986.86,384.87L996.93,384.79L1007,383.62" style="vector-effect: none; fill: none; stroke: rgb(217, 83, 79); stroke-opacity: 1; stroke-width: 2px; opacity: 1;"/></g><g class="points"/><g class="text"/></g><g class="trace scatter trace064a20" style="stroke-miterlimit: 2; opacity: 1;"><g class="fills"/><g class="errorbars"/><g class="lines"><path class="js-line" d="M0,384.96L221.54,384.44L231.61,384.07L281.96,381.21L292.03,379.93L322.24,372.87L332.31,369.33L342.38,363.72L352.45,356.44L372.59,346.9L382.66,346.12L392.73,347.85L402.8,346.56L412.87,349.86L422.94,355.55L433.01,356.93L443.08,355.75L453.15,354.12L463.22,354.36L473.29,355.29L483.36,355.05L503.5,356.1L513.57,356L533.71,354.71L543.78,355.24L553.85,355.58L563.92,353.43L573.99,345.28L584.06,328.25L604.2,190.55L614.27,130L624.34,132.43L634.41,220.91L644.48,299.08L654.55,355.9L664.62,370.78L674.69,371.24L684.76,369.89L694.83,367.31L704.9,366.01L714.97,361.58L725.04,350.93L735.11,342.76L745.18,338.87L755.25,345.3L765.32,361.03L775.39,370.18L785.46,371.29L795.53,373.19L805.6,374.79L815.67,378.04L825.74,382.34L835.81,383.79L855.95,384.27L866.02,383.85L876.09,382.25L886.16,381.74L906.3,383.83L916.37,384.05L936.51,383.75L946.58,382.64L956.65,382.98L966.72,384.43L996.93,384.76L1007,384.98" style="vector-effect: none; fill: none; stroke: rgb(217, 83, 79); stroke-opacity: 1; stroke-width: 2px; opacity: 1;"/></g><g class="points"/><g class="text"/></g><g class="trace scatter trace76f3db" style="stroke-miterlimit: 2; opacity: 1;"><g class="fills"/><g class="errorbars"/><g class="lines"><path class="js-line" d="M0,384.91L201.4,384.77L211.47,384.53L251.75,383.78L261.82,382.85L271.89,381.29L281.96,381.03L292.03,380.56L302.1,378.49L322.24,371.34L332.31,366.55L362.52,356.36L372.59,353.93L382.66,353.92L392.73,351.61L402.8,349.16L412.87,351.39L433.01,356.27L443.08,356.6L453.15,354.03L463.22,353.52L473.29,354.11L483.36,353.01L513.57,356.02L523.64,355.5L533.71,354.3L543.78,354.12L553.85,354.03L563.92,346.06L594.13,269.77L604.2,228.49L614.27,203.94L624.34,218.88L634.41,187.14L644.48,215.31L654.55,330.23L664.62,370.55L674.69,373.69L684.76,372.58L704.9,369.16L714.97,365.71L725.04,357.69L735.11,346.73L745.18,329.66L755.25,326.83L765.32,349.32L775.39,367.63L785.46,371.9L795.53,370.64L805.6,372.94L815.67,378.95L825.74,382.08L835.81,382.66L845.88,382.46L855.95,383.11L876.09,382.27L886.16,383.58L896.23,384.38L906.3,384.27L986.86,384.88L996.93,384.79L1007,383.46" style="vector-effect: none; fill: none; stroke: rgb(217, 83, 79); stroke-opacity: 1; stroke-width: 2px; opacity: 1;"/></g><g class="points"/><g class="text"/></g><g class="trace scatter tracea4714b" style="stroke-miterlimit: 2; opacity: 1;"><g class="fills"/><g class="errorbars"/><g class="lines"><path class="js-line" d="M0,384.9L191.33,384.86L201.4,384.73L251.75,383.68L261.82,383.2L292.03,381.04L302.1,379.15L322.24,375L332.31,372.25L342.38,367.69L352.45,361.53L362.52,356.97L372.59,351.41L382.66,348.93L392.73,351.12L402.8,350.9L412.87,354.96L422.94,360.82L433.01,361.75L463.22,359.61L473.29,359.93L483.36,359.05L493.43,359.54L513.57,359.47L523.64,358.52L533.71,357.26L543.78,357.04L553.85,356.37L563.92,353.6L573.99,343.35L584.06,320.94L594.13,238.39L604.2,162.35L614.27,87.01L624.34,82.75L654.55,339.94L664.62,362.52L674.69,363.43L684.76,360.2L694.83,353.13L704.9,350.24L714.97,345.13L725.04,324.72L735.11,306.09L745.18,300.11L755.25,311.19L765.32,338.57L775.39,356.76L785.46,359.81L805.6,368.09L815.67,374.9L825.74,381.04L835.81,382.43L855.95,383.17L866.02,381.85L876.09,376.52L886.16,375.36L896.23,379.61L906.3,381.29L926.44,382.47L936.51,382.08L946.58,379.45L956.65,380.17L966.72,383.66L976.79,384.31L996.93,384.39L1007,384.92" style="vector-effect: none; fill: none; stroke: rgb(217, 83, 79); stroke-opacity: 1; stroke-width: 2px; opacity: 1;"/></g><g class="points"/><g class="text"/></g><g class="trace scatter trace1128a7" style="stroke-miterlimit: 2; opacity: 1;"><g class="fills"/><g class="errorbars"/><g class="lines"><path class="js-line" d="M0,384.76L100.7,384.96L110.77,384.96L251.75,384.08L261.82,383.61L292.03,381.47L302.1,379.83L312.17,378.04L322.24,375.25L352.45,364.05L362.52,360.29L372.59,355.37L382.66,354.48L402.8,351.97L412.87,355.81L422.94,358.92L433.01,360.93L443.08,361.44L453.15,358.31L463.22,357.87L473.29,358.68L483.36,356.82L493.43,357.63L503.5,359.24L513.57,360.09L523.64,359.46L533.71,357.9L553.85,355.51L563.92,349.88L584.06,286.81L594.13,259.87L614.27,166.76L624.34,168.56L634.41,125.5L644.48,162.75L654.55,312.18L664.62,363.78L674.69,366.84L684.76,365.05L704.9,359.2L714.97,353.62L725.04,338.82L735.11,315.82L745.18,286.24L755.25,282.09L765.32,317.29L775.39,349.38L785.46,359.31L795.53,358.19L805.6,362.15L815.67,373.64L825.74,379.76L835.81,378.81L845.88,377.38L855.95,379.69L866.02,380.05L876.09,379.15L886.16,381.84L896.23,383.59L906.3,383.16L916.37,383.52L936.51,384.75L946.58,384.79L996.93,384.75L1007,382.47" style="vector-effect: none; fill: none; stroke: rgb(217, 83, 79); stroke-opacity: 1; stroke-width: 2px; opacity: 1;"/></g><g class="points"/><g class="text"/></g><g class="trace scatter trace60652c" style="stroke-miterlimit: 2; opacity: 1;"><g class="fills"/><g class="errorbars"/><g class="lines"><path class="js-line" d="M0,384.97L181.26,384.36L191.33,384.1L221.54,382.23L231.61,380.98L251.75,377.62L261.82,374.87L281.96,369.06L292.03,364.84L312.17,352.91L322.24,345.76L332.31,337.67L342.38,326.13L352.45,312.94L362.52,306.58L372.59,301.4L382.66,297.77L392.73,295.89L402.8,290.12L412.87,286.39L422.94,284.11L433.01,279.96L443.08,274.3L453.15,269.33L463.22,266.71L493.43,263.46L503.5,265.06L513.57,266.26L523.64,262.31L533.71,266.24L543.78,278.29L553.85,285.74L563.92,291.71L573.99,296.02L584.06,296.85L594.13,275.79L604.2,252.93L614.27,231.97L624.34,236.14L644.48,317.39L654.55,348.92L664.62,357.64L674.69,358.47L684.76,357.24L694.83,354.86L704.9,354.24L714.97,355.68L725.04,355.81L735.11,353.82L745.18,354.58L755.25,359.27L765.32,365.12L775.39,369.34L795.53,374.61L805.6,377.55L825.74,383.09L835.81,383.79L866.02,384.33L876.09,383.82L1007,384.99" style="vector-effect: none; fill: none; stroke: rgb(217, 83, 79); stroke-opacity: 1; stroke-width: 2px; opacity: 1;"/></g><g class="points"/><g class="text"/></g><g class="trace scatter tracec37a6c" style="stroke-miterlimit: 2; opacity: 1;"><g class="fills"/><g class="errorbars"/><g class="lines"><path class="js-line" d="M0,384.92L171.19,384.59L181.26,384.45L221.54,383.02L231.61,382.25L251.75,379.67L261.82,375.84L271.89,370.83L281.96,369.43L292.03,368.05L302.1,363.05L322.24,346.94L332.31,337.55L342.38,329.04L352.45,322.15L362.52,313.85L372.59,308.61L382.66,304.88L392.73,299.03L402.8,291.97L412.87,287.5L443.08,274.89L453.15,268.46L463.22,265.09L473.29,263.99L483.36,262.24L493.43,262.33L503.5,263.81L513.57,266.86L523.64,269.76L533.71,271.66L543.78,276.12L553.85,282.32L563.92,285.89L573.99,282.99L584.06,280.44L594.13,276.23L604.2,266.86L614.27,266.13L624.34,276.22L634.41,258.74L644.48,277.08L654.55,337.32L664.62,355.87L674.69,357.23L684.76,354.24L694.83,348.17L704.9,348.84L714.97,353.35L725.04,355.46L735.11,355.25L745.18,351.03L755.25,350.77L775.39,369.86L785.46,373.66L795.53,374.05L805.6,375.8L815.67,379.41L825.74,381.8L855.95,383.34L866.02,383.8L956.65,384.86L966.72,384.88L996.93,384.67L1007,384" style="vector-effect: none; fill: none; stroke: rgb(217, 83, 79); stroke-opacity: 1; stroke-width: 2px; opacity: 1;"/></g><g class="points"/><g class="text"/></g><g class="trace scatter trace713d02" style="stroke-miterlimit: 2; opacity: 1;"><g class="fills"/><g class="errorbars"/><g class="lines"><path class="js-line" d="M0,384.97L201.4,384.6L211.47,384.41L241.68,383.58L251.75,383.05L292.03,379.72L302.1,377.34L322.24,372.37L332.31,369.02L342.38,364.24L352.45,357.85L372.59,347.77L382.66,346.72L392.73,348.58L402.8,347.91L412.87,351.48L422.94,356.71L433.01,357.82L443.08,357.01L453.15,356L463.22,356.65L473.29,357.5L483.36,357L513.57,358.13L523.64,357.49L533.71,356.63L543.78,356.85L553.85,356.94L563.92,354.99L573.99,346.84L584.06,332.59L594.13,285.74L604.2,246.15L614.27,204.57L624.34,192.66L634.41,237.65L644.48,301.1L654.55,359.55L664.62,372.41L674.69,373.87L684.76,373.53L704.9,371.62L714.97,369.16L735.11,356.67L745.18,355.78L755.25,361.5L765.32,370.38L775.39,375.7L785.46,376.95L815.67,381.34L825.74,383.46L845.88,384.35L855.95,384.48L886.16,383.12L896.23,383.82L916.37,384.44L926.44,384.49L956.65,383.69L966.72,384.63L1007,384.98" style="vector-effect: none; fill: none; stroke: rgb(217, 83, 79); stroke-opacity: 1; stroke-width: 2px; opacity: 1;"/></g><g class="points"/><g class="text"/></g><g class="trace scatter trace3575f5" style="stroke-miterlimit: 2; opacity: 1;"><g class="fills"/><g class="errorbars"/><g class="lines"><path class="js-line" d="M0,384.94L201.4,384.67L211.47,384.44L251.75,383.46L261.82,382.63L271.89,381.32L281.96,380.99L292.03,380.3L302.1,378.16L322.24,371.37L332.31,366.38L352.45,360.48L362.52,356.37L372.59,353.77L382.66,353.66L402.8,349.74L412.87,353.07L422.94,355.89L433.01,357.5L443.08,357.39L453.15,355.53L473.29,356.42L483.36,355.29L513.57,358.37L523.64,357.76L533.71,356.51L543.78,356.05L553.85,355.97L563.92,352.14L584.06,308.7L594.13,289.5L604.2,260.45L614.27,235.48L624.34,245.35L634.41,235.98L644.48,261.4L654.55,343.24L664.62,371.92L674.69,374.46L684.76,374.37L694.83,373L714.97,370.82L725.04,367.43L735.11,361.53L745.18,351.72L755.25,350.67L765.32,363.82L775.39,374.16L785.46,376.87L795.53,376.85L805.6,378.49L815.67,381.49L825.74,383.03L855.95,383.61L866.02,383.42L876.09,383.17L886.16,384.02L906.3,384.45L916.37,384.55L956.65,384.9L966.72,384.91L996.93,384.79L1007,382.94" style="vector-effect: none; fill: none; stroke: rgb(217, 83, 79); stroke-opacity: 1; stroke-width: 2px; opacity: 1;"/></g><g class="points"/><g class="text"/></g><g class="trace scatter traceaa5f82" style="stroke-miterlimit: 2; opacity: 1;"><g class="fills"/><g class="errorbars"/><g class="lines"><path class="js-line" d="M0,384.93L201.4,384.52L211.47,384.31L241.68,383.19L251.75,382.64L281.96,380.03L292.03,378.49L322.24,371.7L332.31,367.87L362.52,353.43L372.59,349.17L382.66,347.36L392.73,347.6L402.8,346.19L412.87,347.12L422.94,349L433.01,348.5L463.22,342.54L473.29,341.75L483.36,340.35L493.43,340.23L543.78,341.51L553.85,342.58L563.92,342.06L573.99,335.77L584.06,320.65L594.13,262.31L614.27,164.54L624.34,156.84L654.55,345.32L664.62,360.22L674.69,357.68L684.76,349.71L694.83,338.29L704.9,332.53L714.97,325.41L725.04,308.81L735.11,292.66L745.18,281.48L755.25,288.21L765.32,307.65L775.39,324.88L785.46,336.55L805.6,356.74L815.67,368.61L825.74,379.9L835.81,383.14L855.95,384.07L866.02,383.58L876.09,380.93L886.16,380.27L896.23,382.54L906.3,383.52L936.51,383.7L946.58,382.27L956.65,382.63L966.72,384.4L1007,384.97" style="vector-effect: none; fill: none; stroke: rgb(217, 83, 79); stroke-opacity: 1; stroke-width: 2px; opacity: 1;"/></g><g class="points"/><g class="text"/></g><g class="trace scatter trace9e917d" style="stroke-miterlimit: 2; opacity: 1;"><g class="fills"/><g class="errorbars"/><g class="lines"><path class="js-line" d="M0,384.84L151.05,384.9L161.12,384.88L231.61,384.14L241.68,383.85L261.82,382.66L271.89,381.46L292.03,379.99L302.1,378.16L322.24,372.43L332.31,368.09L372.59,354.61L382.66,353.34L402.8,348.53L412.87,348.38L433.01,348.16L443.08,346.44L453.15,342.94L463.22,341.3L473.29,340.7L483.36,338.8L493.43,338.53L503.5,339.09L513.57,339.91L523.64,339.96L533.71,339.43L543.78,339.86L553.85,340.88L563.92,338.08L584.06,293.61L594.13,275.96L604.2,242.72L614.27,214.72L624.34,222.1L634.41,198.13L644.48,226.61L654.55,328.37L664.62,362.01L674.69,359.21L684.76,350.12L694.83,339.42L704.9,331.08L714.97,325.94L725.04,316.9L735.11,301.5L745.18,271.05L755.25,254.74L765.32,293.88L775.39,337.19L785.46,344.55L795.53,341.43L805.6,348.91L815.67,367.69L825.74,379L835.81,380.62L845.88,380.37L855.95,381.94L866.02,382.51L876.09,382.12L896.23,384.23L906.3,384.03L976.79,384.89L986.86,384.84L996.93,384.73L1007,383.67" style="vector-effect: none; fill: none; stroke: rgb(217, 83, 79); stroke-opacity: 1; stroke-width: 2px; opacity: 1;"/></g><g class="points"/><g class="text"/></g></g></g></g><path class="xlines-above crisp" d="M0,0" style="fill: none;"/><path class="ylines-above crisp" d="M0,0" style="fill: none;"/><g class="overlines-above"/><g class="xaxislayer-above"><g class="xtick"><text text-anchor="middle" x="0" y="451" transform="translate(67,0)" style="font-family: 'Lucida Grande', 'Open Sans', verdana, arial, sans-serif; font-size: 10px; fill: rgb(0, 0, 0); fill-opacity: 1; white-space: pre; opacity: 1;">0%</text></g><g class="xtick"><text text-anchor="middle" x="0" y="451" style="font-family: 'Lucida Grande', 'Open Sans', verdana, arial, sans-serif; font-size: 10px; fill: rgb(0, 0, 0); fill-opacity: 1; white-space: pre; opacity: 1;" transform="translate(268.4,0)">20%</text></g><g class="xtick"><text text-anchor="middle" x="0" y="451" style="font-family: 'Lucida Grande', 'Open Sans', verdana, arial, sans-serif; font-size: 10px; fill: rgb(0, 0, 0); fill-opacity: 1; white-space: pre; opacity: 1;" transform="translate(469.8,0)">40%</text></g><g class="xtick"><text text-anchor="middle" x="0" y="451" style="font-family: 'Lucida Grande', 'Open Sans', verdana, arial, sans-serif; font-size: 10px; fill: rgb(0, 0, 0); fill-opacity: 1; white-space: pre; opacity: 1;" transform="translate(671.2,0)">60%</text></g><g class="xtick"><text text-anchor="middle" x="0" y="451" style="font-family: 'Lucida Grande', 'Open Sans', verdana, arial, sans-serif; font-size: 10px; fill: rgb(0, 0, 0); fill-opacity: 1; white-space: pre; opacity: 1;" transform="translate(872.6,0)">80%</text></g><g class="xtick"><text text-anchor="middle" x="0" y="451" style="font-family: 'Lucida Grande', 'Open Sans', verdana, arial, sans-serif; font-size: 10px; fill: rgb(0, 0, 0); fill-opacity: 1; white-space: pre; opacity: 1;" transform="translate(1074,0)">100%</text></g></g><g class="yaxislayer-above"><g class="ytick"><text text-anchor="end" x="61" y="3.5" transform="translate(0,435)" style="font-family: 'Lucida Grande', 'Open Sans', verdana, arial, sans-serif; font-size: 10px; fill: rgb(0, 0, 0); fill-opacity: 1; white-space: pre; opacity: 1;">0</text></g><g class="ytick"><text text-anchor="end" x="61" y="3.5" style="font-family: 'Lucida Grande', 'Open Sans', verdana, arial, sans-serif; font-size: 10px; fill: rgb(0, 0, 0); fill-opacity: 1; white-space: pre; opacity: 1;" transform="translate(0,390.88)">0.5M</text></g><g class="ytick"><text text-anchor="end" x="61" y="3.5" style="font-family: 'Lucida Grande', 'Open Sans', verdana, arial, sans-serif; font-size: 10px; fill: rgb(0, 0, 0); fill-opacity: 1; white-space: pre; opacity: 1;" transform="translate(0,346.75)">1M</text></g><g class="ytick"><text text-anchor="end" x="61" y="3.5" style="font-family: 'Lucida Grande', 'Open Sans', verdana, arial, sans-serif; font-size: 10px; fill: rgb(0, 0, 0); fill-opacity: 1; white-space: pre; opacity: 1;" transform="translate(0,302.63)">1.5M</text></g><g class="ytick"><text text-anchor="end" x="61" y="3.5" style="font-family: 'Lucida Grande', 'Open Sans', verdana, arial, sans-serif; font-size: 10px; fill: rgb(0, 0, 0); fill-opacity: 1; white-space: pre; opacity: 1;" transform="translate(0,258.5)">2M</text></g><g class="ytick"><text text-anchor="end" x="61" y="3.5" style="font-family: 'Lucida Grande', 'Open Sans', verdana, arial, sans-serif; font-size: 10px; fill: rgb(0, 0, 0); fill-opacity: 1; white-space: pre; opacity: 1;" transform="translate(0,214.38)">2.5M</text></g><g class="ytick"><text text-anchor="end" x="61" y="3.5" style="font-family: 'Lucida Grande', 'Open Sans', verdana, arial, sans-serif; font-size: 10px; fill: rgb(0, 0, 0); fill-opacity: 1; white-space: pre; opacity: 1;" transform="translate(0,170.25)">3M</text></g><g class="ytick"><text text-anchor="end" x="61" y="3.5" style="font-family: 'Lucida Grande', 'Open Sans', verdana, arial, sans-serif; font-size: 10px; fill: rgb(0, 0, 0); fill-opacity: 1; white-space: pre; opacity: 1;" transform="translate(0,126.13)">3.5M</text></g><g class="ytick"><text text-anchor="end" x="61" y="3.5" style="font-family: 'Lucida Grande', 'Open Sans', verdana, arial, sans-serif; font-size: 10px; fill: rgb(0, 0, 0); fill-opacity: 1; white-space: pre; opacity: 1;" transform="translate(0,82)">4M</text></g></g><g class="overaxes-above"/></g></g><g class="polarlayer"/><g class="smithlayer"/><g class="ternarylayer"/><g class="geolayer"/><g class="funnelarealayer"/><g class="pielayer"/><g class="iciclelayer"/><g class="treemaplayer"/><g class="sunburstlayer"/><g class="glimages"/><defs id="topdefs-380356"><g class="clips"/></defs><g class="layer-above"><g class="imagelayer"/><g class="shapelayer"/></g><g class="infolayer"><g class="g-gtitle"><text class="gtitle" x="550" y="25" text-anchor="middle" dy="0em" style="opacity: 1; font-family: 'Lucida Grande', 'Open Sans', verdana, arial, sans-serif; font-size: 20px; fill: rgb(42, 63, 95); fill-opacity: 1; white-space: pre;"><tspan class="line" dy="0em" x="550" y="25">FastQC: Per Sequence GC Content</tspan><tspan class="line" dy="1.3em" x="550" y="25"><tspan style="font-size:70%" dy="-0.6em">Counts, 50 samples</tspan><tspan dy="0.42em"></tspan></tspan></text></g><g class="g-xtitle"><text class="xtitle" x="570.5" y="472.3" text-anchor="middle" style="opacity: 0.3; font-family: 'Lucida Grande', 'Open Sans', verdana, arial, sans-serif; font-size: 14px; fill: rgb(0, 0, 0); fill-opacity: 1; white-space: pre;">% GC</text></g><g class="g-ytitle"><text class="ytitle" transform="rotate(-90,22.06875,242.5)" x="22.06875" y="242.5" text-anchor="middle" style="opacity: 0.3; font-family: 'Lucida Grande', 'Open Sans', verdana, arial, sans-serif; font-size: 14px; fill: rgb(0, 0, 0); fill-opacity: 1; white-space: pre;">Count</text></g></g></svg>