<svg class="main-svg" xmlns="http://www.w3.org/2000/svg" xmlns:xlink="http://www.w3.org/1999/xlink" width="2200" height="1000" style="" viewBox="0 0 1100 500"><rect x="0" y="0" width="1100" height="500" style="fill: rgb(255, 255, 255); fill-opacity: 1;"/><defs id="defs-73c85b"><g class="clips"><clipPath id="clip73c85bxyplot" class="plotclip"><rect width="1009" height="385"/></clipPath><clipPath class="axesclip" id="clip73c85bx"><rect x="65" y="0" width="1009" height="500"/></clipPath><clipPath class="axesclip" id="clip73c85by"><rect x="0" y="50" width="1100" height="385"/></clipPath><clipPath class="axesclip" id="clip73c85bxy"><rect x="65" y="50" width="1009" height="385"/></clipPath></g><g class="gradients"/><g class="patterns"/></defs><g class="bglayer"/><g class="layer-below"><g class="imagelayer"/><g class="shapelayer"/></g><g class="cartesianlayer"><g class="subplot xy"><g class="layer-subplot"><g class="shapelayer"/><g class="imagelayer"/></g><g class="minor-gridlayer"><g class="x"/><g class="y"/></g><g class="gridlayer"><g class="x"><path class="xgrid crisp" transform="translate(266.8,0)" d="M0,50v385" style="stroke: rgb(0, 0, 0); stroke-opacity: 0.05; stroke-width: 1px;"/><path class="xgrid crisp" transform="translate(468.6,0)" d="M0,50v385" style="stroke: rgb(0, 0, 0); stroke-opacity: 0.05; stroke-width: 1px;"/><path class="xgrid crisp" transform="translate(670.4,0)" d="M0,50v385" style="stroke: rgb(0, 0, 0); stroke-opacity: 0.05; stroke-width: 1px;"/><path class="xgrid crisp" transform="translate(872.2,0)" d="M0,50v385" style="stroke: rgb(0, 0, 0); stroke-opacity: 0.05; stroke-width: 1px;"/></g><g class="y"><path class="ygrid crisp" transform="translate(0,383.63)" d="M65,0h1009" style="stroke: rgb(0, 0, 0); stroke-opacity: 0.05; stroke-width: 1px;"/><path class="ygrid crisp" transform="translate(0,332.26)" d="M65,0h1009" style="stroke: rgb(0, 0, 0); stroke-opacity: 0.05; stroke-width: 1px;"/><path class="ygrid crisp" transform="translate(0,280.89)" d="M65,0h1009" style="stroke: rgb(0, 0, 0); stroke-opacity: 0.05; stroke-width: 1px;"/><path class="ygrid crisp" transform="translate(0,229.51)" d="M65,0h1009" style="stroke: rgb(0, 0, 0); stroke-opacity: 0.05; stroke-width: 1px;"/><path class="ygrid crisp" transform="translate(0,178.14)" d="M65,0h1009" style="stroke: rgb(0, 0, 0); stroke-opacity: 0.05; stroke-width: 1px;"/><path class="ygrid crisp" transform="translate(0,126.77)" d="M65,0h1009" style="stroke: rgb(0, 0, 0); stroke-opacity: 0.05; stroke-width: 1px;"/><path class="ygrid crisp" transform="translate(0,75.4)" d="M65,0h1009" style="stroke: rgb(0, 0, 0); stroke-opacity: 0.05; stroke-width: 1px;"/></g></g><g class="zerolinelayer"><path class="xzl zl crisp" transform="translate(65,0)" d="M0,50v385" style="stroke: rgb(0, 0, 0); stroke-opacity: 0.05; stroke-width: 2px;"/><path class="yzl zl crisp" transform="translate(0,435)" d="M65,0h1009" style="stroke: rgb(0, 0, 0); stroke-opacity: 0.05; stroke-width: 2px;"/></g><g class="layer-between"><g class="shapelayer"/><g class="imagelayer"/></g><path class="xlines-below"/><path class="ylines-below"/><g class="overlines-below"/><g class="xaxislayer-below"/><g class="yaxislayer-below"/><g class="overaxes-below"/><g class="overplot"><g class="xy" transform="translate(65,50)" clip-path="url(#clip73c85bxyplot)"><g class="scatterlayer mlayer"><g class="trace scatter trace2a4604" style="stroke-miterlimit: 2; opacity: 1;"><g class="fills"/><g class="errorbars"/><g class="lines"><path class="js-line" d="M0,384.92L191.71,384.73L201.8,384.56L242.16,383.24L252.25,382.69L292.61,379.62L302.7,378.06L322.88,374.57L332.97,372.3L353.15,366.3L363.24,363.05L373.33,358.62L383.42,355.91L393.51,355.63L403.6,354.2L413.69,355.22L423.78,357.23L433.87,356.6L443.96,355.02L464.14,351.1L474.23,350.1L494.41,347.22L504.5,346.6L524.68,344.94L534.77,343.7L554.95,343.21L565.04,341.15L575.13,334.54L585.22,319.3L595.31,245.49L605.4,185.28L615.49,141.25L625.58,144.42L635.67,226.01L645.76,299.51L655.85,352.8L665.94,365.25L686.12,362.22L696.21,358.49L706.3,356.72L716.39,350.85L726.48,334.51L736.57,324.57L746.66,318L756.75,324.39L766.84,347.87L776.93,362.82L797.11,366.3L807.2,368.76L817.29,374.29L827.38,381.52L837.47,383.47L847.56,383.82L867.74,383.75L877.83,382.46L887.92,382.15L898.01,383.35L918.19,384.29L928.28,384.34L958.55,383.35L968.64,384.52L1009,384.98" style="vector-effect: none; fill: none; stroke: rgb(217, 83, 79); stroke-opacity: 1; stroke-width: 2px; opacity: 1;"/></g><g class="points"/><g class="text"/></g><g class="trace scatter trace8f7c43" style="stroke-miterlimit: 2; opacity: 1;"><g class="fills"/><g class="errorbars"/><g class="lines"><path class="js-line" d="M0,384.84L131.17,384.93L141.26,384.92L232.07,384.2L242.16,383.94L282.52,382.11L292.61,381.12L312.79,378.14L322.88,375.97L363.24,366.17L373.33,363.26L383.42,361.8L393.51,359.3L403.6,357.05L413.69,357.27L433.87,357.94L443.96,356.02L454.05,352.81L464.14,350.85L474.23,349.46L484.32,347.18L524.68,344.36L534.77,342.93L554.95,341.16L565.04,333.44L585.22,286.77L595.31,259.16L605.4,215.31L615.49,190.59L625.58,215.26L635.67,205.09L645.76,234.72L655.85,333.05L665.94,367.06L676.03,369.96L696.21,367.6L706.3,365.39L716.39,359.27L726.48,346.81L736.57,328.91L746.66,299.58L756.75,292.36L766.84,327.21L776.93,356.14L787.02,362.36L797.11,362.34L807.2,367.36L817.29,376.76L827.38,381.35L857.65,382.81L867.74,382.64L877.83,382.28L887.92,383.5L898.01,384.25L908.1,384.21L978.73,384.88L988.82,384.82L998.91,384.68L1009,382.28" style="vector-effect: none; fill: none; stroke: rgb(217, 83, 79); stroke-opacity: 1; stroke-width: 2px; opacity: 1;"/></g><g class="points"/><g class="text"/></g><g class="trace scatter tracec5f020" style="stroke-miterlimit: 2; opacity: 1;"><g class="fills"/><g class="errorbars"/><g class="lines"><path class="js-line" d="M0,384.96L242.16,384.53L252.25,384.35L302.7,383.09L312.79,382.61L343.06,380.52L353.15,379.42L383.42,377.14L393.51,377.05L403.6,376.41L413.69,376.63L423.78,377.13L433.87,376.79L464.14,374.82L474.23,374.76L554.95,371.99L565.04,368.14L575.13,354.7L585.22,324.91L595.31,205.01L605.4,109.8L615.49,25.35L625.58,19.25L655.85,345.15L665.94,368.34L676.03,366.34L686.12,362.76L696.21,356.42L706.3,352.8L716.39,346.24L726.48,320.65L736.57,302.57L746.66,301.61L756.75,312.08L766.84,335.18L776.93,355.45L787.02,363.06L807.2,370.68L817.29,376.36L827.38,382.67L837.47,384.16L867.74,384.29L877.83,383.25L887.92,382.88L898.01,383.69L928.28,384.41L938.37,384.23L948.46,383.5L958.55,383.68L968.64,384.62L978.73,384.8L1009,384.97" style="vector-effect: none; fill: none; stroke: rgb(217, 83, 79); stroke-opacity: 1; stroke-width: 2px; opacity: 1;"/></g><g class="points"/><g class="text"/></g><g class="trace scatter trace0ad646" style="stroke-miterlimit: 2; opacity: 1;"><g class="fills"/><g class="errorbars"/><g class="lines"><path class="js-line" d="M0,384.92L211.89,384.83L221.98,384.78L292.61,383.7L302.7,383.17L403.6,376.85L413.69,377.02L443.96,376.64L454.05,375.68L504.5,373.79L514.59,373.65L554.95,370.26L565.04,362.57L585.22,273.45L595.31,233.75L605.4,168.14L615.49,113.12L625.58,125.94L635.67,88.94L645.76,137.34L655.85,311.66L665.94,369.99L676.03,373.34L686.12,371.31L696.21,368.32L706.3,364.42L716.39,356.02L726.48,338.29L736.57,313.09L746.66,278.74L756.75,274.35L766.84,317.2L776.93,354.32L787.02,363.78L797.11,361.32L807.2,365.33L817.29,376.37L827.38,382.34L837.47,383.01L847.56,382.81L857.65,383.45L887.92,384.04L898.01,384.51L938.37,384.84L948.46,384.86L998.91,384.76L1009,383.27" style="vector-effect: none; fill: none; stroke: rgb(217, 83, 79); stroke-opacity: 1; stroke-width: 2px; opacity: 1;"/></g><g class="points"/><g class="text"/></g><g class="trace scatter trace060303" style="stroke-miterlimit: 2; opacity: 1;"><g class="fills"/><g class="errorbars"/><g class="lines"><path class="js-line" d="M0,384.95L232.07,384.57L242.16,384.41L292.61,383.11L302.7,382.52L332.97,380.26L343.06,379.03L373.33,375.23L383.42,374.53L433.87,374.27L443.96,373.45L464.14,371.68L474.23,371.16L494.41,370.2L504.5,370.02L554.95,368.34L565.04,364.9L575.13,351.93L585.22,325L595.31,228.82L605.4,141.25L615.49,49.95L625.58,51.1L635.67,162.15L645.76,256.62L655.85,344.85L665.94,367.51L676.03,365.42L686.12,360.19L696.21,351.54L706.3,346.07L716.39,339L726.48,315.29L736.57,297.26L746.66,294.06L756.75,304.24L766.84,330.38L776.93,351.61L787.02,358.81L797.11,364.06L807.2,368.42L827.38,381.86L837.47,383.66L857.65,384.17L867.74,383.71L877.83,381.28L887.92,380.53L898.01,382.48L908.1,383.41L938.37,383.62L948.46,382.13L958.55,382.49L968.64,384.34L1009,384.95" style="vector-effect: none; fill: none; stroke: rgb(217, 83, 79); stroke-opacity: 1; stroke-width: 2px; opacity: 1;"/></g><g class="points"/><g class="text"/></g><g class="trace scatter trace88a46e" style="stroke-miterlimit: 2; opacity: 1;"><g class="fills"/><g class="errorbars"/><g class="lines"><path class="js-line" d="M0,384.87L161.44,384.95L171.53,384.93L272.43,384.01L282.52,383.81L312.79,382.26L322.88,381.39L363.24,377.35L373.33,376.57L423.78,374.55L433.87,374.5L494.41,369.78L504.5,369.63L524.68,369.02L534.77,368.09L554.95,367.24L565.04,360.12L585.22,281.96L595.31,250.75L615.49,142.82L625.58,147.44L635.67,110.42L645.76,156.9L655.85,316.84L665.94,369.39L676.03,371.51L686.12,368.21L706.3,359.74L716.39,350.88L726.48,332.38L736.57,305.99L746.66,270.01L756.75,265.36L766.84,309.71L776.93,349.27L787.02,360.74L797.11,358.55L807.2,362.01L817.29,374.42L827.38,381.58L837.47,381.72L847.56,381.11L857.65,382.37L867.74,382.66L877.83,382.11L898.01,384.34L908.1,384.07L978.73,384.89L988.82,384.84L998.91,384.74L1009,383.81" style="vector-effect: none; fill: none; stroke: rgb(217, 83, 79); stroke-opacity: 1; stroke-width: 2px; opacity: 1;"/></g><g class="points"/><g class="text"/></g><g class="trace scatter trace6e0a29" style="stroke-miterlimit: 2; opacity: 1;"><g class="fills"/><g class="errorbars"/><g class="lines"><path class="js-line" d="M0,384.96L201.8,384.29L211.89,383.96L242.16,382.89L252.25,382.33L272.43,380.19L282.52,378.66L292.61,375.95L302.7,372.42L312.79,369.61L322.88,365.19L332.97,358.1L343.06,349.33L353.15,340.13L363.24,332.59L373.33,325.28L383.42,324.18L393.51,327.24L403.6,326.97L413.69,330.4L423.78,334.9L433.87,335.83L443.96,335.93L454.05,333.4L464.14,333.23L474.23,334.61L484.32,334.49L494.41,337.12L504.5,338.9L554.95,343.9L565.04,343.84L575.13,339.68L585.22,330.42L595.31,294.91L605.4,268.6L615.49,244.83L625.58,241.36L645.76,326.13L655.85,358.58L665.94,367.33L676.03,366.34L686.12,362.08L696.21,354.2L706.3,348.75L716.39,346.2L726.48,340.38L736.57,331.82L746.66,324.93L756.75,328.03L766.84,339.53L776.93,349.29L787.02,355.36L797.11,362.38L817.29,376.58L827.38,382.26L837.47,383.77L847.56,384.13L867.74,384.12L877.83,382.5L887.92,382.27L898.01,383.73L928.28,384.37L938.37,384.45L958.55,384.15L968.64,384.8L1009,384.98" style="vector-effect: none; fill: none; stroke: rgb(217, 83, 79); stroke-opacity: 1; stroke-width: 2px; opacity: 1;"/></g><g class="points"/><g class="text"/></g><g class="trace scatter trace309bea" style="stroke-miterlimit: 2; opacity: 1;"><g class="fills"/><g class="errorbars"/><g class="lines"><path class="js-line" d="M0,384.94L201.8,384.6L211.89,384.38L252.25,383.04L262.34,381.64L272.43,379.44L282.52,378.77L292.61,377.52L302.7,374.23L312.79,369.98L322.88,364.57L332.97,356.17L343.06,349.18L353.15,343.69L363.24,337.06L373.33,331.44L383.42,330.29L403.6,327.49L413.69,331L423.78,333.67L433.87,335.25L443.96,335.82L454.05,331.93L464.14,331.58L474.23,333.34L484.32,332.6L494.41,335.26L504.5,338.55L514.59,340.82L554.95,343.01L565.04,340.73L585.22,315.99L595.31,305.39L605.4,287.19L615.49,275L625.58,283.21L635.67,268.27L645.76,285.1L655.85,347.09L665.94,367.93L676.03,367.15L686.12,360.82L696.21,352.17L706.3,346.8L716.39,343.97L726.48,340L736.57,334.17L746.66,322.37L756.75,318.41L766.84,335.5L776.93,355.46L787.02,361.51L797.11,360.21L807.2,364.94L817.29,375.14L827.38,380.92L837.47,381.83L847.56,381.79L857.65,382.77L877.83,383.6L887.92,384.04L918.19,384.5L928.28,384.75L998.91,384.77L1009,382.38" style="vector-effect: none; fill: none; stroke: rgb(217, 83, 79); stroke-opacity: 1; stroke-width: 2px; opacity: 1;"/></g><g class="points"/><g class="text"/></g><g class="trace scatter trace927a23" style="stroke-miterlimit: 2; opacity: 1;"><g class="fills"/><g class="errorbars"/><g class="lines"><path class="js-line" d="M0,384.98L211.89,384.55L221.98,384.42L262.34,382.43L272.43,381.57L282.52,380.65L292.61,378.73L302.7,376.22L312.79,374.56L322.88,371.71L332.97,366.86L343.06,359.92L353.15,351.66L373.33,340.3L383.42,339.09L393.51,341.88L403.6,342.99L423.78,352.77L433.87,354.02L454.05,351.31L464.14,351.84L474.23,352.5L484.32,352.22L514.59,355.11L524.68,355.14L534.77,355.06L544.86,355.94L554.95,356.46L565.04,354.71L575.13,345.45L585.22,324.47L595.31,247.56L605.4,179.01L615.49,108.54L625.58,110.4L635.67,201.07L645.76,279.62L655.85,351.74L665.94,371.16L676.03,372.04L686.12,369.89L696.21,366.56L706.3,364.15L716.39,358.9L726.48,350.62L736.57,345.36L746.66,341.27L756.75,344.86L766.84,355.72L776.93,364.23L787.02,366.72L807.2,370.41L817.29,375.54L827.38,382.11L837.47,384.02L857.65,384.45L867.74,384.02L877.83,382.16L887.92,381.4L908.1,383.76L918.19,384.01L938.37,383.61L948.46,382.25L958.55,382.63L968.64,384.34L998.91,384.75L1009,384.98" style="vector-effect: none; fill: none; stroke: rgb(217, 83, 79); stroke-opacity: 1; stroke-width: 2px; opacity: 1;"/></g><g class="points"/><g class="text"/></g><g class="trace scatter trace535a6e" style="stroke-miterlimit: 2; opacity: 1;"><g class="fills"/><g class="errorbars"/><g class="lines"><path class="js-line" d="M0,384.97L221.98,384.52L232.07,384.35L252.25,383.71L262.34,382.53L272.43,380.95L282.52,380.64L292.61,379.85L302.7,377.64L322.88,369.13L332.97,362.39L343.06,357.78L353.15,354.62L363.24,350.07L373.33,347.6L383.42,347.97L393.51,347.21L403.6,345.58L413.69,347.69L423.78,350.77L433.87,353.06L443.96,353.54L454.05,350.93L464.14,350.48L474.23,351.6L484.32,350.38L494.41,351.39L514.59,354.91L524.68,355.03L534.77,354.33L544.86,354.61L554.95,355.05L565.04,350.93L585.22,291.68L595.31,267.71L605.4,224.65L615.49,185.52L625.58,189.42L635.67,155.88L645.76,192.73L655.85,325.1L665.94,370.9L676.03,373.7L686.12,371.93L696.21,369.17L706.3,366.91L716.39,363.49L726.48,357.9L736.57,349.15L746.66,329.45L756.75,321.11L776.93,365.3L787.02,368.55L797.11,366.76L807.2,370.01L817.29,378.13L827.38,382.37L837.47,382.72L847.56,382.3L857.65,383.05L867.74,382.74L877.83,382.13L887.92,383.54L898.01,384.39L908.1,384.14L988.82,384.89L998.91,384.82L1009,384.18" style="vector-effect: none; fill: none; stroke: rgb(217, 83, 79); stroke-opacity: 1; stroke-width: 2px; opacity: 1;"/></g><g class="points"/><g class="text"/></g><g class="trace scatter trace667841" style="stroke-miterlimit: 2; opacity: 1;"><g class="fills"/><g class="errorbars"/><g class="lines"><path class="js-line" d="M0,384.95L191.71,384.55L201.8,384.27L242.16,382.32L252.25,381.5L282.52,377.84L292.61,375.98L322.88,368.13L332.97,364.22L363.24,350.04L373.33,344.99L383.42,342.29L393.51,342.03L403.6,339.83L413.69,339.06L423.78,339.54L433.87,338.15L454.05,333.12L464.14,331.76L484.32,329.77L494.41,330.07L534.77,332.8L544.86,335.81L554.95,338.7L565.04,340.04L575.13,338.43L585.22,331.97L595.31,294.64L605.4,266.37L615.49,244.06L625.58,244.09L635.67,280.08L645.76,319.29L655.85,357.41L665.94,366.43L676.03,364.64L686.12,358.48L696.21,348.79L706.3,341.41L716.39,337.94L726.48,331.16L736.57,323.11L746.66,319.61L756.75,324.71L766.84,338.61L776.93,349.7L787.02,354.44L807.2,368.61L817.29,376.11L827.38,382.34L837.47,384.06L867.74,384.52L877.83,384.08L898.01,384.46L908.1,384.68L1009,384.99" style="vector-effect: none; fill: none; stroke: rgb(217, 83, 79); stroke-opacity: 1; stroke-width: 2px; opacity: 1;"/></g><g class="points"/><g class="text"/></g><g class="trace scatter trace855a1f" style="stroke-miterlimit: 2; opacity: 1;"><g class="fills"/><g class="errorbars"/><g class="lines"><path class="js-line" d="M0,384.89L171.53,384.83L181.62,384.77L232.07,383.86L242.16,383.46L262.34,382.15L272.43,380.91L292.61,378.91L302.7,376.91L322.88,370.91L332.97,366.61L373.33,350.72L383.42,348.46L403.6,342.24L413.69,341.18L433.87,338.65L443.96,336.08L454.05,332.54L464.14,330.65L474.23,329.44L484.32,327.47L494.41,327.52L504.5,328.39L524.68,330.57L534.77,331.11L554.95,335.26L565.04,335.66L585.22,311.76L595.31,300.99L605.4,282.58L615.49,268.83L625.58,277.72L635.67,271.02L645.76,291.01L655.85,348.29L665.94,365.66L676.03,363.7L686.12,357.06L696.21,348.26L706.3,343.72L716.39,341.35L726.48,335.55L736.57,327.38L746.66,311.06L756.75,304.78L766.84,326.97L776.93,352.35L787.02,360.52L797.11,359.88L807.2,364.27L817.29,375.06L827.38,381.53L837.47,382.92L898.01,384.61L908.1,384.64L998.91,384.77L1009,383.87" style="vector-effect: none; fill: none; stroke: rgb(217, 83, 79); stroke-opacity: 1; stroke-width: 2px; opacity: 1;"/></g><g class="points"/><g class="text"/></g><g class="trace scatter trace155cf9" style="stroke-miterlimit: 2; opacity: 1;"><g class="fills"/><g class="errorbars"/><g class="lines"><path class="js-line" d="M0,384.8L141.26,384.94L151.35,384.92L221.98,384.36L232.07,383.97L272.43,381.47L282.52,380.81L292.61,379.3L302.7,376.85L312.79,375.02L322.88,372.26L332.97,367.9L343.06,362.09L353.15,354.19L363.24,348.22L373.33,340.62L383.42,338.46L393.51,341.84L403.6,341.25L413.69,346.18L423.78,353.09L433.87,354.84L443.96,354.07L454.05,352.74L464.14,353.17L474.23,354.11L484.32,353.89L504.5,356.2L514.59,356.6L524.68,356.46L534.77,355.45L554.95,355.99L565.04,352.76L575.13,342.41L585.22,322.78L595.31,238.39L605.4,168.54L615.49,121.64L625.58,132.56L635.67,222.55L645.76,297.7L655.85,355.35L665.94,369.44L676.03,368.41L686.12,366.16L696.21,362.77L706.3,360.43L716.39,354.09L726.48,337.98L736.57,328.5L746.66,325.93L756.75,333.17L766.84,352.53L776.93,365.58L787.02,367.84L807.2,371.56L817.29,376.24L827.38,382.43L837.47,384.06L867.74,384.16L877.83,382.95L887.92,382.31L898.01,383.22L918.19,384.33L928.28,384.32L938.37,383.79L948.46,382.46L958.55,382.78L968.64,384.38L988.82,384.63L998.91,384.74L1009,384.98" style="vector-effect: none; fill: none; stroke: rgb(217, 83, 79); stroke-opacity: 1; stroke-width: 2px; opacity: 1;"/></g><g class="points"/><g class="text"/></g><g class="trace scatter trace48be34" style="stroke-miterlimit: 2; opacity: 1;"><g class="fills"/><g class="errorbars"/><g class="lines"><path class="js-line" d="M0,384.66L80.72,384.95L90.81,384.95L232.07,384.27L242.16,384.06L262.34,383.05L272.43,381.93L292.61,380.48L302.7,378.16L312.79,375.21L322.88,371.15L332.97,365.26L343.06,360.84L363.24,352.26L373.33,347.99L383.42,347.87L393.51,346.56L403.6,344.63L413.69,347.6L433.87,355.17L443.96,355.58L454.05,351.72L464.14,351.49L474.23,352.46L484.32,350.51L494.41,352.11L504.5,354.86L514.59,356.51L524.68,355.91L534.77,354.35L544.86,353.97L554.95,353.76L565.04,343.5L585.22,283.77L595.31,253.73L605.4,210.12L615.49,187.09L625.58,210.82L635.67,191.58L645.76,224.14L655.85,334.86L665.94,371.21L676.03,373.33L696.21,370.08L706.3,367.63L716.39,361.77L726.48,349.74L736.57,333.21L746.66,307.65L756.75,303.04L766.84,336.33L776.93,363.04L787.02,368.33L797.11,367.26L807.2,370.57L817.29,378.57L827.38,382.63L847.56,382.96L857.65,383.41L877.83,382.06L887.92,383.51L898.01,384.39L908.1,384.24L988.82,384.86L998.91,384.76L1009,383.04" style="vector-effect: none; fill: none; stroke: rgb(217, 83, 79); stroke-opacity: 1; stroke-width: 2px; opacity: 1;"/></g><g class="points"/><g class="text"/></g><g class="trace scatter tracef2c740" style="stroke-miterlimit: 2; opacity: 1;"><g class="fills"/><g class="errorbars"/><g class="lines"><path class="js-line" d="M0,384.99L191.71,384.29L201.8,383.93L232.07,381.93L242.16,380.82L262.34,377.54L272.43,375.47L292.61,370.14L302.7,366.62L322.88,358.61L332.97,353.69L363.24,336.78L373.33,332.23L383.42,328.62L393.51,325.88L403.6,322.31L413.69,319.65L423.78,317.31L433.87,313.89L454.05,306.82L464.14,304.77L484.32,302.48L494.41,302.53L524.68,305.71L534.77,309.16L544.86,315.44L554.95,320.53L575.13,329.8L585.22,332.79L605.4,322.72L615.49,317.92L625.58,322.09L635.67,335.15L645.76,347.23L655.85,361.09L665.94,366.62L676.03,366.73L686.12,364.59L696.21,360.02L706.3,357.08L716.39,356.94L726.48,354.63L736.57,350.67L746.66,348.56L756.75,349.78L776.93,361.66L787.02,364.99L817.29,379.42L827.38,383.1L837.47,384.21L847.56,384.44L918.19,384.87L928.28,384.91L1009,385" style="vector-effect: none; fill: none; stroke: rgb(240, 173, 78); stroke-opacity: 1; stroke-width: 2px; opacity: 1;"/></g><g class="points"/><g class="text"/></g><g class="trace scatter trace7b68e4" style="stroke-miterlimit: 2; opacity: 1;"><g class="fills"/><g class="errorbars"/><g class="lines"><path class="js-line" d="M0,384.97L201.8,384.27L211.89,383.98L242.16,382.4L252.25,381.44L282.52,375.85L292.61,373.8L302.7,370.62L312.79,366.21L332.97,356.19L343.06,350.98L363.24,340.69L373.33,336.62L383.42,333.02L393.51,328.54L403.6,323.75L413.69,320.31L433.87,313.8L443.96,310L454.05,306.01L464.14,303.33L484.32,300.72L494.41,300.63L504.5,301.86L514.59,304.07L534.77,309.13L544.86,313.2L565.04,323.07L575.13,324.9L595.31,328.41L605.4,328.2L615.49,328.61L625.58,332.21L635.67,329.18L645.76,336.97L655.85,357.94L665.94,365.81L676.03,365.63L686.12,361.98L696.21,355.94L706.3,353.84L716.39,354.75L726.48,353.4L736.57,350.79L746.66,344.54L756.75,340.11L766.84,349.95L776.93,364.82L787.02,369.87L797.11,369.65L807.2,372.8L817.29,378.65L827.38,382.13L847.56,383.58L857.65,383.95L908.1,384.72L918.19,384.77L998.91,384.81L1009,384.5" style="vector-effect: none; fill: none; stroke: rgb(240, 173, 78); stroke-opacity: 1; stroke-width: 2px; opacity: 1;"/></g><g class="points"/><g class="text"/></g><g class="trace scatter tracec82f82" style="stroke-miterlimit: 2; opacity: 1;"><g class="fills"/><g class="errorbars"/><g class="lines"><path class="js-line" d="M0,384.99L201.8,384.43L211.89,384.17L242.16,382.79L252.25,382.09L282.52,378.82L292.61,377.05L322.88,369.04L332.97,364.62L343.06,359.27L353.15,352.97L373.33,342.97L383.42,341.54L393.51,342.5L403.6,340.76L413.69,341.51L423.78,343.62L433.87,343.22L443.96,341.26L454.05,339.24L464.14,338.85L494.41,338.9L504.5,339.57L534.77,341.61L544.86,344.07L554.95,346.16L565.04,346.82L575.13,343.73L585.22,334.39L595.31,290.86L605.4,255.66L615.49,222.54L625.58,219.69L645.76,310.49L655.85,355.44L665.94,365.92L676.03,363.11L686.12,355.88L696.21,346.32L706.3,340.23L716.39,336.89L726.48,328.82L736.57,318.01L746.66,314.57L756.75,323.41L766.84,336.95L776.93,346.78L787.02,352.19L797.11,359.59L827.38,382.15L837.47,383.93L867.74,384.35L877.83,383.48L887.92,383.25L898.01,384.09L928.28,384.62L938.37,384.52L958.55,384.21L968.64,384.81L1009,384.98" style="vector-effect: none; fill: none; stroke: rgb(217, 83, 79); stroke-opacity: 1; stroke-width: 2px; opacity: 1;"/></g><g class="points"/><g class="text"/></g><g class="trace scatter trace983f3d" style="stroke-miterlimit: 2; opacity: 1;"><g class="fills"/><g class="errorbars"/><g class="lines"><path class="js-line" d="M0,384.98L221.98,384.25L232.07,384.01L252.25,383.12L262.34,382L272.43,380.53L282.52,379.93L292.61,378.95L302.7,376.83L322.88,369.69L332.97,364.62L363.24,352.12L373.33,348.89L383.42,347.72L393.51,345.67L403.6,342.91L413.69,342.61L433.87,343.11L443.96,341.97L454.05,338.65L464.14,337.47L474.23,337.38L484.32,335.98L504.5,338.1L514.59,339.52L544.86,341.99L554.95,343.91L565.04,343.03L575.13,327.35L585.22,311.55L595.31,298.58L605.4,276.72L615.49,258.5L625.58,264.81L635.67,249.03L645.76,271.63L655.85,344.43L665.94,366.4L676.03,364.3L686.12,357.11L696.21,346.59L706.3,339.39L716.39,336.98L726.48,333.05L736.57,325.93L746.66,308.25L756.75,300.8L776.93,351.71L787.02,359.1L797.11,358.14L807.2,362.16L817.29,373.6L827.38,380.92L837.47,382.33L847.56,382.62L867.74,383.71L877.83,383.66L908.1,384.47L918.19,384.58L968.64,384.89L978.73,384.9L1009,384.27" style="vector-effect: none; fill: none; stroke: rgb(217, 83, 79); stroke-opacity: 1; stroke-width: 2px; opacity: 1;"/></g><g class="points"/><g class="text"/></g><g class="trace scatter trace18e10e" style="stroke-miterlimit: 2; opacity: 1;"><g class="fills"/><g class="errorbars"/><g class="lines"><path class="js-line" d="M0,384.8L141.26,384.93L151.35,384.92L221.98,384.19L232.07,383.69L282.52,380.59L292.61,379.24L322.88,372.37L332.97,368.4L343.06,363.93L353.15,358.47L363.24,353.41L373.33,346.24L383.42,343.06L393.51,344.59L403.6,342.22L413.69,344.28L423.78,349.06L433.87,349.52L454.05,345.82L464.14,345.19L474.23,345.3L484.32,344.04L514.59,343.38L524.68,341.38L534.77,339.95L544.86,340.36L554.95,340.28L565.04,338.16L575.13,330.49L585.22,313.13L595.31,244L605.4,191.54L615.49,142.96L625.58,147.79L635.67,218.38L645.76,282.31L655.85,349.16L665.94,366.64L676.03,368.48L686.12,368.09L696.21,366.25L706.3,365.5L716.39,363.27L726.48,354.47L736.57,347.93L746.66,346.3L756.75,352.09L766.84,364.45L776.93,371.28L787.02,372.66L817.29,379.01L827.38,382.55L837.47,383.6L847.56,383.88L857.65,384.11L867.74,383.54L877.83,381.58L887.92,381.17L908.1,383.81L918.19,384.03L938.37,383.72L948.46,382.57L958.55,382.96L968.64,384.45L1009,384.97" style="vector-effect: none; fill: none; stroke: rgb(217, 83, 79); stroke-opacity: 1; stroke-width: 2px; opacity: 1;"/></g><g class="points"/><g class="text"/></g><g class="trace scatter tracec990bf" style="stroke-miterlimit: 2; opacity: 1;"><g class="fills"/><g class="errorbars"/><g class="lines"><path class="js-line" d="M0,384.64L70.63,384.96L80.72,384.96L232.07,384.15L242.16,383.88L272.43,382.36L282.52,381.8L292.61,380.66L302.7,378.76L312.79,376.89L322.88,373.47L332.97,369.08L343.06,366.01L353.15,362.25L363.24,357.52L373.33,352.54L383.42,351.25L403.6,345.2L413.69,346.94L433.87,351.14L443.96,349.7L454.05,345.61L464.14,344.46L474.23,344.09L484.32,341.52L494.41,341.84L504.5,343.09L514.59,343.51L524.68,342.06L534.77,339.67L544.86,338.64L554.95,338.37L565.04,335.45L585.22,284L595.31,261.28L615.49,180.56L625.58,189.59L635.67,197.34L645.76,236.34L655.85,332.06L665.94,366.52L676.03,369.32L686.12,369.13L706.3,365.72L716.39,364.74L726.48,359.02L736.57,350.62L746.66,338.17L756.75,336.6L766.84,354.58L776.93,368.31L787.02,371.5L797.11,372.2L807.2,375.05L817.29,379.27L827.38,381.45L837.47,382.04L847.56,381.84L857.65,382.6L877.83,381.87L887.92,383.3L898.01,384.18L908.1,384.09L968.64,384.88L978.73,384.89L998.91,384.72L1009,381.79" style="vector-effect: none; fill: none; stroke: rgb(217, 83, 79); stroke-opacity: 1; stroke-width: 2px; opacity: 1;"/></g><g class="points"/><g class="text"/></g><g class="trace scatter tracef2cc46" style="stroke-miterlimit: 2; opacity: 1;"><g class="fills"/><g class="errorbars"/><g class="lines"><path class="js-line" d="M0,384.94L221.98,384.48L232.07,384.11L282.52,381.61L292.61,380.26L322.88,374.19L332.97,370.48L343.06,365.49L353.15,359.37L373.33,348.3L383.42,346.35L393.51,348.22L403.6,347.17L413.69,350.22L423.78,355.47L433.87,356.48L443.96,354.88L454.05,352.76L464.14,352.55L494.41,352.63L504.5,352.99L524.68,351.99L534.77,350.97L554.95,351.67L565.04,349.29L575.13,340.81L585.22,322.76L605.4,169.51L615.49,100.76L625.58,107.75L635.67,208.19L645.76,290.39L655.85,352.47L665.94,369.12L676.03,369.9L686.12,368.92L696.21,366.54L706.3,365.54L716.39,360.9L726.48,346.89L736.57,337.32L746.66,332.2L756.75,337.87L766.84,357.3L776.93,368.79L787.02,368.56L797.11,369.35L807.2,370.25L817.29,374.61L827.38,381.62L837.47,383.56L857.65,384.03L867.74,383.26L877.83,380.6L887.92,379.55L908.1,383.25L918.19,383.59L928.28,383.59L938.37,382.64L948.46,380.44L958.55,381.14L968.64,383.89L978.73,384.58L998.91,384.57L1009,384.97" style="vector-effect: none; fill: none; stroke: rgb(217, 83, 79); stroke-opacity: 1; stroke-width: 2px; opacity: 1;"/></g><g class="points"/><g class="text"/></g><g class="trace scatter trace4351ea" style="stroke-miterlimit: 2; opacity: 1;"><g class="fills"/><g class="errorbars"/><g class="lines"><path class="js-line" d="M0,384.86L161.44,384.93L171.53,384.92L252.25,384.01L262.34,383.55L292.61,381.32L302.7,379.59L312.79,377.44L322.88,374.01L332.97,369.53L343.06,366.02L373.33,354.53L383.42,354.08L403.6,349.55L413.69,351.27L433.87,356.53L443.96,356.35L454.05,352.62L464.14,351.44L474.23,351.26L484.32,349.05L494.41,349.92L504.5,351.68L514.59,352.49L524.68,351.6L534.77,349.82L544.86,349.3L554.95,349.37L565.04,340.84L585.22,285.76L595.31,255.44L605.4,208.17L615.49,179.02L625.58,197.46L635.67,170.58L645.76,203.7L655.85,326.45L665.94,369.78L676.03,373.82L696.21,373.09L706.3,372.07L716.39,367.31L726.48,355.83L736.57,340.19L746.66,316.06L756.75,310.47L766.84,340.26L776.93,364.4L787.02,368.55L797.11,367.23L807.2,370.73L817.29,378.23L827.38,381.82L837.47,382.19L847.56,381.75L857.65,382.51L867.74,381.08L877.83,379.71L887.92,382.35L898.01,383.98L908.1,383.67L958.55,384.88L968.64,384.91L998.91,384.78L1009,383.49" style="vector-effect: none; fill: none; stroke: rgb(217, 83, 79); stroke-opacity: 1; stroke-width: 2px; opacity: 1;"/></g><g class="points"/><g class="text"/></g><g class="trace scatter trace8817ca" style="stroke-miterlimit: 2; opacity: 1;"><g class="fills"/><g class="errorbars"/><g class="lines"><path class="js-line" d="M0,384.97L221.98,384.25L232.07,383.63L262.34,381.76L272.43,380.47L282.52,379.58L292.61,377.12L322.88,365.26L332.97,359.3L343.06,350.17L353.15,337.99L363.24,329.36L373.33,318.74L383.42,314.61L393.51,319.61L403.6,320.03L413.69,328.66L423.78,340.67L433.87,343.13L454.05,339.74L464.14,341.53L474.23,343.24L484.32,342.78L494.41,345.69L504.5,347.34L524.68,349.12L534.77,347.89L554.95,348.81L565.04,348.02L575.13,342.69L585.22,329.96L615.49,170.75L625.58,177.23L635.67,242.95L645.76,299.95L655.85,354.05L665.94,369.35L676.03,370.95L686.12,370.32L696.21,367.86L706.3,366.93L716.39,364.67L726.48,355.12L736.57,347.44L746.66,344.32L756.75,348.3L766.84,361.76L776.93,370.63L787.02,371.24L807.2,374.34L817.29,378.18L827.38,382.81L837.47,383.79L857.65,384.11L867.74,383.34L877.83,380.48L887.92,379.81L898.01,382.06L908.1,383.02L938.37,383.25L948.46,381.9L958.55,382.35L968.64,384.22L998.91,384.67L1009,384.95" style="vector-effect: none; fill: none; stroke: rgb(217, 83, 79); stroke-opacity: 1; stroke-width: 2px; opacity: 1;"/></g><g class="points"/><g class="text"/></g><g class="trace scatter trace412651" style="stroke-miterlimit: 2; opacity: 1;"><g class="fills"/><g class="errorbars"/><g class="lines"><path class="js-line" d="M0,384.92L191.71,384.85L201.8,384.73L252.25,383.57L262.34,382.63L272.43,380.88L282.52,380.12L292.61,378.47L302.7,375.18L312.79,371.14L322.88,365.25L343.06,349.1L353.15,341.42L373.33,327.91L383.42,327.05L403.6,321.89L413.69,329.04L423.78,336.69L433.87,341.76L443.96,343.24L454.05,338.58L464.14,339L474.23,340.89L484.32,337.94L494.41,341.37L504.5,346.2L514.59,348.96L524.68,348.87L534.77,347.16L544.86,346.74L554.95,347.41L565.04,344.76L575.13,325.38L585.22,305.46L595.31,287.71L615.49,229.37L625.58,231.36L635.67,208.05L645.76,236.34L655.85,334.57L665.94,369.08L676.03,372.16L686.12,372.35L706.3,370.92L716.39,368.76L726.48,362.47L736.57,352.25L746.66,335.56L756.75,330.48L776.93,365.98L787.02,370.08L797.11,369.57L807.2,372.31L817.29,378.84L827.38,382.25L847.56,381.22L857.65,382.2L877.83,381.51L887.92,383.17L898.01,384.2L908.1,383.98L968.64,384.88L978.73,384.9L998.91,384.77L1009,383.38" style="vector-effect: none; fill: none; stroke: rgb(217, 83, 79); stroke-opacity: 1; stroke-width: 2px; opacity: 1;"/></g><g class="points"/><g class="text"/></g><g class="trace scatter tracee64171" style="stroke-miterlimit: 2; opacity: 1;"><g class="fills"/><g class="errorbars"/><g class="lines"><path class="js-line" d="M0,384.89L181.62,384.72L191.71,384.61L232.07,383.38L242.16,382.8L262.34,381.1L272.43,379.96L282.52,378.84L292.61,376.94L322.88,368.48L332.97,364.16L343.06,358.31L353.15,351.36L373.33,342.56L383.42,341.21L393.51,341.94L403.6,340.04L413.69,340.71L423.78,343.12L433.87,343.06L443.96,340.65L454.05,338.13L464.14,337.67L494.41,337.89L504.5,338.64L514.59,339.17L524.68,338.23L534.77,338.63L544.86,341.49L554.95,343.53L565.04,343.72L575.13,338.36L585.22,326L605.4,238.48L615.49,186.03L625.58,186.23L635.67,242.26L655.85,353.36L665.94,367.65L676.03,367.38L686.12,364.29L706.3,354.62L716.39,350.28L736.57,335.02L746.66,333.74L756.75,340.06L766.84,350.05L776.93,359.77L787.02,364.84L817.29,377.84L827.38,382.68L837.47,384.02L847.56,384.3L867.74,384.28L877.83,383.29L887.92,383.01L898.01,383.85L928.28,384.55L938.37,384.39L958.55,383.97L968.64,384.71L1009,384.99" style="vector-effect: none; fill: none; stroke: rgb(217, 83, 79); stroke-opacity: 1; stroke-width: 2px; opacity: 1;"/></g><g class="points"/><g class="text"/></g><g class="trace scatter tracefb998b" style="stroke-miterlimit: 2; opacity: 1;"><g class="fills"/><g class="errorbars"/><g class="lines"><path class="js-line" d="M0,384.79L121.08,384.93L131.17,384.92L221.98,384.22L232.07,383.96L252.25,383.07L262.34,381.81L272.43,380.08L282.52,379.48L292.61,378.57L302.7,376.33L322.88,368.68L332.97,363.54L363.24,350.68L373.33,348.07L383.42,347.42L393.51,345.11L403.6,342L413.69,341.81L433.87,342.53L443.96,341.32L454.05,337.76L464.14,336.47L474.23,336.66L484.32,335.62L504.5,337.44L514.59,338.72L534.77,338.49L544.86,339.64L554.95,341.51L565.04,341.22L585.22,301.82L595.31,287.63L605.4,262.71L615.49,234.42L625.58,234.49L635.67,218.47L645.76,249.59L655.85,338.96L665.94,367.65L676.03,368.5L686.12,365.17L696.21,359.59L706.3,355.43L716.39,353.82L726.48,349.94L736.57,341.31L746.66,324.46L756.75,319.39L776.93,362.39L787.02,367.94L797.11,366.92L807.2,369.82L817.29,377.35L827.38,381.88L837.47,382.83L847.56,382.89L867.74,383.62L877.83,383.45L898.01,384.5L908.1,384.45L988.82,384.85L998.91,384.76L1009,384.1" style="vector-effect: none; fill: none; stroke: rgb(217, 83, 79); stroke-opacity: 1; stroke-width: 2px; opacity: 1;"/></g><g class="points"/><g class="text"/></g><g class="trace scatter trace690bf8" style="stroke-miterlimit: 2; opacity: 1;"><g class="fills"/><g class="errorbars"/><g class="lines"><path class="js-line" d="M0,384.98L221.98,384.3L232.07,383.9L262.34,381.87L272.43,380.85L282.52,380.12L292.61,378.33L322.88,368.73L332.97,363.76L343.06,357.47L353.15,348.91L373.33,337.08L383.42,336.01L393.51,338.81L403.6,338.43L413.69,343.15L423.78,349.7L433.87,351.55L443.96,350.67L454.05,349.82L464.14,351.27L474.23,352.82L484.32,352.94L504.5,355.71L514.59,356.21L534.77,355.54L544.86,356.74L554.95,356.96L565.04,353.51L575.13,340.43L585.22,316.75L595.31,233.87L605.4,166.66L615.49,94.38L625.58,85.14L655.85,353.57L665.94,372.44L676.03,374.77L686.12,374.57L696.21,372.55L706.3,371.81L716.39,369.98L726.48,362.27L736.57,356.05L746.66,354.66L756.75,360.81L766.84,371.77L776.93,377.23L787.02,378.02L817.29,381.46L827.38,383.65L847.56,384.45L857.65,384.54L877.83,383.33L887.92,382.81L918.19,384.4L928.28,384.37L958.55,383.19L968.64,384.49L998.91,384.79L1009,384.98" style="vector-effect: none; fill: none; stroke: rgb(217, 83, 79); stroke-opacity: 1; stroke-width: 2px; opacity: 1;"/></g><g class="points"/><g class="text"/></g><g class="trace scatter trace413c6f" style="stroke-miterlimit: 2; opacity: 1;"><g class="fills"/><g class="errorbars"/><g class="lines"><path class="js-line" d="M0,384.95L201.8,384.74L211.89,384.49L252.25,383.45L262.34,382.34L272.43,380.49L282.52,380.12L292.61,379.43L302.7,376.76L322.88,367.26L332.97,360.37L353.15,352.55L363.24,347.17L373.33,344.57L383.42,345.18L403.6,340.87L413.69,344.67L423.78,348.35L433.87,350.98L443.96,351.38L454.05,349.3L474.23,351.28L484.32,350.39L514.59,356.07L524.68,356.1L544.86,355.26L554.95,355.19L565.04,349.31L575.13,315.5L595.31,244.35L605.4,194.71L615.49,151.06L625.58,165.9L635.67,155.76L645.76,198.4L655.85,327.13L665.94,371.79L676.03,376.27L686.12,376.87L706.3,374.94L716.39,373.69L726.48,368.37L736.57,360.32L746.66,346.93L756.75,345.29L766.84,361.6L776.93,374.08L787.02,377.77L797.11,377.74L807.2,379.03L817.29,381.88L827.38,383.33L837.47,383.6L877.83,382.48L887.92,383.73L898.01,384.45L908.1,384.36L988.82,384.89L998.91,384.83L1009,383.61" style="vector-effect: none; fill: none; stroke: rgb(217, 83, 79); stroke-opacity: 1; stroke-width: 2px; opacity: 1;"/></g><g class="points"/><g class="text"/></g><g class="trace scatter tracec0c5a9" style="stroke-miterlimit: 2; opacity: 1;"><g class="fills"/><g class="errorbars"/><g class="lines"><path class="js-line" d="M0,384.95L201.8,384.46L211.89,384.22L242.16,382.94L252.25,382.29L282.52,379.44L292.61,378.12L322.88,372.42L332.97,369.89L373.33,358.74L383.42,356.78L393.51,355.37L403.6,353.04L433.87,348.64L443.96,346.07L464.14,341.94L474.23,340.55L484.32,339.04L494.41,338.47L524.68,338.61L534.77,339.2L554.95,343.12L565.04,343.24L575.13,339.74L585.22,330.76L595.31,283.82L605.4,250.03L615.49,226.16L625.58,226.07L635.67,274.65L645.76,319.52L655.85,355.02L665.94,363.96L676.03,360.38L686.12,352.17L696.21,341.76L706.3,335.07L716.39,330.26L726.48,319.09L736.57,305.78L746.66,297.45L756.75,303.73L766.84,321.24L776.93,336.13L787.02,344.45L807.2,363.18L817.29,372.81L827.38,381.41L837.47,383.69L857.65,384.37L867.74,384.22L877.83,383.23L887.92,383L908.1,384.34L918.19,384.45L938.37,384.44L948.46,383.9L1009,384.98" style="vector-effect: none; fill: none; stroke: rgb(217, 83, 79); stroke-opacity: 1; stroke-width: 2px; opacity: 1;"/></g><g class="points"/><g class="text"/></g><g class="trace scatter trace0bad9e" style="stroke-miterlimit: 2; opacity: 1;"><g class="fills"/><g class="errorbars"/><g class="lines"><path class="js-line" d="M0,384.9L191.71,384.73L201.8,384.63L252.25,383.37L262.34,382.72L302.7,378.75L312.79,376.92L332.97,372.1L343.06,369.69L393.51,357.65L403.6,354.89L433.87,349.54L443.96,346.92L454.05,343.82L464.14,341.51L484.32,337.94L494.41,337.09L514.59,337.23L524.68,337.31L534.77,337.33L544.86,338.59L554.95,340.41L565.04,336.62L575.13,322.07L585.22,308.89L595.31,292.63L605.4,268.02L615.49,257.82L625.58,274.23L635.67,264.34L645.76,282.63L655.85,344.22L665.94,363.91L676.03,361.07L686.12,352.6L696.21,342.3L706.3,335.54L716.39,330.87L726.48,322.82L736.57,311.78L746.66,290.76L756.75,281.19L766.84,310.2L776.93,342.86L787.02,351.22L797.11,349.8L807.2,356.1L817.29,371.33L827.38,380.27L837.47,381.91L847.56,382.13L867.74,383.46L877.83,383.39L908.1,384.35L918.19,384.47L958.55,384.84L968.64,384.86L998.91,384.73L1009,383.95" style="vector-effect: none; fill: none; stroke: rgb(217, 83, 79); stroke-opacity: 1; stroke-width: 2px; opacity: 1;"/></g><g class="points"/><g class="text"/></g><g class="trace scatter trace4ace71" style="stroke-miterlimit: 2; opacity: 1;"><g class="fills"/><g class="errorbars"/><g class="lines"><path class="js-line" d="M0,384.77L151.35,384.92L161.44,384.91L232.07,384.28L242.16,383.87L292.61,381.69L302.7,380.46L322.88,377.88L332.97,377.24L353.15,375.11L363.24,373.68L383.42,371.3L393.51,369.54L403.6,368.15L413.69,368.51L423.78,369.54L433.87,369.05L464.14,364.81L474.23,364.09L504.5,361.54L514.59,361.01L554.95,357.13L565.04,353.21L575.13,339.72L585.22,313.04L595.31,226.95L605.4,155.25L615.49,71.92L625.58,59.81L645.76,261.21L655.85,346.69L665.94,366.59L676.03,365.28L686.12,363.06L696.21,357.85L706.3,354.8L716.39,346.82L726.48,331.33L736.57,321.09L746.66,309.96L756.75,317.5L766.84,346.88L776.93,364.68L807.2,370.31L817.29,375.39L827.38,381.74L837.47,383.6L867.74,384L877.83,383.1L887.92,382.84L898.01,383.6L928.28,384.29L938.37,384.07L948.46,383.36L958.55,383.55L978.73,384.79L988.82,384.7L1009,384.97" style="vector-effect: none; fill: none; stroke: rgb(217, 83, 79); stroke-opacity: 1; stroke-width: 2px; opacity: 1;"/></g><g class="points"/><g class="text"/></g><g class="trace scatter trace921cfc" style="stroke-miterlimit: 2; opacity: 1;"><g class="fills"/><g class="errorbars"/><g class="lines"><path class="js-line" d="M0,384.59L70.63,384.96L80.72,384.96L232.07,384.36L242.16,384.15L282.52,382.79L292.61,382.13L332.97,377.45L343.06,376.93L363.24,374.78L373.33,373.73L383.42,372.97L393.51,370.15L403.6,368.41L413.69,369.41L423.78,369.79L433.87,369.26L464.14,365.44L474.23,364.46L504.5,361.32L514.59,360.92L534.77,358.65L544.86,357.26L554.95,355.69L565.04,349.33L585.22,277.11L595.31,247.26L615.49,140.81L625.58,151.7L635.67,128.19L645.76,170.96L655.85,318.23L665.94,369.85L676.03,373.64L686.12,372.08L696.21,370.24L706.3,367.62L716.39,359.42L726.48,344.87L736.57,324.45L746.66,292.97L756.75,289.61L766.84,327.39L776.93,356.76L787.02,364.26L797.11,362.15L807.2,365.63L817.29,376.37L827.38,381.98L847.56,382.63L857.65,383.15L877.83,382.86L887.92,383.8L908.1,384.36L918.19,384.5L958.55,384.88L968.64,384.89L998.91,384.75L1009,380.47" style="vector-effect: none; fill: none; stroke: rgb(217, 83, 79); stroke-opacity: 1; stroke-width: 2px; opacity: 1;"/></g><g class="points"/><g class="text"/></g><g class="trace scatter trace6bbc0a" style="stroke-miterlimit: 2; opacity: 1;"><g class="fills"/><g class="errorbars"/><g class="lines"><path class="js-line" d="M0,384.97L211.89,384.55L221.98,384.43L272.43,382.43L282.52,381.85L312.79,377.95L322.88,375.99L332.97,372.78L343.06,368.59L353.15,363.83L363.24,360.21L373.33,356.24L383.42,354.92L393.51,356.11L403.6,355.45L413.69,356.7L423.78,358.79L433.87,358.76L443.96,357.51L454.05,355.66L464.14,354.79L494.41,353.76L504.5,354.16L534.77,353.6L544.86,354.42L554.95,355.31L565.04,353.95L575.13,345.74L585.22,327.37L595.31,262.5L605.4,210.11L615.49,155.01L625.58,150.16L645.76,291.41L655.85,350.78L665.94,365.27L676.03,361.81L686.12,355.64L696.21,347.38L706.3,343.33L716.39,335.56L726.48,316.79L736.57,303.22L746.66,299.73L756.75,309.02L776.93,346.48L787.02,355.93L797.11,362.3L807.2,367.5L827.38,381.67L837.47,383.38L867.74,383.8L877.83,382.23L887.92,381.84L898.01,383.21L918.19,384.12L928.28,384.23L938.37,383.92L948.46,382.85L958.55,383.17L968.64,384.52L1009,384.98" style="vector-effect: none; fill: none; stroke: rgb(217, 83, 79); stroke-opacity: 1; stroke-width: 2px; opacity: 1;"/></g><g class="points"/><g class="text"/></g><g class="trace scatter trace6b9b16" style="stroke-miterlimit: 2; opacity: 1;"><g class="fills"/><g class="errorbars"/><g class="lines"><path class="js-line" d="M0,384.94L211.89,384.67L221.98,384.58L262.34,383.39L272.43,382.47L292.61,381.68L302.7,380.4L322.88,375.7L332.97,371.97L373.33,360.83L383.42,360.18L403.6,357.6L413.69,357.6L433.87,358.84L443.96,358.23L454.05,355.27L464.14,353.82L474.23,353.65L484.32,352.09L494.41,352.25L504.5,353.2L514.59,353.87L524.68,353.54L534.77,352.67L544.86,352.87L554.95,353.58L565.04,349.73L585.22,299.62L595.31,279.63L605.4,243.71L615.49,211.43L625.58,217.71L635.67,193.29L645.76,223.29L655.85,331.11L665.94,367.2L676.03,365.7L696.21,352.34L706.3,345.17L716.39,339.03L726.48,329.95L736.57,313.09L746.66,284.65L756.75,277.36L766.84,314.74L776.93,350.63L787.02,359.41L797.11,357.98L807.2,362.32L817.29,373.92L827.38,380.91L837.47,381.89L847.56,381.78L857.65,382.74L867.74,382.77L877.83,382.43L887.92,383.62L898.01,384.35L908.1,384.23L988.82,384.84L998.91,384.76L1009,383.92" style="vector-effect: none; fill: none; stroke: rgb(217, 83, 79); stroke-opacity: 1; stroke-width: 2px; opacity: 1;"/></g><g class="points"/><g class="text"/></g><g class="trace scatter trace87ca16" style="stroke-miterlimit: 2; opacity: 1;"><g class="fills"/><g class="errorbars"/><g class="lines"><path class="js-line" d="M0,384.98L201.8,384.52L211.89,384.29L242.16,383.07L252.25,382.44L282.52,379.53L292.61,377.79L322.88,369.63L332.97,365.36L373.33,343.23L383.42,341.43L393.51,341.68L403.6,340.2L413.69,341.87L423.78,345.05L433.87,344.72L443.96,342.24L454.05,339.44L464.14,338.78L474.23,338.76L484.32,337.66L524.68,338.89L534.77,338.97L554.95,341.85L565.04,342.34L575.13,338.46L585.22,327.95L595.31,288.69L605.4,253.93L615.49,213.79L625.58,205.47L635.67,248.1L645.76,301.89L655.85,353.9L665.94,366.44L676.03,365.44L686.12,361.9L696.21,355.69L706.3,350.89L716.39,346.74L726.48,339.06L736.57,328.53L746.66,320.48L756.75,326.43L766.84,340.52L776.93,352.08L787.02,358.09L807.2,367.9L817.29,374.86L827.38,381.89L837.47,383.74L857.65,384.26L867.74,383.75L877.83,381.05L887.92,380.48L898.01,382.78L908.1,383.65L938.37,383.97L948.46,382.97L958.55,383.24L968.64,384.58L1009,384.97" style="vector-effect: none; fill: none; stroke: rgb(217, 83, 79); stroke-opacity: 1; stroke-width: 2px; opacity: 1;"/></g><g class="points"/><g class="text"/></g><g class="trace scatter tracec270ae" style="stroke-miterlimit: 2; opacity: 1;"><g class="fills"/><g class="errorbars"/><g class="lines"><path class="js-line" d="M0,384.96L211.89,384.47L221.98,384.33L252.25,383.39L262.34,382.52L292.61,379.52L302.7,377.25L312.79,374.21L322.88,370.26L332.97,365.3L343.06,361.24L363.24,352.39L373.33,349.13L383.42,348.07L393.51,345.28L403.6,342.25L413.69,343.01L423.78,343.9L433.87,343.87L443.96,342.37L454.05,339.01L464.14,337.83L474.23,337.78L484.32,336.1L494.41,336.35L514.59,338.39L524.68,338.39L534.77,337.81L544.86,338.4L554.95,339.9L565.04,340.03L585.22,306.54L595.31,295.07L615.49,248.43L625.58,250.94L635.67,234.28L645.76,260.25L655.85,340.83L665.94,366.54L676.03,367.03L686.12,362.95L696.21,357.46L706.3,353.45L716.39,350.16L726.48,344.22L736.57,334.09L746.66,312.64L756.75,303.9L766.84,330.32L776.93,355.89L787.02,360.37L797.11,358.18L807.2,362.56L817.29,374.1L827.38,380.89L837.47,381.38L847.56,380.75L867.74,382.98L877.83,382.73L898.01,384.31L908.1,384.14L978.73,384.91L988.82,384.87L1009,384.05" style="vector-effect: none; fill: none; stroke: rgb(217, 83, 79); stroke-opacity: 1; stroke-width: 2px; opacity: 1;"/></g><g class="points"/><g class="text"/></g><g class="trace scatter trace0e7443" style="stroke-miterlimit: 2; opacity: 1;"><g class="fills"/><g class="errorbars"/><g class="lines"><path class="js-line" d="M0,384.99L221.98,384.24L232.07,383.79L262.34,381.57L272.43,380.47L282.52,379.51L292.61,377L302.7,373.45L312.79,370.95L322.88,366.58L332.97,359.98L343.06,351.62L353.15,340.72L363.24,331.27L373.33,320.48L383.42,318.43L393.51,322.9L403.6,322.86L413.69,329.43L423.78,337.91L433.87,339.84L454.05,336.39L464.14,337.42L474.23,338.86L484.32,338.61L504.5,342.85L514.59,343.78L524.68,344.23L534.77,343.74L554.95,345.7L565.04,345.04L575.13,339.23L585.22,327.02L595.31,280.66L605.4,244.1L615.49,209.87L625.58,207.57L655.85,357.36L665.94,368.83L676.03,368.68L686.12,366.86L696.21,363.51L706.3,361.61L716.39,358.01L726.48,347.19L736.57,337.97L746.66,333.86L756.75,339.69L766.84,352.63L776.93,361.8L787.02,365.23L807.2,371.94L817.29,376.93L827.38,382.52L837.47,384.03L867.74,384.06L877.83,382.37L887.92,381.82L898.01,383.21L918.19,384.12L928.28,384.2L958.55,383.15L968.64,384.49L1009,384.96" style="vector-effect: none; fill: none; stroke: rgb(217, 83, 79); stroke-opacity: 1; stroke-width: 2px; opacity: 1;"/></g><g class="points"/><g class="text"/></g><g class="trace scatter trace3fcc17" style="stroke-miterlimit: 2; opacity: 1;"><g class="fills"/><g class="errorbars"/><g class="lines"><path class="js-line" d="M0,384.97L211.89,384.51L221.98,384.38L252.25,383.41L262.34,382.29L272.43,380.56L282.52,380.1L292.61,378.84L302.7,375.74L312.79,371.03L322.88,364.71L332.97,356.05L343.06,349.45L353.15,343.47L363.24,336.12L373.33,330.59L383.42,330.37L393.51,328.92L403.6,326.71L433.87,339.17L443.96,340.06L454.05,335.64L464.14,335.59L474.23,337.43L484.32,335.34L494.41,337.67L504.5,341.38L514.59,343.62L524.68,343.65L534.77,342.68L544.86,342.83L554.95,343.86L565.04,341.67L585.22,304.3L595.31,289.88L605.4,266.3L615.49,246.11L625.58,254.4L635.67,240.25L645.76,265.24L655.85,343.69L665.94,368.87L676.03,370.35L686.12,368.81L696.21,366.03L716.39,360.04L726.48,353.7L736.57,343.73L746.66,325.35L756.75,318.77L766.84,341.54L776.93,362.49L787.02,366.42L797.11,365.54L807.2,369.2L817.29,377.47L827.38,382.01L837.47,382.51L847.56,382.24L857.65,383.06L867.74,383.02L877.83,382.62L887.92,383.74L898.01,384.4L908.1,384.23L978.73,384.92L988.82,384.88L1009,384.04" style="vector-effect: none; fill: none; stroke: rgb(217, 83, 79); stroke-opacity: 1; stroke-width: 2px; opacity: 1;"/></g><g class="points"/><g class="text"/></g><g class="trace scatter traceb4bf0a" style="stroke-miterlimit: 2; opacity: 1;"><g class="fills"/><g class="errorbars"/><g class="lines"><path class="js-line" d="M0,384.93L191.71,384.67L201.8,384.46L242.16,382.9L252.25,382.22L282.52,379.23L292.61,377.52L322.88,369.45L332.97,365.54L343.06,360.36L353.15,353.71L363.24,348.69L373.33,342.61L383.42,340.5L393.51,342.27L403.6,340.7L413.69,343.16L423.78,347.4L433.87,347.57L454.05,344.69L464.14,344.64L474.23,345.33L484.32,344.76L514.59,346.22L524.68,345.22L534.77,345.13L544.86,346.89L554.95,348L565.04,346.85L575.13,339.95L585.22,324.15L595.31,257.09L605.4,203.35L615.49,159.05L625.58,164.48L635.67,231.1L645.76,292.63L655.85,353.36L665.94,368.22L676.03,368.35L686.12,365.06L706.3,353.98L716.39,350.51L736.57,337.23L746.66,336.77L756.75,343.51L766.84,356.66L776.93,365.21L787.02,367.28L817.29,378.3L827.38,382.67L837.47,383.88L847.56,384.14L867.74,383.9L877.83,381.89L887.92,381.24L898.01,382.87L918.19,383.98L928.28,384.13L938.37,383.82L948.46,382.66L958.55,382.97L968.64,384.45L1009,384.97" style="vector-effect: none; fill: none; stroke: rgb(217, 83, 79); stroke-opacity: 1; stroke-width: 2px; opacity: 1;"/></g><g class="points"/><g class="text"/></g><g class="trace scatter trace3912ba" style="stroke-miterlimit: 2; opacity: 1;"><g class="fills"/><g class="errorbars"/><g class="lines"><path class="js-line" d="M0,384.86L151.35,384.9L161.44,384.87L232.07,384.03L242.16,383.69L262.34,382.4L272.43,381.02L292.61,379.45L302.7,377.15L312.79,374.19L322.88,370.43L332.97,365.28L343.06,360.98L373.33,348.7L383.42,347.77L403.6,342.69L413.69,344.37L433.87,347.85L443.96,347.13L454.05,343.76L464.14,343.27L474.23,343.64L484.32,342.04L504.5,344.69L514.59,345.89L524.68,345.96L534.77,345.2L554.95,346.24L565.04,342.89L585.22,294.03L595.31,272.54L605.4,238.29L615.49,208.04L625.58,216.3L635.67,203.6L645.76,237.17L655.85,335.71L665.94,367.31L676.03,368.09L686.12,364.66L696.21,359.06L706.3,356.36L716.39,355.33L726.48,350.83L736.57,342.66L746.66,328.34L756.75,325.88L776.93,363.07L787.02,369.07L797.11,368.92L807.2,371.46L817.29,377.85L827.38,381.72L837.47,382.26L847.56,381.87L857.65,382.74L867.74,382.84L877.83,382.36L887.92,383.54L898.01,384.35L908.1,384.17L978.73,384.92L988.82,384.88L998.91,384.81L1009,383.74" style="vector-effect: none; fill: none; stroke: rgb(217, 83, 79); stroke-opacity: 1; stroke-width: 2px; opacity: 1;"/></g><g class="points"/><g class="text"/></g><g class="trace scatter trace5176a5" style="stroke-miterlimit: 2; opacity: 1;"><g class="fills"/><g class="errorbars"/><g class="lines"><path class="js-line" d="M0,384.96L211.89,384.49L221.98,384.39L262.34,382.31L272.43,381.5L282.52,380.87L292.61,379.48L322.88,371.79L332.97,367.93L343.06,361.83L353.15,353.9L373.33,343.51L383.42,342.66L393.51,344.54L403.6,343.14L413.69,346.73L423.78,352.93L433.87,354.43L443.96,353.15L454.05,351.38L464.14,351.64L474.23,352.65L484.32,352.39L504.5,353.53L514.59,353.42L534.77,352.01L544.86,352.6L554.95,352.97L565.04,350.62L575.13,341.75L585.22,323.21L605.4,173.26L615.49,107.32L625.58,109.96L635.67,206.31L645.76,291.44L655.85,353.31L665.94,369.51L676.03,370.02L686.12,368.55L696.21,365.73L706.3,364.32L716.39,359.49L726.48,347.9L736.57,339.01L746.66,334.77L756.75,341.77L766.84,358.9L776.93,368.87L787.02,370.07L797.11,372.14L807.2,373.88L817.29,377.42L827.38,382.1L837.47,383.68L857.65,384.21L867.74,383.75L877.83,382.01L887.92,381.45L908.1,383.73L918.19,383.96L938.37,383.64L948.46,382.43L958.55,382.8L968.64,384.38L988.82,384.62L998.91,384.74L1009,384.97" style="vector-effect: none; fill: none; stroke: rgb(217, 83, 79); stroke-opacity: 1; stroke-width: 2px; opacity: 1;"/></g><g class="points"/><g class="text"/></g><g class="trace scatter tracee26170" style="stroke-miterlimit: 2; opacity: 1;"><g class="fills"/><g class="errorbars"/><g class="lines"><path class="js-line" d="M0,384.91L191.71,384.86L201.8,384.74L252.25,383.67L262.34,382.65L272.43,380.95L282.52,380.67L292.61,380.16L302.7,377.89L322.88,370.09L332.97,364.87L363.24,353.75L373.33,351.1L383.42,351.09L393.51,348.57L403.6,345.9L413.69,348.33L433.87,353.65L443.96,354.01L454.05,351.21L464.14,350.65L474.23,351.3L484.32,350.1L504.5,352.41L514.59,353.38L544.86,351.3L554.95,351.21L565.04,342.51L575.13,314.13L595.31,259.27L605.4,214.24L615.49,187.45L625.58,203.74L635.67,169.12L645.76,199.85L655.85,325.24L665.94,369.23L676.03,372.66L686.12,371.45L706.3,367.71L716.39,363.95L726.48,355.21L736.57,343.25L746.66,324.61L756.75,321.54L766.84,346.07L776.93,366.05L787.02,370.71L797.11,369.33L807.2,371.84L817.29,378.4L827.38,381.81L837.47,382.45L847.56,382.23L857.65,382.94L877.83,382.02L887.92,383.45L898.01,384.33L908.1,384.2L978.73,384.92L988.82,384.86L998.91,384.77L1009,383.32" style="vector-effect: none; fill: none; stroke: rgb(217, 83, 79); stroke-opacity: 1; stroke-width: 2px; opacity: 1;"/></g><g class="points"/><g class="text"/></g><g class="trace scatter tracec63bdd" style="stroke-miterlimit: 2; opacity: 1;"><g class="fills"/><g class="errorbars"/><g class="lines"><path class="js-line" d="M0,384.91L221.98,384.6L232.07,384.34L282.52,382.41L292.61,381.41L322.88,375.92L332.97,373.43L343.06,369.29L353.15,363.7L363.24,359.57L373.33,354.52L383.42,352.27L393.51,354.25L403.6,354.05L413.69,357.74L423.78,363.06L433.87,363.9L464.14,361.96L474.23,362.25L484.32,361.45L494.41,361.89L514.59,361.83L524.68,360.97L534.77,359.83L544.86,359.63L554.95,359.02L565.04,356.5L575.13,347.2L585.22,326.86L595.31,251.94L605.4,182.93L615.49,114.56L625.58,110.69L655.85,344.11L665.94,364.6L676.03,365.42L686.12,362.49L696.21,356.08L706.3,353.45L716.39,348.82L726.48,330.29L736.57,313.38L746.66,307.96L756.75,318.01L766.84,342.86L776.93,359.37L787.02,362.14L807.2,369.66L817.29,375.83L827.38,381.41L837.47,382.67L857.65,383.34L867.74,382.14L877.83,377.3L887.92,376.25L898.01,380.11L908.1,381.64L928.28,382.71L938.37,382.35L948.46,379.97L958.55,380.62L968.64,383.78L978.73,384.37L998.91,384.44L1009,384.92" style="vector-effect: none; fill: none; stroke: rgb(217, 83, 79); stroke-opacity: 1; stroke-width: 2px; opacity: 1;"/></g><g class="points"/><g class="text"/></g><g class="trace scatter tracebee8ac" style="stroke-miterlimit: 2; opacity: 1;"><g class="fills"/><g class="errorbars"/><g class="lines"><path class="js-line" d="M0,384.78L100.9,384.97L110.99,384.96L242.16,384.35L252.25,384.16L292.61,381.79L302.7,380.29L312.79,378.66L322.88,376.12L363.24,362.49L373.33,358.01L403.6,354.91L413.69,358.41L423.78,361.24L433.87,363.07L443.96,363.54L454.05,360.69L464.14,360.28L474.23,361.02L484.32,359.33L494.41,360.07L514.59,362.31L524.68,361.74L554.95,358.13L565.04,353.01L585.22,295.56L595.31,271.01L615.49,186.2L625.58,187.84L635.67,148.62L645.76,182.55L655.85,318.66L665.94,365.67L676.03,368.46L686.12,366.83L706.3,361.49L716.39,356.41L726.48,342.93L736.57,321.98L746.66,295.03L756.75,291.26L766.84,323.32L776.93,352.55L787.02,361.6L797.11,360.58L807.2,364.19L817.29,374.65L827.38,380.23L837.47,379.36L847.56,378.06L857.65,380.16L867.74,380.49L877.83,379.67L887.92,382.12L898.01,383.72L918.19,383.65L928.28,384.55L968.64,384.86L978.73,384.88L998.91,384.78L1009,382.7" style="vector-effect: none; fill: none; stroke: rgb(217, 83, 79); stroke-opacity: 1; stroke-width: 2px; opacity: 1;"/></g><g class="points"/><g class="text"/></g><g class="trace scatter traceca8334" style="stroke-miterlimit: 2; opacity: 1;"><g class="fills"/><g class="errorbars"/><g class="lines"><path class="js-line" d="M0,384.98L191.71,384.41L201.8,384.09L232.07,382.34L242.16,381.38L262.34,378.3L272.43,376.43L282.52,374.47L292.61,371.68L312.79,363.8L322.88,359.07L332.97,353.73L343.06,346.1L353.15,337.39L363.24,333.19L373.33,329.77L383.42,327.37L393.51,326.13L403.6,322.31L413.69,319.85L423.78,318.34L433.87,315.6L443.96,311.86L454.05,308.58L464.14,306.84L494.41,304.7L504.5,305.76L514.59,306.55L524.68,303.94L534.77,306.54L544.86,314.5L554.95,319.42L565.04,323.36L575.13,326.21L585.22,326.76L615.49,283.89L625.58,286.65L645.76,340.33L655.85,361.16L665.94,366.92L676.03,367.47L686.12,366.66L696.21,365.09L706.3,364.68L716.39,365.63L726.48,365.71L736.57,364.4L746.66,364.9L756.75,368L766.84,371.87L776.93,374.65L807.2,380.08L817.29,382.12L827.38,383.74L837.47,384.2L877.83,384.22L887.92,384.24L918.19,384.79L928.28,384.84L1009,384.99" style="vector-effect: none; fill: none; stroke: rgb(217, 83, 79); stroke-opacity: 1; stroke-width: 2px; opacity: 1;"/></g><g class="points"/><g class="text"/></g><g class="trace scatter traceaa1166" style="stroke-miterlimit: 2; opacity: 1;"><g class="fills"/><g class="errorbars"/><g class="lines"><path class="js-line" d="M0,384.95L191.71,384.51L201.8,384.32L242.16,382.52L252.25,381.48L262.34,378.96L272.43,375.64L292.61,373.81L302.7,370.51L343.06,348.06L353.15,343.51L363.24,338.03L373.33,334.57L383.42,332.11L393.51,328.24L403.6,323.58L413.69,320.64L443.96,312.31L454.05,308.07L464.14,305.84L474.23,305.11L484.32,303.96L494.41,304.02L504.5,304.99L514.59,307.01L534.77,310.18L544.86,313.12L554.95,317.22L565.04,319.57L585.22,315.98L595.31,313.19L605.4,307.01L615.49,306.53L625.58,313.19L635.67,301.65L645.76,313.75L655.85,353.53L665.94,365.77L676.03,366.67L686.12,364.7L696.21,360.69L706.3,361.13L716.39,364.11L726.48,365.5L736.57,365.36L746.66,362.58L756.75,362.4L776.93,375.01L787.02,377.52L797.11,377.77L807.2,378.93L817.29,381.31L827.38,382.88L867.74,384.21L877.83,384.33L938.37,384.88L948.46,384.89L1009,384.34" style="vector-effect: none; fill: none; stroke: rgb(217, 83, 79); stroke-opacity: 1; stroke-width: 2px; opacity: 1;"/></g><g class="points"/><g class="text"/></g><g class="trace scatter trace941c54" style="stroke-miterlimit: 2; opacity: 1;"><g class="fills"/><g class="errorbars"/><g class="lines"><path class="js-line" d="M0,384.96L201.8,384.47L211.89,384.22L242.16,383.14L252.25,382.43L282.52,379.82L292.61,378.05L322.88,368.39L332.97,363.98L343.06,357.69L353.15,349.3L373.33,336.04L383.42,334.65L393.51,337.1L403.6,336.21L413.69,340.92L423.78,347.79L433.87,349.25L443.96,348.19L454.05,346.86L464.14,347.71L474.23,348.84L484.32,348.17L514.59,349.67L524.68,348.81L534.77,347.69L544.86,347.97L554.95,348.1L565.04,345.53L575.13,334.82L585.22,316.07L595.31,254.46L605.4,202.39L615.49,147.69L625.58,132.03L635.67,191.2L645.76,274.65L655.85,351.53L665.94,368.44L676.03,370.37L686.12,369.91L696.21,368.28L706.3,367.41L716.39,364.17L726.48,355.41L736.57,347.74L746.66,346.58L756.75,354.09L766.84,365.77L776.93,372.76L787.02,374.41L807.2,377.7L817.29,380.19L827.38,382.98L837.47,383.91L867.74,384.02L877.83,382.9L887.92,382.53L898.01,383.44L918.19,384.26L928.28,384.33L958.55,383.28L968.64,384.52L1009,384.98" style="vector-effect: none; fill: none; stroke: rgb(217, 83, 79); stroke-opacity: 1; stroke-width: 2px; opacity: 1;"/></g><g class="points"/><g class="text"/></g><g class="trace scatter trace9614bb" style="stroke-miterlimit: 2; opacity: 1;"><g class="fills"/><g class="errorbars"/><g class="lines"><path class="js-line" d="M0,384.92L181.62,384.78L191.71,384.71L242.16,383.49L252.25,382.97L282.52,379.72L292.61,378.81L302.7,375.99L312.79,371.93L322.88,367.03L332.97,360.46L353.15,352.69L363.24,347.28L373.33,343.85L383.42,343.7L393.51,340.7L403.6,338.53L423.78,346.64L433.87,348.77L443.96,348.62L454.05,346.17L474.23,347.34L484.32,345.85L514.59,349.91L524.68,349.11L534.77,347.46L544.86,346.85L554.95,346.75L565.04,341.7L585.22,284.46L595.31,259.16L605.4,220.89L615.49,187.98L625.58,200.99L635.67,188.64L645.76,222.14L655.85,329.98L665.94,367.76L676.03,371.12L686.12,371L696.21,369.18L716.39,366.31L726.48,361.84L736.57,354.08L746.66,341.15L756.75,339.76L766.84,357.09L776.93,370.71L787.02,374.28L797.11,374.26L807.2,376.42L817.29,380.38L827.38,382.41L857.65,383.16L867.74,382.92L877.83,382.59L887.92,383.71L908.1,384.27L918.19,384.41L948.46,384.85L958.55,384.87L998.91,384.73L1009,382.28" style="vector-effect: none; fill: none; stroke: rgb(217, 83, 79); stroke-opacity: 1; stroke-width: 2px; opacity: 1;"/></g><g class="points"/><g class="text"/></g><g class="trace scatter trace39f4ca" style="stroke-miterlimit: 2; opacity: 1;"><g class="fills"/><g class="errorbars"/><g class="lines"><path class="js-line" d="M0,384.94L211.89,384.42L221.98,384.26L262.34,382.38L272.43,381.63L292.61,379.52L302.7,377.74L322.88,373.82L332.97,370.6L363.24,358.47L373.33,354.89L383.42,353.36L393.51,353.56L403.6,352.38L413.69,353.16L423.78,354.74L433.87,354.32L464.14,349.31L474.23,348.64L484.32,347.47L494.41,347.37L544.86,348.44L554.95,349.35L565.04,348.9L575.13,343.62L585.22,330.91L595.31,281.87L615.49,199.69L625.58,193.21L655.85,351.64L665.94,364.17L676.03,362.03L686.12,355.34L696.21,345.73L706.3,340.9L716.39,334.91L726.48,320.96L736.57,307.38L746.66,297.99L756.75,303.64L766.84,319.99L776.93,334.47L787.02,344.28L807.2,361.25L817.29,371.23L827.38,380.72L837.47,383.44L857.65,384.22L867.74,383.81L877.83,381.58L887.92,381.03L898.01,382.93L908.1,383.76L938.37,383.91L948.46,382.71L958.55,383.01L968.64,384.49L1009,384.97" style="vector-effect: none; fill: none; stroke: rgb(217, 83, 79); stroke-opacity: 1; stroke-width: 2px; opacity: 1;"/></g><g class="points"/><g class="text"/></g><g class="trace scatter trace2ed149" style="stroke-miterlimit: 2; opacity: 1;"><g class="fills"/><g class="errorbars"/><g class="lines"><path class="js-line" d="M0,384.86L151.35,384.92L161.44,384.9L242.16,384.03L252.25,383.72L292.61,380.79L302.7,379.25L322.88,374.42L332.97,370.77L373.33,359.43L383.42,358.36L403.6,354.32L413.69,354.19L433.87,354.01L443.96,352.56L454.05,349.62L464.14,348.23L474.23,347.73L484.32,346.13L504.5,346.37L514.59,347.06L544.86,347.03L554.95,347.88L565.04,345.53L575.13,326.24L585.22,308.11L595.31,293.26L605.4,265.29L615.49,241.74L625.58,247.94L635.67,227.78L645.76,251.74L655.85,337.35L665.94,365.66L676.03,363.3L686.12,355.65L696.21,346.66L706.3,339.63L716.39,335.31L726.48,327.7L736.57,314.75L746.66,289.13L756.75,275.41L766.84,308.33L776.93,344.78L787.02,350.97L797.11,348.34L807.2,354.64L817.29,370.44L827.38,379.95L837.47,381.32L847.56,381.11L857.65,382.42L867.74,382.91L877.83,382.57L898.01,384.35L908.1,384.18L978.73,384.91L988.82,384.86L998.91,384.78L1009,383.88" style="vector-effect: none; fill: none; stroke: rgb(217, 83, 79); stroke-opacity: 1; stroke-width: 2px; opacity: 1;"/></g><g class="points"/><g class="text"/></g></g></g></g><path class="xlines-above crisp" d="M0,0" style="fill: none;"/><path class="ylines-above crisp" d="M0,0" style="fill: none;"/><g class="overlines-above"/><g class="xaxislayer-above"><g class="xtick"><text text-anchor="middle" x="0" y="451" transform="translate(65,0)" style="font-family: 'Lucida Grande', 'Open Sans', verdana, arial, sans-serif; font-size: 10px; fill: rgb(0, 0, 0); fill-opacity: 1; white-space: pre; opacity: 1;">0%</text></g><g class="xtick"><text text-anchor="middle" x="0" y="451" style="font-family: 'Lucida Grande', 'Open Sans', verdana, arial, sans-serif; font-size: 10px; fill: rgb(0, 0, 0); fill-opacity: 1; white-space: pre; opacity: 1;" transform="translate(266.8,0)">20%</text></g><g class="xtick"><text text-anchor="middle" x="0" y="451" style="font-family: 'Lucida Grande', 'Open Sans', verdana, arial, sans-serif; font-size: 10px; fill: rgb(0, 0, 0); fill-opacity: 1; white-space: pre; opacity: 1;" transform="translate(468.6,0)">40%</text></g><g class="xtick"><text text-anchor="middle" x="0" y="451" style="font-family: 'Lucida Grande', 'Open Sans', verdana, arial, sans-serif; font-size: 10px; fill: rgb(0, 0, 0); fill-opacity: 1; white-space: pre; opacity: 1;" transform="translate(670.4,0)">60%</text></g><g class="xtick"><text text-anchor="middle" x="0" y="451" style="font-family: 'Lucida Grande', 'Open Sans', verdana, arial, sans-serif; font-size: 10px; fill: rgb(0, 0, 0); fill-opacity: 1; white-space: pre; opacity: 1;" transform="translate(872.2,0)">80%</text></g><g class="xtick"><text text-anchor="middle" x="0" y="451" style="font-family: 'Lucida Grande', 'Open Sans', verdana, arial, sans-serif; font-size: 10px; fill: rgb(0, 0, 0); fill-opacity: 1; white-space: pre; opacity: 1;" transform="translate(1074,0)">100%</text></g></g><g class="yaxislayer-above"><g class="ytick"><text text-anchor="end" x="59" y="3.5" transform="translate(0,435)" style="font-family: 'Lucida Grande', 'Open Sans', verdana, arial, sans-serif; font-size: 10px; fill: rgb(0, 0, 0); fill-opacity: 1; white-space: pre; opacity: 1;">0%</text></g><g class="ytick"><text text-anchor="end" x="59" y="3.5" style="font-family: 'Lucida Grande', 'Open Sans', verdana, arial, sans-serif; font-size: 10px; fill: rgb(0, 0, 0); fill-opacity: 1; white-space: pre; opacity: 1;" transform="translate(0,383.63)">2%</text></g><g class="ytick"><text text-anchor="end" x="59" y="3.5" style="font-family: 'Lucida Grande', 'Open Sans', verdana, arial, sans-serif; font-size: 10px; fill: rgb(0, 0, 0); fill-opacity: 1; white-space: pre; opacity: 1;" transform="translate(0,332.26)">4%</text></g><g class="ytick"><text text-anchor="end" x="59" y="3.5" style="font-family: 'Lucida Grande', 'Open Sans', verdana, arial, sans-serif; font-size: 10px; fill: rgb(0, 0, 0); fill-opacity: 1; white-space: pre; opacity: 1;" transform="translate(0,280.89)">6%</text></g><g class="ytick"><text text-anchor="end" x="59" y="3.5" style="font-family: 'Lucida Grande', 'Open Sans', verdana, arial, sans-serif; font-size: 10px; fill: rgb(0, 0, 0); fill-opacity: 1; white-space: pre; opacity: 1;" transform="translate(0,229.51)">8%</text></g><g class="ytick"><text text-anchor="end" x="59" y="3.5" style="font-family: 'Lucida Grande', 'Open Sans', verdana, arial, sans-serif; font-size: 10px; fill: rgb(0, 0, 0); fill-opacity: 1; white-space: pre; opacity: 1;" transform="translate(0,178.14)">10%</text></g><g class="ytick"><text text-anchor="end" x="59" y="3.5" style="font-family: 'Lucida Grande', 'Open Sans', verdana, arial, sans-serif; font-size: 10px; fill: rgb(0, 0, 0); fill-opacity: 1; white-space: pre; opacity: 1;" transform="translate(0,126.77)">12%</text></g><g class="ytick"><text text-anchor="end" x="59" y="3.5" style="font-family: 'Lucida Grande', 'Open Sans', verdana, arial, sans-serif; font-size: 10px; fill: rgb(0, 0, 0); fill-opacity: 1; white-space: pre; opacity: 1;" transform="translate(0,75.4)">14%</text></g></g><g class="overaxes-above"/></g></g><g class="polarlayer"/><g class="smithlayer"/><g class="ternarylayer"/><g class="geolayer"/><g class="funnelarealayer"/><g class="pielayer"/><g class="iciclelayer"/><g class="treemaplayer"/><g class="sunburstlayer"/><g class="glimages"/><defs id="topdefs-73c85b"><g class="clips"/></defs><g class="layer-above"><g class="imagelayer"/><g class="shapelayer"/></g><g class="infolayer"><g class="g-gtitle"><text class="gtitle" x="550" y="25" text-anchor="middle" dy="0em" style="opacity: 1; font-family: 'Lucida Grande', 'Open Sans', verdana, arial, sans-serif; font-size: 20px; fill: rgb(42, 63, 95); fill-opacity: 1; white-space: pre;"><tspan class="line" dy="0em" x="550" y="25">FastQC: Per Sequence GC Content</tspan><tspan class="line" dy="1.3em" x="550" y="25"><tspan style="font-size:70%" dy="-0.6em">Percentages, 50 samples</tspan><tspan dy="0.42em"></tspan></tspan></text></g><g class="g-xtitle"><text class="xtitle" x="569.5" y="472.3" text-anchor="middle" style="opacity: 0.3; font-family: 'Lucida Grande', 'Open Sans', verdana, arial, sans-serif; font-size: 14px; fill: rgb(0, 0, 0); fill-opacity: 1; white-space: pre;">% GC</text></g><g class="g-ytitle"><text class="ytitle" transform="rotate(-90,22.365625,242.5)" x="22.365625" y="242.5" text-anchor="middle" style="opacity: 0.3; font-family: 'Lucida Grande', 'Open Sans', verdana, arial, sans-serif; font-size: 14px; fill: rgb(0, 0, 0); fill-opacity: 1; white-space: pre;">Percentage</text></g></g></svg>