<svg class="main-svg" xmlns="http://www.w3.org/2000/svg" xmlns:xlink="http://www.w3.org/1999/xlink" width="2200" height="1000" style="" viewBox="0 0 1100 500"><rect x="0" y="0" width="1100" height="500" style="fill: rgb(255, 255, 255); fill-opacity: 1;"/><defs id="defs-bcc679"><g class="clips"><clipPath id="clipbcc679xyplot" class="plotclip"><rect width="1007" height="385"/></clipPath><clipPath class="axesclip" id="clipbcc679x"><rect x="67" y="0" width="1007" height="500"/></clipPath><clipPath class="axesclip" id="clipbcc679y"><rect x="0" y="50" width="1100" height="385"/></clipPath><clipPath class="axesclip" id="clipbcc679xy"><rect x="67" y="50" width="1007" height="385"/></clipPath></g><g class="gradients"/><g class="patterns"/></defs><g class="bglayer"/><g class="layer-below"><g class="imagelayer"/><g class="shapelayer"/></g><g class="cartesianlayer"><g class="subplot xy"><g class="layer-subplot"><g class="shapelayer"/><g class="imagelayer"/></g><g class="minor-gridlayer"><g class="x"/><g class="y"/></g><g class="gridlayer"><g class="x"><path class="xgrid crisp" transform="translate(268.4,0)" d="M0,50v385" style="stroke: rgb(0, 0, 0); stroke-opacity: 0.05; stroke-width: 1px;"/><path class="xgrid crisp" transform="translate(469.8,0)" d="M0,50v385" style="stroke: rgb(0, 0, 0); stroke-opacity: 0.05; stroke-width: 1px;"/><path class="xgrid crisp" transform="translate(671.2,0)" d="M0,50v385" style="stroke: rgb(0, 0, 0); stroke-opacity: 0.05; stroke-width: 1px;"/><path class="xgrid crisp" transform="translate(872.6,0)" d="M0,50v385" style="stroke: rgb(0, 0, 0); stroke-opacity: 0.05; stroke-width: 1px;"/></g><g class="y"><path class="ygrid crisp" transform="translate(0,390.6)" d="M67,0h1007" style="stroke: rgb(0, 0, 0); stroke-opacity: 0.05; stroke-width: 1px;"/><path class="ygrid crisp" transform="translate(0,346.2)" d="M67,0h1007" style="stroke: rgb(0, 0, 0); stroke-opacity: 0.05; stroke-width: 1px;"/><path class="ygrid crisp" transform="translate(0,301.8)" d="M67,0h1007" style="stroke: rgb(0, 0, 0); stroke-opacity: 0.05; stroke-width: 1px;"/><path class="ygrid crisp" transform="translate(0,257.4)" d="M67,0h1007" style="stroke: rgb(0, 0, 0); stroke-opacity: 0.05; stroke-width: 1px;"/><path class="ygrid crisp" transform="translate(0,213)" d="M67,0h1007" style="stroke: rgb(0, 0, 0); stroke-opacity: 0.05; stroke-width: 1px;"/><path class="ygrid crisp" transform="translate(0,168.6)" d="M67,0h1007" style="stroke: rgb(0, 0, 0); stroke-opacity: 0.05; stroke-width: 1px;"/><path class="ygrid crisp" transform="translate(0,124.2)" d="M67,0h1007" style="stroke: rgb(0, 0, 0); stroke-opacity: 0.05; stroke-width: 1px;"/><path class="ygrid crisp" transform="translate(0,79.8)" d="M67,0h1007" style="stroke: rgb(0, 0, 0); stroke-opacity: 0.05; stroke-width: 1px;"/></g></g><g class="zerolinelayer"><path class="xzl zl crisp" transform="translate(67,0)" d="M0,50v385" style="stroke: rgb(0, 0, 0); stroke-opacity: 0.05; stroke-width: 2px;"/><path class="yzl zl crisp" transform="translate(0,435)" d="M67,0h1007" style="stroke: rgb(0, 0, 0); stroke-opacity: 0.05; stroke-width: 2px;"/></g><g class="layer-between"><g class="shapelayer"/><g class="imagelayer"/></g><path class="xlines-below"/><path class="ylines-below"/><g class="overlines-below"/><g class="xaxislayer-below"/><g class="yaxislayer-below"/><g class="overaxes-below"/><g class="overplot"><g class="xy" transform="translate(67,50)" clip-path="url(#clipbcc679xyplot)"><g class="scatterlayer mlayer"><g class="trace scatter trace1332b5" style="stroke-miterlimit: 2; opacity: 1;"><g class="fills"/><g class="errorbars"/><g class="lines"><path class="js-line" d="M0,384.97L221.54,384.45L231.61,384.14L292.03,381.03L302.1,379.86L332.31,375.45L342.38,373.39L362.52,368.29L372.59,364.87L382.66,362.76L392.73,362.43L402.8,361.22L412.87,361.98L422.94,363.55L433.01,363.12L493.43,355.96L503.5,355.41L523.64,353.65L533.71,352.66L553.85,353.09L563.92,350.79L573.99,344.89L584.06,334.23L594.13,277.56L604.2,229.57L614.27,196.25L624.34,199.76L634.41,261.31L644.48,295.8L654.55,300.18L664.62,322.54L674.69,357.55L684.76,364.86L704.9,362.17L714.97,357.64L725.04,345.69L735.11,338.76L745.18,333.94L755.25,338.91L765.32,357.27L775.39,369.32L805.6,373.13L815.67,377.06L825.74,382.48L835.81,383.93L866.02,384.3L876.09,383.74L926.44,384.73L936.51,384.49L946.58,383.35L956.65,383.62L966.72,384.84L976.79,384.88L996.93,384.49L1007,384.95" style="vector-effect: none; fill: none; stroke: rgb(217, 83, 79); stroke-opacity: 1; stroke-width: 2px; opacity: 1;"/></g><g class="points"/><g class="text"/></g><g class="trace scatter traceade32f" style="stroke-miterlimit: 2; opacity: 1;"><g class="fills"/><g class="errorbars"/><g class="lines"><path class="js-line" d="M0,384.94L201.4,384.76L211.47,384.56L261.82,383.73L271.89,383.31L292.03,382.17L302.1,381.06L322.24,378.22L332.31,376.37L362.52,370.7L372.59,368.46L382.66,367.31L392.73,365.25L402.8,363.4L412.87,363.53L433.01,364.11L443.08,362.61L453.15,360.07L463.22,358.63L493.43,355.21L503.5,354.75L543.78,351.48L553.85,351.09L563.92,345.4L573.99,326.19L584.06,308.77L594.13,286.55L604.2,242.68L614.27,209.06L624.34,236.62L634.41,243.85L644.48,267.56L654.55,343.56L664.62,369.54L674.69,371.32L694.83,368.39L704.9,365.92L714.97,360.66L725.04,351.25L735.11,337.76L745.18,314.88L755.25,309.07L765.32,336.28L775.39,359.26L785.46,364.21L795.53,363.99L805.6,367.92L815.67,375.29L825.74,379.09L855.95,381.48L866.02,381.78L876.09,381.82L886.16,383.04L906.3,383.96L916.37,384.2L946.58,384.74L956.65,384.78L996.93,384.79L1007,381.68" style="vector-effect: none; fill: none; stroke: rgb(217, 83, 79); stroke-opacity: 1; stroke-width: 2px; opacity: 1;"/></g><g class="points"/><g class="text"/></g><g class="trace scatter traced9e525" style="stroke-miterlimit: 2; opacity: 1;"><g class="fills"/><g class="errorbars"/><g class="lines"><path class="js-line" d="M0,384.98L261.82,384.32L271.89,384.17L312.17,382.95L322.24,382.46L352.45,380.13L362.52,379.3L382.66,378.02L392.73,377.93L402.8,377.33L412.87,377.5L422.94,377.96L433.01,377.64L463.22,375.94L473.29,375.83L533.71,374.12L543.78,374.11L553.85,373.17L563.92,368.69L573.99,355.96L584.06,331.11L594.13,223.58L604.2,135.14L614.27,59.87L624.34,56.42L634.41,154.39L644.48,236.39L654.55,309.36L664.62,338.99L674.69,356.82L684.76,360.89L704.9,354.47L714.97,348.62L725.04,326.54L735.11,311.33L745.18,311.01L755.25,320.56L765.32,341.25L775.39,359.65L785.46,366.33L795.53,369.68L805.6,372.7L815.67,377.5L825.74,383.02L835.81,384.34L866.02,384.55L876.09,383.95L936.51,384.58L946.58,383.58L956.65,383.75L966.72,384.83L1007,384.92" style="vector-effect: none; fill: none; stroke: rgb(217, 83, 79); stroke-opacity: 1; stroke-width: 2px; opacity: 1;"/></g><g class="points"/><g class="text"/></g><g class="trace scatter trace082136" style="stroke-miterlimit: 2; opacity: 1;"><g class="fills"/><g class="errorbars"/><g class="lines"><path class="js-line" d="M0,384.96L261.82,384.47L271.89,384.24L302.1,383.44L312.17,382.87L402.8,377.7L412.87,377.82L443.08,377.48L453.15,376.62L513.57,374.46L523.64,373.37L553.85,371.91L563.92,365.29L584.06,284.88L594.13,248.29L614.27,117.34L624.34,136.28L634.41,117.64L644.48,161.2L654.55,318.65L664.62,371.31L674.69,374.1L684.76,372.08L694.83,369.06L704.9,364.84L714.97,356.81L725.04,341.56L735.11,319.65L745.18,288.76L755.25,284.55L765.32,322.95L775.39,356.37L785.46,364.46L795.53,361.67L805.6,364.82L815.67,374.33L825.74,379.42L855.95,380.37L866.02,380.6L876.09,380.64L886.16,381.67L906.3,382.68L916.37,383.09L946.58,384.26L956.65,384.45L996.93,384.77L1007,382.58" style="vector-effect: none; fill: none; stroke: rgb(217, 83, 79); stroke-opacity: 1; stroke-width: 2px; opacity: 1;"/></g><g class="points"/><g class="text"/></g><g class="trace scatter trace2850a8" style="stroke-miterlimit: 2; opacity: 1;"><g class="fills"/><g class="errorbars"/><g class="lines"><path class="js-line" d="M0,384.96L231.61,384.56L241.68,384.4L292.03,383.06L302.1,382.44L332.31,380.03L342.38,378.7L372.59,374.51L382.66,373.7L412.87,373.31L422.94,373.75L443.08,372.48L453.15,371.33L493.43,368.92L503.5,368.71L543.78,366.85L553.85,364.68L563.92,359.88L573.99,346.6L584.06,320.4L594.13,216.38L614.27,19.25L624.34,22.89L634.41,142.77L644.48,238.07L654.55,316.9L664.62,342.76L674.69,356.54L684.76,355.81L694.83,347.18L704.9,340.95L714.97,333.24L725.04,308.57L735.11,290.18L745.18,287.39L755.25,298.65L765.32,326.9L775.39,350.08L785.46,357.64L795.53,363.06L805.6,367.61L825.74,381.74L835.81,383.64L866.02,383.95L876.09,382.08L886.16,382.19L896.23,383.93L936.51,384.09L946.58,381.65L956.65,381.98L966.72,384.6L976.79,384.73L986.86,383.88L996.93,383.96L1007,384.86" style="vector-effect: none; fill: none; stroke: rgb(217, 83, 79); stroke-opacity: 1; stroke-width: 2px; opacity: 1;"/></g><g class="points"/><g class="text"/></g><g class="trace scatter trace8e93a1" style="stroke-miterlimit: 2; opacity: 1;"><g class="fills"/><g class="errorbars"/><g class="lines"><path class="js-line" d="M0,384.91L211.47,384.8L221.54,384.76L281.96,383.79L292.03,383.46L322.24,381.23L332.31,379.98L382.66,375.54L392.73,374.72L412.87,373.67L422.94,373.69L443.08,372.87L453.15,371.5L493.43,368.49L503.5,368.33L513.57,368.23L523.64,367.12L533.71,364.53L543.78,364.53L553.85,365.36L563.92,357.98L584.06,273.62L594.13,238.99L604.2,175.81L614.27,119.41L624.34,122.19L634.41,81.68L644.48,135.93L654.55,310.65L664.62,368.01L674.69,370.15L684.76,366.42L694.83,361.29L704.9,356.13L714.97,346.14L725.04,327.04L735.11,299.4L745.18,260.52L755.25,255.39L765.32,303.53L775.39,346.68L785.46,358.77L795.53,355.81L805.6,359.18L815.67,372.21L825.74,379.56L835.81,379.42L845.88,378.43L855.95,379.6L866.02,379.77L876.09,378.97L896.23,381.26L906.3,381L936.51,382.46L946.58,382.84L996.93,384.5L1007,383.06" style="vector-effect: none; fill: none; stroke: rgb(217, 83, 79); stroke-opacity: 1; stroke-width: 2px; opacity: 1;"/></g><g class="points"/><g class="text"/></g><g class="trace scatter trace2cfc9c" style="stroke-miterlimit: 2; opacity: 1;"><g class="fills"/><g class="errorbars"/><g class="lines"><path class="js-line" d="M0,384.98L201.4,384.32L211.47,384L241.68,382.95L251.75,382.4L271.89,380.28L281.96,378.8L292.03,376.2L302.1,372.74L312.17,369.97L322.24,365.69L332.31,358.71L342.38,349.78L352.45,340.3L362.52,332.37L372.59,324.62L382.66,323.34L392.73,326.29L402.8,325.73L412.87,329.27L422.94,334.05L433.01,335.14L443.08,335.25L453.15,332.4L463.22,332.13L473.29,333.48L483.36,333.26L493.43,336.08L503.5,337.9L543.78,342.23L553.85,343.55L563.92,342.8L573.99,337.8L584.06,329.51L594.13,294.14L604.2,266.12L614.27,242.03L624.34,239.49L634.41,282.02L644.48,323.98L654.55,338.17L664.62,295.17L674.69,296.13L684.76,340.01L694.83,347.32L714.97,344.24L725.04,339.44L735.11,331.59L745.18,324.89L755.25,328.22L765.32,339.8L775.39,349.56L785.46,355.53L815.67,376.72L825.74,382.41L835.81,383.89L845.88,384.21L866.02,384.31L876.09,382.98L886.16,383.04L896.23,384.31L936.51,384.62L946.58,383.81L956.65,383.9L966.72,384.86L1007,384.93" style="vector-effect: none; fill: none; stroke: rgb(217, 83, 79); stroke-opacity: 1; stroke-width: 2px; opacity: 1;"/></g><g class="points"/><g class="text"/></g><g class="trace scatter tracee53f74" style="stroke-miterlimit: 2; opacity: 1;"><g class="fills"/><g class="errorbars"/><g class="lines"><path class="js-line" d="M0,384.97L221.54,384.24L231.61,384L251.75,383.11L261.82,381.7L271.89,379.49L281.96,378.88L292.03,377.77L302.1,374.55L312.17,370.3L322.24,365.01L332.31,356.69L342.38,349.61L352.45,343.96L362.52,337L372.59,331.01L382.66,329.63L402.8,326.23L412.87,329.76L422.94,332.66L433.01,334.44L443.08,335.01L453.15,330.76L463.22,330.3L473.29,332.06L483.36,331.13L493.43,333.84L503.5,337.15L513.57,339.01L543.78,341.12L553.85,342.2L563.92,339.9L573.99,326.1L594.13,303.49L604.2,278.91L614.27,252.21L624.34,265.74L634.41,265.05L644.48,282.07L654.55,344.95L664.62,365.6L674.69,364.01L684.76,356.93L694.83,347.41L704.9,340.92L725.04,332.93L735.11,327.04L745.18,314.7L755.25,310.3L765.32,327.36L775.39,347.51L785.46,353.54L795.53,352.34L805.6,357.47L815.67,368.27L825.74,374.78L835.81,376.45L845.88,377.14L855.95,378.92L866.02,380.42L876.09,381.12L896.23,382.95L906.3,383.32L946.58,384.6L956.65,384.68L996.93,384.73L1007,380.74" style="vector-effect: none; fill: none; stroke: rgb(217, 83, 79); stroke-opacity: 1; stroke-width: 2px; opacity: 1;"/></g><g class="points"/><g class="text"/></g><g class="trace scatter trace8ca7c4" style="stroke-miterlimit: 2; opacity: 1;"><g class="fills"/><g class="errorbars"/><g class="lines"><path class="js-line" d="M0,384.99L221.54,384.32L231.61,383.88L261.82,381.96L271.89,380.95L281.96,379.92L292.03,377.69L302.1,374.74L312.17,372.75L322.24,369.34L332.31,363.56L342.38,355.11L352.45,345.06L372.59,330.88L382.66,329.19L392.73,332.39L402.8,333.5L422.94,345.45L433.01,347.09L453.15,343.7L463.22,344.39L473.29,345.23L483.36,344.83L503.5,347.6L513.57,348.23L533.71,348.15L543.78,349.24L553.85,349.73L563.92,346.75L573.99,335.09L584.06,312.33L604.2,133.26L614.27,47.65L624.34,48.25L634.41,151.88L654.55,338.55L664.62,364.97L674.69,367.54L684.76,365.72L704.9,358.87L714.97,352.39L725.04,342.88L735.11,337.07L745.18,332.35L755.25,336.9L765.32,350.2L775.39,360.77L785.46,363.69L795.53,365.28L805.6,367.77L815.67,373.73L825.74,381.59L835.81,383.89L855.95,384.43L866.02,384.16L876.09,382.87L886.16,383.02L896.23,384.23L906.3,384.25L936.51,384L946.58,381.42L956.65,381.87L966.72,384.61L976.79,384.73L986.86,383.8L996.93,383.92L1007,384.89" style="vector-effect: none; fill: none; stroke: rgb(217, 83, 79); stroke-opacity: 1; stroke-width: 2px; opacity: 1;"/></g><g class="points"/><g class="text"/></g><g class="trace scatter trace8164ea" style="stroke-miterlimit: 2; opacity: 1;"><g class="fills"/><g class="errorbars"/><g class="lines"><path class="js-line" d="M0,384.98L231.61,384.24L241.68,383.94L251.75,383.51L261.82,382.08L271.89,380.19L281.96,379.9L292.03,379.07L302.1,376.49L312.17,371.8L322.24,366.22L332.31,358.14L342.38,352.56L352.45,348.78L362.52,343.2L372.59,339.98L382.66,340.22L392.73,339.04L402.8,336.78L412.87,339.25L422.94,343.09L433.01,346L443.08,346.6L453.15,343.36L463.22,342.84L473.29,344.21L483.36,342.67L493.43,343.92L503.5,346.45L513.57,348.21L523.64,348.31L533.71,347.45L543.78,347.94L553.85,348.57L563.92,343.52L584.06,272.25L594.13,242.97L604.2,188.29L614.27,141.62L624.34,144.56L634.41,102.95L644.48,150.63L654.55,312.01L664.62,367.75L674.69,370.94L684.76,368.64L694.83,365.05L704.9,361.88L714.97,357.4L725.04,351.02L735.11,340.83L745.18,316.8L755.25,306.63L775.39,360.63L785.46,364.43L795.53,361.94L805.6,365.7L815.67,375.35L825.74,380.4L835.81,380.89L845.88,380.47L855.95,381.53L866.02,381.33L876.09,380.73L886.16,382.59L896.23,383.76L906.3,383.57L966.72,384.85L976.79,384.87L996.93,384.88L1007,383.8" style="vector-effect: none; fill: none; stroke: rgb(217, 83, 79); stroke-opacity: 1; stroke-width: 2px; opacity: 1;"/></g><g class="points"/><g class="text"/></g><g class="trace scatter tracec4b03f" style="stroke-miterlimit: 2; opacity: 1;"><g class="fills"/><g class="errorbars"/><g class="lines"><path class="js-line" d="M0,384.95L191.33,384.49L201.4,384.14L231.61,382.64L241.68,381.81L261.82,379.52L271.89,378.04L292.03,374.22L302.1,371.41L312.17,368.52L322.24,364.79L332.31,360.13L342.38,354.57L352.45,348.2L362.52,342.75L372.59,336.5L382.66,333.12L392.73,332.72L402.8,329.9L412.87,328.93L422.94,329.6L433.01,327.91L443.08,324.73L453.15,321.59L463.22,319.9L483.36,317.36L493.43,317.71L533.71,321.03L543.78,324.84L553.85,328.37L563.92,329.44L573.99,327.21L584.06,320.51L594.13,275.34L604.2,239.68L614.27,212.79L624.34,213.69L654.55,346.79L664.62,353.8L674.69,348.99L684.76,341.03L694.83,330.1L704.9,322.78L714.97,320.89L725.04,315.88L735.11,308.66L745.18,305.64L755.25,312.52L765.32,329.58L775.39,343.13L785.46,348.76L805.6,365.68L815.67,374.51L825.74,381.93L835.81,383.97L866.02,384.53L876.09,384.18L936.51,384.81L946.58,384.33L1007,384.98" style="vector-effect: none; fill: none; stroke: rgb(217, 83, 79); stroke-opacity: 1; stroke-width: 2px; opacity: 1;"/></g><g class="points"/><g class="text"/></g><g class="trace scatter tracebd2e8c" style="stroke-miterlimit: 2; opacity: 1;"><g class="fills"/><g class="errorbars"/><g class="lines"><path class="js-line" d="M0,384.91L181.26,384.74L191.33,384.65L241.68,383.2L251.75,382.62L281.96,379.15L292.03,377.81L302.1,375.45L312.17,372.22L322.24,368.22L332.31,363.06L352.45,353.48L362.52,348.16L372.59,343.57L382.66,340.75L402.8,332.86L412.87,331.53L433.01,328.5L443.08,325.3L453.15,320.86L463.22,318.5L473.29,317L483.36,314.52L493.43,314.5L503.5,315.49L523.64,317.92L533.71,318.69L543.78,320.92L553.85,324.13L563.92,324.71L573.99,309.57L594.13,282.17L604.2,256.69L614.27,231.71L624.34,245.15L634.41,245.58L644.48,270L654.55,339.9L664.62,360.9L674.69,358.17L684.76,349.89L694.83,338.87L704.9,332.86L714.97,329.68L725.04,323.39L735.11,314.24L745.18,294.31L755.25,286.52L765.32,313.43L775.39,344.34L785.46,354.08L795.53,352.99L805.6,358.1L815.67,370.99L825.74,378.78L835.81,380.54L845.88,381.07L876.09,382.72L886.16,383.31L926.44,384.47L936.51,384.6L996.93,384.83L1007,383.21" style="vector-effect: none; fill: none; stroke: rgb(217, 83, 79); stroke-opacity: 1; stroke-width: 2px; opacity: 1;"/></g><g class="points"/><g class="text"/></g><g class="trace scatter tracec29e83" style="stroke-miterlimit: 2; opacity: 1;"><g class="fills"/><g class="errorbars"/><g class="lines"><path class="js-line" d="M0,384.88L201.4,384.74L211.47,384.62L241.68,383.95L251.75,383.58L292.03,380.97L302.1,379.21L322.24,375.84L332.31,372.7L342.38,368.34L352.45,362.38L362.52,357.84L372.59,352.01L382.66,350.22L392.73,352.59L402.8,351.97L412.87,355.62L422.94,360.9L433.01,362.29L453.15,360.61L463.22,360.96L473.29,361.68L483.36,361.54L503.5,363.21L513.57,363.38L543.78,362.84L553.85,363.05L563.92,359.84L573.99,351.96L584.06,339.16L594.13,276.09L604.2,221.94L614.27,187.37L624.34,195.94L634.41,249.24L644.48,280.2L654.55,328.7L664.62,361.91L674.69,368.43L684.76,369.23L694.83,367.42L704.9,365.59L714.97,360.88L725.04,349.59L735.11,343.2L745.18,341.66L755.25,347.18L765.32,361.56L775.39,371.46L805.6,375.43L815.67,378.68L825.74,383.18L835.81,384.37L866.02,384.61L876.09,384.19L936.51,384.46L946.58,383L956.65,383.28L966.72,384.8L1007,384.94" style="vector-effect: none; fill: none; stroke: rgb(217, 83, 79); stroke-opacity: 1; stroke-width: 2px; opacity: 1;"/></g><g class="points"/><g class="text"/></g><g class="trace scatter traced787f9" style="stroke-miterlimit: 2; opacity: 1;"><g class="fills"/><g class="errorbars"/><g class="lines"><path class="js-line" d="M0,384.8L120.84,384.96L130.91,384.95L241.68,384.35L251.75,384.11L292.03,381.85L302.1,380.18L322.24,375L332.31,370.7L372.59,357.64L382.66,357.4L402.8,354.56L412.87,356.68L433.01,362.51L443.08,362.79L453.15,359.8L463.22,359.69L473.29,360.44L483.36,358.95L513.57,363.03L523.64,362.66L533.71,361.46L543.78,361.32L553.85,361.46L563.92,354.03L584.06,309.33L594.13,281.49L604.2,236.12L614.27,224.55L624.34,255.15L634.41,240.05L644.48,263.32L654.55,346.14L664.62,373.11L674.69,374.21L694.83,370.82L704.9,368.22L714.97,363.4L725.04,354.88L735.11,342.95L745.18,323.85L755.25,320.35L765.32,345.32L775.39,365.67L785.46,369.74L795.53,368.92L805.6,371.58L815.67,377.74L825.74,381.02L855.95,382.6L866.02,382.41L876.09,382.13L886.16,383.41L896.23,384.22L906.3,384.2L976.79,384.88L986.86,384.88L996.93,384.87L1007,382.65" style="vector-effect: none; fill: none; stroke: rgb(217, 83, 79); stroke-opacity: 1; stroke-width: 2px; opacity: 1;"/></g><g class="points"/><g class="text"/></g><g class="trace scatter trace94c8b1" style="stroke-miterlimit: 2; opacity: 1;"><g class="fills"/><g class="errorbars"/><g class="lines"><path class="js-line" d="M0,384.99L181.26,384.31L191.33,383.99L221.54,381.88L231.61,380.54L251.75,376.87L261.82,374.15L281.96,367.77L292.03,363.45L312.17,353L322.24,346.75L332.31,339.61L342.38,331.25L352.45,321.96L362.52,314.73L372.59,307.96L382.66,302.55L392.73,298.44L402.8,293.13L422.94,285.69L433.01,280.68L443.08,274.87L453.15,270.04L463.22,266.95L473.29,264.83L483.36,263.44L493.43,263.45L513.57,267.43L523.64,268.08L533.71,273.17L543.78,282.44L563.92,296.95L573.99,303.55L584.06,308.34L594.13,300.8L614.27,286.47L624.34,292.82L634.41,311.83L644.48,328.83L654.55,347.29L664.62,355.31L674.69,357.19L684.76,354.71L694.83,348.06L704.9,343.62L714.97,343.42L725.04,340.37L735.11,334.89L745.18,331.89L755.25,333.79L765.32,342.32L775.39,351.15L785.46,355.96L815.67,376.95L825.74,382.28L835.81,383.89L845.88,384.21L896.23,384.75L906.3,384.81L1007,384.99" style="vector-effect: none; fill: none; stroke: rgb(240, 173, 78); stroke-opacity: 1; stroke-width: 2px; opacity: 1;"/></g><g class="points"/><g class="text"/></g><g class="trace scatter tracef31104" style="stroke-miterlimit: 2; opacity: 1;"><g class="fills"/><g class="errorbars"/><g class="lines"><path class="js-line" d="M0,384.97L191.33,384.26L201.4,383.96L231.61,382.26L241.68,381.26L251.75,379.88L261.82,377.39L271.89,374.13L281.96,371.77L292.03,368.84L302.1,364.25L322.24,351.09L332.31,343.28L362.52,320.49L372.59,314.41L382.66,309.03L392.73,302.35L402.8,295.22L412.87,290.11L433.01,280.49L443.08,274.84L453.15,268.81L463.22,264.77L483.36,260.79L493.43,260.59L503.5,262.31L513.57,265.52L533.71,273.01L543.78,279L563.92,293.66L573.99,296.43L594.13,301.46L604.2,300.48L614.27,301.65L624.34,307.77L634.41,303.22L644.48,314.55L654.55,345.42L664.62,356.93L674.69,356.57L684.76,351.16L694.83,342.16L704.9,338.85L714.97,340.07L725.04,338.36L735.11,334.82L745.18,325.65L755.25,319.2L765.32,333.68L775.39,355.5L785.46,362.88L795.53,362.51L805.6,367.09L815.67,375.59L825.74,380.67L835.81,382.26L845.88,382.8L876.09,383.98L886.16,384.2L956.65,384.86L966.72,384.88L1007,384.41" style="vector-effect: none; fill: none; stroke: rgb(240, 173, 78); stroke-opacity: 1; stroke-width: 2px; opacity: 1;"/></g><g class="points"/><g class="text"/></g><g class="trace scatter tracef5b124" style="stroke-miterlimit: 2; opacity: 1;"><g class="fills"/><g class="errorbars"/><g class="lines"><path class="js-line" d="M0,384.99L191.33,384.57L201.4,384.27L231.61,382.91L241.68,382.11L261.82,379.81L271.89,378.31L281.96,376.88L292.03,374.59L312.17,368.31L322.24,364.07L332.31,358.26L342.38,351.07L352.45,342.57L362.52,335.77L372.59,328.83L382.66,326.72L392.73,327.88L402.8,325.39L412.87,326.39L422.94,329.35L433.01,328.87L443.08,326.17L453.15,323.29L463.22,322.73L473.29,322.81L483.36,321.91L533.71,326.23L543.78,329.54L553.85,332.19L563.92,332.73L573.99,328.51L584.06,317.38L594.13,259.36L604.2,210.46L614.27,166.41L624.34,163.67L644.48,280.25L654.55,333.4L664.62,348.66L674.69,350.99L684.76,343.77L694.83,331.8L704.9,323.53L714.97,319L725.04,309.29L735.11,295.76L745.18,291.38L755.25,303.51L765.32,321.64L775.39,334.76L785.46,341.85L795.53,351.64L825.74,381.32L835.81,383.67L866.02,384.31L876.09,383.52L886.16,383.62L896.23,384.48L936.51,384.59L946.58,383.57L956.65,383.74L966.72,384.84L1007,384.95" style="vector-effect: none; fill: none; stroke: rgb(217, 83, 79); stroke-opacity: 1; stroke-width: 2px; opacity: 1;"/></g><g class="points"/><g class="text"/></g><g class="trace scatter traceab781f" style="stroke-miterlimit: 2; opacity: 1;"><g class="fills"/><g class="errorbars"/><g class="lines"><path class="js-line" d="M0,384.99L211.47,384.25L221.54,384.03L251.75,382.57L261.82,381.09L271.89,379.13L281.96,378.38L292.03,377.16L302.1,374.41L312.17,370.1L322.24,364.94L332.31,358.25L342.38,352.71L352.45,347.5L362.52,341.39L372.59,336.9L382.66,335.15L392.73,332.23L402.8,328.34L412.87,327.88L422.94,328.35L433.01,328.73L443.08,327.13L453.15,322.54L463.22,320.91L473.29,320.74L483.36,318.78L493.43,319.74L503.5,321.63L513.57,323.48L523.64,324.5L533.71,324.98L543.78,326.8L553.85,329.31L563.92,328.32L584.06,286.59L594.13,268.89L604.2,238.02L614.27,213.41L624.34,219.77L634.41,198.83L644.48,232.13L654.55,330.3L664.62,359.76L674.69,356.6L684.76,346.87L694.83,332.59L704.9,322.41L714.97,318.83L725.04,314.47L735.11,305.78L745.18,281.96L755.25,271.94L775.39,340.35L785.46,350.07L795.53,348.46L805.6,353.65L815.67,368.74L825.74,378.41L835.81,380.3L845.88,380.71L866.02,382.35L876.09,382.37L896.23,383.74L906.3,383.83L976.79,384.83L986.86,384.84L996.93,384.84L1007,383.84" style="vector-effect: none; fill: none; stroke: rgb(217, 83, 79); stroke-opacity: 1; stroke-width: 2px; opacity: 1;"/></g><g class="points"/><g class="text"/></g><g class="trace scatter trace222ad6" style="stroke-miterlimit: 2; opacity: 1;"><g class="fills"/><g class="errorbars"/><g class="lines"><path class="js-line" d="M0,384.85L181.26,384.85L191.33,384.8L241.68,383.29L251.75,382.78L292.03,379.58L302.1,377.36L322.24,372.82L332.31,368.94L342.38,364.38L352.45,358.88L362.52,353.74L372.59,346.42L382.66,343.09L392.73,344.39L402.8,341.75L412.87,343.83L422.94,348.81L433.01,349.29L443.08,347.7L453.15,345.35L493.43,343.32L503.5,343.42L513.57,342.39L523.64,340.2L533.71,339.01L543.78,339.99L553.85,340.23L563.92,336.85L573.99,328.57L584.06,313.15L594.13,243.95L604.2,188.42L614.27,139.92L624.34,144.67L634.41,182.18L644.48,188.97L654.55,268.53L664.62,338L674.69,358.18L684.76,364.37L704.9,364.51L714.97,362.47L725.04,354.22L735.11,348.19L745.18,347.05L755.25,353L765.32,365.28L775.39,372.2L795.53,375.4L805.6,376.82L815.67,379.26L825.74,382.69L845.88,383.98L855.95,384.28L866.02,383.93L876.09,382.71L886.16,383.09L896.23,384.34L936.51,384.19L946.58,382.26L956.65,382.68L966.72,384.74L1007,384.92" style="vector-effect: none; fill: none; stroke: rgb(217, 83, 79); stroke-opacity: 1; stroke-width: 2px; opacity: 1;"/></g><g class="points"/><g class="text"/></g><g class="trace scatter trace6081a6" style="stroke-miterlimit: 2; opacity: 1;"><g class="fills"/><g class="errorbars"/><g class="lines"><path class="js-line" d="M0,384.74L100.7,384.94L110.77,384.94L231.61,384.21L241.68,383.95L271.89,382.49L281.96,381.99L292.03,380.96L302.1,379.13L312.17,377.25L322.24,373.89L332.31,369.59L342.38,366.47L352.45,362.68L362.52,357.91L372.59,352.83L382.66,351.42L402.8,344.75L412.87,346.47L433.01,350.82L443.08,349.32L453.15,345.01L463.22,343.9L473.29,343.59L483.36,340.83L513.57,341.82L523.64,340.62L533.71,338.08L543.78,337.33L553.85,337.84L563.92,335.21L584.06,282.74L594.13,248.69L604.2,177.25L614.27,145.98L624.34,187.35L634.41,194.79L644.48,232.54L654.55,328.08L664.62,361.91L674.69,363.68L684.76,362.59L694.83,359.8L704.9,357.27L714.97,355.57L725.04,349.87L735.11,341.67L745.18,329.41L755.25,327.98L765.32,346.33L775.39,360.72L785.46,364.43L795.53,365.64L805.6,369.22L815.67,374.16L825.74,377.07L835.81,378.42L845.88,378.89L855.95,380.36L876.09,380.69L886.16,382.48L896.23,383.63L906.3,383.67L956.65,384.69L966.72,384.72L996.93,384.67L1007,379.48" style="vector-effect: none; fill: none; stroke: rgb(217, 83, 79); stroke-opacity: 1; stroke-width: 2px; opacity: 1;"/></g><g class="points"/><g class="text"/></g><g class="trace scatter trace9abf11" style="stroke-miterlimit: 2; opacity: 1;"><g class="fills"/><g class="errorbars"/><g class="lines"><path class="js-line" d="M0,384.95L221.54,384.43L231.61,384L281.96,381.15L292.03,379.64L322.24,372.6L332.31,368.34L342.38,362.41L352.45,355.14L362.52,348.93L372.59,341.77L382.66,339.37L392.73,341.38L402.8,339.85L412.87,343.44L422.94,349.83L433.01,351.13L453.15,346.61L463.22,346.35L473.29,346.37L483.36,345.51L503.5,346.88L513.57,346.46L533.71,344.14L543.78,344.71L553.85,344.99L563.92,341.34L573.99,330.81L584.06,311.59L604.2,127.95L614.27,47.38L624.34,57.48L634.41,175.65L644.48,262.98L654.55,309.47L664.62,331.36L674.69,358.29L684.76,364.13L694.83,362.39L704.9,361.04L714.97,355.46L725.04,339.48L735.11,328.86L745.18,323.34L755.25,330.21L765.32,353.21L775.39,367.06L785.46,366.61L795.53,367.29L805.6,368.17L815.67,372.99L825.74,381.13L835.81,383.4L855.95,384.07L866.02,383.64L876.09,382.17L886.16,382.57L896.23,384.03L906.3,384.09L926.44,384.3L936.51,383.34L946.58,379.29L956.65,380.2L966.72,384.45L976.79,384.58L986.86,382.92L996.93,383.13L1007,384.86" style="vector-effect: none; fill: none; stroke: rgb(217, 83, 79); stroke-opacity: 1; stroke-width: 2px; opacity: 1;"/></g><g class="points"/><g class="text"/></g><g class="trace scatter traceb04124" style="stroke-miterlimit: 2; opacity: 1;"><g class="fills"/><g class="errorbars"/><g class="lines"><path class="js-line" d="M0,384.9L201.4,384.77L211.47,384.58L251.75,383.89L261.82,383.35L292.03,380.9L302.1,378.92L312.17,376.38L322.24,372.41L332.31,367.25L342.38,363.11L372.59,349.38L382.66,348.75L402.8,342.86L412.87,344.81L433.01,351.26L443.08,351.04L453.15,346.52L463.22,345.1L473.29,344.9L483.36,342.21L493.43,343.25L503.5,345.29L513.57,345.94L523.64,344.78L533.71,342.82L543.78,342.34L553.85,342.7L563.92,332.78L584.06,267.71L594.13,231.25L604.2,170.81L614.27,130.94L624.34,156.97L634.41,131.2L644.48,169.56L654.55,314.97L664.62,366.21L674.69,370.57L684.76,370.2L694.83,368.97L704.9,367.03L714.97,360.84L725.04,347.56L735.11,329.44L745.18,300.87L755.25,294.04L765.32,329.19L775.39,357.94L785.46,362.64L795.53,360.79L805.6,364.94L815.67,373.77L825.74,378.05L835.81,378.8L845.88,378.63L855.95,380.02L876.09,377.55L886.16,380.98L896.23,383.18L906.3,382.97L946.58,384.69L956.65,384.75L996.93,384.82L1007,382.58" style="vector-effect: none; fill: none; stroke: rgb(217, 83, 79); stroke-opacity: 1; stroke-width: 2px; opacity: 1;"/></g><g class="points"/><g class="text"/></g><g class="trace scatter tracefac36b" style="stroke-miterlimit: 2; opacity: 1;"><g class="fills"/><g class="errorbars"/><g class="lines"><path class="js-line" d="M0,384.98L211.47,384.3L221.54,384.18L261.82,381.33L271.89,379.86L281.96,378.96L292.03,376.26L322.24,362.62L332.31,355.83L342.38,345.12L352.45,330.88L362.52,320.8L372.59,308.16L382.66,302.92L392.73,308.39L402.8,308.46L412.87,318.39L422.94,332.74L433.01,335.83L453.15,331.69L463.22,333.79L473.29,335.83L483.36,335.35L493.43,338.84L503.5,340.75L523.64,342.87L533.71,341.47L553.85,342.72L563.92,340.94L573.99,334.16L584.06,320.67L604.2,194.85L614.27,133.36L624.34,143L634.41,219.2L644.48,283.67L654.55,342.4L664.62,354.09L674.69,351.35L694.83,347.78L704.9,349.86L714.97,351.28L725.04,344.37L735.11,338.64L745.18,336.9L755.25,342.52L765.32,358.66L775.39,369.31L785.46,369.83L805.6,373.06L815.67,377.3L825.74,382.57L835.81,383.69L866.02,383.57L876.09,381.27L886.16,381.56L896.23,383.58L936.51,383.76L946.58,381.22L956.65,381.69L966.72,384.56L976.79,384.68L986.86,383.65L996.93,383.74L1007,384.82" style="vector-effect: none; fill: none; stroke: rgb(217, 83, 79); stroke-opacity: 1; stroke-width: 2px; opacity: 1;"/></g><g class="points"/><g class="text"/></g><g class="trace scatter tracea0bad9" style="stroke-miterlimit: 2; opacity: 1;"><g class="fills"/><g class="errorbars"/><g class="lines"><path class="js-line" d="M0,384.96L211.47,384.42L221.54,384.32L251.75,383.43L261.82,382.36L271.89,380.36L281.96,379.6L292.03,377.85L302.1,374.13L312.17,369.42L322.24,362.65L342.38,343.97L352.45,335.07L372.59,319.2L382.66,317.83L392.73,314.75L402.8,310.88L412.87,318.97L422.94,328.11L433.01,334.25L443.08,335.97L453.15,330.41L463.22,330.87L473.29,333.14L483.36,329.72L493.43,333.72L503.5,339.4L513.57,342.55L523.64,342.27L533.71,340.24L543.78,340.14L553.85,341.01L563.92,337.95L584.06,291.92L594.13,271.02L614.27,199.61L624.34,193.51L634.41,167.92L644.48,210.74L654.55,326.15L664.62,366.5L674.69,369.89L684.76,369.96L704.9,367.51L714.97,364.63L725.04,357.68L735.11,346.09L745.18,326.49L755.25,320.34L765.32,341.86L775.39,361.56L785.46,365.72L795.53,364.39L805.6,367.04L815.67,374.15L825.74,377.68L835.81,377.15L845.88,376.07L855.95,377.28L876.09,376.79L886.16,378.99L896.23,380.56L906.3,380.7L956.65,383.95L966.72,384.26L996.93,384.65L1007,382.07" style="vector-effect: none; fill: none; stroke: rgb(217, 83, 79); stroke-opacity: 1; stroke-width: 2px; opacity: 1;"/></g><g class="points"/><g class="text"/></g><g class="trace scatter trace7d8e72" style="stroke-miterlimit: 2; opacity: 1;"><g class="fills"/><g class="errorbars"/><g class="lines"><path class="js-line" d="M0,384.85L140.98,384.88L151.05,384.84L211.47,383.83L221.54,383.45L251.75,380.83L261.82,379.35L281.96,376.11L292.03,373.46L322.24,361.21L332.31,355.01L342.38,346.31L352.45,335.89L372.59,322.37L382.66,320.09L392.73,320.94L402.8,317.85L412.87,318.8L422.94,322.54L433.01,322.49L443.08,318.83L453.15,314.86L463.22,314.03L473.29,314.24L483.36,313.64L513.57,316.01L523.64,314.54L533.71,315.21L543.78,319.54L553.85,322.49L563.92,321.82L573.99,313.43L584.06,297.88L594.13,234.41L604.2,165.45L614.27,88.08L624.34,90.52L634.41,169.08L644.48,235.19L654.55,317.52L664.62,352.66L674.69,356.89L684.76,353.27L714.97,332.04L725.04,322.22L735.11,311.52L745.18,310.1L755.25,319.7L765.32,334.24L775.39,348.64L785.46,356.06L815.67,374.69L825.74,381.72L835.81,383.66L845.88,384.05L866.02,384.18L876.09,383.22L886.16,383.36L896.23,384.33L936.51,384.46L946.58,383.09L956.65,383.32L966.72,384.78L1007,384.93" style="vector-effect: none; fill: none; stroke: rgb(217, 83, 79); stroke-opacity: 1; stroke-width: 2px; opacity: 1;"/></g><g class="points"/><g class="text"/></g><g class="trace scatter trace550a47" style="stroke-miterlimit: 2; opacity: 1;"><g class="fills"/><g class="errorbars"/><g class="lines"><path class="js-line" d="M0,384.75L110.77,384.93L120.84,384.91L211.47,384.14L221.54,383.89L251.75,382.25L261.82,380.4L271.89,377.87L281.96,377.09L292.03,375.9L302.1,372.71L322.24,361.53L332.31,354.1L362.52,334.9L372.59,330.78L382.66,329.56L392.73,325.84L402.8,320.9L412.87,320.54L433.01,321.76L443.08,319.93L453.15,314.44L463.22,312.34L473.29,312.56L483.36,310.96L493.43,311.85L503.5,313.67L513.57,315.45L523.64,315.55L533.71,315.07L543.78,316.92L553.85,319.72L563.92,319.36L584.06,261.65L594.13,240.14L614.27,159.38L624.34,158.29L634.41,133.72L644.48,182.74L654.55,316.21L664.62,358.92L674.69,359.82L684.76,354.69L694.83,346.11L704.9,339.33L714.97,336.57L725.04,331.65L735.11,319.68L745.18,294.66L755.25,286.95L765.32,319.07L775.39,350.57L785.46,358.55L795.53,356.63L805.6,360.61L815.67,371.5L825.74,378.09L835.81,379.5L845.88,379.64L866.02,381.14L876.09,381.11L896.23,383.14L906.3,383.29L956.65,384.66L966.72,384.73L996.93,384.76L1007,383.41" style="vector-effect: none; fill: none; stroke: rgb(217, 83, 79); stroke-opacity: 1; stroke-width: 2px; opacity: 1;"/></g><g class="points"/><g class="text"/></g><g class="trace scatter traceb9f9cc" style="stroke-miterlimit: 2; opacity: 1;"><g class="fills"/><g class="errorbars"/><g class="lines"><path class="js-line" d="M0,385L221.54,384.43L231.61,384.09L261.82,382.35L271.89,381.49L281.96,380.94L292.03,379.51L322.24,371.36L332.31,367.22L342.38,361.68L352.45,354.08L372.59,343.32L382.66,342.11L392.73,344.36L402.8,343.76L412.87,347.85L422.94,353.78L433.01,355.51L443.08,354.76L453.15,353.88L463.22,355.12L473.29,356.5L483.36,356.56L503.5,359.09L513.57,359.51L533.71,358.89L543.78,359.88L553.85,359.61L563.92,355.72L573.99,344.28L584.06,326.2L594.13,254.39L604.2,192.39L614.27,129.71L624.34,123.97L644.48,280.92L654.55,345.34L664.62,343.17L674.69,350.92L684.76,368.37L694.83,371.62L704.9,372.41L714.97,371.29L725.04,365.03L735.11,360L745.18,359.11L755.25,364.61L765.32,374.06L775.39,378.82L805.6,380.76L815.67,382.06L825.74,383.89L835.81,384.46L926.44,384.79L936.51,384.47L946.58,383.12L956.65,383.4L966.72,384.82L976.79,384.87L996.93,384.34L1007,384.95" style="vector-effect: none; fill: none; stroke: rgb(217, 83, 79); stroke-opacity: 1; stroke-width: 2px; opacity: 1;"/></g><g class="points"/><g class="text"/></g><g class="trace scatter tracea19477" style="stroke-miterlimit: 2; opacity: 1;"><g class="fills"/><g class="errorbars"/><g class="lines"><path class="js-line" d="M0,384.99L231.61,384.37L241.68,384.09L261.82,382.76L271.89,381.17L292.03,380.48L302.1,378.24L322.24,370.07L332.31,364.25L352.45,357.35L362.52,352.57L372.59,350.1L382.66,350.36L402.8,346.01L412.87,349.22L422.94,352.56L433.01,355.01L443.08,355.39L453.15,353.45L473.29,355.15L483.36,354.32L513.57,359.35L523.64,359.25L533.71,358.58L543.78,358.78L553.85,358.69L563.92,353.69L584.06,292.89L594.13,262.11L604.2,215.75L614.27,176.74L624.34,182.84L634.41,174.64L644.48,220.51L654.55,334.17L664.62,373.44L674.69,377.13L684.76,377.51L694.83,376.14L714.97,373.87L725.04,369.38L735.11,362.49L745.18,350.72L755.25,349.05L765.32,362.99L775.39,373.72L785.46,376.6L795.53,376.19L805.6,377.13L815.67,379.45L825.74,380.58L855.95,381.17L866.02,380.85L876.09,380.66L886.16,382.05L906.3,383.16L916.37,383.54L946.58,384.51L956.65,384.65L996.93,384.84L1007,382.93" style="vector-effect: none; fill: none; stroke: rgb(217, 83, 79); stroke-opacity: 1; stroke-width: 2px; opacity: 1;"/></g><g class="points"/><g class="text"/></g><g class="trace scatter trace0fad59" style="stroke-miterlimit: 2; opacity: 1;"><g class="fills"/><g class="errorbars"/><g class="lines"><path class="js-line" d="M0,384.95L181.26,384.67L191.33,384.55L231.61,383L241.68,382.25L261.82,380.23L271.89,378.88L292.03,375.81L302.1,373.52L322.24,368.14L332.31,364.76L362.52,353.09L372.59,349.33L402.8,341.31L412.87,339.35L422.94,337.95L433.01,335.22L453.15,328.16L463.22,325.89L483.36,321.75L493.43,320.91L523.64,320.79L533.71,321.62L553.85,326.91L563.92,326.47L573.99,321.61L584.06,311.04L594.13,247.13L604.2,199.36L614.27,167.12L624.34,167.48L634.41,224.94L644.48,270.74L654.55,323.98L664.62,350.7L674.69,349.17L684.76,338.7L694.83,324.54L704.9,314.7L714.97,307.91L725.04,294.19L735.11,277.54L745.18,266.86L755.25,276L765.32,299.97L775.39,320.29L785.46,331.36L805.6,356.23L815.67,368.86L825.74,380.33L835.81,383.37L855.95,384.25L866.02,384.18L876.09,383.26L886.16,383.41L896.23,384.4L906.3,384.43L936.51,384.51L946.58,383.28L956.65,383.46L966.72,384.81L1007,384.92" style="vector-effect: none; fill: none; stroke: rgb(217, 83, 79); stroke-opacity: 1; stroke-width: 2px; opacity: 1;"/></g><g class="points"/><g class="text"/></g><g class="trace scatter trace4e510b" style="stroke-miterlimit: 2; opacity: 1;"><g class="fills"/><g class="errorbars"/><g class="lines"><path class="js-line" d="M0,384.91L181.26,384.75L191.33,384.66L241.68,383.39L251.75,382.86L292.03,378.68L302.1,376.75L322.24,371.45L332.31,367.81L392.73,347.75L402.8,343.92L433.01,336.53L443.08,332.9L453.15,328.55L463.22,325.4L483.36,320.35L493.43,319.13L503.5,318.68L513.57,319.16L533.71,319.13L543.78,320.99L553.85,323.8L563.92,318.56L573.99,298.17L584.06,280.67L594.13,257.98L604.2,222.94L614.27,210.11L624.34,231.24L634.41,209.35L644.48,236.03L654.55,328.24L664.62,355.4L674.69,351.03L684.76,339.39L694.83,325.06L704.9,314.95L714.97,307.99L725.04,298.19L735.11,284.49L745.18,256.01L755.25,243.08L765.32,282.92L775.39,327.71L785.46,338.77L795.53,336.24L805.6,344.42L815.67,364.84L825.74,376.86L835.81,379.07L845.88,379.39L866.02,381.47L876.09,381.51L896.23,383.25L906.3,383.45L966.72,384.74L976.79,384.77L996.93,384.77L1007,383.22" style="vector-effect: none; fill: none; stroke: rgb(217, 83, 79); stroke-opacity: 1; stroke-width: 2px; opacity: 1;"/></g><g class="points"/><g class="text"/></g><g class="trace scatter trace34c728" style="stroke-miterlimit: 2; opacity: 1;"><g class="fills"/><g class="errorbars"/><g class="lines"><path class="js-line" d="M0,384.83L191.33,384.88L201.4,384.79L251.75,383.61L261.82,383.32L302.1,381.02L312.17,379.66L332.31,378.02L342.38,377.36L402.8,369.34L412.87,369.63L422.94,370.67L433.01,370.22L463.22,366.46L473.29,365.74L493.43,364.06L503.5,363.48L523.64,361.65L533.71,360.51L553.85,359.43L563.92,354.7L573.99,341.03L584.06,317.59L594.13,237.48L604.2,167.01L614.27,89.04L624.34,80.45L644.48,266.89L654.55,316.15L664.62,246.18L674.69,250.05L684.76,330.79L694.83,349.43L704.9,352.89L714.97,347.22L725.04,333.93L735.11,325.54L745.18,315.77L755.25,322.95L765.32,350.57L775.39,367.65L805.6,372.17L815.67,376.48L825.74,382.2L835.81,383.87L866.02,384.34L876.09,383.86L936.51,384.52L946.58,383.6L956.65,383.82L966.72,384.87L1007,384.9" style="vector-effect: none; fill: none; stroke: rgb(217, 83, 79); stroke-opacity: 1; stroke-width: 2px; opacity: 1;"/></g><g class="points"/><g class="text"/></g><g class="trace scatter traced83abb" style="stroke-miterlimit: 2; opacity: 1;"><g class="fills"/><g class="errorbars"/><g class="lines"><path class="js-line" d="M0,384.71L90.63,384.95L100.7,384.95L241.68,384.24L251.75,384.07L281.96,383.05L292.03,382.47L332.31,378.1L342.38,377.6L362.52,375.61L372.59,374.64L382.66,373.92L392.73,371.17L402.8,369.37L412.87,370.26L422.94,370.66L433.01,370.15L463.22,366.75L473.29,365.91L543.78,358.19L553.85,357.16L563.92,351.79L573.99,316.22L584.06,283.26L594.13,254.44L604.2,190.91L614.27,120.21L624.34,141.06L634.41,140.98L644.48,180.57L654.55,318.48L664.62,366.11L674.69,368.52L694.83,362.76L704.9,358.84L714.97,349.81L725.04,335.81L735.11,316.75L745.18,286.9L755.25,283.2L765.32,318.59L775.39,346.72L785.46,354L795.53,352.29L805.6,356.26L815.67,367.08L825.74,373.31L845.88,376.37L855.95,378.11L886.16,381.6L896.23,382.78L946.58,384.55L956.65,384.64L996.93,384.7L1007,377.95" style="vector-effect: none; fill: none; stroke: rgb(217, 83, 79); stroke-opacity: 1; stroke-width: 2px; opacity: 1;"/></g><g class="points"/><g class="text"/></g><g class="trace scatter traceb4d001" style="stroke-miterlimit: 2; opacity: 1;"><g class="fills"/><g class="errorbars"/><g class="lines"><path class="js-line" d="M0,384.99L221.54,384.36L231.61,384.03L281.96,381.38L292.03,380.13L322.24,374.7L332.31,370.96L372.59,350.97L382.66,349.3L392.73,350.67L402.8,349.75L412.87,351.24L422.94,353.84L433.01,353.84L443.08,352.35L453.15,350.07L463.22,348.99L493.43,347.73L503.5,348.17L533.71,347.39L543.78,348.49L553.85,349.48L563.92,346.88L573.99,336.49L584.06,316.88L594.13,240.61L604.2,176.11L614.27,111.11L624.34,106.9L634.41,193.52L644.48,273.29L654.55,337.46L664.62,337.77L674.69,336.48L684.76,345.57L694.83,338.6L704.9,333.88L714.97,324.6L725.04,303.38L735.11,288.4L745.18,284.84L755.25,296.18L765.32,319.17L775.39,340.43L785.46,351.43L795.53,358.81L805.6,364.8L825.74,381.2L835.81,383.19L866.02,383.91L876.09,382.75L886.16,382.98L896.23,384.21L936.51,384.22L946.58,382.3L956.65,382.63L966.72,384.7L976.79,384.8L986.86,384.13L1007,384.9" style="vector-effect: none; fill: none; stroke: rgb(217, 83, 79); stroke-opacity: 1; stroke-width: 2px; opacity: 1;"/></g><g class="points"/><g class="text"/></g><g class="trace scatter traceadc282" style="stroke-miterlimit: 2; opacity: 1;"><g class="fills"/><g class="errorbars"/><g class="lines"><path class="js-line" d="M0,384.96L221.54,384.54L231.61,384.4L261.82,383.17L271.89,382.09L292.03,381.26L302.1,379.8L322.24,374.35L332.31,370L372.59,356.56L382.66,355.67L402.8,352.38L412.87,352.35L433.01,353.98L443.08,353.24L453.15,349.64L463.22,347.88L473.29,347.68L483.36,345.8L493.43,345.98L503.5,347.06L513.57,347.8L523.64,347.3L533.71,346.23L543.78,346.62L553.85,347.56L563.92,343.07L584.06,283.95L594.13,259.89L604.2,215.33L614.27,176.99L624.34,181.79L634.41,152.95L644.48,192.21L654.55,320.73L664.62,363.67L674.69,361.63L694.83,345.47L704.9,336.21L714.97,328.54L725.04,318.75L735.11,299.68L745.18,266.04L755.25,257.4L765.32,301.69L775.39,344.23L785.46,354.26L795.53,352.09L805.6,356.83L815.67,370.15L825.74,378.1L835.81,379.04L845.88,378.74L855.95,379.81L866.02,379.85L876.09,379.48L886.16,381L896.23,382.03L906.3,382.1L976.79,384.61L986.86,384.7L996.93,384.74L1007,383.34" style="vector-effect: none; fill: none; stroke: rgb(217, 83, 79); stroke-opacity: 1; stroke-width: 2px; opacity: 1;"/></g><g class="points"/><g class="text"/></g><g class="trace scatter tracee88337" style="stroke-miterlimit: 2; opacity: 1;"><g class="fills"/><g class="errorbars"/><g class="lines"><path class="js-line" d="M0,384.99L201.4,384.39L211.47,384.11L231.61,383.29L241.68,382.53L261.82,380.6L271.89,379.3L281.96,377.99L292.03,375.79L312.17,369.45L322.24,365.31L332.31,359.79L342.38,352.71L362.52,337.4L372.59,330.4L382.66,327.91L392.73,328.08L402.8,325.91L412.87,328.07L422.94,332.41L433.01,332.03L453.15,324.89L463.22,323.96L473.29,323.87L483.36,322.33L513.57,323.9L523.64,323.81L533.71,323.84L543.78,325.35L563.92,325.02L573.99,321.5L584.06,310.1L594.13,259.36L604.2,211.68L614.27,159.28L624.34,149.72L634.41,205.16L644.48,270.74L654.55,325.66L664.62,342.35L674.69,353.49L684.76,352.91L694.83,345.42L704.9,338.92L714.97,333.32L725.04,324.18L735.11,311.4L745.18,301.27L755.25,309.33L765.32,327.74L775.39,342.99L785.46,350.74L795.53,356.77L805.6,363.19L815.67,371.98L825.74,381.04L835.81,383.43L866.02,383.74L876.09,381.1L886.16,381.2L896.23,383.64L936.51,384.09L946.58,381.84L956.65,382.14L966.72,384.64L986.86,384.18L996.93,384.24L1007,384.88" style="vector-effect: none; fill: none; stroke: rgb(217, 83, 79); stroke-opacity: 1; stroke-width: 2px; opacity: 1;"/></g><g class="points"/><g class="text"/></g><g class="trace scatter trace4bad0d" style="stroke-miterlimit: 2; opacity: 1;"><g class="fills"/><g class="errorbars"/><g class="lines"><path class="js-line" d="M0,384.98L211.47,384.34L221.54,384.16L251.75,382.96L261.82,381.85L271.89,380.23L281.96,379.54L292.03,378.09L302.1,375.18L312.17,371.24L322.24,366.16L332.31,359.76L342.38,354.47L362.52,342.72L372.59,338.32L382.66,336.82L392.73,332.92L402.8,328.71L412.87,329.63L422.94,330.91L433.01,330.97L443.08,328.91L453.15,324.34L463.22,322.76L473.29,322.65L483.36,320.33L493.43,320.63L503.5,322.11L513.57,322.79L523.64,320.48L533.71,319.67L553.85,325.21L563.92,325.64L584.06,282.03L594.13,266.82L614.27,200.15L624.34,206.09L634.41,186.97L644.48,220.73L654.55,326.82L664.62,360.58L674.69,360.95L684.76,355.36L694.83,347.88L704.9,342.13L714.97,337.33L725.04,330.26L735.11,317.87L745.18,289.77L755.25,278.21L765.32,312.85L775.39,346.49L785.46,352.11L795.53,348.8L805.6,354.18L815.67,368.96L825.74,377.67L835.81,378.24L845.88,377.38L866.02,380.6L876.09,380.45L896.23,382.86L906.3,382.83L956.65,384.61L966.72,384.71L996.93,384.8L1007,383.47" style="vector-effect: none; fill: none; stroke: rgb(217, 83, 79); stroke-opacity: 1; stroke-width: 2px; opacity: 1;"/></g><g class="points"/><g class="text"/></g><g class="trace scatter trace370b71" style="stroke-miterlimit: 2; opacity: 1;"><g class="fills"/><g class="errorbars"/><g class="lines"><path class="js-line" d="M0,384.99L201.4,384.3L211.47,383.92L231.61,382.94L241.68,382.05L251.75,380.97L261.82,379.08L281.96,375.62L292.03,371.46L302.1,365.38L312.17,361L322.24,353.5L332.31,342.11L342.38,327.3L352.45,307.93L362.52,290.86L372.59,271.18L382.66,267.25L392.73,274.75L402.8,274L412.87,285.58L422.94,301.07L433.01,304.73L443.08,302.21L453.15,298.17L463.22,299.92L473.29,302.53L483.36,302.1L493.43,306.45L503.5,309.72L513.57,311.38L523.64,312.24L533.71,311.33L553.85,314.64L563.92,311.63L573.99,300.76L584.06,282.77L594.13,202.03L604.2,134.16L614.27,74.12L624.34,72.37L644.48,251.93L654.55,324.36L664.62,319.96L674.69,322.95L684.76,343.35L694.83,344.54L704.9,341.89L714.97,335.44L725.04,317.45L735.11,302.36L745.18,295.66L755.25,306.35L765.32,329.25L775.39,345.6L805.6,362.69L815.67,371.09L825.74,380.77L835.81,383.4L855.95,384.19L866.02,383.83L876.09,382.03L886.16,382.23L896.23,383.94L906.3,383.99L936.51,383.75L946.58,380.8L956.65,381.37L966.72,384.55L976.79,384.68L986.86,383.57L996.93,383.67L1007,384.83" style="vector-effect: none; fill: none; stroke: rgb(217, 83, 79); stroke-opacity: 1; stroke-width: 2px; opacity: 1;"/></g><g class="points"/><g class="text"/></g><g class="trace scatter trace8ddb73" style="stroke-miterlimit: 2; opacity: 1;"><g class="fills"/><g class="errorbars"/><g class="lines"><path class="js-line" d="M0,384.98L201.4,384.55L211.47,384.18L241.68,383.1L251.75,382.31L261.82,380.36L271.89,377.35L281.96,376.67L292.03,374.74L302.1,369.47L312.17,361.17L322.24,350.2L332.31,335.16L352.45,313.02L362.52,299.73L372.59,289.48L382.66,288.84L392.73,285.74L402.8,281.08L412.87,288.52L422.94,297.06L433.01,303.56L443.08,305.06L453.15,296.91L463.22,296.7L473.29,300.07L483.36,296.35L493.43,300.45L503.5,307.09L513.57,311.02L523.64,310.9L533.71,308.39L543.78,308.95L553.85,311.54L563.92,307.94L584.06,242.66L594.13,216.83L604.2,172.4L614.27,135.35L624.34,142.36L634.41,118.61L644.48,172.03L654.55,311.55L664.62,355.96L674.69,358.13L684.76,355.16L694.83,349.93L714.97,337.78L725.04,327.39L735.11,310.66L745.18,278.07L755.25,266.31L765.32,306.58L775.39,343.79L785.46,350.37L795.53,348.2L805.6,354.34L815.67,368.65L825.74,376.51L835.81,377.49L845.88,377.21L855.95,378.97L866.02,379.27L876.09,378.87L886.16,381.2L896.23,382.68L906.3,382.66L956.65,384.63L966.72,384.7L996.93,384.76L1007,382.64" style="vector-effect: none; fill: none; stroke: rgb(217, 83, 79); stroke-opacity: 1; stroke-width: 2px; opacity: 1;"/></g><g class="points"/><g class="text"/></g><g class="trace scatter trace873cdd" style="stroke-miterlimit: 2; opacity: 1;"><g class="fills"/><g class="errorbars"/><g class="lines"><path class="js-line" d="M0,384.95L201.4,384.43L211.47,384.18L241.68,382.77L251.75,382.02L281.96,378.87L292.03,377.08L322.24,368.38L332.31,364.21L342.38,358.49L352.45,351.12L362.52,345.53L372.59,338.72L382.66,336.24L392.73,338.06L402.8,336.14L412.87,338.79L422.94,343.59L433.01,343.83L453.15,340.47L463.22,340.42L473.29,341.1L483.36,340.45L513.57,341.79L523.64,340.54L533.71,338.99L543.78,340.73L553.85,343.26L563.92,341.96L573.99,334.38L584.06,318.78L594.13,245.56L604.2,184.38L614.27,135.86L624.34,131.96L634.41,182.49L644.48,253.92L654.55,341.9L664.62,364.99L674.69,366.11L684.76,362.67L704.9,350.33L714.97,346.46L735.11,333.14L745.18,332.97L755.25,340.55L765.32,354.79L775.39,364.11L785.46,366.24L815.67,377.9L825.74,382.58L835.81,383.87L845.88,384.14L866.02,384.11L876.09,382.71L886.16,382.85L896.23,384.17L936.51,384.18L946.58,382.14L956.65,382.48L966.72,384.69L976.79,384.79L986.86,384.1L1007,384.89" style="vector-effect: none; fill: none; stroke: rgb(217, 83, 79); stroke-opacity: 1; stroke-width: 2px; opacity: 1;"/></g><g class="points"/><g class="text"/></g><g class="trace scatter trace173e08" style="stroke-miterlimit: 2; opacity: 1;"><g class="fills"/><g class="errorbars"/><g class="lines"><path class="js-line" d="M0,384.9L191.33,384.74L201.4,384.61L251.75,383.18L261.82,382.24L271.89,380.75L281.96,380.2L292.03,379.21L302.1,376.75L312.17,373.5L322.24,369.46L342.38,359.23L352.45,354.82L372.59,345.56L382.66,344.4L402.8,338.44L412.87,340.21L433.01,344.19L443.08,343.34L453.15,339.51L463.22,338.93L473.29,339.3L483.36,337.51L513.57,341.21L523.64,339.46L533.71,338.7L543.78,340.91L553.85,342.21L563.92,338.78L584.06,285.2L594.13,261.13L614.27,175.18L624.34,189.77L634.41,185.47L644.48,221.87L654.55,329.95L664.62,364.39L674.69,364.79L684.76,360.73L694.83,354.28L704.9,350.88L714.97,349.42L725.04,344.87L735.11,336.36L745.18,320.73L755.25,318.05L765.32,339L775.39,358.83L785.46,365.44L795.53,365.26L805.6,368.15L815.67,375.23L825.74,379.64L835.81,380.49L845.88,380.29L855.95,381.54L866.02,381.93L876.09,381.6L886.16,383.06L896.23,384.06L906.3,383.93L976.79,384.86L986.86,384.86L996.93,384.85L1007,382.94" style="vector-effect: none; fill: none; stroke: rgb(217, 83, 79); stroke-opacity: 1; stroke-width: 2px; opacity: 1;"/></g><g class="points"/><g class="text"/></g><g class="trace scatter trace61b91b" style="stroke-miterlimit: 2; opacity: 1;"><g class="fills"/><g class="errorbars"/><g class="lines"><path class="js-line" d="M0,384.98L221.54,384.48L231.61,384.12L281.96,381.38L292.03,380.21L322.24,373.33L332.31,369.95L342.38,364.39L352.45,357.11L372.59,347.28L382.66,346.32L392.73,347.87L402.8,346.36L412.87,349.64L422.94,355.48L433.01,356.96L443.08,355.78L453.15,354.06L463.22,354.3L473.29,355.19L483.36,354.92L503.5,355.98L513.57,355.84L533.71,354.35L543.78,355.1L553.85,355.39L563.92,352.55L573.99,343.97L584.06,328.83L604.2,190.05L614.27,130.38L624.34,134.16L634.41,221.53L644.48,290.58L654.55,325.33L664.62,341.37L674.69,362.24L684.76,367.58L694.83,366.52L704.9,365.35L714.97,360.94L725.04,350.85L735.11,343.3L745.18,339.89L755.25,346.41L765.32,361.89L775.39,370.97L785.46,371.95L795.53,373.78L805.6,375.27L815.67,378.3L825.74,382.47L835.81,383.88L866.02,384.15L876.09,383.18L926.44,384.55L936.51,384.25L946.58,382.54L956.65,382.91L966.72,384.76L976.79,384.83L986.86,384.11L996.93,384.18L1007,384.92" style="vector-effect: none; fill: none; stroke: rgb(217, 83, 79); stroke-opacity: 1; stroke-width: 2px; opacity: 1;"/></g><g class="points"/><g class="text"/></g><g class="trace scatter trace34776d" style="stroke-miterlimit: 2; opacity: 1;"><g class="fills"/><g class="errorbars"/><g class="lines"><path class="js-line" d="M0,384.95L201.4,384.78L211.47,384.55L251.75,383.84L261.82,382.93L271.89,381.4L281.96,381.19L292.03,380.83L302.1,378.84L322.24,371.77L332.31,367.15L362.52,356.99L372.59,354.39L382.66,354.2L392.73,351.68L402.8,348.97L412.87,351.13L433.01,356.24L443.08,356.56L453.15,353.91L463.22,353.41L473.29,353.99L483.36,352.85L513.57,355.59L523.64,355.05L533.71,353.95L543.78,353.77L553.85,353.65L563.92,346.11L594.13,269.88L604.2,225.21L614.27,195.17L624.34,213.16L634.41,187.36L644.48,214.94L654.55,329.86L664.62,370.11L674.69,372.99L684.76,371.59L704.9,367.36L714.97,363.53L725.04,355.73L735.11,345.07L745.18,328.11L755.25,325.08L765.32,347.2L775.39,365.34L785.46,369.37L795.53,367.91L805.6,370.11L815.67,375.97L825.74,379.09L835.81,379.79L845.88,379.74L855.95,380.7L876.09,380.46L886.16,382.07L896.23,383.16L906.3,383.27L956.65,384.66L966.72,384.75L996.93,384.79L1007,382.76" style="vector-effect: none; fill: none; stroke: rgb(217, 83, 79); stroke-opacity: 1; stroke-width: 2px; opacity: 1;"/></g><g class="points"/><g class="text"/></g><g class="trace scatter traceff6dfd" style="stroke-miterlimit: 2; opacity: 1;"><g class="fills"/><g class="errorbars"/><g class="lines"><path class="js-line" d="M0,384.94L221.54,384.6L231.61,384.34L281.96,382.34L292.03,381.32L322.24,375.4L332.31,372.76L342.38,368.24L352.45,362.09L362.52,357.55L372.59,351.95L382.66,349.32L392.73,351.31L402.8,350.88L412.87,354.85L422.94,360.82L433.01,361.87L453.15,359.7L463.22,359.72L473.29,360L483.36,359.13L503.5,359.79L513.57,359.43L533.71,356.91L543.78,357.3L553.85,356.63L563.92,352.73L573.99,341.15L584.06,320.61L604.2,161.13L614.27,86.63L624.34,84.54L634.41,170.19L644.48,237.46L654.55,268.15L664.62,297.85L674.69,348.39L684.76,356.21L694.83,351.72L704.9,349.06L714.97,343.8L725.04,324.27L735.11,306.73L745.18,301.4L755.25,312.75L765.32,340.18L775.39,358.56L785.46,361.24L795.53,364.94L805.6,369.05L815.67,375.51L825.74,381.45L835.81,382.75L855.95,383.53L866.02,382.67L876.09,378.92L886.16,379.28L896.23,382.62L906.3,382.52L916.37,382.51L926.44,383.39L936.51,383.2L946.58,379.18L956.65,379.81L966.72,384.3L976.79,384.52L986.86,383.02L996.93,383.15L1007,384.73" style="vector-effect: none; fill: none; stroke: rgb(217, 83, 79); stroke-opacity: 1; stroke-width: 2px; opacity: 1;"/></g><g class="points"/><g class="text"/></g><g class="trace scatter tracedb397c" style="stroke-miterlimit: 2; opacity: 1;"><g class="fills"/><g class="errorbars"/><g class="lines"><path class="js-line" d="M0,384.86L161.12,384.92L171.19,384.91L251.75,384.15L261.82,383.69L292.03,381.72L302.1,380.12L312.17,378.32L322.24,375.6L362.52,360.85L372.59,355.89L392.73,353.43L402.8,351.87L422.94,358.78L433.01,360.9L443.08,361.44L453.15,358.24L463.22,357.85L473.29,358.71L483.36,356.79L493.43,357.62L503.5,359.05L513.57,359.36L553.85,355.51L563.92,350.06L584.06,286.74L594.13,259.4L614.27,146.03L624.34,154.4L634.41,125.26L644.48,161.94L654.55,311.14L664.62,362.37L674.69,364.74L684.76,362.36L704.9,354.62L714.97,348.03L725.04,333.45L735.11,310.87L745.18,281.06L755.25,276.52L765.32,311.53L775.39,343.67L785.46,353.16L795.53,351.61L805.6,355.61L815.67,367.25L825.74,373.73L835.81,373.32L845.88,372.55L855.95,375.69L866.02,376.92L876.09,376.72L886.16,379.96L896.23,382.15L916.37,382.7L926.44,383.91L956.65,384.61L966.72,384.69L996.93,384.71L1007,381.03" style="vector-effect: none; fill: none; stroke: rgb(217, 83, 79); stroke-opacity: 1; stroke-width: 2px; opacity: 1;"/></g><g class="points"/><g class="text"/></g><g class="trace scatter trace460e91" style="stroke-miterlimit: 2; opacity: 1;"><g class="fills"/><g class="errorbars"/><g class="lines"><path class="js-line" d="M0,384.98L181.26,384.39L191.33,384.14L221.54,382.29L231.61,381.05L251.75,377.73L261.82,375.02L281.96,369.28L292.03,365.2L312.17,353.57L322.24,346.61L332.31,338.68L342.38,327.19L352.45,313.93L362.52,307.41L372.59,302.04L382.66,298.21L392.73,296.18L402.8,290.25L412.87,286.47L422.94,284.21L433.01,280.01L443.08,274.26L453.15,269.08L463.22,266.29L493.43,262.74L503.5,264.26L513.57,265.46L523.64,261.51L533.71,265.45L543.78,277.57L553.85,285.04L563.92,290.89L573.99,295.2L584.06,296.9L594.13,276.3L604.2,252.83L614.27,232.03L624.34,236.64L644.48,315.69L654.55,342.46L664.62,351.57L674.69,356.9L684.76,356.94L694.83,354.76L704.9,354.08L714.97,355.51L725.04,355.89L735.11,354.21L745.18,355.09L755.25,359.77L765.32,365.53L775.39,369.67L795.53,374.82L805.6,377.72L825.74,383.14L835.81,383.83L866.02,384.4L876.09,383.98L946.58,384.6L956.65,384.64L986.86,384.9L996.93,384.91L1007,384.98" style="vector-effect: none; fill: none; stroke: rgb(217, 83, 79); stroke-opacity: 1; stroke-width: 2px; opacity: 1;"/></g><g class="points"/><g class="text"/></g><g class="trace scatter trace99ddfa" style="stroke-miterlimit: 2; opacity: 1;"><g class="fills"/><g class="errorbars"/><g class="lines"><path class="js-line" d="M0,384.94L171.19,384.62L181.26,384.48L221.54,383.08L231.61,382.33L251.75,379.81L261.82,376.01L271.89,371L281.96,369.67L292.03,368.46L302.1,363.62L322.24,347.83L332.31,338.62L342.38,330.19L352.45,323.29L362.52,314.82L372.59,309.44L382.66,305.53L392.73,299.45L402.8,292.23L412.87,287.69L433.01,279.78L443.08,274.93L453.15,268.27L463.22,264.74L483.36,261.69L493.43,261.67L503.5,263.02L513.57,266.05L523.64,269.01L533.71,270.89L543.78,275.37L553.85,281.73L563.92,285.34L573.99,282.51L584.06,280.4L594.13,275.74L604.2,264.47L614.27,264.73L624.34,276.9L634.41,259.08L644.48,277.12L654.55,337.52L664.62,356.02L674.69,357.17L684.76,354.11L694.83,347.93L704.9,348.42L714.97,352.77L725.04,355.03L735.11,355.06L745.18,350.87L755.25,350.51L775.39,369.46L785.46,373.21L795.53,373.56L805.6,375.33L815.67,378.93L825.74,381.33L855.95,383.06L866.02,383.57L946.58,384.82L956.65,384.85L996.93,384.87L1007,384.11" style="vector-effect: none; fill: none; stroke: rgb(217, 83, 79); stroke-opacity: 1; stroke-width: 2px; opacity: 1;"/></g><g class="points"/><g class="text"/></g><g class="trace scatter trace0f1217" style="stroke-miterlimit: 2; opacity: 1;"><g class="fills"/><g class="errorbars"/><g class="lines"><path class="js-line" d="M0,384.99L221.54,384.39L231.61,384.13L261.82,382.5L271.89,381.78L281.96,381.41L292.03,380.19L322.24,373.06L332.31,369.84L342.38,365.07L352.45,358.68L372.59,348.4L382.66,347.11L392.73,348.72L402.8,347.76L412.87,351.3L422.94,356.67L433.01,357.83L443.08,357.02L453.15,355.87L463.22,356.5L473.29,357.3L483.36,356.76L503.5,357.94L513.57,357.96L533.71,355.97L543.78,355.92L553.85,355.66L563.92,352.93L573.99,344.29L584.06,332L594.13,286.45L604.2,245.26L614.27,203.99L624.34,191.93L634.41,232.3L644.48,289.27L654.55,342.13L664.62,351.47L674.69,352.13L684.76,354.08L694.83,357.3L704.9,361.47L714.97,363.15L725.04,359.73L735.11,355.9L745.18,356.07L755.25,362.17L765.32,370.96L775.39,376.22L785.46,377.38L815.67,381.51L825.74,383.57L845.88,384.44L855.95,384.58L886.16,384.12L896.23,384.61L936.51,384.55L946.58,383.48L956.65,383.7L966.72,384.84L1007,384.95" style="vector-effect: none; fill: none; stroke: rgb(217, 83, 79); stroke-opacity: 1; stroke-width: 2px; opacity: 1;"/></g><g class="points"/><g class="text"/></g><g class="trace scatter traceaac0d8" style="stroke-miterlimit: 2; opacity: 1;"><g class="fills"/><g class="errorbars"/><g class="lines"><path class="js-line" d="M0,384.97L211.47,384.51L221.54,384.38L251.75,383.62L261.82,382.83L271.89,381.56L281.96,381.32L292.03,380.75L302.1,378.7L322.24,372.03L332.31,367.18L352.45,361.33L362.52,357.17L372.59,354.48L382.66,354.15L402.8,349.59L412.87,352.87L422.94,355.82L433.01,357.48L443.08,357.33L453.15,355.34L473.29,356.17L483.36,354.98L503.5,357.4L513.57,357.44L523.64,354.01L533.71,352.83L543.78,355.06L553.85,355.56L563.92,352.21L573.99,330.6L584.06,309.21L594.13,289.82L614.27,218.76L624.34,233.16L634.41,235.89L644.48,261.45L654.55,343.14L664.62,371.55L674.69,373.69L684.76,373.31L714.97,368.3L725.04,364.85L735.11,358.93L745.18,348.86L755.25,347.37L765.32,359.97L775.39,369.86L785.46,372.13L795.53,371.7L805.6,373.1L815.67,376L825.74,377.57L876.09,379.55L886.16,380.95L906.3,382.42L916.37,382.95L946.58,384.25L956.65,384.46L996.93,384.71L1007,381.6" style="vector-effect: none; fill: none; stroke: rgb(217, 83, 79); stroke-opacity: 1; stroke-width: 2px; opacity: 1;"/></g><g class="points"/><g class="text"/></g><g class="trace scatter trace190a9a" style="stroke-miterlimit: 2; opacity: 1;"><g class="fills"/><g class="errorbars"/><g class="lines"><path class="js-line" d="M0,384.95L201.4,384.55L211.47,384.35L241.68,383.26L251.75,382.71L281.96,380.17L292.03,378.7L322.24,372.13L332.31,368.39L362.52,353.95L372.59,349.57L382.66,347.6L392.73,347.72L402.8,346.18L412.87,347.11L422.94,349.1L433.01,348.62L463.22,342.46L473.29,341.66L483.36,340.23L493.43,340.11L533.71,340.18L543.78,341.34L553.85,342.3L563.92,341.05L573.99,334.37L584.06,321.06L594.13,263.59L604.2,213.74L614.27,164.53L624.34,158.02L644.48,279.76L654.55,319.42L674.69,349.96L684.76,347.24L694.83,337.07L704.9,331.18L714.97,323.95L725.04,308.42L735.11,293.4L745.18,282.77L755.25,289.92L765.32,309.36L775.39,326.5L785.46,337.9L805.6,357.57L815.67,369.06L825.74,380.12L835.81,383.28L855.95,384.2L866.02,383.92L876.09,382.06L886.16,382.23L896.23,384.03L906.3,384.07L936.51,384.19L946.58,381.98L956.65,382.29L966.72,384.66L976.79,384.78L986.86,384.12L1007,384.89" style="vector-effect: none; fill: none; stroke: rgb(217, 83, 79); stroke-opacity: 1; stroke-width: 2px; opacity: 1;"/></g><g class="points"/><g class="text"/></g><g class="trace scatter tracee9c238" style="stroke-miterlimit: 2; opacity: 1;"><g class="fills"/><g class="errorbars"/><g class="lines"><path class="js-line" d="M0,384.89L191.33,384.77L201.4,384.66L251.75,383.54L261.82,382.75L281.96,381.04L292.03,380.2L312.17,375.99L322.24,372.86L342.38,365.15L352.45,361.84L362.52,358.01L372.59,355.05L382.66,353.64L392.73,351.24L402.8,348.52L412.87,348.34L433.01,348.23L443.08,346.46L453.15,342.88L463.22,341.19L473.29,340.6L483.36,338.63L493.43,338.27L503.5,338.67L523.64,339.42L533.71,338.76L543.78,339.16L553.85,340.44L563.92,338.04L573.99,315.09L594.13,274.15L604.2,234.31L614.27,209.2L624.34,223.15L634.41,198.31L644.48,225.92L654.55,327.61L664.62,360.99L674.69,357.71L684.76,348.34L694.83,337.28L704.9,328.17L714.97,322.39L725.04,314.07L735.11,299.56L745.18,269.3L755.25,253.21L765.32,292.53L775.39,335.98L785.46,343.19L795.53,339.86L805.6,347.28L815.67,365.98L825.74,377.32L835.81,379.1L845.88,379.02L855.95,380.86L866.02,381.71L876.09,381.5L886.16,382.95L896.23,383.89L906.3,383.78L966.72,384.83L976.79,384.85L996.93,384.84L1007,383.3" style="vector-effect: none; fill: none; stroke: rgb(217, 83, 79); stroke-opacity: 1; stroke-width: 2px; opacity: 1;"/></g><g class="points"/><g class="text"/></g></g></g></g><path class="xlines-above crisp" d="M0,0" style="fill: none;"/><path class="ylines-above crisp" d="M0,0" style="fill: none;"/><g class="overlines-above"/><g class="xaxislayer-above"><g class="xtick"><text text-anchor="middle" x="0" y="451" transform="translate(67,0)" style="font-family: 'Lucida Grande', 'Open Sans', verdana, arial, sans-serif; font-size: 10px; fill: rgb(0, 0, 0); fill-opacity: 1; white-space: pre; opacity: 1;">0%</text></g><g class="xtick"><text text-anchor="middle" x="0" y="451" style="font-family: 'Lucida Grande', 'Open Sans', verdana, arial, sans-serif; font-size: 10px; fill: rgb(0, 0, 0); fill-opacity: 1; white-space: pre; opacity: 1;" transform="translate(268.4,0)">20%</text></g><g class="xtick"><text text-anchor="middle" x="0" y="451" style="font-family: 'Lucida Grande', 'Open Sans', verdana, arial, sans-serif; font-size: 10px; fill: rgb(0, 0, 0); fill-opacity: 1; white-space: pre; opacity: 1;" transform="translate(469.8,0)">40%</text></g><g class="xtick"><text text-anchor="middle" x="0" y="451" style="font-family: 'Lucida Grande', 'Open Sans', verdana, arial, sans-serif; font-size: 10px; fill: rgb(0, 0, 0); fill-opacity: 1; white-space: pre; opacity: 1;" transform="translate(671.2,0)">60%</text></g><g class="xtick"><text text-anchor="middle" x="0" y="451" style="font-family: 'Lucida Grande', 'Open Sans', verdana, arial, sans-serif; font-size: 10px; fill: rgb(0, 0, 0); fill-opacity: 1; white-space: pre; opacity: 1;" transform="translate(872.6,0)">80%</text></g><g class="xtick"><text text-anchor="middle" x="0" y="451" style="font-family: 'Lucida Grande', 'Open Sans', verdana, arial, sans-serif; font-size: 10px; fill: rgb(0, 0, 0); fill-opacity: 1; white-space: pre; opacity: 1;" transform="translate(1074,0)">100%</text></g></g><g class="yaxislayer-above"><g class="ytick"><text text-anchor="end" x="61" y="3.5" transform="translate(0,435)" style="font-family: 'Lucida Grande', 'Open Sans', verdana, arial, sans-serif; font-size: 10px; fill: rgb(0, 0, 0); fill-opacity: 1; white-space: pre; opacity: 1;">0</text></g><g class="ytick"><text text-anchor="end" x="61" y="3.5" style="font-family: 'Lucida Grande', 'Open Sans', verdana, arial, sans-serif; font-size: 10px; fill: rgb(0, 0, 0); fill-opacity: 1; white-space: pre; opacity: 1;" transform="translate(0,390.6)">0.5M</text></g><g class="ytick"><text text-anchor="end" x="61" y="3.5" style="font-family: 'Lucida Grande', 'Open Sans', verdana, arial, sans-serif; font-size: 10px; fill: rgb(0, 0, 0); fill-opacity: 1; white-space: pre; opacity: 1;" transform="translate(0,346.2)">1M</text></g><g class="ytick"><text text-anchor="end" x="61" y="3.5" style="font-family: 'Lucida Grande', 'Open Sans', verdana, arial, sans-serif; font-size: 10px; fill: rgb(0, 0, 0); fill-opacity: 1; white-space: pre; opacity: 1;" transform="translate(0,301.8)">1.5M</text></g><g class="ytick"><text text-anchor="end" x="61" y="3.5" style="font-family: 'Lucida Grande', 'Open Sans', verdana, arial, sans-serif; font-size: 10px; fill: rgb(0, 0, 0); fill-opacity: 1; white-space: pre; opacity: 1;" transform="translate(0,257.4)">2M</text></g><g class="ytick"><text text-anchor="end" x="61" y="3.5" style="font-family: 'Lucida Grande', 'Open Sans', verdana, arial, sans-serif; font-size: 10px; fill: rgb(0, 0, 0); fill-opacity: 1; white-space: pre; opacity: 1;" transform="translate(0,213)">2.5M</text></g><g class="ytick"><text text-anchor="end" x="61" y="3.5" style="font-family: 'Lucida Grande', 'Open Sans', verdana, arial, sans-serif; font-size: 10px; fill: rgb(0, 0, 0); fill-opacity: 1; white-space: pre; opacity: 1;" transform="translate(0,168.6)">3M</text></g><g class="ytick"><text text-anchor="end" x="61" y="3.5" style="font-family: 'Lucida Grande', 'Open Sans', verdana, arial, sans-serif; font-size: 10px; fill: rgb(0, 0, 0); fill-opacity: 1; white-space: pre; opacity: 1;" transform="translate(0,124.2)">3.5M</text></g><g class="ytick"><text text-anchor="end" x="61" y="3.5" style="font-family: 'Lucida Grande', 'Open Sans', verdana, arial, sans-serif; font-size: 10px; fill: rgb(0, 0, 0); fill-opacity: 1; white-space: pre; opacity: 1;" transform="translate(0,79.8)">4M</text></g></g><g class="overaxes-above"/></g></g><g class="polarlayer"/><g class="smithlayer"/><g class="ternarylayer"/><g class="geolayer"/><g class="funnelarealayer"/><g class="pielayer"/><g class="iciclelayer"/><g class="treemaplayer"/><g class="sunburstlayer"/><g class="glimages"/><defs id="topdefs-bcc679"><g class="clips"/></defs><g class="layer-above"><g class="imagelayer"/><g class="shapelayer"/></g><g class="infolayer"><g class="g-gtitle"><text class="gtitle" x="550" y="25" text-anchor="middle" dy="0em" style="opacity: 1; font-family: 'Lucida Grande', 'Open Sans', verdana, arial, sans-serif; font-size: 20px; fill: rgb(42, 63, 95); fill-opacity: 1; white-space: pre;"><tspan class="line" dy="0em" x="550" y="25">FastQC: Per Sequence GC Content</tspan><tspan class="line" dy="1.3em" x="550" y="25"><tspan style="font-size:70%" dy="-0.6em">Counts, 50 samples</tspan><tspan dy="0.42em"></tspan></tspan></text></g><g class="g-xtitle"><text class="xtitle" x="570.5" y="472.3" text-anchor="middle" style="opacity: 0.3; font-family: 'Lucida Grande', 'Open Sans', verdana, arial, sans-serif; font-size: 14px; fill: rgb(0, 0, 0); fill-opacity: 1; white-space: pre;">% GC</text></g><g class="g-ytitle"><text class="ytitle" transform="rotate(-90,22.06875,242.5)" x="22.06875" y="242.5" text-anchor="middle" style="opacity: 0.3; font-family: 'Lucida Grande', 'Open Sans', verdana, arial, sans-serif; font-size: 14px; fill: rgb(0, 0, 0); fill-opacity: 1; white-space: pre;">Count</text></g></g></svg>