<svg class="main-svg" xmlns="http://www.w3.org/2000/svg" xmlns:xlink="http://www.w3.org/1999/xlink" width="2200" height="1000" style="" viewBox="0 0 1100 500"><rect x="0" y="0" width="1100" height="500" style="fill: rgb(255, 255, 255); fill-opacity: 1;"/><defs id="defs-f4e0ee"><g class="clips"><clipPath id="clipf4e0eexyplot" class="plotclip"><rect width="1014" height="385"/></clipPath><clipPath class="axesclip" id="clipf4e0eex"><rect x="60" y="0" width="1014" height="500"/></clipPath><clipPath class="axesclip" id="clipf4e0eey"><rect x="0" y="50" width="1100" height="385"/></clipPath><clipPath class="axesclip" id="clipf4e0eexy"><rect x="60" y="50" width="1014" height="385"/></clipPath></g><g class="gradients"/><g class="patterns"/></defs><g class="bglayer"/><g class="layer-below"><g class="imagelayer"/><g class="shapelayer"/></g><g class="cartesianlayer"><g class="subplot xy"><g class="layer-subplot"><g class="shapelayer"/><g class="imagelayer"/></g><g class="minor-gridlayer"><g class="x"/><g class="y"/></g><g class="gridlayer"><g class="x"><path class="xgrid crisp" transform="translate(262.8,0)" d="M0,50v385" style="stroke: rgb(0, 0, 0); stroke-opacity: 0.05; stroke-width: 1px;"/><path class="xgrid crisp" transform="translate(465.6,0)" d="M0,50v385" style="stroke: rgb(0, 0, 0); stroke-opacity: 0.05; stroke-width: 1px;"/><path class="xgrid crisp" transform="translate(668.4,0)" d="M0,50v385" style="stroke: rgb(0, 0, 0); stroke-opacity: 0.05; stroke-width: 1px;"/><path class="xgrid crisp" transform="translate(871.2,0)" d="M0,50v385" style="stroke: rgb(0, 0, 0); stroke-opacity: 0.05; stroke-width: 1px;"/></g><g class="y"><path class="ygrid crisp" transform="translate(0,394.3)" d="M60,0h1014" style="stroke: rgb(0, 0, 0); stroke-opacity: 0.05; stroke-width: 1px;"/><path class="ygrid crisp" transform="translate(0,353.59)" d="M60,0h1014" style="stroke: rgb(0, 0, 0); stroke-opacity: 0.05; stroke-width: 1px;"/><path class="ygrid crisp" transform="translate(0,312.89)" d="M60,0h1014" style="stroke: rgb(0, 0, 0); stroke-opacity: 0.05; stroke-width: 1px;"/><path class="ygrid crisp" transform="translate(0,272.19)" d="M60,0h1014" style="stroke: rgb(0, 0, 0); stroke-opacity: 0.05; stroke-width: 1px;"/><path class="ygrid crisp" transform="translate(0,231.48)" d="M60,0h1014" style="stroke: rgb(0, 0, 0); stroke-opacity: 0.05; stroke-width: 1px;"/><path class="ygrid crisp" transform="translate(0,190.78)" d="M60,0h1014" style="stroke: rgb(0, 0, 0); stroke-opacity: 0.05; stroke-width: 1px;"/><path class="ygrid crisp" transform="translate(0,150.07999999999998)" d="M60,0h1014" style="stroke: rgb(0, 0, 0); stroke-opacity: 0.05; stroke-width: 1px;"/><path class="ygrid crisp" transform="translate(0,109.38)" d="M60,0h1014" style="stroke: rgb(0, 0, 0); stroke-opacity: 0.05; stroke-width: 1px;"/><path class="ygrid crisp" transform="translate(0,68.67)" d="M60,0h1014" style="stroke: rgb(0, 0, 0); stroke-opacity: 0.05; stroke-width: 1px;"/></g></g><g class="zerolinelayer"><path class="xzl zl crisp" transform="translate(60,0)" d="M0,50v385" style="stroke: rgb(0, 0, 0); stroke-opacity: 0.05; stroke-width: 2px;"/><path class="yzl zl crisp" transform="translate(0,435)" d="M60,0h1014" style="stroke: rgb(0, 0, 0); stroke-opacity: 0.05; stroke-width: 2px;"/></g><g class="layer-between"><g class="shapelayer"/><g class="imagelayer"/></g><path class="xlines-below"/><path class="ylines-below"/><g class="overlines-below"/><g class="xaxislayer-below"/><g class="yaxislayer-below"/><g class="overaxes-below"/><g class="overplot"><g class="xy" transform="translate(60,50)" clip-path="url(#clipf4e0eexyplot)"><g class="scatterlayer mlayer"><g class="trace scatter tracef67632" style="stroke-miterlimit: 2; opacity: 1;"><g class="fills"/><g class="errorbars"/><g class="lines"><path class="js-line" d="M0,368.56L10.14,367L20.28,364.59L50.7,356.51L60.84,354.7L101.4,348.11L111.54,346.94L182.52,342.09L192.66,340.05L202.8,324.16L212.94,284.4L223.08,273.11L233.22,299.78L243.36,331.69L253.5,337.35L263.64,338.42L273.78,336.34L283.92,335.46L294.06,328.88L304.2,294.75L314.34,291.26L324.48,322.53L334.62,338.54L344.76,338.96L354.9,338.44L385.32,339.3L395.46,339.59L415.74,338.97L425.88,334.77L436.02,329.9L446.16,331.12L456.3,337.75L466.44,339.73L496.86,339.98L507,339.91L527.28,340.68L537.42,342.18L557.7,343.74L567.84,344.03L628.68,345.3L638.82,345.55L679.38,346.49L689.52,346.68L730.08,348.27L740.22,348.73L780.78,350.37L790.92,351.15L861.9,353.05L872.04,353.69L932.88,357.58L943.02,359.55L963.3,362.96L973.44,366.28L993.72,375.75L1003.86,382.06" style="vector-effect: none; fill: none; stroke: rgb(124, 181, 236); stroke-opacity: 1; stroke-width: 2px; opacity: 1;"/></g><g class="points"/><g class="text"/></g><g class="trace scatter trace429dbf" style="stroke-miterlimit: 2; opacity: 1;"><g class="fills"/><g class="errorbars"/><g class="lines"><path class="js-line" d="M0,375.64L70.98,364.54L81.12,363.89L101.4,362.78L111.54,361.92L131.82,360.56L141.96,359.37L152.1,358.56L162.24,358.66L172.38,359.28L182.52,354.93L192.66,340.16L202.8,259.94L212.94,80.46L223.08,19.25L233.22,138.59L243.36,298.1L253.5,332.83L263.64,341.66L273.78,334.48L283.92,330.75L294.06,310.95L304.2,216.61L314.34,212.16L324.48,306.76L334.62,355.1L344.76,357.07L354.9,355.73L365.04,357.4L375.18,357.94L385.32,357.7L405.6,357.24L415.74,355.84L425.88,332.71L436.02,300.75L446.16,298.56L456.3,330.41L466.44,338.28L476.58,338.94L486.72,339.45L496.86,334.06L507,328.4L517.14,331.4L527.28,339.02L537.42,351.25L547.56,356.64L557.7,358.35L577.98,360.17L588.12,360.24L638.82,361.58L648.96,361.53L740.22,364.18L750.36,364.28L912.6,368.17L922.74,367.74L943.02,368.67L953.16,367.06L963.3,367.48L973.44,371.46L983.58,377.46L993.72,379.89L1003.86,383.47" style="vector-effect: none; fill: none; stroke: rgb(67, 67, 72); stroke-opacity: 1; stroke-width: 2px; opacity: 1;"/></g><g class="points"/><g class="text"/></g><g class="trace scatter traceddd369" style="stroke-miterlimit: 2; opacity: 1;"><g class="fills"/><g class="errorbars"/><g class="lines"><path class="js-line" d="M0,373.47L30.42,365.99L40.56,364.38L91.26,359.27L101.4,358.15L152.1,352.74L162.24,352.62L172.38,353.13L182.52,349.7L192.66,339.74L202.8,286.91L212.94,168.74L223.08,141.16L233.22,223.17L243.36,315.3L253.5,330.58L263.64,336.21L273.78,332.94L283.92,331.49L294.06,315.53L304.2,241.35L314.34,238.27L324.48,311.43L334.62,348.98L344.76,350.12L354.9,348.39L365.04,349.89L375.18,350.21L385.32,348.88L395.46,347.42L405.6,347.41L415.74,347.71L425.88,326.3L436.02,297.64L446.16,298.13L456.3,329L466.44,338.3L476.58,337.82L486.72,335.46L507,325.92L517.14,327.63L527.28,334L537.42,345.23L547.56,350.82L557.7,353.01L577.98,354.81L588.12,354.9L638.82,356.58L648.96,356.54L689.52,358.04L699.66,358.26L719.94,359.19L730.08,359.42L811.2,361.96L821.34,362.09L861.9,363.67L872.04,364.43L892.32,364.74L902.46,364.47L912.6,363.01L922.74,359.88L932.88,360.07L943.02,364.42L953.16,364.38L963.3,365.84L973.44,370.1L983.58,375.94L993.72,378.85L1003.86,383.16" style="vector-effect: none; fill: none; stroke: rgb(144, 237, 125); stroke-opacity: 1; stroke-width: 2px; opacity: 1;"/></g><g class="points"/><g class="text"/></g><g class="trace scatter tracedf720d" style="stroke-miterlimit: 2; opacity: 1;"><g class="fills"/><g class="errorbars"/><g class="lines"><path class="js-line" d="M0,370.78L30.42,361.38L40.56,359.23L60.84,356.35L70.98,353.57L101.4,347.4L111.54,345.94L131.82,344.41L141.96,343.86L172.38,342.34L182.52,339.89L192.66,336.55L202.8,329.53L212.94,318L223.08,317.37L243.36,333.76L253.5,333.4L263.64,331.76L273.78,326.53L283.92,323.97L294.06,316.12L304.2,307.22L314.34,315.74L324.48,336.26L334.62,340.56L344.76,340.1L354.9,338.71L375.18,338.16L385.32,336.04L395.46,332.83L405.6,332.09L415.74,334.33L425.88,330.82L436.02,323.29L446.16,321.07L456.3,328.47L466.44,330.92L476.58,330.68L486.72,329.57L496.86,329.95L507,328.83L527.28,330.06L537.42,334.52L557.7,341.96L567.84,343.73L577.98,344.89L588.12,345.29L618.54,347.4L628.68,347.73L669.24,348.54L679.38,348.25L709.8,348.35L719.94,348.85L811.2,353.93L821.34,353.93L841.62,354.55L851.76,355.31L882.18,357.61L892.32,357.15L902.46,356.09L912.6,353.86L922.74,347.72L932.88,346.41L943.02,352.34L953.16,354.09L963.3,357.43L973.44,363.96L983.58,372.49L993.72,377.07L1003.86,382.64" style="vector-effect: none; fill: none; stroke: rgb(247, 163, 92); stroke-opacity: 1; stroke-width: 2px; opacity: 1;"/></g><g class="points"/><g class="text"/></g><g class="trace scatter trace876076" style="stroke-miterlimit: 2; opacity: 1;"><g class="fills"/><g class="errorbars"/><g class="lines"><path class="js-line" d="M0,369.89L10.14,368.25L20.28,365.55L50.7,357.41L60.84,355.6L81.12,351.71L91.26,350.02L111.54,346.97L121.68,345.96L182.52,339.86L192.66,336.41L202.8,324.97L212.94,299.12L223.08,293.47L233.22,312.33L243.36,331.87L253.5,333.53L263.64,333.99L273.78,331.41L283.92,330.36L294.06,323.94L304.2,296.13L314.34,295.96L324.48,324.7L334.62,337.7L365.04,337.99L375.18,338.12L405.6,338.41L415.74,337.66L436.02,324.1L446.16,325.54L456.3,334.37L466.44,336.89L486.72,335.93L496.86,334.66L507,333.55L517.14,334.44L527.28,336.25L537.42,339.42L557.7,342.58L567.84,343.23L608.4,344.72L618.54,345.13L780.78,351.64L790.92,352.48L912.6,356.8L922.74,356.35L932.88,357.49L943.02,359.8L953.16,360.4L963.3,362.19L973.44,366.12L983.58,371.02L993.72,375.96L1003.86,382.15" style="vector-effect: none; fill: none; stroke: rgb(128, 133, 233); stroke-opacity: 1; stroke-width: 2px; opacity: 1;"/></g><g class="points"/><g class="text"/></g><g class="trace scatter trace8b57ae" style="stroke-miterlimit: 2; opacity: 1;"><g class="fills"/><g class="errorbars"/><g class="lines"><path class="js-line" d="M0,369.97L30.42,359.63L40.56,357.25L60.84,355.33L70.98,352.4L91.26,347.15L101.4,345.12L121.68,341.29L131.82,341.1L141.96,341.91L152.1,340.96L162.24,339.55L172.38,340.18L182.52,338.68L192.66,335.96L202.8,326.56L212.94,310.04L223.08,309.76L233.22,322.23L243.36,333.02L253.5,332.9L263.64,332.35L273.78,329.03L283.92,327.61L294.06,320.97L304.2,306.56L314.34,311.03L324.48,332.62L334.62,340.56L344.76,340.13L354.9,337.9L375.18,337.57L385.32,335.49L395.46,332.31L405.6,331.28L415.74,332.57L425.88,328.96L436.02,321.28L446.16,320.31L456.3,329.44L466.44,331.92L476.58,331.36L486.72,329.45L507,327.92L517.14,329.33L527.28,330.4L537.42,335.51L557.7,342.56L567.84,344.46L577.98,346.35L588.12,346.88L628.68,348.64L638.82,348.77L659.1,349.5L669.24,350.04L699.66,351.04L709.8,351.32L740.22,352.86L750.36,353.09L861.9,356.88L872.04,357.87L882.18,358.49L892.32,358.15L902.46,357.42L912.6,355.93L922.74,350.86L932.88,349.94L943.02,354.23L953.16,354.41L963.3,356.8L973.44,363.28L983.58,372.09L993.72,376.73L1003.86,382.45" style="vector-effect: none; fill: none; stroke: rgb(241, 92, 128); stroke-opacity: 1; stroke-width: 2px; opacity: 1;"/></g><g class="points"/><g class="text"/></g><g class="trace scatter trace2a72d1" style="stroke-miterlimit: 2; opacity: 1;"><g class="fills"/><g class="errorbars"/><g class="lines"><path class="js-line" d="M0,370.32L10.14,369.22L20.28,367.23L70.98,355.75L81.12,354.11L111.54,348.97L121.68,348.05L162.24,343.44L172.38,342.79L182.52,341.44L192.66,338.38L202.8,316.17L212.94,264.37L223.08,249.47L233.22,284.25L243.36,324.61L253.5,331.86L263.64,334.88L273.78,332.23L283.92,331.1L294.06,323.59L304.2,286.51L314.34,283.89L324.48,319.71L334.62,338.19L344.76,338.95L354.9,338.56L375.18,339.35L385.32,339.74L395.46,340.29L405.6,340.01L415.74,339.28L425.88,331.34L436.02,322.44L446.16,324.73L456.3,335.92L466.44,339.22L486.72,338.68L496.86,337.47L507,336.8L517.14,337.42L527.28,338.71L537.42,341.82L547.56,343.6L557.7,344.38L618.54,346.11L628.68,346.54L709.8,349.79L719.94,350.81L760.5,352.25L770.64,352.49L801.06,354.6L811.2,354.69L841.62,356.11L851.76,356.6L872.04,357.52L882.18,358.16L922.74,359.58L932.88,360.73L943.02,362.81L953.16,363.91L963.3,365.35L973.44,368.41L993.72,376.66L1003.86,382.42" style="vector-effect: none; fill: none; stroke: rgb(228, 211, 84); stroke-opacity: 1; stroke-width: 2px; opacity: 1;"/></g><g class="points"/><g class="text"/></g><g class="trace scatter trace00962a" style="stroke-miterlimit: 2; opacity: 1;"><g class="fills"/><g class="errorbars"/><g class="lines"><path class="js-line" d="M0,368.62L30.42,358.29L40.56,355.74L60.84,353L70.98,350.24L101.4,342.46L111.54,340.76L121.68,339.67L131.82,339.96L141.96,339.88L152.1,338.76L162.24,337.55L172.38,337.98L192.66,336.15L202.8,333.12L212.94,329.3L223.08,329.48L243.36,334.16L253.5,333.56L273.78,332.32L283.92,332.81L294.06,329.55L304.2,324.27L314.34,326.53L324.48,335.39L334.62,337.16L344.76,336.5L354.9,334.98L365.04,334.8L375.18,335.19L385.32,334.42L405.6,331.45L415.74,332.24L425.88,331.88L436.02,330.29L446.16,330.48L456.3,333.91L466.44,334.9L476.58,334.98L486.72,334.15L496.86,334.11L507,334.01L517.14,335.11L527.28,334.68L537.42,335.57L547.56,336.66L557.7,339.87L577.98,343.33L588.12,343.73L628.68,345.45L638.82,345.35L659.1,346.19L669.24,346.64L730.08,348.43L740.22,349.07L780.78,350.81L790.92,351.74L872.04,354.11L882.18,354.8L912.6,354.44L922.74,353.19L932.88,352.87L943.02,354.83L953.16,355.65L963.3,358.25L973.44,363.45L983.58,369.78L993.72,375.23L1003.86,381.9" style="vector-effect: none; fill: none; stroke: rgb(43, 144, 143); stroke-opacity: 1; stroke-width: 2px; opacity: 1;"/></g><g class="points"/><g class="text"/></g><g class="trace scatter trace635550" style="stroke-miterlimit: 2; opacity: 1;"><g class="fills"/><g class="errorbars"/><g class="lines"><path class="js-line" d="M0,370.39L10.14,367.69L20.28,364.08L30.42,360.8L40.56,358.6L60.84,356.35L70.98,354L111.54,347.07L121.68,345.36L162.24,341.66L172.38,342.11L182.52,339.79L192.66,335.3L202.8,322.75L212.94,302.26L223.08,300.57L233.22,316.44L243.36,331.7L253.5,332.91L263.64,332.21L273.78,324.35L283.92,319.76L294.06,309.17L304.2,289.09L314.34,296.42L324.48,329.25L334.62,342.36L344.76,342.99L354.9,341.86L375.18,341.94L385.32,340.69L405.6,337.81L415.74,337.14L425.88,329L436.02,318.17L446.16,317.06L456.3,328.62L466.44,331.5L476.58,330.92L496.86,325.91L507,323.93L527.28,328.27L537.42,334.22L557.7,343.9L567.84,346.55L577.98,348.05L588.12,348.52L618.54,350.11L628.68,350.46L648.96,350.46L659.1,351.19L689.52,352.19L699.66,352.52L760.5,354.92L770.64,355.24L861.9,357.75L872.04,358.78L882.18,359.33L892.32,358.83L902.46,357.87L912.6,355.99L922.74,349.78L932.88,348.03L943.02,352.06L953.16,350.03L963.3,352.57L973.44,360.96L983.58,372.12L993.72,376.57L1003.86,382.45" style="vector-effect: none; fill: none; stroke: rgb(244, 91, 91); stroke-opacity: 1; stroke-width: 2px; opacity: 1;"/></g><g class="points"/><g class="text"/></g><g class="trace scatter tracef667fc" style="stroke-miterlimit: 2; opacity: 1;"><g class="fills"/><g class="errorbars"/><g class="lines"><path class="js-line" d="M0,367.41L10.14,365.79L20.28,363.39L70.98,350.26L81.12,348.55L111.54,342.89L121.68,342.15L172.38,336.92L182.52,335.9L192.66,334.26L202.8,326.44L212.94,308.29L223.08,302.5L233.22,314.18L243.36,328.76L253.5,331.53L263.64,332.4L273.78,332.2L283.92,332.89L294.06,328.91L304.2,314.52L314.34,314.46L324.48,329.16L334.62,333.68L344.76,333.84L375.18,333.82L385.32,334.22L395.46,334.94L405.6,334.5L415.74,334.06L425.88,332.22L436.02,330.16L446.16,330.65L456.3,333.94L466.44,335.26L486.72,335.8L496.86,335.65L527.28,337L537.42,338.38L557.7,340.58L567.84,340.87L588.12,341.76L598.26,342.52L750.36,350.83L760.5,351.2L780.78,352.55L790.92,353.44L851.76,356.23L861.9,356.3L953.16,363.24L963.3,364.67L973.44,367.85L983.58,372.22L993.72,376.43L1003.86,382.32" style="vector-effect: none; fill: none; stroke: rgb(145, 232, 225); stroke-opacity: 1; stroke-width: 2px; opacity: 1;"/></g><g class="points"/><g class="text"/></g><g class="trace scatter trace719b3e" style="stroke-miterlimit: 2; opacity: 1;"><g class="fills"/><g class="errorbars"/><g class="lines"><path class="js-line" d="M0,368.1L10.14,366.72L20.28,364.35L60.84,354.45L70.98,352.36L111.54,345.8L121.68,345.01L182.52,339.33L192.66,337.33L202.8,321.04L212.94,275.56L223.08,262.03L233.22,292.79L243.36,327.86L253.5,333.15L263.64,335.02L273.78,334.66L283.92,334.7L294.06,328.81L304.2,296.2L314.34,293.34L324.48,322.1L334.62,336.34L344.76,337.03L354.9,336.76L405.6,337.86L415.74,337.75L436.02,330.73L446.16,332.46L456.3,337.5L466.44,338.99L527.28,339.81L537.42,341.17L557.7,343.08L567.84,343.33L618.54,345.11L628.68,345.66L679.38,347.86L689.52,348.33L730.08,350.68L740.22,351.19L770.64,352.17L780.78,352.93L801.06,354.14L811.2,354.14L851.76,355.69L861.9,355.92L912.6,359.67L922.74,360.36L943.02,362.88L953.16,364.26L963.3,365.85L973.44,368.56L983.58,372.03L993.72,376.31L1003.86,382.29" style="vector-effect: none; fill: none; stroke: rgb(124, 181, 236); stroke-opacity: 1; stroke-width: 2px; opacity: 1;"/></g><g class="points"/><g class="text"/></g><g class="trace scatter trace720f45" style="stroke-miterlimit: 2; opacity: 1;"><g class="fills"/><g class="errorbars"/><g class="lines"><path class="js-line" d="M0,368.11L10.14,367.04L20.28,364.85L60.84,354.61L70.98,352.3L111.54,344.97L121.68,344.18L172.38,338.8L182.52,337.67L192.66,335.02L202.8,324.67L212.94,302.09L223.08,296.71L233.22,312.27L243.36,330.5L253.5,333.03L263.64,334.13L283.92,334.59L294.06,330.69L304.2,313.84L314.34,312.3L324.48,327.57L334.62,334.29L365.04,335.04L375.18,334.82L415.74,335.51L425.88,331.74L436.02,327.83L446.16,328.78L456.3,334.01L466.44,335.87L486.72,336.41L496.86,335.63L507,335.31L517.14,336.37L527.28,337.39L537.42,339.38L557.7,341.39L567.84,341.64L659.1,344.3L669.24,344.94L750.36,349.55L760.5,349.82L780.78,351.25L790.92,352.17L872.04,355.7L882.18,356.41L902.46,357.73L912.6,358.67L943.02,362.32L953.16,363.93L963.3,365.85L973.44,368.95L993.72,376.73L1003.86,382.41" style="vector-effect: none; fill: none; stroke: rgb(67, 67, 72); stroke-opacity: 1; stroke-width: 2px; opacity: 1;"/></g><g class="points"/><g class="text"/></g><g class="trace scatter tracec699b0" style="stroke-miterlimit: 2; opacity: 1;"><g class="fills"/><g class="errorbars"/><g class="lines"><path class="js-line" d="M0,369.31L10.14,366.91L20.28,363.65L50.7,355.7L60.84,353.99L70.98,351.24L81.12,349.4L121.68,343.06L131.82,342.41L162.24,339.75L172.38,339.68L182.52,337.84L192.66,333.73L202.8,321.25L212.94,301.91L223.08,300.26L233.22,315.69L243.36,330.85L253.5,332.3L263.64,331.63L273.78,328.5L283.92,327.55L294.06,320.97L304.2,302.61L314.34,305.02L324.48,327.85L334.62,336.76L344.76,336.95L354.9,336.25L385.32,337.05L395.46,336.85L415.74,335.03L425.88,329.09L436.02,321.06L446.16,320.82L456.3,330.1L466.44,333.13L486.72,332.72L496.86,331.28L507,330.27L517.14,331.91L527.28,333.74L537.42,337.28L557.7,342.03L567.84,343.16L628.68,347.07L638.82,347.2L659.1,348.26L669.24,349L709.8,350.23L719.94,351.16L770.64,353.6L780.78,354.21L801.06,356.03L811.2,356.13L861.9,357.73L872.04,359.02L892.32,360.24L902.46,360.51L912.6,359.99L922.74,358.29L932.88,358.8L943.02,360.61L953.16,358.69L963.3,359.96L973.44,365.57L983.58,372.71L993.72,377.01L1003.86,382.54" style="vector-effect: none; fill: none; stroke: rgb(144, 237, 125); stroke-opacity: 1; stroke-width: 2px; opacity: 1;"/></g><g class="points"/><g class="text"/></g><g class="trace scatter tracead30ae" style="stroke-miterlimit: 2; opacity: 1;"><g class="fills"/><g class="errorbars"/><g class="lines"><path class="js-line" d="M0,368.8L10.14,367.51L20.28,365.28L40.56,360.04L50.7,356.92L101.4,346.51L111.54,344.78L131.82,342.71L141.96,341.46L192.66,336.03L202.8,326.75L212.94,298.29L223.08,286.24L233.22,304.81L243.36,329.41L253.5,332.68L263.64,333.3L283.92,336.77L294.06,333.3L304.2,311.71L314.34,309.31L324.48,328.03L334.62,333.65L395.46,335.15L405.6,334.58L415.74,334.11L425.88,331.79L436.02,329.09L446.16,329.96L456.3,334.03L466.44,335.44L527.28,336.69L537.42,338.35L557.7,340.27L567.84,340.47L588.12,341.28L598.26,342.02L709.8,347.11L719.94,348.44L780.78,352.05L790.92,353.38L811.2,354.42L821.34,354.84L872.04,357.79L882.18,358.65L922.74,361.04L932.88,362.06L943.02,363.45L953.16,363.76L963.3,365.15L973.44,368.69L1003.86,382.59" style="vector-effect: none; fill: none; stroke: rgb(247, 163, 92); stroke-opacity: 1; stroke-width: 2px; opacity: 1;"/></g><g class="points"/><g class="text"/></g><g class="trace scatter trace71a018" style="stroke-miterlimit: 2; opacity: 1;"><g class="fills"/><g class="errorbars"/><g class="lines"><path class="js-line" d="M0,370.5L20.28,362.36L30.42,359.48L40.56,357.92L50.7,357.45L60.84,357.07L70.98,354.55L101.4,348.01L111.54,347.09L131.82,345.75L141.96,345.57L162.24,343.62L172.38,344.46L182.52,342.44L192.66,337.36L202.8,320.82L212.94,291.74L223.08,287.66L233.22,308.11L243.36,328.99L253.5,331.87L263.64,332.19L273.78,323.86L283.92,319.08L294.06,308.66L304.2,287.79L314.34,295.44L324.48,329.53L334.62,343.63L344.76,343.48L354.9,340.81L375.18,341.6L385.32,340.02L395.46,337.25L405.6,336.11L415.74,336.78L425.88,328.35L436.02,314.45L446.16,312.29L456.3,326.33L466.44,330.6L476.58,330.48L486.72,329.11L496.86,326.94L507,323.72L517.14,324.79L527.28,327.02L537.42,334.47L547.56,340.17L557.7,345.31L567.84,347.55L577.98,349.68L588.12,350.19L638.82,351.54L648.96,351.69L679.38,352.91L689.52,353.02L790.92,356.38L801.06,357.07L851.76,358.54L861.9,358.77L882.18,360.47L892.32,360.01L912.6,357.41L922.74,352.26L932.88,350.63L943.02,354.33L953.16,353.7L963.3,355.86L973.44,362.75L983.58,372.71L993.72,376.86L1003.86,382.48" style="vector-effect: none; fill: none; stroke: rgb(128, 133, 233); stroke-opacity: 1; stroke-width: 2px; opacity: 1;"/></g><g class="points"/><g class="text"/></g><g class="trace scatter trace4718d5" style="stroke-miterlimit: 2; opacity: 1;"><g class="fills"/><g class="errorbars"/><g class="lines"><path class="js-line" d="M0,369.33L10.14,368.21L20.28,365.95L60.84,356.57L70.98,354.95L91.26,351.94L101.4,350.48L152.1,345.73L162.24,345.17L182.52,343.62L192.66,341.11L202.8,315.71L212.94,239.84L223.08,221.24L233.22,273.75L243.36,329.75L253.5,337.43L263.64,339.38L273.78,334.67L283.92,331.32L294.06,317.9L304.2,251.17L314.34,245.63L324.48,307.7L334.62,340.57L344.76,341.5L354.9,340.91L375.18,342.01L385.32,342.42L405.6,342.77L415.74,342.39L425.88,333.26L436.02,322.19L446.16,324.83L456.3,338.6L466.44,343.12L476.58,343.36L496.86,343.19L507,342.85L517.14,342.58L527.28,343.26L537.42,345.57L547.56,346.8L567.84,347.58L577.98,347.57L618.54,348.55L628.68,349.12L699.66,351.7L709.8,352L730.08,353.23L740.22,353.49L770.64,354.01L780.78,354.64L801.06,355.54L811.2,355.63L861.9,357.26L872.04,357.87L922.74,360.88L932.88,362.09L963.3,365.96L973.44,368.48L993.72,376.63L1003.86,382.39" style="vector-effect: none; fill: none; stroke: rgb(241, 92, 128); stroke-opacity: 1; stroke-width: 2px; opacity: 1;"/></g><g class="points"/><g class="text"/></g><g class="trace scatter trace227ef9" style="stroke-miterlimit: 2; opacity: 1;"><g class="fills"/><g class="errorbars"/><g class="lines"><path class="js-line" d="M0,371.43L20.28,366.36L30.42,363.7L50.7,359.89L60.84,358.42L70.98,356.06L81.12,354.57L121.68,349.19L131.82,348.26L162.24,346.14L172.38,346.08L182.52,343.15L192.66,336.44L202.8,308.58L212.94,256.8L223.08,247.94L233.22,285.98L243.36,324.76L253.5,331.13L263.64,332.65L273.78,322.21L283.92,315.55L294.06,299.85L304.2,262.71L314.34,270.14L324.48,320.37L334.62,342.14L344.76,343.32L354.9,342.21L385.32,343.32L395.46,343.08L415.74,341.43L425.88,329.55L436.02,313.68L446.16,313.27L456.3,329.82L466.44,334.87L476.58,334.94L486.72,333.13L496.86,327.25L507,323.87L517.14,327.83L527.28,333.37L537.42,340.76L547.56,344.58L557.7,347.09L567.84,348.28L608.4,350.35L618.54,350.75L760.5,356.02L770.64,356.21L872.04,360.7L882.18,361.29L932.88,361.81L943.02,363.44L953.16,363.75L963.3,365.21L973.44,368.84L983.58,373.83L993.72,377.78L1003.86,382.82" style="vector-effect: none; fill: none; stroke: rgb(228, 211, 84); stroke-opacity: 1; stroke-width: 2px; opacity: 1;"/></g><g class="points"/><g class="text"/></g><g class="trace scatter trace465134" style="stroke-miterlimit: 2; opacity: 1;"><g class="fills"/><g class="errorbars"/><g class="lines"><path class="js-line" d="M0,369.22L10.14,366.98L20.28,363.61L40.56,358.37L50.7,356.51L60.84,355.15L70.98,352.85L111.54,345.82L121.68,344.81L182.52,339.18L192.66,336.19L202.8,325.07L212.94,304.83L223.08,302.46L233.22,317.57L243.36,332.71L253.5,333.59L263.64,333.02L273.78,329.95L283.92,328.41L294.06,320.9L304.2,301.4L314.34,303.25L324.48,326.75L334.62,336.79L375.18,336.85L385.32,336.32L405.6,335.39L415.74,335.45L425.88,328.49L436.02,319.68L446.16,320.38L456.3,331.33L466.44,334.71L476.58,334.25L496.86,331.65L507,330.99L527.28,334.42L537.42,338.44L547.56,340.85L557.7,342.36L598.26,345.09L608.4,345.59L709.8,349.61L719.94,350.59L851.76,356.39L861.9,356.6L882.18,358.61L892.32,358.87L902.46,358.96L912.6,357.64L922.74,354.44L932.88,355.08L943.02,359.03L953.16,359.1L963.3,361.06L973.44,366.05L983.58,372.22L993.72,376.56L1003.86,382.39" style="vector-effect: none; fill: none; stroke: rgb(43, 144, 143); stroke-opacity: 1; stroke-width: 2px; opacity: 1;"/></g><g class="points"/><g class="text"/></g><g class="trace scatter trace5f4cd1" style="stroke-miterlimit: 2; opacity: 1;"><g class="fills"/><g class="errorbars"/><g class="lines"><path class="js-line" d="M0,368.71L10.14,367.63L20.28,365.42L70.98,353.1L81.12,351.43L101.4,347.4L111.54,345.98L141.96,342.59L152.1,341.24L182.52,338.67L192.66,336.63L202.8,325.35L212.94,301.39L223.08,294.4L233.22,310.41L243.36,329.39L253.5,332.18L263.64,332.94L273.78,330.79L283.92,330.32L294.06,325.67L304.2,310.74L314.34,311.88L324.48,329.43L334.62,336.5L405.6,336.66L415.74,336.55L436.02,325.94L446.16,326.75L456.3,334.1L466.44,336.12L496.86,335.33L507,334.88L527.28,336.83L537.42,339.76L557.7,342.79L567.84,343.28L689.52,347.07L699.66,347.48L709.8,347.87L719.94,349.03L750.36,350.17L760.5,350.5L841.62,353.89L851.76,354.32L872.04,355.35L882.18,355.97L912.6,356.99L922.74,356.52L932.88,357.28L943.02,359.36L953.16,359.96L963.3,361.72L973.44,365.86L983.58,371.03L993.72,375.67L1003.86,382.03" style="vector-effect: none; fill: none; stroke: rgb(244, 91, 91); stroke-opacity: 1; stroke-width: 2px; opacity: 1;"/></g><g class="points"/><g class="text"/></g><g class="trace scatter traceca88f5" style="stroke-miterlimit: 2; opacity: 1;"><g class="fills"/><g class="errorbars"/><g class="lines"><path class="js-line" d="M0,369.49L10.14,367.25L20.28,364.11L40.56,358.19L50.7,356.35L60.84,355.05L70.98,352.67L121.68,343.68L131.82,342.38L172.38,339.1L182.52,337.47L192.66,334.55L202.8,325.11L212.94,306.81L223.08,304.8L243.36,331.25L253.5,331.29L263.64,331.01L273.78,329.29L283.92,329.06L294.06,324.11L304.2,308.93L314.34,310.65L324.48,329.29L334.62,335.98L365.04,335.59L375.18,335.25L405.6,333.03L415.74,333.66L425.88,330.47L436.02,324.83L446.16,324.1L456.3,330.36L466.44,332.94L476.58,333.11L507,331.01L517.14,332L527.28,333.46L537.42,337.41L557.7,341.45L567.84,342.19L628.68,346.13L638.82,346.28L659.1,347.14L669.24,347.84L730.08,350.62L740.22,351.18L780.78,353.19L790.92,354.26L811.2,354.94L821.34,355.18L861.9,357.1L872.04,358.65L892.32,359.72L902.46,359.76L912.6,358.94L922.74,356.29L932.88,356.68L943.02,359.94L953.16,359.38L963.3,361.09L973.44,366.34L983.58,372.97L993.72,377.11L1003.86,382.58" style="vector-effect: none; fill: none; stroke: rgb(145, 232, 225); stroke-opacity: 1; stroke-width: 2px; opacity: 1;"/></g><g class="points"/><g class="text"/></g><g class="trace scatter trace6824fe" style="stroke-miterlimit: 2; opacity: 1;"><g class="fills"/><g class="errorbars"/><g class="lines"><path class="js-line" d="M0,369.04L20.28,364.51L30.42,362.02L50.7,356.94L60.84,355.09L91.26,349.21L101.4,347.31L121.68,344.76L131.82,343.62L152.1,341.16L162.24,340.42L182.52,338.8L192.66,336.41L202.8,322.04L212.94,286.55L223.08,277.21L233.22,301.24L243.36,328.57L253.5,332.4L263.64,333.39L273.78,331.81L283.92,331.28L294.06,324.99L304.2,298.75L314.34,298.55L324.48,324.58L334.62,335.46L354.9,335.95L365.04,336.18L385.32,336.55L395.46,337.09L415.74,336.64L425.88,332.22L436.02,327.5L446.16,328.84L456.3,334.99L466.44,336.88L486.72,337.2L496.86,336.44L507,336.19L517.14,337.36L527.28,338.23L537.42,340.09L557.7,342.11L567.84,342.48L608.4,344.28L618.54,344.68L679.38,347.57L689.52,347.95L719.94,349.81L730.08,350.46L780.78,352.76L790.92,353.83L811.2,354.7L821.34,354.93L861.9,356.8L872.04,357.82L932.88,361.7L943.02,363.24L963.3,365.72L973.44,368.67L993.72,376.84L1003.86,382.48" style="vector-effect: none; fill: none; stroke: rgb(124, 181, 236); stroke-opacity: 1; stroke-width: 2px; opacity: 1;"/></g><g class="points"/><g class="text"/></g><g class="trace scatter trace7ae42e" style="stroke-miterlimit: 2; opacity: 1;"><g class="fills"/><g class="errorbars"/><g class="lines"><path class="js-line" d="M0,369.04L40.56,357.7L50.7,355.91L152.1,343.81L162.24,343.74L172.38,343.53L182.52,341.41L192.66,333.54L202.8,303.03L212.94,235.97L223.08,221.4L233.22,268.96L243.36,325.48L253.5,334.47L263.64,336.14L273.78,334.9L283.92,334.88L294.06,324.23L304.2,279.13L314.34,276.47L324.48,320.24L334.62,340.1L344.76,341.1L354.9,340.84L365.04,341.75L385.32,341.29L395.46,340.94L415.74,341.15L425.88,328.89L436.02,312.72L446.16,312.03L456.3,329.13L466.44,335.41L476.58,337.47L486.72,338.16L507,333.23L517.14,334.89L527.28,337.63L537.42,342.49L547.56,345.01L557.7,346.51L577.98,348.2L588.12,348.39L638.82,350.57L648.96,350.67L730.08,355.42L740.22,355.82L780.78,357.04L790.92,357.84L821.34,358.91L831.48,359.17L872.04,361.15L882.18,361.91L932.88,364.57L943.02,365.76L963.3,367.77L973.44,370.83L1003.86,382.94" style="vector-effect: none; fill: none; stroke: rgb(67, 67, 72); stroke-opacity: 1; stroke-width: 2px; opacity: 1;"/></g><g class="points"/><g class="text"/></g><g class="trace scatter trace7f13e8" style="stroke-miterlimit: 2; opacity: 1;"><g class="fills"/><g class="errorbars"/><g class="lines"><path class="js-line" d="M0,369.33L30.42,358.52L40.56,355.92L81.12,347.73L91.26,345.21L111.54,341.05L121.68,340.23L131.82,340.21L141.96,339.23L162.24,337.67L172.38,337.72L182.52,336.97L192.66,335.24L212.94,328.73L223.08,328.47L243.36,332.62L253.5,331.91L263.64,331.23L273.78,332.3L283.92,334.35L294.06,332.51L304.2,328.48L314.34,329.48L324.48,335L334.62,334.1L365.04,333.14L375.18,333.24L395.46,332.69L405.6,331.79L415.74,331.73L425.88,330.64L436.02,328.78L446.16,328.93L456.3,331.82L466.44,333.1L476.58,333.49L486.72,332.97L507,332.35L517.14,333.69L547.56,336.05L557.7,337.72L618.54,342.97L628.68,343.35L648.96,343.48L659.1,344.76L669.24,345.79L679.38,346.01L709.8,346.17L719.94,347.08L770.64,350.17L780.78,351.01L790.92,352.85L801.06,353.79L831.48,354.14L841.62,354.78L861.9,354.39L872.04,356.23L892.32,358.66L902.46,359.08L932.88,359.29L943.02,360.51L953.16,360.6L963.3,362.67L973.44,366.32L983.58,370.77L993.72,375.68L1003.86,382.12" style="vector-effect: none; fill: none; stroke: rgb(144, 237, 125); stroke-opacity: 1; stroke-width: 2px; opacity: 1;"/></g><g class="points"/><g class="text"/></g><g class="trace scatter traceafdfc9" style="stroke-miterlimit: 2; opacity: 1;"><g class="fills"/><g class="errorbars"/><g class="lines"><path class="js-line" d="M0,367.58L10.14,366.16L20.28,363.74L70.98,350.33L81.12,348.72L111.54,343.42L121.68,342.59L182.52,336.06L192.66,333.95L202.8,324L212.94,301.56L223.08,295L233.22,310.69L243.36,329.63L253.5,331.51L263.64,331.64L273.78,330.46L283.92,331.16L294.06,327.27L304.2,314.31L314.34,315.55L324.48,330.66L334.62,334.4L385.32,335.23L395.46,335.84L415.74,335.65L425.88,332.29L436.02,328.64L446.16,329.43L456.3,334.6L466.44,336.1L496.86,336.28L507,336.04L527.28,337.51L537.42,339.42L557.7,341.79L567.84,342.08L598.26,343.14L608.4,343.75L709.8,348.24L719.94,349.47L760.5,351.27L770.64,351.72L801.06,354.11L811.2,354.38L861.9,355.97L872.04,356.81L932.88,360.83L943.02,362.32L953.16,362.88L963.3,364.31L973.44,367.81L983.58,372.11L993.72,376.44L1003.86,382.28" style="vector-effect: none; fill: none; stroke: rgb(247, 163, 92); stroke-opacity: 1; stroke-width: 2px; opacity: 1;"/></g><g class="points"/><g class="text"/></g><g class="trace scatter trace0b5959" style="stroke-miterlimit: 2; opacity: 1;"><g class="fills"/><g class="errorbars"/><g class="lines"><path class="js-line" d="M0,369.9L20.28,363.74L30.42,360.58L40.56,358.37L50.7,357.11L60.84,356.05L70.98,353.7L121.68,345.54L131.82,344.64L162.24,342.56L172.38,342.94L182.52,340.61L192.66,335.61L202.8,318.25L212.94,287.46L223.08,284.67L233.22,307.62L243.36,328.63L253.5,330.5L263.64,331.19L273.78,323.28L283.92,318.42L294.06,304.2L304.2,278.15L314.34,286.77L324.48,326.18L334.62,341.05L344.76,341.58L354.9,340.12L375.18,341.27L385.32,340.67L405.6,338.57L415.74,338.69L425.88,329.89L436.02,316.87L446.16,315.8L456.3,329.7L466.44,333.67L476.58,333.14L486.72,330.46L496.86,326.43L507,324.48L517.14,327.88L527.28,331.01L537.42,337.06L557.7,344.95L567.84,346.9L577.98,348.2L588.12,348.63L638.82,350.87L648.96,350.91L740.22,354.81L750.36,355L811.2,357.27L821.34,357.48L861.9,358.87L872.04,359.84L892.32,360.31L902.46,360.16L912.6,359.71L922.74,357.18L932.88,356.28L943.02,358.34L953.16,358.03L963.3,359.95L973.44,365.55L983.58,372.92L993.72,377.22L1003.86,382.66" style="vector-effect: none; fill: none; stroke: rgb(128, 133, 233); stroke-opacity: 1; stroke-width: 2px; opacity: 1;"/></g><g class="points"/><g class="text"/></g></g></g></g><path class="xlines-above crisp" d="M0,0" style="fill: none;"/><path class="ylines-above crisp" d="M0,0" style="fill: none;"/><g class="overlines-above"/><g class="xaxislayer-above"><g class="xtick"><text text-anchor="middle" x="0" y="451" transform="translate(60,0)" style="font-family: 'Lucida Grande', 'Open Sans', verdana, arial, sans-serif; font-size: 10px; fill: rgb(0, 0, 0); fill-opacity: 1; white-space: pre; opacity: 1;">0%</text></g><g class="xtick"><text text-anchor="middle" x="0" y="451" style="font-family: 'Lucida Grande', 'Open Sans', verdana, arial, sans-serif; font-size: 10px; fill: rgb(0, 0, 0); fill-opacity: 1; white-space: pre; opacity: 1;" transform="translate(262.8,0)">20%</text></g><g class="xtick"><text text-anchor="middle" x="0" y="451" style="font-family: 'Lucida Grande', 'Open Sans', verdana, arial, sans-serif; font-size: 10px; fill: rgb(0, 0, 0); fill-opacity: 1; white-space: pre; opacity: 1;" transform="translate(465.6,0)">40%</text></g><g class="xtick"><text text-anchor="middle" x="0" y="451" style="font-family: 'Lucida Grande', 'Open Sans', verdana, arial, sans-serif; font-size: 10px; fill: rgb(0, 0, 0); fill-opacity: 1; white-space: pre; opacity: 1;" transform="translate(668.4,0)">60%</text></g><g class="xtick"><text text-anchor="middle" x="0" y="451" style="font-family: 'Lucida Grande', 'Open Sans', verdana, arial, sans-serif; font-size: 10px; fill: rgb(0, 0, 0); fill-opacity: 1; white-space: pre; opacity: 1;" transform="translate(871.2,0)">80%</text></g><g class="xtick"><text text-anchor="middle" x="0" y="451" style="font-family: 'Lucida Grande', 'Open Sans', verdana, arial, sans-serif; font-size: 10px; fill: rgb(0, 0, 0); fill-opacity: 1; white-space: pre; opacity: 1;" transform="translate(1074,0)">100%</text></g></g><g class="yaxislayer-above"><g class="ytick"><text text-anchor="end" x="54" y="3.5" transform="translate(0,435)" style="font-family: 'Lucida Grande', 'Open Sans', verdana, arial, sans-serif; font-size: 10px; fill: rgb(0, 0, 0); fill-opacity: 1; white-space: pre; opacity: 1;">0%</text></g><g class="ytick"><text text-anchor="end" x="54" y="3.5" style="font-family: 'Lucida Grande', 'Open Sans', verdana, arial, sans-serif; font-size: 10px; fill: rgb(0, 0, 0); fill-opacity: 1; white-space: pre; opacity: 1;" transform="translate(0,394.3)">1%</text></g><g class="ytick"><text text-anchor="end" x="54" y="3.5" style="font-family: 'Lucida Grande', 'Open Sans', verdana, arial, sans-serif; font-size: 10px; fill: rgb(0, 0, 0); fill-opacity: 1; white-space: pre; opacity: 1;" transform="translate(0,353.59)">2%</text></g><g class="ytick"><text text-anchor="end" x="54" y="3.5" style="font-family: 'Lucida Grande', 'Open Sans', verdana, arial, sans-serif; font-size: 10px; fill: rgb(0, 0, 0); fill-opacity: 1; white-space: pre; opacity: 1;" transform="translate(0,312.89)">3%</text></g><g class="ytick"><text text-anchor="end" x="54" y="3.5" style="font-family: 'Lucida Grande', 'Open Sans', verdana, arial, sans-serif; font-size: 10px; fill: rgb(0, 0, 0); fill-opacity: 1; white-space: pre; opacity: 1;" transform="translate(0,272.19)">4%</text></g><g class="ytick"><text text-anchor="end" x="54" y="3.5" style="font-family: 'Lucida Grande', 'Open Sans', verdana, arial, sans-serif; font-size: 10px; fill: rgb(0, 0, 0); fill-opacity: 1; white-space: pre; opacity: 1;" transform="translate(0,231.48)">5%</text></g><g class="ytick"><text text-anchor="end" x="54" y="3.5" style="font-family: 'Lucida Grande', 'Open Sans', verdana, arial, sans-serif; font-size: 10px; fill: rgb(0, 0, 0); fill-opacity: 1; white-space: pre; opacity: 1;" transform="translate(0,190.78)">6%</text></g><g class="ytick"><text text-anchor="end" x="54" y="3.5" style="font-family: 'Lucida Grande', 'Open Sans', verdana, arial, sans-serif; font-size: 10px; fill: rgb(0, 0, 0); fill-opacity: 1; white-space: pre; opacity: 1;" transform="translate(0,150.07999999999998)">7%</text></g><g class="ytick"><text text-anchor="end" x="54" y="3.5" style="font-family: 'Lucida Grande', 'Open Sans', verdana, arial, sans-serif; font-size: 10px; fill: rgb(0, 0, 0); fill-opacity: 1; white-space: pre; opacity: 1;" transform="translate(0,109.38)">8%</text></g><g class="ytick"><text text-anchor="end" x="54" y="3.5" style="font-family: 'Lucida Grande', 'Open Sans', verdana, arial, sans-serif; font-size: 10px; fill: rgb(0, 0, 0); fill-opacity: 1; white-space: pre; opacity: 1;" transform="translate(0,68.67)">9%</text></g></g><g class="overaxes-above"/></g></g><g class="polarlayer"/><g class="smithlayer"/><g class="ternarylayer"/><g class="geolayer"/><g class="funnelarealayer"/><g class="pielayer"/><g class="iciclelayer"/><g class="treemaplayer"/><g class="sunburstlayer"/><g class="glimages"/><defs id="topdefs-f4e0ee"><g class="clips"/></defs><g class="layer-above"><g class="imagelayer"/><g class="shapelayer"/></g><g class="infolayer"><g class="g-gtitle"><text class="gtitle" x="550" y="25" text-anchor="middle" dy="0em" style="opacity: 1; font-family: 'Lucida Grande', 'Open Sans', verdana, arial, sans-serif; font-size: 20px; fill: rgb(42, 63, 95); fill-opacity: 1; white-space: pre;"><tspan class="line" dy="0em" x="550" y="25">QualiMap: RNAseq: Coverage Profile Along Genes (total)</tspan><tspan class="line" dy="1.3em" x="550" y="25">​<tspan style="font-size:70%" dy="-0.6em">Normalised, 25 samples</tspan><tspan dy="0.42em">​</tspan></tspan></text></g><g class="g-xtitle"><text class="xtitle" x="567" y="472.3" text-anchor="middle" style="opacity: 0.3; font-family: 'Lucida Grande', 'Open Sans', verdana, arial, sans-serif; font-size: 14px; fill: rgb(0, 0, 0); fill-opacity: 1; white-space: pre;">Transcript Position (%)</text></g><g class="g-ytitle"><text class="ytitle" transform="rotate(-90,23.725,242.5)" x="23.725" y="242.5" text-anchor="middle" style="opacity: 0.3; font-family: 'Lucida Grande', 'Open Sans', verdana, arial, sans-serif; font-size: 14px; fill: rgb(0, 0, 0); fill-opacity: 1; white-space: pre;">Percentage total cumulative mapped-read depth</text></g></g></svg>