<svg class="main-svg" xmlns="http://www.w3.org/2000/svg" xmlns:xlink="http://www.w3.org/1999/xlink" width="2200" height="1000" style="" viewBox="0 0 1100 500"><rect x="0" y="0" width="1100" height="500" style="fill: rgb(255, 255, 255); fill-opacity: 1;"/><defs id="defs-53d810"><g class="clips"><clipPath id="clip53d810xyplot" class="plotclip"><rect width="1013" height="385"/></clipPath><clipPath class="axesclip" id="clip53d810x"><rect x="61" y="0" width="1013" height="500"/></clipPath><clipPath class="axesclip" id="clip53d810y"><rect x="0" y="50" width="1100" height="385"/></clipPath><clipPath class="axesclip" id="clip53d810xy"><rect x="61" y="50" width="1013" height="385"/></clipPath></g><g class="gradients"/><g class="patterns"/></defs><g class="bglayer"/><g class="layer-below"><g class="imagelayer"/><g class="shapelayer"/></g><g class="cartesianlayer"><g class="subplot xy"><g class="layer-subplot"><g class="shapelayer"/><g class="imagelayer"/></g><g class="minor-gridlayer"><g class="x"/><g class="y"/></g><g class="gridlayer"><g class="x"><path class="xgrid crisp" transform="translate(263.6,0)" d="M0,50v385" style="stroke: rgb(0, 0, 0); stroke-opacity: 0.05; stroke-width: 1px;"/><path class="xgrid crisp" transform="translate(466.2,0)" d="M0,50v385" style="stroke: rgb(0, 0, 0); stroke-opacity: 0.05; stroke-width: 1px;"/><path class="xgrid crisp" transform="translate(668.8,0)" d="M0,50v385" style="stroke: rgb(0, 0, 0); stroke-opacity: 0.05; stroke-width: 1px;"/><path class="xgrid crisp" transform="translate(871.4,0)" d="M0,50v385" style="stroke: rgb(0, 0, 0); stroke-opacity: 0.05; stroke-width: 1px;"/></g><g class="y"><path class="ygrid crisp" transform="translate(0,366.92)" d="M61,0h1013" style="stroke: rgb(0, 0, 0); stroke-opacity: 0.05; stroke-width: 1px;"/><path class="ygrid crisp" transform="translate(0,298.84000000000003)" d="M61,0h1013" style="stroke: rgb(0, 0, 0); stroke-opacity: 0.05; stroke-width: 1px;"/><path class="ygrid crisp" transform="translate(0,230.76)" d="M61,0h1013" style="stroke: rgb(0, 0, 0); stroke-opacity: 0.05; stroke-width: 1px;"/><path class="ygrid crisp" transform="translate(0,162.68)" d="M61,0h1013" style="stroke: rgb(0, 0, 0); stroke-opacity: 0.05; stroke-width: 1px;"/><path class="ygrid crisp" transform="translate(0,94.6)" d="M61,0h1013" style="stroke: rgb(0, 0, 0); stroke-opacity: 0.05; stroke-width: 1px;"/></g></g><g class="zerolinelayer"><path class="xzl zl crisp" transform="translate(61,0)" d="M0,50v385" style="stroke: rgb(0, 0, 0); stroke-opacity: 0.05; stroke-width: 2px;"/><path class="yzl zl crisp" transform="translate(0,435)" d="M61,0h1013" style="stroke: rgb(0, 0, 0); stroke-opacity: 0.05; stroke-width: 2px;"/></g><g class="layer-between"><g class="shapelayer"/><g class="imagelayer"/></g><path class="xlines-below"/><path class="ylines-below"/><g class="overlines-below"/><g class="xaxislayer-below"/><g class="yaxislayer-below"/><g class="overaxes-below"/><g class="overplot"><g class="xy" transform="translate(61,50)" clip-path="url(#clip53d810xyplot)"><g class="scatterlayer mlayer"><g class="trace scatter trace2a4dcf" style="stroke-miterlimit: 2; opacity: 1;"><g class="fills"/><g class="errorbars"/><g class="lines"><path class="js-line" d="M0,353.07L10.13,350.02L20.26,345.35L50.65,329.65L60.78,326.13L70.91,322.59L81.04,319.9L101.3,313.33L111.43,311.06L162.08,304.25L172.21,303.36L182.34,301.64L192.47,297.66L202.6,266.8L212.73,189.55L222.86,167.61L232.99,219.45L243.12,281.44L253.25,292.43L263.38,294.5L273.51,290.46L283.64,288.76L293.77,275.96L303.9,209.67L314.03,202.88L324.16,263.64L334.29,294.74L344.42,295.55L354.55,294.55L364.68,295.56L374.81,295.77L395.07,296.78L405.2,296.21L415.33,295.57L425.46,287.4L435.59,277.95L445.72,280.32L455.85,293.19L465.98,297.06L486.24,297.48L496.37,297.53L516.63,297.77L526.76,298.9L536.89,301.82L547.02,303.73L567.28,305.4L577.41,305.59L597.67,306.15L607.8,306.65L628.06,307.88L638.19,308.37L648.32,308.5L658.45,309.43L719.23,312.73L729.36,313.65L759.75,315.62L769.88,315.97L790.14,319.24L800.27,319.73L820.53,320.09L830.66,320.87L911.7,328.27L921.83,329.37L931.96,331.73L942.09,335.56L962.35,342.18L972.48,348.64L982.61,357.12L992.74,367.03L1002.87,379.29" style="vector-effect: none; fill: none; stroke: rgb(124, 181, 236); stroke-opacity: 1; stroke-width: 2px; opacity: 1;"/></g><g class="points"/><g class="text"/></g><g class="trace scatter trace1b2041" style="stroke-miterlimit: 2; opacity: 1;"><g class="fills"/><g class="errorbars"/><g class="lines"><path class="js-line" d="M0,378.57L70.91,370.93L81.04,370.49L111.43,369.13L121.56,368.76L162.08,366.89L172.21,367.31L182.34,364.32L192.47,354.16L202.6,299L212.73,175.58L222.86,133.49L232.99,215.55L243.12,325.24L253.25,349.13L263.38,355.19L273.51,350.26L283.64,347.69L293.77,334.08L303.9,269.2L314.03,266.15L324.16,331.2L334.29,364.44L344.42,365.79L354.55,364.87L364.68,366.02L374.81,366.39L405.2,365.91L415.33,364.95L425.46,349.04L435.59,327.07L445.72,325.56L455.85,347.46L465.98,352.87L476.11,353.33L486.24,353.67L496.37,349.97L506.5,346.08L516.63,348.14L526.76,353.38L536.89,361.79L547.02,365.5L557.15,366.67L577.41,367.92L587.54,367.98L719.23,370.46L729.36,370.5L911.7,373.42L921.83,373.13L942.09,373.77L952.22,372.67L962.35,372.95L972.48,375.69L982.61,379.81L992.74,381.49L1002.87,383.95" style="vector-effect: none; fill: none; stroke: rgb(67, 67, 72); stroke-opacity: 1; stroke-width: 2px; opacity: 1;"/></g><g class="points"/><g class="text"/></g><g class="trace scatter tracec6dfed" style="stroke-miterlimit: 2; opacity: 1;"><g class="fills"/><g class="errorbars"/><g class="lines"><path class="js-line" d="M0,371.32L30.39,362.44L40.52,360.54L60.78,358.52L70.91,356.57L101.3,353.14L111.43,351.73L151.95,346.73L162.08,346.58L172.21,347.19L182.34,343.12L192.47,331.31L202.6,268.63L212.73,128.44L222.86,95.72L232.99,193.01L243.12,302.3L253.25,320.43L263.38,327.12L273.51,323.24L283.64,321.52L293.77,302.58L303.9,214.58L314.03,210.92L324.16,297.72L334.29,342.27L344.42,343.62L354.55,341.57L364.68,343.35L374.81,343.72L384.94,342.14L395.07,340.42L405.2,340.4L415.33,340.76L425.46,315.36L435.59,281.36L445.72,281.94L455.85,318.56L465.98,329.6L476.11,329.03L486.24,326.23L496.37,320.13L506.5,314.91L516.63,316.94L526.76,324.49L536.89,337.82L547.02,344.45L557.15,347.05L567.28,348.23L577.41,349.18L587.54,349.29L638.19,351.29L648.32,351.24L678.71,352.89L688.84,353.01L729.36,354.66L739.49,355.11L780.01,356.39L790.14,357L810.4,357.66L820.53,357.82L861.05,359.69L871.18,360.6L891.44,360.97L901.57,360.65L911.7,358.91L921.83,355.19L931.96,355.43L942.09,360.58L952.22,360.54L962.35,362.26L972.48,367.33L982.61,374.25L992.74,377.71L1002.87,382.82" style="vector-effect: none; fill: none; stroke: rgb(144, 237, 125); stroke-opacity: 1; stroke-width: 2px; opacity: 1;"/></g><g class="points"/><g class="text"/></g><g class="trace scatter trace30cabb" style="stroke-miterlimit: 2; opacity: 1;"><g class="fills"/><g class="errorbars"/><g class="lines"><path class="js-line" d="M0,358.19L20.26,345.5L30.39,340.48L40.52,336.43L50.65,333.88L60.78,330.99L70.91,325.74L101.3,314.12L111.43,311.37L121.56,309.46L131.69,308.49L162.08,304.77L172.21,304.58L182.34,299.96L192.47,293.67L202.6,280.43L212.73,258.71L222.86,257.52L232.99,273.66L243.12,288.4L253.25,287.72L263.38,284.65L273.51,274.78L283.64,269.94L293.77,255.15L303.9,238.38L314.03,254.44L324.16,293.12L334.29,301.22L344.42,300.37L354.55,297.73L374.81,296.7L384.94,292.7L395.07,286.66L405.2,285.26L415.33,289.48L425.46,282.86L435.59,268.67L445.72,264.48L455.85,278.43L465.98,283.05L476.11,282.6L486.24,280.51L496.37,281.23L506.5,279.12L526.76,281.44L536.89,289.83L557.15,303.87L567.28,307.21L577.41,309.39L587.54,310.14L607.8,313.54L617.93,314.12L658.45,316.23L668.58,316.26L688.84,315.53L698.97,315.73L709.1,315.91L719.23,316.85L749.62,320.24L759.75,320.89L780.01,323.09L790.14,324.89L800.27,326.33L810.4,326.43L830.66,326.77L840.79,327.59L881.31,333.37L891.44,332.49L901.57,330.5L911.7,326.31L921.83,314.73L931.96,312.26L942.09,323.43L952.22,326.73L962.35,333.03L972.48,345.34L982.61,361.41L992.74,370.05L1002.87,380.55" style="vector-effect: none; fill: none; stroke: rgb(247, 163, 92); stroke-opacity: 1; stroke-width: 2px; opacity: 1;"/></g><g class="points"/><g class="text"/></g><g class="trace scatter tracec224a6" style="stroke-miterlimit: 2; opacity: 1;"><g class="fills"/><g class="errorbars"/><g class="lines"><path class="js-line" d="M0,353.39L10.13,349.98L20.26,344.33L50.65,327.3L60.78,323.51L70.91,318.78L81.04,315.37L111.43,305.47L121.56,303.34L162.08,295.28L172.21,294.18L182.34,290.59L192.47,283.37L202.6,259.45L212.73,205.38L222.86,193.57L232.99,233.02L243.12,273.88L253.25,277.36L263.38,278.33L273.51,272.92L283.64,270.73L293.77,257.3L303.9,199.13L314.03,198.78L324.16,258.89L334.29,286.08L344.42,286.7L354.55,285.81L374.81,286.96L384.94,287.48L395.07,288.15L405.2,287.57L415.33,285.99L425.46,271.98L435.59,257.62L445.72,260.65L455.85,279.11L465.98,284.38L476.11,284L486.24,282.37L506.5,277.39L516.63,279.26L526.76,283.04L536.89,289.68L547.02,293.54L557.15,296.28L567.28,297.64L577.41,298.08L597.67,299.56L607.8,300.76L638.19,302.95L648.32,303.13L678.71,306.5L688.84,307.18L709.1,308.29L719.23,309.81L780.01,315.22L790.14,316.98L810.4,318.13L820.53,318.76L850.92,321.34L861.05,321.55L881.31,324.77L891.44,325.58L901.57,326.37L911.7,326.02L921.83,325.08L931.96,327.46L942.09,332.3L952.22,333.54L962.35,337.29L972.48,345.51L992.74,366.09L1002.87,379.04" style="vector-effect: none; fill: none; stroke: rgb(128, 133, 233); stroke-opacity: 1; stroke-width: 2px; opacity: 1;"/></g><g class="points"/><g class="text"/></g><g class="trace scatter trace9ca067" style="stroke-miterlimit: 2; opacity: 1;"><g class="fills"/><g class="errorbars"/><g class="lines"><path class="js-line" d="M0,346.76L10.13,338.29L20.26,328.84L30.39,320.45L40.52,314.4L60.78,309.51L70.91,302.05L91.17,288.69L101.3,283.53L111.43,279.3L121.56,273.77L131.69,273.28L141.82,275.35L151.95,272.93L162.08,269.36L172.21,270.95L182.34,267.15L192.47,260.23L202.6,236.29L212.73,194.27L222.86,193.55L232.99,225.28L243.12,252.73L253.25,252.43L263.38,251.04L273.51,242.59L283.64,238.96L293.77,222.07L303.9,185.41L314.03,196.79L324.16,251.71L334.29,271.91L344.42,270.84L354.55,265.16L364.68,264.69L374.81,264.31L384.94,259.02L395.07,250.93L405.2,248.32L415.33,251.59L425.46,242.4L435.59,222.87L445.72,220.4L455.85,243.63L465.98,249.94L476.11,248.51L486.24,243.65L496.37,242.19L506.5,239.77L516.63,243.34L526.76,246.06L536.89,259.06L547.02,268.07L557.15,277.02L567.28,281.86L577.41,286.66L587.54,287.99L607.8,290.51L617.93,291.38L638.19,292.81L648.32,293.08L678.71,297.47L688.84,297.97L709.1,299.3L719.23,300.97L780.01,306.31L790.14,308.07L810.4,309.47L820.53,310.09L850.92,313.14L861.05,313.46L871.18,315.98L881.31,317.54L891.44,316.68L901.57,314.83L911.7,311.04L921.83,298.12L931.96,295.8L942.09,306.71L952.22,307.16L962.35,313.26L972.48,329.73L982.61,352.16L992.74,363.97L1002.87,378.51" style="vector-effect: none; fill: none; stroke: rgb(241, 92, 128); stroke-opacity: 1; stroke-width: 2px; opacity: 1;"/></g><g class="points"/><g class="text"/></g><g class="trace scatter tracecfc2f9" style="stroke-miterlimit: 2; opacity: 1;"><g class="fills"/><g class="errorbars"/><g class="lines"><path class="js-line" d="M0,365.72L10.13,364.27L20.26,361.66L40.52,355.34L50.65,351.99L111.43,337.68L121.56,336.47L162.08,330.41L172.21,329.56L182.34,327.78L192.47,323.76L202.6,294.6L212.73,226.55L222.86,206.99L232.99,252.66L243.12,305.68L253.25,315.2L263.38,319.17L273.51,315.69L283.64,314.21L293.77,304.34L303.9,255.64L314.03,252.19L324.16,299.25L334.29,323.52L344.42,324.52L354.55,324L374.81,325.04L384.94,325.55L395.07,326.27L405.2,325.91L415.33,324.94L425.46,314.51L435.59,302.83L445.72,305.84L455.85,320.53L465.98,324.87L486.24,324.16L496.37,322.57L506.5,321.69L516.63,322.51L526.76,324.2L536.89,328.28L547.02,330.62L557.15,331.65L617.93,333.92L628.06,334.49L709.1,338.75L719.23,340.1L759.75,341.98L769.88,342.3L800.27,345.07L810.4,345.18L840.79,347.06L850.92,347.69L861.05,347.88L871.18,348.9L911.7,351.53L921.83,351.62L931.96,353.12L942.09,355.85L962.35,359.19L972.48,363.21L992.74,374.04L1002.87,381.61" style="vector-effect: none; fill: none; stroke: rgb(228, 211, 84); stroke-opacity: 1; stroke-width: 2px; opacity: 1;"/></g><g class="points"/><g class="text"/></g><g class="trace scatter trace446776" style="stroke-miterlimit: 2; opacity: 1;"><g class="fills"/><g class="errorbars"/><g class="lines"><path class="js-line" d="M0,324.89L10.13,312.59L20.26,297.92L30.39,287.01L40.52,277.67L50.65,271.55L60.78,267.62L91.17,236.65L101.3,228.93L111.43,222.73L121.56,218.71L131.69,219.77L141.82,219.46L162.08,210.95L172.21,212.53L182.34,210.46L192.47,205.79L202.6,194.67L212.73,180.68L222.86,181.32L232.99,191.15L243.12,198.51L253.25,196.3L273.51,191.75L283.64,193.54L293.77,181.57L303.9,162.21L314.03,170.52L324.16,203.02L334.29,209.5L344.42,207.07L354.55,201.51L364.68,200.86L374.81,202.26L384.94,199.43L395.07,192.82L405.2,188.54L415.33,191.45L425.46,190.15L435.59,184.3L445.72,184.98L455.85,197.59L465.98,201.23L476.11,201.49L486.24,198.44L506.5,197.95L516.63,201.97L526.76,200.39L536.89,203.66L547.02,207.65L557.15,219.43L567.28,226.3L577.41,232.14L628.06,239.93L638.19,239.56L648.32,240.06L658.45,242.61L678.71,245.27L688.84,245.99L709.1,246.98L719.23,249.56L729.36,250.86L739.49,253.19L769.88,257.54L780.01,259.59L790.14,262.99L800.27,264.14L820.53,265.25L830.66,266.6L850.92,268.88L861.05,268.76L881.31,274.21L891.44,273.91L911.7,272.88L921.83,268.31L931.96,267.15L942.09,274.32L952.22,277.34L962.35,286.88L972.48,305.93L982.61,329.15L992.74,349.15L1002.87,373.61" style="vector-effect: none; fill: none; stroke: rgb(43, 144, 143); stroke-opacity: 1; stroke-width: 2px; opacity: 1;"/></g><g class="points"/><g class="text"/></g><g class="trace scatter trace5bfddb" style="stroke-miterlimit: 2; opacity: 1;"><g class="fills"/><g class="errorbars"/><g class="lines"><path class="js-line" d="M0,350.75L10.13,344.41L20.26,335.96L30.39,328.27L40.52,323.11L50.65,319.99L60.78,317.82L70.91,312.33L81.04,308.69L101.3,300.09L111.43,296.07L121.56,292.06L131.69,290.03L141.82,288.96L151.95,286.08L162.08,283.38L172.21,284.44L182.34,279L192.47,268.47L202.6,239.06L212.73,191.02L222.86,187.07L232.99,224.26L243.12,260.05L253.25,262.88L263.38,261.24L273.51,242.8L283.64,232.05L293.77,207.22L303.9,160.14L314.03,177.34L324.16,254.29L334.29,285.03L344.42,286.5L354.55,283.86L374.81,284.06L384.94,281.11L395.07,276.85L405.2,274.37L415.33,272.8L425.46,253.72L435.59,228.33L445.72,225.71L455.85,252.83L465.98,259.56L476.11,258.22L486.24,251.55L506.5,241.82L516.63,247.17L526.76,252L536.89,265.94L547.02,276.47L557.15,288.64L567.28,294.86L577.41,298.38L628.06,304.02L638.19,303.82L648.32,304.03L658.45,305.74L678.71,307.92L688.84,308.07L749.62,312.95L759.75,314.48L780.01,315.79L790.14,317.42L800.27,318.66L810.4,318.72L830.66,319.46L840.79,320.57L861.05,321.12L871.18,323.53L881.31,324.83L891.44,323.64L901.57,321.4L911.7,316.98L921.83,302.42L931.96,298.32L942.09,307.78L952.22,303.02L962.35,308.97L972.48,328.63L982.61,354.8L992.74,365.23L1002.87,379.02" style="vector-effect: none; fill: none; stroke: rgb(244, 91, 91); stroke-opacity: 1; stroke-width: 2px; opacity: 1;"/></g><g class="points"/><g class="text"/></g><g class="trace scatter trace7b0fe9" style="stroke-miterlimit: 2; opacity: 1;"><g class="fills"/><g class="errorbars"/><g class="lines"><path class="js-line" d="M0,337.04L10.13,332.63L20.26,326.07L40.52,310.63L50.65,302.82L60.78,297.09L70.91,290.3L81.04,285.62L91.17,279.78L101.3,274.49L111.43,270.2L121.56,268.17L131.69,264.94L162.08,256.14L172.21,253.92L182.34,251.13L192.47,246.66L202.6,225.34L212.73,175.87L222.86,160.08L232.99,191.91L243.12,231.66L253.25,239.21L263.38,241.59L273.51,241.06L283.64,242.93L293.77,232.07L303.9,192.85L314.03,192.69L324.16,232.75L334.29,245.09L344.42,245.52L354.55,245.09L364.68,245.74L374.81,245.47L384.94,246.56L395.07,248.52L415.33,246.13L425.46,241.11L435.59,235.49L445.72,236.81L455.85,245.78L465.98,249.39L476.11,250.58L486.24,250.87L496.37,250.44L506.5,251L516.63,253.18L526.76,254.14L547.02,261.17L557.15,263.9L577.41,265.36L587.54,267.1L607.8,270.76L617.93,272L638.19,274.97L648.32,275.83L688.84,282.74L698.97,283.8L709.1,285.06L719.23,288.6L749.62,291.85L759.75,292.84L769.88,294.05L780.01,296.52L790.14,298.95L800.27,300.41L820.53,301.93L830.66,303.23L850.92,306.56L861.05,306.74L881.31,310.92L891.44,311.97L931.96,320.15L942.09,323.77L952.22,325.66L962.35,329.56L972.48,338.25L982.61,350.15L992.74,361.63L1002.87,377.71" style="vector-effect: none; fill: none; stroke: rgb(145, 232, 225); stroke-opacity: 1; stroke-width: 2px; opacity: 1;"/></g><g class="points"/><g class="text"/></g><g class="trace scatter trace305a88" style="stroke-miterlimit: 2; opacity: 1;"><g class="fills"/><g class="errorbars"/><g class="lines"><path class="js-line" d="M0,345.57L10.13,342.35L20.26,336.82L40.52,324.79L50.65,318.22L70.91,308.82L81.04,305.32L101.3,296.91L111.43,293.52L131.69,289.42L141.82,286.53L151.95,283.83L162.08,281.93L182.34,278.41L192.47,273.76L202.6,235.73L212.73,129.61L222.86,98.02L232.99,169.82L243.12,251.65L253.25,264L263.38,268.35L273.51,267.52L283.64,267.62L293.77,253.86L303.9,177.77L314.03,171.1L324.16,238.2L334.29,271.45L344.42,273.06L354.55,272.42L364.68,273.2L374.81,272.99L395.07,275.14L405.2,274.98L415.33,274.73L425.46,266.34L435.59,258.36L445.72,262.4L455.85,274.15L465.98,277.62L506.5,277.94L516.63,278.96L526.76,279.54L536.89,282.72L547.02,285.53L557.15,287.18L597.67,290.05L607.8,291.08L658.45,295.41L668.58,297.03L698.97,300.46L709.1,301.18L719.23,303.53L729.36,304.9L749.62,306.54L759.75,307.35L780.01,310.15L790.14,312.13L800.27,312.99L810.4,312.98L830.66,314.26L840.79,315.51L861.05,317.14L871.18,319.18L921.83,327.5L931.96,329.71L962.35,340.32L972.48,346.63L982.61,354.73L992.74,364.72L1002.87,378.67" style="vector-effect: none; fill: none; stroke: rgb(124, 181, 236); stroke-opacity: 1; stroke-width: 2px; opacity: 1;"/></g><g class="points"/><g class="text"/></g><g class="trace scatter trace7dd464" style="stroke-miterlimit: 2; opacity: 1;"><g class="fills"/><g class="errorbars"/><g class="lines"><path class="js-line" d="M0,339.51L10.13,336.64L20.26,330.74L30.39,323.83L40.52,315.91L50.65,308.34L60.78,303.16L70.91,296.95L81.04,292.47L101.3,281.61L111.43,277.21L121.56,275.08L131.69,271.8L151.95,265.16L162.08,262.71L172.21,260.57L182.34,257.53L192.47,250.4L202.6,222.53L212.73,161.71L222.86,147.23L232.99,189.14L243.12,238.23L253.25,245.05L263.38,248.01L273.51,248L283.64,249.24L293.77,238.73L303.9,193.38L314.03,189.22L324.16,230.35L334.29,248.44L344.42,249.52L354.55,249.48L364.68,250.47L374.81,249.86L384.94,250.44L395.07,252.2L405.2,251.74L415.33,251.73L425.46,241.58L435.59,231.04L445.72,233.61L455.85,247.68L465.98,252.68L476.11,254.02L486.24,254.14L496.37,252.04L506.5,251.19L526.76,256.78L536.89,262.15L557.15,267.55L567.28,268.24L597.67,270.76L607.8,272L638.19,274.03L648.32,274.02L709.1,282.62L719.23,286.24L739.49,289.12L749.62,289.54L769.88,291.44L780.01,294.1L790.14,296.59L800.27,297.67L820.53,299.6L830.66,300.8L850.92,303.56L861.05,303.83L881.31,308.01L891.44,309.17L921.83,316.93L931.96,319.7L952.22,328.27L962.35,333.42L972.48,341.78L982.61,351.28L992.74,362.73L1002.87,378.02" style="vector-effect: none; fill: none; stroke: rgb(67, 67, 72); stroke-opacity: 1; stroke-width: 2px; opacity: 1;"/></g><g class="points"/><g class="text"/></g><g class="trace scatter traceb6b7b2" style="stroke-miterlimit: 2; opacity: 1;"><g class="fills"/><g class="errorbars"/><g class="lines"><path class="js-line" d="M0,336.95L10.13,329.58L20.26,319.59L40.52,302.31L50.65,295.25L60.78,290.02L70.91,281.58L81.04,275.95L91.17,271.4L111.43,259.95L121.56,256.52L141.82,251.78L151.95,248.34L162.08,246.37L172.21,246.16L182.34,240.52L192.47,227.96L202.6,189.73L212.73,130.48L222.86,125.41L232.99,172.7L243.12,219.13L253.25,223.56L263.38,221.5L273.51,211.94L283.64,209.02L293.77,188.85L303.9,132.63L314.03,139.99L324.16,209.93L334.29,237.24L344.42,237.82L354.55,235.67L374.81,238L384.94,238.12L395.07,237.5L405.2,234.64L415.33,231.93L425.46,213.74L435.59,189.15L445.72,188.4L455.85,216.84L465.98,226.11L476.11,226.53L486.24,224.86L496.37,220.46L506.5,217.34L526.76,227.97L536.89,238.83L557.15,253.36L567.28,256.84L587.54,260.97L597.67,263.9L617.93,267.44L628.06,268.8L648.32,270.14L658.45,272.46L668.58,274.71L678.71,275.45L698.97,277.2L709.1,278.49L719.23,281.33L729.36,282.48L749.62,285.85L759.75,287.53L780.01,290.67L790.14,294.17L800.27,296.25L810.4,296.55L830.66,298.45L840.79,300.17L850.92,301.56L861.05,301.45L871.18,305.41L881.31,307.83L901.57,309.97L911.7,308.4L921.83,303.17L931.96,304.73L942.09,310.29L952.22,304.4L962.35,308.31L972.48,325.47L982.61,347.34L992.74,360.53L1002.87,377.47" style="vector-effect: none; fill: none; stroke: rgb(144, 237, 125); stroke-opacity: 1; stroke-width: 2px; opacity: 1;"/></g><g class="points"/><g class="text"/></g><g class="trace scatter trace5ede84" style="stroke-miterlimit: 2; opacity: 1;"><g class="fills"/><g class="errorbars"/><g class="lines"><path class="js-line" d="M0,359.97L10.13,357.96L20.26,354.52L40.52,346.42L50.65,341.61L91.17,328.45L101.3,325.52L111.43,322.85L121.56,321.72L151.95,315.88L162.08,314.42L192.47,309.33L202.6,294.99L212.73,251L222.86,232.37L232.99,261.07L243.12,299.09L253.25,304.15L263.38,305.11L273.51,307.3L283.64,310.47L293.77,305.1L303.9,271.73L314.03,268.03L324.16,296.95L334.29,305.64L344.42,305.98L354.55,305.68L364.68,306.26L384.94,307.08L395.07,307.96L415.33,306.36L425.46,302.77L435.59,298.59L445.72,299.94L455.85,306.22L465.98,308.4L526.76,310.35L536.89,312.9L557.15,315.88L567.28,316.18L587.54,317.44L597.67,318.58L688.84,325.06L698.97,325.66L709.1,326.45L719.23,328.5L780.01,334.07L790.14,336.13L800.27,337.39L810.4,337.75L861.05,341L871.18,342.95L901.57,346.22L911.7,347.07L931.96,349.55L942.09,351.69L952.22,352.18L962.35,354.32L972.48,359.79L982.61,366.83L992.74,373.09L1002.87,381.28" style="vector-effect: none; fill: none; stroke: rgb(247, 163, 92); stroke-opacity: 1; stroke-width: 2px; opacity: 1;"/></g><g class="points"/><g class="text"/></g><g class="trace scatter trace531fab" style="stroke-miterlimit: 2; opacity: 1;"><g class="fills"/><g class="errorbars"/><g class="lines"><path class="js-line" d="M0,349.42L10.13,339.97L20.26,329.44L30.39,322.36L40.52,318.53L60.78,316.44L70.91,310.26L81.04,304.82L91.17,298.21L101.3,294.22L111.43,291.95L121.56,289.61L131.69,288.68L141.82,288.23L151.95,285.75L162.08,283.45L172.21,285.5L182.34,280.55L192.47,268.08L202.6,227.49L212.73,156.11L222.86,146.09L232.99,196.29L243.12,247.53L253.25,254.62L263.38,255.39L273.51,234.95L283.64,223.22L293.77,197.65L303.9,146.41L314.03,165.2L324.16,248.87L334.29,283.46L344.42,283.1L354.55,276.55L374.81,278.5L384.94,274.62L395.07,267.81L405.2,265.02L415.33,266.66L425.46,245.96L435.59,211.84L445.72,206.55L455.85,241.02L465.98,251.49L476.11,251.2L486.24,247.84L496.37,242.51L506.5,234.6L516.63,237.24L526.76,242.7L536.89,260.98L547.02,274.98L557.15,287.6L567.28,293.08L577.41,298.32L587.54,299.57L628.06,303.3L638.19,302.89L648.32,303.25L658.45,304.6L678.71,306.25L688.84,306.5L729.36,309.65L739.49,310.48L749.62,310.62L759.75,311.92L780.01,312.84L790.14,314.77L800.27,316.46L810.4,316.82L840.79,319.02L850.92,320.06L861.05,320.64L871.18,323.26L881.31,324.79L891.44,323.68L901.57,321.14L911.7,317.28L921.83,304.66L931.96,300.66L942.09,309.73L952.22,308.18L962.35,313.49L972.48,330.4L982.61,354.84L992.74,365.03L1002.87,378.81" style="vector-effect: none; fill: none; stroke: rgb(128, 133, 233); stroke-opacity: 1; stroke-width: 2px; opacity: 1;"/></g><g class="points"/><g class="text"/></g><g class="trace scatter trace33a28b" style="stroke-miterlimit: 2; opacity: 1;"><g class="fills"/><g class="errorbars"/><g class="lines"><path class="js-line" d="M0,362.23L10.13,360.6L20.26,357.32L50.65,346.24L60.78,343.69L101.3,334.84L111.43,333.33L131.69,331.09L141.82,329.6L151.95,327.95L162.08,327.13L172.21,326.38L182.34,324.87L192.47,321.23L202.6,284.33L212.73,174.09L222.86,147.07L243.12,304.73L253.25,315.88L263.38,318.72L273.51,311.87L283.64,307L293.77,287.51L303.9,190.55L314.03,182.5L324.16,272.68L334.29,320.45L344.42,321.8L354.55,320.93L364.68,322.14L374.81,322.53L395.07,323.81L405.2,323.65L415.33,323.09L425.46,309.82L435.59,293.74L445.72,297.58L455.85,317.59L465.98,324.15L486.24,324.62L496.37,324.25L516.63,323.37L526.76,324.36L536.89,327.71L547.02,329.5L567.28,330.63L577.41,330.62L607.8,331.58L617.93,332.04L638.19,333.54L648.32,333.54L739.49,339.21L749.62,339.29L769.88,339.98L780.01,340.88L800.27,342.19L810.4,342.32L840.79,343.95L850.92,344.5L871.18,345.59L881.31,346.39L911.7,348.76L921.83,349.96L962.35,357.33L972.48,361L992.74,372.83L1002.87,381.21" style="vector-effect: none; fill: none; stroke: rgb(241, 92, 128); stroke-opacity: 1; stroke-width: 2px; opacity: 1;"/></g><g class="points"/><g class="text"/></g><g class="trace scatter trace966e78" style="stroke-miterlimit: 2; opacity: 1;"><g class="fills"/><g class="errorbars"/><g class="lines"><path class="js-line" d="M0,356.9L10.13,352.26L20.26,346.4L30.39,340.89L40.52,336.41L60.78,329.97L70.91,325.09L111.43,312.93L121.56,310.85L151.95,305.49L162.08,304.54L172.21,304.42L182.34,298.34L192.47,284.46L202.6,226.76L212.73,119.55L222.86,101.21L243.12,260.27L253.25,273.46L263.38,276.6L273.51,254.98L283.64,241.19L293.77,208.69L303.9,131.77L314.03,147.16L324.16,251.18L334.29,296.24L344.42,298.69L354.55,296.4L374.81,298.67L384.94,298.7L405.2,297.12L415.33,294.77L425.46,270.18L435.59,237.32L445.72,236.48L455.85,270.75L465.98,281.2L476.11,281.35L486.24,277.6L496.37,265.42L506.5,258.43L516.63,266.61L526.76,278.1L536.89,293.39L547.02,301.3L557.15,306.5L567.28,308.97L577.41,310.31L628.06,314.98L638.19,315.1L648.32,315.25L658.45,316.23L719.23,322.42L729.36,322.93L759.75,324.98L769.88,325.38L790.14,327.73L800.27,329.06L830.66,330.54L840.79,331.51L861.05,332.7L871.18,334.68L881.31,335.9L891.44,336.11L911.7,337.13L921.83,336.12L931.96,336.97L942.09,340.36L952.22,340.99L962.35,344.02L972.48,351.53L982.61,361.86L992.74,370.06L1002.87,380.49" style="vector-effect: none; fill: none; stroke: rgb(228, 211, 84); stroke-opacity: 1; stroke-width: 2px; opacity: 1;"/></g><g class="points"/><g class="text"/></g><g class="trace scatter trace51332e" style="stroke-miterlimit: 2; opacity: 1;"><g class="fills"/><g class="errorbars"/><g class="lines"><path class="js-line" d="M0,337.3L10.13,330.54L20.26,320.36L30.39,311.33L40.52,304.54L50.65,298.9L60.78,294.79L70.91,287.84L81.04,282.56L101.3,271.42L111.43,266.59L151.95,255.13L162.08,252.46L172.21,251.32L182.34,246.55L192.47,237.49L202.6,203.89L212.73,142.75L222.86,135.56L243.12,226.97L253.25,229.64L263.38,227.92L273.51,218.64L283.64,214L293.77,191.28L303.9,132.36L314.03,137.96L324.16,208.96L334.29,239.32L344.42,239.87L354.55,238.23L364.68,239.69L374.81,239.5L395.07,235.92L405.2,235.08L415.33,235.25L425.46,214.23L435.59,187.61L445.72,189.72L455.85,222.8L465.98,233.01L476.11,231.65L486.24,227.41L496.37,223.77L506.5,221.79L516.63,226.42L526.76,232.14L536.89,244.3L547.02,251.59L557.15,256.14L567.28,258.68L577.41,261.18L587.54,262.89L628.06,268.72L638.19,268.99L648.32,269.19L658.45,270.85L698.97,276.86L709.1,278.06L719.23,281.01L729.36,282.42L739.49,283.86L749.62,284.5L759.75,286.12L769.88,286.89L780.01,288.28L790.14,290.85L800.27,293L810.4,293.78L861.05,299.17L871.18,302.97L881.31,305.25L891.44,306.05L901.57,306.31L911.7,302.32L921.83,292.66L931.96,294.58L942.09,306.52L952.22,306.72L962.35,312.65L972.48,327.72L982.61,346.37L992.74,359.49L1002.87,377.13" style="vector-effect: none; fill: none; stroke: rgb(43, 144, 143); stroke-opacity: 1; stroke-width: 2px; opacity: 1;"/></g><g class="points"/><g class="text"/></g><g class="trace scatter tracea18a5b" style="stroke-miterlimit: 2; opacity: 1;"><g class="fills"/><g class="errorbars"/><g class="lines"><path class="js-line" d="M0,319.23L10.13,314.87L20.26,305.98L40.52,284.96L50.65,273.52L60.78,265.88L70.91,256.24L81.04,249.47L91.17,240.68L101.3,233.2L111.43,227.5L121.56,223.93L131.69,219.14L151.95,208.34L162.08,204.21L182.34,197.97L192.47,189.74L202.6,144.19L212.73,47.47L222.86,19.25L232.99,83.9L243.12,160.52L253.25,171.77L263.38,174.85L273.51,166.18L283.64,164.28L293.77,145.52L303.9,85.24L314.03,89.83L324.16,160.69L334.29,189.23L344.42,189.71L354.55,188.28L364.68,189.72L374.81,189.83L395.07,190.97L405.2,189.86L415.33,189.41L425.46,169.29L435.59,146.6L445.72,149.87L455.85,179.55L465.98,187.68L476.11,187.59L486.24,185.86L506.5,182.67L516.63,185.5L526.76,190.54L536.89,202.38L547.02,209.66L557.15,214.63L577.41,217.82L587.54,218.83L628.06,223.71L638.19,224.01L648.32,224L658.45,226.29L688.84,231.87L698.97,233.54L709.1,235.11L719.23,239.79L739.49,243.72L749.62,244.42L769.88,247.11L780.01,249.84L790.14,252.65L800.27,254.19L820.53,255.92L830.66,257.43L850.92,261.14L861.05,261.97L871.18,265.32L881.31,267.8L911.7,271.91L921.83,270.04L931.96,273.09L942.09,281.51L952.22,283.92L962.35,291.03L972.48,307.73L982.61,328.59L992.74,347.35L1002.87,373.02" style="vector-effect: none; fill: none; stroke: rgb(244, 91, 91); stroke-opacity: 1; stroke-width: 2px; opacity: 1;"/></g><g class="points"/><g class="text"/></g><g class="trace scatter tracef02144" style="stroke-miterlimit: 2; opacity: 1;"><g class="fills"/><g class="errorbars"/><g class="lines"><path class="js-line" d="M0,346.81L10.13,341.28L20.26,333.56L40.52,318.96L50.65,314.44L60.78,311.24L70.91,305.39L111.43,286.86L121.56,283.25L131.69,280.05L141.82,277.9L162.08,272.49L172.21,271.95L182.34,267.95L192.47,260.75L202.6,237.52L212.73,192.44L222.86,187.49L232.99,220.74L243.12,252.63L253.25,252.72L263.38,252.03L273.51,247.79L283.64,247.23L293.77,235.04L303.9,197.66L314.03,201.89L324.16,247.81L334.29,264.29L344.42,264.48L354.55,263.13L364.68,263.31L374.81,262.49L395.07,258.08L405.2,257L415.33,258.56L425.46,250.72L435.59,236.81L445.72,235.02L455.85,250.45L465.98,256.79L476.11,257.2L486.24,255.34L506.5,252.03L516.63,254.48L526.76,258.08L536.89,267.8L547.02,273.31L557.15,277.74L607.8,287.15L617.93,288.03L628.06,289.28L638.19,289.65L648.32,290.17L658.45,291.77L678.71,294.53L688.84,295.1L709.1,296.49L719.23,299.26L769.88,304.92L780.01,306.67L790.14,309.3L800.27,310.76L820.53,311.56L830.66,312.64L861.05,316.29L871.18,320.1L881.31,322.22L891.44,322.74L901.57,322.83L911.7,320.81L921.83,314.28L931.96,315.25L942.09,323.29L952.22,321.91L962.35,326.12L972.48,339.05L982.61,355.37L992.74,365.57L1002.87,379.04" style="vector-effect: none; fill: none; stroke: rgb(145, 232, 225); stroke-opacity: 1; stroke-width: 2px; opacity: 1;"/></g><g class="points"/><g class="text"/></g><g class="trace scatter trace7a32fb" style="stroke-miterlimit: 2; opacity: 1;"><g class="fills"/><g class="errorbars"/><g class="lines"><path class="js-line" d="M0,354.32L10.13,350.69L20.26,345.61L50.65,331.05L60.78,327.5L70.91,323.29L81.04,320.12L101.3,312.54L111.43,309.4L131.69,305.46L141.82,302.91L151.95,300.72L162.08,299.31L182.34,296.19L192.47,291.59L202.6,263.96L212.73,195.75L222.86,177.78L232.99,223.98L243.12,276.52L253.25,283.88L263.38,285.78L273.51,282.74L283.64,281.73L293.77,269.64L303.9,219.2L314.03,218.8L324.16,268.85L334.29,289.77L344.42,290.86L354.55,290.71L384.94,291.87L395.07,292.91L415.33,292.03L425.46,283.53L435.59,274.47L445.72,277.04L455.85,288.85L465.98,292.49L486.24,293.11L496.37,291.66L506.5,291.17L516.63,293.42L526.76,295.09L536.89,298.66L557.15,302.54L567.28,303.26L587.54,304.71L597.67,305.66L638.19,309.29L648.32,309.66L698.97,314.56L709.1,315.34L719.23,317.36L729.36,318.6L759.75,320.75L769.88,321.6L800.27,326.37L810.4,326.74L830.66,327.98L840.79,329.17L861.05,330.8L871.18,332.75L911.7,337.81L921.83,338.52L931.96,340.22L942.09,343.17L952.22,344.99L962.35,347.94L972.48,353.6L982.61,361.2L992.74,369.31L1002.87,380.15" style="vector-effect: none; fill: none; stroke: rgb(124, 181, 236); stroke-opacity: 1; stroke-width: 2px; opacity: 1;"/></g><g class="points"/><g class="text"/></g><g class="trace scatter traced85844" style="stroke-miterlimit: 2; opacity: 1;"><g class="fills"/><g class="errorbars"/><g class="lines"><path class="js-line" d="M0,358.32L20.26,348.16L30.39,343.33L40.52,339.37L50.65,336.37L60.78,334.34L70.91,331.28L91.17,327.61L101.3,325.19L141.82,317.13L151.95,316.13L172.21,315.66L182.34,312.13L192.47,298.97L202.6,247.97L212.73,135.84L222.86,111.49L232.99,191.01L243.12,285.49L253.25,300.52L263.38,303.32L273.51,301.25L283.64,301.21L293.77,283.4L303.9,208.01L314.03,203.55L324.16,276.73L334.29,309.94L344.42,311.6L354.55,311.17L364.68,312.69L374.81,312.77L384.94,311.93L395.07,311.34L405.2,311.59L415.33,311.68L425.46,291.2L435.59,264.16L445.72,263.01L455.85,291.59L465.98,302.1L476.11,305.54L486.24,306.69L506.5,298.45L516.63,301.23L526.76,305.8L536.89,313.93L547.02,318.15L557.15,320.65L577.41,323.47L587.54,323.8L638.19,327.44L648.32,327.6L698.97,332.8L709.1,333.34L719.23,334.9L729.36,335.54L790.14,339.59L800.27,340.56L861.05,343.31L871.18,345.14L891.44,347.12L901.57,348.13L931.96,350.84L942.09,352.84L952.22,353.89L962.35,356.2L972.48,361.3L982.61,367.87L992.74,373.72L1002.87,381.56" style="vector-effect: none; fill: none; stroke: rgb(67, 67, 72); stroke-opacity: 1; stroke-width: 2px; opacity: 1;"/></g><g class="points"/><g class="text"/></g><g class="trace scatter tracee0d08b" style="stroke-miterlimit: 2; opacity: 1;"><g class="fills"/><g class="errorbars"/><g class="lines"><path class="js-line" d="M0,320.75L10.13,306.24L20.26,288.89L30.39,276.42L40.52,265.78L50.65,257.58L60.78,251.73L70.91,241.07L81.04,232.22L91.17,221.88L101.3,213.02L111.43,204.81L121.56,201.47L131.69,201.38L141.82,197.34L151.95,193.33L162.08,190.97L172.21,191.15L182.34,188.1L192.47,181.01L202.6,168.33L212.73,154.29L222.86,153.23L243.12,170.27L253.25,167.34L263.38,164.55L273.51,168.94L283.64,177.34L293.77,169.8L303.9,153.28L314.03,157.4L324.16,180.01L334.29,176.33L354.55,172.65L364.68,172.4L384.94,172.77L395.07,170.54L405.2,166.86L415.33,166.61L425.46,162.12L435.59,154.53L445.72,155.13L455.85,166.99L465.98,172.2L476.11,173.82L496.37,170.33L506.5,169.14L516.63,174.63L526.76,177.09L536.89,181.15L547.02,184.32L557.15,191.16L567.28,195.2L587.54,201.89L597.67,206.35L617.93,212.67L628.06,214.26L638.19,213.22L648.32,214.77L658.45,220.01L668.58,224.24L688.84,225.46L698.97,225.32L709.1,225.81L719.23,229.52L729.36,231.62L739.49,234.81L780.01,245.67L790.14,253.2L800.27,257.04L810.4,256.57L820.53,256.55L830.66,258.49L840.79,261.09L850.92,261.66L861.05,259.52L871.18,267.04L881.31,273.59L891.44,277.01L911.7,279.85L921.83,278.76L931.96,279.6L942.09,284.6L952.22,284.97L962.35,293.44L972.48,308.42L982.61,326.68L992.74,346.78L1002.87,373.21" style="vector-effect: none; fill: none; stroke: rgb(144, 237, 125); stroke-opacity: 1; stroke-width: 2px; opacity: 1;"/></g><g class="points"/><g class="text"/></g><g class="trace scatter tracef79dfc" style="stroke-miterlimit: 2; opacity: 1;"><g class="fills"/><g class="errorbars"/><g class="lines"><path class="js-line" d="M0,355.18L10.13,352.75L20.26,348.59L40.52,338.95L50.65,333.83L60.78,330.15L70.91,325.65L91.17,319.54L101.3,316.39L111.43,313.82L121.56,312.39L141.82,308.27L151.95,305.92L182.34,301.21L192.47,297.61L202.6,280.57L212.73,242.15L222.86,230.92L232.99,257.78L243.12,290.2L253.25,293.42L263.38,293.64L273.51,291.63L283.64,292.82L293.77,286.16L303.9,263.98L314.03,266.1L324.16,291.96L334.29,298.37L384.94,299.79L395.07,300.83L415.33,300.51L425.46,294.75L435.59,288.51L445.72,289.86L455.85,298.72L465.98,301.28L486.24,302.02L496.37,301.59L506.5,301.19L516.63,302.28L526.76,303.69L536.89,306.97L557.15,311.02L567.28,311.52L587.54,312.34L597.67,313.33L638.19,317.03L648.32,317.06L709.1,322.06L719.23,324.17L749.62,326.68L759.75,327.26L769.88,328.02L780.01,329.54L800.27,332.11L810.4,332.57L840.79,334.2L850.92,335.04L861.05,335.31L871.18,336.75L931.96,343.61L942.09,346.18L952.22,347.14L962.35,349.58L972.48,355.57L982.61,362.94L992.74,370.35L1002.87,380.34" style="vector-effect: none; fill: none; stroke: rgb(247, 163, 92); stroke-opacity: 1; stroke-width: 2px; opacity: 1;"/></g><g class="points"/><g class="text"/></g><g class="trace scatter tracea5014a" style="stroke-miterlimit: 2; opacity: 1;"><g class="fills"/><g class="errorbars"/><g class="lines"><path class="js-line" d="M0,351.12L10.13,344.77L20.26,337.29L30.39,330.19L40.52,325.25L60.78,320.03L70.91,314.77L111.43,299.93L121.56,296.46L131.69,294.43L141.82,293.43L162.08,289.75L172.21,290.62L182.34,285.38L192.47,274.16L202.6,235.21L212.73,166.12L222.86,159.85L232.99,211.35L243.12,258.51L253.25,262.69L263.38,264.24L273.51,246.49L283.64,235.58L293.77,203.68L303.9,145.21L314.03,164.56L324.16,253L334.29,286.37L344.42,287.56L354.55,284.29L374.81,286.86L384.94,285.51L395.07,282.35L405.2,280.8L415.33,281.07L425.46,261.32L435.59,232.1L445.72,229.71L455.85,260.9L465.98,269.81L476.11,268.62L486.24,262.61L496.37,253.56L506.5,249.19L526.76,263.84L536.89,277.41L557.15,295.12L567.28,299.5L577.41,302.42L587.54,303.39L628.06,307.99L638.19,308.41L648.32,308.49L658.45,309.58L688.84,312.52L698.97,313.58L709.1,314.26L719.23,315.71L780.01,319.54L790.14,320.99L800.27,322.32L810.4,322.78L830.66,323.8L840.79,325.04L861.05,326.37L871.18,328.54L881.31,329.85L891.44,329.59L911.7,328.24L921.83,322.58L931.96,320.56L942.09,325.16L952.22,324.48L962.35,328.77L972.48,341.36L982.61,357.89L992.74,367.55L1002.87,379.75" style="vector-effect: none; fill: none; stroke: rgb(128, 133, 233); stroke-opacity: 1; stroke-width: 2px; opacity: 1;"/></g><g class="points"/><g class="text"/></g></g></g></g><path class="xlines-above crisp" d="M0,0" style="fill: none;"/><path class="ylines-above crisp" d="M0,0" style="fill: none;"/><g class="overlines-above"/><g class="xaxislayer-above"><g class="xtick"><text text-anchor="middle" x="0" y="451" transform="translate(61,0)" style="font-family: 'Lucida Grande', 'Open Sans', verdana, arial, sans-serif; font-size: 10px; fill: rgb(0, 0, 0); fill-opacity: 1; white-space: pre; opacity: 1;">0%</text></g><g class="xtick"><text text-anchor="middle" x="0" y="451" style="font-family: 'Lucida Grande', 'Open Sans', verdana, arial, sans-serif; font-size: 10px; fill: rgb(0, 0, 0); fill-opacity: 1; white-space: pre; opacity: 1;" transform="translate(263.6,0)">20%</text></g><g class="xtick"><text text-anchor="middle" x="0" y="451" style="font-family: 'Lucida Grande', 'Open Sans', verdana, arial, sans-serif; font-size: 10px; fill: rgb(0, 0, 0); fill-opacity: 1; white-space: pre; opacity: 1;" transform="translate(466.2,0)">40%</text></g><g class="xtick"><text text-anchor="middle" x="0" y="451" style="font-family: 'Lucida Grande', 'Open Sans', verdana, arial, sans-serif; font-size: 10px; fill: rgb(0, 0, 0); fill-opacity: 1; white-space: pre; opacity: 1;" transform="translate(668.8,0)">60%</text></g><g class="xtick"><text text-anchor="middle" x="0" y="451" style="font-family: 'Lucida Grande', 'Open Sans', verdana, arial, sans-serif; font-size: 10px; fill: rgb(0, 0, 0); fill-opacity: 1; white-space: pre; opacity: 1;" transform="translate(871.4,0)">80%</text></g><g class="xtick"><text text-anchor="middle" x="0" y="451" style="font-family: 'Lucida Grande', 'Open Sans', verdana, arial, sans-serif; font-size: 10px; fill: rgb(0, 0, 0); fill-opacity: 1; white-space: pre; opacity: 1;" transform="translate(1074,0)">100%</text></g></g><g class="yaxislayer-above"><g class="ytick"><text text-anchor="end" x="55" y="3.5" transform="translate(0,435)" style="font-family: 'Lucida Grande', 'Open Sans', verdana, arial, sans-serif; font-size: 10px; fill: rgb(0, 0, 0); fill-opacity: 1; white-space: pre; opacity: 1;">0</text></g><g class="ytick"><text text-anchor="end" x="55" y="3.5" style="font-family: 'Lucida Grande', 'Open Sans', verdana, arial, sans-serif; font-size: 10px; fill: rgb(0, 0, 0); fill-opacity: 1; white-space: pre; opacity: 1;" transform="translate(0,366.92)">10k</text></g><g class="ytick"><text text-anchor="end" x="55" y="3.5" style="font-family: 'Lucida Grande', 'Open Sans', verdana, arial, sans-serif; font-size: 10px; fill: rgb(0, 0, 0); fill-opacity: 1; white-space: pre; opacity: 1;" transform="translate(0,298.84000000000003)">20k</text></g><g class="ytick"><text text-anchor="end" x="55" y="3.5" style="font-family: 'Lucida Grande', 'Open Sans', verdana, arial, sans-serif; font-size: 10px; fill: rgb(0, 0, 0); fill-opacity: 1; white-space: pre; opacity: 1;" transform="translate(0,230.76)">30k</text></g><g class="ytick"><text text-anchor="end" x="55" y="3.5" style="font-family: 'Lucida Grande', 'Open Sans', verdana, arial, sans-serif; font-size: 10px; fill: rgb(0, 0, 0); fill-opacity: 1; white-space: pre; opacity: 1;" transform="translate(0,162.68)">40k</text></g><g class="ytick"><text text-anchor="end" x="55" y="3.5" style="font-family: 'Lucida Grande', 'Open Sans', verdana, arial, sans-serif; font-size: 10px; fill: rgb(0, 0, 0); fill-opacity: 1; white-space: pre; opacity: 1;" transform="translate(0,94.6)">50k</text></g></g><g class="overaxes-above"/></g></g><g class="polarlayer"/><g class="smithlayer"/><g class="ternarylayer"/><g class="geolayer"/><g class="funnelarealayer"/><g class="pielayer"/><g class="iciclelayer"/><g class="treemaplayer"/><g class="sunburstlayer"/><g class="glimages"/><defs id="topdefs-53d810"><g class="clips"/></defs><g class="layer-above"><g class="imagelayer"/><g class="shapelayer"/></g><g class="infolayer"><g class="g-gtitle"><text class="gtitle" x="550" y="25" text-anchor="middle" dy="0em" style="opacity: 1; font-family: 'Lucida Grande', 'Open Sans', verdana, arial, sans-serif; font-size: 20px; fill: rgb(42, 63, 95); fill-opacity: 1; white-space: pre;"><tspan class="line" dy="0em" x="550" y="25">QualiMap: RNAseq: Coverage Profile Along Genes (total)</tspan><tspan class="line" dy="1.3em" x="550" y="25">​<tspan style="font-size:70%" dy="-0.6em">Counts, 25 samples</tspan><tspan dy="0.42em">​</tspan></tspan></text></g><g class="g-xtitle"><text class="xtitle" x="567.5" y="472.3" text-anchor="middle" style="opacity: 0.3; font-family: 'Lucida Grande', 'Open Sans', verdana, arial, sans-serif; font-size: 14px; fill: rgb(0, 0, 0); fill-opacity: 1; white-space: pre;">Transcript Position (%)</text></g><g class="g-ytitle"><text class="ytitle" transform="rotate(-90,22.084375,242.5)" x="22.084375" y="242.5" text-anchor="middle" style="opacity: 0.3; font-family: 'Lucida Grande', 'Open Sans', verdana, arial, sans-serif; font-size: 14px; fill: rgb(0, 0, 0); fill-opacity: 1; white-space: pre;">Cumulative mapped-read depth</text></g></g></svg>