<svg class="main-svg" xmlns="http://www.w3.org/2000/svg" xmlns:xlink="http://www.w3.org/1999/xlink" width="2200" height="1000" style="" viewBox="0 0 1100 500"><rect x="0" y="0" width="1100" height="500" style="fill: rgb(255, 255, 255); fill-opacity: 1;"/><defs id="defs-d51540"><g class="clips"><clipPath id="clipd51540xyplot" class="plotclip"><rect width="1025" height="385"/></clipPath><clipPath class="axesclip" id="clipd51540x"><rect x="60" y="0" width="1025" height="500"/></clipPath><clipPath class="axesclip" id="clipd51540y"><rect x="0" y="50" width="1100" height="385"/></clipPath><clipPath class="axesclip" id="clipd51540xy"><rect x="60" y="50" width="1025" height="385"/></clipPath></g><g class="gradients"/><g class="patterns"/></defs><g class="bglayer"/><g class="layer-below"><g class="imagelayer"/><g class="shapelayer"/></g><g class="cartesianlayer"><g class="subplot xy"><g class="layer-subplot"><g class="shapelayer"/><g class="imagelayer"/></g><g class="minor-gridlayer"><g class="x"/><g class="y"/></g><g class="gridlayer"><g class="x"><path class="xgrid crisp" transform="translate(158.36,0)" d="M0,50v385" style="stroke: rgb(0, 0, 0); stroke-opacity: 0.05; stroke-width: 1px;"/><path class="xgrid crisp" transform="translate(261.89,0)" d="M0,50v385" style="stroke: rgb(0, 0, 0); stroke-opacity: 0.05; stroke-width: 1px;"/><path class="xgrid crisp" transform="translate(365.43,0)" d="M0,50v385" style="stroke: rgb(0, 0, 0); stroke-opacity: 0.05; stroke-width: 1px;"/><path class="xgrid crisp" transform="translate(468.96,0)" d="M0,50v385" style="stroke: rgb(0, 0, 0); stroke-opacity: 0.05; stroke-width: 1px;"/><path class="xgrid crisp" transform="translate(676.04,0)" d="M0,50v385" style="stroke: rgb(0, 0, 0); stroke-opacity: 0.05; stroke-width: 1px;"/><path class="xgrid crisp" transform="translate(779.57,0)" d="M0,50v385" style="stroke: rgb(0, 0, 0); stroke-opacity: 0.05; stroke-width: 1px;"/><path class="xgrid crisp" transform="translate(883.11,0)" d="M0,50v385" style="stroke: rgb(0, 0, 0); stroke-opacity: 0.05; stroke-width: 1px;"/><path class="xgrid crisp" transform="translate(986.64,0)" d="M0,50v385" style="stroke: rgb(0, 0, 0); stroke-opacity: 0.05; stroke-width: 1px;"/></g><g class="y"><path class="ygrid crisp" transform="translate(0,365)" d="M60,0h1025" style="stroke: rgb(0, 0, 0); stroke-opacity: 0.05; stroke-width: 1px;"/><path class="ygrid crisp" transform="translate(0,314.26)" d="M60,0h1025" style="stroke: rgb(0, 0, 0); stroke-opacity: 0.05; stroke-width: 1px;"/><path class="ygrid crisp" transform="translate(0,263.51)" d="M60,0h1025" style="stroke: rgb(0, 0, 0); stroke-opacity: 0.05; stroke-width: 1px;"/><path class="ygrid crisp" transform="translate(0,212.77)" d="M60,0h1025" style="stroke: rgb(0, 0, 0); stroke-opacity: 0.05; stroke-width: 1px;"/><path class="ygrid crisp" transform="translate(0,162.01999999999998)" d="M60,0h1025" style="stroke: rgb(0, 0, 0); stroke-opacity: 0.05; stroke-width: 1px;"/><path class="ygrid crisp" transform="translate(0,111.27000000000001)" d="M60,0h1025" style="stroke: rgb(0, 0, 0); stroke-opacity: 0.05; stroke-width: 1px;"/><path class="ygrid crisp" transform="translate(0,60.53)" d="M60,0h1025" style="stroke: rgb(0, 0, 0); stroke-opacity: 0.05; stroke-width: 1px;"/></g></g><g class="zerolinelayer"><path class="xzl zl crisp" transform="translate(572.5,0)" d="M0,50v385" style="stroke: rgb(0, 0, 0); stroke-opacity: 0.05; stroke-width: 2px;"/><path class="yzl zl crisp" transform="translate(0,415.75)" d="M60,0h1025" style="stroke: rgb(0, 0, 0); stroke-opacity: 0.05; stroke-width: 2px;"/></g><g class="layer-between"><g class="shapelayer"/><g class="imagelayer"/></g><path class="xlines-below"/><path class="ylines-below"/><g class="overlines-below"/><g class="xaxislayer-below"/><g class="yaxislayer-below"/><g class="overaxes-below"/><g class="overplot"><g class="xy" transform="translate(60,50)" clip-path="url(#clipd51540xyplot)"><g class="scatterlayer mlayer"><g class="trace scatter traceb46f63" style="stroke-miterlimit: 2; opacity: 1;"><g class="fills"/><g class="errorbars"/><g class="lines"><path class="js-line" d="M0,365.75L186.36,365.75L196.72,322.07L207.07,106.63L217.42,98.16L227.78,96.01L238.13,99.08L248.48,100.17L258.84,104.55L269.19,108.92L279.55,119.51L300.25,149.1L310.61,169.42L320.96,192.5L331.31,209.4L341.67,228.51L352.02,239.84L362.37,251.14L372.73,260.59L383.08,270.24L393.43,275.86L403.79,281.66L414.14,286.17L445.2,300.12L455.56,303.29L496.97,318.42L507.32,318.65L517.68,324.05L528.03,326.2L538.38,329.31L548.74,330.74L559.09,333.91L569.44,335.5L600.51,341.93L610.86,342.82L641.92,347.76L652.27,349.03L714.39,354.83L724.75,355.5L745.45,356.78L755.81,357.42L786.87,359.31L797.22,359.55L848.99,361.58L859.34,361.99L890.4,362.56L900.76,363.05L942.17,363.34L952.53,363.67L1025,364.26" style="vector-effect: none; fill: none; stroke: rgb(124, 181, 236); stroke-opacity: 1; stroke-width: 2px; opacity: 1;"/></g><g class="points"/><g class="text"/></g><g class="trace scatter trace38261a" style="stroke-miterlimit: 2; opacity: 1;"><g class="fills"/><g class="errorbars"/><g class="lines"><path class="js-line" d="M0,365.75L186.36,365.75L196.72,324.43L207.07,118L217.42,109L227.78,109.64L238.13,104.44L248.48,103.72L258.84,104.44L269.19,106.53L279.55,113.55L289.9,124.44L300.25,141.78L310.61,159.55L320.96,183.09L341.67,217.42L352.02,236.85L372.73,259.03L383.08,270.58L403.79,283.42L414.14,291.09L424.49,294.27L434.85,300.13L476.26,313.78L486.62,317.01L496.97,320.3L507.32,319.21L517.68,325.39L528.03,327.53L559.09,333.83L569.44,335.68L621.21,344.23L631.57,345.83L672.98,350.88L683.33,352.76L693.69,352.48L704.04,353.22L724.75,355.15L735.1,355.81L745.45,356.11L755.81,357.24L776.52,358.41L786.87,359.29L869.7,361.92L880.05,362.27L942.17,363.16L952.53,363.49L993.94,364.03L1004.29,364.22L1025,364.41" style="vector-effect: none; fill: none; stroke: rgb(67, 67, 72); stroke-opacity: 1; stroke-width: 2px; opacity: 1;"/></g><g class="points"/><g class="text"/></g><g class="trace scatter trace62882e" style="stroke-miterlimit: 2; opacity: 1;"><g class="fills"/><g class="errorbars"/><g class="lines"><path class="js-line" d="M0,365.75L186.36,365.75L196.72,314.37L207.07,66.12L217.42,56.69L238.13,61.26L248.48,64.76L258.84,68.58L269.19,77.75L289.9,112.83L300.25,134.46L320.96,182.83L331.31,204.82L341.67,225.09L352.02,240.34L372.73,270.47L383.08,278.9L393.43,287.2L403.79,294.38L424.49,306.8L434.85,311.11L455.56,318.66L465.91,321.75L486.62,329.41L496.97,330.31L507.32,330.42L517.68,335.36L528.03,337.22L538.38,338.17L548.74,341.23L559.09,343.1L569.44,343.78L579.8,345.51L621.21,350.44L631.57,351.46L724.75,358.3L735.1,358.81L817.93,361.92L828.28,361.79L859.34,363L869.7,363.02L952.53,364.24L962.88,364.18L1004.29,364.79L1014.65,364.82L1025,364.96" style="vector-effect: none; fill: none; stroke: rgb(144, 237, 125); stroke-opacity: 1; stroke-width: 2px; opacity: 1;"/></g><g class="points"/><g class="text"/></g><g class="trace scatter tracec520f2" style="stroke-miterlimit: 2; opacity: 1;"><g class="fills"/><g class="errorbars"/><g class="lines"><path class="js-line" d="M0,365.75L186.36,365.75L196.72,310.63L207.07,50.53L217.42,40.1L227.78,50.56L238.13,51.79L248.48,56.26L258.84,64.99L269.19,74.17L279.55,93.21L289.9,111.29L300.25,138.66L310.61,163.63L320.96,191.42L341.67,234.11L352.02,252.41L362.37,265.82L372.73,274.23L383.08,283.83L393.43,290.54L403.79,296.16L414.14,303.54L424.49,306.26L434.85,310.33L465.91,321.65L476.26,324.25L486.62,327.61L496.97,330.15L507.32,331.59L517.68,335.15L528.03,336.22L538.38,339.33L579.8,346.07L590.15,347.24L621.21,351.22L631.57,352L704.04,357.39L714.39,357.84L735.1,358.95L745.45,359.62L766.16,360.32L776.52,360.72L859.34,362.97L869.7,362.89L911.11,363.65L921.46,363.52L942.17,364.05L952.53,364.14L1025,364.62" style="vector-effect: none; fill: none; stroke: rgb(247, 163, 92); stroke-opacity: 1; stroke-width: 2px; opacity: 1;"/></g><g class="points"/><g class="text"/></g><g class="trace scatter trace1c1b32" style="stroke-miterlimit: 2; opacity: 1;"><g class="fills"/><g class="errorbars"/><g class="lines"><path class="js-line" d="M0,365.75L186.36,365.75L196.72,311.84L207.07,58.56L217.42,50.36L227.78,52.4L238.13,57.07L248.48,62.32L258.84,69.98L269.19,79.4L279.55,99.34L289.9,120.45L300.25,143.31L320.96,196.28L331.31,216.42L341.67,238.66L352.02,252.06L362.37,264.58L372.73,272.37L383.08,280.64L393.43,286.69L403.79,291.66L414.14,297.67L424.49,302.91L434.85,305.7L445.2,310.53L455.56,313.57L465.91,316.94L476.26,321.32L486.62,323.96L496.97,327.89L507.32,328.94L517.68,332.98L528.03,334.22L538.38,336.72L548.74,339.24L559.09,340.08L569.44,342.81L579.8,344.07L590.15,346.15L600.51,346.91L621.21,349.34L631.57,350.73L641.92,351.4L652.27,352.87L704.04,357.24L714.39,357.25L735.1,358.67L745.45,359.27L838.64,362.42L848.99,362.54L1025,364.82" style="vector-effect: none; fill: none; stroke: rgb(128, 133, 233); stroke-opacity: 1; stroke-width: 2px; opacity: 1;"/></g><g class="points"/><g class="text"/></g><g class="trace scatter trace9a757c" style="stroke-miterlimit: 2; opacity: 1;"><g class="fills"/><g class="errorbars"/><g class="lines"><path class="js-line" d="M0,365.75L186.36,365.75L196.72,325.12L207.07,108.73L217.42,105.79L227.78,109.37L238.13,108.2L248.48,111.47L258.84,118.08L269.19,122.58L279.55,133.95L289.9,147.13L300.25,165.77L310.61,184.06L320.96,204.4L331.31,221.7L341.67,236.4L352.02,248.37L362.37,257.52L383.08,271.16L393.43,275.82L414.14,283.74L424.49,288.38L445.2,294.91L455.56,299.25L465.91,303.69L476.26,306.31L486.62,309.08L496.97,313.26L507.32,313.4L517.68,317.74L548.74,324.81L559.09,328.42L579.8,332.46L590.15,334.8L600.51,337.16L610.86,337.65L621.21,339.92L631.57,341.25L652.27,345.29L662.63,345.98L693.69,350.32L704.04,350.62L735.1,353.44L745.45,354.18L807.58,358.16L817.93,358.32L848.99,360.04L859.34,360.34L890.4,361.05L900.76,361.66L1025,363.83" style="vector-effect: none; fill: none; stroke: rgb(241, 92, 128); stroke-opacity: 1; stroke-width: 2px; opacity: 1;"/></g><g class="points"/><g class="text"/></g><g class="trace scatter trace466d66" style="stroke-miterlimit: 2; opacity: 1;"><g class="fills"/><g class="errorbars"/><g class="lines"><path class="js-line" d="M0,365.75L186.36,365.75L196.72,324.11L207.07,111.65L217.42,103.49L227.78,105.3L238.13,102.73L248.48,104L258.84,106.09L269.19,110.1L279.55,120.73L289.9,132.68L300.25,149.02L310.61,168.61L320.96,190.41L341.67,227.02L352.02,243.3L362.37,256.09L372.73,265.62L383.08,272.97L393.43,279.3L403.79,284.65L414.14,291.87L424.49,294.36L434.85,298.96L465.91,308.09L476.26,312.2L496.97,316.99L507.32,317.87L517.68,323.1L528.03,324.85L548.74,329.28L559.09,331.5L569.44,333.96L579.8,334.67L631.57,343.95L641.92,345.49L672.98,349.56L683.33,350.21L704.04,352.22L714.39,353.31L766.16,356.81L776.52,357.07L797.22,358.64L807.58,358.69L848.99,360.54L859.34,360.96L911.11,362.21L921.46,362.73L983.59,363.7L993.94,363.78L1025,363.99" style="vector-effect: none; fill: none; stroke: rgb(228, 211, 84); stroke-opacity: 1; stroke-width: 2px; opacity: 1;"/></g><g class="points"/><g class="text"/></g><g class="trace scatter trace1a5dbd" style="stroke-miterlimit: 2; opacity: 1;"><g class="fills"/><g class="errorbars"/><g class="lines"><path class="js-line" d="M0,365.75L186.36,365.75L196.72,312.74L207.07,44.38L217.42,41.96L238.13,54.47L248.48,62.82L258.84,75.55L269.19,89.76L279.55,111.82L289.9,136.04L300.25,159.7L310.61,185.78L320.96,210.29L331.31,228.1L341.67,245.18L352.02,256.98L372.73,274.59L383.08,281.43L393.43,285.76L403.79,290.96L414.14,297.13L424.49,301.55L445.2,308.43L455.56,311.46L465.91,314.79L476.26,319.28L486.62,321.62L496.97,325.1L507.32,326.69L517.68,330.33L538.38,333.59L548.74,336.32L569.44,340.34L579.8,341.8L610.86,346.59L621.21,347.29L672.98,352.6L683.33,353.24L704.04,355.23L714.39,356.07L745.45,357.7L755.81,358.55L869.7,362.21L880.05,362.23L931.82,363.37L942.17,363.39L973.23,363.92L983.59,363.83L1025,364.45" style="vector-effect: none; fill: none; stroke: rgb(43, 144, 143); stroke-opacity: 1; stroke-width: 2px; opacity: 1;"/></g><g class="points"/><g class="text"/></g><g class="trace scatter trace70410d" style="stroke-miterlimit: 2; opacity: 1;"><g class="fills"/><g class="errorbars"/><g class="lines"><path class="js-line" d="M0,365.75L186.36,365.75L196.72,318.95L207.07,73.31L217.42,66.62L227.78,71.28L238.13,71.57L248.48,77.64L258.84,79.9L269.19,89.27L279.55,104.1L289.9,121.16L300.25,142.14L310.61,168.56L320.96,191.52L341.67,235.41L352.02,249.46L362.37,262.08L372.73,271.8L383.08,278.53L393.43,286.47L414.14,293.87L424.49,301.34L455.56,311.31L465.91,315.68L476.26,317.29L486.62,321.55L507.32,325.8L517.68,329.1L569.44,340.06L579.8,341.01L600.51,345.11L610.86,346.88L621.21,347.36L631.57,349.03L683.33,354.29L693.69,354.61L766.16,359.15L776.52,359.54L828.28,361.13L838.64,361.41L859.34,362L869.7,362.49L900.76,362.97L911.11,363.29L1025,364.59" style="vector-effect: none; fill: none; stroke: rgb(244, 91, 91); stroke-opacity: 1; stroke-width: 2px; opacity: 1;"/></g><g class="points"/><g class="text"/></g><g class="trace scatter trace6b247d" style="stroke-miterlimit: 2; opacity: 1;"><g class="fills"/><g class="errorbars"/><g class="lines"><path class="js-line" d="M0,365.75L186.36,365.75L196.72,324.59L207.07,116.06L217.42,110.6L248.48,114.18L258.84,116.64L269.19,120.59L279.55,131.92L289.9,139.74L300.25,157.62L310.61,174.18L320.96,196.62L331.31,211.89L341.67,228.78L352.02,243.15L362.37,252.73L372.73,263.91L383.08,268.89L393.43,275.13L403.79,279.94L414.14,286.48L424.49,289.78L445.2,298.53L455.56,300.96L486.62,310.43L496.97,314.57L507.32,315.03L517.68,319.48L528.03,321.8L538.38,324.99L579.8,333.96L590.15,335.9L631.57,342.49L641.92,344.43L652.27,344.99L662.63,346.69L672.98,348.34L683.33,348.98L745.45,354.9L755.81,355.3L797.22,357.91L807.58,358.26L848.99,360.3L859.34,360.52L900.76,361.82L911.11,361.78L1004.29,363.79L1014.65,363.77L1025,363.95" style="vector-effect: none; fill: none; stroke: rgb(145, 232, 225); stroke-opacity: 1; stroke-width: 2px; opacity: 1;"/></g><g class="points"/><g class="text"/></g><g class="trace scatter trace04efb2" style="stroke-miterlimit: 2; opacity: 1;"><g class="fills"/><g class="errorbars"/><g class="lines"><path class="js-line" d="M0,365.75L186.36,365.75L196.72,312.89L207.07,63.99L217.42,57.33L227.78,63.27L238.13,64.5L248.48,70.16L258.84,79.17L269.19,88.91L279.55,105.67L289.9,125.38L300.25,148.09L320.96,196.04L331.31,215.5L352.02,248.11L362.37,259.67L383.08,278.1L393.43,284.79L424.49,300.76L434.85,304.74L445.2,310.54L455.56,313.45L465.91,315.6L476.26,320.02L496.97,325.42L507.32,326.75L517.68,331.15L528.03,333.45L548.74,338.3L559.09,339.63L569.44,340.65L579.8,342.7L600.51,345.95L610.86,347.82L621.21,348.6L631.57,350.15L641.92,350.66L652.27,351.95L693.69,355.95L704.04,356.31L714.39,356.48L724.75,357.8L745.45,358.4L755.81,359.16L776.52,359.67L786.87,359.96L807.58,361.13L817.93,361.08L880.05,362.98L890.4,362.81L952.53,364.01L962.88,363.87L1025,364.53" style="vector-effect: none; fill: none; stroke: rgb(124, 181, 236); stroke-opacity: 1; stroke-width: 2px; opacity: 1;"/></g><g class="points"/><g class="text"/></g><g class="trace scatter trace81d8dc" style="stroke-miterlimit: 2; opacity: 1;"><g class="fills"/><g class="errorbars"/><g class="lines"><path class="js-line" d="M0,365.75L186.36,365.75L196.72,313.75L207.07,69.43L217.42,58.36L227.78,62.2L238.13,66.91L248.48,69.05L258.84,77.96L269.19,87.3L279.55,99.54L289.9,117.62L300.25,140.56L320.96,187.67L331.31,208.39L341.67,228.37L352.02,243.06L362.37,256.49L372.73,267.61L383.08,276.25L393.43,283.21L424.49,302.73L434.85,307.31L445.2,310.34L455.56,314.31L465.91,317.65L476.26,321.83L496.97,328.24L507.32,329.15L517.68,333.52L528.03,335.15L569.44,343.07L579.8,343.68L600.51,347.63L610.86,348.08L621.21,350.37L631.57,351.32L672.98,354.31L683.33,355.92L817.93,361.91L828.28,362.08L859.34,362.76L869.7,362.76L952.53,364.09L962.88,364.11L1025,364.72" style="vector-effect: none; fill: none; stroke: rgb(67, 67, 72); stroke-opacity: 1; stroke-width: 2px; opacity: 1;"/></g><g class="points"/><g class="text"/></g><g class="trace scatter tracea06be3" style="stroke-miterlimit: 2; opacity: 1;"><g class="fills"/><g class="errorbars"/><g class="lines"><path class="js-line" d="M0,365.75L186.36,365.75L196.72,312.87L207.07,49.45L217.42,40.77L227.78,47.81L238.13,50.27L248.48,54.36L258.84,62.03L269.19,71.83L279.55,87.69L300.25,130.8L310.61,159.54L320.96,187.45L331.31,212.13L341.67,237.83L352.02,252.37L362.37,266.2L372.73,277.17L393.43,292.87L403.79,299.16L424.49,308.82L434.85,312.28L445.2,316.03L455.56,318.14L476.26,325.68L486.62,328.29L496.97,331.9L507.32,332.45L528.03,337.76L538.38,340.18L559.09,343.12L569.44,345.05L631.57,352.33L641.92,353.14L672.98,355.86L683.33,356.17L714.39,358.03L724.75,358.93L755.81,359.92L766.16,360.44L817.93,362.15L828.28,362.2L952.53,364.06L962.88,364.17L1014.65,364.75L1025,364.77" style="vector-effect: none; fill: none; stroke: rgb(144, 237, 125); stroke-opacity: 1; stroke-width: 2px; opacity: 1;"/></g><g class="points"/><g class="text"/></g><g class="trace scatter trace83052c" style="stroke-miterlimit: 2; opacity: 1;"><g class="fills"/><g class="errorbars"/><g class="lines"><path class="js-line" d="M0,365.75L186.36,365.75L196.72,322.99L207.07,93.14L217.42,90.57L227.78,91.66L238.13,89.47L248.48,91.18L258.84,94.98L269.19,101.83L279.55,113.57L289.9,126.68L300.25,145.9L310.61,169.88L320.96,196.31L341.67,237.18L352.02,252.1L362.37,264.95L372.73,275.34L383.08,283.73L393.43,288.62L414.14,299.07L424.49,302.52L445.2,309.03L455.56,309.54L476.26,316.53L486.62,318.24L496.97,321.04L507.32,320.41L517.68,325.23L528.03,327.38L548.74,330.04L559.09,332.54L579.8,335.27L590.15,337.83L600.51,339.66L610.86,340.16L621.21,342.39L631.57,343.68L714.39,351.57L724.75,352.93L776.52,355.98L786.87,357.02L828.28,358.78L838.64,359.26L848.99,359.92L859.34,359.78L911.11,361.64L921.46,361.92L1025,363.75" style="vector-effect: none; fill: none; stroke: rgb(247, 163, 92); stroke-opacity: 1; stroke-width: 2px; opacity: 1;"/></g><g class="points"/><g class="text"/></g><g class="trace scatter trace575764" style="stroke-miterlimit: 2; opacity: 1;"><g class="fills"/><g class="errorbars"/><g class="lines"><path class="js-line" d="M0,365.75L186.36,365.75L196.72,322.26L207.07,93.33L217.42,88.01L227.78,90.83L238.13,90.45L248.48,94.38L258.84,97.02L269.19,104.82L279.55,117.01L289.9,128.84L300.25,148.1L320.96,194.64L331.31,213.8L341.67,232.62L352.02,248.23L362.37,259.14L372.73,268.84L393.43,280.61L403.79,285.62L424.49,294.87L434.85,299.57L455.56,304.38L465.91,308.8L486.62,315.49L496.97,318.89L507.32,320.65L517.68,324.29L528.03,325.49L538.38,328.15L559.09,333.37L569.44,335.3L579.8,337.81L590.15,339.48L600.51,341.74L610.86,342.83L631.57,345.3L641.92,348L683.33,351.62L693.69,352.92L735.1,355.81L745.45,356.54L755.81,357.86L766.16,357.75L828.28,360.81L838.64,361.14L921.46,363.15L931.82,363.35L962.88,363.75L973.23,363.88L1025,364.45" style="vector-effect: none; fill: none; stroke: rgb(128, 133, 233); stroke-opacity: 1; stroke-width: 2px; opacity: 1;"/></g><g class="points"/><g class="text"/></g><g class="trace scatter trace12e0d6" style="stroke-miterlimit: 2; opacity: 1;"><g class="fills"/><g class="errorbars"/><g class="lines"><path class="js-line" d="M0,365.75L186.36,365.75L196.72,313.69L207.07,72.72L217.42,63.54L227.78,66.25L238.13,67.8L248.48,75.32L258.84,80.25L269.19,88.13L279.55,103.13L289.9,116.93L300.25,138.36L310.61,160.2L320.96,184.76L331.31,205.35L341.67,227.88L352.02,243.34L362.37,257.03L383.08,276.57L393.43,283.31L414.14,297.29L424.49,301.46L455.56,315.2L465.91,318.44L476.26,320.99L486.62,324.84L496.97,327.75L507.32,329.3L517.68,333.69L528.03,335.4L538.38,336.8L548.74,339.16L569.44,343.17L579.8,344.11L610.86,349.04L621.21,349.69L714.39,357.29L724.75,357.3L735.1,358.49L745.45,358.32L776.52,360.13L786.87,360.39L838.64,362.01L848.99,362.06L921.46,363.38L931.82,363.51L1025,364.46" style="vector-effect: none; fill: none; stroke: rgb(241, 92, 128); stroke-opacity: 1; stroke-width: 2px; opacity: 1;"/></g><g class="points"/><g class="text"/></g><g class="trace scatter traceb78b7a" style="stroke-miterlimit: 2; opacity: 1;"><g class="fills"/><g class="errorbars"/><g class="lines"><path class="js-line" d="M0,365.75L186.36,365.75L196.72,310.17L207.07,52.15L217.42,42.03L238.13,49.62L248.48,54L258.84,62.25L269.19,72.06L279.55,89.27L289.9,108.65L320.96,190.1L331.31,214.35L341.67,235.59L352.02,254.07L362.37,265.94L372.73,276.65L383.08,284.78L393.43,291.65L403.79,297.33L414.14,302.04L424.49,307.81L434.85,311.26L445.2,315.66L455.56,318.45L465.91,321.31L476.26,325.83L496.97,331.17L507.32,332.41L517.68,335.94L528.03,337.01L548.74,340.91L559.09,342.74L610.86,350.77L621.21,351.48L631.57,352.74L641.92,353.17L662.63,354.54L672.98,355.38L683.33,356.39L693.69,356.58L745.45,359.69L755.81,359.77L807.58,361.66L817.93,361.84L859.34,362.82L869.7,363L900.76,363.64L911.11,363.56L962.88,364.32L973.23,364.37L1025,364.71" style="vector-effect: none; fill: none; stroke: rgb(228, 211, 84); stroke-opacity: 1; stroke-width: 2px; opacity: 1;"/></g><g class="points"/><g class="text"/></g><g class="trace scatter trace26b0bb" style="stroke-miterlimit: 2; opacity: 1;"><g class="fills"/><g class="errorbars"/><g class="lines"><path class="js-line" d="M0,365.75L186.36,365.75L196.72,308.93L207.07,39.66L217.42,31.95L227.78,39.66L238.13,40.83L258.84,59.15L269.19,71.35L289.9,112.07L300.25,140.4L320.96,196.16L331.31,218.44L341.67,238.77L352.02,254.7L362.37,267.78L372.73,276.6L393.43,292.55L403.79,297.19L424.49,307.7L434.85,313.11L445.2,315.29L455.56,318.79L465.91,322.68L476.26,324.68L507.32,332.16L517.68,336.57L528.03,337.67L538.38,339.59L569.44,344.76L579.8,346.27L600.51,350.12L610.86,350.43L662.63,355.43L672.98,355.6L693.69,357.38L704.04,357.82L735.1,359.58L745.45,359.91L880.05,363.44L890.4,363.48L921.46,364.09L931.82,363.95L973.23,364.54L983.59,364.58L1025,364.91" style="vector-effect: none; fill: none; stroke: rgb(43, 144, 143); stroke-opacity: 1; stroke-width: 2px; opacity: 1;"/></g><g class="points"/><g class="text"/></g><g class="trace scatter trace8aa786" style="stroke-miterlimit: 2; opacity: 1;"><g class="fills"/><g class="errorbars"/><g class="lines"><path class="js-line" d="M0,365.75L186.36,365.75L196.72,322.62L207.07,103.4L217.42,99.04L238.13,101.87L248.48,103.06L258.84,106.8L269.19,111.48L289.9,134.5L300.25,153.98L310.61,173.06L320.96,197.35L331.31,219.5L341.67,236.02L352.02,250.45L362.37,262.07L372.73,270.54L383.08,276.19L414.14,291.47L424.49,294.76L465.91,307.98L476.26,310.69L496.97,316.35L507.32,317.55L517.68,322.46L528.03,323.25L538.38,325.95L548.74,327.13L590.15,336.08L600.51,337.62L621.21,341.56L631.57,342.74L641.92,343.63L652.27,345.41L662.63,347.22L672.98,347.82L704.04,350.92L714.39,352.41L776.52,356.54L786.87,357.27L797.22,358.01L807.58,357.99L828.28,359.28L838.64,359.59L869.7,360.93L880.05,361.17L911.11,361.99L921.46,362.33L1025,364.01" style="vector-effect: none; fill: none; stroke: rgb(244, 91, 91); stroke-opacity: 1; stroke-width: 2px; opacity: 1;"/></g><g class="points"/><g class="text"/></g><g class="trace scatter tracee3bee4" style="stroke-miterlimit: 2; opacity: 1;"><g class="fills"/><g class="errorbars"/><g class="lines"><path class="js-line" d="M0,365.75L186.36,365.75L196.72,321.16L207.07,86.49L217.42,82.36L227.78,83.45L238.13,85.55L258.84,91.95L269.19,97.45L289.9,129.94L300.25,152.05L320.96,199.06L331.31,219.68L341.67,237.32L352.02,252.06L362.37,262.59L372.73,271.55L383.08,277.29L393.43,282L414.14,291.72L424.49,296.17L445.2,304.84L455.56,305.16L465.91,310.57L476.26,313.79L496.97,319.88L507.32,320.12L517.68,325.49L528.03,327.45L548.74,331.36L559.09,333.94L569.44,335.47L579.8,338L631.57,346.31L641.92,346.63L672.98,350.74L683.33,351.51L704.04,353.3L714.39,354.12L766.16,357.88L776.52,357.94L786.87,358.96L797.22,359.18L859.34,361.37L869.7,361.6L921.46,362.72L931.82,363.05L952.53,363.41L962.88,363.65L1025,364.26" style="vector-effect: none; fill: none; stroke: rgb(145, 232, 225); stroke-opacity: 1; stroke-width: 2px; opacity: 1;"/></g><g class="points"/><g class="text"/></g><g class="trace scatter tracea3b8c1" style="stroke-miterlimit: 2; opacity: 1;"><g class="fills"/><g class="errorbars"/><g class="lines"><path class="js-line" d="M0,365.75L186.36,365.75L196.72,311.52L207.07,58.87L217.42,48.69L227.78,53.14L238.13,54.75L248.48,60.88L258.84,65.25L269.19,77.08L279.55,90.71L289.9,109.52L300.25,132.02L320.96,183.29L331.31,206.31L341.67,228.83L352.02,245.23L372.73,270.96L383.08,280.63L414.14,301.42L424.49,306.09L445.2,316.14L455.56,319.18L465.91,321.51L476.26,326.03L486.62,329.13L496.97,330.73L507.32,331.95L517.68,336.26L528.03,338.38L538.38,339.53L559.09,344.07L569.44,344.58L579.8,346.77L590.15,347.99L610.86,350.69L621.21,351.64L662.63,355.33L672.98,355.62L704.04,358L714.39,358.57L797.22,361.91L807.58,361.9L838.64,362.77L848.99,362.85L911.11,364.01L921.46,364.05L1025,364.89" style="vector-effect: none; fill: none; stroke: rgb(124, 181, 236); stroke-opacity: 1; stroke-width: 2px; opacity: 1;"/></g><g class="points"/><g class="text"/></g><g class="trace scatter tracecb0486" style="stroke-miterlimit: 2; opacity: 1;"><g class="fills"/><g class="errorbars"/><g class="lines"><path class="js-line" d="M0,365.75L186.36,365.75L196.72,311.58L207.07,50.22L217.42,39.66L227.78,40.03L238.13,43.09L248.48,47.81L258.84,56.52L269.19,64.13L279.55,78.02L289.9,98.24L300.25,123.76L320.96,175L331.31,200.68L352.02,242.7L362.37,256.75L372.73,271.03L383.08,281.45L403.79,298.14L414.14,303.54L424.49,310.8L434.85,315.75L455.56,323.53L465.91,326.68L486.62,333.82L496.97,336.15L507.32,336.98L517.68,341.28L538.38,344.3L548.74,346.73L569.44,349.13L579.8,350.7L590.15,351.23L600.51,352.73L631.57,355.91L641.92,356.42L683.33,359.44L693.69,359.47L745.45,362L755.81,362.04L786.87,362.6L797.22,363.19L1025,365.2" style="vector-effect: none; fill: none; stroke: rgb(67, 67, 72); stroke-opacity: 1; stroke-width: 2px; opacity: 1;"/></g><g class="points"/><g class="text"/></g><g class="trace scatter trace27e701" style="stroke-miterlimit: 2; opacity: 1;"><g class="fills"/><g class="errorbars"/><g class="lines"><path class="js-line" d="M0,365.75L186.36,365.75L196.72,309.32L207.07,31.67L217.42,19.25L227.78,31.02L238.13,34.49L248.48,42.99L258.84,55.52L269.19,70.44L279.55,90.76L289.9,111.67L300.25,140.85L310.61,170.06L320.96,196.44L331.31,221.17L341.67,241.28L362.37,268.6L372.73,278.5L383.08,286.76L393.43,292.36L403.79,299.46L414.14,302.97L424.49,308.31L434.85,312.51L455.56,320.5L465.91,322.93L486.62,329.06L496.97,331.83L507.32,333.91L517.68,337.08L528.03,338.56L538.38,341.12L548.74,342.31L559.09,344.37L569.44,346.03L579.8,346.78L600.51,349.94L610.86,350.84L641.92,354.35L652.27,355.11L693.69,358.04L704.04,357.9L724.75,359.25L735.1,359.68L807.58,362.63L817.93,362.59L890.4,363.8L900.76,364.03L952.53,364.47L962.88,364.63L1025,365" style="vector-effect: none; fill: none; stroke: rgb(144, 237, 125); stroke-opacity: 1; stroke-width: 2px; opacity: 1;"/></g><g class="points"/><g class="text"/></g><g class="trace scatter trace1059c4" style="stroke-miterlimit: 2; opacity: 1;"><g class="fills"/><g class="errorbars"/><g class="lines"><path class="js-line" d="M0,365.75L186.36,365.75L196.72,318.95L207.07,75.97L217.42,71.37L248.48,75.2L258.84,81.88L269.19,89.46L279.55,103.62L289.9,121.79L300.25,147.05L310.61,171.61L320.96,200.71L341.67,241.7L352.02,258L362.37,269.68L372.73,280.05L393.43,293.99L403.79,297.95L414.14,303.37L424.49,307.38L445.2,313.74L455.56,315.55L476.26,320.59L486.62,323.44L496.97,325.24L507.32,325.33L517.68,328.91L528.03,330.39L538.38,332.46L548.74,333.56L559.09,335.83L569.44,336.93L590.15,340.15L600.51,340.93L662.63,348.12L672.98,348.62L683.33,350.39L693.69,350.55L735.1,353.52L745.45,354.82L755.81,354.94L766.16,355.98L859.34,359.97L869.7,360.07L890.4,360.87L900.76,361.04L952.53,362.39L962.88,362.62L1025,363.47" style="vector-effect: none; fill: none; stroke: rgb(247, 163, 92); stroke-opacity: 1; stroke-width: 2px; opacity: 1;"/></g><g class="points"/><g class="text"/></g><g class="trace scatter trace7e4723" style="stroke-miterlimit: 2; opacity: 1;"><g class="fills"/><g class="errorbars"/><g class="lines"><path class="js-line" d="M0,365.75L186.36,365.75L196.72,308.47L207.07,31.93L217.42,23.54L227.78,31.08L238.13,37.07L248.48,44.03L258.84,55.44L269.19,68.36L279.55,89.74L289.9,113.64L300.25,143.39L310.61,169.45L320.96,198.38L341.67,241.82L352.02,257.11L362.37,268.93L372.73,279.08L383.08,287.26L393.43,292.66L403.79,299.29L414.14,303.6L424.49,309.23L434.85,313.93L445.2,316.56L455.56,320.69L465.91,324.17L476.26,326.83L486.62,330.05L496.97,331.85L507.32,333.17L517.68,337.45L528.03,339.22L538.38,340.17L569.44,345.85L579.8,346.38L600.51,349.45L610.86,350.34L621.21,352.19L631.57,352.59L672.98,356.54L683.33,356.69L786.87,361.12L797.22,361.58L838.64,362.82L848.99,362.92L890.4,363.31L900.76,363.73L1025,364.82" style="vector-effect: none; fill: none; stroke: rgb(128, 133, 233); stroke-opacity: 1; stroke-width: 2px; opacity: 1;"/></g><g class="points"/><g class="text"/></g></g></g></g><path class="xlines-above crisp" d="M0,0" style="fill: none;"/><path class="ylines-above crisp" d="M0,0" style="fill: none;"/><g class="overlines-above"/><g class="xaxislayer-above"><g class="xtick"><text text-anchor="middle" x="0" y="451" transform="translate(158.36,0)" style="font-family: 'Lucida Grande', 'Open Sans', verdana, arial, sans-serif; font-size: 10px; fill: rgb(0, 0, 0); fill-opacity: 1; white-space: pre; opacity: 1;">−200 bp</text></g><g class="xtick"><text text-anchor="middle" x="0" y="451" style="font-family: 'Lucida Grande', 'Open Sans', verdana, arial, sans-serif; font-size: 10px; fill: rgb(0, 0, 0); fill-opacity: 1; white-space: pre; opacity: 1;" transform="translate(261.89,0)">−150 bp</text></g><g class="xtick"><text text-anchor="middle" x="0" y="451" style="font-family: 'Lucida Grande', 'Open Sans', verdana, arial, sans-serif; font-size: 10px; fill: rgb(0, 0, 0); fill-opacity: 1; white-space: pre; opacity: 1;" transform="translate(365.43,0)">−100 bp</text></g><g class="xtick"><text text-anchor="middle" x="0" y="451" style="font-family: 'Lucida Grande', 'Open Sans', verdana, arial, sans-serif; font-size: 10px; fill: rgb(0, 0, 0); fill-opacity: 1; white-space: pre; opacity: 1;" transform="translate(468.96,0)">−50 bp</text></g><g class="xtick"><text text-anchor="middle" x="0" y="451" style="font-family: 'Lucida Grande', 'Open Sans', verdana, arial, sans-serif; font-size: 10px; fill: rgb(0, 0, 0); fill-opacity: 1; white-space: pre; opacity: 1;" transform="translate(572.5,0)">0 bp</text></g><g class="xtick"><text text-anchor="middle" x="0" y="451" style="font-family: 'Lucida Grande', 'Open Sans', verdana, arial, sans-serif; font-size: 10px; fill: rgb(0, 0, 0); fill-opacity: 1; white-space: pre; opacity: 1;" transform="translate(676.04,0)">50 bp</text></g><g class="xtick"><text text-anchor="middle" x="0" y="451" style="font-family: 'Lucida Grande', 'Open Sans', verdana, arial, sans-serif; font-size: 10px; fill: rgb(0, 0, 0); fill-opacity: 1; white-space: pre; opacity: 1;" transform="translate(779.57,0)">100 bp</text></g><g class="xtick"><text text-anchor="middle" x="0" y="451" style="font-family: 'Lucida Grande', 'Open Sans', verdana, arial, sans-serif; font-size: 10px; fill: rgb(0, 0, 0); fill-opacity: 1; white-space: pre; opacity: 1;" transform="translate(883.11,0)">150 bp</text></g><g class="xtick"><text text-anchor="middle" x="0" y="451" style="font-family: 'Lucida Grande', 'Open Sans', verdana, arial, sans-serif; font-size: 10px; fill: rgb(0, 0, 0); fill-opacity: 1; white-space: pre; opacity: 1;" transform="translate(986.64,0)">200 bp</text></g></g><g class="yaxislayer-above"><g class="ytick"><text text-anchor="end" x="54" y="3.5" transform="translate(0,415.75)" style="font-family: 'Lucida Grande', 'Open Sans', verdana, arial, sans-serif; font-size: 10px; fill: rgb(0, 0, 0); fill-opacity: 1; white-space: pre; opacity: 1;">0%</text></g><g class="ytick"><text text-anchor="end" x="54" y="3.5" style="font-family: 'Lucida Grande', 'Open Sans', verdana, arial, sans-serif; font-size: 10px; fill: rgb(0, 0, 0); fill-opacity: 1; white-space: pre; opacity: 1;" transform="translate(0,365)">1%</text></g><g class="ytick"><text text-anchor="end" x="54" y="3.5" style="font-family: 'Lucida Grande', 'Open Sans', verdana, arial, sans-serif; font-size: 10px; fill: rgb(0, 0, 0); fill-opacity: 1; white-space: pre; opacity: 1;" transform="translate(0,314.26)">2%</text></g><g class="ytick"><text text-anchor="end" x="54" y="3.5" style="font-family: 'Lucida Grande', 'Open Sans', verdana, arial, sans-serif; font-size: 10px; fill: rgb(0, 0, 0); fill-opacity: 1; white-space: pre; opacity: 1;" transform="translate(0,263.51)">3%</text></g><g class="ytick"><text text-anchor="end" x="54" y="3.5" style="font-family: 'Lucida Grande', 'Open Sans', verdana, arial, sans-serif; font-size: 10px; fill: rgb(0, 0, 0); fill-opacity: 1; white-space: pre; opacity: 1;" transform="translate(0,212.77)">4%</text></g><g class="ytick"><text text-anchor="end" x="54" y="3.5" style="font-family: 'Lucida Grande', 'Open Sans', verdana, arial, sans-serif; font-size: 10px; fill: rgb(0, 0, 0); fill-opacity: 1; white-space: pre; opacity: 1;" transform="translate(0,162.01999999999998)">5%</text></g><g class="ytick"><text text-anchor="end" x="54" y="3.5" style="font-family: 'Lucida Grande', 'Open Sans', verdana, arial, sans-serif; font-size: 10px; fill: rgb(0, 0, 0); fill-opacity: 1; white-space: pre; opacity: 1;" transform="translate(0,111.27000000000001)">6%</text></g><g class="ytick"><text text-anchor="end" x="54" y="3.5" style="font-family: 'Lucida Grande', 'Open Sans', verdana, arial, sans-serif; font-size: 10px; fill: rgb(0, 0, 0); fill-opacity: 1; white-space: pre; opacity: 1;" transform="translate(0,60.53)">7%</text></g></g><g class="overaxes-above"/></g></g><g class="polarlayer"/><g class="smithlayer"/><g class="ternarylayer"/><g class="geolayer"/><g class="funnelarealayer"/><g class="pielayer"/><g class="iciclelayer"/><g class="treemaplayer"/><g class="sunburstlayer"/><g class="glimages"/><defs id="topdefs-d51540"><g class="clips"/></defs><g class="layer-above"><g class="imagelayer"/><g class="shapelayer"/></g><g class="infolayer"><g class="g-gtitle"><text class="gtitle" x="550" y="25" text-anchor="middle" dy="0em" style="opacity: 1; font-family: 'Lucida Grande', 'Open Sans', verdana, arial, sans-serif; font-size: 20px; fill: rgb(42, 63, 95); fill-opacity: 1; white-space: pre;"><tspan class="line" dy="0em" x="550" y="25">RSeQC: Inner Distance</tspan><tspan class="line" dy="1.3em" x="550" y="25">​<tspan style="font-size:70%" dy="-0.6em">Percentages, 25 samples</tspan><tspan dy="0.42em">​</tspan></tspan></text></g><g class="g-xtitle"><text class="xtitle" x="572.5" y="472.3" text-anchor="middle" style="opacity: 0.3; font-family: 'Lucida Grande', 'Open Sans', verdana, arial, sans-serif; font-size: 14px; fill: rgb(0, 0, 0); fill-opacity: 1; white-space: pre;">Inner Distance (bp)</text></g><g class="g-ytitle"><text class="ytitle" transform="rotate(-90,23.725,242.5)" x="23.725" y="242.5" text-anchor="middle" style="opacity: 0.3; font-family: 'Lucida Grande', 'Open Sans', verdana, arial, sans-serif; font-size: 14px; fill: rgb(0, 0, 0); fill-opacity: 1; white-space: pre;">Percentage</text></g></g></svg>