<svg class="main-svg" xmlns="http://www.w3.org/2000/svg" xmlns:xlink="http://www.w3.org/1999/xlink" width="2200" height="1000" style="" viewBox="0 0 1100 500"><rect x="0" y="0" width="1100" height="500" style="fill: rgb(255, 255, 255); fill-opacity: 1;"/><defs id="defs-e35b6e"><g class="clips"><clipPath id="clipe35b6exyplot" class="plotclip"><rect width="1025" height="385"/></clipPath><clipPath class="axesclip" id="clipe35b6ex"><rect x="60" y="0" width="1025" height="500"/></clipPath><clipPath class="axesclip" id="clipe35b6ey"><rect x="0" y="50" width="1100" height="385"/></clipPath><clipPath class="axesclip" id="clipe35b6exy"><rect x="60" y="50" width="1025" height="385"/></clipPath></g><g class="gradients"/><g class="patterns"/></defs><g class="bglayer"/><g class="layer-below"><g class="imagelayer"/><g class="shapelayer"/></g><g class="cartesianlayer"><g class="subplot xy"><g class="layer-subplot"><g class="shapelayer"/><g class="imagelayer"/></g><g class="minor-gridlayer"><g class="x"/><g class="y"/></g><g class="gridlayer"><g class="x"><path class="xgrid crisp" transform="translate(158.36,0)" d="M0,50v385" style="stroke: rgb(0, 0, 0); stroke-opacity: 0.05; stroke-width: 1px;"/><path class="xgrid crisp" transform="translate(261.89,0)" d="M0,50v385" style="stroke: rgb(0, 0, 0); stroke-opacity: 0.05; stroke-width: 1px;"/><path class="xgrid crisp" transform="translate(365.43,0)" d="M0,50v385" style="stroke: rgb(0, 0, 0); stroke-opacity: 0.05; stroke-width: 1px;"/><path class="xgrid crisp" transform="translate(468.96,0)" d="M0,50v385" style="stroke: rgb(0, 0, 0); stroke-opacity: 0.05; stroke-width: 1px;"/><path class="xgrid crisp" transform="translate(676.04,0)" d="M0,50v385" style="stroke: rgb(0, 0, 0); stroke-opacity: 0.05; stroke-width: 1px;"/><path class="xgrid crisp" transform="translate(779.57,0)" d="M0,50v385" style="stroke: rgb(0, 0, 0); stroke-opacity: 0.05; stroke-width: 1px;"/><path class="xgrid crisp" transform="translate(883.11,0)" d="M0,50v385" style="stroke: rgb(0, 0, 0); stroke-opacity: 0.05; stroke-width: 1px;"/><path class="xgrid crisp" transform="translate(986.64,0)" d="M0,50v385" style="stroke: rgb(0, 0, 0); stroke-opacity: 0.05; stroke-width: 1px;"/></g><g class="y"><path class="ygrid crisp" transform="translate(0,364.88)" d="M60,0h1025" style="stroke: rgb(0, 0, 0); stroke-opacity: 0.05; stroke-width: 1px;"/><path class="ygrid crisp" transform="translate(0,314.02)" d="M60,0h1025" style="stroke: rgb(0, 0, 0); stroke-opacity: 0.05; stroke-width: 1px;"/><path class="ygrid crisp" transform="translate(0,263.15)" d="M60,0h1025" style="stroke: rgb(0, 0, 0); stroke-opacity: 0.05; stroke-width: 1px;"/><path class="ygrid crisp" transform="translate(0,212.29)" d="M60,0h1025" style="stroke: rgb(0, 0, 0); stroke-opacity: 0.05; stroke-width: 1px;"/><path class="ygrid crisp" transform="translate(0,161.42000000000002)" d="M60,0h1025" style="stroke: rgb(0, 0, 0); stroke-opacity: 0.05; stroke-width: 1px;"/><path class="ygrid crisp" transform="translate(0,110.56)" d="M60,0h1025" style="stroke: rgb(0, 0, 0); stroke-opacity: 0.05; stroke-width: 1px;"/><path class="ygrid crisp" transform="translate(0,59.69)" d="M60,0h1025" style="stroke: rgb(0, 0, 0); stroke-opacity: 0.05; stroke-width: 1px;"/></g></g><g class="zerolinelayer"><path class="xzl zl crisp" transform="translate(572.5,0)" d="M0,50v385" style="stroke: rgb(0, 0, 0); stroke-opacity: 0.05; stroke-width: 2px;"/><path class="yzl zl crisp" transform="translate(0,415.75)" d="M60,0h1025" style="stroke: rgb(0, 0, 0); stroke-opacity: 0.05; stroke-width: 2px;"/></g><g class="layer-between"><g class="shapelayer"/><g class="imagelayer"/></g><path class="xlines-below"/><path class="ylines-below"/><g class="overlines-below"/><g class="xaxislayer-below"/><g class="yaxislayer-below"/><g class="overaxes-below"/><g class="overplot"><g class="xy" transform="translate(60,50)" clip-path="url(#clipe35b6exyplot)"><g class="scatterlayer mlayer"><g class="trace scatter trace091dd3" style="stroke-miterlimit: 2; opacity: 1;"><g class="fills"/><g class="errorbars"/><g class="lines"><path class="js-line" d="M0,365.75L186.36,365.75L196.72,322.19L207.07,107.31L217.42,98.86L227.78,96.72L238.13,99.79L248.48,100.87L258.84,105.24L269.19,109.6L279.55,120.16L300.25,149.67L310.61,169.94L320.96,192.96L331.31,209.81L341.67,228.87L352.02,240.17L362.37,251.44L372.73,260.87L383.08,270.49L393.43,276.1L403.79,281.88L414.14,286.38L445.2,300.29L455.56,303.46L496.97,318.54L507.32,318.78L517.68,324.16L528.03,326.3L538.38,329.4L548.74,330.84L559.09,333.99L569.44,335.58L600.51,341.99L610.86,342.88L641.92,347.81L652.27,349.08L714.39,354.85L724.75,355.53L745.45,356.81L755.81,357.44L786.87,359.33L797.22,359.56L931.82,363.36L942.17,363.34L983.59,364.09L993.94,363.93L1014.65,364.5L1025,364.26" style="vector-effect: none; fill: none; stroke: rgb(124, 181, 236); stroke-opacity: 1; stroke-width: 2px; opacity: 1;"/></g><g class="points"/><g class="text"/></g><g class="trace scatter traceb990b2" style="stroke-miterlimit: 2; opacity: 1;"><g class="fills"/><g class="errorbars"/><g class="lines"><path class="js-line" d="M0,365.75L186.36,365.75L196.72,337.23L207.07,194.78L217.42,188.58L227.78,189.02L238.13,185.43L248.48,184.93L258.84,185.43L269.19,186.87L279.55,191.71L289.9,199.23L300.25,211.2L310.61,223.45L320.96,239.7L341.67,263.39L352.02,276.8L372.73,292.11L383.08,300.08L403.79,308.93L414.14,314.23L424.49,316.43L434.85,320.46L486.62,332.11L496.97,334.39L507.32,333.63L517.68,337.9L579.8,346.26L590.15,347.51L683.33,356.79L693.69,356.59L797.22,361.46L807.58,361.58L859.34,362.87L869.7,363.11L931.82,363.95L942.17,363.96L1004.29,364.69L1014.65,364.72L1025,364.82" style="vector-effect: none; fill: none; stroke: rgb(67, 67, 72); stroke-opacity: 1; stroke-width: 2px; opacity: 1;"/></g><g class="points"/><g class="text"/></g><g class="trace scatter trace7c7f9c" style="stroke-miterlimit: 2; opacity: 1;"><g class="fills"/><g class="errorbars"/><g class="lines"><path class="js-line" d="M0,365.75L186.36,365.75L196.72,314.42L207.07,66.39L217.42,56.97L238.13,61.54L248.48,65.03L258.84,68.85L269.19,78.01L289.9,113.06L300.25,134.67L320.96,183L331.31,204.97L341.67,225.22L352.02,240.46L372.73,270.56L383.08,278.98L393.43,287.27L403.79,294.45L424.49,306.85L434.85,311.16L455.56,318.7L465.91,321.79L486.62,329.45L496.97,330.34L507.32,330.45L517.68,335.39L528.03,337.25L538.38,338.2L548.74,341.25L559.09,343.13L569.44,343.8L579.8,345.53L631.57,351.47L641.92,352.22L724.75,358.31L735.1,358.81L817.93,361.92L828.28,361.8L859.34,363L869.7,363.02L952.53,364.24L962.88,364.18L1004.29,364.79L1014.65,364.82L1025,364.96" style="vector-effect: none; fill: none; stroke: rgb(144, 237, 125); stroke-opacity: 1; stroke-width: 2px; opacity: 1;"/></g><g class="points"/><g class="text"/></g><g class="trace scatter trace4a952a" style="stroke-miterlimit: 2; opacity: 1;"><g class="fills"/><g class="errorbars"/><g class="lines"><path class="js-line" d="M0,365.75L186.36,365.75L196.72,310.71L207.07,50.96L217.42,40.55L227.78,51L238.13,52.22L248.48,56.69L258.84,65.41L269.19,74.57L279.55,93.59L289.9,111.64L300.25,138.97L310.61,163.91L320.96,191.66L341.67,234.29L352.02,252.56L362.37,265.96L372.73,274.36L383.08,283.95L393.43,290.65L403.79,296.26L414.14,303.63L424.49,306.34L434.85,310.41L465.91,321.72L476.26,324.31L486.62,327.66L496.97,330.2L507.32,331.64L517.68,335.19L528.03,336.26L538.38,339.37L579.8,346.1L590.15,347.27L621.21,351.24L631.57,352.02L704.04,357.4L714.39,357.85L735.1,358.96L745.45,359.63L766.16,360.33L776.52,360.72L838.64,362.38L848.99,362.55L880.05,363.23L890.4,363.2L1025,364.63" style="vector-effect: none; fill: none; stroke: rgb(247, 163, 92); stroke-opacity: 1; stroke-width: 2px; opacity: 1;"/></g><g class="points"/><g class="text"/></g><g class="trace scatter traced9b736" style="stroke-miterlimit: 2; opacity: 1;"><g class="fills"/><g class="errorbars"/><g class="lines"><path class="js-line" d="M0,365.75L186.36,365.75L196.72,311.89L207.07,58.85L217.42,50.66L227.78,52.7L238.13,57.36L248.48,62.61L258.84,70.26L269.19,79.67L279.55,99.59L289.9,120.69L300.25,143.52L320.96,196.44L331.31,216.56L341.67,238.78L352.02,252.17L362.37,264.68L372.73,272.46L383.08,280.72L393.43,286.77L403.79,291.73L414.14,297.73L424.49,302.97L434.85,305.76L445.2,310.58L455.56,313.62L465.91,316.99L476.26,321.36L486.62,324L496.97,327.92L507.32,328.97L517.68,333.01L528.03,334.25L538.38,336.75L548.74,339.27L559.09,340.11L569.44,342.84L579.8,344.09L590.15,346.17L600.51,346.92L610.86,348.52L621.21,349.36L652.27,352.88L662.63,353.69L683.33,355.3L693.69,356.07L704.04,357.25L714.39,357.26L735.1,358.67L745.45,359.27L838.64,362.42L848.99,362.54L1025,364.82" style="vector-effect: none; fill: none; stroke: rgb(128, 133, 233); stroke-opacity: 1; stroke-width: 2px; opacity: 1;"/></g><g class="points"/><g class="text"/></g><g class="trace scatter trace95d6e3" style="stroke-miterlimit: 2; opacity: 1;"><g class="fills"/><g class="errorbars"/><g class="lines"><path class="js-line" d="M0,365.75L186.36,365.75L196.72,325.27L207.07,109.68L217.42,106.76L227.78,110.32L238.13,109.16L248.48,112.41L258.84,119L269.19,123.48L279.55,134.81L289.9,147.94L300.25,166.52L310.61,184.74L320.96,205L331.31,222.23L341.67,236.88L352.02,248.81L362.37,257.92L383.08,271.51L393.43,276.15L414.14,284.04L424.49,288.66L445.2,295.17L455.56,299.49L465.91,303.92L476.26,306.53L486.62,309.29L496.97,313.46L507.32,313.59L517.68,317.92L548.74,324.97L559.09,328.56L579.8,332.58L590.15,334.91L600.51,337.27L610.86,337.76L621.21,340.02L631.57,341.34L652.27,345.36L662.63,346.05L693.69,350.37L704.04,350.68L735.1,353.49L745.45,354.22L807.58,358.19L817.93,358.35L848.99,360.06L859.34,360.36L890.4,361.07L900.76,361.67L1025,363.84" style="vector-effect: none; fill: none; stroke: rgb(241, 92, 128); stroke-opacity: 1; stroke-width: 2px; opacity: 1;"/></g><g class="points"/><g class="text"/></g><g class="trace scatter trace271f31" style="stroke-miterlimit: 2; opacity: 1;"><g class="fills"/><g class="errorbars"/><g class="lines"><path class="js-line" d="M0,365.75L186.36,365.75L196.72,324.26L207.07,112.58L217.42,104.45L227.78,106.26L238.13,103.7L248.48,104.96L258.84,107.05L269.19,111.04L279.55,121.63L289.9,133.54L300.25,149.82L310.61,169.34L320.96,191.06L341.67,227.53L352.02,243.75L362.37,256.5L372.73,265.99L383.08,273.31L393.43,279.62L403.79,284.95L414.14,292.14L424.49,294.62L434.85,299.21L465.91,308.3L476.26,312.4L496.97,317.17L507.32,318.04L517.68,323.26L528.03,325L548.74,329.42L559.09,331.62L569.44,334.08L579.8,334.78L631.57,344.03L641.92,345.57L672.98,349.62L683.33,350.27L704.04,352.27L714.39,353.35L766.16,356.84L776.52,357.1L797.22,358.67L807.58,358.72L848.99,360.56L859.34,360.98L911.11,362.22L921.46,362.74L983.59,363.71L993.94,363.79L1025,364" style="vector-effect: none; fill: none; stroke: rgb(228, 211, 84); stroke-opacity: 1; stroke-width: 2px; opacity: 1;"/></g><g class="points"/><g class="text"/></g><g class="trace scatter trace5d6ec5" style="stroke-miterlimit: 2; opacity: 1;"><g class="fills"/><g class="errorbars"/><g class="lines"><path class="js-line" d="M0,365.75L186.36,365.75L196.72,312.84L207.07,44.99L217.42,42.57L238.13,55.06L248.48,63.39L258.84,76.1L269.19,90.28L279.55,112.3L289.9,136.47L300.25,160.09L310.61,186.12L320.96,210.59L331.31,228.36L341.67,245.41L352.02,257.18L372.73,274.76L383.08,281.59L393.43,285.91L403.79,291.11L414.14,297.26L424.49,301.67L445.2,308.54L455.56,311.56L465.91,314.88L476.26,319.37L486.62,321.7L496.97,325.18L507.32,326.76L517.68,330.4L538.38,333.65L548.74,336.38L569.44,340.38L579.8,341.85L610.86,346.62L621.21,347.33L652.27,350.95L662.63,352.1L683.33,353.27L693.69,354.62L776.52,359.23L786.87,359.72L900.76,363.02L911.11,362.71L952.53,363.78L962.88,363.79L1025,364.45" style="vector-effect: none; fill: none; stroke: rgb(43, 144, 143); stroke-opacity: 1; stroke-width: 2px; opacity: 1;"/></g><g class="points"/><g class="text"/></g><g class="trace scatter tracec424a8" style="stroke-miterlimit: 2; opacity: 1;"><g class="fills"/><g class="errorbars"/><g class="lines"><path class="js-line" d="M0,365.75L186.36,365.75L196.72,319.02L207.07,73.73L217.42,67.05L227.78,71.7L238.13,72L248.48,78.06L258.84,80.31L269.19,89.67L279.55,104.48L289.9,121.51L300.25,142.47L310.61,168.85L320.96,191.78L341.67,235.6L352.02,249.63L362.37,262.23L372.73,271.94L383.08,278.66L393.43,286.58L414.14,293.97L424.49,301.43L455.56,311.39L465.91,315.75L476.26,317.36L486.62,321.61L507.32,325.86L517.68,329.16L569.44,340.09L579.8,341.05L600.51,345.14L610.86,346.9L621.21,347.38L631.57,349.06L683.33,354.31L693.69,354.63L776.52,359.55L786.87,360L931.82,363.6L942.17,363.71L993.94,364.31L1004.29,364.41L1025,364.6" style="vector-effect: none; fill: none; stroke: rgb(244, 91, 91); stroke-opacity: 1; stroke-width: 2px; opacity: 1;"/></g><g class="points"/><g class="text"/></g><g class="trace scatter traceda23f8" style="stroke-miterlimit: 2; opacity: 1;"><g class="fills"/><g class="errorbars"/><g class="lines"><path class="js-line" d="M0,365.75L186.36,365.75L196.72,324.76L207.07,117.1L217.42,111.67L248.48,115.23L258.84,117.68L269.19,121.62L279.55,132.9L289.9,140.69L300.25,158.49L310.61,174.98L320.96,197.32L331.31,212.53L341.67,229.35L352.02,243.66L362.37,253.21L372.73,264.33L383.08,269.29L393.43,275.5L403.79,280.3L414.14,286.81L424.49,290.09L445.2,298.81L455.56,301.23L486.62,310.66L496.97,314.79L507.32,315.25L517.68,319.68L528.03,321.98L538.38,325.16L579.8,334.09L590.15,336.02L631.57,342.59L641.92,344.52L652.27,345.08L662.63,346.77L672.98,348.42L683.33,349.05L745.45,354.95L755.81,355.34L797.22,357.95L807.58,358.29L848.99,360.32L859.34,360.55L900.76,361.84L911.11,361.8L1014.65,363.78L1025,363.95" style="vector-effect: none; fill: none; stroke: rgb(145, 232, 225); stroke-opacity: 1; stroke-width: 2px; opacity: 1;"/></g><g class="points"/><g class="text"/></g><g class="trace scatter traced5b656" style="stroke-miterlimit: 2; opacity: 1;"><g class="fills"/><g class="errorbars"/><g class="lines"><path class="js-line" d="M0,365.75L186.36,365.75L196.72,313L207.07,64.66L217.42,58.01L227.78,63.94L238.13,65.17L248.48,70.81L258.84,79.81L269.19,89.52L279.55,106.25L289.9,125.91L300.25,148.58L320.96,196.42L331.31,215.83L352.02,248.37L362.37,259.91L383.08,278.3L393.43,284.97L424.49,300.9L434.85,304.87L445.2,310.66L455.56,313.56L465.91,315.71L476.26,320.12L496.97,325.51L507.32,326.83L517.68,331.23L528.03,333.52L548.74,338.36L559.09,339.69L569.44,340.7L579.8,342.75L600.51,345.99L610.86,347.86L621.21,348.63L631.57,350.19L641.92,350.69L652.27,351.98L693.69,355.97L704.04,356.33L714.39,356.5L724.75,357.82L745.45,358.42L755.81,359.17L786.87,359.98L797.22,360.64L838.64,361.9L848.99,362.06L921.46,363.47L931.82,363.7L1025,364.53" style="vector-effect: none; fill: none; stroke: rgb(124, 181, 236); stroke-opacity: 1; stroke-width: 2px; opacity: 1;"/></g><g class="points"/><g class="text"/></g><g class="trace scatter tracece2797" style="stroke-miterlimit: 2; opacity: 1;"><g class="fills"/><g class="errorbars"/><g class="lines"><path class="js-line" d="M0,365.75L186.36,365.75L196.72,313.84L207.07,69.92L217.42,58.86L227.78,62.7L238.13,67.4L248.48,69.54L258.84,78.43L269.19,87.76L279.55,99.98L289.9,118.03L300.25,140.94L320.96,187.97L331.31,208.65L341.67,228.6L352.02,243.27L362.37,256.67L372.73,267.77L383.08,276.39L393.43,283.35L424.49,302.83L434.85,307.41L445.2,310.43L455.56,314.4L465.91,317.73L476.26,321.9L496.97,328.3L507.32,329.21L517.68,333.57L528.03,335.2L569.44,343.1L579.8,343.72L600.51,347.66L610.86,348.1L621.21,350.39L631.57,351.34L672.98,354.33L683.33,355.94L745.45,359.21L755.81,359.77L776.52,360.52L786.87,360.9L817.93,361.92L828.28,362.08L859.34,362.77L869.7,362.76L952.53,364.1L962.88,364.11L1025,364.72" style="vector-effect: none; fill: none; stroke: rgb(67, 67, 72); stroke-opacity: 1; stroke-width: 2px; opacity: 1;"/></g><g class="points"/><g class="text"/></g><g class="trace scatter tracea735f1" style="stroke-miterlimit: 2; opacity: 1;"><g class="fills"/><g class="errorbars"/><g class="lines"><path class="js-line" d="M0,365.75L186.36,365.75L196.72,312.93L207.07,49.76L217.42,41.1L227.78,48.13L238.13,50.58L248.48,54.67L258.84,62.34L269.19,72.12L279.55,87.97L300.25,131.04L310.61,159.75L320.96,187.63L331.31,212.28L341.67,237.96L352.02,252.49L362.37,266.3L372.73,277.26L393.43,292.94L403.79,299.22L424.49,308.87L434.85,312.34L445.2,316.08L455.56,318.19L476.26,325.72L486.62,328.32L496.97,331.93L507.32,332.48L528.03,337.79L538.38,340.21L559.09,343.15L569.44,345.07L631.57,352.35L641.92,353.16L672.98,355.87L683.33,356.18L714.39,358.04L724.75,358.93L755.81,359.93L766.16,360.44L817.93,362.15L828.28,362.2L952.53,364.06L962.88,364.17L1014.65,364.75L1025,364.77" style="vector-effect: none; fill: none; stroke: rgb(144, 237, 125); stroke-opacity: 1; stroke-width: 2px; opacity: 1;"/></g><g class="points"/><g class="text"/></g><g class="trace scatter trace24351b" style="stroke-miterlimit: 2; opacity: 1;"><g class="fills"/><g class="errorbars"/><g class="lines"><path class="js-line" d="M0,365.75L186.36,365.75L196.72,323.18L207.07,94.34L217.42,91.78L227.78,92.86L238.13,90.69L248.48,92.38L258.84,96.17L269.19,102.99L279.55,114.68L289.9,127.74L300.25,146.87L310.61,170.75L320.96,197.05L341.67,237.75L352.02,252.61L362.37,265.4L372.73,275.74L383.08,284.09L393.43,288.96L414.14,299.37L424.49,302.8L445.2,309.28L455.56,309.78L476.26,316.75L486.62,318.45L496.97,321.23L507.32,320.61L517.68,325.41L528.03,327.55L548.74,330.2L559.09,332.69L579.8,335.41L590.15,337.96L600.51,339.78L610.86,340.28L621.21,342.49L631.57,343.78L745.45,354.74L755.81,354.89L848.99,359.94L859.34,359.8L911.11,361.66L921.46,361.94L1025,363.76" style="vector-effect: none; fill: none; stroke: rgb(247, 163, 92); stroke-opacity: 1; stroke-width: 2px; opacity: 1;"/></g><g class="points"/><g class="text"/></g><g class="trace scatter trace0f34a5" style="stroke-miterlimit: 2; opacity: 1;"><g class="fills"/><g class="errorbars"/><g class="lines"><path class="js-line" d="M0,365.75L186.36,365.75L196.72,322.35L207.07,93.86L217.42,88.55L227.78,91.37L238.13,90.99L248.48,94.91L258.84,97.54L269.19,105.33L279.55,117.49L289.9,129.3L300.25,148.52L320.96,194.97L331.31,214.09L341.67,232.88L352.02,248.45L362.37,259.34L372.73,269.03L393.43,280.78L403.79,285.78L424.49,295.01L434.85,299.7L455.56,304.5L465.91,308.91L496.97,318.98L507.32,320.74L517.68,324.37L528.03,325.57L559.09,333.44L569.44,335.36L579.8,337.86L590.15,339.53L600.51,341.79L610.86,342.87L631.57,345.34L641.92,348.03L683.33,351.65L693.69,352.95L724.75,355.19L735.1,355.83L755.81,357.87L766.16,357.76L828.28,360.82L838.64,361.15L900.76,362.61L911.11,362.97L1025,364.45" style="vector-effect: none; fill: none; stroke: rgb(128, 133, 233); stroke-opacity: 1; stroke-width: 2px; opacity: 1;"/></g><g class="points"/><g class="text"/></g><g class="trace scatter trace2fa849" style="stroke-miterlimit: 2; opacity: 1;"><g class="fills"/><g class="errorbars"/><g class="lines"><path class="js-line" d="M0,365.75L186.36,365.75L196.72,313.87L207.07,73.7L217.42,64.55L227.78,67.25L238.13,68.79L248.48,76.29L258.84,81.2L269.19,89.05L279.55,104.01L289.9,117.76L300.25,139.11L310.61,160.89L320.96,185.36L331.31,205.88L341.67,228.34L352.02,243.74L362.37,257.39L383.08,276.87L393.43,283.58L414.14,297.51L424.49,301.67L455.56,315.37L465.91,318.6L476.26,321.14L486.62,324.98L496.97,327.88L507.32,329.42L517.68,333.8L528.03,335.51L538.38,336.89L548.74,339.25L569.44,343.24L579.8,344.18L610.86,349.1L621.21,349.75L714.39,357.32L724.75,357.33L735.1,358.52L745.45,358.35L776.52,360.14L786.87,360.41L838.64,362.03L848.99,362.07L921.46,363.38L931.82,363.52L1025,364.46" style="vector-effect: none; fill: none; stroke: rgb(241, 92, 128); stroke-opacity: 1; stroke-width: 2px; opacity: 1;"/></g><g class="points"/><g class="text"/></g><g class="trace scatter trace079bf6" style="stroke-miterlimit: 2; opacity: 1;"><g class="fills"/><g class="errorbars"/><g class="lines"><path class="js-line" d="M0,365.75L186.36,365.75L196.72,310.24L207.07,52.56L217.42,42.45L238.13,50.04L248.48,54.41L258.84,62.65L269.19,72.45L279.55,89.64L289.9,108.99L320.96,190.33L331.31,214.55L341.67,235.76L352.02,254.22L362.37,266.07L372.73,276.77L383.08,284.89L393.43,291.75L403.79,297.42L414.14,302.12L424.49,307.89L434.85,311.33L445.2,315.73L455.56,318.51L465.91,321.37L476.26,325.88L496.97,331.22L507.32,332.46L517.68,335.98L528.03,337.05L548.74,340.94L559.09,342.77L610.86,350.79L621.21,351.5L631.57,352.76L641.92,353.19L662.63,354.56L672.98,355.39L683.33,356.4L693.69,356.59L745.45,359.7L755.81,359.78L807.58,361.67L817.93,361.85L859.34,362.83L869.7,363L900.76,363.64L911.11,363.57L962.88,364.32L973.23,364.38L1025,364.71" style="vector-effect: none; fill: none; stroke: rgb(228, 211, 84); stroke-opacity: 1; stroke-width: 2px; opacity: 1;"/></g><g class="points"/><g class="text"/></g><g class="trace scatter trace333a72" style="stroke-miterlimit: 2; opacity: 1;"><g class="fills"/><g class="errorbars"/><g class="lines"><path class="js-line" d="M0,365.75L186.36,365.75L196.72,308.96L207.07,39.83L217.42,32.12L227.78,39.83L238.13,41L258.84,59.31L269.19,71.5L289.9,112.2L300.25,140.52L320.96,196.25L331.31,218.52L341.67,238.83L352.02,254.76L362.37,267.83L372.73,276.65L393.43,292.59L403.79,297.22L424.49,307.73L434.85,313.13L445.2,315.31L455.56,318.82L465.91,322.7L476.26,324.7L507.32,332.18L517.68,336.58L528.03,337.69L538.38,339.6L569.44,344.77L579.8,346.28L600.51,350.12L610.86,350.43L662.63,355.44L672.98,355.6L693.69,357.39L704.04,357.83L735.1,359.59L745.45,359.92L880.05,363.44L890.4,363.48L921.46,364.09L931.82,363.95L973.23,364.54L983.59,364.59L1025,364.91" style="vector-effect: none; fill: none; stroke: rgb(43, 144, 143); stroke-opacity: 1; stroke-width: 2px; opacity: 1;"/></g><g class="points"/><g class="text"/></g><g class="trace scatter trace4408e0" style="stroke-miterlimit: 2; opacity: 1;"><g class="fills"/><g class="errorbars"/><g class="lines"><path class="js-line" d="M0,365.75L186.36,365.75L196.72,322.78L207.07,104.36L217.42,100.01L238.13,102.83L248.48,104.02L258.84,107.75L269.19,112.41L289.9,135.35L300.25,154.75L310.61,173.76L320.96,197.97L331.31,220.03L341.67,236.5L352.02,250.87L362.37,262.45L372.73,270.89L383.08,276.52L414.14,291.74L424.49,295.02L465.91,308.19L476.26,310.89L496.97,316.53L507.32,317.72L517.68,322.62L528.03,323.4L538.38,326.09L548.74,327.28L590.15,336.19L600.51,337.72L621.21,341.64L631.57,342.82L641.92,343.71L652.27,345.49L662.63,347.29L672.98,347.89L704.04,350.97L714.39,352.45L786.87,357.3L797.22,358.03L807.58,358.01L817.93,358.85L880.05,361.18L890.4,361.25L931.82,362.53L942.17,362.57L983.59,363.53L993.94,363.5L1025,364.02" style="vector-effect: none; fill: none; stroke: rgb(244, 91, 91); stroke-opacity: 1; stroke-width: 2px; opacity: 1;"/></g><g class="points"/><g class="text"/></g><g class="trace scatter trace9c72af" style="stroke-miterlimit: 2; opacity: 1;"><g class="fills"/><g class="errorbars"/><g class="lines"><path class="js-line" d="M0,365.75L186.36,365.75L196.72,321.28L207.07,87.25L217.42,83.13L227.78,84.22L238.13,86.31L258.84,92.69L269.19,98.18L289.9,130.58L300.25,152.63L320.96,199.51L331.31,220.07L341.67,237.67L352.02,252.37L362.37,262.87L372.73,271.8L383.08,277.53L393.43,282.23L414.14,291.92L424.49,296.36L445.2,305L455.56,305.33L465.91,310.72L476.26,313.93L496.97,320.01L507.32,320.25L517.68,325.6L528.03,327.55L548.74,331.46L559.09,334.03L569.44,335.56L579.8,338.07L631.57,346.37L641.92,346.68L672.98,350.79L683.33,351.55L704.04,353.33L714.39,354.15L766.16,357.9L776.52,357.96L786.87,358.98L797.22,359.19L859.34,361.39L869.7,361.61L921.46,362.72L931.82,363.05L952.53,363.42L962.88,363.66L1025,364.26" style="vector-effect: none; fill: none; stroke: rgb(145, 232, 225); stroke-opacity: 1; stroke-width: 2px; opacity: 1;"/></g><g class="points"/><g class="text"/></g><g class="trace scatter tracef23138" style="stroke-miterlimit: 2; opacity: 1;"><g class="fills"/><g class="errorbars"/><g class="lines"><path class="js-line" d="M0,365.75L186.36,365.75L196.72,311.57L207.07,59.13L217.42,48.96L227.78,53.41L238.13,55.02L248.48,61.14L258.84,65.51L269.19,77.32L279.55,90.94L289.9,109.73L300.25,132.22L320.96,183.45L331.31,206.45L341.67,228.95L352.02,245.34L372.73,271.04L383.08,280.7L414.14,301.48L424.49,306.14L445.2,316.18L455.56,319.22L465.91,321.54L476.26,326.06L486.62,329.16L496.97,330.76L507.32,331.98L517.68,336.28L528.03,338.4L538.38,339.55L559.09,344.09L569.44,344.6L579.8,346.78L590.15,348L610.86,350.7L621.21,351.66L662.63,355.34L672.98,355.63L714.39,358.57L724.75,359.07L817.93,362.34L828.28,362.47L900.76,364.08L911.11,364.01L1025,364.9" style="vector-effect: none; fill: none; stroke: rgb(124, 181, 236); stroke-opacity: 1; stroke-width: 2px; opacity: 1;"/></g><g class="points"/><g class="text"/></g><g class="trace scatter tracec59c24" style="stroke-miterlimit: 2; opacity: 1;"><g class="fills"/><g class="errorbars"/><g class="lines"><path class="js-line" d="M0,365.75L186.36,365.75L196.72,311.59L207.07,50.27L217.42,39.71L227.78,40.09L238.13,43.14L248.48,47.86L258.84,56.58L269.19,64.18L279.55,78.07L289.9,98.28L300.25,123.8L320.96,175.04L331.31,200.71L352.02,242.72L362.37,256.77L372.73,271.05L383.08,281.46L403.79,298.16L414.14,303.55L424.49,310.81L434.85,315.76L455.56,323.54L465.91,326.69L486.62,333.82L496.97,336.16L507.32,336.98L517.68,341.29L538.38,344.3L548.74,346.74L569.44,349.13L579.8,350.7L590.15,351.23L600.51,352.73L631.57,355.91L641.92,356.42L683.33,359.44L693.69,359.47L745.45,362L755.81,362.04L786.87,362.6L797.22,363.19L1025,365.2" style="vector-effect: none; fill: none; stroke: rgb(67, 67, 72); stroke-opacity: 1; stroke-width: 2px; opacity: 1;"/></g><g class="points"/><g class="text"/></g><g class="trace scatter trace926752" style="stroke-miterlimit: 2; opacity: 1;"><g class="fills"/><g class="errorbars"/><g class="lines"><path class="js-line" d="M0,365.75L186.36,365.75L196.72,309.32L207.07,31.67L217.42,19.25L227.78,31.02L238.13,34.49L248.48,42.99L258.84,55.52L269.19,70.44L279.55,90.76L289.9,111.67L300.25,140.85L310.61,170.06L320.96,196.44L331.31,221.17L341.67,241.28L362.37,268.6L372.73,278.5L383.08,286.76L393.43,292.36L403.79,299.46L414.14,302.97L424.49,308.31L434.85,312.51L455.56,320.5L465.91,322.93L486.62,329.06L496.97,331.83L507.32,333.91L517.68,337.08L528.03,338.56L538.38,341.12L548.74,342.31L559.09,344.37L569.44,346.03L579.8,346.78L600.51,349.94L610.86,350.84L641.92,354.35L652.27,355.11L693.69,358.04L704.04,357.9L724.75,359.25L735.1,359.68L807.58,362.63L817.93,362.59L890.4,363.8L900.76,364.03L952.53,364.47L962.88,364.63L1025,365" style="vector-effect: none; fill: none; stroke: rgb(144, 237, 125); stroke-opacity: 1; stroke-width: 2px; opacity: 1;"/></g><g class="points"/><g class="text"/></g><g class="trace scatter tracea3a886" style="stroke-miterlimit: 2; opacity: 1;"><g class="fills"/><g class="errorbars"/><g class="lines"><path class="js-line" d="M0,365.75L186.36,365.75L196.72,319.19L207.07,77.46L217.42,72.88L248.48,76.69L258.84,83.34L269.19,90.87L279.55,104.96L289.9,123.04L300.25,148.17L310.61,172.6L320.96,201.56L341.67,242.34L352.02,258.56L362.37,270.17L372.73,280.49L393.43,294.36L403.79,298.3L414.14,303.69L424.49,307.68L445.2,314L455.56,315.81L476.26,320.82L486.62,323.66L496.97,325.45L507.32,325.54L517.68,329.1L528.03,330.57L538.38,332.63L548.74,333.73L559.09,335.98L569.44,337.08L590.15,340.28L600.51,341.05L662.63,348.21L672.98,348.71L683.33,350.47L693.69,350.63L735.1,353.58L745.45,354.87L755.81,355L766.16,356.03L859.34,360L869.7,360.1L890.4,360.89L900.76,361.07L952.53,362.4L962.88,362.64L1025,363.48" style="vector-effect: none; fill: none; stroke: rgb(247, 163, 92); stroke-opacity: 1; stroke-width: 2px; opacity: 1;"/></g><g class="points"/><g class="text"/></g><g class="trace scatter trace404960" style="stroke-miterlimit: 2; opacity: 1;"><g class="fills"/><g class="errorbars"/><g class="lines"><path class="js-line" d="M0,365.75L186.36,365.75L196.72,308.52L207.07,32.24L217.42,23.86L227.78,31.4L238.13,37.38L248.48,44.34L258.84,55.74L269.19,68.64L279.55,90L289.9,113.87L300.25,143.6L310.61,169.64L320.96,198.54L341.67,241.93L352.02,257.21L362.37,269.02L372.73,279.16L383.08,287.33L393.43,292.73L403.79,299.36L414.14,303.65L424.49,309.28L434.85,313.98L445.2,316.6L455.56,320.73L465.91,324.21L476.26,326.87L486.62,330.08L496.97,331.88L507.32,333.2L517.68,337.48L528.03,339.25L538.38,340.19L569.44,345.87L579.8,346.4L600.51,349.47L610.86,350.35L621.21,352.2L631.57,352.6L672.98,356.55L683.33,356.7L797.22,361.58L807.58,362.02L828.28,362.48L838.64,362.83L1025,364.82" style="vector-effect: none; fill: none; stroke: rgb(128, 133, 233); stroke-opacity: 1; stroke-width: 2px; opacity: 1;"/></g><g class="points"/><g class="text"/></g></g></g></g><path class="xlines-above crisp" d="M0,0" style="fill: none;"/><path class="ylines-above crisp" d="M0,0" style="fill: none;"/><g class="overlines-above"/><g class="xaxislayer-above"><g class="xtick"><text text-anchor="middle" x="0" y="451" transform="translate(158.36,0)" style="font-family: 'Lucida Grande', 'Open Sans', verdana, arial, sans-serif; font-size: 10px; fill: rgb(0, 0, 0); fill-opacity: 1; white-space: pre; opacity: 1;">−200 bp</text></g><g class="xtick"><text text-anchor="middle" x="0" y="451" style="font-family: 'Lucida Grande', 'Open Sans', verdana, arial, sans-serif; font-size: 10px; fill: rgb(0, 0, 0); fill-opacity: 1; white-space: pre; opacity: 1;" transform="translate(261.89,0)">−150 bp</text></g><g class="xtick"><text text-anchor="middle" x="0" y="451" style="font-family: 'Lucida Grande', 'Open Sans', verdana, arial, sans-serif; font-size: 10px; fill: rgb(0, 0, 0); fill-opacity: 1; white-space: pre; opacity: 1;" transform="translate(365.43,0)">−100 bp</text></g><g class="xtick"><text text-anchor="middle" x="0" y="451" style="font-family: 'Lucida Grande', 'Open Sans', verdana, arial, sans-serif; font-size: 10px; fill: rgb(0, 0, 0); fill-opacity: 1; white-space: pre; opacity: 1;" transform="translate(468.96,0)">−50 bp</text></g><g class="xtick"><text text-anchor="middle" x="0" y="451" style="font-family: 'Lucida Grande', 'Open Sans', verdana, arial, sans-serif; font-size: 10px; fill: rgb(0, 0, 0); fill-opacity: 1; white-space: pre; opacity: 1;" transform="translate(572.5,0)">0 bp</text></g><g class="xtick"><text text-anchor="middle" x="0" y="451" style="font-family: 'Lucida Grande', 'Open Sans', verdana, arial, sans-serif; font-size: 10px; fill: rgb(0, 0, 0); fill-opacity: 1; white-space: pre; opacity: 1;" transform="translate(676.04,0)">50 bp</text></g><g class="xtick"><text text-anchor="middle" x="0" y="451" style="font-family: 'Lucida Grande', 'Open Sans', verdana, arial, sans-serif; font-size: 10px; fill: rgb(0, 0, 0); fill-opacity: 1; white-space: pre; opacity: 1;" transform="translate(779.57,0)">100 bp</text></g><g class="xtick"><text text-anchor="middle" x="0" y="451" style="font-family: 'Lucida Grande', 'Open Sans', verdana, arial, sans-serif; font-size: 10px; fill: rgb(0, 0, 0); fill-opacity: 1; white-space: pre; opacity: 1;" transform="translate(883.11,0)">150 bp</text></g><g class="xtick"><text text-anchor="middle" x="0" y="451" style="font-family: 'Lucida Grande', 'Open Sans', verdana, arial, sans-serif; font-size: 10px; fill: rgb(0, 0, 0); fill-opacity: 1; white-space: pre; opacity: 1;" transform="translate(986.64,0)">200 bp</text></g></g><g class="yaxislayer-above"><g class="ytick"><text text-anchor="end" x="54" y="3.5" transform="translate(0,415.75)" style="font-family: 'Lucida Grande', 'Open Sans', verdana, arial, sans-serif; font-size: 10px; fill: rgb(0, 0, 0); fill-opacity: 1; white-space: pre; opacity: 1;">0</text></g><g class="ytick"><text text-anchor="end" x="54" y="3.5" style="font-family: 'Lucida Grande', 'Open Sans', verdana, arial, sans-serif; font-size: 10px; fill: rgb(0, 0, 0); fill-opacity: 1; white-space: pre; opacity: 1;" transform="translate(0,364.88)">10k</text></g><g class="ytick"><text text-anchor="end" x="54" y="3.5" style="font-family: 'Lucida Grande', 'Open Sans', verdana, arial, sans-serif; font-size: 10px; fill: rgb(0, 0, 0); fill-opacity: 1; white-space: pre; opacity: 1;" transform="translate(0,314.02)">20k</text></g><g class="ytick"><text text-anchor="end" x="54" y="3.5" style="font-family: 'Lucida Grande', 'Open Sans', verdana, arial, sans-serif; font-size: 10px; fill: rgb(0, 0, 0); fill-opacity: 1; white-space: pre; opacity: 1;" transform="translate(0,263.15)">30k</text></g><g class="ytick"><text text-anchor="end" x="54" y="3.5" style="font-family: 'Lucida Grande', 'Open Sans', verdana, arial, sans-serif; font-size: 10px; fill: rgb(0, 0, 0); fill-opacity: 1; white-space: pre; opacity: 1;" transform="translate(0,212.29)">40k</text></g><g class="ytick"><text text-anchor="end" x="54" y="3.5" style="font-family: 'Lucida Grande', 'Open Sans', verdana, arial, sans-serif; font-size: 10px; fill: rgb(0, 0, 0); fill-opacity: 1; white-space: pre; opacity: 1;" transform="translate(0,161.42000000000002)">50k</text></g><g class="ytick"><text text-anchor="end" x="54" y="3.5" style="font-family: 'Lucida Grande', 'Open Sans', verdana, arial, sans-serif; font-size: 10px; fill: rgb(0, 0, 0); fill-opacity: 1; white-space: pre; opacity: 1;" transform="translate(0,110.56)">60k</text></g><g class="ytick"><text text-anchor="end" x="54" y="3.5" style="font-family: 'Lucida Grande', 'Open Sans', verdana, arial, sans-serif; font-size: 10px; fill: rgb(0, 0, 0); fill-opacity: 1; white-space: pre; opacity: 1;" transform="translate(0,59.69)">70k</text></g></g><g class="overaxes-above"/></g></g><g class="polarlayer"/><g class="smithlayer"/><g class="ternarylayer"/><g class="geolayer"/><g class="funnelarealayer"/><g class="pielayer"/><g class="iciclelayer"/><g class="treemaplayer"/><g class="sunburstlayer"/><g class="glimages"/><defs id="topdefs-e35b6e"><g class="clips"/></defs><g class="layer-above"><g class="imagelayer"/><g class="shapelayer"/></g><g class="infolayer"><g class="g-gtitle"><text class="gtitle" x="550" y="25" text-anchor="middle" dy="0em" style="opacity: 1; font-family: 'Lucida Grande', 'Open Sans', verdana, arial, sans-serif; font-size: 20px; fill: rgb(42, 63, 95); fill-opacity: 1; white-space: pre;"><tspan class="line" dy="0em" x="550" y="25">RSeQC: Inner Distance</tspan><tspan class="line" dy="1.3em" x="550" y="25">​<tspan style="font-size:70%" dy="-0.6em">Counts, 25 samples</tspan><tspan dy="0.42em">​</tspan></tspan></text></g><g class="g-xtitle"><text class="xtitle" x="572.5" y="472.3" text-anchor="middle" style="opacity: 0.3; font-family: 'Lucida Grande', 'Open Sans', verdana, arial, sans-serif; font-size: 14px; fill: rgb(0, 0, 0); fill-opacity: 1; white-space: pre;">Inner Distance (bp)</text></g><g class="g-ytitle"><text class="ytitle" transform="rotate(-90,21.084375,242.5)" x="21.084375" y="242.5" text-anchor="middle" style="opacity: 0.3; font-family: 'Lucida Grande', 'Open Sans', verdana, arial, sans-serif; font-size: 14px; fill: rgb(0, 0, 0); fill-opacity: 1; white-space: pre;">Counts</text></g></g></svg>