<svg class="main-svg" xmlns="http://www.w3.org/2000/svg" xmlns:xlink="http://www.w3.org/1999/xlink" width="2200" height="1000" style="" viewBox="0 0 1100 500"><rect x="0" y="0" width="1100" height="500" style="fill: rgb(255, 255, 255); fill-opacity: 1;"/><defs id="defs-d916de"><g class="clips"><clipPath id="clipd916dexyplot" class="plotclip"><rect width="1010" height="385"/></clipPath><clipPath class="axesclip" id="clipd916dex"><rect x="68" y="0" width="1010" height="500"/></clipPath><clipPath class="axesclip" id="clipd916dey"><rect x="0" y="50" width="1100" height="385"/></clipPath><clipPath class="axesclip" id="clipd916dexy"><rect x="68" y="50" width="1010" height="385"/></clipPath></g><g class="gradients"/><g class="patterns"/></defs><g class="bglayer"/><g class="layer-below"><g class="imagelayer"/><g class="shapelayer"/></g><g class="cartesianlayer"><g class="subplot xy"><g class="layer-subplot"><g class="shapelayer"/><g class="imagelayer"/></g><g class="minor-gridlayer"><g class="x"/><g class="y"/></g><g class="gridlayer"><g class="x"><path class="xgrid crisp" transform="translate(167.18,0)" d="M0,50v385" style="stroke: rgb(0, 0, 0); stroke-opacity: 0.05; stroke-width: 1px;"/><path class="xgrid crisp" transform="translate(268.38,0)" d="M0,50v385" style="stroke: rgb(0, 0, 0); stroke-opacity: 0.05; stroke-width: 1px;"/><path class="xgrid crisp" transform="translate(369.58,0)" d="M0,50v385" style="stroke: rgb(0, 0, 0); stroke-opacity: 0.05; stroke-width: 1px;"/><path class="xgrid crisp" transform="translate(470.79,0)" d="M0,50v385" style="stroke: rgb(0, 0, 0); stroke-opacity: 0.05; stroke-width: 1px;"/><path class="xgrid crisp" transform="translate(571.99,0)" d="M0,50v385" style="stroke: rgb(0, 0, 0); stroke-opacity: 0.05; stroke-width: 1px;"/><path class="xgrid crisp" transform="translate(673.19,0)" d="M0,50v385" style="stroke: rgb(0, 0, 0); stroke-opacity: 0.05; stroke-width: 1px;"/><path class="xgrid crisp" transform="translate(774.39,0)" d="M0,50v385" style="stroke: rgb(0, 0, 0); stroke-opacity: 0.05; stroke-width: 1px;"/><path class="xgrid crisp" transform="translate(875.6,0)" d="M0,50v385" style="stroke: rgb(0, 0, 0); stroke-opacity: 0.05; stroke-width: 1px;"/><path class="xgrid crisp" transform="translate(976.8,0)" d="M0,50v385" style="stroke: rgb(0, 0, 0); stroke-opacity: 0.05; stroke-width: 1px;"/></g><g class="y"><path class="ygrid crisp" transform="translate(0,415.75)" d="M68,0h1010" style="stroke: rgb(0, 0, 0); stroke-opacity: 0.05; stroke-width: 1px;"/><path class="ygrid crisp" transform="translate(0,367.56)" d="M68,0h1010" style="stroke: rgb(0, 0, 0); stroke-opacity: 0.05; stroke-width: 1px;"/><path class="ygrid crisp" transform="translate(0,319.37)" d="M68,0h1010" style="stroke: rgb(0, 0, 0); stroke-opacity: 0.05; stroke-width: 1px;"/><path class="ygrid crisp" transform="translate(0,271.18)" d="M68,0h1010" style="stroke: rgb(0, 0, 0); stroke-opacity: 0.05; stroke-width: 1px;"/><path class="ygrid crisp" transform="translate(0,222.99)" d="M68,0h1010" style="stroke: rgb(0, 0, 0); stroke-opacity: 0.05; stroke-width: 1px;"/><path class="ygrid crisp" transform="translate(0,174.8)" d="M68,0h1010" style="stroke: rgb(0, 0, 0); stroke-opacity: 0.05; stroke-width: 1px;"/><path class="ygrid crisp" transform="translate(0,126.61)" d="M68,0h1010" style="stroke: rgb(0, 0, 0); stroke-opacity: 0.05; stroke-width: 1px;"/><path class="ygrid crisp" transform="translate(0,78.42)" d="M68,0h1010" style="stroke: rgb(0, 0, 0); stroke-opacity: 0.05; stroke-width: 1px;"/></g></g><g class="zerolinelayer"/><g class="layer-between"><g class="shapelayer"/><g class="imagelayer"/></g><path class="xlines-below"/><path class="ylines-below"/><g class="overlines-below"/><g class="xaxislayer-below"/><g class="yaxislayer-below"/><g class="overaxes-below"/><g class="overplot"><g class="xy" transform="translate(68,50)" clip-path="url(#clipd916dexyplot)"><g class="scatterlayer mlayer"><g class="trace scatter traceec52c0" style="stroke-miterlimit: 2; opacity: 1;"><g class="fills"/><g class="errorbars"/><g class="lines"><path class="js-line" d="M0,85.5L6.07,100.58L10.12,106.39L16.19,132.21L20.24,145.15L26.31,139.36L30.36,147.21L36.43,185.94L40.48,192.77L46.55,177.85L50.6,185.02L56.67,215.32L60.72,218.68L66.79,208.95L70.84,212.83L76.91,231.91L80.96,235.03L87.03,226.7L91.08,229.72L97.15,244.01L101.2,244.01L107.27,236.2L111.32,240.62L117.39,253.16L121.44,254.04L127.52,246.59L131.56,247.67L137.64,259.27L141.68,260.47L147.76,253.74L151.8,253.64L157.88,264.04L161.92,264.04L168,260.75L172.04,260.06L178.12,269.79L182.16,266.63L188.24,264.04L192.28,264.7L198.36,271.58L202.4,273.27L208.48,269.16L212.53,269.16L218.6,273.02L222.65,277.14L228.72,273.27L232.77,269.58L238.84,279.04L242.89,283.46L248.96,275.11L253.01,276.25L259.08,283.88L263.13,281.88L269.2,278.71L273.25,283.46L279.32,293.22L283.37,285.17L289.44,280.41L293.49,284.73L299.56,292.57L303.61,287.03L309.68,288.55L313.73,291.95L319.8,293.22L323.85,293.22L329.92,289.62L333.97,286.08L340.04,289.08L344.09,297.56L350.16,288.03L354.21,296.77L360.28,296.01L364.33,291.95L370.4,290.18L374.45,291.95L380.52,306.45L384.57,300.13L394.69,290.18L400.76,302.03L404.81,297.56L410.88,298.38L414.93,292.57L421,297.56L425.05,304.13L431.12,302.03L435.17,297.56L441.24,300.13L445.29,301.06L451.36,301.06L455.41,305.26L461.48,306.45L465.53,304.13L471.6,310.52L475.65,302.03L481.72,307.72L485.77,312.07L491.84,303.05L495.89,305.26L501.96,305.26L506.01,317.56L512.08,300.13L516.13,312.07L522.2,325.02L526.25,312.07L532.32,309.07L536.37,317.56L542.44,302.03L546.49,322.23L552.57,309.07L556.61,317.56L562.69,313.74L566.73,307.72L572.81,317.56L576.85,303.05L582.93,319.77L586.97,313.74L593.05,322.23L603.17,305.26L607.21,319.77L613.29,325.02L617.33,317.56L623.41,315.57L627.45,317.56L633.53,305.26L637.58,310.52L647.7,319.77L653.77,310.52L657.82,313.74L663.89,325.02L667.94,313.74L674.01,319.77L678.06,310.52L684.13,315.57L688.18,328.25L694.25,336.74L698.3,322.23L704.37,328.25L708.42,322.23L714.49,319.77L718.54,332.07L724.61,332.07L728.66,319.77L734.73,325.02L738.78,328.25L744.85,332.07L748.9,325.02L754.97,325.02L759.02,332.07L765.09,332.07L769.14,342.76L775.21,351.24L779.26,328.25L785.33,319.77L789.38,317.56L795.45,322.23L801.52,317.56L807.6,332.07L811.64,332.07L817.72,317.56L821.76,332.07L827.84,336.74L831.88,332.07L837.96,336.74L842,351.24L848.08,336.74L852.12,365.75L858.2,365.75L862.24,342.76L868.32,325.02L872.36,332.07L878.44,328.25L882.48,328.25L888.56,342.76L892.61,325.02L898.68,328.25L902.73,351.24L908.8,322.23L912.85,325.02L918.92,336.74L922.97,336.74L929.04,332.07L933.09,336.74L939.16,336.74L943.21,322.23L949.28,332.07L953.33,328.25L959.4,332.07L963.45,328.25L969.52,328.25L973.57,336.74L979.64,342.76L983.69,342.76L989.76,336.74L993.81,325.02L999.88,336.74L1003.93,322.23L1010,325.02" style="vector-effect: none; fill: none; stroke: rgb(124, 181, 236); stroke-opacity: 1; stroke-width: 2px; opacity: 1;"/></g><g class="points"/><g class="text"/></g><g class="trace scatter traceedb4ac" style="stroke-miterlimit: 2; opacity: 1;"><g class="fills"/><g class="errorbars"/><g class="lines"><path class="js-line" d="M0,102.17L6.07,123.4L10.12,131.09L16.19,162.78L20.24,176.38L26.31,165.46L30.36,173.2L36.43,209.87L40.48,215.13L46.55,200.67L50.6,205.4L56.67,229.88L60.72,233.35L66.79,221.26L70.84,224.31L76.91,240.51L80.96,245.09L87.03,233.2L91.08,233.13L97.15,250.7L101.2,251.76L107.27,238.6L111.32,243.88L117.39,259.14L121.44,258.64L127.52,246.17L131.56,247.82L137.64,264.7L141.68,262.78L147.76,254.35L151.8,253.45L157.88,270.22L161.92,267.19L168,261.17L172.04,260.06L178.12,273.02L182.16,270.22L192.28,266.26L198.36,274.04L202.4,277.75L208.48,272.05L212.53,268.15L218.6,280.41L228.72,274.3L232.77,274.57L238.84,279.72L242.89,280.77L248.96,277.44L253.01,278.07L259.08,285.62L263.13,289.08L269.2,279.04L273.25,281.88L279.32,288.55L283.37,290.18L289.44,284.3L293.49,283.88L299.56,299.24L303.61,283.88L309.68,284.73L313.73,288.03L319.8,290.18L323.85,284.73L329.92,288.03L333.97,294.57L340.04,291.95L344.09,298.38L350.16,286.55L354.21,288.55L360.28,301.06L364.33,299.24L374.45,292.57L380.52,307.72L384.57,299.24L390.64,290.18L394.69,294.57L400.76,296.77L404.81,302.03L410.88,305.26L414.93,300.13L421,305.26L425.05,315.57L431.12,297.56L441.24,306.45L445.29,299.24L451.36,302.03L455.41,307.72L461.48,309.07L465.53,309.07L471.6,310.52L475.65,296.77L481.72,312.07L485.77,301.06L491.84,325.02L495.89,312.07L501.96,303.05L506.01,307.72L512.08,304.13L516.13,313.74L522.2,299.24L526.25,304.13L532.32,307.72L536.37,306.45L542.44,313.74L546.49,302.03L552.57,309.07L556.61,306.45L562.69,312.07L566.73,310.52L572.81,315.57L576.85,310.52L582.93,317.56L586.97,312.07L593.05,313.74L597.09,325.02L603.17,328.25L607.21,317.56L613.29,317.56L617.33,315.57L623.41,312.07L627.45,325.02L633.53,315.57L637.58,332.07L643.65,313.74L647.7,315.57L653.77,317.56L657.82,313.74L663.89,332.07L667.94,325.02L674.01,332.07L678.06,325.02L684.13,325.02L688.18,315.57L694.25,328.25L698.3,328.25L704.37,319.77L708.42,342.76L714.49,319.77L718.54,315.57L724.61,313.74L728.66,325.02L734.73,336.74L738.78,313.74L744.85,322.23L748.9,322.23L759.02,317.56L765.09,319.77L769.14,336.74L775.21,332.07L779.26,325.02L785.33,336.74L789.38,322.23L795.45,332.07L799.5,336.74L805.57,325.02L809.62,336.74L815.69,336.74L819.74,313.74L825.81,336.74L829.86,315.57L835.93,313.74L839.98,351.24L846.05,325.02L850.1,336.74L856.17,313.74L860.22,328.25L866.29,322.23L870.34,319.77L876.41,325.02L880.46,325.02L886.53,322.23L890.58,332.07L896.65,322.23L900.7,317.56L906.77,336.74L910.82,328.25L916.89,336.74L920.94,317.56L927.01,342.76L931.06,342.76L937.13,336.74L941.18,322.23L947.25,328.25L951.3,332.07L957.37,332.07L961.42,328.25L967.49,328.25L971.54,325.02L977.62,342.76L981.66,332.07L987.74,332.07L991.78,332.07L999.88,342.76L1003.93,332.07L1010,332.07" style="vector-effect: none; fill: none; stroke: rgb(67, 67, 72); stroke-opacity: 1; stroke-width: 2px; opacity: 1;"/></g><g class="points"/><g class="text"/></g><g class="trace scatter trace088866" style="stroke-miterlimit: 2; opacity: 1;"><g class="fills"/><g class="errorbars"/><g class="lines"><path class="js-line" d="M0,80.24L10.12,115.58L16.19,166.36L20.24,179.71L26.31,165.91L30.36,175.38L36.43,209.58L40.48,214.59L46.55,201.27L50.6,205.61L56.67,228.67L60.72,229.91L66.79,219.38L70.84,220.02L76.91,238.7L80.96,239.69L87.03,228.5L91.08,230.88L97.15,245.76L101.2,248.74L107.27,238.46L111.32,237.43L117.39,255.94L121.44,256.16L127.52,245.76L131.56,244.64L137.64,260.06L141.68,258.02L147.76,252.4L151.8,249.62L157.88,264.87L161.92,265.55L168,255.94L172.04,256.16L178.12,268.55L182.16,265.55L188.24,258.02L192.28,258.64L198.36,271.34L202.4,274.57L208.48,264.37L212.53,267.19L218.6,273.02L222.65,275.11L228.72,270.01L232.77,270.22L238.84,275.96L242.89,279.72L248.96,268.55L253.01,267.57L259.08,282.66L263.13,282.66L269.2,271.81L283.37,281.5L289.44,276.54L293.49,275.96L299.56,283.88L303.61,284.73L309.68,279.72L313.73,281.88L319.8,288.03L323.85,289.62L329.92,280.77L333.97,279.72L340.04,290.18L346.11,283.88L350.16,284.73L356.23,295.28L360.28,295.28L366.35,287.53L370.4,284.73L376.47,290.75L380.52,291.95L386.59,286.55L390.64,296.77L396.71,291.95L400.76,296.01L406.83,299.24L410.88,303.05L416.95,294.57L421,297.56L427.07,293.88L431.12,292.57L437.19,298.38L441.24,307.72L447.31,296.01L451.36,299.24L457.43,296.77L461.48,298.38L467.56,305.26L471.6,303.05L477.68,309.07L481.72,296.77L487.8,294.57L491.84,294.57L497.92,298.38L501.96,297.56L508.04,299.24L512.08,307.72L518.16,312.07L522.2,306.45L532.32,299.24L538.4,310.52L542.44,309.07L548.52,302.03L552.57,302.03L558.64,309.07L562.69,310.52L568.76,306.45L578.88,304.13L582.93,310.52L589,309.07L593.05,309.07L599.12,319.77L603.17,310.52L609.24,302.03L613.29,315.57L619.36,307.72L623.41,319.77L629.48,304.13L633.53,309.07L639.6,300.13L643.65,310.52L649.72,312.07L653.77,303.05L659.84,312.07L663.89,319.77L669.96,309.07L676.03,322.23L680.08,310.52L686.15,317.56L690.2,307.72L696.27,313.74L700.32,322.23L706.39,313.74L710.44,312.07L716.51,313.74L720.56,322.23L726.63,312.07L730.68,315.57L736.75,315.57L740.8,342.76L746.87,325.02L750.92,319.77L756.99,328.25L761.04,332.07L767.11,328.25L771.16,315.57L777.23,332.07L781.28,315.57L787.35,332.07L791.4,322.23L797.47,328.25L801.52,315.57L807.6,325.02L811.64,322.23L817.72,322.23L821.76,313.74L827.84,322.23L831.88,317.56L837.96,319.77L842,317.56L848.08,322.23L852.12,313.74L858.2,325.02L862.24,336.74L868.32,325.02L872.36,315.57L878.44,328.25L882.48,315.57L888.56,317.56L892.61,325.02L898.68,342.76L902.73,325.02L908.8,328.25L912.85,322.23L918.92,310.52L922.97,325.02L929.04,332.07L933.09,342.76L939.16,325.02L943.21,325.02L949.28,319.77L953.33,342.76L959.4,332.07L963.45,322.23L969.52,328.25L973.57,325.02L979.64,325.02L983.69,319.77L989.76,317.56L993.81,322.23L999.88,332.07L1003.93,332.07L1010,319.77" style="vector-effect: none; fill: none; stroke: rgb(144, 237, 125); stroke-opacity: 1; stroke-width: 2px; opacity: 1;"/></g><g class="points"/><g class="text"/></g><g class="trace scatter trace4d0f48" style="stroke-miterlimit: 2; opacity: 1;"><g class="fills"/><g class="errorbars"/><g class="lines"><path class="js-line" d="M0,67.04L10.12,94.48L16.19,138.51L20.24,154.22L26.31,138.02L30.36,147.98L36.43,192.79L40.48,198.73L46.55,181.2L50.6,187.11L56.67,215.72L60.72,219.76L66.79,204.69L70.84,206.32L76.91,227.71L80.96,229.16L87.03,216.01L91.08,218.11L97.15,236.67L101.2,237.71L107.27,226.73L111.32,228L117.39,246.24L121.44,244.83L127.52,233.13L131.56,236.67L137.64,248.66L141.68,252.03L147.76,240.94L151.8,241.32L157.88,254.14L161.92,256.27L168,246.94L172.04,245.76L178.12,258.89L182.16,263.4L188.24,251.05L192.28,251.94L198.36,263.09L202.4,261.31L208.48,257.78L212.53,257.78L218.6,267.95L222.65,269.16L228.72,261.88L232.77,259.8L238.84,270.44L242.89,270.44L248.96,263.56L253.01,262.93L259.08,271.81L263.13,275.67L269.2,265.55L279.32,274.57L283.37,275.67L289.44,268.55L293.49,273.27L303.61,278.07L309.68,274.84L319.8,275.11L323.85,283.06L329.92,277.44L333.97,275.67L340.04,285.62L346.11,277.14L350.16,276.25L356.23,284.73L360.28,280.06L366.35,283.06L370.4,279.04L376.47,285.62L380.52,285.17L386.59,283.46L390.64,281.88L396.71,283.06L400.76,290.75L406.83,284.73L410.88,283.06L416.95,293.88L421,291.34L427.07,293.22L431.12,285.62L437.19,290.75L441.24,294.57L447.31,293.22L451.36,286.55L457.43,292.57L471.6,292.57L477.68,301.06L481.72,302.03L487.8,293.88L491.84,287.03L497.92,297.56L508.04,297.56L512.08,293.88L518.16,297.56L522.2,301.06L528.28,304.13L532.32,299.24L538.4,293.22L542.44,299.24L548.52,296.77L552.57,300.13L558.64,296.01L562.69,302.03L568.76,296.77L572.81,306.45L578.88,309.07L582.93,307.72L589,306.45L593.05,310.52L599.12,310.52L603.17,304.13L609.24,309.07L613.29,307.72L619.36,291.34L623.41,305.26L629.48,307.72L633.53,301.06L639.6,296.01L643.65,312.07L649.72,299.24L653.77,307.72L659.84,298.38L663.89,299.24L669.96,309.07L676.03,300.13L680.08,309.07L686.15,312.07L690.2,306.45L696.27,303.05L700.32,302.03L706.39,302.03L710.44,309.07L716.51,309.07L720.56,298.38L726.63,312.07L730.68,304.13L736.75,313.74L740.8,309.07L746.87,306.45L750.92,312.07L756.99,310.52L761.04,307.72L767.11,310.52L771.16,305.26L777.23,322.23L781.28,313.74L787.35,310.52L791.4,307.72L797.47,315.57L801.52,315.57L807.6,319.77L811.64,309.07L817.72,302.03L821.76,317.56L827.84,310.52L831.88,309.07L837.96,315.57L842,317.56L848.08,310.52L852.12,313.74L858.2,322.23L868.32,310.52L872.36,317.56L878.44,317.56L882.48,322.23L888.56,332.07L892.61,315.57L898.68,313.74L902.73,319.77L908.8,319.77L912.85,310.52L918.92,322.23L922.97,322.23L929.04,309.07L933.09,315.57L939.16,325.02L943.21,336.74L949.28,317.56L953.33,325.02L959.4,342.76L963.45,310.52L969.52,325.02L973.57,306.45L979.64,317.56L983.69,317.56L989.76,317.56L993.81,322.23L999.88,317.56L1003.93,317.56L1010,312.07" style="vector-effect: none; fill: none; stroke: rgb(247, 163, 92); stroke-opacity: 1; stroke-width: 2px; opacity: 1;"/></g><g class="points"/><g class="text"/></g><g class="trace scatter traceb9d081" style="stroke-miterlimit: 2; opacity: 1;"><g class="fills"/><g class="errorbars"/><g class="lines"><path class="js-line" d="M0,64.59L10.12,99.07L16.19,144.61L20.24,159.14L26.31,150.34L30.36,160.9L36.43,195.36L40.48,200.23L46.55,189.81L50.6,194.96L56.67,215.77L60.72,219.8L66.79,208.9L70.84,211.77L76.91,228.89L80.96,232.91L87.03,220.1L91.08,222.54L97.15,238.03L101.2,240.36L107.27,228.5L111.32,231.77L117.39,245.36L121.44,246.73L127.52,236.2L131.56,240.2L137.64,252.03L141.68,252.31L147.76,244.45L151.8,242.68L157.88,255.29L161.92,257.07L168,248.9L172.04,250.03L178.12,260.88L182.16,260.88L188.24,253.25L192.28,253.84L198.36,264.04L202.4,266.26L208.48,255.94L212.53,258.14L218.6,267.95L222.65,270.67L228.72,261.45L238.84,271.81L242.89,271.58L253.01,266.08L259.08,274.04L263.13,274.84L269.2,267.57L273.25,266.63L279.32,279.72L283.37,277.44L289.44,270.44L293.49,271.81L299.56,277.14L303.61,278.71L309.68,276.83L313.73,273.78L319.8,283.46L323.85,278.71L329.92,282.27L333.97,287.53L340.04,286.08L346.11,284.73L350.16,283.06L356.23,283.46L360.28,286.55L370.4,283.88L376.47,283.88L380.52,281.88L386.59,285.17L390.64,284.3L396.71,288.03L400.76,292.57L406.83,294.57L410.88,283.46L416.95,294.57L421,295.28L427.07,287.03L431.12,292.57L437.19,296.77L441.24,290.18L447.31,288.55L451.36,285.17L457.43,291.95L461.48,296.01L467.56,293.22L471.6,292.57L477.68,297.56L481.72,300.13L487.8,295.28L491.84,298.38L497.92,301.06L501.96,301.06L508.04,293.22L518.16,301.06L522.2,299.24L528.28,307.72L532.32,309.07L538.4,300.13L542.44,303.05L548.52,307.72L552.57,294.57L558.64,307.72L562.69,301.06L568.76,301.06L572.81,300.13L578.88,300.13L582.93,303.05L589,304.13L593.05,309.07L599.12,301.06L603.17,310.52L609.24,299.24L613.29,298.38L619.36,300.13L623.41,313.74L629.48,296.77L633.53,310.52L639.6,307.72L643.65,317.56L649.72,305.26L653.77,303.05L659.84,307.72L663.89,303.05L669.96,310.52L676.03,313.74L680.08,302.03L686.15,312.07L690.2,307.72L696.27,307.72L700.32,306.45L706.39,312.07L710.44,306.45L716.51,310.52L720.56,312.07L726.63,317.56L730.68,309.07L736.75,313.74L740.8,315.57L746.87,310.52L750.92,307.72L756.99,312.07L761.04,322.23L767.11,312.07L771.16,317.56L777.23,315.57L781.28,309.07L787.35,317.56L791.4,315.57L797.47,309.07L801.52,315.57L807.6,332.07L811.64,328.25L817.72,319.77L821.76,309.07L827.84,310.52L831.88,317.56L837.96,322.23L842,315.57L848.08,325.02L852.12,315.57L858.2,319.77L862.24,319.77L868.32,312.07L872.36,317.56L878.44,328.25L882.48,319.77L888.56,322.23L892.61,317.56L898.68,319.77L902.73,313.74L908.8,322.23L912.85,332.07L918.92,305.26L922.97,325.02L929.04,342.76L933.09,336.74L939.16,317.56L943.21,342.76L949.28,315.57L953.33,307.72L959.4,319.77L963.45,315.57L969.52,317.56L973.57,332.07L979.64,332.07L983.69,322.23L989.76,325.02L993.81,315.57L999.88,328.25L1003.93,332.07L1010,325.02" style="vector-effect: none; fill: none; stroke: rgb(128, 133, 233); stroke-opacity: 1; stroke-width: 2px; opacity: 1;"/></g><g class="points"/><g class="text"/></g><g class="trace scatter tracead7dd7" style="stroke-miterlimit: 2; opacity: 1;"><g class="fills"/><g class="errorbars"/><g class="lines"><path class="js-line" d="M0,45.71L10.12,89.45L16.19,135.01L20.24,150.23L26.31,146.94L30.36,158.04L36.43,188.61L40.48,193.46L46.55,188.67L50.6,194.26L56.67,210.7L60.72,213.67L66.79,206.76L70.84,210.07L76.91,224.48L80.96,225.08L87.03,219.82L91.08,221.93L97.15,234.08L101.2,235.07L107.27,230.36L111.32,230.23L117.39,240.83L121.44,242.62L127.52,237.25L131.56,238.99L137.64,248.97L141.68,248.66L147.76,242.68L151.8,245.83L157.88,252.21L161.92,254.04L168,248.43L172.04,248.12L178.12,258.26L182.16,257.42L188.24,252.12L192.28,253.55L198.36,259.66L202.4,261.31L208.48,259.93L212.53,258.26L218.6,265.04L222.65,265.04L228.72,263.56L232.77,265.21L238.84,268.96L242.89,274.84L248.96,267.38L253.01,266.81L259.08,273.52L263.13,272.05L269.2,271.58L273.25,269.16L279.32,276.25L283.37,275.11L289.44,274.3L293.49,270.44L299.56,279.37L303.61,283.88L309.68,276.83L313.73,281.13L319.8,279.72L323.85,283.88L329.92,276.54L333.97,278.71L340.04,286.08L346.11,279.04L350.16,279.37L356.23,284.3L360.28,283.06L366.35,286.55L370.4,281.5L376.47,285.17L380.52,285.17L386.59,281.13L390.64,291.95L396.71,293.88L400.76,289.08L406.83,283.06L410.88,288.55L416.95,294.57L421,291.95L427.07,295.28L431.12,291.34L437.19,287.53L441.24,298.38L447.31,291.95L451.36,290.75L457.43,298.38L461.48,299.24L467.56,291.34L471.6,298.38L477.68,289.08L481.72,297.56L487.8,302.03L491.84,300.13L497.92,293.22L501.96,303.05L508.04,298.38L512.08,293.88L518.16,298.38L522.2,300.13L528.28,296.77L532.32,299.24L538.4,297.56L542.44,306.45L548.52,305.26L552.57,302.03L558.64,304.13L562.69,309.07L572.81,299.24L578.88,305.26L582.93,293.88L589,301.06L593.05,307.72L599.12,302.03L603.17,302.03L609.24,301.06L613.29,303.05L619.36,301.06L623.41,315.57L629.48,304.13L633.53,315.57L639.6,302.03L649.72,307.72L653.77,300.13L659.84,312.07L663.89,306.45L669.96,315.57L676.03,313.74L680.08,306.45L686.15,313.74L690.2,303.05L696.27,307.72L700.32,299.24L706.39,312.07L710.44,302.03L716.51,310.52L720.56,307.72L726.63,312.07L730.68,317.56L736.75,322.23L740.8,310.52L746.87,312.07L750.92,307.72L756.99,309.07L761.04,305.26L767.11,309.07L771.16,303.05L777.23,315.57L787.35,332.07L791.4,322.23L797.47,319.77L801.52,332.07L807.6,317.56L811.64,317.56L817.72,319.77L821.76,315.57L827.84,322.23L831.88,317.56L837.96,322.23L842,317.56L848.08,315.57L852.12,315.57L858.2,319.77L862.24,307.72L868.32,312.07L872.36,328.25L878.44,317.56L882.48,313.74L888.56,319.77L892.61,313.74L898.68,328.25L902.73,315.57L908.8,317.56L912.85,313.74L918.92,328.25L922.97,328.25L929.04,332.07L933.09,313.74L939.16,317.56L943.21,328.25L949.28,322.23L953.33,325.02L959.4,322.23L963.45,332.07L969.52,332.07L973.57,312.07L979.64,319.77L983.69,328.25L989.76,317.56L993.81,332.07L999.88,332.07L1003.93,306.45L1010,322.23" style="vector-effect: none; fill: none; stroke: rgb(241, 92, 128); stroke-opacity: 1; stroke-width: 2px; opacity: 1;"/></g><g class="points"/><g class="text"/></g><g class="trace scatter trace5120da" style="stroke-miterlimit: 2; opacity: 1;"><g class="fills"/><g class="errorbars"/><g class="lines"><path class="js-line" d="M0,83.82L10.12,112.46L16.19,154.09L20.24,168.8L26.31,155.86L30.36,165.1L36.43,203.78L40.48,207.86L46.55,193.79L50.6,199.04L56.67,223.04L60.72,225.18L66.79,213.45L70.84,215.98L76.91,234.43L80.96,238.27L87.03,226.14L91.08,227.48L97.15,243.76L101.2,243.7L107.27,234.71L111.32,237.03L117.39,248.97L121.44,253.16L127.52,243.03L131.56,243.21L137.64,258.51L141.68,256.84L147.76,246.8L151.8,250.28L157.88,263.09L161.92,260.47L168,255.18L172.04,256.27L178.12,266.63L182.16,265.21L188.24,259.4L192.28,257.07L198.36,269.79L202.4,270.67L208.48,262.93L212.53,262.18L218.6,272.77L222.65,277.44L228.72,265.73L232.77,266.45L238.84,277.75L248.96,278.07L253.01,275.11L259.08,281.88L263.13,282.66L273.25,272.05L279.32,286.55L283.37,279.37L289.44,279.04L293.49,273.02L299.56,287.03L303.61,288.03L309.68,280.06L313.73,284.73L319.8,286.55L323.85,286.55L329.92,280.06L333.97,280.77L340.04,290.18L346.11,288.55L350.16,285.17L356.23,296.01L360.28,293.22L366.35,289.08L370.4,287.53L376.47,290.18L380.52,288.03L386.59,297.56L390.64,292.57L396.71,292.57L400.76,296.01L406.83,285.62L410.88,294.57L416.95,298.38L421,291.34L427.07,293.22L431.12,299.24L437.19,293.22L441.24,291.95L447.31,294.57L451.36,291.34L457.43,315.57L461.48,303.05L467.56,297.56L471.6,299.24L477.68,309.07L481.72,310.52L487.8,297.56L491.84,303.05L497.92,309.07L501.96,302.03L508.04,310.52L512.08,303.05L518.16,307.72L522.2,302.03L528.28,302.03L532.32,296.77L538.4,304.13L542.44,299.24L548.52,307.72L552.57,309.07L558.64,313.74L562.69,315.57L568.76,306.45L572.81,317.56L578.88,319.77L582.93,325.02L589,301.06L593.05,310.52L599.12,319.77L603.17,312.07L609.24,303.05L613.29,303.05L619.36,301.06L623.41,310.52L629.48,312.07L633.53,306.45L639.6,317.56L643.65,315.57L649.72,313.74L653.77,328.25L659.84,307.72L663.89,319.77L669.96,307.72L676.03,325.02L680.08,317.56L686.15,312.07L690.2,315.57L696.27,319.77L700.32,332.07L706.39,319.77L710.44,313.74L716.51,317.56L720.56,315.57L726.63,313.74L730.68,322.23L736.75,322.23L740.8,319.77L746.87,325.02L750.92,313.74L756.99,332.07L761.04,319.77L767.11,317.56L771.16,336.74L777.23,322.23L781.28,315.57L787.35,319.77L791.4,310.52L797.47,325.02L801.52,313.74L807.6,313.74L811.64,322.23L817.72,332.07L821.76,313.74L827.84,328.25L831.88,312.07L837.96,313.74L842,328.25L848.08,328.25L852.12,336.74L858.2,328.25L862.24,322.23L868.32,328.25L872.36,319.77L878.44,322.23L882.48,315.57L888.56,336.74L892.61,322.23L898.68,325.02L902.73,319.77L908.8,328.25L912.85,332.07L918.92,325.02L922.97,322.23L929.04,342.76L933.09,319.77L939.16,336.74L943.21,336.74L949.28,325.02L953.33,332.07L959.4,336.74L963.45,328.25L969.52,322.23L973.57,342.76L979.64,332.07L983.69,322.23L989.76,332.07L993.81,325.02L999.88,342.76L1003.93,315.57L1010,342.76" style="vector-effect: none; fill: none; stroke: rgb(228, 211, 84); stroke-opacity: 1; stroke-width: 2px; opacity: 1;"/></g><g class="points"/><g class="text"/></g><g class="trace scatter trace819f97" style="stroke-miterlimit: 2; opacity: 1;"><g class="fills"/><g class="errorbars"/><g class="lines"><path class="js-line" d="M0,19.25L10.12,86.16L16.19,139.14L20.24,152.78L26.31,155.84L30.36,165.06L36.43,185.2L40.48,190.38L46.55,189.03L50.6,192.23L56.67,206.69L60.72,210.17L66.79,206.42L70.84,209.37L76.91,222.41L80.96,223.57L87.03,219.4L91.08,221.75L97.15,231.91L101.2,232.15L107.27,228.59L111.32,231.56L117.39,240.57L121.44,242.8L127.52,237.25L131.56,238.03L137.64,246.45L141.68,251.31L147.76,245.49L151.8,246.8L157.88,253.64L161.92,253.84L168,249.94L172.04,253.74L178.12,258.14L182.16,258.51L188.24,256.84L192.28,257.78L198.36,262.33L202.4,267.19L208.48,259.93L212.53,261.74L218.6,267L222.65,268.35L228.72,265.38L232.77,266.45L238.84,270.89L242.89,269.37L248.96,269.79L253.01,271.12L259.08,275.67L263.13,273.27L269.2,270.67L279.32,281.88L283.37,280.77L293.49,275.11L299.56,282.27L303.61,281.13L309.68,281.5L313.73,278.07L319.8,283.46L323.85,283.46L329.92,282.66L333.97,284.3L340.04,281.88L346.11,282.27L350.16,288.55L356.23,283.06L360.28,282.66L366.35,285.62L370.4,292.57L376.47,292.57L380.52,287.03L390.64,295.28L396.71,291.95L400.76,290.75L406.83,294.57L410.88,293.22L416.95,294.57L421,296.77L427.07,303.05L431.12,296.77L437.19,298.38L441.24,295.28L447.31,296.77L451.36,298.38L457.43,293.88L461.48,303.05L467.56,291.34L471.6,298.38L477.68,310.52L481.72,299.24L487.8,287.53L491.84,296.01L497.92,304.13L501.96,296.01L508.04,295.28L512.08,310.52L518.16,313.74L522.2,307.72L528.28,300.13L532.32,305.26L538.4,305.26L548.52,303.05L552.57,312.07L558.64,304.13L562.69,309.07L568.76,302.03L572.81,304.13L578.88,319.77L582.93,307.72L589,306.45L593.05,306.45L599.12,310.52L603.17,317.56L609.24,310.52L613.29,310.52L619.36,301.06L623.41,304.13L629.48,306.45L633.53,313.74L639.6,307.72L643.65,315.57L649.72,304.13L653.77,302.03L663.89,313.74L669.96,310.52L676.03,305.26L680.08,315.57L686.15,303.05L690.2,310.52L696.27,304.13L700.32,307.72L706.39,312.07L710.44,310.52L716.51,310.52L720.56,317.56L726.63,304.13L730.68,322.23L736.75,325.02L740.8,312.07L746.87,317.56L750.92,319.77L756.99,322.23L761.04,309.07L767.11,317.56L771.16,309.07L777.23,313.74L781.28,328.25L787.35,317.56L791.4,322.23L797.47,319.77L801.52,332.07L807.6,309.07L811.64,322.23L831.88,313.74L837.96,313.74L842,317.56L848.08,319.77L852.12,319.77L858.2,332.07L862.24,309.07L868.32,342.76L872.36,336.74L878.44,319.77L882.48,325.02L888.56,325.02L892.61,325.02L898.68,328.25L902.73,332.07L908.8,332.07L912.85,319.77L918.92,336.74L922.97,315.57L929.04,342.76L933.09,322.23L939.16,332.07L943.21,322.23L949.28,325.02L953.33,328.25L959.4,312.07L969.52,325.02L973.57,332.07L979.64,342.76L983.69,322.23L989.76,336.74L993.81,328.25L999.88,351.24L1003.93,322.23L1010,332.07" style="vector-effect: none; fill: none; stroke: rgb(43, 144, 143); stroke-opacity: 1; stroke-width: 2px; opacity: 1;"/></g><g class="points"/><g class="text"/></g><g class="trace scatter trace7a046c" style="stroke-miterlimit: 2; opacity: 1;"><g class="fills"/><g class="errorbars"/><g class="lines"><path class="js-line" d="M0,46.85L10.12,90.37L16.19,143.28L20.24,158.48L26.31,150.79L30.36,161.57L36.43,192.37L40.48,197.79L46.55,188.74L50.6,193.28L56.67,212.35L60.72,214.88L66.79,205.52L70.84,207.89L76.91,224.93L80.96,228.11L87.03,216.44L91.08,220.08L97.15,232.83L101.2,234.35L107.27,224.39L111.32,227.97L117.39,241.76L121.44,241.49L127.52,235.6L131.56,235.48L137.64,244.38L141.68,246.45L147.76,239.19L151.8,240.62L157.88,252.77L161.92,252.4L168,244.77L172.04,246.59L178.12,256.72L182.16,256.5L188.24,251.14L192.28,250.28L198.36,260.33L202.4,260.61L208.48,252.77L212.53,255.29L218.6,267.95L222.65,264.04L228.72,260.47L232.77,256.61L238.84,268.15L248.96,261.45L253.01,264.37L259.08,268.55L263.13,270.22L269.2,266.08L273.25,265.55L279.32,273.52L283.37,274.57L289.44,268.96L293.49,270.44L299.56,274.84L303.61,274.57L309.68,275.67L313.73,272.28L319.8,279.72L323.85,281.5L329.92,275.39L333.97,275.39L340.04,283.46L346.11,276.83L350.16,278.07L356.23,281.88L360.28,285.17L366.35,279.37L376.47,282.27L380.52,285.17L386.59,279.04L390.64,283.06L396.71,284.73L400.76,289.08L406.83,281.88L410.88,285.17L416.95,282.66L421,287.03L427.07,282.66L431.12,287.03L437.19,290.75L441.24,291.34L447.31,287.03L451.36,287.03L457.43,287.03L461.48,291.34L467.56,292.57L471.6,286.08L477.68,296.01L481.72,295.28L487.8,291.95L491.84,288.55L497.92,296.01L501.96,284.3L508.04,286.08L512.08,304.13L518.16,289.62L522.2,294.57L528.28,289.62L532.32,296.01L538.4,301.06L542.44,297.56L548.52,293.22L552.57,296.77L558.64,296.77L562.69,291.34L568.76,296.77L572.81,294.57L582.93,303.05L589,297.56L593.05,306.45L599.12,299.24L603.17,298.38L609.24,299.24L613.29,297.56L619.36,299.24L623.41,299.24L629.48,304.13L633.53,298.38L639.6,306.45L643.65,319.77L649.72,306.45L653.77,298.38L659.84,309.07L663.89,319.77L669.96,309.07L680.08,305.26L686.15,300.13L690.2,307.72L696.27,309.07L700.32,317.56L706.39,307.72L710.44,302.03L716.51,319.77L720.56,307.72L726.63,310.52L730.68,307.72L736.75,313.74L740.8,304.13L746.87,309.07L750.92,306.45L756.99,319.77L761.04,317.56L767.11,310.52L771.16,309.07L777.23,313.74L781.28,307.72L787.35,315.57L791.4,310.52L797.47,313.74L807.6,305.26L811.64,322.23L821.76,307.72L827.84,325.02L831.88,309.07L837.96,312.07L842,317.56L848.08,310.52L852.12,325.02L858.2,317.56L862.24,319.77L868.32,309.07L872.36,325.02L878.44,315.57L882.48,325.02L888.56,302.03L892.61,322.23L898.68,313.74L902.73,307.72L908.8,315.57L912.85,309.07L918.92,332.07L922.97,315.57L929.04,317.56L933.09,317.56L939.16,325.02L943.21,313.74L949.28,315.57L959.4,319.77L963.45,312.07L969.52,309.07L973.57,317.56L979.64,322.23L983.69,312.07L989.76,319.77L993.81,315.57L999.88,328.25L1003.93,328.25L1010,315.57" style="vector-effect: none; fill: none; stroke: rgb(244, 91, 91); stroke-opacity: 1; stroke-width: 2px; opacity: 1;"/></g><g class="points"/><g class="text"/></g><g class="trace scatter tracee2cac8" style="stroke-miterlimit: 2; opacity: 1;"><g class="fills"/><g class="errorbars"/><g class="lines"><path class="js-line" d="M0,82.17L6.07,97.41L10.12,102.96L16.19,128.65L20.24,141.24L26.31,133.14L30.36,140.33L36.43,178.75L40.48,184.4L46.55,168.18L50.6,174.68L56.67,204.14L60.72,207.62L66.79,196.34L70.84,200.96L76.91,219.73L80.96,222.39L87.03,214.12L91.08,217L97.15,233.02L101.2,232.98L107.27,224.93L111.32,226.62L117.39,238.75L121.44,239.94L127.52,232.76L131.56,235.31L137.64,243.7L141.68,247.97L147.76,241.49L151.8,241.76L157.88,251.4L161.92,252.68L168,247.75L172.04,247.02L178.12,256.95L182.16,256.72L188.24,250.79L192.28,254.97L202.4,261.59L208.48,254.35L212.53,258.02L218.6,261.88L222.65,263.72L228.72,258.89L232.77,262.78L238.84,265.38L242.89,268.96L248.96,265.04L253.01,265.38L259.08,270.67L263.13,271.58L269.2,266.63L279.32,275.96L283.37,274.84L289.44,275.67L293.49,273.52L299.56,278.39L303.61,277.44L309.68,278.71L313.73,278.71L319.8,280.41L323.85,283.88L329.92,282.27L333.97,279.72L340.04,282.27L346.11,283.88L350.16,276.83L356.23,285.62L360.28,290.75L366.35,286.08L370.4,283.06L376.47,289.62L380.52,289.08L386.59,287.03L390.64,286.08L396.71,283.88L400.76,290.18L406.83,287.53L410.88,287.53L416.95,296.01L421,296.77L427.07,288.55L431.12,289.62L437.19,294.57L441.24,296.77L447.31,292.57L451.36,287.53L457.43,290.18L461.48,296.01L467.56,299.24L471.6,293.88L477.68,305.26L481.72,296.01L487.8,293.88L491.84,298.38L497.92,296.77L501.96,302.03L508.04,291.95L512.08,301.06L518.16,300.13L522.2,307.72L528.28,300.13L532.32,294.57L538.4,294.57L542.44,296.01L548.52,301.06L552.57,302.03L558.64,305.26L562.69,302.03L568.76,302.03L572.81,305.26L578.88,307.72L582.93,301.06L589,299.24L593.05,300.13L599.12,304.13L603.17,310.52L609.24,307.72L613.29,304.13L619.36,310.52L623.41,306.45L629.48,307.72L633.53,301.06L639.6,310.52L643.65,307.72L649.72,312.07L653.77,315.57L659.84,325.02L663.89,310.52L669.96,305.26L676.03,319.77L680.08,310.52L690.2,310.52L696.27,313.74L700.32,328.25L706.39,306.45L710.44,313.74L716.51,309.07L720.56,307.72L726.63,315.57L730.68,312.07L736.75,309.07L740.8,322.23L746.87,307.72L750.92,319.77L756.99,309.07L761.04,317.56L767.11,301.06L771.16,328.25L777.23,336.74L781.28,310.52L787.35,317.56L791.4,332.07L797.47,306.45L801.52,319.77L807.6,317.56L811.64,322.23L817.72,315.57L821.76,319.77L827.84,312.07L831.88,306.45L837.96,315.57L842,351.24L848.08,310.52L858.2,328.25L862.24,336.74L868.32,317.56L872.36,328.25L878.44,332.07L882.48,351.24L888.56,319.77L892.61,328.25L898.68,315.57L902.73,325.02L908.8,315.57L912.85,322.23L918.92,317.56L922.97,319.77L929.04,315.57L933.09,325.02L939.16,317.56L943.21,328.25L949.28,322.23L953.33,328.25L959.4,322.23L963.45,319.77L969.52,325.02L973.57,322.23L979.64,322.23L983.69,332.07L989.76,336.74L993.81,325.02L999.88,328.25L1003.93,317.56L1010,336.74" style="vector-effect: none; fill: none; stroke: rgb(145, 232, 225); stroke-opacity: 1; stroke-width: 2px; opacity: 1;"/></g><g class="points"/><g class="text"/></g><g class="trace scatter trace7b4cc1" style="stroke-miterlimit: 2; opacity: 1;"><g class="fills"/><g class="errorbars"/><g class="lines"><path class="js-line" d="M0,73.46L10.12,101.33L16.19,141.99L20.24,155.4L26.31,144.98L30.36,154.82L36.43,189.46L40.48,194.55L46.55,184.81L50.6,190.01L56.67,211.03L60.72,213.29L66.79,205.33L70.84,208.56L76.91,225.75L80.96,226.87L87.03,218.26L91.08,220.3L97.15,235.11L101.2,234.47L107.27,227.6L111.32,228.17L117.39,241.76L121.44,243.21L127.52,235.4L131.56,235.11L137.64,247.3L141.68,246.8L147.76,241.54L151.8,243.76L157.88,252.03L161.92,255.18L168,245.62L172.04,247.02L178.12,257.42L182.16,259.4L188.24,252.31L192.28,253.64L198.36,260.47L202.4,261.45L208.48,259.27L212.53,256.05L218.6,262.93L222.65,266.45L228.72,260.75L232.77,259.66L238.84,275.11L242.89,271.34L248.96,262.33L253.01,264.87L259.08,271.12L263.13,273.52L269.2,269.37L273.25,264.87L279.32,270.89L283.37,277.75L289.44,272.77L293.49,274.3L299.56,278.07L303.61,277.44L309.68,273.52L313.73,274.3L319.8,277.14L323.85,280.77L329.92,277.75L333.97,275.39L340.04,284.3L346.11,278.71L350.16,282.66L356.23,286.55L360.28,283.46L366.35,279.37L370.4,281.13L376.47,286.08L380.52,283.88L386.59,281.88L390.64,288.03L396.71,290.18L400.76,289.08L406.83,282.27L410.88,286.08L416.95,289.08L421,296.77L431.12,286.08L437.19,300.13L441.24,290.18L447.31,289.08L451.36,286.08L457.43,293.88L461.48,295.28L467.56,293.88L471.6,290.75L477.68,298.38L481.72,294.57L487.8,292.57L491.84,301.06L497.92,301.06L501.96,298.38L508.04,296.01L512.08,293.88L518.16,297.56L522.2,297.56L528.28,298.38L532.32,299.24L538.4,292.57L542.44,301.06L548.52,295.28L552.57,290.75L558.64,298.38L562.69,313.74L568.76,303.05L572.81,302.03L578.88,309.07L582.93,301.06L589,305.26L593.05,301.06L599.12,305.26L603.17,312.07L609.24,304.13L619.36,309.07L623.41,305.26L629.48,306.45L633.53,317.56L639.6,300.13L643.65,315.57L649.72,307.72L653.77,312.07L659.84,309.07L663.89,312.07L669.96,310.52L676.03,313.74L680.08,315.57L686.15,312.07L690.2,309.07L696.27,317.56L700.32,315.57L706.39,313.74L710.44,309.07L716.51,317.56L720.56,317.56L726.63,322.23L730.68,310.52L736.75,310.52L740.8,312.07L746.87,307.72L756.99,310.52L761.04,332.07L771.16,306.45L777.23,310.52L781.28,313.74L787.35,315.57L791.4,328.25L797.47,306.45L801.52,325.02L807.6,328.25L811.64,313.74L817.72,310.52L821.76,315.57L827.84,319.77L831.88,310.52L837.96,336.74L842,325.02L848.08,313.74L852.12,315.57L858.2,325.02L862.24,322.23L868.32,315.57L872.36,322.23L878.44,322.23L882.48,317.56L888.56,315.57L892.61,319.77L898.68,319.77L902.73,322.23L908.8,322.23L912.85,317.56L918.92,317.56L922.97,322.23L929.04,317.56L933.09,310.52L939.16,325.02L943.21,317.56L949.28,319.77L953.33,332.07L959.4,328.25L963.45,313.74L969.52,317.56L973.57,313.74L979.64,315.57L983.69,336.74L989.76,313.74L993.81,319.77L999.88,322.23L1003.93,332.07L1010,332.07" style="vector-effect: none; fill: none; stroke: rgb(124, 181, 236); stroke-opacity: 1; stroke-width: 2px; opacity: 1;"/></g><g class="points"/><g class="text"/></g><g class="trace scatter trace1dcc92" style="stroke-miterlimit: 2; opacity: 1;"><g class="fills"/><g class="errorbars"/><g class="lines"><path class="js-line" d="M0,78.87L10.12,100.29L16.19,134.79L20.24,147.93L26.31,137.44L30.36,145.66L36.43,182.38L40.48,188.28L46.55,175.37L50.6,181.15L56.67,205.34L60.72,207.44L66.79,198.18L70.84,201.13L76.91,218.16L80.96,220.42L87.03,210.79L91.08,214.39L97.15,227.6L101.2,228.86L107.27,220.7L111.32,221.01L117.39,234.95L121.44,235.11L127.52,228.76L131.56,229.19L137.64,242.22L141.68,243.09L147.76,234.63L151.8,235.07L157.88,247.38L161.92,248.82L168,241.88L172.04,240.67L178.12,253.45L182.16,252.49L188.24,245.83L192.28,246.24L198.36,255.18L202.4,257.07L208.48,250.28L212.53,251.4L218.6,259.8L228.72,255.83L232.77,255.83L238.84,262.48L242.89,265.55L248.96,256.95L253.01,257.19L259.08,269.79L263.13,266.26L269.2,262.33L273.25,260.88L279.32,268.75L283.37,267.76L289.44,266.81L293.49,262.93L299.56,275.67L303.61,271.34L309.68,267.76L313.73,267.95L319.8,274.04L323.85,275.11L329.92,268.75L333.97,270.01L340.04,274.57L346.11,273.52L350.16,270.67L356.23,277.44L360.28,283.06L366.35,272.28L370.4,273.78L376.47,286.08L386.59,276.25L390.64,278.07L396.71,274.57L400.76,280.77L406.83,278.39L410.88,281.5L416.95,284.3L421,284.3L427.07,278.71L431.12,280.06L437.19,282.66L441.24,298.38L447.31,287.03L451.36,287.53L457.43,283.88L461.48,287.53L467.56,286.08L471.6,286.08L477.68,290.18L481.72,290.75L491.84,289.08L497.92,291.34L501.96,288.55L508.04,293.22L512.08,298.38L518.16,290.18L522.2,299.24L528.28,291.34L532.32,294.57L538.4,295.28L542.44,291.95L548.52,294.57L552.57,291.95L558.64,295.28L562.69,297.56L568.76,296.77L572.81,300.13L578.88,298.38L582.93,297.56L589,303.05L593.05,294.57L599.12,294.57L603.17,304.13L609.24,300.13L613.29,296.77L619.36,297.56L623.41,304.13L629.48,300.13L633.53,306.45L639.6,298.38L643.65,298.38L649.72,306.45L653.77,303.05L659.84,299.24L663.89,303.05L669.96,296.01L676.03,305.26L680.08,301.06L686.15,309.07L690.2,305.26L696.27,304.13L700.32,309.07L706.39,300.13L710.44,313.74L716.51,307.72L720.56,302.03L726.63,306.45L730.68,298.38L736.75,305.26L740.8,313.74L750.92,305.26L756.99,304.13L761.04,303.05L767.11,304.13L771.16,315.57L777.23,309.07L781.28,312.07L787.35,306.45L791.4,304.13L797.47,309.07L807.6,305.26L811.64,312.07L817.72,309.07L821.76,312.07L827.84,312.07L831.88,313.74L837.96,309.07L842,313.74L848.08,319.77L852.12,309.07L858.2,319.77L862.24,325.02L868.32,310.52L872.36,315.57L878.44,313.74L882.48,315.57L888.56,319.77L892.61,313.74L898.68,312.07L902.73,315.57L908.8,310.52L912.85,310.52L918.92,315.57L922.97,312.07L933.09,315.57L939.16,317.56L943.21,312.07L949.28,317.56L953.33,313.74L959.4,325.02L963.45,317.56L969.52,315.57L973.57,317.56L979.64,310.52L983.69,319.77L989.76,312.07L993.81,319.77L999.88,307.72L1003.93,325.02L1010,312.07" style="vector-effect: none; fill: none; stroke: rgb(67, 67, 72); stroke-opacity: 1; stroke-width: 2px; opacity: 1;"/></g><g class="points"/><g class="text"/></g><g class="trace scatter traceea1f83" style="stroke-miterlimit: 2; opacity: 1;"><g class="fills"/><g class="errorbars"/><g class="lines"><path class="js-line" d="M0,45.42L10.12,88.03L16.19,142.26L20.24,155.79L26.31,145.46L30.36,156.31L36.43,187.2L40.48,191.95L46.55,183.99L50.6,187.92L56.67,207.33L60.72,210.01L66.79,200.6L70.84,202.51L76.91,219.76L80.96,221.43L87.03,212.38L91.08,213.12L97.15,227.6L101.2,229.04L107.27,221.05L111.32,222.56L117.39,235.64L121.44,238.13L127.52,230.26L131.56,230.65L137.64,239.24L141.68,243.82L147.76,235.48L151.8,237.85L157.88,246.1L161.92,248.97L168,243.21L172.04,242.22L178.12,253.16L188.24,247.38L192.28,246.59L198.36,254.55L202.4,257.3L208.48,249.45L212.53,251.05L218.6,259.4L222.65,262.33L228.72,251.94L232.77,255.72L238.84,260.61L242.89,265.04L248.96,257.54L253.01,261.59L259.08,268.35L263.13,267.76L269.2,264.04L273.25,267L279.32,268.96L283.37,272.05L289.44,264.7L293.49,268.96L303.61,272.28L309.68,267.76L313.73,267.95L319.8,274.84L323.85,275.39L329.92,269.37L333.97,271.81L340.04,282.27L346.11,272.77L350.16,272.05L356.23,278.07L360.28,277.75L366.35,274.04L370.4,273.52L376.47,280.06L380.52,278.71L386.59,276.83L390.64,272.28L396.71,283.06L400.76,279.04L406.83,281.5L410.88,277.44L416.95,282.27L421,289.08L427.07,278.71L431.12,280.06L437.19,286.55L441.24,284.3L447.31,289.08L451.36,285.62L457.43,294.57L461.48,287.53L467.56,284.3L471.6,287.53L477.68,293.22L481.72,289.08L487.8,291.34L491.84,290.75L497.92,289.62L501.96,286.08L508.04,289.62L512.08,293.88L522.2,293.88L528.28,288.03L532.32,295.28L538.4,289.62L542.44,298.38L548.52,288.03L552.57,290.75L558.64,292.57L562.69,294.57L568.76,296.01L572.81,294.57L578.88,296.77L589,298.38L593.05,296.77L599.12,300.13L603.17,306.45L609.24,310.52L613.29,296.01L619.36,298.38L623.41,301.06L633.53,302.03L639.6,302.03L643.65,301.06L649.72,297.56L653.77,293.22L659.84,303.05L663.89,312.07L669.96,312.07L676.03,315.57L680.08,297.56L686.15,307.72L690.2,303.05L696.27,310.52L700.32,304.13L710.44,307.72L716.51,309.07L720.56,310.52L726.63,313.74L730.68,310.52L736.75,299.24L740.8,302.03L746.87,301.06L750.92,307.72L756.99,307.72L767.11,310.52L771.16,304.13L777.23,313.74L781.28,317.56L787.35,310.52L791.4,332.07L797.47,306.45L801.52,309.07L807.6,300.13L811.64,305.26L817.72,317.56L821.76,310.52L827.84,322.23L831.88,310.52L837.96,322.23L842,310.52L848.08,309.07L852.12,305.26L858.2,317.56L862.24,313.74L868.32,312.07L872.36,312.07L878.44,310.52L882.48,319.77L888.56,313.74L892.61,317.56L902.73,317.56L908.8,312.07L912.85,312.07L918.92,309.07L922.97,317.56L929.04,310.52L933.09,313.74L939.16,319.77L943.21,325.02L949.28,307.72L953.33,315.57L959.4,312.07L963.45,319.77L969.52,328.25L973.57,336.74L979.64,313.74L983.69,328.25L989.76,317.56L993.81,325.02L999.88,312.07L1003.93,315.57L1010,319.77" style="vector-effect: none; fill: none; stroke: rgb(144, 237, 125); stroke-opacity: 1; stroke-width: 2px; opacity: 1;"/></g><g class="points"/><g class="text"/></g><g class="trace scatter traced5b191" style="stroke-miterlimit: 2; opacity: 1;"><g class="fills"/><g class="errorbars"/><g class="lines"><path class="js-line" d="M0,85.11L10.12,108.64L16.19,145.09L20.24,159.32L26.31,145.78L30.36,154.54L36.43,195.24L40.48,201.58L46.55,185.06L50.6,192.03L56.67,218.7L60.72,221.26L66.79,209.72L70.84,212.33L76.91,231.22L80.96,232.8L87.03,223.95L91.08,224.83L97.15,241.32L101.2,243.03L107.27,231.53L111.32,233.46L117.39,248.66L121.44,248.35L127.52,240.89L131.56,242.39L137.64,256.05L141.68,254.14L147.76,247.3L151.8,247.82L157.88,260.61L161.92,261.02L168,252.96L172.04,253.45L178.12,266.81L182.16,265.73L188.24,255.29L192.28,259.27L198.36,270.67L202.4,271.58L208.48,265.38L212.53,265.55L218.6,274.57L222.65,268.15L228.72,265.73L232.77,265.73L238.84,276.25L248.96,272.05L253.01,269.37L259.08,281.13L263.13,277.75L269.2,271.81L273.25,273.78L279.32,276.83L283.37,284.3L289.44,275.96L293.49,274.04L299.56,286.55L303.61,282.27L309.68,277.44L313.73,284.73L319.8,290.18L323.85,285.17L329.92,280.77L333.97,281.5L340.04,288.03L346.11,283.06L350.16,291.95L356.23,289.08L366.35,287.03L370.4,284.73L376.47,297.56L380.52,301.06L386.59,289.62L390.64,291.34L396.71,302.03L400.76,290.18L406.83,295.28L410.88,296.77L416.95,293.22L421,295.28L427.07,292.57L431.12,291.95L437.19,290.18L441.24,303.05L447.31,288.55L451.36,295.28L457.43,294.57L461.48,305.26L467.56,293.22L471.6,295.28L477.68,306.45L481.72,301.06L487.8,305.26L491.84,298.38L497.92,310.52L501.96,300.13L508.04,301.06L512.08,307.72L518.16,298.38L522.2,305.26L528.28,302.03L532.32,302.03L538.4,303.05L542.44,305.26L548.52,300.13L552.57,307.72L558.64,309.07L562.69,317.56L568.76,305.26L572.81,317.56L578.88,304.13L582.93,304.13L589,309.07L593.05,319.77L599.12,315.57L603.17,313.74L609.24,317.56L613.29,304.13L619.36,317.56L623.41,309.07L629.48,309.07L633.53,307.72L639.6,319.77L643.65,304.13L649.72,315.57L653.77,305.26L659.84,325.02L663.89,309.07L669.96,312.07L676.03,322.23L680.08,319.77L686.15,310.52L690.2,312.07L696.27,307.72L700.32,304.13L706.39,322.23L710.44,306.45L716.51,317.56L720.56,305.26L726.63,328.25L730.68,315.57L736.75,315.57L740.8,310.52L746.87,313.74L750.92,319.77L756.99,315.57L767.11,315.57L771.16,325.02L777.23,325.02L781.28,319.77L787.35,315.57L791.4,322.23L797.47,322.23L801.52,328.25L807.6,322.23L811.64,309.07L817.72,317.56L821.76,332.07L827.84,322.23L831.88,325.02L837.96,315.57L842,322.23L848.08,313.74L852.12,319.77L858.2,332.07L862.24,328.25L868.32,332.07L872.36,325.02L878.44,319.77L882.48,319.77L888.56,322.23L892.61,325.02L898.68,322.23L902.73,328.25L908.8,328.25L912.85,336.74L918.92,332.07L922.97,332.07L929.04,317.56L933.09,325.02L939.16,328.25L943.21,351.24L949.28,325.02L953.33,322.23L959.4,325.02L963.45,313.74L969.52,336.74L973.57,332.07L979.64,342.76L983.69,325.02L989.76,351.24L993.81,315.57L999.88,328.25L1003.93,319.77L1010,332.07" style="vector-effect: none; fill: none; stroke: rgb(247, 163, 92); stroke-opacity: 1; stroke-width: 2px; opacity: 1;"/></g><g class="points"/><g class="text"/></g><g class="trace scatter trace67ed9c" style="stroke-miterlimit: 2; opacity: 1;"><g class="fills"/><g class="errorbars"/><g class="lines"><path class="js-line" d="M0,51.28L10.12,87.79L16.19,134.37L20.24,150.38L26.31,139.14L30.36,149.88L36.43,188.4L40.48,194.12L46.55,183.77L50.6,189.67L56.67,211.25L60.72,213.93L66.79,204.16L70.84,206.44L76.91,223.15L80.96,224.75L87.03,215.5L91.08,218.59L97.15,233.73L101.2,234.19L107.27,224.53L111.32,226.43L117.39,238.55L121.44,242.1L127.52,234.04L131.56,234.39L137.64,245.83L141.68,245.89L147.76,238.41L151.8,240.2L157.88,250.28L161.92,250.45L168,244.64L172.04,243.57L178.12,257.3L182.16,255.72L188.24,247.82L192.28,250.45L198.36,260.06L202.4,256.84L208.48,254.45L212.53,256.72L218.6,264.2L222.65,262.93L228.72,258.39L232.77,258.02L238.84,265.38L242.89,270.22L248.96,261.31L253.01,265.38L259.08,270.22L263.13,269.79L269.2,267.57L273.25,265.04L279.32,276.83L283.37,272.77L289.44,271.34L293.49,269.37L299.56,277.44L303.61,273.27L309.68,273.52L313.73,269.79L319.8,279.37L323.85,270.89L329.92,273.02L333.97,271.58L340.04,280.77L346.11,281.13L350.16,276.83L356.23,285.62L360.28,278.71L370.4,279.04L376.47,284.73L380.52,286.55L386.59,281.13L390.64,282.66L396.71,286.55L400.76,283.46L406.83,287.53L410.88,293.22L416.95,288.03L421,289.08L427.07,283.06L431.12,284.3L437.19,290.18L441.24,290.75L447.31,282.27L451.36,283.88L457.43,291.34L461.48,294.57L467.56,288.55L471.6,285.62L477.68,292.57L481.72,296.77L487.8,291.95L491.84,288.55L497.92,295.28L501.96,291.95L508.04,288.55L512.08,293.22L518.16,293.88L522.2,304.13L528.28,293.22L532.32,293.88L538.4,296.77L542.44,293.88L548.52,299.24L552.57,301.06L558.64,299.24L562.69,301.06L568.76,300.13L572.81,297.56L578.88,303.05L582.93,298.38L589,294.57L593.05,293.88L599.12,313.74L603.17,304.13L609.24,295.28L613.29,298.38L619.36,301.06L623.41,305.26L629.48,299.24L633.53,296.77L639.6,299.24L643.65,310.52L649.72,305.26L653.77,306.45L659.84,304.13L663.89,303.05L669.96,293.88L676.03,310.52L680.08,310.52L686.15,293.88L690.2,309.07L696.27,303.05L700.32,307.72L706.39,305.26L710.44,307.72L716.51,307.72L720.56,309.07L726.63,322.23L730.68,317.56L736.75,319.77L740.8,307.72L746.87,302.03L750.92,312.07L756.99,315.57L761.04,313.74L767.11,313.74L771.16,319.77L777.23,302.03L781.28,312.07L787.35,312.07L791.4,305.26L797.47,336.74L801.52,309.07L807.6,315.57L811.64,310.52L817.72,309.07L821.76,310.52L827.84,336.74L831.88,313.74L837.96,317.56L842,310.52L852.12,319.77L858.2,306.45L862.24,312.07L868.32,304.13L872.36,325.02L878.44,319.77L882.48,325.02L888.56,325.02L892.61,309.07L898.68,312.07L902.73,317.56L908.8,328.25L912.85,322.23L918.92,317.56L922.97,328.25L929.04,313.74L933.09,325.02L939.16,319.77L943.21,322.23L949.28,325.02L953.33,319.77L959.4,328.25L963.45,312.07L969.52,322.23L973.57,312.07L979.64,325.02L983.69,312.07L989.76,328.25L993.81,312.07L999.88,322.23L1003.93,336.74L1010,328.25" style="vector-effect: none; fill: none; stroke: rgb(128, 133, 233); stroke-opacity: 1; stroke-width: 2px; opacity: 1;"/></g><g class="points"/><g class="text"/></g><g class="trace scatter trace4e4df2" style="stroke-miterlimit: 2; opacity: 1;"><g class="fills"/><g class="errorbars"/><g class="lines"><path class="js-line" d="M0,94.85L6.07,110.07L10.12,115.35L16.19,141.81L20.24,154.55L26.31,145.67L30.36,153.02L36.43,193.35L40.48,200.47L46.55,181.22L50.6,187.89L56.67,220.18L60.72,225.44L66.79,210.27L70.84,215.67L76.91,237.99L80.96,238.89L87.03,228.08L91.08,229.19L97.15,245.96L101.2,249.37L107.27,238.79L111.32,239.94L117.39,256.61L121.44,255.07L127.52,247.82L131.56,247.52L137.64,262.93L141.68,263.24L147.76,255.61L151.8,254.24L157.88,265.55L161.92,266.63L168,258.76L172.04,261.45L178.12,268.55L182.16,274.84L188.24,264.37L192.28,267.57L202.4,277.14L208.48,267.19L212.53,267.76L218.6,283.46L228.72,274.04L232.77,271.81L238.84,284.3L242.89,284.73L248.96,273.78L253.01,278.07L259.08,281.88L263.13,287.03L269.2,280.77L273.25,280.41L279.32,285.62L283.37,290.18L289.44,280.06L293.49,287.53L299.56,290.18L303.61,293.88L309.68,281.88L313.73,283.06L319.8,293.88L323.85,294.57L329.92,287.53L333.97,290.75L340.04,300.13L344.09,291.34L350.16,290.75L354.21,294.57L364.33,293.88L370.4,288.55L374.45,289.62L380.52,298.38L384.57,296.77L390.64,289.08L394.69,291.34L400.76,300.13L404.81,305.26L410.88,296.77L414.93,302.03L421,298.38L425.05,301.06L431.12,297.56L435.17,293.88L441.24,303.05L445.29,305.26L451.36,300.13L455.41,303.05L461.48,310.52L465.53,310.52L471.6,301.06L475.65,307.72L481.72,315.57L485.77,303.05L491.84,306.45L495.89,310.52L501.96,305.26L506.01,310.52L512.08,309.07L516.13,312.07L522.2,313.74L526.25,307.72L532.32,315.57L536.37,307.72L542.44,312.07L546.49,306.45L552.57,312.07L556.61,310.52L562.69,304.13L566.73,309.07L572.81,303.05L576.85,312.07L582.93,312.07L586.97,328.25L593.05,312.07L603.17,336.74L607.21,307.72L613.29,310.52L617.33,322.23L623.41,328.25L627.45,325.02L633.53,317.56L637.58,310.52L643.65,328.25L647.7,315.57L653.77,310.52L657.82,317.56L663.89,325.02L667.94,322.23L674.01,317.56L678.06,325.02L684.13,325.02L688.18,313.74L694.25,325.02L698.3,322.23L704.37,322.23L708.42,332.07L714.49,317.56L718.54,319.77L724.61,322.23L728.66,325.02L734.73,332.07L738.78,325.02L744.85,332.07L748.9,332.07L754.97,328.25L759.02,328.25L765.09,319.77L769.14,328.25L775.21,325.02L779.26,317.56L789.38,325.02L795.45,342.76L799.5,313.74L805.57,332.07L815.69,322.23L819.74,332.07L825.81,325.02L829.86,315.57L839.98,332.07L846.05,336.74L850.1,336.74L856.17,322.23L860.22,325.02L866.29,328.25L870.34,319.77L876.41,313.74L880.46,328.25L886.53,322.23L896.65,322.23L900.7,328.25L906.77,317.56L910.82,332.07L916.89,322.23L920.94,319.77L927.01,332.07L931.06,325.02L937.13,332.07L941.18,342.76L947.25,322.23L951.3,332.07L961.42,332.07L967.49,351.24L971.54,336.74L977.62,322.23L981.66,365.75L987.74,342.76L991.78,322.23L999.88,336.74L1003.93,351.24L1010,328.25" style="vector-effect: none; fill: none; stroke: rgb(241, 92, 128); stroke-opacity: 1; stroke-width: 2px; opacity: 1;"/></g><g class="points"/><g class="text"/></g><g class="trace scatter trace9a11b3" style="stroke-miterlimit: 2; opacity: 1;"><g class="fills"/><g class="errorbars"/><g class="lines"><path class="js-line" d="M0,62.26L10.12,100.17L16.19,152.03L20.24,166.4L26.31,154.65L30.36,165.29L36.43,198.67L40.48,203.5L46.55,192.02L50.6,196.12L56.67,216.81L60.72,219.73L66.79,209.11L70.84,211.32L76.91,228.82L80.96,231.08L87.03,220.91L91.08,222.48L97.15,237.48L101.2,237.48L107.27,229.13L111.32,231.49L117.39,244.57L121.44,248.2L127.52,236.28L131.56,237.8L137.64,249.21L141.68,250.87L147.76,241.43L151.8,242.8L157.88,255.61L161.92,257.42L168,247.09L172.04,249.78L178.12,258.02L182.16,258.89L188.24,250.45L192.28,250.87L198.36,262.93L202.4,264.7L208.48,257.19L212.53,256.38L218.6,270.22L222.65,262.78L228.72,262.78L232.77,267L238.84,270.89L242.89,270.44L248.96,264.2L253.01,263.24L259.08,272.05L263.13,276.83L269.2,271.12L273.25,267.57L279.32,275.11L283.37,286.55L289.44,269.37L293.49,270.44L299.56,275.39L303.61,276.54L309.68,273.78L313.73,278.71L319.8,278.71L323.85,280.41L329.92,275.67L333.97,275.96L340.04,281.88L346.11,281.13L350.16,277.75L360.28,286.08L366.35,283.46L370.4,286.55L376.47,284.3L380.52,283.06L386.59,280.41L390.64,281.13L396.71,283.88L400.76,287.03L406.83,285.62L410.88,287.53L416.95,291.34L421,287.53L427.07,290.75L431.12,288.03L437.19,297.56L441.24,286.08L447.31,288.03L451.36,291.34L457.43,291.34L461.48,295.28L467.56,285.17L471.6,291.95L477.68,294.57L481.72,298.38L487.8,289.08L491.84,288.55L497.92,289.08L501.96,293.22L508.04,294.57L512.08,293.22L518.16,305.26L522.2,300.13L528.28,290.75L532.32,298.38L538.4,313.74L542.44,297.56L548.52,300.13L552.57,293.22L558.64,312.07L562.69,303.05L568.76,287.53L572.81,306.45L578.88,305.26L582.93,315.57L589,298.38L593.05,293.22L599.12,303.05L603.17,305.26L609.24,299.24L613.29,300.13L619.36,303.05L623.41,315.57L629.48,299.24L633.53,307.72L639.6,306.45L643.65,305.26L649.72,301.06L653.77,303.05L659.84,298.38L663.89,310.52L669.96,306.45L676.03,309.07L680.08,307.72L686.15,309.07L690.2,307.72L696.27,310.52L700.32,315.57L706.39,307.72L710.44,310.52L716.51,312.07L720.56,307.72L726.63,305.26L730.68,313.74L736.75,303.05L740.8,306.45L746.87,310.52L750.92,310.52L756.99,312.07L761.04,310.52L767.11,307.72L771.16,322.23L777.23,315.57L781.28,325.02L787.35,307.72L791.4,310.52L797.47,313.74L801.52,319.77L807.6,325.02L811.64,322.23L817.72,315.57L821.76,322.23L827.84,325.02L831.88,313.74L837.96,322.23L842,312.07L852.12,315.57L858.2,313.74L862.24,322.23L868.32,319.77L872.36,312.07L878.44,332.07L882.48,312.07L888.56,313.74L892.61,322.23L898.68,317.56L902.73,317.56L908.8,315.57L912.85,332.07L918.92,310.52L922.97,317.56L929.04,312.07L933.09,322.23L939.16,313.74L943.21,319.77L949.28,322.23L953.33,312.07L959.4,325.02L963.45,328.25L969.52,319.77L973.57,317.56L979.64,336.74L983.69,336.74L989.76,313.74L993.81,328.25L999.88,325.02L1003.93,309.07L1010,315.57" style="vector-effect: none; fill: none; stroke: rgb(228, 211, 84); stroke-opacity: 1; stroke-width: 2px; opacity: 1;"/></g><g class="points"/><g class="text"/></g><g class="trace scatter trace2fb26c" style="stroke-miterlimit: 2; opacity: 1;"><g class="fills"/><g class="errorbars"/><g class="lines"><path class="js-line" d="M0,50.09L10.12,89.81L16.19,141.36L20.24,155.23L26.31,145.83L30.36,156.78L36.43,187.45L40.48,192.76L46.55,184.63L50.6,188.75L56.67,207.36L60.72,210.35L66.79,201.89L70.84,204.97L76.91,221.03L80.96,222.88L87.03,213.92L91.08,215.53L97.15,229.19L101.2,230.95L107.27,223.13L111.32,224.09L117.39,237.99L121.44,239.79L127.52,231.22L131.56,231.87L137.64,241.6L141.68,244.7L147.76,236.98L151.8,238.13L157.88,247.45L161.92,248.82L168,246.03L172.04,243.33L178.12,254.14L182.16,256.72L188.24,249.45L192.28,248.74L198.36,258.26L202.4,258.89L208.48,253.06L212.53,251.85L218.6,259.02L222.65,263.88L228.72,254.35L232.77,257.54L238.84,265.73L242.89,262.03L248.96,261.45L253.01,261.31L259.08,267.57L263.13,269.37L269.2,264.7L273.25,267.76L279.32,271.34L283.37,270.22L289.44,264.37L293.49,265.21L299.56,267.95L303.61,275.39L309.68,271.81L313.73,266.45L319.8,277.14L323.85,276.83L329.92,269.79L333.97,275.96L340.04,274.3L346.11,275.67L350.16,278.39L360.28,282.27L366.35,277.14L370.4,278.71L376.47,282.27L380.52,284.3L386.59,280.06L390.64,277.44L396.71,291.95L400.76,282.27L406.83,279.04L410.88,287.53L416.95,281.5L421,285.62L427.07,282.27L431.12,289.08L437.19,287.53L441.24,292.57L447.31,287.03L451.36,287.03L457.43,296.01L461.48,289.62L467.56,288.55L471.6,288.55L477.68,286.55L481.72,297.56L487.8,290.18L491.84,296.77L497.92,299.24L501.96,288.55L508.04,292.57L512.08,293.22L518.16,289.62L522.2,292.57L528.28,293.22L538.4,304.13L542.44,295.28L548.52,292.57L552.57,292.57L558.64,303.05L562.69,303.05L568.76,295.28L572.81,296.01L578.88,298.38L582.93,296.77L589,301.06L593.05,290.18L599.12,301.06L603.17,301.06L609.24,306.45L613.29,298.38L619.36,300.13L623.41,304.13L629.48,296.01L633.53,302.03L639.6,309.07L643.65,305.26L649.72,310.52L653.77,298.38L659.84,312.07L663.89,309.07L669.96,305.26L676.03,298.38L680.08,305.26L686.15,304.13L690.2,312.07L696.27,313.74L700.32,305.26L706.39,296.77L710.44,306.45L716.51,310.52L720.56,322.23L726.63,305.26L730.68,319.77L736.75,301.06L740.8,301.06L746.87,315.57L750.92,310.52L756.99,317.56L761.04,307.72L767.11,315.57L771.16,303.05L777.23,325.02L781.28,313.74L787.35,310.52L791.4,315.57L797.47,305.26L801.52,322.23L807.6,306.45L811.64,306.45L817.72,303.05L821.76,317.56L827.84,312.07L831.88,313.74L837.96,313.74L842,317.56L848.08,317.56L852.12,310.52L858.2,315.57L862.24,315.57L868.32,317.56L872.36,309.07L878.44,317.56L882.48,325.02L888.56,315.57L892.61,322.23L898.68,328.25L902.73,306.45L908.8,322.23L912.85,313.74L918.92,322.23L922.97,309.07L929.04,315.57L933.09,313.74L939.16,315.57L943.21,307.72L949.28,313.74L953.33,315.57L959.4,325.02L963.45,325.02L969.52,328.25L973.57,312.07L979.64,309.07L983.69,317.56L989.76,325.02L993.81,310.52L999.88,322.23L1003.93,336.74L1010,312.07" style="vector-effect: none; fill: none; stroke: rgb(43, 144, 143); stroke-opacity: 1; stroke-width: 2px; opacity: 1;"/></g><g class="points"/><g class="text"/></g><g class="trace scatter traceeb1427" style="stroke-miterlimit: 2; opacity: 1;"><g class="fills"/><g class="errorbars"/><g class="lines"><path class="js-line" d="M0,67.74L6.07,83.89L10.12,90.13L16.19,117.49L20.24,129.61L26.31,122.76L30.36,130.7L36.43,167.18L40.48,173.36L46.55,160.09L50.6,166.57L56.67,192.91L60.72,196.99L66.79,186.76L70.84,190.21L76.91,208.24L80.96,210.87L87.03,202.53L91.08,205.43L97.15,218.24L101.2,221.56L107.27,212.71L111.32,213.58L117.39,226.81L121.44,228.32L127.52,219.73L131.56,221.75L137.64,233.46L141.68,235.4L147.76,227.51L151.8,228.92L157.88,239.14L161.92,239.94L168,232.33L172.04,236.02L178.12,243.51L182.16,243.7L188.24,240.2L192.28,240.25L198.36,246.94L202.4,248.66L208.48,242.22L212.53,244.32L218.6,249.86L222.65,256.27L228.72,247.6L232.77,246.73L238.84,254.24L242.89,256.61L248.96,250.28L253.01,253.45L259.08,259.93L263.13,260.47L269.2,253.74L273.25,255.5L279.32,262.33L283.37,259.8L293.49,256.16L299.56,263.56L303.61,266.63L309.68,257.54L313.73,262.93L319.8,269.37L323.85,270.44L329.92,262.63L333.97,265.73L340.04,272.28L346.11,267L350.16,267.57L356.23,268.35L360.28,273.27L370.4,270.22L376.47,273.27L380.52,277.14L386.59,270.67L390.64,273.27L396.71,274.3L400.76,274.04L406.83,272.77L410.88,272.05L416.95,278.39L421,277.14L427.07,270.89L431.12,280.77L437.19,283.06L441.24,275.11L447.31,278.39L451.36,279.37L457.43,284.73L467.56,278.07L471.6,278.71L477.68,281.88L481.72,277.44L487.8,279.72L491.84,283.88L497.92,281.13L501.96,287.03L508.04,281.88L512.08,287.03L518.16,284.3L522.2,283.88L528.28,290.18L532.32,285.17L538.4,285.62L542.44,289.62L548.52,284.3L552.57,287.03L562.69,291.95L568.76,290.18L578.88,296.01L582.93,293.22L589,284.73L593.05,292.57L599.12,294.57L603.17,289.62L613.29,290.75L619.36,286.08L623.41,289.62L629.48,289.08L633.53,299.24L639.6,291.34L643.65,296.01L649.72,293.22L653.77,289.62L659.84,291.95L663.89,293.22L669.96,298.38L676.03,301.06L680.08,297.56L686.15,298.38L690.2,300.13L696.27,298.38L700.32,298.38L706.39,306.45L710.44,293.22L716.51,297.56L720.56,299.24L726.63,296.77L730.68,291.34L736.75,295.28L740.8,305.26L746.87,298.38L750.92,310.52L756.99,307.72L761.04,304.13L767.11,299.24L771.16,300.13L777.23,305.26L781.28,304.13L787.35,300.13L791.4,302.03L797.47,299.24L801.52,306.45L807.6,317.56L811.64,302.03L817.72,309.07L821.76,303.05L827.84,310.52L831.88,297.56L837.96,309.07L842,303.05L848.08,307.72L852.12,306.45L858.2,307.72L862.24,301.06L868.32,304.13L872.36,304.13L878.44,305.26L882.48,312.07L888.56,306.45L892.61,315.57L898.68,301.06L902.73,310.52L908.8,312.07L912.85,306.45L918.92,304.13L922.97,309.07L929.04,304.13L933.09,306.45L939.16,312.07L943.21,310.52L949.28,307.72L953.33,315.57L959.4,307.72L963.45,304.13L969.52,307.72L973.57,307.72L979.64,309.07L983.69,317.56L989.76,309.07L993.81,310.52L999.88,317.56L1003.93,303.05L1010,325.02" style="vector-effect: none; fill: none; stroke: rgb(244, 91, 91); stroke-opacity: 1; stroke-width: 2px; opacity: 1;"/></g><g class="points"/><g class="text"/></g><g class="trace scatter traced8fbf1" style="stroke-miterlimit: 2; opacity: 1;"><g class="fills"/><g class="errorbars"/><g class="lines"><path class="js-line" d="M0,70.71L10.12,96.48L16.19,133.61L20.24,148.14L26.31,137.87L30.36,147.3L36.43,185.52L40.48,191.56L46.55,178.67L50.6,185.02L56.67,208.91L60.72,212.67L66.79,203.5L70.84,206.02L76.91,222.95L80.96,223.95L87.03,215.67L91.08,217.28L97.15,232.62L101.2,234.43L107.27,225.36L111.32,227.6L117.39,241.93L121.44,241.65L127.52,233.65L131.56,234.95L137.64,243.94L141.68,247.23L147.76,240.46L151.8,241.21L157.88,253.45L161.92,251.76L168,246.59L172.04,248.27L178.12,255.39L182.16,256.84L188.24,252.03L198.36,258.14L202.4,263.09L208.48,256.61L212.53,255.72L222.65,266.63L228.72,258.76L232.77,259.53L238.84,270.89L242.89,267.76L248.96,265.04L263.13,270.67L269.2,268.35L289.44,275.11L293.49,269.79L299.56,275.96L303.61,281.88L309.68,272.77L313.73,270.44L319.8,279.04L323.85,280.77L329.92,273.52L333.97,275.11L340.04,283.06L346.11,277.75L350.16,279.72L356.23,285.62L360.28,287.53L366.35,284.3L370.4,283.46L376.47,285.62L380.52,291.34L386.59,279.72L390.64,282.66L396.71,283.06L400.76,287.03L406.83,286.55L410.88,286.08L416.95,290.75L421,291.34L427.07,288.55L431.12,291.95L437.19,290.18L441.24,295.28L447.31,291.34L451.36,291.95L457.43,296.77L461.48,290.75L467.56,290.18L471.6,299.24L477.68,295.28L481.72,297.56L487.8,294.57L491.84,291.34L497.92,298.38L508.04,296.77L512.08,303.05L518.16,296.77L522.2,303.05L528.28,295.28L532.32,296.77L538.4,309.07L542.44,298.38L548.52,293.88L552.57,299.24L558.64,304.13L562.69,297.56L568.76,301.06L572.81,296.77L578.88,307.72L582.93,299.24L589,310.52L593.05,304.13L603.17,303.05L609.24,312.07L613.29,299.24L619.36,304.13L623.41,304.13L629.48,296.77L633.53,302.03L639.6,300.13L643.65,300.13L649.72,309.07L653.77,306.45L659.84,317.56L663.89,315.57L669.96,315.57L676.03,310.52L680.08,305.26L686.15,306.45L690.2,313.74L696.27,317.56L700.32,303.05L710.44,305.26L716.51,315.57L720.56,315.57L726.63,310.52L730.68,307.72L736.75,309.07L740.8,307.72L746.87,309.07L750.92,307.72L756.99,309.07L761.04,328.25L767.11,309.07L771.16,312.07L777.23,317.56L781.28,319.77L787.35,319.77L791.4,317.56L797.47,322.23L801.52,322.23L807.6,336.74L811.64,317.56L817.72,325.02L821.76,310.52L827.84,309.07L831.88,313.74L837.96,317.56L842,319.77L848.08,313.74L852.12,319.77L858.2,310.52L868.32,313.74L872.36,312.07L878.44,319.77L882.48,336.74L888.56,315.57L892.61,322.23L898.68,319.77L902.73,336.74L908.8,319.77L912.85,317.56L918.92,313.74L922.97,317.56L929.04,325.02L933.09,328.25L939.16,317.56L943.21,315.57L949.28,317.56L953.33,319.77L959.4,317.56L963.45,325.02L969.52,319.77L973.57,322.23L979.64,317.56L983.69,325.02L989.76,319.77L993.81,312.07L999.88,309.07L1003.93,325.02L1010,328.25" style="vector-effect: none; fill: none; stroke: rgb(145, 232, 225); stroke-opacity: 1; stroke-width: 2px; opacity: 1;"/></g><g class="points"/><g class="text"/></g><g class="trace scatter trace0a41eb" style="stroke-miterlimit: 2; opacity: 1;"><g class="fills"/><g class="errorbars"/><g class="lines"><path class="js-line" d="M0,75.23L6.07,91.16L10.12,104.31L16.19,150.36L20.24,164.14L26.31,152.15L30.36,162.21L36.43,197.19L40.48,202.32L46.55,191.21L50.6,196.67L56.67,218.53L60.72,220.18L66.79,210.25L70.84,212.16L76.91,229.97L80.96,231.02L87.03,221.45L91.08,224.39L97.15,239.14L101.2,240.99L107.27,233.81L111.32,232.76L117.39,247.09L121.44,249.29L127.52,239.74L131.56,243.27L137.64,253.06L141.68,254.14L147.76,243.76L151.8,245.96L157.88,260.06L161.92,258.89L168,251.14L172.04,253.74L178.12,261.88L182.16,259.53L188.24,255.61L192.28,256.84L198.36,267.19L202.4,269.79L208.48,261.31L212.53,262.48L218.6,268.75L222.65,271.34L228.72,264.04L232.77,269.58L238.84,275.96L242.89,276.54L248.96,268.96L253.01,267.95L259.08,273.52L263.13,272.53L269.2,274.3L273.25,273.27L279.32,278.71L283.37,275.67L289.44,274.3L293.49,274.57L299.56,285.17L303.61,286.08L309.68,281.13L313.73,279.04L319.8,282.27L323.85,283.06L329.92,282.27L333.97,280.77L346.11,288.55L350.16,284.3L356.23,284.73L360.28,290.75L366.35,286.55L370.4,290.75L380.52,292.57L386.59,290.18L390.64,286.08L396.71,290.75L400.76,293.88L406.83,287.53L410.88,294.57L416.95,294.57L421,288.55L427.07,303.05L431.12,298.38L437.19,296.01L441.24,298.38L447.31,300.13L451.36,296.77L457.43,303.05L461.48,301.06L467.56,296.77L471.6,288.03L477.68,296.01L481.72,309.07L487.8,300.13L497.92,303.05L501.96,312.07L508.04,296.01L512.08,292.57L518.16,297.56L522.2,319.77L528.28,301.06L532.32,296.01L538.4,306.45L542.44,305.26L548.52,295.28L552.57,302.03L558.64,306.45L562.69,301.06L568.76,303.05L572.81,301.06L578.88,312.07L582.93,304.13L589,306.45L593.05,304.13L599.12,310.52L603.17,305.26L609.24,302.03L613.29,313.74L619.36,332.07L623.41,307.72L629.48,310.52L633.53,306.45L639.6,307.72L643.65,319.77L649.72,309.07L653.77,309.07L659.84,307.72L663.89,317.56L669.96,312.07L676.03,309.07L680.08,313.74L686.15,312.07L690.2,351.24L696.27,322.23L700.32,313.74L706.39,304.13L710.44,307.72L716.51,325.02L720.56,307.72L726.63,313.74L730.68,315.57L736.75,315.57L740.8,319.77L746.87,313.74L750.92,309.07L756.99,317.56L761.04,315.57L767.11,325.02L771.16,309.07L777.23,317.56L781.28,310.52L787.35,322.23L791.4,310.52L797.47,322.23L801.52,322.23L807.6,328.25L811.64,319.77L817.72,325.02L827.84,325.02L831.88,313.74L837.96,312.07L842,328.25L848.08,342.76L852.12,332.07L858.2,328.25L862.24,336.74L868.32,328.25L872.36,328.25L878.44,322.23L882.48,336.74L888.56,317.56L892.61,313.74L898.68,332.07L902.73,319.77L908.8,315.57L912.85,313.74L922.97,332.07L929.04,365.75L933.09,342.76L939.16,336.74L943.21,328.25L949.28,328.25L953.33,336.74L959.4,336.74L963.45,332.07L969.52,328.25L973.57,336.74L979.64,336.74L983.69,328.25L989.76,325.02L993.81,317.56L999.88,322.23L1003.93,351.24L1010,315.57" style="vector-effect: none; fill: none; stroke: rgb(124, 181, 236); stroke-opacity: 1; stroke-width: 2px; opacity: 1;"/></g><g class="points"/><g class="text"/></g><g class="trace scatter tracea55e71" style="stroke-miterlimit: 2; opacity: 1;"><g class="fills"/><g class="errorbars"/><g class="lines"><path class="js-line" d="M0,93.02L6.07,109.3L10.12,113.47L16.19,137.22L20.24,148.03L26.31,141.38L30.36,148.61L36.43,183.54L40.48,189.65L46.55,175.45L50.6,181.82L56.67,209.03L60.72,213.61L66.79,201.54L70.84,204.97L76.91,223.76L80.96,226.22L87.03,216.75L91.08,218L97.15,233.65L101.2,237.12L107.27,227.03L111.32,228.32L117.39,242.1L121.44,243.03L127.52,235.27L131.56,238.27L137.64,249.13L141.68,250.79L147.76,240.94L151.8,243.94L161.92,255.94L168,247.16L172.04,247.97L178.12,256.5L182.16,256.95L188.24,252.87L192.28,253.55L198.36,261.74L202.4,262.03L208.48,257.19L218.6,265.21L222.65,266.26L228.72,262.78L232.77,261.88L238.84,264.04L242.89,268.35L248.96,264.7L253.01,263.56L259.08,272.77L263.13,273.78L269.2,265.38L273.25,270.44L279.32,281.88L283.37,283.06L289.44,273.02L293.49,275.11L303.61,280.41L309.68,275.96L313.73,274.3L319.8,279.04L323.85,283.88L329.92,274.84L333.97,278.39L340.04,280.06L346.11,279.72L350.16,283.06L356.23,286.08L360.28,279.37L366.35,283.06L370.4,278.07L376.47,294.57L380.52,288.03L386.59,284.3L390.64,278.07L396.71,284.73L400.76,285.17L410.88,291.34L416.95,287.53L421,288.03L427.07,289.62L431.12,287.03L437.19,285.62L441.24,291.95L447.31,293.22L451.36,291.34L457.43,293.88L461.48,294.57L467.56,291.34L471.6,288.03L477.68,293.22L481.72,291.34L487.8,292.57L491.84,303.05L497.92,305.26L501.96,297.56L508.04,296.77L512.08,296.77L518.16,305.26L522.2,302.03L528.28,299.24L532.32,291.34L538.4,303.05L542.44,303.05L548.52,296.77L552.57,303.05L558.64,301.06L568.76,296.77L572.81,296.77L578.88,294.57L582.93,317.56L589,300.13L593.05,300.13L599.12,299.24L603.17,302.03L609.24,313.74L613.29,307.72L623.41,310.52L629.48,302.03L633.53,306.45L639.6,306.45L643.65,309.07L649.72,302.03L653.77,306.45L659.84,303.05L663.89,298.38L669.96,309.07L676.03,298.38L680.08,304.13L686.15,306.45L690.2,306.45L696.27,305.26L700.32,315.57L706.39,312.07L710.44,317.56L716.51,325.02L720.56,315.57L726.63,309.07L730.68,319.77L736.75,298.38L740.8,315.57L746.87,310.52L750.92,313.74L756.99,312.07L761.04,309.07L767.11,306.45L771.16,322.23L777.23,325.02L781.28,313.74L787.35,317.56L791.4,306.45L797.47,303.05L801.52,328.25L807.6,319.77L811.64,315.57L817.72,313.74L821.76,313.74L827.84,313.74L831.88,317.56L837.96,313.74L842,319.77L848.08,317.56L852.12,319.77L858.2,328.25L862.24,336.74L868.32,310.52L872.36,312.07L878.44,328.25L882.48,336.74L888.56,315.57L892.61,317.56L898.68,319.77L902.73,313.74L912.85,319.77L918.92,310.52L922.97,328.25L929.04,313.74L933.09,336.74L939.16,317.56L943.21,325.02L949.28,322.23L953.33,319.77L959.4,313.74L963.45,342.76L969.52,310.52L973.57,336.74L979.64,325.02L983.69,313.74L989.76,319.77L993.81,317.56L999.88,351.24L1003.93,322.23L1010,336.74" style="vector-effect: none; fill: none; stroke: rgb(67, 67, 72); stroke-opacity: 1; stroke-width: 2px; opacity: 1;"/></g><g class="points"/><g class="text"/></g><g class="trace scatter tracee22814" style="stroke-miterlimit: 2; opacity: 1;"><g class="fills"/><g class="errorbars"/><g class="lines"><path class="js-line" d="M0,26.05L10.12,80.91L16.19,134.48L20.24,147.61L26.31,147.25L30.36,157.27L36.43,179.52L40.48,184.65L46.55,182.03L50.6,186.62L56.67,200.83L60.72,204.35L66.79,200.05L70.84,202.72L76.91,214.88L80.96,216.16L87.03,212.13L91.08,213.99L97.15,226.3L101.2,227.2L107.27,222.52L111.32,223.95L117.39,234.91L121.44,235.85L127.52,229.16L137.64,240.1L141.68,241.6L147.76,236.32L151.8,238.6L157.88,248.2L161.92,248.27L168,245.09L172.04,244.7L178.12,250.87L182.16,252.68L188.24,249.53L192.28,250.28L198.36,255.07L202.4,255.5L208.48,251.49L212.53,254.45L218.6,259.66L222.65,264.37L228.72,257.9L232.77,260.47L242.89,266.81L248.96,261.17L253.01,262.93L259.08,267.38L263.13,269.79L269.2,265.38L273.25,269.37L279.32,264.87L283.37,269.37L289.44,267.95L299.56,271.58L303.61,273.78L309.68,270.67L313.73,272.53L319.8,277.14L323.85,278.39L329.92,274.3L333.97,275.39L340.04,280.77L346.11,281.13L350.16,278.39L356.23,278.39L360.28,280.06L366.35,277.75L370.4,279.37L376.47,290.18L380.52,284.73L386.59,280.77L390.64,281.88L396.71,287.53L400.76,281.88L406.83,279.04L410.88,284.3L416.95,289.08L421,289.08L427.07,282.66L431.12,292.57L437.19,288.55L441.24,283.88L447.31,286.55L457.43,290.75L461.48,290.18L467.56,300.13L471.6,285.62L477.68,290.75L481.72,289.08L491.84,296.01L497.92,291.95L501.96,288.55L508.04,304.13L512.08,293.22L518.16,297.56L522.2,294.57L528.28,294.57L532.32,300.13L538.4,296.77L542.44,297.56L548.52,296.01L552.57,304.13L558.64,298.38L562.69,295.28L568.76,302.03L572.81,296.01L578.88,301.06L582.93,297.56L589,305.26L593.05,293.22L599.12,309.07L603.17,302.03L609.24,297.56L613.29,305.26L619.36,307.72L623.41,303.05L629.48,297.56L633.53,305.26L639.6,299.24L643.65,305.26L649.72,317.56L653.77,303.05L659.84,304.13L663.89,310.52L669.96,303.05L676.03,306.45L680.08,300.13L686.15,312.07L690.2,298.38L696.27,315.57L700.32,303.05L706.39,306.45L710.44,317.56L716.51,305.26L720.56,312.07L726.63,309.07L730.68,313.74L736.75,317.56L740.8,307.72L746.87,309.07L750.92,309.07L756.99,309.07L761.04,313.74L771.16,304.13L777.23,307.72L781.28,312.07L787.35,315.57L791.4,307.72L797.47,328.25L801.52,317.56L807.6,317.56L811.64,315.57L817.72,319.77L821.76,312.07L827.84,309.07L831.88,306.45L837.96,319.77L842,306.45L848.08,322.23L852.12,312.07L858.2,312.07L862.24,325.02L868.32,317.56L872.36,319.77L878.44,310.52L882.48,319.77L888.56,312.07L892.61,309.07L898.68,328.25L902.73,319.77L908.8,315.57L912.85,319.77L918.92,310.52L922.97,313.74L929.04,325.02L933.09,325.02L939.16,319.77L943.21,319.77L949.28,325.02L953.33,319.77L959.4,322.23L963.45,319.77L969.52,317.56L973.57,325.02L979.64,325.02L983.69,315.57L989.76,325.02L993.81,325.02L999.88,312.07L1003.93,319.77L1010,322.23" style="vector-effect: none; fill: none; stroke: rgb(144, 237, 125); stroke-opacity: 1; stroke-width: 2px; opacity: 1;"/></g><g class="points"/><g class="text"/></g><g class="trace scatter trace411dc6" style="stroke-miterlimit: 2; opacity: 1;"><g class="fills"/><g class="errorbars"/><g class="lines"><path class="js-line" d="M0,93.93L6.07,112.28L10.12,115.54L16.19,136.04L20.24,146.35L26.31,140.98L30.36,147.56L36.43,180.48L40.48,187.31L46.55,173.21L50.6,179.12L56.67,208.38L60.72,211.91L66.79,201.21L70.84,205.6L76.91,226.3L80.96,227.45L87.03,218.46L91.08,221.41L97.15,235.94L101.2,238.36L107.27,230.23L111.32,232.94L117.39,246.52L121.44,248.74L127.52,238.94L131.56,241.71L137.64,255.18L141.68,250.45L147.76,246.59L151.8,249.94L157.88,259.27L161.92,258.26L168,255.72L172.04,255.29L178.12,262.03L182.16,262.78L188.24,257.9L192.28,261.02L198.36,267.38L202.4,267.76L208.48,265.55L212.53,262.63L218.6,271.81L222.65,268.96L228.72,267.76L232.77,269.58L238.84,271.58L242.89,275.39L248.96,271.12L253.01,271.58L259.08,285.62L263.13,279.72L269.2,276.54L273.25,275.96L279.32,283.88L283.37,285.17L293.49,275.39L299.56,284.3L303.61,287.53L309.68,280.41L313.73,283.46L319.8,286.08L323.85,289.08L329.92,288.55L333.97,279.72L340.04,291.34L346.11,283.46L350.16,286.55L356.23,298.38L360.28,295.28L366.35,282.27L370.4,293.88L376.47,295.28L380.52,290.75L386.59,291.95L390.64,297.56L400.76,291.95L406.83,307.72L410.88,295.28L416.95,294.57L421,300.13L427.07,293.88L431.12,303.05L437.19,297.56L441.24,302.03L447.31,290.18L451.36,304.13L457.43,305.26L461.48,290.18L467.56,302.03L471.6,297.56L477.68,294.57L481.72,305.26L487.8,296.77L491.84,302.03L497.92,306.45L501.96,299.24L508.04,298.38L512.08,299.24L518.16,303.05L522.2,309.07L528.28,304.13L532.32,309.07L538.4,300.13L542.44,303.05L548.52,299.24L552.57,303.05L558.64,304.13L562.69,312.07L568.76,304.13L572.81,309.07L578.88,310.52L582.93,315.57L589,312.07L593.05,306.45L599.12,312.07L603.17,306.45L609.24,315.57L613.29,309.07L619.36,319.77L623.41,313.74L629.48,313.74L633.53,313.74L639.6,312.07L643.65,319.77L649.72,307.72L653.77,319.77L659.84,310.52L663.89,309.07L669.96,312.07L676.03,312.07L680.08,322.23L686.15,313.74L690.2,319.77L696.27,322.23L700.32,315.57L706.39,315.57L710.44,319.77L720.56,315.57L726.63,312.07L730.68,315.57L736.75,322.23L740.8,319.77L746.87,312.07L750.92,315.57L756.99,317.56L761.04,328.25L767.11,313.74L771.16,336.74L777.23,322.23L781.28,336.74L787.35,332.07L791.4,317.56L797.47,322.23L801.52,310.52L807.6,322.23L811.64,307.72L817.72,322.23L821.76,332.07L827.84,317.56L831.88,332.07L837.96,317.56L848.08,342.76L852.12,342.76L858.2,365.75L862.24,365.75L868.32,315.57L872.36,328.25L878.44,342.76L882.48,342.76L888.56,342.76L892.61,336.74L898.68,317.56L902.73,336.74L908.8,317.56L912.85,328.25L918.92,328.25L922.97,342.76L929.04,332.07L933.09,315.57L939.16,317.56L943.21,336.74L949.28,317.56L953.33,322.23L959.4,319.77L963.45,342.76L969.52,325.02L973.57,322.23L979.64,351.24L983.69,325.02L993.81,336.74L999.88,332.07L1003.93,336.74L1010,319.77" style="vector-effect: none; fill: none; stroke: rgb(247, 163, 92); stroke-opacity: 1; stroke-width: 2px; opacity: 1;"/></g><g class="points"/><g class="text"/></g><g class="trace scatter trace7f28be" style="stroke-miterlimit: 2; opacity: 1;"><g class="fills"/><g class="errorbars"/><g class="lines"><path class="js-line" d="M0,50.97L10.12,97.08L16.19,152.72L20.24,166.57L26.31,156.52L30.36,166.99L36.43,198L40.48,202.75L46.55,192.17L50.6,196.23L56.67,216.63L60.72,220.16L66.79,208.91L70.84,211.78L76.91,228.64L80.96,231.94L87.03,220.64L91.08,221.84L97.15,238.31L101.2,239.39L107.27,229.1L111.32,231.02L117.39,243.27L121.44,246.73L127.52,235.15L131.56,236.72L137.64,249.94L141.68,254.24L147.76,242.97L151.8,244.51L157.88,259.93L168,247.75L172.04,249.13L178.12,257.9L182.16,259.4L188.24,251.05L192.28,253.94L198.36,263.4L202.4,264.37L208.48,258.14L212.53,258.76L218.6,270.67L222.65,265.91L228.72,260.75L232.77,261.17L238.84,269.79L242.89,273.02L248.96,263.24L253.01,267L259.08,273.27L263.13,275.39L269.2,271.12L273.25,273.27L283.37,277.75L289.44,273.02L299.56,279.37L303.61,279.04L309.68,272.28L313.73,270.67L319.8,281.88L323.85,279.37L329.92,276.83L333.97,273.02L340.04,281.5L346.11,279.37L350.16,277.75L356.23,282.27L360.28,285.17L366.35,276.25L380.52,290.75L386.59,283.88L390.64,283.88L396.71,293.22L400.76,287.53L406.83,282.27L410.88,278.39L416.95,288.55L421,291.34L427.07,288.03L431.12,286.08L437.19,290.18L441.24,289.08L447.31,293.88L451.36,291.95L457.43,296.01L461.48,305.26L467.56,298.38L477.68,293.22L481.72,294.57L487.8,293.22L491.84,293.88L497.92,295.28L501.96,299.24L508.04,293.22L512.08,296.77L518.16,296.77L522.2,297.56L528.28,296.01L532.32,297.56L542.44,291.95L548.52,298.38L552.57,300.13L558.64,305.26L562.69,303.05L568.76,297.56L572.81,298.38L578.88,298.38L582.93,303.05L589,304.13L593.05,298.38L599.12,302.03L603.17,307.72L609.24,306.45L613.29,310.52L619.36,312.07L623.41,295.28L629.48,305.26L633.53,312.07L639.6,309.07L643.65,305.26L649.72,301.06L653.77,302.03L659.84,312.07L663.89,312.07L669.96,306.45L676.03,317.56L680.08,306.45L686.15,305.26L690.2,307.72L700.32,312.07L706.39,312.07L710.44,307.72L716.51,305.26L720.56,309.07L726.63,304.13L730.68,302.03L736.75,309.07L740.8,310.52L746.87,306.45L750.92,303.05L756.99,313.74L761.04,319.77L767.11,304.13L771.16,319.77L777.23,317.56L781.28,325.02L787.35,315.57L791.4,317.56L797.47,310.52L801.52,328.25L807.6,307.72L811.64,319.77L817.72,310.52L821.76,317.56L827.84,309.07L831.88,319.77L837.96,322.23L842,313.74L848.08,317.56L852.12,325.02L858.2,325.02L862.24,322.23L868.32,315.57L872.36,325.02L878.44,315.57L882.48,317.56L888.56,312.07L892.61,313.74L898.68,328.25L902.73,317.56L908.8,322.23L912.85,325.02L918.92,315.57L922.97,328.25L929.04,322.23L933.09,304.13L939.16,317.56L943.21,322.23L949.28,325.02L953.33,328.25L959.4,319.77L963.45,325.02L969.52,322.23L973.57,325.02L979.64,317.56L983.69,332.07L989.76,315.57L993.81,309.07L999.88,332.07L1003.93,342.76L1010,325.02" style="vector-effect: none; fill: none; stroke: rgb(128, 133, 233); stroke-opacity: 1; stroke-width: 2px; opacity: 1;"/></g><g class="points"/><g class="text"/></g></g></g></g><path class="xlines-above crisp" d="M0,0" style="fill: none;"/><path class="ylines-above crisp" d="M0,0" style="fill: none;"/><g class="overlines-above"/><g class="xaxislayer-above"><g class="xtick"><text text-anchor="middle" x="0" y="451" transform="translate(167.18,0)" style="font-family: 'Lucida Grande', 'Open Sans', verdana, arial, sans-serif; font-size: 10px; fill: rgb(0, 0, 0); fill-opacity: 1; white-space: pre; opacity: 1;">50</text></g><g class="xtick"><text text-anchor="middle" x="0" y="451" style="font-family: 'Lucida Grande', 'Open Sans', verdana, arial, sans-serif; font-size: 10px; fill: rgb(0, 0, 0); fill-opacity: 1; white-space: pre; opacity: 1;" transform="translate(268.38,0)">100</text></g><g class="xtick"><text text-anchor="middle" x="0" y="451" style="font-family: 'Lucida Grande', 'Open Sans', verdana, arial, sans-serif; font-size: 10px; fill: rgb(0, 0, 0); fill-opacity: 1; white-space: pre; opacity: 1;" transform="translate(369.58,0)">150</text></g><g class="xtick"><text text-anchor="middle" x="0" y="451" style="font-family: 'Lucida Grande', 'Open Sans', verdana, arial, sans-serif; font-size: 10px; fill: rgb(0, 0, 0); fill-opacity: 1; white-space: pre; opacity: 1;" transform="translate(470.79,0)">200</text></g><g class="xtick"><text text-anchor="middle" x="0" y="451" style="font-family: 'Lucida Grande', 'Open Sans', verdana, arial, sans-serif; font-size: 10px; fill: rgb(0, 0, 0); fill-opacity: 1; white-space: pre; opacity: 1;" transform="translate(571.99,0)">250</text></g><g class="xtick"><text text-anchor="middle" x="0" y="451" style="font-family: 'Lucida Grande', 'Open Sans', verdana, arial, sans-serif; font-size: 10px; fill: rgb(0, 0, 0); fill-opacity: 1; white-space: pre; opacity: 1;" transform="translate(673.19,0)">300</text></g><g class="xtick"><text text-anchor="middle" x="0" y="451" style="font-family: 'Lucida Grande', 'Open Sans', verdana, arial, sans-serif; font-size: 10px; fill: rgb(0, 0, 0); fill-opacity: 1; white-space: pre; opacity: 1;" transform="translate(774.39,0)">350</text></g><g class="xtick"><text text-anchor="middle" x="0" y="451" style="font-family: 'Lucida Grande', 'Open Sans', verdana, arial, sans-serif; font-size: 10px; fill: rgb(0, 0, 0); fill-opacity: 1; white-space: pre; opacity: 1;" transform="translate(875.6,0)">400</text></g><g class="xtick"><text text-anchor="middle" x="0" y="451" style="font-family: 'Lucida Grande', 'Open Sans', verdana, arial, sans-serif; font-size: 10px; fill: rgb(0, 0, 0); fill-opacity: 1; white-space: pre; opacity: 1;" transform="translate(976.8,0)">450</text></g><g class="xtick"><text text-anchor="middle" x="0" y="451" style="font-family: 'Lucida Grande', 'Open Sans', verdana, arial, sans-serif; font-size: 10px; fill: rgb(0, 0, 0); fill-opacity: 1; white-space: pre; opacity: 1;" transform="translate(1078,0)">500</text></g></g><g class="yaxislayer-above"><g class="ytick"><text text-anchor="end" x="62" y="3.5" transform="translate(0,415.75)" style="font-family: 'Lucida Grande', 'Open Sans', verdana, arial, sans-serif; font-size: 10px; fill: rgb(0, 0, 0); fill-opacity: 1; white-space: pre; opacity: 1;">1</text></g><g class="ytick"><text text-anchor="end" x="62" y="3.5" style="font-family: 'Lucida Grande', 'Open Sans', verdana, arial, sans-serif; font-size: 10px; fill: rgb(0, 0, 0); fill-opacity: 1; white-space: pre; opacity: 1;" transform="translate(0,367.56)">10</text></g><g class="ytick"><text text-anchor="end" x="62" y="3.5" style="font-family: 'Lucida Grande', 'Open Sans', verdana, arial, sans-serif; font-size: 10px; fill: rgb(0, 0, 0); fill-opacity: 1; white-space: pre; opacity: 1;" transform="translate(0,319.37)">100</text></g><g class="ytick"><text text-anchor="end" x="62" y="3.5" style="font-family: 'Lucida Grande', 'Open Sans', verdana, arial, sans-serif; font-size: 10px; fill: rgb(0, 0, 0); fill-opacity: 1; white-space: pre; opacity: 1;" transform="translate(0,271.18)">1000</text></g><g class="ytick"><text text-anchor="end" x="62" y="3.5" style="font-family: 'Lucida Grande', 'Open Sans', verdana, arial, sans-serif; font-size: 10px; fill: rgb(0, 0, 0); fill-opacity: 1; white-space: pre; opacity: 1;" transform="translate(0,222.99)">10k</text></g><g class="ytick"><text text-anchor="end" x="62" y="3.5" style="font-family: 'Lucida Grande', 'Open Sans', verdana, arial, sans-serif; font-size: 10px; fill: rgb(0, 0, 0); fill-opacity: 1; white-space: pre; opacity: 1;" transform="translate(0,174.8)">100k</text></g><g class="ytick"><text text-anchor="end" x="62" y="3.5" style="font-family: 'Lucida Grande', 'Open Sans', verdana, arial, sans-serif; font-size: 10px; fill: rgb(0, 0, 0); fill-opacity: 1; white-space: pre; opacity: 1;" transform="translate(0,126.61)">1M</text></g><g class="ytick"><text text-anchor="end" x="62" y="3.5" style="font-family: 'Lucida Grande', 'Open Sans', verdana, arial, sans-serif; font-size: 10px; fill: rgb(0, 0, 0); fill-opacity: 1; white-space: pre; opacity: 1;" transform="translate(0,78.42)">10M</text></g></g><g class="overaxes-above"/></g></g><g class="polarlayer"/><g class="smithlayer"/><g class="ternarylayer"/><g class="geolayer"/><g class="funnelarealayer"/><g class="pielayer"/><g class="iciclelayer"/><g class="treemaplayer"/><g class="sunburstlayer"/><g class="glimages"/><defs id="topdefs-d916de"><g class="clips"/></defs><g class="layer-above"><g class="imagelayer"/><g class="shapelayer"/></g><g class="infolayer"><g class="g-gtitle"><text class="gtitle" x="550" y="25" text-anchor="middle" dy="0em" style="opacity: 1; font-family: 'Lucida Grande', 'Open Sans', verdana, arial, sans-serif; font-size: 20px; fill: rgb(42, 63, 95); fill-opacity: 1; white-space: pre;"><tspan class="line" dy="0em" x="550" y="25">RSeQC: Read Duplication</tspan><tspan class="line" dy="1.3em" x="550" y="25"><tspan style="font-size:70%" dy="-0.6em">25 samples</tspan><tspan dy="0.42em"></tspan></tspan></text></g><g class="g-xtitle"><text class="xtitle" x="573" y="472.3" text-anchor="middle" style="opacity: 0.3; font-family: 'Lucida Grande', 'Open Sans', verdana, arial, sans-serif; font-size: 14px; fill: rgb(0, 0, 0); fill-opacity: 1; white-space: pre;">Occurrence of read</text></g><g class="g-ytitle"><text class="ytitle" transform="rotate(-90,22.146875,242.5)" x="22.146875" y="242.5" text-anchor="middle" style="opacity: 0.3; font-family: 'Lucida Grande', 'Open Sans', verdana, arial, sans-serif; font-size: 14px; fill: rgb(0, 0, 0); fill-opacity: 1; white-space: pre;">Number of Reads (log10)</text></g></g></svg>