<svg class="main-svg" xmlns="http://www.w3.org/2000/svg" xmlns:xlink="http://www.w3.org/1999/xlink" width="2200" height="1000" style="" viewBox="0 0 1100 500"><rect x="0" y="0" width="1100" height="500" style="fill: rgb(255, 255, 255); fill-opacity: 1;"/><defs id="defs-a1f016"><g class="clips"><clipPath id="clipa1f016xyplot" class="plotclip"><rect width="1006" height="385"/></clipPath><clipPath class="axesclip" id="clipa1f016x"><rect x="68" y="0" width="1006" height="500"/></clipPath><clipPath class="axesclip" id="clipa1f016y"><rect x="0" y="50" width="1100" height="385"/></clipPath><clipPath class="axesclip" id="clipa1f016xy"><rect x="68" y="50" width="1006" height="385"/></clipPath></g><g class="gradients"/><g class="patterns"/></defs><g class="bglayer"/><g class="layer-below"><g class="imagelayer"/><g class="shapelayer"/></g><g class="cartesianlayer"><g class="subplot xy"><g class="layer-subplot"><g class="shapelayer"/><g class="imagelayer"/></g><g class="minor-gridlayer"><g class="x"/><g class="y"/></g><g class="gridlayer"><g class="x"><path class="xgrid crisp" transform="translate(269.2,0)" d="M0,50v385" style="stroke: rgb(0, 0, 0); stroke-opacity: 0.05; stroke-width: 1px;"/><path class="xgrid crisp" transform="translate(470.4,0)" d="M0,50v385" style="stroke: rgb(0, 0, 0); stroke-opacity: 0.05; stroke-width: 1px;"/><path class="xgrid crisp" transform="translate(671.6,0)" d="M0,50v385" style="stroke: rgb(0, 0, 0); stroke-opacity: 0.05; stroke-width: 1px;"/><path class="xgrid crisp" transform="translate(872.8,0)" d="M0,50v385" style="stroke: rgb(0, 0, 0); stroke-opacity: 0.05; stroke-width: 1px;"/></g><g class="y"><path class="ygrid crisp" transform="translate(0,345.38)" d="M68,0h1006" style="stroke: rgb(0, 0, 0); stroke-opacity: 0.05; stroke-width: 1px;"/><path class="ygrid crisp" transform="translate(0,255.76)" d="M68,0h1006" style="stroke: rgb(0, 0, 0); stroke-opacity: 0.05; stroke-width: 1px;"/><path class="ygrid crisp" transform="translate(0,166.14)" d="M68,0h1006" style="stroke: rgb(0, 0, 0); stroke-opacity: 0.05; stroke-width: 1px;"/><path class="ygrid crisp" transform="translate(0,76.52)" d="M68,0h1006" style="stroke: rgb(0, 0, 0); stroke-opacity: 0.05; stroke-width: 1px;"/></g></g><g class="zerolinelayer"><path class="xzl zl crisp" transform="translate(68,0)" d="M0,50v385" style="stroke: rgb(0, 0, 0); stroke-opacity: 0.05; stroke-width: 2px;"/><path class="yzl zl crisp" transform="translate(0,435)" d="M68,0h1006" style="stroke: rgb(0, 0, 0); stroke-opacity: 0.05; stroke-width: 2px;"/></g><g class="layer-between"><g class="shapelayer"/><g class="imagelayer"/></g><path class="xlines-below"/><path class="ylines-below"/><g class="overlines-below"/><g class="xaxislayer-below"/><g class="yaxislayer-below"/><g class="overaxes-below"/><g class="overplot"><g class="xy" transform="translate(68,50)" clip-path="url(#clipa1f016xyplot)"><g class="scatterlayer mlayer"><g class="trace scatter trace84b2d3" style="stroke-miterlimit: 2; opacity: 1;"><g class="fills"/><g class="errorbars"/><g class="lines"><path class="js-line" d="M50.3,317.86L100.6,284.01L150.9,261.23L201.2,244.42L251.5,231.6L301.8,221.44L352.1,212.87L402.4,205.69L452.7,199.38L553.3,189.54L603.6,185.37L704.2,178.36L754.5,175.44L855.1,170.33L905.4,168.18L1006,164.52" style="vector-effect: none; fill: none; stroke: rgb(124, 181, 236); stroke-opacity: 1; stroke-width: 2px; opacity: 1;"/></g><g class="points"/><g class="text"/></g><g class="trace scatter tracebd4a3b" style="stroke-miterlimit: 2; opacity: 1;"><g class="fills"/><g class="errorbars"/><g class="lines"><path class="js-line" d="M50.3,364.08L100.6,349.21L150.9,336.97L201.2,326.75L251.5,318.23L301.8,310.5L352.1,303.77L402.4,297.63L452.7,292.28L553.3,283L603.6,279.11L704.2,272.18L754.5,269.18L855.1,264.05L905.4,261.7L1006,257.79" style="vector-effect: none; fill: none; stroke: rgb(67, 67, 72); stroke-opacity: 1; stroke-width: 2px; opacity: 1;"/></g><g class="points"/><g class="text"/></g><g class="trace scatter trace7c4f7b" style="stroke-miterlimit: 2; opacity: 1;"><g class="fills"/><g class="errorbars"/><g class="lines"><path class="js-line" d="M50.3,332.01L100.6,302.04L150.9,280.77L201.2,264.41L251.5,251.65L301.8,241.18L352.1,232.25L402.4,224.63L452.7,218.21L503,212.43L553.3,207.58L653.9,199.65L704.2,196.43L804.8,190.87L855.1,188.5L1006,183.04" style="vector-effect: none; fill: none; stroke: rgb(144, 237, 125); stroke-opacity: 1; stroke-width: 2px; opacity: 1;"/></g><g class="points"/><g class="text"/></g><g class="trace scatter trace90fce1" style="stroke-miterlimit: 2; opacity: 1;"><g class="fills"/><g class="errorbars"/><g class="lines"><path class="js-line" d="M50.3,299.08L100.6,258.24L150.9,232.05L201.2,213.72L251.5,199.58L301.8,188.6L352.1,179.35L402.4,171.48L452.7,165.06L553.3,154.55L603.6,150.4L704.2,143.26L754.5,140.16L855.1,135.21L905.4,133.21L1006,129.97" style="vector-effect: none; fill: none; stroke: rgb(247, 163, 92); stroke-opacity: 1; stroke-width: 2px; opacity: 1;"/></g><g class="points"/><g class="text"/></g><g class="trace scatter trace8b30b4" style="stroke-miterlimit: 2; opacity: 1;"><g class="fills"/><g class="errorbars"/><g class="lines"><path class="js-line" d="M50.3,281.1L100.6,238.92L150.9,213.95L201.2,196.38L251.5,183.8L301.8,173.66L352.1,165.49L402.4,158.7L452.7,152.76L503,147.66L553.3,143.34L704.2,132.94L754.5,130.25L905.4,123.79L955.7,122.05L1006,120.54" style="vector-effect: none; fill: none; stroke: rgb(128, 133, 233); stroke-opacity: 1; stroke-width: 2px; opacity: 1;"/></g><g class="points"/><g class="text"/></g><g class="trace scatter trace2e2efe" style="stroke-miterlimit: 2; opacity: 1;"><g class="fills"/><g class="errorbars"/><g class="lines"><path class="js-line" d="M50.3,264.05L100.6,221.02L150.9,196.76L201.2,180.26L251.5,168.03L301.8,158.55L352.1,150.7L402.4,144.13L452.7,138.52L553.3,129.36L603.6,125.53L704.2,118.98L754.5,116.1L855.1,111L905.4,108.76L1006,105.04" style="vector-effect: none; fill: none; stroke: rgb(241, 92, 128); stroke-opacity: 1; stroke-width: 2px; opacity: 1;"/></g><g class="points"/><g class="text"/></g><g class="trace scatter trace82821a" style="stroke-miterlimit: 2; opacity: 1;"><g class="fills"/><g class="errorbars"/><g class="lines"><path class="js-line" d="M50.3,321.96L100.6,288.59L150.9,265.68L201.2,248.14L251.5,234.64L301.8,223.67L352.1,214.64L402.4,207.23L452.7,200.75L553.3,190.14L603.6,185.69L704.2,178.32L754.5,175.13L855.1,169.83L905.4,167.59L1006,163.8" style="vector-effect: none; fill: none; stroke: rgb(228, 211, 84); stroke-opacity: 1; stroke-width: 2px; opacity: 1;"/></g><g class="points"/><g class="text"/></g><g class="trace scatter trace192d2e" style="stroke-miterlimit: 2; opacity: 1;"><g class="fills"/><g class="errorbars"/><g class="lines"><path class="js-line" d="M50.3,194.4L100.6,151.26L150.9,127.03L201.2,110.55L251.5,97.4L301.8,86.93L352.1,77.76L452.7,62.94L503,56.64L603.6,45.81L653.9,41.19L754.5,33.25L804.8,29.93L905.4,24.01L955.7,21.55L1006,19.25" style="vector-effect: none; fill: none; stroke: rgb(43, 144, 143); stroke-opacity: 1; stroke-width: 2px; opacity: 1;"/></g><g class="points"/><g class="text"/></g><g class="trace scatter trace3185fe" style="stroke-miterlimit: 2; opacity: 1;"><g class="fills"/><g class="errorbars"/><g class="lines"><path class="js-line" d="M50.3,266.61L100.6,221.37L150.9,194.28L201.2,176.13L251.5,162.38L301.8,151.51L352.1,142.47L402.4,135.16L452.7,128.72L553.3,118.34L603.6,114.04L704.2,106.76L754.5,103.64L855.1,98.17L905.4,96.01L1006,92.19" style="vector-effect: none; fill: none; stroke: rgb(244, 91, 91); stroke-opacity: 1; stroke-width: 2px; opacity: 1;"/></g><g class="points"/><g class="text"/></g><g class="trace scatter trace54ab2c" style="stroke-miterlimit: 2; opacity: 1;"><g class="fills"/><g class="errorbars"/><g class="lines"><path class="js-line" d="M50.3,307.97L100.6,271.33L150.9,247.43L201.2,230.24L251.5,216.62L301.8,206.02L352.1,197.2L402.4,189.88L452.7,183.53L503,177.91L553.3,173.08L653.9,164.78L704.2,161.31L804.8,155.38L855.1,153L1006,146.87" style="vector-effect: none; fill: none; stroke: rgb(145, 232, 225); stroke-opacity: 1; stroke-width: 2px; opacity: 1;"/></g><g class="points"/><g class="text"/></g><g class="trace scatter trace03c04d" style="stroke-miterlimit: 2; opacity: 1;"><g class="fills"/><g class="errorbars"/><g class="lines"><path class="js-line" d="M50.3,290.01L100.6,248.87L150.9,223.26L201.2,205.04L251.5,191.55L301.8,180.55L352.1,171.89L402.4,164.42L452.7,158.11L553.3,148.12L603.6,143.88L704.2,136.98L754.5,134.05L905.4,126.98L955.7,125.12L1006,123.41" style="vector-effect: none; fill: none; stroke: rgb(124, 181, 236); stroke-opacity: 1; stroke-width: 2px; opacity: 1;"/></g><g class="points"/><g class="text"/></g><g class="trace scatter trace4aafb2" style="stroke-miterlimit: 2; opacity: 1;"><g class="fills"/><g class="errorbars"/><g class="lines"><path class="js-line" d="M50.3,298.81L100.6,260.26L150.9,235.81L201.2,218.32L251.5,204.82L301.8,194.09L352.1,185.21L402.4,177.8L452.7,171.38L553.3,161.05L603.6,156.85L704.2,149.77L754.5,146.77L855.1,141.84L905.4,139.78L1006,136.35" style="vector-effect: none; fill: none; stroke: rgb(67, 67, 72); stroke-opacity: 1; stroke-width: 2px; opacity: 1;"/></g><g class="points"/><g class="text"/></g><g class="trace scatter tracea3791b" style="stroke-miterlimit: 2; opacity: 1;"><g class="fills"/><g class="errorbars"/><g class="lines"><path class="js-line" d="M50.3,250.37L100.6,207.05L150.9,182.01L201.2,164.89L251.5,152.19L301.8,141.79L352.1,133.23L402.4,125.96L452.7,119.89L553.3,109.35L603.6,105.05L704.2,97.77L754.5,94.8L855.1,89.63L905.4,87.53L1006,83.85" style="vector-effect: none; fill: none; stroke: rgb(144, 237, 125); stroke-opacity: 1; stroke-width: 2px; opacity: 1;"/></g><g class="points"/><g class="text"/></g><g class="trace scatter trace23c475" style="stroke-miterlimit: 2; opacity: 1;"><g class="fills"/><g class="errorbars"/><g class="lines"><path class="js-line" d="M50.3,326.02L100.6,294.67L150.9,273.36L201.2,257.11L251.5,244.06L301.8,233.77L352.1,225.14L402.4,217.74L452.7,211.27L553.3,200.89L603.6,196.46L704.2,189.28L754.5,186.16L855.1,180.9L905.4,178.69L1006,174.88" style="vector-effect: none; fill: none; stroke: rgb(247, 163, 92); stroke-opacity: 1; stroke-width: 2px; opacity: 1;"/></g><g class="points"/><g class="text"/></g><g class="trace scatter trace9b0979" style="stroke-miterlimit: 2; opacity: 1;"><g class="fills"/><g class="errorbars"/><g class="lines"><path class="js-line" d="M50.3,283.27L100.6,240.06L150.9,214.05L201.2,195.9L251.5,182.2L301.8,171.4L352.1,162.73L402.4,155.32L452.7,149.11L553.3,139.03L603.6,134.84L704.2,127.92L754.5,124.88L905.4,117.57L955.7,115.6L1006,113.83" style="vector-effect: none; fill: none; stroke: rgb(128, 133, 233); stroke-opacity: 1; stroke-width: 2px; opacity: 1;"/></g><g class="points"/><g class="text"/></g><g class="trace scatter trace8fc752" style="stroke-miterlimit: 2; opacity: 1;"><g class="fills"/><g class="errorbars"/><g class="lines"><path class="js-line" d="M50.3,335.85L100.6,307.62L150.9,287.5L201.2,272.26L251.5,260.19L301.8,250.29L352.1,241.76L402.4,234.69L452.7,228.66L553.3,218.4L603.6,214.15L704.2,207.28L754.5,204.42L855.1,199.47L905.4,197.38L1006,193.99" style="vector-effect: none; fill: none; stroke: rgb(241, 92, 128); stroke-opacity: 1; stroke-width: 2px; opacity: 1;"/></g><g class="points"/><g class="text"/></g><g class="trace scatter traceca3c71" style="stroke-miterlimit: 2; opacity: 1;"><g class="fills"/><g class="errorbars"/><g class="lines"><path class="js-line" d="M50.3,287.27L100.6,244.37L150.9,218.01L201.2,199.83L251.5,186.21L301.8,175.31L352.1,166.62L402.4,159.31L452.7,153.12L503,147.71L553.3,143.11L653.9,135.36L704.2,132.14L804.8,126.71L855.1,124.47L1006,118.97" style="vector-effect: none; fill: none; stroke: rgb(228, 211, 84); stroke-opacity: 1; stroke-width: 2px; opacity: 1;"/></g><g class="points"/><g class="text"/></g><g class="trace scatter traceb6e80b" style="stroke-miterlimit: 2; opacity: 1;"><g class="fills"/><g class="errorbars"/><g class="lines"><path class="js-line" d="M50.3,256.01L100.6,211.55L150.9,186.03L201.2,169.02L251.5,156.41L301.8,146.41L352.1,138.01L402.4,131.16L452.7,125.07L553.3,115.49L603.6,111.48L704.2,104.74L754.5,101.72L905.4,94.61L955.7,92.78L1006,91.17" style="vector-effect: none; fill: none; stroke: rgb(43, 144, 143); stroke-opacity: 1; stroke-width: 2px; opacity: 1;"/></g><g class="points"/><g class="text"/></g><g class="trace scatter tracef6d22a" style="stroke-miterlimit: 2; opacity: 1;"><g class="fills"/><g class="errorbars"/><g class="lines"><path class="js-line" d="M50.3,280.39L100.6,238.93L150.9,213.81L201.2,196.31L251.5,183.45L301.8,173.19L352.1,164.56L402.4,157.56L452.7,151.62L553.3,141.94L603.6,137.94L704.2,131.25L754.5,128.33L905.4,121.22L955.7,119.3L1006,117.63" style="vector-effect: none; fill: none; stroke: rgb(244, 91, 91); stroke-opacity: 1; stroke-width: 2px; opacity: 1;"/></g><g class="points"/><g class="text"/></g><g class="trace scatter trace809a90" style="stroke-miterlimit: 2; opacity: 1;"><g class="fills"/><g class="errorbars"/><g class="lines"><path class="js-line" d="M50.3,303.27L100.6,265.85L150.9,242.08L201.2,224.9L251.5,211.52L301.8,200.82L352.1,192.07L402.4,184.48L452.7,178.22L553.3,167.83L603.6,163.52L704.2,156.17L754.5,153.15L905.4,145.67L955.7,143.63L1006,141.81" style="vector-effect: none; fill: none; stroke: rgb(145, 232, 225); stroke-opacity: 1; stroke-width: 2px; opacity: 1;"/></g><g class="points"/><g class="text"/></g><g class="trace scatter trace961ce2" style="stroke-miterlimit: 2; opacity: 1;"><g class="fills"/><g class="errorbars"/><g class="lines"><path class="js-line" d="M50.3,298.1L100.6,258.34L150.9,232.66L201.2,214.53L251.5,200.41L301.8,189.49L352.1,180.36L402.4,172.66L452.7,166.35L553.3,156.19L603.6,151.98L704.2,145.02L754.5,142.25L855.1,137.36L905.4,135.42L1006,132.16" style="vector-effect: none; fill: none; stroke: rgb(124, 181, 236); stroke-opacity: 1; stroke-width: 2px; opacity: 1;"/></g><g class="points"/><g class="text"/></g><g class="trace scatter tracee62a2e" style="stroke-miterlimit: 2; opacity: 1;"><g class="fills"/><g class="errorbars"/><g class="lines"><path class="js-line" d="M50.3,341.39L100.6,315.94L150.9,297.45L201.2,282.83L251.5,271.11L301.8,261.36L352.1,253.15L402.4,245.95L452.7,239.65L553.3,229.3L603.6,225.02L704.2,217.78L754.5,214.75L855.1,209.85L905.4,207.78L1006,204.28" style="vector-effect: none; fill: none; stroke: rgb(67, 67, 72); stroke-opacity: 1; stroke-width: 2px; opacity: 1;"/></g><g class="points"/><g class="text"/></g><g class="trace scatter tracec9b40d" style="stroke-miterlimit: 2; opacity: 1;"><g class="fills"/><g class="errorbars"/><g class="lines"><path class="js-line" d="M50.3,220.87L100.6,174.98L150.9,147.88L201.2,128.85L251.5,114.19L301.8,102.25L352.1,92.28L402.4,83.76L452.7,76.18L553.3,63.55L603.6,58.22L704.2,49.13L754.5,45.2L855.1,38.72L905.4,35.94L1006,31.37" style="vector-effect: none; fill: none; stroke: rgb(144, 237, 125); stroke-opacity: 1; stroke-width: 2px; opacity: 1;"/></g><g class="points"/><g class="text"/></g><g class="trace scatter trace87e349" style="stroke-miterlimit: 2; opacity: 1;"><g class="fills"/><g class="errorbars"/><g class="lines"><path class="js-line" d="M50.3,333.72L100.6,305.15L150.9,284.92L201.2,269.7L251.5,257.68L301.8,247.6L352.1,239.3L402.4,231.95L452.7,225.79L553.3,215.72L603.6,211.48L704.2,204.43L754.5,201.48L855.1,196.51L905.4,194.37L1006,190.76" style="vector-effect: none; fill: none; stroke: rgb(247, 163, 92); stroke-opacity: 1; stroke-width: 2px; opacity: 1;"/></g><g class="points"/><g class="text"/></g><g class="trace scatter traceb4e270" style="stroke-miterlimit: 2; opacity: 1;"><g class="fills"/><g class="errorbars"/><g class="lines"><path class="js-line" d="M50.3,267.62L100.6,224.49L150.9,199.7L201.2,182.48L251.5,169.92L301.8,159.94L352.1,152.12L402.4,145.47L452.7,139.72L553.3,130.4L603.6,126.51L704.2,119.98L754.5,117.32L855.1,112.66L905.4,110.79L1006,107.7" style="vector-effect: none; fill: none; stroke: rgb(128, 133, 233); stroke-opacity: 1; stroke-width: 2px; opacity: 1;"/></g><g class="points"/><g class="text"/></g></g></g></g><path class="xlines-above crisp" d="M0,0" style="fill: none;"/><path class="ylines-above crisp" d="M0,0" style="fill: none;"/><g class="overlines-above"/><g class="xaxislayer-above"><g class="xtick"><text text-anchor="middle" x="0" y="451" transform="translate(68,0)" style="font-family: 'Lucida Grande', 'Open Sans', verdana, arial, sans-serif; font-size: 10px; fill: rgb(0, 0, 0); fill-opacity: 1; white-space: pre; opacity: 1;">0%</text></g><g class="xtick"><text text-anchor="middle" x="0" y="451" style="font-family: 'Lucida Grande', 'Open Sans', verdana, arial, sans-serif; font-size: 10px; fill: rgb(0, 0, 0); fill-opacity: 1; white-space: pre; opacity: 1;" transform="translate(269.2,0)">20%</text></g><g class="xtick"><text text-anchor="middle" x="0" y="451" style="font-family: 'Lucida Grande', 'Open Sans', verdana, arial, sans-serif; font-size: 10px; fill: rgb(0, 0, 0); fill-opacity: 1; white-space: pre; opacity: 1;" transform="translate(470.4,0)">40%</text></g><g class="xtick"><text text-anchor="middle" x="0" y="451" style="font-family: 'Lucida Grande', 'Open Sans', verdana, arial, sans-serif; font-size: 10px; fill: rgb(0, 0, 0); fill-opacity: 1; white-space: pre; opacity: 1;" transform="translate(671.6,0)">60%</text></g><g class="xtick"><text text-anchor="middle" x="0" y="451" style="font-family: 'Lucida Grande', 'Open Sans', verdana, arial, sans-serif; font-size: 10px; fill: rgb(0, 0, 0); fill-opacity: 1; white-space: pre; opacity: 1;" transform="translate(872.8,0)">80%</text></g><g class="xtick"><text text-anchor="middle" x="0" y="451" style="font-family: 'Lucida Grande', 'Open Sans', verdana, arial, sans-serif; font-size: 10px; fill: rgb(0, 0, 0); fill-opacity: 1; white-space: pre; opacity: 1;" transform="translate(1074,0)">100%</text></g></g><g class="yaxislayer-above"><g class="ytick"><text text-anchor="end" x="62" y="3.5" transform="translate(0,435)" style="font-family: 'Lucida Grande', 'Open Sans', verdana, arial, sans-serif; font-size: 10px; fill: rgb(0, 0, 0); fill-opacity: 1; white-space: pre; opacity: 1;">0</text></g><g class="ytick"><text text-anchor="end" x="62" y="3.5" style="font-family: 'Lucida Grande', 'Open Sans', verdana, arial, sans-serif; font-size: 10px; fill: rgb(0, 0, 0); fill-opacity: 1; white-space: pre; opacity: 1;" transform="translate(0,345.38)">50k</text></g><g class="ytick"><text text-anchor="end" x="62" y="3.5" style="font-family: 'Lucida Grande', 'Open Sans', verdana, arial, sans-serif; font-size: 10px; fill: rgb(0, 0, 0); fill-opacity: 1; white-space: pre; opacity: 1;" transform="translate(0,255.76)">100k</text></g><g class="ytick"><text text-anchor="end" x="62" y="3.5" style="font-family: 'Lucida Grande', 'Open Sans', verdana, arial, sans-serif; font-size: 10px; fill: rgb(0, 0, 0); fill-opacity: 1; white-space: pre; opacity: 1;" transform="translate(0,166.14)">150k</text></g><g class="ytick"><text text-anchor="end" x="62" y="3.5" style="font-family: 'Lucida Grande', 'Open Sans', verdana, arial, sans-serif; font-size: 10px; fill: rgb(0, 0, 0); fill-opacity: 1; white-space: pre; opacity: 1;" transform="translate(0,76.52)">200k</text></g></g><g class="overaxes-above"/></g></g><g class="polarlayer"/><g class="smithlayer"/><g class="ternarylayer"/><g class="geolayer"/><g class="funnelarealayer"/><g class="pielayer"/><g class="iciclelayer"/><g class="treemaplayer"/><g class="sunburstlayer"/><g class="glimages"/><defs id="topdefs-a1f016"><g class="clips"/></defs><g class="layer-above"><g class="imagelayer"/><g class="shapelayer"/></g><g class="infolayer"><g class="g-gtitle"><text class="gtitle" x="550" y="25" text-anchor="middle" dy="0em" style="opacity: 1; font-family: 'Lucida Grande', 'Open Sans', verdana, arial, sans-serif; font-size: 20px; fill: rgb(42, 63, 95); fill-opacity: 1; white-space: pre;"><tspan class="line" dy="0em" x="550" y="25">RSeQC: Junction Saturation</tspan><tspan class="line" dy="1.3em" x="550" y="25">​<tspan style="font-size:70%" dy="-0.6em">All Junctions, 25 samples</tspan><tspan dy="0.42em">​</tspan></tspan></text></g><g class="g-xtitle"><text class="xtitle" x="571" y="472.3" text-anchor="middle" style="opacity: 0.3; font-family: 'Lucida Grande', 'Open Sans', verdana, arial, sans-serif; font-size: 14px; fill: rgb(0, 0, 0); fill-opacity: 1; white-space: pre;">Percent of reads</text></g><g class="g-ytitle"><text class="ytitle" transform="rotate(-90,22.709375,242.5)" x="22.709375" y="242.5" text-anchor="middle" style="opacity: 0.3; font-family: 'Lucida Grande', 'Open Sans', verdana, arial, sans-serif; font-size: 14px; fill: rgb(0, 0, 0); fill-opacity: 1; white-space: pre;">Number of Junctions</text></g></g></svg>