<svg class="main-svg" xmlns="http://www.w3.org/2000/svg" xmlns:xlink="http://www.w3.org/1999/xlink" width="2200" height="1010" style="" viewBox="0 0 1100 505"><rect x="0" y="0" width="1100" height="505" style="fill: rgb(255, 255, 255); fill-opacity: 1;"/><defs id="defs-2f5d4f"><g class="clips"><clipPath id="clip2f5d4fxyplot" class="plotclip"><rect width="1021" height="390"/></clipPath><clipPath class="axesclip" id="clip2f5d4fx"><rect x="64" y="0" width="1021" height="505"/></clipPath><clipPath class="axesclip" id="clip2f5d4fy"><rect x="0" y="50" width="1100" height="390"/></clipPath><clipPath class="axesclip" id="clip2f5d4fxy"><rect x="64" y="50" width="1021" height="390"/></clipPath></g><g class="gradients"/><g class="patterns"/></defs><g class="bglayer"/><g class="layer-below"><g class="imagelayer"/><g class="shapelayer"/></g><g class="cartesianlayer"><g class="subplot xy"><g class="layer-subplot"><g class="shapelayer"/><g class="imagelayer"/></g><g class="minor-gridlayer"><g class="x"/><g class="y"/></g><g class="gridlayer"><g class="x"><path class="xgrid crisp" transform="translate(85.55,0)" d="M0,50v390" style="stroke: rgb(0, 0, 0); stroke-opacity: 0.05; stroke-width: 1px;"/><path class="xgrid crisp" transform="translate(194.02,0)" d="M0,50v390" style="stroke: rgb(0, 0, 0); stroke-opacity: 0.05; stroke-width: 1px;"/><path class="xgrid crisp" transform="translate(302.48,0)" d="M0,50v390" style="stroke: rgb(0, 0, 0); stroke-opacity: 0.05; stroke-width: 1px;"/><path class="xgrid crisp" transform="translate(410.95,0)" d="M0,50v390" style="stroke: rgb(0, 0, 0); stroke-opacity: 0.05; stroke-width: 1px;"/><path class="xgrid crisp" transform="translate(627.88,0)" d="M0,50v390" style="stroke: rgb(0, 0, 0); stroke-opacity: 0.05; stroke-width: 1px;"/><path class="xgrid crisp" transform="translate(736.34,0)" d="M0,50v390" style="stroke: rgb(0, 0, 0); stroke-opacity: 0.05; stroke-width: 1px;"/><path class="xgrid crisp" transform="translate(844.81,0)" d="M0,50v390" style="stroke: rgb(0, 0, 0); stroke-opacity: 0.05; stroke-width: 1px;"/><path class="xgrid crisp" transform="translate(953.28,0)" d="M0,50v390" style="stroke: rgb(0, 0, 0); stroke-opacity: 0.05; stroke-width: 1px;"/><path class="xgrid crisp" transform="translate(1061.74,0)" d="M0,50v390" style="stroke: rgb(0, 0, 0); stroke-opacity: 0.05; stroke-width: 1px;"/></g><g class="y"><path class="ygrid crisp" transform="translate(0,380.7)" d="M64,0h1021" style="stroke: rgb(0, 0, 0); stroke-opacity: 0.05; stroke-width: 1px;"/><path class="ygrid crisp" transform="translate(0,317.47)" d="M64,0h1021" style="stroke: rgb(0, 0, 0); stroke-opacity: 0.05; stroke-width: 1px;"/><path class="ygrid crisp" transform="translate(0,191.01)" d="M64,0h1021" style="stroke: rgb(0, 0, 0); stroke-opacity: 0.05; stroke-width: 1px;"/><path class="ygrid crisp" transform="translate(0,127.79)" d="M64,0h1021" style="stroke: rgb(0, 0, 0); stroke-opacity: 0.05; stroke-width: 1px;"/><path class="ygrid crisp" transform="translate(0,64.56)" d="M64,0h1021" style="stroke: rgb(0, 0, 0); stroke-opacity: 0.05; stroke-width: 1px;"/></g></g><g class="zerolinelayer"><path class="xzl zl crisp" transform="translate(519.4100000000001,0)" d="M0,50v390" style="stroke: rgb(0, 0, 0); stroke-opacity: 0.05; stroke-width: 2px;"/><path class="yzl zl crisp" transform="translate(0,254.24)" d="M64,0h1021" style="stroke: rgb(0, 0, 0); stroke-opacity: 0.05; stroke-width: 2px;"/></g><g class="layer-between"><g class="shapelayer"/><g class="imagelayer"/></g><path class="xlines-below"/><path class="ylines-below"/><g class="overlines-below"/><g class="xaxislayer-below"/><g class="yaxislayer-below"/><g class="overaxes-below"/><g class="overplot"><g class="xy" transform="translate(64,50)" clip-path="url(#clip2f5d4fxyplot)"><g class="scatterlayer mlayer"><g class="trace scatter trace12985d" style="stroke-miterlimit: 2; opacity: 1;"><g class="fills"/><g class="errorbars"/><g class="lines"/><g class="points"><path class="point" transform="translate(57.3,166.44)" d="M5,0A5,5 0 1,1 0,-5A5,5 0 0,1 5,0Z" style="opacity: 1; stroke-width: 1px; fill: rgb(124, 181, 236); fill-opacity: 0.5; stroke: rgb(0, 0, 0); stroke-opacity: 0.2;"/></g><g class="text"><g class="textpoint" transform="translate(0,2)"><text x="57.3" y="166.44" text-anchor="middle" style="font-family: 'Lucida Grande', 'Open Sans', verdana, arial, sans-serif; font-size: 8px; fill: rgb(42, 63, 95); fill-opacity: 1; white-space: pre;">LIF_1hr_2</text></g></g></g><g class="trace scatter tracee62954" style="stroke-miterlimit: 2; opacity: 1;"><g class="fills"/><g class="errorbars"/><g class="lines"/><g class="points"><path class="point" transform="translate(123.32,158.03)" d="M5,0A5,5 0 1,1 0,-5A5,5 0 0,1 5,0Z" style="opacity: 1; stroke-width: 1px; fill: rgb(124, 181, 236); fill-opacity: 0.5; stroke: rgb(0, 0, 0); stroke-opacity: 0.2;"/></g><g class="text"><g class="textpoint" transform="translate(0,2)"><text x="123.32" y="158.03" text-anchor="middle" style="font-family: 'Lucida Grande', 'Open Sans', verdana, arial, sans-serif; font-size: 8px; fill: rgb(42, 63, 95); fill-opacity: 1; white-space: pre;">CONTROL_0hr_1</text></g></g></g><g class="trace scatter trace70de29" style="stroke-miterlimit: 2; opacity: 1;"><g class="fills"/><g class="errorbars"/><g class="lines"><path class="js-line" d="M201.96,153.76" style="vector-effect: none; fill: none; stroke: rgb(124, 181, 236); stroke-opacity: 0.5; stroke-width: 2px; opacity: 1;"/></g><g class="points"><path class="point" transform="translate(201.96,153.76)" d="M5,0A5,5 0 1,1 0,-5A5,5 0 0,1 5,0Z" style="opacity: 1; stroke-width: 1px; fill: rgb(124, 181, 236); fill-opacity: 0.5; stroke: rgb(0, 0, 0); stroke-opacity: 0.2;"/></g><g class="text"/></g><g class="trace scatter trace56756e" style="stroke-miterlimit: 2; opacity: 1;"><g class="fills"/><g class="errorbars"/><g class="lines"><path class="js-line" d="M240.67,183.25" style="vector-effect: none; fill: none; stroke: rgb(124, 181, 236); stroke-opacity: 0.5; stroke-width: 2px; opacity: 1;"/></g><g class="points"><path class="point" transform="translate(240.67,183.25)" d="M5,0A5,5 0 1,1 0,-5A5,5 0 0,1 5,0Z" style="opacity: 1; stroke-width: 1px; fill: rgb(124, 181, 236); fill-opacity: 0.5; stroke: rgb(0, 0, 0); stroke-opacity: 0.2;"/></g><g class="text"/></g><g class="trace scatter trace750012" style="stroke-miterlimit: 2; opacity: 1;"><g class="fills"/><g class="errorbars"/><g class="lines"><path class="js-line" d="M253.4,127.15" style="vector-effect: none; fill: none; stroke: rgb(124, 181, 236); stroke-opacity: 0.5; stroke-width: 2px; opacity: 1;"/></g><g class="points"><path class="point" transform="translate(253.4,127.15)" d="M5,0A5,5 0 1,1 0,-5A5,5 0 0,1 5,0Z" style="opacity: 1; stroke-width: 1px; fill: rgb(124, 181, 236); fill-opacity: 0.5; stroke: rgb(0, 0, 0); stroke-opacity: 0.2;"/></g><g class="text"/></g><g class="trace scatter trace41eadc" style="stroke-miterlimit: 2; opacity: 1;"><g class="fills"/><g class="errorbars"/><g class="lines"><path class="js-line" d="M268.37,194.27" style="vector-effect: none; fill: none; stroke: rgb(124, 181, 236); stroke-opacity: 0.5; stroke-width: 2px; opacity: 1;"/></g><g class="points"><path class="point" transform="translate(268.37,194.27)" d="M5,0A5,5 0 1,1 0,-5A5,5 0 0,1 5,0Z" style="opacity: 1; stroke-width: 1px; fill: rgb(124, 181, 236); fill-opacity: 0.5; stroke: rgb(0, 0, 0); stroke-opacity: 0.2;"/></g><g class="text"/></g><g class="trace scatter tracede0d9d" style="stroke-miterlimit: 2; opacity: 1;"><g class="fills"/><g class="errorbars"/><g class="lines"/><g class="points"><path class="point" transform="translate(287.16,63.78)" d="M5,0A5,5 0 1,1 0,-5A5,5 0 0,1 5,0Z" style="opacity: 1; stroke-width: 1px; fill: rgb(124, 181, 236); fill-opacity: 0.5; stroke: rgb(0, 0, 0); stroke-opacity: 0.2;"/></g><g class="text"><g class="textpoint" transform="translate(0,2)"><text x="287.16" y="63.78" text-anchor="middle" style="font-family: 'Lucida Grande', 'Open Sans', verdana, arial, sans-serif; font-size: 8px; fill: rgb(42, 63, 95); fill-opacity: 1; white-space: pre;">CONTROL_0hr_2</text></g></g></g><g class="trace scatter tracebc9601" style="stroke-miterlimit: 2; opacity: 1;"><g class="fills"/><g class="errorbars"/><g class="lines"><path class="js-line" d="M327.76,176.24" style="vector-effect: none; fill: none; stroke: rgb(124, 181, 236); stroke-opacity: 0.5; stroke-width: 2px; opacity: 1;"/></g><g class="points"><path class="point" transform="translate(327.76,176.24)" d="M5,0A5,5 0 1,1 0,-5A5,5 0 0,1 5,0Z" style="opacity: 1; stroke-width: 1px; fill: rgb(124, 181, 236); fill-opacity: 0.5; stroke: rgb(0, 0, 0); stroke-opacity: 0.2;"/></g><g class="text"/></g><g class="trace scatter trace1c3ffa" style="stroke-miterlimit: 2; opacity: 1;"><g class="fills"/><g class="errorbars"/><g class="lines"><path class="js-line" d="M336.69,310.7" style="vector-effect: none; fill: none; stroke: rgb(124, 181, 236); stroke-opacity: 0.5; stroke-width: 2px; opacity: 1;"/></g><g class="points"><path class="point" transform="translate(336.69,310.7)" d="M5,0A5,5 0 1,1 0,-5A5,5 0 0,1 5,0Z" style="opacity: 1; stroke-width: 1px; fill: rgb(124, 181, 236); fill-opacity: 0.5; stroke: rgb(0, 0, 0); stroke-opacity: 0.2;"/></g><g class="text"/></g><g class="trace scatter traceaa338b" style="stroke-miterlimit: 2; opacity: 1;"><g class="fills"/><g class="errorbars"/><g class="lines"><path class="js-line" d="M359.1,317.92" style="vector-effect: none; fill: none; stroke: rgb(124, 181, 236); stroke-opacity: 0.5; stroke-width: 2px; opacity: 1;"/></g><g class="points"><path class="point" transform="translate(359.1,317.92)" d="M5,0A5,5 0 1,1 0,-5A5,5 0 0,1 5,0Z" style="opacity: 1; stroke-width: 1px; fill: rgb(124, 181, 236); fill-opacity: 0.5; stroke: rgb(0, 0, 0); stroke-opacity: 0.2;"/></g><g class="text"/></g><g class="trace scatter tracec1ca05" style="stroke-miterlimit: 2; opacity: 1;"><g class="fills"/><g class="errorbars"/><g class="lines"><path class="js-line" d="M374.11,255.89" style="vector-effect: none; fill: none; stroke: rgb(124, 181, 236); stroke-opacity: 0.5; stroke-width: 2px; opacity: 1;"/></g><g class="points"><path class="point" transform="translate(374.11,255.89)" d="M5,0A5,5 0 1,1 0,-5A5,5 0 0,1 5,0Z" style="opacity: 1; stroke-width: 1px; fill: rgb(124, 181, 236); fill-opacity: 0.5; stroke: rgb(0, 0, 0); stroke-opacity: 0.2;"/></g><g class="text"/></g><g class="trace scatter trace064f34" style="stroke-miterlimit: 2; opacity: 1;"><g class="fills"/><g class="errorbars"/><g class="lines"><path class="js-line" d="M397.14,340.1" style="vector-effect: none; fill: none; stroke: rgb(124, 181, 236); stroke-opacity: 0.5; stroke-width: 2px; opacity: 1;"/></g><g class="points"><path class="point" transform="translate(397.14,340.1)" d="M5,0A5,5 0 1,1 0,-5A5,5 0 0,1 5,0Z" style="opacity: 1; stroke-width: 1px; fill: rgb(124, 181, 236); fill-opacity: 0.5; stroke: rgb(0, 0, 0); stroke-opacity: 0.2;"/></g><g class="text"/></g><g class="trace scatter tracee57cc9" style="stroke-miterlimit: 2; opacity: 1;"><g class="fills"/><g class="errorbars"/><g class="lines"><path class="js-line" d="M400.49,82.58" style="vector-effect: none; fill: none; stroke: rgb(124, 181, 236); stroke-opacity: 0.5; stroke-width: 2px; opacity: 1;"/></g><g class="points"><path class="point" transform="translate(400.49,82.58)" d="M5,0A5,5 0 1,1 0,-5A5,5 0 0,1 5,0Z" style="opacity: 1; stroke-width: 1px; fill: rgb(124, 181, 236); fill-opacity: 0.5; stroke: rgb(0, 0, 0); stroke-opacity: 0.2;"/></g><g class="text"/></g><g class="trace scatter trace505992" style="stroke-miterlimit: 2; opacity: 1;"><g class="fills"/><g class="errorbars"/><g class="lines"><path class="js-line" d="M407.94,284.21" style="vector-effect: none; fill: none; stroke: rgb(124, 181, 236); stroke-opacity: 0.5; stroke-width: 2px; opacity: 1;"/></g><g class="points"><path class="point" transform="translate(407.94,284.21)" d="M5,0A5,5 0 1,1 0,-5A5,5 0 0,1 5,0Z" style="opacity: 1; stroke-width: 1px; fill: rgb(124, 181, 236); fill-opacity: 0.5; stroke: rgb(0, 0, 0); stroke-opacity: 0.2;"/></g><g class="text"/></g><g class="trace scatter trace5a0ca1" style="stroke-miterlimit: 2; opacity: 1;"><g class="fills"/><g class="errorbars"/><g class="lines"/><g class="points"><path class="point" transform="translate(468.32,364.25)" d="M5,0A5,5 0 1,1 0,-5A5,5 0 0,1 5,0Z" style="opacity: 1; stroke-width: 1px; fill: rgb(124, 181, 236); fill-opacity: 0.5; stroke: rgb(0, 0, 0); stroke-opacity: 0.2;"/></g><g class="text"><g class="textpoint" transform="translate(0,2)"><text x="468.32" y="364.25" text-anchor="middle" style="font-family: 'Lucida Grande', 'Open Sans', verdana, arial, sans-serif; font-size: 8px; fill: rgb(42, 63, 95); fill-opacity: 1; white-space: pre;">LIF_24hr_1</text></g></g></g><g class="trace scatter trace275a74" style="stroke-miterlimit: 2; opacity: 1;"><g class="fills"/><g class="errorbars"/><g class="lines"/><g class="points"><path class="point" transform="translate(532.03,41.9)" d="M5,0A5,5 0 1,1 0,-5A5,5 0 0,1 5,0Z" style="opacity: 1; stroke-width: 1px; fill: rgb(124, 181, 236); fill-opacity: 0.5; stroke: rgb(0, 0, 0); stroke-opacity: 0.2;"/></g><g class="text"><g class="textpoint" transform="translate(0,2)"><text x="532.03" y="41.9" text-anchor="middle" style="font-family: 'Lucida Grande', 'Open Sans', verdana, arial, sans-serif; font-size: 8px; fill: rgb(42, 63, 95); fill-opacity: 1; white-space: pre;">LIF_1hr_3</text></g></g></g><g class="trace scatter trace85be3a" style="stroke-miterlimit: 2; opacity: 1;"><g class="fills"/><g class="errorbars"/><g class="lines"><path class="js-line" d="M533.49,307.92" style="vector-effect: none; fill: none; stroke: rgb(124, 181, 236); stroke-opacity: 0.5; stroke-width: 2px; opacity: 1;"/></g><g class="points"><path class="point" transform="translate(533.49,307.92)" d="M5,0A5,5 0 1,1 0,-5A5,5 0 0,1 5,0Z" style="opacity: 1; stroke-width: 1px; fill: rgb(124, 181, 236); fill-opacity: 0.5; stroke: rgb(0, 0, 0); stroke-opacity: 0.2;"/></g><g class="text"/></g><g class="trace scatter tracefbcbd1" style="stroke-miterlimit: 2; opacity: 1;"><g class="fills"/><g class="errorbars"/><g class="lines"><path class="js-line" d="M537.28,325.89" style="vector-effect: none; fill: none; stroke: rgb(124, 181, 236); stroke-opacity: 0.5; stroke-width: 2px; opacity: 1;"/></g><g class="points"><path class="point" transform="translate(537.28,325.89)" d="M5,0A5,5 0 1,1 0,-5A5,5 0 0,1 5,0Z" style="opacity: 1; stroke-width: 1px; fill: rgb(124, 181, 236); fill-opacity: 0.5; stroke: rgb(0, 0, 0); stroke-opacity: 0.2;"/></g><g class="text"/></g><g class="trace scatter trace397d8b" style="stroke-miterlimit: 2; opacity: 1;"><g class="fills"/><g class="errorbars"/><g class="lines"/><g class="points"><path class="point" transform="translate(571.84,25.75)" d="M5,0A5,5 0 1,1 0,-5A5,5 0 0,1 5,0Z" style="opacity: 1; stroke-width: 1px; fill: rgb(124, 181, 236); fill-opacity: 0.5; stroke: rgb(0, 0, 0); stroke-opacity: 0.2;"/></g><g class="text"><g class="textpoint" transform="translate(0,2)"><text x="571.84" y="25.75" text-anchor="middle" style="font-family: 'Lucida Grande', 'Open Sans', verdana, arial, sans-serif; font-size: 8px; fill: rgb(42, 63, 95); fill-opacity: 1; white-space: pre;">CONTROL_0hr_4</text></g></g></g><g class="trace scatter trace8ddd04" style="stroke-miterlimit: 2; opacity: 1;"><g class="fills"/><g class="errorbars"/><g class="lines"/><g class="points"><path class="point" transform="translate(640.45,344.66)" d="M5,0A5,5 0 1,1 0,-5A5,5 0 0,1 5,0Z" style="opacity: 1; stroke-width: 1px; fill: rgb(124, 181, 236); fill-opacity: 0.5; stroke: rgb(0, 0, 0); stroke-opacity: 0.2;"/></g><g class="text"><g class="textpoint" transform="translate(0,2)"><text x="640.45" y="344.66" text-anchor="middle" style="font-family: 'Lucida Grande', 'Open Sans', verdana, arial, sans-serif; font-size: 8px; fill: rgb(42, 63, 95); fill-opacity: 1; white-space: pre;">LIF_24hr_4</text></g></g></g><g class="trace scatter traced32766" style="stroke-miterlimit: 2; opacity: 1;"><g class="fills"/><g class="errorbars"/><g class="lines"><path class="js-line" d="M723.97,222.53" style="vector-effect: none; fill: none; stroke: rgb(124, 181, 236); stroke-opacity: 0.5; stroke-width: 2px; opacity: 1;"/></g><g class="points"><path class="point" transform="translate(723.97,222.53)" d="M5,0A5,5 0 1,1 0,-5A5,5 0 0,1 5,0Z" style="opacity: 1; stroke-width: 1px; fill: rgb(124, 181, 236); fill-opacity: 0.5; stroke: rgb(0, 0, 0); stroke-opacity: 0.2;"/></g><g class="text"/></g><g class="trace scatter tracef2b622" style="stroke-miterlimit: 2; opacity: 1;"><g class="fills"/><g class="errorbars"/><g class="lines"><path class="js-line" d="M764.83,192.94" style="vector-effect: none; fill: none; stroke: rgb(124, 181, 236); stroke-opacity: 0.5; stroke-width: 2px; opacity: 1;"/></g><g class="points"><path class="point" transform="translate(764.83,192.94)" d="M5,0A5,5 0 1,1 0,-5A5,5 0 0,1 5,0Z" style="opacity: 1; stroke-width: 1px; fill: rgb(124, 181, 236); fill-opacity: 0.5; stroke: rgb(0, 0, 0); stroke-opacity: 0.2;"/></g><g class="text"/></g><g class="trace scatter trace542b76" style="stroke-miterlimit: 2; opacity: 1;"><g class="fills"/><g class="errorbars"/><g class="lines"/><g class="points"><path class="point" transform="translate(785.33,227.31)" d="M5,0A5,5 0 1,1 0,-5A5,5 0 0,1 5,0Z" style="opacity: 1; stroke-width: 1px; fill: rgb(124, 181, 236); fill-opacity: 0.5; stroke: rgb(0, 0, 0); stroke-opacity: 0.2;"/></g><g class="text"><g class="textpoint" transform="translate(0,2)"><text x="785.33" y="227.31" text-anchor="middle" style="font-family: 'Lucida Grande', 'Open Sans', verdana, arial, sans-serif; font-size: 8px; fill: rgb(42, 63, 95); fill-opacity: 1; white-space: pre;">CONTROL_1hr_4</text></g></g></g><g class="trace scatter tracec85fa5" style="stroke-miterlimit: 2; opacity: 1;"><g class="fills"/><g class="errorbars"/><g class="lines"/><g class="points"><path class="point" transform="translate(828.7,167.65)" d="M5,0A5,5 0 1,1 0,-5A5,5 0 0,1 5,0Z" style="opacity: 1; stroke-width: 1px; fill: rgb(124, 181, 236); fill-opacity: 0.5; stroke: rgb(0, 0, 0); stroke-opacity: 0.2;"/></g><g class="text"><g class="textpoint" transform="translate(0,2)"><text x="828.7" y="167.65" text-anchor="middle" style="font-family: 'Lucida Grande', 'Open Sans', verdana, arial, sans-serif; font-size: 8px; fill: rgb(42, 63, 95); fill-opacity: 1; white-space: pre;">control_1hr_3</text></g></g></g><g class="trace scatter traceb82441" style="stroke-miterlimit: 2; opacity: 1;"><g class="fills"/><g class="errorbars"/><g class="lines"/><g class="points"><path class="point" transform="translate(963.7,70.91)" d="M5,0A5,5 0 1,1 0,-5A5,5 0 0,1 5,0Z" style="opacity: 1; stroke-width: 1px; fill: rgb(124, 181, 236); fill-opacity: 0.5; stroke: rgb(0, 0, 0); stroke-opacity: 0.2;"/></g><g class="text"><g class="textpoint" transform="translate(0,2)"><text x="963.7" y="70.91" text-anchor="middle" style="font-family: 'Lucida Grande', 'Open Sans', verdana, arial, sans-serif; font-size: 8px; fill: rgb(42, 63, 95); fill-opacity: 1; white-space: pre;">CONTROL_1hr_1</text></g></g></g></g></g></g><path class="xlines-above crisp" d="M0,0" style="fill: none;"/><path class="ylines-above crisp" d="M0,0" style="fill: none;"/><g class="overlines-above"/><g class="xaxislayer-above"><g class="xtick"><text text-anchor="middle" x="0" y="456" transform="translate(85.55,0)" style="font-family: 'Lucida Grande', 'Open Sans', verdana, arial, sans-serif; font-size: 10px; fill: rgb(0, 0, 0); fill-opacity: 1; white-space: pre; opacity: 1;">−80</text></g><g class="xtick"><text text-anchor="middle" x="0" y="456" style="font-family: 'Lucida Grande', 'Open Sans', verdana, arial, sans-serif; font-size: 10px; fill: rgb(0, 0, 0); fill-opacity: 1; white-space: pre; opacity: 1;" transform="translate(194.02,0)">−60</text></g><g class="xtick"><text text-anchor="middle" x="0" y="456" style="font-family: 'Lucida Grande', 'Open Sans', verdana, arial, sans-serif; font-size: 10px; fill: rgb(0, 0, 0); fill-opacity: 1; white-space: pre; opacity: 1;" transform="translate(302.48,0)">−40</text></g><g class="xtick"><text text-anchor="middle" x="0" y="456" style="font-family: 'Lucida Grande', 'Open Sans', verdana, arial, sans-serif; font-size: 10px; fill: rgb(0, 0, 0); fill-opacity: 1; white-space: pre; opacity: 1;" transform="translate(410.95,0)">−20</text></g><g class="xtick"><text text-anchor="middle" x="0" y="456" style="font-family: 'Lucida Grande', 'Open Sans', verdana, arial, sans-serif; font-size: 10px; fill: rgb(0, 0, 0); fill-opacity: 1; white-space: pre; opacity: 1;" transform="translate(519.4100000000001,0)">0</text></g><g class="xtick"><text text-anchor="middle" x="0" y="456" style="font-family: 'Lucida Grande', 'Open Sans', verdana, arial, sans-serif; font-size: 10px; fill: rgb(0, 0, 0); fill-opacity: 1; white-space: pre; opacity: 1;" transform="translate(627.88,0)">20</text></g><g class="xtick"><text text-anchor="middle" x="0" y="456" style="font-family: 'Lucida Grande', 'Open Sans', verdana, arial, sans-serif; font-size: 10px; fill: rgb(0, 0, 0); fill-opacity: 1; white-space: pre; opacity: 1;" transform="translate(736.34,0)">40</text></g><g class="xtick"><text text-anchor="middle" x="0" y="456" style="font-family: 'Lucida Grande', 'Open Sans', verdana, arial, sans-serif; font-size: 10px; fill: rgb(0, 0, 0); fill-opacity: 1; white-space: pre; opacity: 1;" transform="translate(844.81,0)">60</text></g><g class="xtick"><text text-anchor="middle" x="0" y="456" style="font-family: 'Lucida Grande', 'Open Sans', verdana, arial, sans-serif; font-size: 10px; fill: rgb(0, 0, 0); fill-opacity: 1; white-space: pre; opacity: 1;" transform="translate(953.28,0)">80</text></g><g class="xtick"><text text-anchor="middle" x="0" y="456" style="font-family: 'Lucida Grande', 'Open Sans', verdana, arial, sans-serif; font-size: 10px; fill: rgb(0, 0, 0); fill-opacity: 1; white-space: pre; opacity: 1;" transform="translate(1061.74,0)">100</text></g></g><g class="yaxislayer-above"><g class="ytick"><text text-anchor="end" x="58" y="3.5" transform="translate(0,380.7)" style="font-family: 'Lucida Grande', 'Open Sans', verdana, arial, sans-serif; font-size: 10px; fill: rgb(0, 0, 0); fill-opacity: 1; white-space: pre; opacity: 1;">−40</text></g><g class="ytick"><text text-anchor="end" x="58" y="3.5" style="font-family: 'Lucida Grande', 'Open Sans', verdana, arial, sans-serif; font-size: 10px; fill: rgb(0, 0, 0); fill-opacity: 1; white-space: pre; opacity: 1;" transform="translate(0,317.47)">−20</text></g><g class="ytick"><text text-anchor="end" x="58" y="3.5" style="font-family: 'Lucida Grande', 'Open Sans', verdana, arial, sans-serif; font-size: 10px; fill: rgb(0, 0, 0); fill-opacity: 1; white-space: pre; opacity: 1;" transform="translate(0,254.24)">0</text></g><g class="ytick"><text text-anchor="end" x="58" y="3.5" style="font-family: 'Lucida Grande', 'Open Sans', verdana, arial, sans-serif; font-size: 10px; fill: rgb(0, 0, 0); fill-opacity: 1; white-space: pre; opacity: 1;" transform="translate(0,191.01)">20</text></g><g class="ytick"><text text-anchor="end" x="58" y="3.5" style="font-family: 'Lucida Grande', 'Open Sans', verdana, arial, sans-serif; font-size: 10px; fill: rgb(0, 0, 0); fill-opacity: 1; white-space: pre; opacity: 1;" transform="translate(0,127.79)">40</text></g><g class="ytick"><text text-anchor="end" x="58" y="3.5" style="font-family: 'Lucida Grande', 'Open Sans', verdana, arial, sans-serif; font-size: 10px; fill: rgb(0, 0, 0); fill-opacity: 1; white-space: pre; opacity: 1;" transform="translate(0,64.56)">60</text></g></g><g class="overaxes-above"/></g></g><g class="polarlayer"/><g class="smithlayer"/><g class="ternarylayer"/><g class="geolayer"/><g class="funnelarealayer"/><g class="pielayer"/><g class="iciclelayer"/><g class="treemaplayer"/><g class="sunburstlayer"/><g class="glimages"/><defs id="topdefs-2f5d4f"><g class="clips"/></defs><g class="layer-above"><g class="imagelayer"/><g class="shapelayer"/></g><g class="infolayer"><g class="g-gtitle"><text class="gtitle" x="550" y="25" text-anchor="middle" dy="0em" style="opacity: 1; font-family: 'Lucida Grande', 'Open Sans', verdana, arial, sans-serif; font-size: 20px; fill: rgb(42, 63, 95); fill-opacity: 1; white-space: pre;"><tspan class="line" dy="0em" x="550" y="25">DESeq2: Principal component plot</tspan><tspan class="line" dy="1.3em" x="550" y="25">​<tspan style="font-size:70%" dy="-0.6em">25 samples</tspan><tspan dy="0.42em">​</tspan></tspan></text></g><g class="g-xtitle"><text class="xtitle" x="574.5" y="477.3" text-anchor="middle" style="opacity: 0.3; font-family: 'Lucida Grande', 'Open Sans', verdana, arial, sans-serif; font-size: 14px; fill: rgb(0, 0, 0); fill-opacity: 1; white-space: pre;">PC1</text></g><g class="g-ytitle"><text class="ytitle" transform="rotate(-90,22.490625,245)" x="22.490625" y="245" text-anchor="middle" style="opacity: 0.3; font-family: 'Lucida Grande', 'Open Sans', verdana, arial, sans-serif; font-size: 14px; fill: rgb(0, 0, 0); fill-opacity: 1; white-space: pre;">PC2</text></g></g></svg>