<svg class="main-svg" xmlns="http://www.w3.org/2000/svg" xmlns:xlink="http://www.w3.org/1999/xlink" width="2200" height="1000" style="" viewBox="0 0 1100 500"><rect x="0" y="0" width="1100" height="500" style="fill: rgb(255, 255, 255); fill-opacity: 1;"/><defs id="defs-c419e7"><g class="clips"><clipPath id="clipc419e7xyplot" class="plotclip"><rect width="1016" height="385"/></clipPath><clipPath class="axesclip" id="clipc419e7x"><rect x="60" y="0" width="1016" height="500"/></clipPath><clipPath class="axesclip" id="clipc419e7y"><rect x="0" y="50" width="1100" height="385"/></clipPath><clipPath class="axesclip" id="clipc419e7xy"><rect x="60" y="50" width="1016" height="385"/></clipPath></g><g class="gradients"/><g class="patterns"/></defs><g class="bglayer"/><g class="layer-below"><g class="imagelayer"/><g class="shapelayer"/></g><g class="cartesianlayer"><g class="subplot xy"><g class="layer-subplot"><g class="shapelayer"/><g class="imagelayer"/></g><g class="minor-gridlayer"><g class="x"/><g class="y"/></g><g class="gridlayer"><g class="x"><path class="xgrid crisp" transform="translate(108.38,0)" d="M0,50v385" style="stroke: rgb(0, 0, 0); stroke-opacity: 0.05; stroke-width: 1px;"/><path class="xgrid crisp" transform="translate(156.76,0)" d="M0,50v385" style="stroke: rgb(0, 0, 0); stroke-opacity: 0.05; stroke-width: 1px;"/><path class="xgrid crisp" transform="translate(205.14,0)" d="M0,50v385" style="stroke: rgb(0, 0, 0); stroke-opacity: 0.05; stroke-width: 1px;"/><path class="xgrid crisp" transform="translate(253.52,0)" d="M0,50v385" style="stroke: rgb(0, 0, 0); stroke-opacity: 0.05; stroke-width: 1px;"/><path class="xgrid crisp" transform="translate(301.9,0)" d="M0,50v385" style="stroke: rgb(0, 0, 0); stroke-opacity: 0.05; stroke-width: 1px;"/><path class="xgrid crisp" transform="translate(350.29,0)" d="M0,50v385" style="stroke: rgb(0, 0, 0); stroke-opacity: 0.05; stroke-width: 1px;"/><path class="xgrid crisp" transform="translate(398.67,0)" d="M0,50v385" style="stroke: rgb(0, 0, 0); stroke-opacity: 0.05; stroke-width: 1px;"/><path class="xgrid crisp" transform="translate(447.05,0)" d="M0,50v385" style="stroke: rgb(0, 0, 0); stroke-opacity: 0.05; stroke-width: 1px;"/><path class="xgrid crisp" transform="translate(495.43,0)" d="M0,50v385" style="stroke: rgb(0, 0, 0); stroke-opacity: 0.05; stroke-width: 1px;"/><path class="xgrid crisp" transform="translate(543.81,0)" d="M0,50v385" style="stroke: rgb(0, 0, 0); stroke-opacity: 0.05; stroke-width: 1px;"/><path class="xgrid crisp" transform="translate(592.19,0)" d="M0,50v385" style="stroke: rgb(0, 0, 0); stroke-opacity: 0.05; stroke-width: 1px;"/><path class="xgrid crisp" transform="translate(640.57,0)" d="M0,50v385" style="stroke: rgb(0, 0, 0); stroke-opacity: 0.05; stroke-width: 1px;"/><path class="xgrid crisp" transform="translate(688.95,0)" d="M0,50v385" style="stroke: rgb(0, 0, 0); stroke-opacity: 0.05; stroke-width: 1px;"/><path class="xgrid crisp" transform="translate(737.33,0)" d="M0,50v385" style="stroke: rgb(0, 0, 0); stroke-opacity: 0.05; stroke-width: 1px;"/><path class="xgrid crisp" transform="translate(785.71,0)" d="M0,50v385" style="stroke: rgb(0, 0, 0); stroke-opacity: 0.05; stroke-width: 1px;"/><path class="xgrid crisp" transform="translate(834.1,0)" d="M0,50v385" style="stroke: rgb(0, 0, 0); stroke-opacity: 0.05; stroke-width: 1px;"/><path class="xgrid crisp" transform="translate(882.48,0)" d="M0,50v385" style="stroke: rgb(0, 0, 0); stroke-opacity: 0.05; stroke-width: 1px;"/><path class="xgrid crisp" transform="translate(930.86,0)" d="M0,50v385" style="stroke: rgb(0, 0, 0); stroke-opacity: 0.05; stroke-width: 1px;"/><path class="xgrid crisp" transform="translate(979.24,0)" d="M0,50v385" style="stroke: rgb(0, 0, 0); stroke-opacity: 0.05; stroke-width: 1px;"/><path class="xgrid crisp" transform="translate(1027.62,0)" d="M0,50v385" style="stroke: rgb(0, 0, 0); stroke-opacity: 0.05; stroke-width: 1px;"/></g><g class="y"><path class="ygrid crisp" transform="translate(0,370.08)" d="M60,0h1016" style="stroke: rgb(0, 0, 0); stroke-opacity: 0.05; stroke-width: 1px;"/><path class="ygrid crisp" transform="translate(0,324.21)" d="M60,0h1016" style="stroke: rgb(0, 0, 0); stroke-opacity: 0.05; stroke-width: 1px;"/><path class="ygrid crisp" transform="translate(0,278.33000000000004)" d="M60,0h1016" style="stroke: rgb(0, 0, 0); stroke-opacity: 0.05; stroke-width: 1px;"/><path class="ygrid crisp" transform="translate(0,232.46)" d="M60,0h1016" style="stroke: rgb(0, 0, 0); stroke-opacity: 0.05; stroke-width: 1px;"/><path class="ygrid crisp" transform="translate(0,186.58)" d="M60,0h1016" style="stroke: rgb(0, 0, 0); stroke-opacity: 0.05; stroke-width: 1px;"/><path class="ygrid crisp" transform="translate(0,140.70999999999998)" d="M60,0h1016" style="stroke: rgb(0, 0, 0); stroke-opacity: 0.05; stroke-width: 1px;"/><path class="ygrid crisp" transform="translate(0,94.84)" d="M60,0h1016" style="stroke: rgb(0, 0, 0); stroke-opacity: 0.05; stroke-width: 1px;"/></g></g><g class="zerolinelayer"><path class="yzl zl crisp" transform="translate(0,415.95)" d="M60,0h1016" style="stroke: rgb(0, 0, 0); stroke-opacity: 0.05; stroke-width: 2px;"/></g><g class="layer-between"><g class="shapelayer"/><g class="imagelayer"/></g><path class="xlines-below"/><path class="ylines-below"/><g class="overlines-below"/><g class="xaxislayer-below"/><g class="yaxislayer-below"/><g class="overaxes-below"/><g class="overplot"><g class="xy" transform="translate(60,50)" clip-path="url(#clipc419e7xyplot)"><g class="scatterlayer mlayer"><g class="trace scatter trace72c664" style="stroke-miterlimit: 2; opacity: 1;"><g class="fills"/><g class="errorbars"/><g class="lines"><path class="js-line" d="M0,359.42L48.38,353.65L96.76,115.89L145.14,361.65L193.52,361.23L241.9,360.71L290.29,362.26L338.67,315.39L387.05,362.92L435.43,361.23L483.81,353.63L580.57,361.09L628.95,358.03L677.33,357.22L725.71,340.17L774.1,357.19L822.48,359.66L870.86,357.54L919.24,347.74L967.62,362.6L1016,365.72" style="vector-effect: none; fill: none; stroke: rgb(124, 181, 236); stroke-opacity: 1; stroke-width: 2px; opacity: 1;"/></g><g class="points"/><g class="text"/></g><g class="trace scatter trace18fa3d" style="stroke-miterlimit: 2; opacity: 1;"><g class="fills"/><g class="errorbars"/><g class="lines"><path class="js-line" d="M0,363.91L48.38,360.42L96.76,19.25L145.14,364.56L193.52,365.2L290.29,364.69L338.67,316.47L387.05,364.89L435.43,364.57L483.81,362.14L532.19,363.71L580.57,364.88L628.95,361.36L677.33,362.76L725.71,345.69L774.1,363.55L822.48,363.03L870.86,364.11L919.24,361.7L967.62,364.92L1016,365.65" style="vector-effect: none; fill: none; stroke: rgb(67, 67, 72); stroke-opacity: 1; stroke-width: 2px; opacity: 1;"/></g><g class="points"/><g class="text"/></g><g class="trace scatter trace95f052" style="stroke-miterlimit: 2; opacity: 1;"><g class="fills"/><g class="errorbars"/><g class="lines"><path class="js-line" d="M0,363.83L48.38,360.46L96.76,35.59L145.14,364.52L193.52,364.52L241.9,364.15L290.29,364.63L338.67,305.71L387.05,364.88L435.43,364.29L483.81,361.27L580.57,364.37L628.95,361.64L677.33,363.28L725.71,346.02L774.1,363.37L822.48,362.76L870.86,362.97L919.24,360.65L967.62,364.69L1016,365.64" style="vector-effect: none; fill: none; stroke: rgb(144, 237, 125); stroke-opacity: 1; stroke-width: 2px; opacity: 1;"/></g><g class="points"/><g class="text"/></g><g class="trace scatter traceb1c01e" style="stroke-miterlimit: 2; opacity: 1;"><g class="fills"/><g class="errorbars"/><g class="lines"><path class="js-line" d="M0,359.16L48.38,351.14L96.76,197.95L145.14,360.9L193.52,360.63L241.9,359.57L290.29,361.53L338.67,311.87L387.05,361.95L435.43,356.74L483.81,333.94L532.19,354.67L580.57,359.61L628.95,355.34L677.33,356.52L725.71,349.66L774.1,356.63L870.86,357.48L919.24,301.54L967.62,362.47L1016,365.63" style="vector-effect: none; fill: none; stroke: rgb(247, 163, 92); stroke-opacity: 1; stroke-width: 2px; opacity: 1;"/></g><g class="points"/><g class="text"/></g><g class="trace scatter tracebba0bb" style="stroke-miterlimit: 2; opacity: 1;"><g class="fills"/><g class="errorbars"/><g class="lines"><path class="js-line" d="M0,361.56L48.38,356.22L96.76,82.12L145.14,362.97L193.52,362.56L241.9,362.46L290.29,363.32L338.67,335.02L387.05,363.76L435.43,362.43L483.81,348.01L532.19,359.85L580.57,362.58L628.95,359.36L677.33,360.52L725.71,347.88L774.1,360.72L822.48,361.1L870.86,360.11L919.24,330.44L967.62,363.56L1016,365.68" style="vector-effect: none; fill: none; stroke: rgb(128, 133, 233); stroke-opacity: 1; stroke-width: 2px; opacity: 1;"/></g><g class="points"/><g class="text"/></g><g class="trace scatter trace4d495f" style="stroke-miterlimit: 2; opacity: 1;"><g class="fills"/><g class="errorbars"/><g class="lines"><path class="js-line" d="M0,356.88L48.38,349.3L96.76,200.81L145.14,358.33L193.52,358.34L241.9,357.98L290.29,360.31L338.67,295.99L387.05,360.5L435.43,357.31L483.81,346.32L580.57,356.56L628.95,349.79L677.33,353.92L725.71,346.81L774.1,354.65L822.48,354.39L870.86,353.77L919.24,342.62L967.62,360.91L1016,365.23" style="vector-effect: none; fill: none; stroke: rgb(241, 92, 128); stroke-opacity: 1; stroke-width: 2px; opacity: 1;"/></g><g class="points"/><g class="text"/></g><g class="trace scatter trace4d3462" style="stroke-miterlimit: 2; opacity: 1;"><g class="fills"/><g class="errorbars"/><g class="lines"><path class="js-line" d="M0,361.76L48.38,357.72L96.76,98.86L145.14,362.98L193.52,363.1L241.9,362.76L290.29,363.73L338.67,325.85L387.05,364.01L435.43,363.09L483.81,348.25L532.19,360.36L580.57,363.11L628.95,355.27L677.33,360.7L725.71,346.23L774.1,361.11L822.48,357.88L870.86,360.11L919.24,326.43L967.62,363.71L1016,365.22" style="vector-effect: none; fill: none; stroke: rgb(228, 211, 84); stroke-opacity: 1; stroke-width: 2px; opacity: 1;"/></g><g class="points"/><g class="text"/></g><g class="trace scatter trace47997f" style="stroke-miterlimit: 2; opacity: 1;"><g class="fills"/><g class="errorbars"/><g class="lines"><path class="js-line" d="M0,348.42L48.38,338.78L96.76,305.01L145.14,353.38L193.52,352.76L241.9,351.67L290.29,354.49L338.67,311.28L387.05,355.31L435.43,349.47L483.81,338.17L532.19,340.81L580.57,350.47L628.95,345.34L677.33,344.49L725.71,342.81L774.1,346.39L822.48,348.45L870.86,343.98L919.24,350.49L967.62,355.5L1016,364.76" style="vector-effect: none; fill: none; stroke: rgb(43, 144, 143); stroke-opacity: 1; stroke-width: 2px; opacity: 1;"/></g><g class="points"/><g class="text"/></g><g class="trace scatter tracefaaccd" style="stroke-miterlimit: 2; opacity: 1;"><g class="fills"/><g class="errorbars"/><g class="lines"><path class="js-line" d="M0,357.79L48.38,351.32L96.76,183.82L145.14,360.02L193.52,360.53L241.9,359.2L290.29,360.4L338.67,298.02L387.05,361.07L435.43,357.57L483.81,344.4L532.19,354.44L580.57,359L628.95,352.64L677.33,355.5L725.71,344.94L774.1,356.69L870.86,356L919.24,335.99L967.62,361.3L1016,365.24" style="vector-effect: none; fill: none; stroke: rgb(244, 91, 91); stroke-opacity: 1; stroke-width: 2px; opacity: 1;"/></g><g class="points"/><g class="text"/></g><g class="trace scatter trace45b23a" style="stroke-miterlimit: 2; opacity: 1;"><g class="fills"/><g class="errorbars"/><g class="lines"><path class="js-line" d="M0,359.13L48.38,354.24L96.76,117.73L145.14,361.73L193.52,361.04L241.9,360.21L290.29,362.49L338.67,336.26L387.05,362.98L435.43,360.77L483.81,348.56L532.19,357.08L580.57,361.09L628.95,356.32L677.33,357.09L725.71,343.6L774.1,357.47L822.48,358.91L870.86,356.08L919.24,331.29L967.62,362.6L1016,365.6" style="vector-effect: none; fill: none; stroke: rgb(145, 232, 225); stroke-opacity: 1; stroke-width: 2px; opacity: 1;"/></g><g class="points"/><g class="text"/></g><g class="trace scatter trace6fd8c1" style="stroke-miterlimit: 2; opacity: 1;"><g class="fills"/><g class="errorbars"/><g class="lines"><path class="js-line" d="M0,361.66L48.38,357.23L96.76,87.93L145.14,362.54L193.52,362.91L241.9,362.39L290.29,363.55L338.67,329.17L387.05,363.86L435.43,362.58L483.81,351.59L532.19,359.66L580.57,363.02L628.95,355.67L677.33,359.96L725.71,345.17L774.1,360.36L822.48,358.68L870.86,359.86L919.24,335.56L967.62,363.65L1016,365.24" style="vector-effect: none; fill: none; stroke: rgb(124, 181, 236); stroke-opacity: 1; stroke-width: 2px; opacity: 1;"/></g><g class="points"/><g class="text"/></g><g class="trace scatter trace81ffad" style="stroke-miterlimit: 2; opacity: 1;"><g class="fills"/><g class="errorbars"/><g class="lines"><path class="js-line" d="M0,360.68L48.38,354.76L96.76,146.9L145.14,362.38L193.52,362.28L241.9,361.76L290.29,363.36L338.67,335.25L387.05,363.7L435.43,362.11L483.81,337.09L532.19,358.52L580.57,362.2L628.95,355.18L677.33,358.97L725.71,349L774.1,359.27L870.86,357.62L919.24,294.89L967.62,362.93L1016,365.27" style="vector-effect: none; fill: none; stroke: rgb(67, 67, 72); stroke-opacity: 1; stroke-width: 2px; opacity: 1;"/></g><g class="points"/><g class="text"/></g><g class="trace scatter trace528df0" style="stroke-miterlimit: 2; opacity: 1;"><g class="fills"/><g class="errorbars"/><g class="lines"><path class="js-line" d="M0,357.36L48.38,349.29L96.76,156.89L145.14,359.94L193.52,360.22L241.9,359.25L290.29,360.93L338.67,320.2L387.05,361.02L435.43,356.99L483.81,346.92L532.19,354.14L580.57,360.24L628.95,352.34L677.33,354.32L725.71,346.91L774.1,356.11L822.48,357.38L870.86,356.24L919.24,338.9L967.62,361.46L1016,365.17" style="vector-effect: none; fill: none; stroke: rgb(144, 237, 125); stroke-opacity: 1; stroke-width: 2px; opacity: 1;"/></g><g class="points"/><g class="text"/></g><g class="trace scatter tracedc8187" style="stroke-miterlimit: 2; opacity: 1;"><g class="fills"/><g class="errorbars"/><g class="lines"><path class="js-line" d="M0,361.74L48.38,356.32L96.76,73.62L145.14,363.16L193.52,362.92L241.9,362.92L290.29,363.82L338.67,346.68L387.05,363.86L435.43,362.43L483.81,348.07L532.19,360.51L580.57,363.07L628.95,359.66L677.33,360.88L725.71,343.66L774.1,361.21L822.48,361.77L870.86,360.04L919.24,326.56L967.62,363.69L1016,365.66" style="vector-effect: none; fill: none; stroke: rgb(247, 163, 92); stroke-opacity: 1; stroke-width: 2px; opacity: 1;"/></g><g class="points"/><g class="text"/></g><g class="trace scatter traceed61e5" style="stroke-miterlimit: 2; opacity: 1;"><g class="fills"/><g class="errorbars"/><g class="lines"><path class="js-line" d="M0,357.74L48.38,351.1L96.76,173.59L145.14,360.2L193.52,359.8L241.9,358.7L290.29,359.86L338.67,285.26L387.05,360.86L435.43,358.02L483.81,351.72L532.19,353.97L580.57,359.05L628.95,351.97L677.33,354.84L725.71,345.7L774.1,356.17L822.48,355.46L870.86,355.86L919.24,356.38L967.62,360.67L1016,365.34" style="vector-effect: none; fill: none; stroke: rgb(128, 133, 233); stroke-opacity: 1; stroke-width: 2px; opacity: 1;"/></g><g class="points"/><g class="text"/></g><g class="trace scatter trace0fa72d" style="stroke-miterlimit: 2; opacity: 1;"><g class="fills"/><g class="errorbars"/><g class="lines"><path class="js-line" d="M0,362.43L48.38,359.18L96.76,46.35L145.14,363.56L193.52,363.69L241.9,363.26L290.29,363.77L338.67,318.65L387.05,364.32L435.43,363.83L483.81,360.92L532.19,361.44L580.57,363.43L628.95,361.24L677.33,361.33L725.71,341.41L774.1,361.49L822.48,362.47L870.86,361.39L919.24,358.33L967.62,364.02L1016,365.75" style="vector-effect: none; fill: none; stroke: rgb(241, 92, 128); stroke-opacity: 1; stroke-width: 2px; opacity: 1;"/></g><g class="points"/><g class="text"/></g><g class="trace scatter trace00e722" style="stroke-miterlimit: 2; opacity: 1;"><g class="fills"/><g class="errorbars"/><g class="lines"><path class="js-line" d="M0,361.4L48.38,356.43L96.76,112.22L145.14,362.43L193.52,362.63L241.9,362.08L290.29,363.1L338.67,297.12L387.05,363.49L435.43,362.04L483.81,352.35L532.19,359.14L580.57,361.92L628.95,356.02L677.33,359.79L725.71,348.7L774.1,360L822.48,358.75L870.86,359.72L919.24,343.99L967.62,363.53L1016,365.42" style="vector-effect: none; fill: none; stroke: rgb(228, 211, 84); stroke-opacity: 1; stroke-width: 2px; opacity: 1;"/></g><g class="points"/><g class="text"/></g><g class="trace scatter trace364728" style="stroke-miterlimit: 2; opacity: 1;"><g class="fills"/><g class="errorbars"/><g class="lines"><path class="js-line" d="M0,356.85L48.38,348.43L96.76,174.19L145.14,360.46L193.52,360.5L241.9,359.32L290.29,360.1L338.67,315.24L387.05,361.16L435.43,358.8L483.81,343.25L532.19,354.66L580.57,359.74L628.95,352.91L677.33,353.68L725.71,344.82L774.1,355.76L822.48,357.12L870.86,355.76L919.24,333.33L967.62,360.75L1016,365.41" style="vector-effect: none; fill: none; stroke: rgb(43, 144, 143); stroke-opacity: 1; stroke-width: 2px; opacity: 1;"/></g><g class="points"/><g class="text"/></g><g class="trace scatter trace523d22" style="stroke-miterlimit: 2; opacity: 1;"><g class="fills"/><g class="errorbars"/><g class="lines"><path class="js-line" d="M0,359.2L48.38,352.87L96.76,158.67L145.14,361.73L193.52,361.94L241.9,361.13L290.29,362.16L338.67,329.04L387.05,362.73L435.43,360.84L483.81,335.71L532.19,357.55L580.57,361.02L628.95,355.4L677.33,357.41L725.71,348.18L774.1,358.14L870.86,357.34L919.24,305.5L967.62,362.27L1016,365.45" style="vector-effect: none; fill: none; stroke: rgb(244, 91, 91); stroke-opacity: 1; stroke-width: 2px; opacity: 1;"/></g><g class="points"/><g class="text"/></g><g class="trace scatter tracea22769" style="stroke-miterlimit: 2; opacity: 1;"><g class="fills"/><g class="errorbars"/><g class="lines"><path class="js-line" d="M0,359.86L48.38,352.41L96.76,128.53L145.14,362.17L193.52,361.22L241.9,360.63L290.29,362.41L338.67,321L387.05,362.82L435.43,359.59L483.81,348.21L532.19,357.46L580.57,361.18L628.95,356.26L677.33,358.4L725.71,345.77L774.1,358.33L822.48,359.23L870.86,356.64L919.24,332.22L967.62,362.34L1016,365.59" style="vector-effect: none; fill: none; stroke: rgb(145, 232, 225); stroke-opacity: 1; stroke-width: 2px; opacity: 1;"/></g><g class="points"/><g class="text"/></g><g class="trace scatter trace434d42" style="stroke-miterlimit: 2; opacity: 1;"><g class="fills"/><g class="errorbars"/><g class="lines"><path class="js-line" d="M0,361.15L48.38,355.46L96.76,96.36L145.14,362.1L193.52,362.28L241.9,362.08L290.29,363.48L338.67,331.75L387.05,363.67L435.43,362.33L483.81,349.84L532.19,358.99L580.57,362.58L628.95,357.77L677.33,359.64L725.71,346.21L774.1,359.64L822.48,360.51L870.86,359.09L919.24,328.49L967.62,363.3L1016,365.53" style="vector-effect: none; fill: none; stroke: rgb(124, 181, 236); stroke-opacity: 1; stroke-width: 2px; opacity: 1;"/></g><g class="points"/><g class="text"/></g><g class="trace scatter tracec961b2" style="stroke-miterlimit: 2; opacity: 1;"><g class="fills"/><g class="errorbars"/><g class="lines"><path class="js-line" d="M0,362.92L48.38,358.14L96.76,66.66L145.14,364.07L193.52,363.89L241.9,363.21L290.29,364.31L338.67,315.52L387.05,364.7L435.43,363.31L483.81,354.39L532.19,361.55L580.57,363.83L628.95,360.99L677.33,361.98L725.71,348.46L774.1,362.12L822.48,362.56L870.86,360.89L919.24,338.82L967.62,364.28L1016,365.66" style="vector-effect: none; fill: none; stroke: rgb(67, 67, 72); stroke-opacity: 1; stroke-width: 2px; opacity: 1;"/></g><g class="points"/><g class="text"/></g><g class="trace scatter traceb19848" style="stroke-miterlimit: 2; opacity: 1;"><g class="fills"/><g class="errorbars"/><g class="lines"><path class="js-line" d="M0,349.9L48.38,340.65L96.76,262.89L145.14,356.22L193.52,351.98L241.9,352.24L290.29,356.16L338.67,330.22L387.05,357.71L435.43,345.65L483.81,340.79L532.19,344.76L580.57,352.73L628.95,346.13L677.33,347.73L725.71,344.55L774.1,347.96L822.48,352.73L870.86,344.2L919.24,344.35L967.62,357.26L1016,365.44" style="vector-effect: none; fill: none; stroke: rgb(144, 237, 125); stroke-opacity: 1; stroke-width: 2px; opacity: 1;"/></g><g class="points"/><g class="text"/></g><g class="trace scatter tracebcc002" style="stroke-miterlimit: 2; opacity: 1;"><g class="fills"/><g class="errorbars"/><g class="lines"><path class="js-line" d="M0,360.45L48.38,354.26L96.76,109.37L145.14,362.59L193.52,362.34L241.9,361.75L290.29,363.29L338.67,338.82L387.05,363.56L435.43,362.1L483.81,345.21L532.19,359L580.57,362.12L628.95,358.38L677.33,358.83L725.71,343.28L774.1,359.46L822.48,360.58L870.86,358.03L919.24,320.2L967.62,363.01L1016,365.61" style="vector-effect: none; fill: none; stroke: rgb(247, 163, 92); stroke-opacity: 1; stroke-width: 2px; opacity: 1;"/></g><g class="points"/><g class="text"/></g><g class="trace scatter tracea7508d" style="stroke-miterlimit: 2; opacity: 1;"><g class="fills"/><g class="errorbars"/><g class="lines"><path class="js-line" d="M0,359.82L48.38,353.5L96.76,151.78L145.14,361.2L193.52,361.45L241.9,360.45L290.29,361.77L338.67,290.63L387.05,362.49L435.43,359.98L483.81,350.42L532.19,356.32L580.57,360.19L628.95,354.98L677.33,357.91L725.71,344.41L774.1,358.26L822.48,358.54L870.86,357.7L919.24,342.57L967.62,362.46L1016,365.43" style="vector-effect: none; fill: none; stroke: rgb(128, 133, 233); stroke-opacity: 1; stroke-width: 2px; opacity: 1;"/></g><g class="points"/><g class="text"/></g></g></g></g><path class="xlines-above crisp" d="M0,0" style="fill: none;"/><path class="ylines-above crisp" d="M0,0" style="fill: none;"/><g class="overlines-above"/><g class="xaxislayer-above"><g class="xtick"><text text-anchor="middle" x="0" y="451" transform="translate(60,0)" style="font-family: 'Lucida Grande', 'Open Sans', verdana, arial, sans-serif; font-size: 10px; fill: rgb(0, 0, 0); fill-opacity: 1; white-space: pre; opacity: 1;">chr10</text></g><g class="xtick"><text text-anchor="middle" x="0" y="451" transform="translate(108.38,0)" style="font-family: 'Lucida Grande', 'Open Sans', verdana, arial, sans-serif; font-size: 10px; fill: rgb(0, 0, 0); fill-opacity: 1; white-space: pre; opacity: 1;">chr11</text></g><g class="xtick"><text text-anchor="middle" x="0" y="451" transform="translate(156.76,0)" style="font-family: 'Lucida Grande', 'Open Sans', verdana, arial, sans-serif; font-size: 10px; fill: rgb(0, 0, 0); fill-opacity: 1; white-space: pre; opacity: 1;">chr12</text></g><g class="xtick"><text text-anchor="middle" x="0" y="451" transform="translate(205.14,0)" style="font-family: 'Lucida Grande', 'Open Sans', verdana, arial, sans-serif; font-size: 10px; fill: rgb(0, 0, 0); fill-opacity: 1; white-space: pre; opacity: 1;">chr13</text></g><g class="xtick"><text text-anchor="middle" x="0" y="451" transform="translate(253.52,0)" style="font-family: 'Lucida Grande', 'Open Sans', verdana, arial, sans-serif; font-size: 10px; fill: rgb(0, 0, 0); fill-opacity: 1; white-space: pre; opacity: 1;">chr14</text></g><g class="xtick"><text text-anchor="middle" x="0" y="451" transform="translate(301.9,0)" style="font-family: 'Lucida Grande', 'Open Sans', verdana, arial, sans-serif; font-size: 10px; fill: rgb(0, 0, 0); fill-opacity: 1; white-space: pre; opacity: 1;">chr15</text></g><g class="xtick"><text text-anchor="middle" x="0" y="451" transform="translate(350.29,0)" style="font-family: 'Lucida Grande', 'Open Sans', verdana, arial, sans-serif; font-size: 10px; fill: rgb(0, 0, 0); fill-opacity: 1; white-space: pre; opacity: 1;">chr16</text></g><g class="xtick"><text text-anchor="middle" x="0" y="451" transform="translate(398.67,0)" style="font-family: 'Lucida Grande', 'Open Sans', verdana, arial, sans-serif; font-size: 10px; fill: rgb(0, 0, 0); fill-opacity: 1; white-space: pre; opacity: 1;">chr17</text></g><g class="xtick"><text text-anchor="middle" x="0" y="451" transform="translate(447.05,0)" style="font-family: 'Lucida Grande', 'Open Sans', verdana, arial, sans-serif; font-size: 10px; fill: rgb(0, 0, 0); fill-opacity: 1; white-space: pre; opacity: 1;">chr18</text></g><g class="xtick"><text text-anchor="middle" x="0" y="451" transform="translate(495.43,0)" style="font-family: 'Lucida Grande', 'Open Sans', verdana, arial, sans-serif; font-size: 10px; fill: rgb(0, 0, 0); fill-opacity: 1; white-space: pre; opacity: 1;">chr19</text></g><g class="xtick"><text text-anchor="middle" x="0" y="451" transform="translate(543.81,0)" style="font-family: 'Lucida Grande', 'Open Sans', verdana, arial, sans-serif; font-size: 10px; fill: rgb(0, 0, 0); fill-opacity: 1; white-space: pre; opacity: 1;">chr1</text></g><g class="xtick"><text text-anchor="middle" x="0" y="451" transform="translate(592.19,0)" style="font-family: 'Lucida Grande', 'Open Sans', verdana, arial, sans-serif; font-size: 10px; fill: rgb(0, 0, 0); fill-opacity: 1; white-space: pre; opacity: 1;">chr2</text></g><g class="xtick"><text text-anchor="middle" x="0" y="451" transform="translate(640.57,0)" style="font-family: 'Lucida Grande', 'Open Sans', verdana, arial, sans-serif; font-size: 10px; fill: rgb(0, 0, 0); fill-opacity: 1; white-space: pre; opacity: 1;">chr3</text></g><g class="xtick"><text text-anchor="middle" x="0" y="451" transform="translate(688.95,0)" style="font-family: 'Lucida Grande', 'Open Sans', verdana, arial, sans-serif; font-size: 10px; fill: rgb(0, 0, 0); fill-opacity: 1; white-space: pre; opacity: 1;">chr4</text></g><g class="xtick"><text text-anchor="middle" x="0" y="451" transform="translate(737.33,0)" style="font-family: 'Lucida Grande', 'Open Sans', verdana, arial, sans-serif; font-size: 10px; fill: rgb(0, 0, 0); fill-opacity: 1; white-space: pre; opacity: 1;">chr5</text></g><g class="xtick"><text text-anchor="middle" x="0" y="451" transform="translate(785.71,0)" style="font-family: 'Lucida Grande', 'Open Sans', verdana, arial, sans-serif; font-size: 10px; fill: rgb(0, 0, 0); fill-opacity: 1; white-space: pre; opacity: 1;">chr6</text></g><g class="xtick"><text text-anchor="middle" x="0" y="451" transform="translate(834.1,0)" style="font-family: 'Lucida Grande', 'Open Sans', verdana, arial, sans-serif; font-size: 10px; fill: rgb(0, 0, 0); fill-opacity: 1; white-space: pre; opacity: 1;">chr7</text></g><g class="xtick"><text text-anchor="middle" x="0" y="451" transform="translate(882.48,0)" style="font-family: 'Lucida Grande', 'Open Sans', verdana, arial, sans-serif; font-size: 10px; fill: rgb(0, 0, 0); fill-opacity: 1; white-space: pre; opacity: 1;">chr8</text></g><g class="xtick"><text text-anchor="middle" x="0" y="451" transform="translate(930.86,0)" style="font-family: 'Lucida Grande', 'Open Sans', verdana, arial, sans-serif; font-size: 10px; fill: rgb(0, 0, 0); fill-opacity: 1; white-space: pre; opacity: 1;">chr9</text></g><g class="xtick"><text text-anchor="middle" x="0" y="451" transform="translate(979.24,0)" style="font-family: 'Lucida Grande', 'Open Sans', verdana, arial, sans-serif; font-size: 10px; fill: rgb(0, 0, 0); fill-opacity: 1; white-space: pre; opacity: 1;">chrM</text></g><g class="xtick"><text text-anchor="middle" x="0" y="451" transform="translate(1027.62,0)" style="font-family: 'Lucida Grande', 'Open Sans', verdana, arial, sans-serif; font-size: 10px; fill: rgb(0, 0, 0); fill-opacity: 1; white-space: pre; opacity: 1;">chrX</text></g><g class="xtick"><text text-anchor="middle" x="0" y="451" transform="translate(1076,0)" style="font-family: 'Lucida Grande', 'Open Sans', verdana, arial, sans-serif; font-size: 10px; fill: rgb(0, 0, 0); fill-opacity: 1; white-space: pre; opacity: 1;">chrY</text></g></g><g class="yaxislayer-above"><g class="ytick"><text text-anchor="end" x="54" y="3.5" transform="translate(0,415.95)" style="font-family: 'Lucida Grande', 'Open Sans', verdana, arial, sans-serif; font-size: 10px; fill: rgb(0, 0, 0); fill-opacity: 1; white-space: pre; opacity: 1;">0</text></g><g class="ytick"><text text-anchor="end" x="54" y="3.5" style="font-family: 'Lucida Grande', 'Open Sans', verdana, arial, sans-serif; font-size: 10px; fill: rgb(0, 0, 0); fill-opacity: 1; white-space: pre; opacity: 1;" transform="translate(0,370.08)">0.1</text></g><g class="ytick"><text text-anchor="end" x="54" y="3.5" style="font-family: 'Lucida Grande', 'Open Sans', verdana, arial, sans-serif; font-size: 10px; fill: rgb(0, 0, 0); fill-opacity: 1; white-space: pre; opacity: 1;" transform="translate(0,324.21)">0.2</text></g><g class="ytick"><text text-anchor="end" x="54" y="3.5" style="font-family: 'Lucida Grande', 'Open Sans', verdana, arial, sans-serif; font-size: 10px; fill: rgb(0, 0, 0); fill-opacity: 1; white-space: pre; opacity: 1;" transform="translate(0,278.33000000000004)">0.3</text></g><g class="ytick"><text text-anchor="end" x="54" y="3.5" style="font-family: 'Lucida Grande', 'Open Sans', verdana, arial, sans-serif; font-size: 10px; fill: rgb(0, 0, 0); fill-opacity: 1; white-space: pre; opacity: 1;" transform="translate(0,232.46)">0.4</text></g><g class="ytick"><text text-anchor="end" x="54" y="3.5" style="font-family: 'Lucida Grande', 'Open Sans', verdana, arial, sans-serif; font-size: 10px; fill: rgb(0, 0, 0); fill-opacity: 1; white-space: pre; opacity: 1;" transform="translate(0,186.58)">0.5</text></g><g class="ytick"><text text-anchor="end" x="54" y="3.5" style="font-family: 'Lucida Grande', 'Open Sans', verdana, arial, sans-serif; font-size: 10px; fill: rgb(0, 0, 0); fill-opacity: 1; white-space: pre; opacity: 1;" transform="translate(0,140.70999999999998)">0.6</text></g><g class="ytick"><text text-anchor="end" x="54" y="3.5" style="font-family: 'Lucida Grande', 'Open Sans', verdana, arial, sans-serif; font-size: 10px; fill: rgb(0, 0, 0); fill-opacity: 1; white-space: pre; opacity: 1;" transform="translate(0,94.84)">0.7</text></g></g><g class="overaxes-above"/></g></g><g class="polarlayer"/><g class="smithlayer"/><g class="ternarylayer"/><g class="geolayer"/><g class="funnelarealayer"/><g class="pielayer"/><g class="iciclelayer"/><g class="treemaplayer"/><g class="sunburstlayer"/><g class="glimages"/><defs id="topdefs-c419e7"><g class="clips"/></defs><g class="layer-above"><g class="imagelayer"/><g class="shapelayer"/></g><g class="infolayer"><g class="g-gtitle"><text class="gtitle" x="550" y="25" text-anchor="middle" dy="0em" style="opacity: 1; font-family: 'Lucida Grande', 'Open Sans', verdana, arial, sans-serif; font-size: 20px; fill: rgb(42, 63, 95); fill-opacity: 1; white-space: pre;"><tspan class="line" dy="0em" x="550" y="25">Samtools: idxstats: Mapped reads per contig</tspan><tspan class="line" dy="1.3em" x="550" y="25">​<tspan style="font-size:70%" dy="-0.6em">Normalised Counts, 25 samples</tspan><tspan dy="0.42em">​</tspan></tspan></text></g><g class="g-xtitle"><text class="xtitle" x="568" y="472.3" text-anchor="middle" style="opacity: 0.3; font-family: 'Lucida Grande', 'Open Sans', verdana, arial, sans-serif; font-size: 14px; fill: rgb(0, 0, 0); fill-opacity: 1; white-space: pre;">Chromosome name</text></g><g class="g-ytitle"><text class="ytitle" transform="rotate(-90,23.69375,242.5)" x="23.69375" y="242.5" text-anchor="middle" style="opacity: 0.3; font-family: 'Lucida Grande', 'Open Sans', verdana, arial, sans-serif; font-size: 14px; fill: rgb(0, 0, 0); fill-opacity: 1; white-space: pre;">Fraction of total count</text></g></g></svg>