<svg class="main-svg" xmlns="http://www.w3.org/2000/svg" xmlns:xlink="http://www.w3.org/1999/xlink" width="2200" height="1000" style="" viewBox="0 0 1100 500"><rect x="0" y="0" width="1100" height="500" style="fill: rgb(255, 255, 255); fill-opacity: 1;"/><defs id="defs-5fa04f"><g class="clips"><clipPath id="clip5fa04fxyplot" class="plotclip"><rect width="1005" height="385"/></clipPath><clipPath class="axesclip" id="clip5fa04fx"><rect x="71" y="0" width="1005" height="500"/></clipPath><clipPath class="axesclip" id="clip5fa04fy"><rect x="0" y="50" width="1100" height="385"/></clipPath><clipPath class="axesclip" id="clip5fa04fxy"><rect x="71" y="50" width="1005" height="385"/></clipPath></g><g class="gradients"/><g class="patterns"/></defs><g class="bglayer"/><g class="layer-below"><g class="imagelayer"/><g class="shapelayer"/></g><g class="cartesianlayer"><g class="subplot xy"><g class="layer-subplot"><g class="shapelayer"/><g class="imagelayer"/></g><g class="minor-gridlayer"><g class="x"/><g class="y"/></g><g class="gridlayer"><g class="x"><path class="xgrid crisp" transform="translate(118.86,0)" d="M0,50v385" style="stroke: rgb(0, 0, 0); stroke-opacity: 0.05; stroke-width: 1px;"/><path class="xgrid crisp" transform="translate(166.70999999999998,0)" d="M0,50v385" style="stroke: rgb(0, 0, 0); stroke-opacity: 0.05; stroke-width: 1px;"/><path class="xgrid crisp" transform="translate(214.57,0)" d="M0,50v385" style="stroke: rgb(0, 0, 0); stroke-opacity: 0.05; stroke-width: 1px;"/><path class="xgrid crisp" transform="translate(262.43,0)" d="M0,50v385" style="stroke: rgb(0, 0, 0); stroke-opacity: 0.05; stroke-width: 1px;"/><path class="xgrid crisp" transform="translate(310.28999999999996,0)" d="M0,50v385" style="stroke: rgb(0, 0, 0); stroke-opacity: 0.05; stroke-width: 1px;"/><path class="xgrid crisp" transform="translate(358.14,0)" d="M0,50v385" style="stroke: rgb(0, 0, 0); stroke-opacity: 0.05; stroke-width: 1px;"/><path class="xgrid crisp" transform="translate(406,0)" d="M0,50v385" style="stroke: rgb(0, 0, 0); stroke-opacity: 0.05; stroke-width: 1px;"/><path class="xgrid crisp" transform="translate(453.86,0)" d="M0,50v385" style="stroke: rgb(0, 0, 0); stroke-opacity: 0.05; stroke-width: 1px;"/><path class="xgrid crisp" transform="translate(501.71,0)" d="M0,50v385" style="stroke: rgb(0, 0, 0); stroke-opacity: 0.05; stroke-width: 1px;"/><path class="xgrid crisp" transform="translate(549.5699999999999,0)" d="M0,50v385" style="stroke: rgb(0, 0, 0); stroke-opacity: 0.05; stroke-width: 1px;"/><path class="xgrid crisp" transform="translate(597.43,0)" d="M0,50v385" style="stroke: rgb(0, 0, 0); stroke-opacity: 0.05; stroke-width: 1px;"/><path class="xgrid crisp" transform="translate(645.29,0)" d="M0,50v385" style="stroke: rgb(0, 0, 0); stroke-opacity: 0.05; stroke-width: 1px;"/><path class="xgrid crisp" transform="translate(693.14,0)" d="M0,50v385" style="stroke: rgb(0, 0, 0); stroke-opacity: 0.05; stroke-width: 1px;"/><path class="xgrid crisp" transform="translate(741,0)" d="M0,50v385" style="stroke: rgb(0, 0, 0); stroke-opacity: 0.05; stroke-width: 1px;"/><path class="xgrid crisp" transform="translate(788.86,0)" d="M0,50v385" style="stroke: rgb(0, 0, 0); stroke-opacity: 0.05; stroke-width: 1px;"/><path class="xgrid crisp" transform="translate(836.71,0)" d="M0,50v385" style="stroke: rgb(0, 0, 0); stroke-opacity: 0.05; stroke-width: 1px;"/><path class="xgrid crisp" transform="translate(884.57,0)" d="M0,50v385" style="stroke: rgb(0, 0, 0); stroke-opacity: 0.05; stroke-width: 1px;"/><path class="xgrid crisp" transform="translate(932.43,0)" d="M0,50v385" style="stroke: rgb(0, 0, 0); stroke-opacity: 0.05; stroke-width: 1px;"/><path class="xgrid crisp" transform="translate(980.29,0)" d="M0,50v385" style="stroke: rgb(0, 0, 0); stroke-opacity: 0.05; stroke-width: 1px;"/><path class="xgrid crisp" transform="translate(1028.1399999999999,0)" d="M0,50v385" style="stroke: rgb(0, 0, 0); stroke-opacity: 0.05; stroke-width: 1px;"/></g><g class="y"><path class="ygrid crisp" transform="translate(0,410.29)" d="M71,0h1005" style="stroke: rgb(0, 0, 0); stroke-opacity: 0.05; stroke-width: 1px;"/><path class="ygrid crisp" transform="translate(0,378)" d="M71,0h1005" style="stroke: rgb(0, 0, 0); stroke-opacity: 0.05; stroke-width: 1px;"/><path class="ygrid crisp" transform="translate(0,345.71)" d="M71,0h1005" style="stroke: rgb(0, 0, 0); stroke-opacity: 0.05; stroke-width: 1px;"/><path class="ygrid crisp" transform="translate(0,303.02)" d="M71,0h1005" style="stroke: rgb(0, 0, 0); stroke-opacity: 0.05; stroke-width: 1px;"/><path class="ygrid crisp" transform="translate(0,270.73)" d="M71,0h1005" style="stroke: rgb(0, 0, 0); stroke-opacity: 0.05; stroke-width: 1px;"/><path class="ygrid crisp" transform="translate(0,238.44)" d="M71,0h1005" style="stroke: rgb(0, 0, 0); stroke-opacity: 0.05; stroke-width: 1px;"/><path class="ygrid crisp" transform="translate(0,195.76)" d="M71,0h1005" style="stroke: rgb(0, 0, 0); stroke-opacity: 0.05; stroke-width: 1px;"/><path class="ygrid crisp" transform="translate(0,163.47)" d="M71,0h1005" style="stroke: rgb(0, 0, 0); stroke-opacity: 0.05; stroke-width: 1px;"/><path class="ygrid crisp" transform="translate(0,131.18)" d="M71,0h1005" style="stroke: rgb(0, 0, 0); stroke-opacity: 0.05; stroke-width: 1px;"/><path class="ygrid crisp" transform="translate(0,88.5)" d="M71,0h1005" style="stroke: rgb(0, 0, 0); stroke-opacity: 0.05; stroke-width: 1px;"/><path class="ygrid crisp" transform="translate(0,56.21)" d="M71,0h1005" style="stroke: rgb(0, 0, 0); stroke-opacity: 0.05; stroke-width: 1px;"/></g></g><g class="zerolinelayer"/><g class="layer-between"><g class="shapelayer"/><g class="imagelayer"/></g><path class="xlines-below"/><path class="ylines-below"/><g class="overlines-below"/><g class="xaxislayer-below"/><g class="yaxislayer-below"/><g class="overaxes-below"/><g class="overplot"><g class="xy" transform="translate(71,50)" clip-path="url(#clip5fa04fxyplot)"><g class="scatterlayer mlayer"><g class="trace scatter trace9e733f" style="stroke-miterlimit: 2; opacity: 1;"><g class="fills"/><g class="errorbars"/><g class="lines"><path class="js-line" d="M0,204.28L47.86,174.78L95.71,34.47L143.57,223.65L191.43,219.41L239.29,214.46L287.14,230.8L335,108.93L382.86,240.03L430.71,219.38L478.57,174.69L526.43,191.35L574.29,218L622.14,195.26L670,190.74L717.86,140.3L765.71,190.56L813.57,205.98L861.43,192.47L909.29,156.5L957.14,235.27L1005,358.75" style="vector-effect: none; fill: none; stroke: rgb(124, 181, 236); stroke-opacity: 1; stroke-width: 2px; opacity: 1;"/></g><g class="points"/><g class="text"/></g><g class="trace scatter traced8cec7" style="stroke-miterlimit: 2; opacity: 1;"><g class="fills"/><g class="errorbars"/><g class="lines"><path class="js-line" d="M0,258.49L47.86,212.03L95.71,19.25L143.57,276.21L191.43,305.03L239.29,284.54L287.14,280.83L335,109.94L382.86,288.7L430.71,276.61L478.57,229.29L526.43,254.04L574.29,288.39L622.14,220.67L670,237.6L717.86,151.53L765.71,250.76L813.57,241.65L861.43,263.16L909.29,224.24L957.14,290.25L1005,347.78" style="vector-effect: none; fill: none; stroke: rgb(67, 67, 72); stroke-opacity: 1; stroke-width: 2px; opacity: 1;"/></g><g class="points"/><g class="text"/></g><g class="trace scatter traced47232" style="stroke-miterlimit: 2; opacity: 1;"><g class="fills"/><g class="errorbars"/><g class="lines"><path class="js-line" d="M0,256.68L47.86,212.36L95.71,21.5L143.57,274.83L191.43,275.01L239.29,264.28L287.14,278.49L335,100.77L382.86,288.38L430.71,268L478.57,219.78L526.43,241.25L574.29,270.31L622.14,223.55L670,245.88L717.86,152.29L765.71,247.49L813.57,237.67L861.43,240.84L909.29,213.95L957.14,280.91L1005,345.68" style="vector-effect: none; fill: none; stroke: rgb(144, 237, 125); stroke-opacity: 1; stroke-width: 2px; opacity: 1;"/></g><g class="points"/><g class="text"/></g><g class="trace scatter traced359ea" style="stroke-miterlimit: 2; opacity: 1;"><g class="fills"/><g class="errorbars"/><g class="lines"><path class="js-line" d="M0,202.47L47.86,166.11L95.71,53L143.57,216.19L191.43,213.84L239.29,205.32L287.14,222.4L335,105.8L382.86,227.04L430.71,188.27L478.57,130.22L526.43,178.82L574.29,205.65L622.14,181.64L670,187.13L717.86,161.68L765.71,187.69L813.57,191.36L861.43,192.17L909.29,97.65L957.14,233.61L1005,343.85" style="vector-effect: none; fill: none; stroke: rgb(247, 163, 92); stroke-opacity: 1; stroke-width: 2px; opacity: 1;"/></g><g class="points"/><g class="text"/></g><g class="trace scatter trace55ecd8" style="stroke-miterlimit: 2; opacity: 1;"><g class="fills"/><g class="errorbars"/><g class="lines"><path class="js-line" d="M0,222.73L47.86,185.7L95.71,28.57L143.57,240.77L191.43,234.82L239.29,233.46L287.14,246.49L335,131.83L382.86,255.06L430.71,232.98L478.57,157.19L526.43,207.44L574.29,235.11L622.14,203.84L670,212.84L717.86,156.87L765.71,214.62L813.57,218.09L861.43,209.46L909.29,125.4L957.14,251.02L1005,352.01" style="vector-effect: none; fill: none; stroke: rgb(128, 133, 233); stroke-opacity: 1; stroke-width: 2px; opacity: 1;"/></g><g class="points"/><g class="text"/></g><g class="trace scatter trace0a0bec" style="stroke-miterlimit: 2; opacity: 1;"><g class="fills"/><g class="errorbars"/><g class="lines"><path class="js-line" d="M0,188.94L47.86,160.67L95.71,53.8L143.57,197.07L191.43,197.14L239.29,194.97L287.14,211.08L335,93.81L382.86,212.7L430.71,191.24L478.57,153.01L526.43,167.3L574.29,187.36L622.14,162.07L670,175.82L717.86,154.19L765.71,178.73L813.57,177.68L861.43,175.22L909.29,144.96L957.14,216.3L1005,306.73" style="vector-effect: none; fill: none; stroke: rgb(241, 92, 128); stroke-opacity: 1; stroke-width: 2px; opacity: 1;"/></g><g class="points"/><g class="text"/></g><g class="trace scatter trace4bfe43" style="stroke-miterlimit: 2; opacity: 1;"><g class="fills"/><g class="errorbars"/><g class="lines"><path class="js-line" d="M0,224.94L47.86,193.49L95.71,31.4L143.57,240.94L191.43,242.87L239.29,237.58L287.14,254.53L335,119.73L382.86,260.7L430.71,242.63L478.57,157.82L526.43,211.52L574.29,242.98L622.14,181.34L670,214.44L717.86,152.79L765.71,218.22L813.57,194.39L861.43,209.49L909.29,120.41L957.14,254.1L1005,306.36" style="vector-effect: none; fill: none; stroke: rgb(228, 211, 84); stroke-opacity: 1; stroke-width: 2px; opacity: 1;"/></g><g class="points"/><g class="text"/></g><g class="trace scatter tracee83862" style="stroke-miterlimit: 2; opacity: 1;"><g class="fills"/><g class="errorbars"/><g class="lines"><path class="js-line" d="M0,158.27L47.86,137.87L95.71,100.24L143.57,173.75L191.43,171.5L239.29,167.84L287.14,178.06L335,105.3L382.86,181.52L430.71,161.16L478.57,136.83L526.43,141.48L574.29,164.07L622.14,150.73L670,148.85L717.86,145.34L765.71,153.18L813.57,158.36L861.43,147.76L909.29,164.13L957.14,182.35L1005,283.63" style="vector-effect: none; fill: none; stroke: rgb(43, 144, 143); stroke-opacity: 1; stroke-width: 2px; opacity: 1;"/></g><g class="points"/><g class="text"/></g><g class="trace scatter trace90cf58" style="stroke-miterlimit: 2; opacity: 1;"><g class="fills"/><g class="errorbars"/><g class="lines"><path class="js-line" d="M0,193.86L47.86,166.71L95.71,49.24L143.57,208.77L191.43,212.91L239.29,202.73L287.14,211.85L335,95.18L382.86,217.79L430.71,192.62L478.57,148.65L526.43,177.85L574.29,201.39L622.14,171.09L670,182.34L717.86,149.84L765.71,188L861.43,184.63L909.29,133.32L1005,307.36" style="vector-effect: none; fill: none; stroke: rgb(244, 91, 91); stroke-opacity: 1; stroke-width: 2px; opacity: 1;"/></g><g class="points"/><g class="text"/></g><g class="trace scatter tracec9456c" style="stroke-miterlimit: 2; opacity: 1;"><g class="fills"/><g class="errorbars"/><g class="lines"><path class="js-line" d="M0,202.24L47.86,177.04L95.71,34.82L143.57,224.59L191.43,217.5L239.29,210.27L287.14,233.84L335,133.73L382.86,240.92L430.71,215.04L478.57,158.65L526.43,189.99L574.29,218.01L622.14,186.16L670,190.05L717.86,146.95L765.71,192.07L813.57,200.77L861.43,185.02L909.29,126.52L957.14,235.3L1005,339.7" style="vector-effect: none; fill: none; stroke: rgb(145, 232, 225); stroke-opacity: 1; stroke-width: 2px; opacity: 1;"/></g><g class="points"/><g class="text"/></g><g class="trace scatter trace2dde1a" style="stroke-miterlimit: 2; opacity: 1;"><g class="fills"/><g class="errorbars"/><g class="lines"><path class="js-line" d="M0,223.79L47.86,190.8L95.71,29.53L143.57,234.47L191.43,239.81L239.29,232.5L287.14,250.84L335,123.75L382.86,257.37L430.71,235.03L478.57,167.57L526.43,206.03L574.29,241.58L622.14,183.12L670,208.29L717.86,150.35L765.71,211.49L813.57,199.25L861.43,207.47L909.29,132.65L957.14,252.91L1005,307.43" style="vector-effect: none; fill: none; stroke: rgb(124, 181, 236); stroke-opacity: 1; stroke-width: 2px; opacity: 1;"/></g><g class="points"/><g class="text"/></g><g class="trace scatter trace089730" style="stroke-miterlimit: 2; opacity: 1;"><g class="fills"/><g class="errorbars"/><g class="lines"><path class="js-line" d="M0,214.22L47.86,179.18L95.71,40.64L143.57,232.42L191.43,231.07L239.29,224.89L287.14,247.23L335,132.18L382.86,253.85L430.71,228.94L478.57,135.05L526.43,198.22L574.29,230.09L622.14,180.96L670,201.15L717.86,159.83L765.71,203.22L813.57,195.91L861.43,192.94L909.29,93.08L957.14,240.15L1005,309.07" style="vector-effect: none; fill: none; stroke: rgb(67, 67, 72); stroke-opacity: 1; stroke-width: 2px; opacity: 1;"/></g><g class="points"/><g class="text"/></g><g class="trace scatter trace343ef3" style="stroke-miterlimit: 2; opacity: 1;"><g class="fills"/><g class="errorbars"/><g class="lines"><path class="js-line" d="M0,191.52L47.86,160.65L95.71,42.81L143.57,208.12L191.43,210.32L239.29,203.06L287.14,216.5L335,113.6L382.86,217.31L430.71,189.55L478.57,154.46L526.43,176.67L574.29,210.52L622.14,170.06L670,177.38L717.86,154.44L765.71,185.15L813.57,191.61L861.43,185.77L909.29,138.07L957.14,221.73L1005,303.27" style="vector-effect: none; fill: none; stroke: rgb(144, 237, 125); stroke-opacity: 1; stroke-width: 2px; opacity: 1;"/></g><g class="points"/><g class="text"/></g><g class="trace scatter trace28ad2c" style="stroke-miterlimit: 2; opacity: 1;"><g class="fills"/><g class="errorbars"/><g class="lines"><path class="js-line" d="M0,224.67L47.86,186.15L95.71,27.2L143.57,243.84L191.43,239.95L239.29,239.95L287.14,256.41L335,153.86L382.86,257.18L430.71,233.04L478.57,157.34L526.43,212.78L574.29,242.35L622.14,205.97L670,216.06L717.86,147.08L765.71,219.18L813.57,225.07L861.43,208.9L909.29,120.57L957.14,253.7L1005,349.48" style="vector-effect: none; fill: none; stroke: rgb(247, 163, 92); stroke-opacity: 1; stroke-width: 2px; opacity: 1;"/></g><g class="points"/><g class="text"/></g><g class="trace scatter trace0a4a80" style="stroke-miterlimit: 2; opacity: 1;"><g class="fills"/><g class="errorbars"/><g class="lines"><path class="js-line" d="M0,193.58L47.86,166.01L95.71,46.69L143.57,210.2L191.43,207.05L239.29,199.41L287.14,207.54L335,87.16L382.86,215.88L430.71,195.19L478.57,167.97L526.43,175.98L574.29,201.68L622.14,168.82L670,179.51L717.86,151.55L765.71,185.44L813.57,182.19L861.43,183.98L909.29,186.44L957.14,214.19L1005,314.23" style="vector-effect: none; fill: none; stroke: rgb(128, 133, 233); stroke-opacity: 1; stroke-width: 2px; opacity: 1;"/></g><g class="points"/><g class="text"/></g><g class="trace scatter traceed3a54" style="stroke-miterlimit: 2; opacity: 1;"><g class="fills"/><g class="errorbars"/><g class="lines"><path class="js-line" d="M0,233.07L47.86,202.57L95.71,23.04L143.57,251.01L191.43,253.53L239.29,245.59L287.14,255.27L335,112.04L382.86,268.78L430.71,256.56L478.57,216.38L526.43,221.5L574.29,248.5L622.14,219.5L670,220.38L717.86,142.61L765.71,222.05L813.57,233.49L861.43,220.93L909.29,197.06L957.14,260.88L1005,365.75" style="vector-effect: none; fill: none; stroke: rgb(241, 92, 128); stroke-opacity: 1; stroke-width: 2px; opacity: 1;"/></g><g class="points"/><g class="text"/></g><g class="trace scatter trace300bd2" style="stroke-miterlimit: 2; opacity: 1;"><g class="fills"/><g class="errorbars"/><g class="lines"><path class="js-line" d="M0,221.08L47.86,186.72L95.71,33.79L143.57,233.02L191.43,235.69L239.29,228.62L287.14,242.85L335,94.56L382.86,249.77L430.71,228.17L478.57,170.08L526.43,202.28L574.29,226.7L622.14,184.72L670,206.94L717.86,159.04L765.71,208.55L813.57,199.69L861.43,206.43L909.29,147.77L957.14,250.46L1005,321.29" style="vector-effect: none; fill: none; stroke: rgb(228, 211, 84); stroke-opacity: 1; stroke-width: 2px; opacity: 1;"/></g><g class="points"/><g class="text"/></g><g class="trace scatter traceb87a78" style="stroke-miterlimit: 2; opacity: 1;"><g class="fills"/><g class="errorbars"/><g class="lines"><path class="js-line" d="M0,188.83L47.86,158.3L95.71,46.84L143.57,212.31L191.43,212.69L239.29,203.52L287.14,209.4L335,108.8L382.86,218.69L430.71,200.06L478.57,146.24L526.43,178.76L574.29,206.61L622.14,172.06L670,174.88L717.86,149.57L765.71,183.52L813.57,190.18L861.43,183.55L909.29,129.35L957.14,214.86L1005,320.27" style="vector-effect: none; fill: none; stroke: rgb(43, 144, 143); stroke-opacity: 1; stroke-width: 2px; opacity: 1;"/></g><g class="points"/><g class="text"/></g><g class="trace scatter trace61911a" style="stroke-miterlimit: 2; opacity: 1;"><g class="fills"/><g class="errorbars"/><g class="lines"><path class="js-line" d="M0,202.71L47.86,171.91L95.71,43.21L143.57,224.54L191.43,226.96L239.29,218.36L287.14,229.61L335,123.59L382.86,237.2L430.71,215.69L478.57,132.87L526.43,192.54L574.29,217.3L622.14,181.91L670,191.76L717.86,157.65L765.71,195.94L813.57,194.92L861.43,191.37L909.29,100.61L957.14,230.96L1005,323.87" style="vector-effect: none; fill: none; stroke: rgb(244, 91, 91); stroke-opacity: 1; stroke-width: 2px; opacity: 1;"/></g><g class="points"/><g class="text"/></g><g class="trace scatter traceb73fe4" style="stroke-miterlimit: 2; opacity: 1;"><g class="fills"/><g class="errorbars"/><g class="lines"><path class="js-line" d="M0,207.53L47.86,170.3L95.71,36.89L143.57,229.67L191.43,219.27L239.29,213.75L287.14,232.69L335,114.42L382.86,238.44L430.71,205.46L478.57,157.73L526.43,192.03L574.29,218.87L622.14,185.87L670,197.48L717.86,151.73L765.71,197.06L813.57,202.95L861.43,187.72L909.29,127.78L957.14,231.83L1005,338.67" style="vector-effect: none; fill: none; stroke: rgb(145, 232, 225); stroke-opacity: 1; stroke-width: 2px; opacity: 1;"/></g><g class="points"/><g class="text"/></g><g class="trace scatter trace2a4248" style="stroke-miterlimit: 2; opacity: 1;"><g class="fills"/><g class="errorbars"/><g class="lines"><path class="js-line" d="M0,218.63L47.86,182.17L95.71,30.97L143.57,228.83L191.43,231.1L239.29,228.58L287.14,249.55L335,127.15L382.86,253.16L430.71,231.71L478.57,162.22L526.43,201.27L574.29,235.1L622.14,193.75L670,205.84L717.86,152.74L765.71,205.87L813.57,212.76L861.43,201.95L909.29,122.9L957.14,246.25L1005,331.22" style="vector-effect: none; fill: none; stroke: rgb(124, 181, 236); stroke-opacity: 1; stroke-width: 2px; opacity: 1;"/></g><g class="points"/><g class="text"/></g><g class="trace scatter tracebc6bde" style="stroke-miterlimit: 2; opacity: 1;"><g class="fills"/><g class="errorbars"/><g class="lines"><path class="js-line" d="M0,240.02L47.86,195.91L95.71,26.1L143.57,262.29L191.43,258L239.29,244.66L287.14,268.48L335,109.05L382.86,281.1L430.71,246.4L478.57,177.65L526.43,222.66L574.29,256.62L622.14,217.1L670,227.46L717.86,158.37L765.71,229.05L813.57,234.79L861.43,216.12L909.29,137.92L957.14,267.61L1005,348.26" style="vector-effect: none; fill: none; stroke: rgb(67, 67, 72); stroke-opacity: 1; stroke-width: 2px; opacity: 1;"/></g><g class="points"/><g class="text"/></g><g class="trace scatter trace2493c5" style="stroke-miterlimit: 2; opacity: 1;"><g class="fills"/><g class="errorbars"/><g class="lines"><path class="js-line" d="M0,162.39L47.86,141.19L95.71,75.76L143.57,185.67L191.43,168.84L239.29,169.72L287.14,185.4L335,125.11L382.86,193.46L430.71,151.45L478.57,141.44L526.43,149.44L574.29,171.41L622.14,152.55L670,156.47L717.86,148.98L765.71,157.06L813.57,171.4L861.43,148.23L909.29,148.55L957.14,190.96L1005,322.47" style="vector-effect: none; fill: none; stroke: rgb(144, 237, 125); stroke-opacity: 1; stroke-width: 2px; opacity: 1;"/></g><g class="points"/><g class="text"/></g><g class="trace scatter traceab0624" style="stroke-miterlimit: 2; opacity: 1;"><g class="fills"/><g class="errorbars"/><g class="lines"><path class="js-line" d="M0,212.23L47.86,177.15L95.71,33.27L143.57,235.18L191.43,231.85L239.29,224.78L287.14,245.99L335,137.93L382.86,251.02L430.71,228.82L478.57,150.45L526.43,201.34L574.29,229.1L622.14,197.4L670,200.26L717.86,146.3L765.71,204.51L813.57,213.35L861.43,195.3L909.29,113.6L957.14,241.38L1005,341.74" style="vector-effect: none; fill: none; stroke: rgb(247, 163, 92); stroke-opacity: 1; stroke-width: 2px; opacity: 1;"/></g><g class="points"/><g class="text"/></g><g class="trace scatter trace9c28ae" style="stroke-miterlimit: 2; opacity: 1;"><g class="fills"/><g class="errorbars"/><g class="lines"><path class="js-line" d="M0,207.22L47.86,174.21L95.71,41.69L143.57,219.04L191.43,221.61L239.29,212.27L287.14,225.05L335,90.37L382.86,233.82L430.71,208.42L478.57,163.9L526.43,186.17L574.29,210.12L622.14,180.11L670,194.58L717.86,148.68L765.71,196.63L813.57,198.36L861.43,193.36L909.29,144.86L957.14,233.37L1005,321.38" style="vector-effect: none; fill: none; stroke: rgb(128, 133, 233); stroke-opacity: 1; stroke-width: 2px; opacity: 1;"/></g><g class="points"/><g class="text"/></g></g></g></g><path class="xlines-above crisp" d="M0,0" style="fill: none;"/><path class="ylines-above crisp" d="M0,0" style="fill: none;"/><g class="overlines-above"/><g class="xaxislayer-above"><g class="xtick"><text text-anchor="middle" x="0" y="451" transform="translate(71,0)" style="font-family: 'Lucida Grande', 'Open Sans', verdana, arial, sans-serif; font-size: 10px; fill: rgb(0, 0, 0); fill-opacity: 1; white-space: pre; opacity: 1;">chr10</text></g><g class="xtick"><text text-anchor="middle" x="0" y="451" transform="translate(118.86,0)" style="font-family: 'Lucida Grande', 'Open Sans', verdana, arial, sans-serif; font-size: 10px; fill: rgb(0, 0, 0); fill-opacity: 1; white-space: pre; opacity: 1;">chr11</text></g><g class="xtick"><text text-anchor="middle" x="0" y="451" transform="translate(166.70999999999998,0)" style="font-family: 'Lucida Grande', 'Open Sans', verdana, arial, sans-serif; font-size: 10px; fill: rgb(0, 0, 0); fill-opacity: 1; white-space: pre; opacity: 1;">chr12</text></g><g class="xtick"><text text-anchor="middle" x="0" y="451" transform="translate(214.57,0)" style="font-family: 'Lucida Grande', 'Open Sans', verdana, arial, sans-serif; font-size: 10px; fill: rgb(0, 0, 0); fill-opacity: 1; white-space: pre; opacity: 1;">chr13</text></g><g class="xtick"><text text-anchor="middle" x="0" y="451" transform="translate(262.43,0)" style="font-family: 'Lucida Grande', 'Open Sans', verdana, arial, sans-serif; font-size: 10px; fill: rgb(0, 0, 0); fill-opacity: 1; white-space: pre; opacity: 1;">chr14</text></g><g class="xtick"><text text-anchor="middle" x="0" y="451" transform="translate(310.28999999999996,0)" style="font-family: 'Lucida Grande', 'Open Sans', verdana, arial, sans-serif; font-size: 10px; fill: rgb(0, 0, 0); fill-opacity: 1; white-space: pre; opacity: 1;">chr15</text></g><g class="xtick"><text text-anchor="middle" x="0" y="451" transform="translate(358.14,0)" style="font-family: 'Lucida Grande', 'Open Sans', verdana, arial, sans-serif; font-size: 10px; fill: rgb(0, 0, 0); fill-opacity: 1; white-space: pre; opacity: 1;">chr16</text></g><g class="xtick"><text text-anchor="middle" x="0" y="451" transform="translate(406,0)" style="font-family: 'Lucida Grande', 'Open Sans', verdana, arial, sans-serif; font-size: 10px; fill: rgb(0, 0, 0); fill-opacity: 1; white-space: pre; opacity: 1;">chr17</text></g><g class="xtick"><text text-anchor="middle" x="0" y="451" transform="translate(453.86,0)" style="font-family: 'Lucida Grande', 'Open Sans', verdana, arial, sans-serif; font-size: 10px; fill: rgb(0, 0, 0); fill-opacity: 1; white-space: pre; opacity: 1;">chr18</text></g><g class="xtick"><text text-anchor="middle" x="0" y="451" transform="translate(501.71,0)" style="font-family: 'Lucida Grande', 'Open Sans', verdana, arial, sans-serif; font-size: 10px; fill: rgb(0, 0, 0); fill-opacity: 1; white-space: pre; opacity: 1;">chr19</text></g><g class="xtick"><text text-anchor="middle" x="0" y="451" transform="translate(549.5699999999999,0)" style="font-family: 'Lucida Grande', 'Open Sans', verdana, arial, sans-serif; font-size: 10px; fill: rgb(0, 0, 0); fill-opacity: 1; white-space: pre; opacity: 1;">chr1</text></g><g class="xtick"><text text-anchor="middle" x="0" y="451" transform="translate(597.43,0)" style="font-family: 'Lucida Grande', 'Open Sans', verdana, arial, sans-serif; font-size: 10px; fill: rgb(0, 0, 0); fill-opacity: 1; white-space: pre; opacity: 1;">chr2</text></g><g class="xtick"><text text-anchor="middle" x="0" y="451" transform="translate(645.29,0)" style="font-family: 'Lucida Grande', 'Open Sans', verdana, arial, sans-serif; font-size: 10px; fill: rgb(0, 0, 0); fill-opacity: 1; white-space: pre; opacity: 1;">chr3</text></g><g class="xtick"><text text-anchor="middle" x="0" y="451" transform="translate(693.14,0)" style="font-family: 'Lucida Grande', 'Open Sans', verdana, arial, sans-serif; font-size: 10px; fill: rgb(0, 0, 0); fill-opacity: 1; white-space: pre; opacity: 1;">chr4</text></g><g class="xtick"><text text-anchor="middle" x="0" y="451" transform="translate(741,0)" style="font-family: 'Lucida Grande', 'Open Sans', verdana, arial, sans-serif; font-size: 10px; fill: rgb(0, 0, 0); fill-opacity: 1; white-space: pre; opacity: 1;">chr5</text></g><g class="xtick"><text text-anchor="middle" x="0" y="451" transform="translate(788.86,0)" style="font-family: 'Lucida Grande', 'Open Sans', verdana, arial, sans-serif; font-size: 10px; fill: rgb(0, 0, 0); fill-opacity: 1; white-space: pre; opacity: 1;">chr6</text></g><g class="xtick"><text text-anchor="middle" x="0" y="451" transform="translate(836.71,0)" style="font-family: 'Lucida Grande', 'Open Sans', verdana, arial, sans-serif; font-size: 10px; fill: rgb(0, 0, 0); fill-opacity: 1; white-space: pre; opacity: 1;">chr7</text></g><g class="xtick"><text text-anchor="middle" x="0" y="451" transform="translate(884.57,0)" style="font-family: 'Lucida Grande', 'Open Sans', verdana, arial, sans-serif; font-size: 10px; fill: rgb(0, 0, 0); fill-opacity: 1; white-space: pre; opacity: 1;">chr8</text></g><g class="xtick"><text text-anchor="middle" x="0" y="451" transform="translate(932.43,0)" style="font-family: 'Lucida Grande', 'Open Sans', verdana, arial, sans-serif; font-size: 10px; fill: rgb(0, 0, 0); fill-opacity: 1; white-space: pre; opacity: 1;">chr9</text></g><g class="xtick"><text text-anchor="middle" x="0" y="451" transform="translate(980.29,0)" style="font-family: 'Lucida Grande', 'Open Sans', verdana, arial, sans-serif; font-size: 10px; fill: rgb(0, 0, 0); fill-opacity: 1; white-space: pre; opacity: 1;">chrM</text></g><g class="xtick"><text text-anchor="middle" x="0" y="451" transform="translate(1028.1399999999999,0)" style="font-family: 'Lucida Grande', 'Open Sans', verdana, arial, sans-serif; font-size: 10px; fill: rgb(0, 0, 0); fill-opacity: 1; white-space: pre; opacity: 1;">chrX</text></g><g class="xtick"><text text-anchor="middle" x="0" y="451" transform="translate(1076,0)" style="font-family: 'Lucida Grande', 'Open Sans', verdana, arial, sans-serif; font-size: 10px; fill: rgb(0, 0, 0); fill-opacity: 1; white-space: pre; opacity: 1;">chrY</text></g></g><g class="yaxislayer-above"><g class="ytick"><text text-anchor="end" x="65" y="2.625" transform="translate(0,410.29)" style="font-family: 'Lucida Grande', 'Open Sans', verdana, arial, sans-serif; font-size: 7.5px; fill: rgb(0, 0, 0); fill-opacity: 1; white-space: pre; opacity: 1;">5</text></g><g class="ytick"><text text-anchor="end" x="65" y="3.5" style="font-family: 'Lucida Grande', 'Open Sans', verdana, arial, sans-serif; font-size: 10px; fill: rgb(0, 0, 0); fill-opacity: 1; white-space: pre; opacity: 1;" transform="translate(0,378)">0.001</text></g><g class="ytick"><text text-anchor="end" x="65" y="2.625" style="font-family: 'Lucida Grande', 'Open Sans', verdana, arial, sans-serif; font-size: 7.5px; fill: rgb(0, 0, 0); fill-opacity: 1; white-space: pre; opacity: 1;" transform="translate(0,345.71)">2</text></g><g class="ytick"><text text-anchor="end" x="65" y="2.625" style="font-family: 'Lucida Grande', 'Open Sans', verdana, arial, sans-serif; font-size: 7.5px; fill: rgb(0, 0, 0); fill-opacity: 1; white-space: pre; opacity: 1;" transform="translate(0,303.02)">5</text></g><g class="ytick"><text text-anchor="end" x="65" y="3.5" style="font-family: 'Lucida Grande', 'Open Sans', verdana, arial, sans-serif; font-size: 10px; fill: rgb(0, 0, 0); fill-opacity: 1; white-space: pre; opacity: 1;" transform="translate(0,270.73)">0.01</text></g><g class="ytick"><text text-anchor="end" x="65" y="2.625" style="font-family: 'Lucida Grande', 'Open Sans', verdana, arial, sans-serif; font-size: 7.5px; fill: rgb(0, 0, 0); fill-opacity: 1; white-space: pre; opacity: 1;" transform="translate(0,238.44)">2</text></g><g class="ytick"><text text-anchor="end" x="65" y="2.625" style="font-family: 'Lucida Grande', 'Open Sans', verdana, arial, sans-serif; font-size: 7.5px; fill: rgb(0, 0, 0); fill-opacity: 1; white-space: pre; opacity: 1;" transform="translate(0,195.76)">5</text></g><g class="ytick"><text text-anchor="end" x="65" y="3.5" style="font-family: 'Lucida Grande', 'Open Sans', verdana, arial, sans-serif; font-size: 10px; fill: rgb(0, 0, 0); fill-opacity: 1; white-space: pre; opacity: 1;" transform="translate(0,163.47)">0.1</text></g><g class="ytick"><text text-anchor="end" x="65" y="2.625" style="font-family: 'Lucida Grande', 'Open Sans', verdana, arial, sans-serif; font-size: 7.5px; fill: rgb(0, 0, 0); fill-opacity: 1; white-space: pre; opacity: 1;" transform="translate(0,131.18)">2</text></g><g class="ytick"><text text-anchor="end" x="65" y="2.625" style="font-family: 'Lucida Grande', 'Open Sans', verdana, arial, sans-serif; font-size: 7.5px; fill: rgb(0, 0, 0); fill-opacity: 1; white-space: pre; opacity: 1;" transform="translate(0,88.5)">5</text></g><g class="ytick"><text text-anchor="end" x="65" y="3.5" style="font-family: 'Lucida Grande', 'Open Sans', verdana, arial, sans-serif; font-size: 10px; fill: rgb(0, 0, 0); fill-opacity: 1; white-space: pre; opacity: 1;" transform="translate(0,56.21)">1</text></g></g><g class="overaxes-above"/></g></g><g class="polarlayer"/><g class="smithlayer"/><g class="ternarylayer"/><g class="geolayer"/><g class="funnelarealayer"/><g class="pielayer"/><g class="iciclelayer"/><g class="treemaplayer"/><g class="sunburstlayer"/><g class="glimages"/><defs id="topdefs-5fa04f"><g class="clips"/></defs><g class="layer-above"><g class="imagelayer"/><g class="shapelayer"/></g><g class="infolayer"><g class="g-gtitle"><text class="gtitle" x="550" y="25" text-anchor="middle" dy="0em" style="opacity: 1; font-family: 'Lucida Grande', 'Open Sans', verdana, arial, sans-serif; font-size: 20px; fill: rgb(42, 63, 95); fill-opacity: 1; white-space: pre;"><tspan class="line" dy="0em" x="550" y="25">Samtools: idxstats: Mapped reads per contig</tspan><tspan class="line" dy="1.3em" x="550" y="25">​<tspan style="font-size:70%" dy="-0.6em">Normalised Counts, 25 samples</tspan><tspan dy="0.42em">​</tspan></tspan></text></g><g class="g-xtitle"><text class="xtitle" x="573.5" y="472.3" text-anchor="middle" style="opacity: 0.3; font-family: 'Lucida Grande', 'Open Sans', verdana, arial, sans-serif; font-size: 14px; fill: rgb(0, 0, 0); fill-opacity: 1; white-space: pre;">Chromosome name</text></g><g class="g-ytitle"><text class="ytitle" transform="rotate(-90,21.959375,242.5)" x="21.959375" y="242.5" text-anchor="middle" style="opacity: 0.3; font-family: 'Lucida Grande', 'Open Sans', verdana, arial, sans-serif; font-size: 14px; fill: rgb(0, 0, 0); fill-opacity: 1; white-space: pre;">Fraction of total count</text></g></g></svg>