<svg class="main-svg" xmlns="http://www.w3.org/2000/svg" xmlns:xlink="http://www.w3.org/1999/xlink" width="2200" height="1000" style="" viewBox="0 0 1100 500"><rect x="0" y="0" width="1100" height="500" style="fill: rgb(255, 255, 255); fill-opacity: 1;"/><defs id="defs-a66f10"><g class="clips"><clipPath id="clipa66f10xyplot" class="plotclip"><rect width="1012" height="385"/></clipPath><clipPath class="axesclip" id="clipa66f10x"><rect x="64" y="0" width="1012" height="500"/></clipPath><clipPath class="axesclip" id="clipa66f10y"><rect x="0" y="50" width="1100" height="385"/></clipPath><clipPath class="axesclip" id="clipa66f10xy"><rect x="64" y="50" width="1012" height="385"/></clipPath></g><g class="gradients"/><g class="patterns"/></defs><g class="bglayer"/><g class="layer-below"><g class="imagelayer"/><g class="shapelayer"/></g><g class="cartesianlayer"><g class="subplot xy"><g class="layer-subplot"><g class="shapelayer"/><g class="imagelayer"/></g><g class="minor-gridlayer"><g class="x"/><g class="y"/></g><g class="gridlayer"><g class="x"><path class="xgrid crisp" transform="translate(112.19,0)" d="M0,50v385" style="stroke: rgb(0, 0, 0); stroke-opacity: 0.05; stroke-width: 1px;"/><path class="xgrid crisp" transform="translate(160.38,0)" d="M0,50v385" style="stroke: rgb(0, 0, 0); stroke-opacity: 0.05; stroke-width: 1px;"/><path class="xgrid crisp" transform="translate(208.57,0)" d="M0,50v385" style="stroke: rgb(0, 0, 0); stroke-opacity: 0.05; stroke-width: 1px;"/><path class="xgrid crisp" transform="translate(256.76,0)" d="M0,50v385" style="stroke: rgb(0, 0, 0); stroke-opacity: 0.05; stroke-width: 1px;"/><path class="xgrid crisp" transform="translate(304.95,0)" d="M0,50v385" style="stroke: rgb(0, 0, 0); stroke-opacity: 0.05; stroke-width: 1px;"/><path class="xgrid crisp" transform="translate(353.14,0)" d="M0,50v385" style="stroke: rgb(0, 0, 0); stroke-opacity: 0.05; stroke-width: 1px;"/><path class="xgrid crisp" transform="translate(401.33,0)" d="M0,50v385" style="stroke: rgb(0, 0, 0); stroke-opacity: 0.05; stroke-width: 1px;"/><path class="xgrid crisp" transform="translate(449.52,0)" d="M0,50v385" style="stroke: rgb(0, 0, 0); stroke-opacity: 0.05; stroke-width: 1px;"/><path class="xgrid crisp" transform="translate(497.71,0)" d="M0,50v385" style="stroke: rgb(0, 0, 0); stroke-opacity: 0.05; stroke-width: 1px;"/><path class="xgrid crisp" transform="translate(545.9,0)" d="M0,50v385" style="stroke: rgb(0, 0, 0); stroke-opacity: 0.05; stroke-width: 1px;"/><path class="xgrid crisp" transform="translate(594.1,0)" d="M0,50v385" style="stroke: rgb(0, 0, 0); stroke-opacity: 0.05; stroke-width: 1px;"/><path class="xgrid crisp" transform="translate(642.29,0)" d="M0,50v385" style="stroke: rgb(0, 0, 0); stroke-opacity: 0.05; stroke-width: 1px;"/><path class="xgrid crisp" transform="translate(690.48,0)" d="M0,50v385" style="stroke: rgb(0, 0, 0); stroke-opacity: 0.05; stroke-width: 1px;"/><path class="xgrid crisp" transform="translate(738.67,0)" d="M0,50v385" style="stroke: rgb(0, 0, 0); stroke-opacity: 0.05; stroke-width: 1px;"/><path class="xgrid crisp" transform="translate(786.86,0)" d="M0,50v385" style="stroke: rgb(0, 0, 0); stroke-opacity: 0.05; stroke-width: 1px;"/><path class="xgrid crisp" transform="translate(835.05,0)" d="M0,50v385" style="stroke: rgb(0, 0, 0); stroke-opacity: 0.05; stroke-width: 1px;"/><path class="xgrid crisp" transform="translate(883.24,0)" d="M0,50v385" style="stroke: rgb(0, 0, 0); stroke-opacity: 0.05; stroke-width: 1px;"/><path class="xgrid crisp" transform="translate(931.43,0)" d="M0,50v385" style="stroke: rgb(0, 0, 0); stroke-opacity: 0.05; stroke-width: 1px;"/><path class="xgrid crisp" transform="translate(979.62,0)" d="M0,50v385" style="stroke: rgb(0, 0, 0); stroke-opacity: 0.05; stroke-width: 1px;"/><path class="xgrid crisp" transform="translate(1027.81,0)" d="M0,50v385" style="stroke: rgb(0, 0, 0); stroke-opacity: 0.05; stroke-width: 1px;"/></g><g class="y"><path class="ygrid crisp" transform="translate(0,371.78)" d="M64,0h1012" style="stroke: rgb(0, 0, 0); stroke-opacity: 0.05; stroke-width: 1px;"/><path class="ygrid crisp" transform="translate(0,327.67)" d="M64,0h1012" style="stroke: rgb(0, 0, 0); stroke-opacity: 0.05; stroke-width: 1px;"/><path class="ygrid crisp" transform="translate(0,283.55)" d="M64,0h1012" style="stroke: rgb(0, 0, 0); stroke-opacity: 0.05; stroke-width: 1px;"/><path class="ygrid crisp" transform="translate(0,239.44)" d="M64,0h1012" style="stroke: rgb(0, 0, 0); stroke-opacity: 0.05; stroke-width: 1px;"/><path class="ygrid crisp" transform="translate(0,195.32)" d="M64,0h1012" style="stroke: rgb(0, 0, 0); stroke-opacity: 0.05; stroke-width: 1px;"/><path class="ygrid crisp" transform="translate(0,151.20999999999998)" d="M64,0h1012" style="stroke: rgb(0, 0, 0); stroke-opacity: 0.05; stroke-width: 1px;"/><path class="ygrid crisp" transform="translate(0,107.09)" d="M64,0h1012" style="stroke: rgb(0, 0, 0); stroke-opacity: 0.05; stroke-width: 1px;"/><path class="ygrid crisp" transform="translate(0,62.980000000000004)" d="M64,0h1012" style="stroke: rgb(0, 0, 0); stroke-opacity: 0.05; stroke-width: 1px;"/></g></g><g class="zerolinelayer"><path class="yzl zl crisp" transform="translate(0,415.9)" d="M64,0h1012" style="stroke: rgb(0, 0, 0); stroke-opacity: 0.05; stroke-width: 2px;"/></g><g class="layer-between"><g class="shapelayer"/><g class="imagelayer"/></g><path class="xlines-below"/><path class="ylines-below"/><g class="overlines-below"/><g class="xaxislayer-below"/><g class="yaxislayer-below"/><g class="overaxes-below"/><g class="overplot"><g class="xy" transform="translate(64,50)" clip-path="url(#clipa66f10xyplot)"><g class="scatterlayer mlayer"><g class="trace scatter tracea93424" style="stroke-miterlimit: 2; opacity: 1;"><g class="fills"/><g class="errorbars"/><g class="lines"><path class="js-line" d="M0,361.9L48.19,358.37L96.38,212.9L144.57,363.26L192.76,363.01L240.95,362.68L289.14,363.63L337.33,334.96L385.52,364.04L433.71,363.01L481.9,358.35L578.29,362.92L626.48,361.05L674.67,360.55L722.86,350.12L771.05,360.53L819.24,362.04L867.43,360.75L915.62,354.75L963.81,363.84L1012,365.75" style="vector-effect: none; fill: none; stroke: rgb(124, 181, 236); stroke-opacity: 1; stroke-width: 2px; opacity: 1;"/></g><g class="points"/><g class="text"/></g><g class="trace scatter trace8797bb" style="stroke-miterlimit: 2; opacity: 1;"><g class="fills"/><g class="errorbars"/><g class="lines"><path class="js-line" d="M0,363.98L48.19,360.7L96.38,40.11L144.57,364.58L192.76,365.19L289.14,364.71L337.33,319.39L385.52,364.89L433.71,364.6L481.9,362.31L530.1,363.79L578.29,364.89L626.48,361.58L674.67,362.89L722.86,346.85L771.05,363.63L819.24,363.14L867.43,364.16L915.62,361.9L963.81,364.93L1012,365.61" style="vector-effect: none; fill: none; stroke: rgb(67, 67, 72); stroke-opacity: 1; stroke-width: 2px; opacity: 1;"/></g><g class="points"/><g class="text"/></g><g class="trace scatter trace4e4e03" style="stroke-miterlimit: 2; opacity: 1;"><g class="fills"/><g class="errorbars"/><g class="lines"><path class="js-line" d="M0,363.67L48.19,360.13L96.38,19.25L144.57,364.39L192.76,364.39L240.95,364L289.14,364.5L337.33,302.68L385.52,364.77L433.71,364.15L481.9,360.98L578.29,364.23L626.48,361.36L674.67,363.09L722.86,344.97L771.05,363.18L819.24,362.55L867.43,362.77L915.62,360.33L963.81,364.57L1012,365.57" style="vector-effect: none; fill: none; stroke: rgb(144, 237, 125); stroke-opacity: 1; stroke-width: 2px; opacity: 1;"/></g><g class="points"/><g class="text"/></g><g class="trace scatter tracee13a7a" style="stroke-miterlimit: 2; opacity: 1;"><g class="fills"/><g class="errorbars"/><g class="lines"><path class="js-line" d="M0,361.09L48.19,355.42L96.38,247.09L144.57,362.32L192.76,362.13L240.95,361.38L289.14,362.77L337.33,327.65L385.52,363.06L433.71,359.38L481.9,343.25L530.1,357.92L578.29,361.41L626.48,358.39L674.67,359.22L722.86,354.37L771.05,359.3L867.43,359.91L915.62,320.34L963.81,363.43L1012,365.66" style="vector-effect: none; fill: none; stroke: rgb(247, 163, 92); stroke-opacity: 1; stroke-width: 2px; opacity: 1;"/></g><g class="points"/><g class="text"/></g><g class="trace scatter tracedf7300" style="stroke-miterlimit: 2; opacity: 1;"><g class="fills"/><g class="errorbars"/><g class="lines"><path class="js-line" d="M0,361.08L48.19,355.23L96.38,54.88L144.57,362.63L192.76,362.18L240.95,362.07L289.14,363L337.33,332L385.52,363.49L433.71,362.03L481.9,346.23L530.1,359.21L578.29,362.2L626.48,358.67L674.67,359.94L722.86,346.1L771.05,360.16L819.24,360.57L867.43,359.49L915.62,326.98L963.81,363.27L1012,365.59" style="vector-effect: none; fill: none; stroke: rgb(128, 133, 233); stroke-opacity: 1; stroke-width: 2px; opacity: 1;"/></g><g class="points"/><g class="text"/></g><g class="trace scatter tracebba018" style="stroke-miterlimit: 2; opacity: 1;"><g class="fills"/><g class="errorbars"/><g class="lines"><path class="js-line" d="M0,358.2L48.19,351.78L96.38,225.97L144.57,359.44L192.76,359.44L240.95,359.14L289.14,361.11L337.33,306.62L385.52,361.28L433.71,358.57L481.9,349.26L578.29,357.94L626.48,352.2L674.67,355.7L722.86,349.68L771.05,356.32L819.24,356.1L867.43,355.57L915.62,346.13L963.81,361.62L1012,365.28" style="vector-effect: none; fill: none; stroke: rgb(241, 92, 128); stroke-opacity: 1; stroke-width: 2px; opacity: 1;"/></g><g class="points"/><g class="text"/></g><g class="trace scatter trace9afe11" style="stroke-miterlimit: 2; opacity: 1;"><g class="fills"/><g class="errorbars"/><g class="lines"><path class="js-line" d="M0,363.05L48.19,360.3L96.38,184.47L144.57,363.88L192.76,363.96L240.95,363.72L289.14,364.39L337.33,338.65L385.52,364.57L433.71,363.95L481.9,353.87L530.1,362.1L578.29,363.96L626.48,358.64L674.67,362.33L722.86,352.5L771.05,362.61L819.24,360.41L867.43,361.93L915.62,339.04L963.81,364.37L1012,365.4" style="vector-effect: none; fill: none; stroke: rgb(228, 211, 84); stroke-opacity: 1; stroke-width: 2px; opacity: 1;"/></g><g class="points"/><g class="text"/></g><g class="trace scatter trace5cf036" style="stroke-miterlimit: 2; opacity: 1;"><g class="fills"/><g class="errorbars"/><g class="lines"><path class="js-line" d="M0,350.62L48.19,342.23L96.38,312.82L144.57,354.94L192.76,354.4L240.95,353.46L289.14,355.91L337.33,318.28L385.52,356.62L433.71,351.54L481.9,341.69L530.1,343.99L578.29,352.41L626.48,347.94L674.67,347.2L722.86,345.74L771.05,348.86L819.24,350.65L867.43,346.76L915.62,352.43L963.81,356.79L1012,364.86" style="vector-effect: none; fill: none; stroke: rgb(43, 144, 143); stroke-opacity: 1; stroke-width: 2px; opacity: 1;"/></g><g class="points"/><g class="text"/></g><g class="trace scatter trace9b0930" style="stroke-miterlimit: 2; opacity: 1;"><g class="fills"/><g class="errorbars"/><g class="lines"><path class="js-line" d="M0,358L48.19,351.75L96.38,189.83L144.57,360.16L192.76,360.65L240.95,359.37L289.14,360.53L337.33,300.23L385.52,361.17L433.71,357.79L481.9,345.06L530.1,354.76L578.29,359.18L626.48,353.02L674.67,355.78L722.86,345.58L771.05,356.94L867.43,356.27L915.62,336.93L963.81,361.4L1012,365.2" style="vector-effect: none; fill: none; stroke: rgb(244, 91, 91); stroke-opacity: 1; stroke-width: 2px; opacity: 1;"/></g><g class="points"/><g class="text"/></g><g class="trace scatter trace10d629" style="stroke-miterlimit: 2; opacity: 1;"><g class="fills"/><g class="errorbars"/><g class="lines"><path class="js-line" d="M0,360.13L48.19,355.99L96.38,156.13L144.57,362.33L192.76,361.74L240.95,361.04L289.14,362.97L337.33,340.8L385.52,363.38L433.71,361.51L481.9,351.2L530.1,358.39L578.29,361.79L626.48,357.75L674.67,358.4L722.86,347L771.05,358.72L819.24,359.94L867.43,357.55L915.62,336.6L963.81,363.06L1012,365.59" style="vector-effect: none; fill: none; stroke: rgb(145, 232, 225); stroke-opacity: 1; stroke-width: 2px; opacity: 1;"/></g><g class="points"/><g class="text"/></g><g class="trace scatter trace7cf052" style="stroke-miterlimit: 2; opacity: 1;"><g class="fills"/><g class="errorbars"/><g class="lines"><path class="js-line" d="M0,361.05L48.19,356.07L96.38,52.63L144.57,362.05L192.76,362.46L240.95,361.88L289.14,363.19L337.33,324.45L385.52,363.54L433.71,362.09L481.9,349.71L530.1,358.81L578.29,362.59L626.48,354.31L674.67,359.14L722.86,342.47L771.05,359.59L819.24,357.7L867.43,359.02L915.62,331.65L963.81,363.3L1012,365.09" style="vector-effect: none; fill: none; stroke: rgb(124, 181, 236); stroke-opacity: 1; stroke-width: 2px; opacity: 1;"/></g><g class="points"/><g class="text"/></g><g class="trace scatter trace9109d9" style="stroke-miterlimit: 2; opacity: 1;"><g class="fills"/><g class="errorbars"/><g class="lines"><path class="js-line" d="M0,360.7L48.19,354.88L96.38,150.35L144.57,362.38L192.76,362.28L240.95,361.77L289.14,363.34L337.33,335.68L385.52,363.68L433.71,362.11L481.9,337.49L530.1,358.58L578.29,362.2L626.48,355.29L674.67,359.02L722.86,349.21L771.05,359.32L867.43,357.7L915.62,295.97L963.81,362.92L1012,365.22" style="vector-effect: none; fill: none; stroke: rgb(67, 67, 72); stroke-opacity: 1; stroke-width: 2px; opacity: 1;"/></g><g class="points"/><g class="text"/></g><g class="trace scatter traced470d2" style="stroke-miterlimit: 2; opacity: 1;"><g class="fills"/><g class="errorbars"/><g class="lines"><path class="js-line" d="M0,355.17L48.19,345.1L96.38,104.9L144.57,358.39L192.76,358.73L240.95,357.53L289.14,359.62L337.33,308.78L385.52,359.73L433.71,354.71L481.9,342.14L530.1,351.15L578.29,358.76L626.48,348.9L674.67,351.37L722.86,342.13L771.05,353.6L819.24,355.19L867.43,353.76L915.62,332.12L963.81,360.29L1012,364.92" style="vector-effect: none; fill: none; stroke: rgb(144, 237, 125); stroke-opacity: 1; stroke-width: 2px; opacity: 1;"/></g><g class="points"/><g class="text"/></g><g class="trace scatter trace13a8dd" style="stroke-miterlimit: 2; opacity: 1;"><g class="fills"/><g class="errorbars"/><g class="lines"><path class="js-line" d="M0,362.3L48.19,357.69L96.38,116.88L144.57,363.52L192.76,363.31L240.95,363.31L289.14,364.08L337.33,349.48L385.52,364.11L433.71,362.89L481.9,350.66L530.1,361.26L578.29,363.44L626.48,360.53L674.67,361.58L722.86,346.9L771.05,361.85L819.24,362.33L867.43,360.86L915.62,332.34L963.81,363.97L1012,365.65" style="vector-effect: none; fill: none; stroke: rgb(247, 163, 92); stroke-opacity: 1; stroke-width: 2px; opacity: 1;"/></g><g class="points"/><g class="text"/></g><g class="trace scatter trace9a0909" style="stroke-miterlimit: 2; opacity: 1;"><g class="fills"/><g class="errorbars"/><g class="lines"><path class="js-line" d="M0,357.96L48.19,351.56L96.38,180.19L144.57,360.34L192.76,359.95L240.95,358.9L289.14,360.02L337.33,287.99L385.52,360.98L433.71,358.23L481.9,352.15L530.1,354.32L578.29,359.23L626.48,352.4L674.67,355.17L722.86,346.34L771.05,356.45L819.24,355.77L867.43,356.15L915.62,356.65L963.81,360.8L1012,365.3" style="vector-effect: none; fill: none; stroke: rgb(128, 133, 233); stroke-opacity: 1; stroke-width: 2px; opacity: 1;"/></g><g class="points"/><g class="text"/></g><g class="trace scatter tracecf379d" style="stroke-miterlimit: 2; opacity: 1;"><g class="fills"/><g class="errorbars"/><g class="lines"><path class="js-line" d="M0,362.77L48.19,359.88L96.38,82.24L144.57,363.77L192.76,363.88L240.95,363.51L289.14,363.96L337.33,323.91L385.52,364.44L433.71,364.01L481.9,361.42L530.1,361.89L578.29,363.65L626.48,361.71L674.67,361.79L722.86,344.12L771.05,361.94L819.24,362.8L867.43,361.84L915.62,359.13L963.81,364.18L1012,365.71" style="vector-effect: none; fill: none; stroke: rgb(241, 92, 128); stroke-opacity: 1; stroke-width: 2px; opacity: 1;"/></g><g class="points"/><g class="text"/></g><g class="trace scatter trace6fd9a4" style="stroke-miterlimit: 2; opacity: 1;"><g class="fills"/><g class="errorbars"/><g class="lines"><path class="js-line" d="M0,361.38L48.19,356.45L96.38,114.08L144.57,362.4L192.76,362.59L240.95,362.05L289.14,363.06L337.33,297.58L385.52,363.45L433.71,362.01L481.9,352.39L530.1,359.13L578.29,361.89L626.48,356.03L674.67,359.77L722.86,348.78L771.05,359.98L819.24,358.74L867.43,359.71L915.62,344.09L963.81,363.49L1012,365.37" style="vector-effect: none; fill: none; stroke: rgb(228, 211, 84); stroke-opacity: 1; stroke-width: 2px; opacity: 1;"/></g><g class="points"/><g class="text"/></g><g class="trace scatter trace33c37b" style="stroke-miterlimit: 2; opacity: 1;"><g class="fills"/><g class="errorbars"/><g class="lines"><path class="js-line" d="M0,356.72L48.19,348.23L96.38,172.54L144.57,360.35L192.76,360.4L240.95,359.2L289.14,360L337.33,314.76L385.52,361.06L433.71,358.68L481.9,343.01L530.1,354.51L578.29,359.63L626.48,352.74L674.67,353.52L722.86,344.59L771.05,355.61L819.24,356.98L867.43,355.62L915.62,333L963.81,360.65L1012,365.35" style="vector-effect: none; fill: none; stroke: rgb(43, 144, 143); stroke-opacity: 1; stroke-width: 2px; opacity: 1;"/></g><g class="points"/><g class="text"/></g><g class="trace scatter trace02e0ba" style="stroke-miterlimit: 2; opacity: 1;"><g class="fills"/><g class="errorbars"/><g class="lines"><path class="js-line" d="M0,355.93L48.19,346.58L96.38,59.94L144.57,359.66L192.76,359.97L240.95,358.77L289.14,360.3L337.33,311.41L385.52,361.14L433.71,358.35L481.9,321.25L530.1,353.49L578.29,358.61L626.48,350.31L674.67,353.28L722.86,339.67L771.05,354.37L867.43,353.18L915.62,276.66L963.81,360.46L1012,365.16" style="vector-effect: none; fill: none; stroke: rgb(244, 91, 91); stroke-opacity: 1; stroke-width: 2px; opacity: 1;"/></g><g class="points"/><g class="text"/></g><g class="trace scatter trace273992" style="stroke-miterlimit: 2; opacity: 1;"><g class="fills"/><g class="errorbars"/><g class="lines"><path class="js-line" d="M0,360.42L48.19,353.71L96.38,152.39L144.57,362.49L192.76,361.64L240.95,361.1L289.14,362.7L337.33,325.47L385.52,363.07L433.71,360.17L481.9,349.94L530.1,358.26L578.29,361.6L626.48,357.17L674.67,359.1L722.86,347.75L771.05,359.04L819.24,359.85L867.43,357.52L915.62,335.56L963.81,362.64L1012,365.57" style="vector-effect: none; fill: none; stroke: rgb(145, 232, 225); stroke-opacity: 1; stroke-width: 2px; opacity: 1;"/></g><g class="points"/><g class="text"/></g><g class="trace scatter trace783c83" style="stroke-miterlimit: 2; opacity: 1;"><g class="fills"/><g class="errorbars"/><g class="lines"><path class="js-line" d="M0,362.06L48.19,357.51L96.38,150.66L144.57,362.82L192.76,362.96L240.95,362.8L289.14,363.92L337.33,338.59L385.52,364.07L433.71,363L481.9,353.03L530.1,360.33L578.29,363.2L626.48,359.36L674.67,360.85L722.86,350.13L771.05,360.86L819.24,361.55L867.43,360.41L915.62,335.98L963.81,363.78L1012,365.55" style="vector-effect: none; fill: none; stroke: rgb(124, 181, 236); stroke-opacity: 1; stroke-width: 2px; opacity: 1;"/></g><g class="points"/><g class="text"/></g><g class="trace scatter trace319943" style="stroke-miterlimit: 2; opacity: 1;"><g class="fills"/><g class="errorbars"/><g class="lines"><path class="js-line" d="M0,362.71L48.19,357.68L96.38,51.51L144.57,363.92L192.76,363.73L240.95,363.01L289.14,364.17L337.33,312.91L385.52,364.58L433.71,363.12L481.9,353.74L530.1,361.27L578.29,363.66L626.48,360.69L674.67,361.72L722.86,347.52L771.05,361.86L819.24,362.33L867.43,360.57L915.62,337.39L963.81,364.13L1012,365.58" style="vector-effect: none; fill: none; stroke: rgb(67, 67, 72); stroke-opacity: 1; stroke-width: 2px; opacity: 1;"/></g><g class="points"/><g class="text"/></g><g class="trace scatter trace250573" style="stroke-miterlimit: 2; opacity: 1;"><g class="fills"/><g class="errorbars"/><g class="lines"><path class="js-line" d="M0,349.66L48.19,340.31L96.38,261.66L144.57,356.05L192.76,351.76L240.95,352.03L289.14,355.99L337.33,329.76L385.52,357.56L433.71,345.36L481.9,340.44L530.1,344.46L578.29,352.52L626.48,345.84L674.67,347.46L722.86,344.24L771.05,347.69L819.24,352.52L867.43,343.9L915.62,344.05L963.81,357.1L1012,365.37" style="vector-effect: none; fill: none; stroke: rgb(144, 237, 125); stroke-opacity: 1; stroke-width: 2px; opacity: 1;"/></g><g class="points"/><g class="text"/></g><g class="trace scatter traceb4413c" style="stroke-miterlimit: 2; opacity: 1;"><g class="fills"/><g class="errorbars"/><g class="lines"><path class="js-line" d="M0,362.34L48.19,358.34L96.38,200.14L144.57,363.72L192.76,363.56L240.95,363.18L289.14,364.17L337.33,348.37L385.52,364.35L433.71,363.4L481.9,352.5L530.1,361.4L578.29,363.42L626.48,361L674.67,361.3L722.86,351.25L771.05,361.7L819.24,362.42L867.43,360.78L915.62,336.34L963.81,363.99L1012,365.67" style="vector-effect: none; fill: none; stroke: rgb(247, 163, 92); stroke-opacity: 1; stroke-width: 2px; opacity: 1;"/></g><g class="points"/><g class="text"/></g><g class="trace scatter trace925655" style="stroke-miterlimit: 2; opacity: 1;"><g class="fills"/><g class="errorbars"/><g class="lines"><path class="js-line" d="M0,360.67L48.19,355.29L96.38,183.52L144.57,361.84L192.76,362.06L240.95,361.21L289.14,362.33L337.33,301.75L385.52,362.95L433.71,360.81L481.9,352.66L530.1,357.69L578.29,360.99L626.48,356.55L674.67,359.05L722.86,347.55L771.05,359.34L819.24,359.58L867.43,358.86L915.62,345.98L963.81,362.92L1012,365.44" style="vector-effect: none; fill: none; stroke: rgb(128, 133, 233); stroke-opacity: 1; stroke-width: 2px; opacity: 1;"/></g><g class="points"/><g class="text"/></g></g></g></g><path class="xlines-above crisp" d="M0,0" style="fill: none;"/><path class="ylines-above crisp" d="M0,0" style="fill: none;"/><g class="overlines-above"/><g class="xaxislayer-above"><g class="xtick"><text text-anchor="middle" x="0" y="451" transform="translate(64,0)" style="font-family: 'Lucida Grande', 'Open Sans', verdana, arial, sans-serif; font-size: 10px; fill: rgb(0, 0, 0); fill-opacity: 1; white-space: pre; opacity: 1;">chr10</text></g><g class="xtick"><text text-anchor="middle" x="0" y="451" transform="translate(112.19,0)" style="font-family: 'Lucida Grande', 'Open Sans', verdana, arial, sans-serif; font-size: 10px; fill: rgb(0, 0, 0); fill-opacity: 1; white-space: pre; opacity: 1;">chr11</text></g><g class="xtick"><text text-anchor="middle" x="0" y="451" transform="translate(160.38,0)" style="font-family: 'Lucida Grande', 'Open Sans', verdana, arial, sans-serif; font-size: 10px; fill: rgb(0, 0, 0); fill-opacity: 1; white-space: pre; opacity: 1;">chr12</text></g><g class="xtick"><text text-anchor="middle" x="0" y="451" transform="translate(208.57,0)" style="font-family: 'Lucida Grande', 'Open Sans', verdana, arial, sans-serif; font-size: 10px; fill: rgb(0, 0, 0); fill-opacity: 1; white-space: pre; opacity: 1;">chr13</text></g><g class="xtick"><text text-anchor="middle" x="0" y="451" transform="translate(256.76,0)" style="font-family: 'Lucida Grande', 'Open Sans', verdana, arial, sans-serif; font-size: 10px; fill: rgb(0, 0, 0); fill-opacity: 1; white-space: pre; opacity: 1;">chr14</text></g><g class="xtick"><text text-anchor="middle" x="0" y="451" transform="translate(304.95,0)" style="font-family: 'Lucida Grande', 'Open Sans', verdana, arial, sans-serif; font-size: 10px; fill: rgb(0, 0, 0); fill-opacity: 1; white-space: pre; opacity: 1;">chr15</text></g><g class="xtick"><text text-anchor="middle" x="0" y="451" transform="translate(353.14,0)" style="font-family: 'Lucida Grande', 'Open Sans', verdana, arial, sans-serif; font-size: 10px; fill: rgb(0, 0, 0); fill-opacity: 1; white-space: pre; opacity: 1;">chr16</text></g><g class="xtick"><text text-anchor="middle" x="0" y="451" transform="translate(401.33,0)" style="font-family: 'Lucida Grande', 'Open Sans', verdana, arial, sans-serif; font-size: 10px; fill: rgb(0, 0, 0); fill-opacity: 1; white-space: pre; opacity: 1;">chr17</text></g><g class="xtick"><text text-anchor="middle" x="0" y="451" transform="translate(449.52,0)" style="font-family: 'Lucida Grande', 'Open Sans', verdana, arial, sans-serif; font-size: 10px; fill: rgb(0, 0, 0); fill-opacity: 1; white-space: pre; opacity: 1;">chr18</text></g><g class="xtick"><text text-anchor="middle" x="0" y="451" transform="translate(497.71,0)" style="font-family: 'Lucida Grande', 'Open Sans', verdana, arial, sans-serif; font-size: 10px; fill: rgb(0, 0, 0); fill-opacity: 1; white-space: pre; opacity: 1;">chr19</text></g><g class="xtick"><text text-anchor="middle" x="0" y="451" transform="translate(545.9,0)" style="font-family: 'Lucida Grande', 'Open Sans', verdana, arial, sans-serif; font-size: 10px; fill: rgb(0, 0, 0); fill-opacity: 1; white-space: pre; opacity: 1;">chr1</text></g><g class="xtick"><text text-anchor="middle" x="0" y="451" transform="translate(594.1,0)" style="font-family: 'Lucida Grande', 'Open Sans', verdana, arial, sans-serif; font-size: 10px; fill: rgb(0, 0, 0); fill-opacity: 1; white-space: pre; opacity: 1;">chr2</text></g><g class="xtick"><text text-anchor="middle" x="0" y="451" transform="translate(642.29,0)" style="font-family: 'Lucida Grande', 'Open Sans', verdana, arial, sans-serif; font-size: 10px; fill: rgb(0, 0, 0); fill-opacity: 1; white-space: pre; opacity: 1;">chr3</text></g><g class="xtick"><text text-anchor="middle" x="0" y="451" transform="translate(690.48,0)" style="font-family: 'Lucida Grande', 'Open Sans', verdana, arial, sans-serif; font-size: 10px; fill: rgb(0, 0, 0); fill-opacity: 1; white-space: pre; opacity: 1;">chr4</text></g><g class="xtick"><text text-anchor="middle" x="0" y="451" transform="translate(738.67,0)" style="font-family: 'Lucida Grande', 'Open Sans', verdana, arial, sans-serif; font-size: 10px; fill: rgb(0, 0, 0); fill-opacity: 1; white-space: pre; opacity: 1;">chr5</text></g><g class="xtick"><text text-anchor="middle" x="0" y="451" transform="translate(786.86,0)" style="font-family: 'Lucida Grande', 'Open Sans', verdana, arial, sans-serif; font-size: 10px; fill: rgb(0, 0, 0); fill-opacity: 1; white-space: pre; opacity: 1;">chr6</text></g><g class="xtick"><text text-anchor="middle" x="0" y="451" transform="translate(835.05,0)" style="font-family: 'Lucida Grande', 'Open Sans', verdana, arial, sans-serif; font-size: 10px; fill: rgb(0, 0, 0); fill-opacity: 1; white-space: pre; opacity: 1;">chr7</text></g><g class="xtick"><text text-anchor="middle" x="0" y="451" transform="translate(883.24,0)" style="font-family: 'Lucida Grande', 'Open Sans', verdana, arial, sans-serif; font-size: 10px; fill: rgb(0, 0, 0); fill-opacity: 1; white-space: pre; opacity: 1;">chr8</text></g><g class="xtick"><text text-anchor="middle" x="0" y="451" transform="translate(931.43,0)" style="font-family: 'Lucida Grande', 'Open Sans', verdana, arial, sans-serif; font-size: 10px; fill: rgb(0, 0, 0); fill-opacity: 1; white-space: pre; opacity: 1;">chr9</text></g><g class="xtick"><text text-anchor="middle" x="0" y="451" transform="translate(979.62,0)" style="font-family: 'Lucida Grande', 'Open Sans', verdana, arial, sans-serif; font-size: 10px; fill: rgb(0, 0, 0); fill-opacity: 1; white-space: pre; opacity: 1;">chrM</text></g><g class="xtick"><text text-anchor="middle" x="0" y="451" transform="translate(1027.81,0)" style="font-family: 'Lucida Grande', 'Open Sans', verdana, arial, sans-serif; font-size: 10px; fill: rgb(0, 0, 0); fill-opacity: 1; white-space: pre; opacity: 1;">chrX</text></g><g class="xtick"><text text-anchor="middle" x="0" y="451" transform="translate(1076,0)" style="font-family: 'Lucida Grande', 'Open Sans', verdana, arial, sans-serif; font-size: 10px; fill: rgb(0, 0, 0); fill-opacity: 1; white-space: pre; opacity: 1;">chrY</text></g></g><g class="yaxislayer-above"><g class="ytick"><text text-anchor="end" x="58" y="3.5" transform="translate(0,415.9)" style="font-family: 'Lucida Grande', 'Open Sans', verdana, arial, sans-serif; font-size: 10px; fill: rgb(0, 0, 0); fill-opacity: 1; white-space: pre; opacity: 1;">0</text></g><g class="ytick"><text text-anchor="end" x="58" y="3.5" style="font-family: 'Lucida Grande', 'Open Sans', verdana, arial, sans-serif; font-size: 10px; fill: rgb(0, 0, 0); fill-opacity: 1; white-space: pre; opacity: 1;" transform="translate(0,371.78)">10M</text></g><g class="ytick"><text text-anchor="end" x="58" y="3.5" style="font-family: 'Lucida Grande', 'Open Sans', verdana, arial, sans-serif; font-size: 10px; fill: rgb(0, 0, 0); fill-opacity: 1; white-space: pre; opacity: 1;" transform="translate(0,327.67)">20M</text></g><g class="ytick"><text text-anchor="end" x="58" y="3.5" style="font-family: 'Lucida Grande', 'Open Sans', verdana, arial, sans-serif; font-size: 10px; fill: rgb(0, 0, 0); fill-opacity: 1; white-space: pre; opacity: 1;" transform="translate(0,283.55)">30M</text></g><g class="ytick"><text text-anchor="end" x="58" y="3.5" style="font-family: 'Lucida Grande', 'Open Sans', verdana, arial, sans-serif; font-size: 10px; fill: rgb(0, 0, 0); fill-opacity: 1; white-space: pre; opacity: 1;" transform="translate(0,239.44)">40M</text></g><g class="ytick"><text text-anchor="end" x="58" y="3.5" style="font-family: 'Lucida Grande', 'Open Sans', verdana, arial, sans-serif; font-size: 10px; fill: rgb(0, 0, 0); fill-opacity: 1; white-space: pre; opacity: 1;" transform="translate(0,195.32)">50M</text></g><g class="ytick"><text text-anchor="end" x="58" y="3.5" style="font-family: 'Lucida Grande', 'Open Sans', verdana, arial, sans-serif; font-size: 10px; fill: rgb(0, 0, 0); fill-opacity: 1; white-space: pre; opacity: 1;" transform="translate(0,151.20999999999998)">60M</text></g><g class="ytick"><text text-anchor="end" x="58" y="3.5" style="font-family: 'Lucida Grande', 'Open Sans', verdana, arial, sans-serif; font-size: 10px; fill: rgb(0, 0, 0); fill-opacity: 1; white-space: pre; opacity: 1;" transform="translate(0,107.09)">70M</text></g><g class="ytick"><text text-anchor="end" x="58" y="3.5" style="font-family: 'Lucida Grande', 'Open Sans', verdana, arial, sans-serif; font-size: 10px; fill: rgb(0, 0, 0); fill-opacity: 1; white-space: pre; opacity: 1;" transform="translate(0,62.980000000000004)">80M</text></g></g><g class="overaxes-above"/></g></g><g class="polarlayer"/><g class="smithlayer"/><g class="ternarylayer"/><g class="geolayer"/><g class="funnelarealayer"/><g class="pielayer"/><g class="iciclelayer"/><g class="treemaplayer"/><g class="sunburstlayer"/><g class="glimages"/><defs id="topdefs-a66f10"><g class="clips"/></defs><g class="layer-above"><g class="imagelayer"/><g class="shapelayer"/></g><g class="infolayer"><g class="g-gtitle"><text class="gtitle" x="550" y="25" text-anchor="middle" dy="0em" style="opacity: 1; font-family: 'Lucida Grande', 'Open Sans', verdana, arial, sans-serif; font-size: 20px; fill: rgb(42, 63, 95); fill-opacity: 1; white-space: pre;"><tspan class="line" dy="0em" x="550" y="25">Samtools: idxstats: Mapped reads per contig</tspan><tspan class="line" dy="1.3em" x="550" y="25">​<tspan style="font-size:70%" dy="-0.6em">Raw Counts, 25 samples</tspan><tspan dy="0.42em">​</tspan></tspan></text></g><g class="g-xtitle"><text class="xtitle" x="570" y="472.3" text-anchor="middle" style="opacity: 0.3; font-family: 'Lucida Grande', 'Open Sans', verdana, arial, sans-serif; font-size: 14px; fill: rgb(0, 0, 0); fill-opacity: 1; white-space: pre;">Chromosome name</text></g><g class="g-ytitle"><text class="ytitle" transform="rotate(-90,22.240625,242.5)" x="22.240625" y="242.5" text-anchor="middle" style="opacity: 0.3; font-family: 'Lucida Grande', 'Open Sans', verdana, arial, sans-serif; font-size: 14px; fill: rgb(0, 0, 0); fill-opacity: 1; white-space: pre;"># mapped reads</text></g></g></svg>