<svg class="main-svg" xmlns="http://www.w3.org/2000/svg" xmlns:xlink="http://www.w3.org/1999/xlink" width="2200" height="1000" style="" viewBox="0 0 1100 500"><rect x="0" y="0" width="1100" height="500" style="fill: rgb(255, 255, 255); fill-opacity: 1;"/><defs id="defs-e67bf0"><g class="clips"><clipPath id="clipe67bf0xyplot" class="plotclip"><rect width="1005" height="385"/></clipPath><clipPath class="axesclip" id="clipe67bf0x"><rect x="71" y="0" width="1005" height="500"/></clipPath><clipPath class="axesclip" id="clipe67bf0y"><rect x="0" y="50" width="1100" height="385"/></clipPath><clipPath class="axesclip" id="clipe67bf0xy"><rect x="71" y="50" width="1005" height="385"/></clipPath></g><g class="gradients"/><g class="patterns"/></defs><g class="bglayer"/><g class="layer-below"><g class="imagelayer"/><g class="shapelayer"/></g><g class="cartesianlayer"><g class="subplot xy"><g class="layer-subplot"><g class="shapelayer"/><g class="imagelayer"/></g><g class="minor-gridlayer"><g class="x"/><g class="y"/></g><g class="gridlayer"><g class="x"><path class="xgrid crisp" transform="translate(118.86,0)" d="M0,50v385" style="stroke: rgb(0, 0, 0); stroke-opacity: 0.05; stroke-width: 1px;"/><path class="xgrid crisp" transform="translate(166.70999999999998,0)" d="M0,50v385" style="stroke: rgb(0, 0, 0); stroke-opacity: 0.05; stroke-width: 1px;"/><path class="xgrid crisp" transform="translate(214.57,0)" d="M0,50v385" style="stroke: rgb(0, 0, 0); stroke-opacity: 0.05; stroke-width: 1px;"/><path class="xgrid crisp" transform="translate(262.43,0)" d="M0,50v385" style="stroke: rgb(0, 0, 0); stroke-opacity: 0.05; stroke-width: 1px;"/><path class="xgrid crisp" transform="translate(310.28999999999996,0)" d="M0,50v385" style="stroke: rgb(0, 0, 0); stroke-opacity: 0.05; stroke-width: 1px;"/><path class="xgrid crisp" transform="translate(358.14,0)" d="M0,50v385" style="stroke: rgb(0, 0, 0); stroke-opacity: 0.05; stroke-width: 1px;"/><path class="xgrid crisp" transform="translate(406,0)" d="M0,50v385" style="stroke: rgb(0, 0, 0); stroke-opacity: 0.05; stroke-width: 1px;"/><path class="xgrid crisp" transform="translate(453.86,0)" d="M0,50v385" style="stroke: rgb(0, 0, 0); stroke-opacity: 0.05; stroke-width: 1px;"/><path class="xgrid crisp" transform="translate(501.71,0)" d="M0,50v385" style="stroke: rgb(0, 0, 0); stroke-opacity: 0.05; stroke-width: 1px;"/><path class="xgrid crisp" transform="translate(549.5699999999999,0)" d="M0,50v385" style="stroke: rgb(0, 0, 0); stroke-opacity: 0.05; stroke-width: 1px;"/><path class="xgrid crisp" transform="translate(597.43,0)" d="M0,50v385" style="stroke: rgb(0, 0, 0); stroke-opacity: 0.05; stroke-width: 1px;"/><path class="xgrid crisp" transform="translate(645.29,0)" d="M0,50v385" style="stroke: rgb(0, 0, 0); stroke-opacity: 0.05; stroke-width: 1px;"/><path class="xgrid crisp" transform="translate(693.14,0)" d="M0,50v385" style="stroke: rgb(0, 0, 0); stroke-opacity: 0.05; stroke-width: 1px;"/><path class="xgrid crisp" transform="translate(741,0)" d="M0,50v385" style="stroke: rgb(0, 0, 0); stroke-opacity: 0.05; stroke-width: 1px;"/><path class="xgrid crisp" transform="translate(788.86,0)" d="M0,50v385" style="stroke: rgb(0, 0, 0); stroke-opacity: 0.05; stroke-width: 1px;"/><path class="xgrid crisp" transform="translate(836.71,0)" d="M0,50v385" style="stroke: rgb(0, 0, 0); stroke-opacity: 0.05; stroke-width: 1px;"/><path class="xgrid crisp" transform="translate(884.57,0)" d="M0,50v385" style="stroke: rgb(0, 0, 0); stroke-opacity: 0.05; stroke-width: 1px;"/><path class="xgrid crisp" transform="translate(932.43,0)" d="M0,50v385" style="stroke: rgb(0, 0, 0); stroke-opacity: 0.05; stroke-width: 1px;"/><path class="xgrid crisp" transform="translate(980.29,0)" d="M0,50v385" style="stroke: rgb(0, 0, 0); stroke-opacity: 0.05; stroke-width: 1px;"/><path class="xgrid crisp" transform="translate(1028.1399999999999,0)" d="M0,50v385" style="stroke: rgb(0, 0, 0); stroke-opacity: 0.05; stroke-width: 1px;"/></g><g class="y"><path class="ygrid crisp" transform="translate(0,397.08)" d="M71,0h1005" style="stroke: rgb(0, 0, 0); stroke-opacity: 0.05; stroke-width: 1px;"/><path class="ygrid crisp" transform="translate(0,366.2)" d="M71,0h1005" style="stroke: rgb(0, 0, 0); stroke-opacity: 0.05; stroke-width: 1px;"/><path class="ygrid crisp" transform="translate(0,335.33)" d="M71,0h1005" style="stroke: rgb(0, 0, 0); stroke-opacity: 0.05; stroke-width: 1px;"/><path class="ygrid crisp" transform="translate(0,294.52)" d="M71,0h1005" style="stroke: rgb(0, 0, 0); stroke-opacity: 0.05; stroke-width: 1px;"/><path class="ygrid crisp" transform="translate(0,263.64)" d="M71,0h1005" style="stroke: rgb(0, 0, 0); stroke-opacity: 0.05; stroke-width: 1px;"/><path class="ygrid crisp" transform="translate(0,232.77)" d="M71,0h1005" style="stroke: rgb(0, 0, 0); stroke-opacity: 0.05; stroke-width: 1px;"/><path class="ygrid crisp" transform="translate(0,191.95)" d="M71,0h1005" style="stroke: rgb(0, 0, 0); stroke-opacity: 0.05; stroke-width: 1px;"/><path class="ygrid crisp" transform="translate(0,161.07999999999998)" d="M71,0h1005" style="stroke: rgb(0, 0, 0); stroke-opacity: 0.05; stroke-width: 1px;"/><path class="ygrid crisp" transform="translate(0,130.2)" d="M71,0h1005" style="stroke: rgb(0, 0, 0); stroke-opacity: 0.05; stroke-width: 1px;"/><path class="ygrid crisp" transform="translate(0,89.39)" d="M71,0h1005" style="stroke: rgb(0, 0, 0); stroke-opacity: 0.05; stroke-width: 1px;"/><path class="ygrid crisp" transform="translate(0,58.51)" d="M71,0h1005" style="stroke: rgb(0, 0, 0); stroke-opacity: 0.05; stroke-width: 1px;"/></g></g><g class="zerolinelayer"/><g class="layer-between"><g class="shapelayer"/><g class="imagelayer"/></g><path class="xlines-below"/><path class="ylines-below"/><g class="overlines-below"/><g class="xaxislayer-below"/><g class="yaxislayer-below"/><g class="overaxes-below"/><g class="overplot"><g class="xy" transform="translate(71,50)" clip-path="url(#clipe67bf0xyplot)"><g class="scatterlayer mlayer"><g class="trace scatter traced3f253" style="stroke-miterlimit: 2; opacity: 1;"><g class="fills"/><g class="errorbars"/><g class="lines"><path class="js-line" d="M0,218.05L47.86,189.85L95.71,55.68L143.57,236.58L191.43,232.52L239.29,227.79L287.14,243.4L335,126.88L382.86,252.23L430.71,232.49L478.57,189.75L526.43,205.68L574.29,231.17L622.14,209.42L670,205.1L717.86,156.87L765.71,204.93L813.57,219.67L861.43,206.76L909.29,172.36L957.14,247.68L1005,365.75" style="vector-effect: none; fill: none; stroke: rgb(124, 181, 236); stroke-opacity: 1; stroke-width: 2px; opacity: 1;"/></g><g class="points"/><g class="text"/></g><g class="trace scatter trace73a47c" style="stroke-miterlimit: 2; opacity: 1;"><g class="fills"/><g class="errorbars"/><g class="lines"><path class="js-line" d="M0,250.77L47.86,206.35L95.71,22.01L143.57,267.72L191.43,295.27L239.29,275.68L287.14,272.13L335,108.73L382.86,279.66L430.71,268.09L478.57,222.85L526.43,246.51L574.29,279.37L622.14,214.6L670,230.8L717.86,148.5L765.71,243.38L813.57,234.67L861.43,255.23L909.29,218.02L957.14,281.14L1005,336.14" style="vector-effect: none; fill: none; stroke: rgb(67, 67, 72); stroke-opacity: 1; stroke-width: 2px; opacity: 1;"/></g><g class="points"/><g class="text"/></g><g class="trace scatter trace666287" style="stroke-miterlimit: 2; opacity: 1;"><g class="fills"/><g class="errorbars"/><g class="lines"><path class="js-line" d="M0,244.13L47.86,201.75L95.71,19.25L143.57,261.49L191.43,261.65L239.29,251.39L287.14,264.98L335,95.05L382.86,274.44L430.71,254.96L478.57,208.84L526.43,229.37L574.29,257.16L622.14,212.45L670,233.8L717.86,144.31L765.71,235.34L813.57,225.95L861.43,228.98L909.29,203.26L957.14,267.3L1005,329.22" style="vector-effect: none; fill: none; stroke: rgb(144, 237, 125); stroke-opacity: 1; stroke-width: 2px; opacity: 1;"/></g><g class="points"/><g class="text"/></g><g class="trace scatter trace9cff07" style="stroke-miterlimit: 2; opacity: 1;"><g class="fills"/><g class="errorbars"/><g class="lines"><path class="js-line" d="M0,209.87L47.86,175.1L95.71,66.95L143.57,222.99L191.43,220.74L239.29,212.59L287.14,228.93L335,117.43L382.86,233.37L430.71,196.29L478.57,140.79L526.43,187.26L574.29,212.91L622.14,189.96L670,195.2L717.86,170.86L765.71,195.74L813.57,199.25L861.43,200.02L909.29,109.65L957.14,239.64L1005,345.06" style="vector-effect: none; fill: none; stroke: rgb(247, 163, 92); stroke-opacity: 1; stroke-width: 2px; opacity: 1;"/></g><g class="points"/><g class="text"/></g><g class="trace scatter trace5c6828" style="stroke-miterlimit: 2; opacity: 1;"><g class="fills"/><g class="errorbars"/><g class="lines"><path class="js-line" d="M0,209.73L47.86,174.32L95.71,24.08L143.57,226.99L191.43,221.3L239.29,219.99L287.14,232.46L335,122.82L382.86,240.64L430.71,219.53L478.57,147.07L526.43,195.11L574.29,221.57L622.14,191.67L670,200.27L717.86,146.76L765.71,201.98L813.57,205.3L861.43,197.04L909.29,116.67L957.14,236.78L1005,333.34" style="vector-effect: none; fill: none; stroke: rgb(128, 133, 233); stroke-opacity: 1; stroke-width: 2px; opacity: 1;"/></g><g class="points"/><g class="text"/></g><g class="trace scatter traceab6d6b" style="stroke-miterlimit: 2; opacity: 1;"><g class="fills"/><g class="errorbars"/><g class="lines"><path class="js-line" d="M0,188.88L47.86,161.85L95.71,59.66L143.57,196.66L191.43,196.71L239.29,194.64L287.14,210.05L335,97.92L382.86,211.6L430.71,191.08L478.57,154.52L526.43,168.19L574.29,187.37L622.14,163.18L670,176.33L717.86,155.65L765.71,179.12L813.57,178.11L861.43,175.76L909.29,146.83L957.14,215.04L1005,301.51" style="vector-effect: none; fill: none; stroke: rgb(241, 92, 128); stroke-opacity: 1; stroke-width: 2px; opacity: 1;"/></g><g class="points"/><g class="text"/></g><g class="trace scatter trace3d06ea" style="stroke-miterlimit: 2; opacity: 1;"><g class="fills"/><g class="errorbars"/><g class="lines"><path class="js-line" d="M0,233.14L47.86,203.08L95.71,48.09L143.57,248.45L191.43,250.29L239.29,245.23L287.14,261.44L335,132.55L382.86,267.34L430.71,250.06L478.57,168.96L526.43,220.31L574.29,250.4L622.14,191.46L670,223.11L717.86,164.16L765.71,226.72L813.57,203.94L861.43,218.38L909.29,133.19L957.14,261.03L1005,311" style="vector-effect: none; fill: none; stroke: rgb(228, 211, 84); stroke-opacity: 1; stroke-width: 2px; opacity: 1;"/></g><g class="points"/><g class="text"/></g><g class="trace scatter tracecc15f0" style="stroke-miterlimit: 2; opacity: 1;"><g class="fills"/><g class="errorbars"/><g class="lines"><path class="js-line" d="M0,158.33L47.86,138.82L95.71,102.84L143.57,173.13L191.43,170.98L239.29,167.47L287.14,177.25L335,107.67L382.86,180.55L430.71,161.08L478.57,137.82L526.43,142.27L574.29,163.87L622.14,151.11L670,149.32L717.86,145.96L765.71,153.46L813.57,158.41L861.43,148.28L909.29,163.93L957.14,181.35L1005,278.19" style="vector-effect: none; fill: none; stroke: rgb(43, 144, 143); stroke-opacity: 1; stroke-width: 2px; opacity: 1;"/></g><g class="points"/><g class="text"/></g><g class="trace scatter trace5b1352" style="stroke-miterlimit: 2; opacity: 1;"><g class="fills"/><g class="errorbars"/><g class="lines"><path class="js-line" d="M0,187.71L47.86,161.75L95.71,49.43L143.57,201.97L191.43,205.92L239.29,196.19L287.14,204.91L335,93.36L382.86,210.59L430.71,186.53L478.57,144.49L526.43,172.41L574.29,194.91L622.14,165.94L670,176.7L717.86,145.63L765.71,182.11L861.43,178.89L909.29,129.82L1005,296.24" style="vector-effect: none; fill: none; stroke: rgb(244, 91, 91); stroke-opacity: 1; stroke-width: 2px; opacity: 1;"/></g><g class="points"/><g class="text"/></g><g class="trace scatter trace1873ab" style="stroke-miterlimit: 2; opacity: 1;"><g class="fills"/><g class="errorbars"/><g class="lines"><path class="js-line" d="M0,201.71L47.86,177.62L95.71,41.63L143.57,223.08L191.43,216.3L239.29,209.39L287.14,231.93L335,136.21L382.86,238.7L430.71,213.95L478.57,160.04L526.43,190L574.29,216.79L622.14,186.34L670,190.06L717.86,148.85L765.71,191.99L813.57,200.31L861.43,185.25L909.29,129.31L957.14,233.33L1005,333.15" style="vector-effect: none; fill: none; stroke: rgb(145, 232, 225); stroke-opacity: 1; stroke-width: 2px; opacity: 1;"/></g><g class="points"/><g class="text"/></g><g class="trace scatter trace8915cf" style="stroke-miterlimit: 2; opacity: 1;"><g class="fills"/><g class="errorbars"/><g class="lines"><path class="js-line" d="M0,209.5L47.86,177.96L95.71,23.76L143.57,219.72L191.43,224.83L239.29,217.83L287.14,235.37L335,113.85L382.86,241.62L430.71,220.25L478.57,155.75L526.43,192.52L574.29,226.52L622.14,170.62L670,194.68L717.86,139.28L765.71,197.74L813.57,186.04L861.43,193.9L909.29,122.36L957.14,237.35L1005,289.48" style="vector-effect: none; fill: none; stroke: rgb(124, 181, 236); stroke-opacity: 1; stroke-width: 2px; opacity: 1;"/></g><g class="points"/><g class="text"/></g><g class="trace scatter trace2305b5" style="stroke-miterlimit: 2; opacity: 1;"><g class="fills"/><g class="errorbars"/><g class="lines"><path class="js-line" d="M0,206.39L47.86,172.88L95.71,40.41L143.57,223.79L191.43,222.5L239.29,216.59L287.14,237.95L335,127.94L382.86,244.28L430.71,220.46L478.57,130.68L526.43,191.09L574.29,221.56L622.14,174.59L670,193.89L717.86,154.38L765.71,195.87L813.57,188.88L861.43,186.04L909.29,90.56L957.14,231.18L1005,297.08" style="vector-effect: none; fill: none; stroke: rgb(67, 67, 72); stroke-opacity: 1; stroke-width: 2px; opacity: 1;"/></g><g class="points"/><g class="text"/></g><g class="trace scatter traced22eee" style="stroke-miterlimit: 2; opacity: 1;"><g class="fills"/><g class="errorbars"/><g class="lines"><path class="js-line" d="M0,174.08L47.86,144.57L95.71,31.89L143.57,189.95L191.43,192.06L239.29,185.12L287.14,197.97L335,99.57L382.86,198.74L430.71,172.2L478.57,138.64L526.43,159.88L574.29,192.25L622.14,153.56L670,160.56L717.86,138.62L765.71,167.99L813.57,174.17L861.43,168.58L909.29,122.97L957.14,202.97L1005,280.94" style="vector-effect: none; fill: none; stroke: rgb(144, 237, 125); stroke-opacity: 1; stroke-width: 2px; opacity: 1;"/></g><g class="points"/><g class="text"/></g><g class="trace scatter trace4192f4" style="stroke-miterlimit: 2; opacity: 1;"><g class="fills"/><g class="errorbars"/><g class="lines"><path class="js-line" d="M0,222.81L47.86,185.98L95.71,33.99L143.57,241.14L191.43,237.41L239.29,237.42L287.14,253.16L335,155.1L382.86,253.89L430.71,230.81L478.57,158.43L526.43,211.44L574.29,239.71L622.14,204.92L670,214.58L717.86,148.62L765.71,217.55L813.57,223.19L861.43,207.73L909.29,123.26L957.14,250.57L1005,342.15" style="vector-effect: none; fill: none; stroke: rgb(247, 163, 92); stroke-opacity: 1; stroke-width: 2px; opacity: 1;"/></g><g class="points"/><g class="text"/></g><g class="trace scatter trace80382d" style="stroke-miterlimit: 2; opacity: 1;"><g class="fills"/><g class="errorbars"/><g class="lines"><path class="js-line" d="M0,187.5L47.86,161.14L95.71,47.05L143.57,203.39L191.43,200.38L239.29,193.08L287.14,200.85L335,85.75L382.86,208.82L430.71,189.04L478.57,163.02L526.43,170.68L574.29,195.25L622.14,163.83L670,174.05L717.86,147.32L765.71,179.72L813.57,176.61L861.43,178.32L909.29,180.68L957.14,207.21L1005,302.87" style="vector-effect: none; fill: none; stroke: rgb(128, 133, 233); stroke-opacity: 1; stroke-width: 2px; opacity: 1;"/></g><g class="points"/><g class="text"/></g><g class="trace scatter trace49bb1c" style="stroke-miterlimit: 2; opacity: 1;"><g class="fills"/><g class="errorbars"/><g class="lines"><path class="js-line" d="M0,229.01L47.86,199.85L95.71,28.18L143.57,246.16L191.43,248.57L239.29,240.98L287.14,250.24L335,113.28L382.86,263.15L430.71,251.46L478.57,213.05L526.43,217.95L574.29,243.76L622.14,216.04L670,216.87L717.86,142.52L765.71,218.47L813.57,229.41L861.43,217.4L909.29,194.57L957.14,255.6L1005,355.87" style="vector-effect: none; fill: none; stroke: rgb(241, 92, 128); stroke-opacity: 1; stroke-width: 2px; opacity: 1;"/></g><g class="points"/><g class="text"/></g><g class="trace scatter trace6d5322" style="stroke-miterlimit: 2; opacity: 1;"><g class="fills"/><g class="errorbars"/><g class="lines"><path class="js-line" d="M0,212.57L47.86,179.71L95.71,33.49L143.57,223.99L191.43,226.54L239.29,219.78L287.14,233.39L335,91.6L382.86,240L430.71,219.35L478.57,163.8L526.43,194.59L574.29,217.94L622.14,177.8L670,199.05L717.86,153.24L765.71,200.59L813.57,192.12L861.43,198.56L909.29,142.47L957.14,240.66L1005,308.39" style="vector-effect: none; fill: none; stroke: rgb(228, 211, 84); stroke-opacity: 1; stroke-width: 2px; opacity: 1;"/></g><g class="points"/><g class="text"/></g><g class="trace scatter tracee245c9" style="stroke-miterlimit: 2; opacity: 1;"><g class="fills"/><g class="errorbars"/><g class="lines"><path class="js-line" d="M0,181.02L47.86,151.83L95.71,45.25L143.57,203.48L191.43,203.84L239.29,195.07L287.14,200.69L335,104.5L382.86,209.57L430.71,191.76L478.57,140.3L526.43,171.39L574.29,198.02L622.14,164.99L670,167.68L717.86,143.49L765.71,175.95L813.57,182.32L861.43,175.98L909.29,124.15L957.14,205.92L1005,306.7" style="vector-effect: none; fill: none; stroke: rgb(43, 144, 143); stroke-opacity: 1; stroke-width: 2px; opacity: 1;"/></g><g class="points"/><g class="text"/></g><g class="trace scatter tracec99a98" style="stroke-miterlimit: 2; opacity: 1;"><g class="fills"/><g class="errorbars"/><g class="lines"><path class="js-line" d="M0,177.33L47.86,147.87L95.71,24.81L143.57,198.2L191.43,200.51L239.29,192.29L287.14,203.04L335,101.67L382.86,210.3L430.71,189.73L478.57,110.54L526.43,167.6L574.29,191.28L622.14,157.43L670,166.86L717.86,134.23L765.71,170.85L813.57,169.87L861.43,166.48L909.29,79.7L957.14,204.33L1005,293.17" style="vector-effect: none; fill: none; stroke: rgb(244, 91, 91); stroke-opacity: 1; stroke-width: 2px; opacity: 1;"/></g><g class="points"/><g class="text"/></g><g class="trace scatter tracec0ad14" style="stroke-miterlimit: 2; opacity: 1;"><g class="fills"/><g class="errorbars"/><g class="lines"><path class="js-line" d="M0,204L47.86,168.4L95.71,40.84L143.57,225.17L191.43,215.23L239.29,209.95L287.14,228.06L335,114.97L382.86,233.56L430.71,202.02L478.57,156.38L526.43,189.18L574.29,214.85L622.14,183.29L670,194.4L717.86,150.64L765.71,193.99L813.57,199.62L861.43,185.06L909.29,127.75L957.14,227.24L1005,329.4" style="vector-effect: none; fill: none; stroke: rgb(145, 232, 225); stroke-opacity: 1; stroke-width: 2px; opacity: 1;"/></g><g class="points"/><g class="text"/></g><g class="trace scatter traceaa72c2" style="stroke-miterlimit: 2; opacity: 1;"><g class="fills"/><g class="errorbars"/><g class="lines"><path class="js-line" d="M0,219.92L47.86,185.06L95.71,40.48L143.57,229.66L191.43,231.84L239.29,229.43L287.14,249.48L335,132.44L382.86,252.94L430.71,232.43L478.57,165.97L526.43,203.32L574.29,235.67L622.14,196.13L670,207.69L717.86,156.91L765.71,207.72L813.57,214.3L861.43,203.96L909.29,128.38L957.14,246.32L1005,327.57" style="vector-effect: none; fill: none; stroke: rgb(124, 181, 236); stroke-opacity: 1; stroke-width: 2px; opacity: 1;"/></g><g class="points"/><g class="text"/></g><g class="trace scatter trace491f85" style="stroke-miterlimit: 2; opacity: 1;"><g class="fills"/><g class="errorbars"/><g class="lines"><path class="js-line" d="M0,228.15L47.86,185.97L95.71,23.6L143.57,249.44L191.43,245.34L239.29,232.59L287.14,255.36L335,102.92L382.86,267.43L430.71,234.25L478.57,168.51L526.43,211.55L574.29,244.02L622.14,206.23L670,216.14L717.86,150.08L765.71,217.66L813.57,223.15L861.43,205.3L909.29,130.53L957.14,254.53L1005,331.65" style="vector-effect: none; fill: none; stroke: rgb(67, 67, 72); stroke-opacity: 1; stroke-width: 2px; opacity: 1;"/></g><g class="points"/><g class="text"/></g><g class="trace scatter tracee74a23" style="stroke-miterlimit: 2; opacity: 1;"><g class="fills"/><g class="errorbars"/><g class="lines"><path class="js-line" d="M0,155.61L47.86,135.34L95.71,72.77L143.57,177.86L191.43,161.77L239.29,162.62L287.14,177.6L335,119.96L382.86,185.31L430.71,145.15L478.57,135.57L526.43,143.22L574.29,164.24L622.14,146.2L670,149.94L717.86,142.78L765.71,150.51L813.57,164.22L861.43,142.07L909.29,142.37L957.14,182.92L1005,308.67" style="vector-effect: none; fill: none; stroke: rgb(144, 237, 125); stroke-opacity: 1; stroke-width: 2px; opacity: 1;"/></g><g class="points"/><g class="text"/></g><g class="trace scatter traced01316" style="stroke-miterlimit: 2; opacity: 1;"><g class="fills"/><g class="errorbars"/><g class="lines"><path class="js-line" d="M0,223.23L47.86,189.69L95.71,52.11L143.57,245.17L191.43,241.99L239.29,235.23L287.14,255.51L335,152.18L382.86,260.32L430.71,239.1L478.57,164.15L526.43,212.81L574.29,239.36L622.14,209.05L670,211.78L717.86,160.19L765.71,215.85L813.57,224.3L861.43,207.04L909.29,128.92L957.14,251.1L1005,347.06" style="vector-effect: none; fill: none; stroke: rgb(247, 163, 92); stroke-opacity: 1; stroke-width: 2px; opacity: 1;"/></g><g class="points"/><g class="text"/></g><g class="trace scatter trace27765f" style="stroke-miterlimit: 2; opacity: 1;"><g class="fills"/><g class="errorbars"/><g class="lines"><path class="js-line" d="M0,206.13L47.86,174.58L95.71,47.86L143.57,217.44L191.43,219.9L239.29,210.96L287.14,223.19L335,94.4L382.86,231.57L430.71,207.28L478.57,164.72L526.43,186.01L574.29,208.91L622.14,180.21L670,194.05L717.86,150.16L765.71,196.01L813.57,197.66L861.43,192.88L909.29,146.5L957.14,231.14L1005,315.29" style="vector-effect: none; fill: none; stroke: rgb(128, 133, 233); stroke-opacity: 1; stroke-width: 2px; opacity: 1;"/></g><g class="points"/><g class="text"/></g></g></g></g><path class="xlines-above crisp" d="M0,0" style="fill: none;"/><path class="ylines-above crisp" d="M0,0" style="fill: none;"/><g class="overlines-above"/><g class="xaxislayer-above"><g class="xtick"><text text-anchor="middle" x="0" y="451" transform="translate(71,0)" style="font-family: 'Lucida Grande', 'Open Sans', verdana, arial, sans-serif; font-size: 10px; fill: rgb(0, 0, 0); fill-opacity: 1; white-space: pre; opacity: 1;">chr10</text></g><g class="xtick"><text text-anchor="middle" x="0" y="451" transform="translate(118.86,0)" style="font-family: 'Lucida Grande', 'Open Sans', verdana, arial, sans-serif; font-size: 10px; fill: rgb(0, 0, 0); fill-opacity: 1; white-space: pre; opacity: 1;">chr11</text></g><g class="xtick"><text text-anchor="middle" x="0" y="451" transform="translate(166.70999999999998,0)" style="font-family: 'Lucida Grande', 'Open Sans', verdana, arial, sans-serif; font-size: 10px; fill: rgb(0, 0, 0); fill-opacity: 1; white-space: pre; opacity: 1;">chr12</text></g><g class="xtick"><text text-anchor="middle" x="0" y="451" transform="translate(214.57,0)" style="font-family: 'Lucida Grande', 'Open Sans', verdana, arial, sans-serif; font-size: 10px; fill: rgb(0, 0, 0); fill-opacity: 1; white-space: pre; opacity: 1;">chr13</text></g><g class="xtick"><text text-anchor="middle" x="0" y="451" transform="translate(262.43,0)" style="font-family: 'Lucida Grande', 'Open Sans', verdana, arial, sans-serif; font-size: 10px; fill: rgb(0, 0, 0); fill-opacity: 1; white-space: pre; opacity: 1;">chr14</text></g><g class="xtick"><text text-anchor="middle" x="0" y="451" transform="translate(310.28999999999996,0)" style="font-family: 'Lucida Grande', 'Open Sans', verdana, arial, sans-serif; font-size: 10px; fill: rgb(0, 0, 0); fill-opacity: 1; white-space: pre; opacity: 1;">chr15</text></g><g class="xtick"><text text-anchor="middle" x="0" y="451" transform="translate(358.14,0)" style="font-family: 'Lucida Grande', 'Open Sans', verdana, arial, sans-serif; font-size: 10px; fill: rgb(0, 0, 0); fill-opacity: 1; white-space: pre; opacity: 1;">chr16</text></g><g class="xtick"><text text-anchor="middle" x="0" y="451" transform="translate(406,0)" style="font-family: 'Lucida Grande', 'Open Sans', verdana, arial, sans-serif; font-size: 10px; fill: rgb(0, 0, 0); fill-opacity: 1; white-space: pre; opacity: 1;">chr17</text></g><g class="xtick"><text text-anchor="middle" x="0" y="451" transform="translate(453.86,0)" style="font-family: 'Lucida Grande', 'Open Sans', verdana, arial, sans-serif; font-size: 10px; fill: rgb(0, 0, 0); fill-opacity: 1; white-space: pre; opacity: 1;">chr18</text></g><g class="xtick"><text text-anchor="middle" x="0" y="451" transform="translate(501.71,0)" style="font-family: 'Lucida Grande', 'Open Sans', verdana, arial, sans-serif; font-size: 10px; fill: rgb(0, 0, 0); fill-opacity: 1; white-space: pre; opacity: 1;">chr19</text></g><g class="xtick"><text text-anchor="middle" x="0" y="451" transform="translate(549.5699999999999,0)" style="font-family: 'Lucida Grande', 'Open Sans', verdana, arial, sans-serif; font-size: 10px; fill: rgb(0, 0, 0); fill-opacity: 1; white-space: pre; opacity: 1;">chr1</text></g><g class="xtick"><text text-anchor="middle" x="0" y="451" transform="translate(597.43,0)" style="font-family: 'Lucida Grande', 'Open Sans', verdana, arial, sans-serif; font-size: 10px; fill: rgb(0, 0, 0); fill-opacity: 1; white-space: pre; opacity: 1;">chr2</text></g><g class="xtick"><text text-anchor="middle" x="0" y="451" transform="translate(645.29,0)" style="font-family: 'Lucida Grande', 'Open Sans', verdana, arial, sans-serif; font-size: 10px; fill: rgb(0, 0, 0); fill-opacity: 1; white-space: pre; opacity: 1;">chr3</text></g><g class="xtick"><text text-anchor="middle" x="0" y="451" transform="translate(693.14,0)" style="font-family: 'Lucida Grande', 'Open Sans', verdana, arial, sans-serif; font-size: 10px; fill: rgb(0, 0, 0); fill-opacity: 1; white-space: pre; opacity: 1;">chr4</text></g><g class="xtick"><text text-anchor="middle" x="0" y="451" transform="translate(741,0)" style="font-family: 'Lucida Grande', 'Open Sans', verdana, arial, sans-serif; font-size: 10px; fill: rgb(0, 0, 0); fill-opacity: 1; white-space: pre; opacity: 1;">chr5</text></g><g class="xtick"><text text-anchor="middle" x="0" y="451" transform="translate(788.86,0)" style="font-family: 'Lucida Grande', 'Open Sans', verdana, arial, sans-serif; font-size: 10px; fill: rgb(0, 0, 0); fill-opacity: 1; white-space: pre; opacity: 1;">chr6</text></g><g class="xtick"><text text-anchor="middle" x="0" y="451" transform="translate(836.71,0)" style="font-family: 'Lucida Grande', 'Open Sans', verdana, arial, sans-serif; font-size: 10px; fill: rgb(0, 0, 0); fill-opacity: 1; white-space: pre; opacity: 1;">chr7</text></g><g class="xtick"><text text-anchor="middle" x="0" y="451" transform="translate(884.57,0)" style="font-family: 'Lucida Grande', 'Open Sans', verdana, arial, sans-serif; font-size: 10px; fill: rgb(0, 0, 0); fill-opacity: 1; white-space: pre; opacity: 1;">chr8</text></g><g class="xtick"><text text-anchor="middle" x="0" y="451" transform="translate(932.43,0)" style="font-family: 'Lucida Grande', 'Open Sans', verdana, arial, sans-serif; font-size: 10px; fill: rgb(0, 0, 0); fill-opacity: 1; white-space: pre; opacity: 1;">chr9</text></g><g class="xtick"><text text-anchor="middle" x="0" y="451" transform="translate(980.29,0)" style="font-family: 'Lucida Grande', 'Open Sans', verdana, arial, sans-serif; font-size: 10px; fill: rgb(0, 0, 0); fill-opacity: 1; white-space: pre; opacity: 1;">chrM</text></g><g class="xtick"><text text-anchor="middle" x="0" y="451" transform="translate(1028.1399999999999,0)" style="font-family: 'Lucida Grande', 'Open Sans', verdana, arial, sans-serif; font-size: 10px; fill: rgb(0, 0, 0); fill-opacity: 1; white-space: pre; opacity: 1;">chrX</text></g><g class="xtick"><text text-anchor="middle" x="0" y="451" transform="translate(1076,0)" style="font-family: 'Lucida Grande', 'Open Sans', verdana, arial, sans-serif; font-size: 10px; fill: rgb(0, 0, 0); fill-opacity: 1; white-space: pre; opacity: 1;">chrY</text></g></g><g class="yaxislayer-above"><g class="ytick"><text text-anchor="end" x="65" y="2.625" transform="translate(0,397.08)" style="font-family: 'Lucida Grande', 'Open Sans', verdana, arial, sans-serif; font-size: 7.5px; fill: rgb(0, 0, 0); fill-opacity: 1; white-space: pre; opacity: 1;">5</text></g><g class="ytick"><text text-anchor="end" x="65" y="3.5" style="font-family: 'Lucida Grande', 'Open Sans', verdana, arial, sans-serif; font-size: 10px; fill: rgb(0, 0, 0); fill-opacity: 1; white-space: pre; opacity: 1;" transform="translate(0,366.2)">100k</text></g><g class="ytick"><text text-anchor="end" x="65" y="2.625" style="font-family: 'Lucida Grande', 'Open Sans', verdana, arial, sans-serif; font-size: 7.5px; fill: rgb(0, 0, 0); fill-opacity: 1; white-space: pre; opacity: 1;" transform="translate(0,335.33)">2</text></g><g class="ytick"><text text-anchor="end" x="65" y="2.625" style="font-family: 'Lucida Grande', 'Open Sans', verdana, arial, sans-serif; font-size: 7.5px; fill: rgb(0, 0, 0); fill-opacity: 1; white-space: pre; opacity: 1;" transform="translate(0,294.52)">5</text></g><g class="ytick"><text text-anchor="end" x="65" y="3.5" style="font-family: 'Lucida Grande', 'Open Sans', verdana, arial, sans-serif; font-size: 10px; fill: rgb(0, 0, 0); fill-opacity: 1; white-space: pre; opacity: 1;" transform="translate(0,263.64)">1M</text></g><g class="ytick"><text text-anchor="end" x="65" y="2.625" style="font-family: 'Lucida Grande', 'Open Sans', verdana, arial, sans-serif; font-size: 7.5px; fill: rgb(0, 0, 0); fill-opacity: 1; white-space: pre; opacity: 1;" transform="translate(0,232.77)">2</text></g><g class="ytick"><text text-anchor="end" x="65" y="2.625" style="font-family: 'Lucida Grande', 'Open Sans', verdana, arial, sans-serif; font-size: 7.5px; fill: rgb(0, 0, 0); fill-opacity: 1; white-space: pre; opacity: 1;" transform="translate(0,191.95)">5</text></g><g class="ytick"><text text-anchor="end" x="65" y="3.5" style="font-family: 'Lucida Grande', 'Open Sans', verdana, arial, sans-serif; font-size: 10px; fill: rgb(0, 0, 0); fill-opacity: 1; white-space: pre; opacity: 1;" transform="translate(0,161.07999999999998)">10M</text></g><g class="ytick"><text text-anchor="end" x="65" y="2.625" style="font-family: 'Lucida Grande', 'Open Sans', verdana, arial, sans-serif; font-size: 7.5px; fill: rgb(0, 0, 0); fill-opacity: 1; white-space: pre; opacity: 1;" transform="translate(0,130.2)">2</text></g><g class="ytick"><text text-anchor="end" x="65" y="2.625" style="font-family: 'Lucida Grande', 'Open Sans', verdana, arial, sans-serif; font-size: 7.5px; fill: rgb(0, 0, 0); fill-opacity: 1; white-space: pre; opacity: 1;" transform="translate(0,89.39)">5</text></g><g class="ytick"><text text-anchor="end" x="65" y="3.5" style="font-family: 'Lucida Grande', 'Open Sans', verdana, arial, sans-serif; font-size: 10px; fill: rgb(0, 0, 0); fill-opacity: 1; white-space: pre; opacity: 1;" transform="translate(0,58.51)">100M</text></g></g><g class="overaxes-above"/></g></g><g class="polarlayer"/><g class="smithlayer"/><g class="ternarylayer"/><g class="geolayer"/><g class="funnelarealayer"/><g class="pielayer"/><g class="iciclelayer"/><g class="treemaplayer"/><g class="sunburstlayer"/><g class="glimages"/><defs id="topdefs-e67bf0"><g class="clips"/></defs><g class="layer-above"><g class="imagelayer"/><g class="shapelayer"/></g><g class="infolayer"><g class="g-gtitle"><text class="gtitle" x="550" y="25" text-anchor="middle" dy="0em" style="opacity: 1; font-family: 'Lucida Grande', 'Open Sans', verdana, arial, sans-serif; font-size: 20px; fill: rgb(42, 63, 95); fill-opacity: 1; white-space: pre;"><tspan class="line" dy="0em" x="550" y="25">Samtools: idxstats: Mapped reads per contig</tspan><tspan class="line" dy="1.3em" x="550" y="25">​<tspan style="font-size:70%" dy="-0.6em">Raw Counts, 25 samples</tspan><tspan dy="0.42em">​</tspan></tspan></text></g><g class="g-xtitle"><text class="xtitle" x="573.5" y="472.3" text-anchor="middle" style="opacity: 0.3; font-family: 'Lucida Grande', 'Open Sans', verdana, arial, sans-serif; font-size: 14px; fill: rgb(0, 0, 0); fill-opacity: 1; white-space: pre;">Chromosome name</text></g><g class="g-ytitle"><text class="ytitle" transform="rotate(-90,22.88125,242.5)" x="22.88125" y="242.5" text-anchor="middle" style="opacity: 0.3; font-family: 'Lucida Grande', 'Open Sans', verdana, arial, sans-serif; font-size: 14px; fill: rgb(0, 0, 0); fill-opacity: 1; white-space: pre;"># mapped reads</text></g></g></svg>