<?xml version="1.0" encoding="utf-8" standalone="no"?>
<!DOCTYPE svg PUBLIC "-//W3C//DTD SVG 1.1//EN"
  "http://www.w3.org/Graphics/SVG/1.1/DTD/svg11.dtd">
<svg xmlns:xlink="http://www.w3.org/1999/xlink" width="1000.318125pt" height="388.844525pt" viewBox="0 0 1000.318125 388.844525" xmlns="http://www.w3.org/2000/svg" version="1.1">
 <metadata>
  <rdf:RDF xmlns:dc="http://purl.org/dc/elements/1.1/" xmlns:cc="http://creativecommons.org/ns#" xmlns:rdf="http://www.w3.org/1999/02/22-rdf-syntax-ns#">
   <cc:Work>
    <dc:type rdf:resource="http://purl.org/dc/dcmitype/StillImage"/>
    <dc:date>2023-04-21T00:02:28.132297</dc:date>
    <dc:format>image/svg+xml</dc:format>
    <dc:creator>
     <cc:Agent>
      <dc:title>Matplotlib v3.5.3, https://matplotlib.org/</dc:title>
     </cc:Agent>
    </dc:creator>
   </cc:Work>
  </rdf:RDF>
 </metadata>
 <defs>
  <style type="text/css">*{stroke-linejoin: round; stroke-linecap: butt}</style>
 </defs>
 <g id="figure_1">
  <g id="axes_1">
   <g id="patch_1">
    <path d="M 38.058125 353.2239 
L 993.118125 353.2239 
L 993.118125 35.2559 
L 38.058125 35.2559 
z
" style="fill: #ffffff"/>
   </g>
   <g id="patch_2">
    <path d="M 38.058125 108.517782 
L 955.533397 108.517782 
L 955.533397 -520.726521 
L 38.058125 -520.726521 
z
" clip-path="url(#p9ffe8b9ee9)" style="fill: #c3e6c3"/>
   </g>
   <g id="patch_3">
    <path d="M 38.058125 178.433816 
L 955.533397 178.433816 
L 955.533397 108.517782 
L 38.058125 108.517782 
z
" clip-path="url(#p9ffe8b9ee9)" style="fill: #e6dcc3"/>
   </g>
   <g id="patch_4">
    <path d="M 38.058125 353.2239 
L 955.533397 353.2239 
L 955.533397 178.433816 
L 38.058125 178.433816 
z
" clip-path="url(#p9ffe8b9ee9)" style="fill: #e6c3c3"/>
   </g>
   <g id="matplotlib.axis_1">
    <g id="xtick_1">
     <g id="text_1">
      <!-- 0 -->
      <g transform="translate(73.097853 366.30265)scale(0.08 -0.08)">
       <defs>
        <path id="DejaVuSans-30" d="M 2034 4250 
Q 1547 4250 1301 3770 
Q 1056 3291 1056 2328 
Q 1056 1369 1301 889 
Q 1547 409 2034 409 
Q 2525 409 2770 889 
Q 3016 1369 3016 2328 
Q 3016 3291 2770 3770 
Q 2525 4250 2034 4250 
z
M 2034 4750 
Q 2819 4750 3233 4129 
Q 3647 3509 3647 2328 
Q 3647 1150 3233 529 
Q 2819 -91 2034 -91 
Q 1250 -91 836 529 
Q 422 1150 422 2328 
Q 422 3509 836 4129 
Q 1250 4750 2034 4750 
z
" transform="scale(0.015625)"/>
       </defs>
       <use xlink:href="#DejaVuSans-30"/>
      </g>
     </g>
    </g>
    <g id="xtick_2">
     <g id="text_2">
      <!-- 20 -->
      <g transform="translate(187.094647 366.30265)scale(0.08 -0.08)">
       <defs>
        <path id="DejaVuSans-32" d="M 1228 531 
L 3431 531 
L 3431 0 
L 469 0 
L 469 531 
Q 828 903 1448 1529 
Q 2069 2156 2228 2338 
Q 2531 2678 2651 2914 
Q 2772 3150 2772 3378 
Q 2772 3750 2511 3984 
Q 2250 4219 1831 4219 
Q 1534 4219 1204 4116 
Q 875 4013 500 3803 
L 500 4441 
Q 881 4594 1212 4672 
Q 1544 4750 1819 4750 
Q 2544 4750 2975 4387 
Q 3406 4025 3406 3419 
Q 3406 3131 3298 2873 
Q 3191 2616 2906 2266 
Q 2828 2175 2409 1742 
Q 1991 1309 1228 531 
z
" transform="scale(0.015625)"/>
       </defs>
       <use xlink:href="#DejaVuSans-32"/>
       <use xlink:href="#DejaVuSans-30" x="63.623047"/>
      </g>
     </g>
    </g>
    <g id="xtick_3">
     <g id="text_3">
      <!-- 40 -->
      <g transform="translate(303.636441 366.30265)scale(0.08 -0.08)">
       <defs>
        <path id="DejaVuSans-34" d="M 2419 4116 
L 825 1625 
L 2419 1625 
L 2419 4116 
z
M 2253 4666 
L 3047 4666 
L 3047 1625 
L 3713 1625 
L 3713 1100 
L 3047 1100 
L 3047 0 
L 2419 0 
L 2419 1100 
L 313 1100 
L 313 1709 
L 2253 4666 
z
" transform="scale(0.015625)"/>
       </defs>
       <use xlink:href="#DejaVuSans-34"/>
       <use xlink:href="#DejaVuSans-30" x="63.623047"/>
      </g>
     </g>
    </g>
    <g id="xtick_4">
     <g id="text_4">
      <!-- 60 -->
      <g transform="translate(420.178235 366.30265)scale(0.08 -0.08)">
       <defs>
        <path id="DejaVuSans-36" d="M 2113 2584 
Q 1688 2584 1439 2293 
Q 1191 2003 1191 1497 
Q 1191 994 1439 701 
Q 1688 409 2113 409 
Q 2538 409 2786 701 
Q 3034 994 3034 1497 
Q 3034 2003 2786 2293 
Q 2538 2584 2113 2584 
z
M 3366 4563 
L 3366 3988 
Q 3128 4100 2886 4159 
Q 2644 4219 2406 4219 
Q 1781 4219 1451 3797 
Q 1122 3375 1075 2522 
Q 1259 2794 1537 2939 
Q 1816 3084 2150 3084 
Q 2853 3084 3261 2657 
Q 3669 2231 3669 1497 
Q 3669 778 3244 343 
Q 2819 -91 2113 -91 
Q 1303 -91 875 529 
Q 447 1150 447 2328 
Q 447 3434 972 4092 
Q 1497 4750 2381 4750 
Q 2619 4750 2861 4703 
Q 3103 4656 3366 4563 
z
" transform="scale(0.015625)"/>
       </defs>
       <use xlink:href="#DejaVuSans-36"/>
       <use xlink:href="#DejaVuSans-30" x="63.623047"/>
      </g>
     </g>
    </g>
    <g id="xtick_5">
     <g id="text_5">
      <!-- 80 -->
      <g transform="translate(536.720029 366.30265)scale(0.08 -0.08)">
       <defs>
        <path id="DejaVuSans-38" d="M 2034 2216 
Q 1584 2216 1326 1975 
Q 1069 1734 1069 1313 
Q 1069 891 1326 650 
Q 1584 409 2034 409 
Q 2484 409 2743 651 
Q 3003 894 3003 1313 
Q 3003 1734 2745 1975 
Q 2488 2216 2034 2216 
z
M 1403 2484 
Q 997 2584 770 2862 
Q 544 3141 544 3541 
Q 544 4100 942 4425 
Q 1341 4750 2034 4750 
Q 2731 4750 3128 4425 
Q 3525 4100 3525 3541 
Q 3525 3141 3298 2862 
Q 3072 2584 2669 2484 
Q 3125 2378 3379 2068 
Q 3634 1759 3634 1313 
Q 3634 634 3220 271 
Q 2806 -91 2034 -91 
Q 1263 -91 848 271 
Q 434 634 434 1313 
Q 434 1759 690 2068 
Q 947 2378 1403 2484 
z
M 1172 3481 
Q 1172 3119 1398 2916 
Q 1625 2713 2034 2713 
Q 2441 2713 2670 2916 
Q 2900 3119 2900 3481 
Q 2900 3844 2670 4047 
Q 2441 4250 2034 4250 
Q 1625 4250 1398 4047 
Q 1172 3844 1172 3481 
z
" transform="scale(0.015625)"/>
       </defs>
       <use xlink:href="#DejaVuSans-38"/>
       <use xlink:href="#DejaVuSans-30" x="63.623047"/>
      </g>
     </g>
    </g>
    <g id="xtick_6">
     <g id="text_6">
      <!-- 100 -->
      <g transform="translate(650.716822 366.30265)scale(0.08 -0.08)">
       <defs>
        <path id="DejaVuSans-31" d="M 794 531 
L 1825 531 
L 1825 4091 
L 703 3866 
L 703 4441 
L 1819 4666 
L 2450 4666 
L 2450 531 
L 3481 531 
L 3481 0 
L 794 0 
L 794 531 
z
" transform="scale(0.015625)"/>
       </defs>
       <use xlink:href="#DejaVuSans-31"/>
       <use xlink:href="#DejaVuSans-30" x="63.623047"/>
       <use xlink:href="#DejaVuSans-30" x="127.246094"/>
      </g>
     </g>
    </g>
    <g id="xtick_7">
     <g id="text_7">
      <!-- 120 -->
      <g transform="translate(767.258616 366.30265)scale(0.08 -0.08)">
       <use xlink:href="#DejaVuSans-31"/>
       <use xlink:href="#DejaVuSans-32" x="63.623047"/>
       <use xlink:href="#DejaVuSans-30" x="127.246094"/>
      </g>
     </g>
    </g>
    <g id="xtick_8">
     <g id="text_8">
      <!-- 140 -->
      <g transform="translate(883.80041 366.30265)scale(0.08 -0.08)">
       <use xlink:href="#DejaVuSans-31"/>
       <use xlink:href="#DejaVuSans-34" x="63.623047"/>
       <use xlink:href="#DejaVuSans-30" x="127.246094"/>
      </g>
     </g>
    </g>
    <g id="text_9">
     <!-- Position (bp) -->
     <g transform="translate(484.285 379.564837)scale(0.1 -0.1)">
      <defs>
       <path id="DejaVuSans-50" d="M 1259 4147 
L 1259 2394 
L 2053 2394 
Q 2494 2394 2734 2622 
Q 2975 2850 2975 3272 
Q 2975 3691 2734 3919 
Q 2494 4147 2053 4147 
L 1259 4147 
z
M 628 4666 
L 2053 4666 
Q 2838 4666 3239 4311 
Q 3641 3956 3641 3272 
Q 3641 2581 3239 2228 
Q 2838 1875 2053 1875 
L 1259 1875 
L 1259 0 
L 628 0 
L 628 4666 
z
" transform="scale(0.015625)"/>
       <path id="DejaVuSans-6f" d="M 1959 3097 
Q 1497 3097 1228 2736 
Q 959 2375 959 1747 
Q 959 1119 1226 758 
Q 1494 397 1959 397 
Q 2419 397 2687 759 
Q 2956 1122 2956 1747 
Q 2956 2369 2687 2733 
Q 2419 3097 1959 3097 
z
M 1959 3584 
Q 2709 3584 3137 3096 
Q 3566 2609 3566 1747 
Q 3566 888 3137 398 
Q 2709 -91 1959 -91 
Q 1206 -91 779 398 
Q 353 888 353 1747 
Q 353 2609 779 3096 
Q 1206 3584 1959 3584 
z
" transform="scale(0.015625)"/>
       <path id="DejaVuSans-73" d="M 2834 3397 
L 2834 2853 
Q 2591 2978 2328 3040 
Q 2066 3103 1784 3103 
Q 1356 3103 1142 2972 
Q 928 2841 928 2578 
Q 928 2378 1081 2264 
Q 1234 2150 1697 2047 
L 1894 2003 
Q 2506 1872 2764 1633 
Q 3022 1394 3022 966 
Q 3022 478 2636 193 
Q 2250 -91 1575 -91 
Q 1294 -91 989 -36 
Q 684 19 347 128 
L 347 722 
Q 666 556 975 473 
Q 1284 391 1588 391 
Q 1994 391 2212 530 
Q 2431 669 2431 922 
Q 2431 1156 2273 1281 
Q 2116 1406 1581 1522 
L 1381 1569 
Q 847 1681 609 1914 
Q 372 2147 372 2553 
Q 372 3047 722 3315 
Q 1072 3584 1716 3584 
Q 2034 3584 2315 3537 
Q 2597 3491 2834 3397 
z
" transform="scale(0.015625)"/>
       <path id="DejaVuSans-69" d="M 603 3500 
L 1178 3500 
L 1178 0 
L 603 0 
L 603 3500 
z
M 603 4863 
L 1178 4863 
L 1178 4134 
L 603 4134 
L 603 4863 
z
" transform="scale(0.015625)"/>
       <path id="DejaVuSans-74" d="M 1172 4494 
L 1172 3500 
L 2356 3500 
L 2356 3053 
L 1172 3053 
L 1172 1153 
Q 1172 725 1289 603 
Q 1406 481 1766 481 
L 2356 481 
L 2356 0 
L 1766 0 
Q 1100 0 847 248 
Q 594 497 594 1153 
L 594 3053 
L 172 3053 
L 172 3500 
L 594 3500 
L 594 4494 
L 1172 4494 
z
" transform="scale(0.015625)"/>
       <path id="DejaVuSans-6e" d="M 3513 2113 
L 3513 0 
L 2938 0 
L 2938 2094 
Q 2938 2591 2744 2837 
Q 2550 3084 2163 3084 
Q 1697 3084 1428 2787 
Q 1159 2491 1159 1978 
L 1159 0 
L 581 0 
L 581 3500 
L 1159 3500 
L 1159 2956 
Q 1366 3272 1645 3428 
Q 1925 3584 2291 3584 
Q 2894 3584 3203 3211 
Q 3513 2838 3513 2113 
z
" transform="scale(0.015625)"/>
       <path id="DejaVuSans-20" transform="scale(0.015625)"/>
       <path id="DejaVuSans-28" d="M 1984 4856 
Q 1566 4138 1362 3434 
Q 1159 2731 1159 2009 
Q 1159 1288 1364 580 
Q 1569 -128 1984 -844 
L 1484 -844 
Q 1016 -109 783 600 
Q 550 1309 550 2009 
Q 550 2706 781 3412 
Q 1013 4119 1484 4856 
L 1984 4856 
z
" transform="scale(0.015625)"/>
       <path id="DejaVuSans-62" d="M 3116 1747 
Q 3116 2381 2855 2742 
Q 2594 3103 2138 3103 
Q 1681 3103 1420 2742 
Q 1159 2381 1159 1747 
Q 1159 1113 1420 752 
Q 1681 391 2138 391 
Q 2594 391 2855 752 
Q 3116 1113 3116 1747 
z
M 1159 2969 
Q 1341 3281 1617 3432 
Q 1894 3584 2278 3584 
Q 2916 3584 3314 3078 
Q 3713 2572 3713 1747 
Q 3713 922 3314 415 
Q 2916 -91 2278 -91 
Q 1894 -91 1617 61 
Q 1341 213 1159 525 
L 1159 0 
L 581 0 
L 581 4863 
L 1159 4863 
L 1159 2969 
z
" transform="scale(0.015625)"/>
       <path id="DejaVuSans-70" d="M 1159 525 
L 1159 -1331 
L 581 -1331 
L 581 3500 
L 1159 3500 
L 1159 2969 
Q 1341 3281 1617 3432 
Q 1894 3584 2278 3584 
Q 2916 3584 3314 3078 
Q 3713 2572 3713 1747 
Q 3713 922 3314 415 
Q 2916 -91 2278 -91 
Q 1894 -91 1617 61 
Q 1341 213 1159 525 
z
M 3116 1747 
Q 3116 2381 2855 2742 
Q 2594 3103 2138 3103 
Q 1681 3103 1420 2742 
Q 1159 2381 1159 1747 
Q 1159 1113 1420 752 
Q 1681 391 2138 391 
Q 2594 391 2855 752 
Q 3116 1113 3116 1747 
z
" transform="scale(0.015625)"/>
       <path id="DejaVuSans-29" d="M 513 4856 
L 1013 4856 
Q 1481 4119 1714 3412 
Q 1947 2706 1947 2009 
Q 1947 1309 1714 600 
Q 1481 -109 1013 -844 
L 513 -844 
Q 928 -128 1133 580 
Q 1338 1288 1338 2009 
Q 1338 2731 1133 3434 
Q 928 4138 513 4856 
z
" transform="scale(0.015625)"/>
      </defs>
      <use xlink:href="#DejaVuSans-50"/>
      <use xlink:href="#DejaVuSans-6f" x="56.677734"/>
      <use xlink:href="#DejaVuSans-73" x="117.859375"/>
      <use xlink:href="#DejaVuSans-69" x="169.958984"/>
      <use xlink:href="#DejaVuSans-74" x="197.742188"/>
      <use xlink:href="#DejaVuSans-69" x="236.951172"/>
      <use xlink:href="#DejaVuSans-6f" x="264.734375"/>
      <use xlink:href="#DejaVuSans-6e" x="325.916016"/>
      <use xlink:href="#DejaVuSans-20" x="389.294922"/>
      <use xlink:href="#DejaVuSans-28" x="421.082031"/>
      <use xlink:href="#DejaVuSans-62" x="460.095703"/>
      <use xlink:href="#DejaVuSans-70" x="523.572266"/>
      <use xlink:href="#DejaVuSans-29" x="587.048828"/>
     </g>
    </g>
   </g>
   <g id="matplotlib.axis_2">
    <g id="ytick_1">
     <g id="line2d_1">
      <path d="M 38.058125 353.2239 
L 993.118125 353.2239 
" clip-path="url(#p9ffe8b9ee9)" style="fill: none; stroke: #dedede; stroke-linecap: square"/>
     </g>
     <g id="text_10">
      <!-- 0 -->
      <g transform="translate(25.968125 356.263275)scale(0.08 -0.08)">
       <use xlink:href="#DejaVuSans-30"/>
      </g>
     </g>
    </g>
    <g id="ytick_2">
     <g id="line2d_2">
      <path d="M 38.058125 309.526379 
L 993.118125 309.526379 
" clip-path="url(#p9ffe8b9ee9)" style="fill: none; stroke: #dedede; stroke-linecap: square"/>
     </g>
     <g id="text_11">
      <!-- 5 -->
      <g transform="translate(25.968125 312.565754)scale(0.08 -0.08)">
       <defs>
        <path id="DejaVuSans-35" d="M 691 4666 
L 3169 4666 
L 3169 4134 
L 1269 4134 
L 1269 2991 
Q 1406 3038 1543 3061 
Q 1681 3084 1819 3084 
Q 2600 3084 3056 2656 
Q 3513 2228 3513 1497 
Q 3513 744 3044 326 
Q 2575 -91 1722 -91 
Q 1428 -91 1123 -41 
Q 819 9 494 109 
L 494 744 
Q 775 591 1075 516 
Q 1375 441 1709 441 
Q 2250 441 2565 725 
Q 2881 1009 2881 1497 
Q 2881 1984 2565 2268 
Q 2250 2553 1709 2553 
Q 1456 2553 1204 2497 
Q 953 2441 691 2322 
L 691 4666 
z
" transform="scale(0.015625)"/>
       </defs>
       <use xlink:href="#DejaVuSans-35"/>
      </g>
     </g>
    </g>
    <g id="ytick_3">
     <g id="line2d_3">
      <path d="M 38.058125 265.828858 
L 993.118125 265.828858 
" clip-path="url(#p9ffe8b9ee9)" style="fill: none; stroke: #dedede; stroke-linecap: square"/>
     </g>
     <g id="text_12">
      <!-- 10 -->
      <g transform="translate(20.878125 268.868233)scale(0.08 -0.08)">
       <use xlink:href="#DejaVuSans-31"/>
       <use xlink:href="#DejaVuSans-30" x="63.623047"/>
      </g>
     </g>
    </g>
    <g id="ytick_4">
     <g id="line2d_4">
      <path d="M 38.058125 222.131337 
L 993.118125 222.131337 
" clip-path="url(#p9ffe8b9ee9)" style="fill: none; stroke: #dedede; stroke-linecap: square"/>
     </g>
     <g id="text_13">
      <!-- 15 -->
      <g transform="translate(20.878125 225.170712)scale(0.08 -0.08)">
       <use xlink:href="#DejaVuSans-31"/>
       <use xlink:href="#DejaVuSans-35" x="63.623047"/>
      </g>
     </g>
    </g>
    <g id="ytick_5">
     <g id="line2d_5">
      <path d="M 38.058125 178.433816 
L 993.118125 178.433816 
" clip-path="url(#p9ffe8b9ee9)" style="fill: none; stroke: #dedede; stroke-linecap: square"/>
     </g>
     <g id="text_14">
      <!-- 20 -->
      <g transform="translate(20.878125 181.473191)scale(0.08 -0.08)">
       <use xlink:href="#DejaVuSans-32"/>
       <use xlink:href="#DejaVuSans-30" x="63.623047"/>
      </g>
     </g>
    </g>
    <g id="ytick_6">
     <g id="line2d_6">
      <path d="M 38.058125 134.736295 
L 993.118125 134.736295 
" clip-path="url(#p9ffe8b9ee9)" style="fill: none; stroke: #dedede; stroke-linecap: square"/>
     </g>
     <g id="text_15">
      <!-- 25 -->
      <g transform="translate(20.878125 137.77567)scale(0.08 -0.08)">
       <use xlink:href="#DejaVuSans-32"/>
       <use xlink:href="#DejaVuSans-35" x="63.623047"/>
      </g>
     </g>
    </g>
    <g id="ytick_7">
     <g id="line2d_7">
      <path d="M 38.058125 91.038774 
L 993.118125 91.038774 
" clip-path="url(#p9ffe8b9ee9)" style="fill: none; stroke: #dedede; stroke-linecap: square"/>
     </g>
     <g id="text_16">
      <!-- 30 -->
      <g transform="translate(20.878125 94.078149)scale(0.08 -0.08)">
       <defs>
        <path id="DejaVuSans-33" d="M 2597 2516 
Q 3050 2419 3304 2112 
Q 3559 1806 3559 1356 
Q 3559 666 3084 287 
Q 2609 -91 1734 -91 
Q 1441 -91 1130 -33 
Q 819 25 488 141 
L 488 750 
Q 750 597 1062 519 
Q 1375 441 1716 441 
Q 2309 441 2620 675 
Q 2931 909 2931 1356 
Q 2931 1769 2642 2001 
Q 2353 2234 1838 2234 
L 1294 2234 
L 1294 2753 
L 1863 2753 
Q 2328 2753 2575 2939 
Q 2822 3125 2822 3475 
Q 2822 3834 2567 4026 
Q 2313 4219 1838 4219 
Q 1578 4219 1281 4162 
Q 984 4106 628 3988 
L 628 4550 
Q 988 4650 1302 4700 
Q 1616 4750 1894 4750 
Q 2613 4750 3031 4423 
Q 3450 4097 3450 3541 
Q 3450 3153 3228 2886 
Q 3006 2619 2597 2516 
z
" transform="scale(0.015625)"/>
       </defs>
       <use xlink:href="#DejaVuSans-33"/>
       <use xlink:href="#DejaVuSans-30" x="63.623047"/>
      </g>
     </g>
    </g>
    <g id="ytick_8">
     <g id="line2d_8">
      <path d="M 38.058125 47.341253 
L 993.118125 47.341253 
" clip-path="url(#p9ffe8b9ee9)" style="fill: none; stroke: #dedede; stroke-linecap: square"/>
     </g>
     <g id="text_17">
      <!-- 35 -->
      <g transform="translate(20.878125 50.380628)scale(0.08 -0.08)">
       <use xlink:href="#DejaVuSans-33"/>
       <use xlink:href="#DejaVuSans-35" x="63.623047"/>
      </g>
     </g>
    </g>
    <g id="text_18">
     <!-- Phred Score -->
     <g transform="translate(14.798438 224.20865)rotate(-90)scale(0.1 -0.1)">
      <defs>
       <path id="DejaVuSans-68" d="M 3513 2113 
L 3513 0 
L 2938 0 
L 2938 2094 
Q 2938 2591 2744 2837 
Q 2550 3084 2163 3084 
Q 1697 3084 1428 2787 
Q 1159 2491 1159 1978 
L 1159 0 
L 581 0 
L 581 4863 
L 1159 4863 
L 1159 2956 
Q 1366 3272 1645 3428 
Q 1925 3584 2291 3584 
Q 2894 3584 3203 3211 
Q 3513 2838 3513 2113 
z
" transform="scale(0.015625)"/>
       <path id="DejaVuSans-72" d="M 2631 2963 
Q 2534 3019 2420 3045 
Q 2306 3072 2169 3072 
Q 1681 3072 1420 2755 
Q 1159 2438 1159 1844 
L 1159 0 
L 581 0 
L 581 3500 
L 1159 3500 
L 1159 2956 
Q 1341 3275 1631 3429 
Q 1922 3584 2338 3584 
Q 2397 3584 2469 3576 
Q 2541 3569 2628 3553 
L 2631 2963 
z
" transform="scale(0.015625)"/>
       <path id="DejaVuSans-65" d="M 3597 1894 
L 3597 1613 
L 953 1613 
Q 991 1019 1311 708 
Q 1631 397 2203 397 
Q 2534 397 2845 478 
Q 3156 559 3463 722 
L 3463 178 
Q 3153 47 2828 -22 
Q 2503 -91 2169 -91 
Q 1331 -91 842 396 
Q 353 884 353 1716 
Q 353 2575 817 3079 
Q 1281 3584 2069 3584 
Q 2775 3584 3186 3129 
Q 3597 2675 3597 1894 
z
M 3022 2063 
Q 3016 2534 2758 2815 
Q 2500 3097 2075 3097 
Q 1594 3097 1305 2825 
Q 1016 2553 972 2059 
L 3022 2063 
z
" transform="scale(0.015625)"/>
       <path id="DejaVuSans-64" d="M 2906 2969 
L 2906 4863 
L 3481 4863 
L 3481 0 
L 2906 0 
L 2906 525 
Q 2725 213 2448 61 
Q 2172 -91 1784 -91 
Q 1150 -91 751 415 
Q 353 922 353 1747 
Q 353 2572 751 3078 
Q 1150 3584 1784 3584 
Q 2172 3584 2448 3432 
Q 2725 3281 2906 2969 
z
M 947 1747 
Q 947 1113 1208 752 
Q 1469 391 1925 391 
Q 2381 391 2643 752 
Q 2906 1113 2906 1747 
Q 2906 2381 2643 2742 
Q 2381 3103 1925 3103 
Q 1469 3103 1208 2742 
Q 947 2381 947 1747 
z
" transform="scale(0.015625)"/>
       <path id="DejaVuSans-53" d="M 3425 4513 
L 3425 3897 
Q 3066 4069 2747 4153 
Q 2428 4238 2131 4238 
Q 1616 4238 1336 4038 
Q 1056 3838 1056 3469 
Q 1056 3159 1242 3001 
Q 1428 2844 1947 2747 
L 2328 2669 
Q 3034 2534 3370 2195 
Q 3706 1856 3706 1288 
Q 3706 609 3251 259 
Q 2797 -91 1919 -91 
Q 1588 -91 1214 -16 
Q 841 59 441 206 
L 441 856 
Q 825 641 1194 531 
Q 1563 422 1919 422 
Q 2459 422 2753 634 
Q 3047 847 3047 1241 
Q 3047 1584 2836 1778 
Q 2625 1972 2144 2069 
L 1759 2144 
Q 1053 2284 737 2584 
Q 422 2884 422 3419 
Q 422 4038 858 4394 
Q 1294 4750 2059 4750 
Q 2388 4750 2728 4690 
Q 3069 4631 3425 4513 
z
" transform="scale(0.015625)"/>
       <path id="DejaVuSans-63" d="M 3122 3366 
L 3122 2828 
Q 2878 2963 2633 3030 
Q 2388 3097 2138 3097 
Q 1578 3097 1268 2742 
Q 959 2388 959 1747 
Q 959 1106 1268 751 
Q 1578 397 2138 397 
Q 2388 397 2633 464 
Q 2878 531 3122 666 
L 3122 134 
Q 2881 22 2623 -34 
Q 2366 -91 2075 -91 
Q 1284 -91 818 406 
Q 353 903 353 1747 
Q 353 2603 823 3093 
Q 1294 3584 2113 3584 
Q 2378 3584 2631 3529 
Q 2884 3475 3122 3366 
z
" transform="scale(0.015625)"/>
      </defs>
      <use xlink:href="#DejaVuSans-50"/>
      <use xlink:href="#DejaVuSans-68" x="60.302734"/>
      <use xlink:href="#DejaVuSans-72" x="123.681641"/>
      <use xlink:href="#DejaVuSans-65" x="162.544922"/>
      <use xlink:href="#DejaVuSans-64" x="224.068359"/>
      <use xlink:href="#DejaVuSans-20" x="287.544922"/>
      <use xlink:href="#DejaVuSans-53" x="319.332031"/>
      <use xlink:href="#DejaVuSans-63" x="382.808594"/>
      <use xlink:href="#DejaVuSans-6f" x="437.789062"/>
      <use xlink:href="#DejaVuSans-72" x="498.970703"/>
      <use xlink:href="#DejaVuSans-65" x="537.833984"/>
     </g>
    </g>
   </g>
   <g id="line2d_9">
    <path d="M 81.469943 78.099698 
L 87.297033 76.160685 
L 93.124123 75.31025 
L 98.951212 75.232093 
L 104.778302 74.987825 
L 110.605392 42.390025 
L 116.432481 43.268247 
L 122.259571 43.107679 
L 128.086661 43.103193 
L 145.56793 43.290189 
L 174.703378 43.709458 
L 203.838827 44.410032 
L 232.974275 45.772705 
L 262.109724 46.891149 
L 291.245172 48.08785 
L 320.38062 48.823225 
L 349.516069 49.518438 
L 378.651517 50.357261 
L 407.786966 51.407764 
L 436.922414 52.285214 
L 466.057863 53.421435 
L 495.193311 54.846424 
L 524.32876 56.538349 
L 553.464208 58.532164 
L 582.599656 60.990202 
L 611.735105 63.745441 
L 640.870553 66.310902 
L 670.006002 68.779797 
L 699.14145 70.815343 
L 728.276899 72.733917 
L 757.412347 73.881014 
L 786.547796 74.681709 
L 815.683244 76.087053 
L 844.818692 77.452388 
L 873.954141 79.07513 
L 903.089589 80.472405 
L 932.225038 81.940248 
L 949.706307 110.406582 
" clip-path="url(#p9ffe8b9ee9)" style="fill: none; stroke: #5cb85c; stroke-linecap: square"/>
   </g>
   <g id="line2d_10">
    <path d="M 81.469943 78.319735 
L 87.297033 76.929738 
L 93.124123 76.75193 
L 98.951212 76.155905 
L 104.778302 76.193599 
L 110.605392 42.318549 
L 116.432481 43.586603 
L 122.259571 43.470434 
L 128.086661 43.384287 
L 145.56793 43.883784 
L 174.703378 44.382738 
L 203.838827 44.748912 
L 232.974275 45.674728 
L 262.109724 46.676762 
L 291.245172 47.880828 
L 320.38062 49.186878 
L 349.516069 50.412633 
L 378.651517 51.451512 
L 407.786966 52.464144 
L 436.922414 53.267905 
L 466.057863 54.33641 
L 495.193311 55.456521 
L 524.32876 56.544738 
L 553.464208 57.693158 
L 582.599656 59.050518 
L 611.735105 60.584913 
L 640.870553 62.209432 
L 670.006002 64.263827 
L 699.14145 66.571837 
L 728.276899 68.829571 
L 757.412347 71.409401 
L 786.547796 73.335127 
L 815.683244 74.900706 
L 844.818692 75.813296 
L 873.954141 76.693299 
L 903.089589 77.253389 
L 932.225038 78.349942 
L 949.706307 97.828274 
" clip-path="url(#p9ffe8b9ee9)" style="fill: none; stroke: #5cb85c; stroke-linecap: square"/>
   </g>
   <g id="line2d_11">
    <path d="M 81.469943 78.210525 
L 87.297033 76.135177 
L 93.124123 75.237682 
L 98.951212 75.154262 
L 104.778302 74.915175 
L 110.605392 42.276431 
L 116.432481 43.136904 
L 122.259571 42.975353 
L 128.086661 42.969787 
L 145.56793 43.135844 
L 174.703378 43.54388 
L 203.838827 44.220857 
L 232.974275 45.564706 
L 262.109724 46.685437 
L 291.245172 47.886028 
L 320.38062 48.645119 
L 349.516069 49.399652 
L 378.651517 50.27215 
L 407.786966 51.333126 
L 436.922414 52.236644 
L 466.057863 53.388513 
L 495.193311 54.823154 
L 524.32876 56.549462 
L 553.464208 58.574465 
L 582.599656 61.029717 
L 611.735105 63.78516 
L 640.870553 66.376992 
L 670.006002 68.839766 
L 699.14145 70.839047 
L 728.276899 72.73997 
L 757.412347 73.838674 
L 786.547796 74.623135 
L 815.683244 75.895935 
L 844.818692 77.185249 
L 873.954141 78.672915 
L 903.089589 79.927443 
L 932.225038 81.195248 
L 949.706307 109.598711 
" clip-path="url(#p9ffe8b9ee9)" style="fill: none; stroke: #5cb85c; stroke-linecap: square"/>
   </g>
   <g id="line2d_12">
    <path d="M 81.469943 78.461135 
L 87.297033 76.971679 
L 93.124123 76.792556 
L 98.951212 76.214034 
L 104.778302 76.254203 
L 110.605392 42.392336 
L 116.432481 43.660285 
L 122.259571 43.570281 
L 128.086661 43.462027 
L 145.56793 43.940163 
L 174.703378 44.44417 
L 203.838827 44.820699 
L 232.974275 45.715115 
L 262.109724 46.710116 
L 291.245172 47.918099 
L 320.38062 49.233007 
L 349.516069 50.496306 
L 378.651517 51.565654 
L 407.786966 52.606733 
L 436.922414 53.444022 
L 466.057863 54.569507 
L 495.193311 55.696625 
L 524.32876 56.811728 
L 553.464208 58.012523 
L 582.599656 59.39334 
L 611.735105 60.914698 
L 640.870553 62.55588 
L 670.006002 64.591902 
L 699.14145 66.849389 
L 728.276899 69.056838 
L 757.412347 71.546869 
L 786.547796 73.358552 
L 815.683244 74.822111 
L 844.818692 75.609165 
L 873.954141 76.355938 
L 903.089589 76.733676 
L 932.225038 77.700263 
L 949.706307 97.152577 
" clip-path="url(#p9ffe8b9ee9)" style="fill: none; stroke: #5cb85c; stroke-linecap: square"/>
   </g>
   <g id="line2d_13">
    <path d="M 81.469943 42.703878 
L 87.297033 41.372005 
L 93.124123 41.465169 
L 98.951212 41.375192 
L 104.778302 41.282754 
L 110.605392 42.236548 
L 116.432481 43.360698 
L 122.259571 43.754511 
L 128.086661 43.818102 
L 145.56793 44.241045 
L 174.703378 46.23104 
L 203.838827 48.070538 
L 232.974275 51.529693 
L 262.109724 53.882738 
L 291.245172 55.790292 
L 320.38062 56.954454 
L 349.516069 58.328405 
L 378.651517 59.845453 
L 407.786966 61.379105 
L 436.922414 62.726789 
L 466.057863 64.939411 
L 495.193311 66.823718 
L 524.32876 68.24238 
L 553.464208 70.403606 
L 582.599656 72.397158 
L 611.735105 73.741996 
L 640.870553 75.478466 
L 670.006002 77.207307 
L 699.14145 78.542793 
L 728.276899 80.071378 
L 757.412347 82.329756 
L 786.547796 83.857083 
L 815.683244 84.83669 
L 844.818692 86.621175 
L 873.954141 87.08061 
L 903.089589 89.408077 
L 932.225038 94.410315 
L 949.706307 93.640926 
" clip-path="url(#p9ffe8b9ee9)" style="fill: none; stroke: #5cb85c; stroke-linecap: square"/>
   </g>
   <g id="line2d_14">
    <path d="M 81.469943 72.785582 
L 87.297033 58.657823 
L 93.124123 55.690014 
L 98.951212 51.876393 
L 104.778302 51.088664 
L 110.605392 51.660342 
L 116.432481 53.861047 
L 122.259571 54.76526 
L 128.086661 53.988468 
L 145.56793 54.021896 
L 174.703378 54.303143 
L 203.838827 54.759934 
L 232.974275 56.517722 
L 262.109724 56.899518 
L 291.245172 57.936235 
L 320.38062 59.20619 
L 349.516069 61.649708 
L 378.651517 63.154009 
L 407.786966 64.478656 
L 436.922414 65.342407 
L 466.057863 66.546057 
L 495.193311 68.161768 
L 524.32876 68.864885 
L 553.464208 70.142878 
L 582.599656 71.814294 
L 611.735105 73.240832 
L 640.870553 75.031752 
L 670.006002 75.756103 
L 699.14145 76.109215 
L 728.276899 77.63215 
L 757.412347 77.345938 
L 786.547796 77.895106 
L 815.683244 79.747781 
L 844.818692 81.614304 
L 873.954141 83.949625 
L 903.089589 84.587557 
L 932.225038 87.939186 
L 949.706307 85.921036 
" clip-path="url(#p9ffe8b9ee9)" style="fill: none; stroke: #5cb85c; stroke-linecap: square"/>
   </g>
   <g id="line2d_15">
    <path d="M 81.469943 44.036647 
L 87.297033 40.236501 
L 93.124123 39.616235 
L 98.951212 39.35147 
L 104.778302 38.939844 
L 110.605392 39.717577 
L 116.432481 41.024865 
L 122.259571 41.345082 
L 128.086661 41.299269 
L 145.56793 41.647489 
L 174.703378 43.21482 
L 203.838827 44.47624 
L 232.974275 47.01869 
L 262.109724 49.116259 
L 291.245172 50.832852 
L 320.38062 51.992204 
L 349.516069 53.374818 
L 378.651517 54.955811 
L 407.786966 56.44978 
L 436.922414 57.85341 
L 466.057863 60.092038 
L 495.193311 62.03151 
L 524.32876 63.508975 
L 553.464208 65.79585 
L 582.599656 67.966253 
L 611.735105 69.54531 
L 640.870553 71.543073 
L 670.006002 73.516437 
L 699.14145 75.004536 
L 728.276899 76.780535 
L 757.412347 79.388999 
L 786.547796 81.183107 
L 815.683244 82.50547 
L 844.818692 84.518957 
L 873.954141 85.404842 
L 903.089589 88.110965 
L 932.225038 93.714025 
L 949.706307 93.231331 
" clip-path="url(#p9ffe8b9ee9)" style="fill: none; stroke: #5cb85c; stroke-linecap: square"/>
   </g>
   <g id="line2d_16">
    <path d="M 81.469943 65.149698 
L 87.297033 56.067359 
L 93.124123 54.549427 
L 98.951212 51.51502 
L 104.778302 51.138387 
L 110.605392 51.728736 
L 116.432481 52.574774 
L 122.259571 54.103322 
L 128.086661 53.269805 
L 145.56793 54.114216 
L 174.703378 54.712489 
L 203.838827 55.231105 
L 232.974275 57.126896 
L 262.109724 57.481019 
L 291.245172 58.543135 
L 320.38062 60.217519 
L 349.516069 62.886713 
L 378.651517 64.332945 
L 407.786966 65.73502 
L 436.922414 66.76974 
L 466.057863 68.058775 
L 495.193311 69.823477 
L 524.32876 70.475412 
L 553.464208 72.145609 
L 582.599656 73.708903 
L 611.735105 75.434052 
L 640.870553 77.44852 
L 670.006002 77.882392 
L 699.14145 78.422925 
L 728.276899 80.155086 
L 757.412347 79.879459 
L 786.547796 80.378334 
L 815.683244 82.425352 
L 844.818692 84.479314 
L 873.954141 87.165607 
L 903.089589 87.698902 
L 932.225038 91.227201 
L 949.706307 89.055377 
" clip-path="url(#p9ffe8b9ee9)" style="fill: none; stroke: #5cb85c; stroke-linecap: square"/>
   </g>
   <g id="line2d_17">
    <path d="M 81.469943 41.60373 
L 87.297033 39.668859 
L 93.124123 39.310178 
L 98.951212 39.057217 
L 104.778302 38.834504 
L 110.605392 39.853395 
L 116.432481 40.647221 
L 122.259571 41.236035 
L 128.086661 41.00546 
L 145.56793 41.362234 
L 174.703378 43.026297 
L 203.838827 44.236105 
L 232.974275 46.915996 
L 262.109724 49.026756 
L 291.245172 50.863013 
L 320.38062 51.970552 
L 349.516069 53.511568 
L 378.651517 54.967343 
L 407.786966 56.499013 
L 436.922414 57.887299 
L 466.057863 59.908683 
L 495.193311 61.761768 
L 524.32876 63.074193 
L 553.464208 65.153025 
L 582.599656 67.024562 
L 611.735105 68.519328 
L 640.870553 70.356853 
L 670.006002 72.256825 
L 699.14145 73.639918 
L 728.276899 75.375443 
L 757.412347 77.737289 
L 786.547796 79.258319 
L 815.683244 80.583253 
L 844.818692 82.774864 
L 873.954141 83.321476 
L 903.089589 85.815273 
L 932.225038 90.839174 
L 949.706307 90.124863 
" clip-path="url(#p9ffe8b9ee9)" style="fill: none; stroke: #5cb85c; stroke-linecap: square"/>
   </g>
   <g id="line2d_18">
    <path d="M 81.469943 71.503599 
L 87.297033 57.446873 
L 93.124123 54.447029 
L 98.951212 51.141286 
L 104.778302 50.554024 
L 110.605392 50.677873 
L 116.432481 51.497129 
L 122.259571 53.330917 
L 128.086661 52.501216 
L 145.56793 52.427483 
L 174.703378 52.653148 
L 203.838827 52.938043 
L 232.974275 54.662424 
L 262.109724 55.113128 
L 291.245172 56.263114 
L 320.38062 57.676934 
L 349.516069 59.948032 
L 378.651517 61.324715 
L 407.786966 62.776296 
L 436.922414 63.693484 
L 466.057863 64.996032 
L 495.193311 66.489055 
L 524.32876 67.219932 
L 553.464208 68.39875 
L 582.599656 70.25229 
L 611.735105 71.681858 
L 640.870553 73.755261 
L 670.006002 74.232641 
L 699.14145 74.75284 
L 728.276899 76.474166 
L 757.412347 76.304158 
L 786.547796 77.145116 
L 815.683244 79.182913 
L 844.818692 81.088297 
L 873.954141 83.233483 
L 903.089589 84.114671 
L 932.225038 87.635983 
L 949.706307 85.62679 
" clip-path="url(#p9ffe8b9ee9)" style="fill: none; stroke: #5cb85c; stroke-linecap: square"/>
   </g>
   <g id="line2d_19">
    <path d="M 81.469943 42.56856 
L 87.297033 41.279523 
L 93.124123 41.373387 
L 98.951212 41.327723 
L 104.778302 41.219038 
L 110.605392 42.181499 
L 116.432481 43.21783 
L 122.259571 43.638714 
L 128.086661 43.675225 
L 145.56793 44.073796 
L 174.703378 46.0393 
L 203.838827 47.876672 
L 232.974275 51.341344 
L 262.109724 53.722123 
L 291.245172 55.647964 
L 320.38062 56.826887 
L 349.516069 58.243602 
L 378.651517 59.802883 
L 407.786966 61.385137 
L 436.922414 62.747987 
L 466.057863 65.014647 
L 495.193311 66.901387 
L 524.32876 68.344694 
L 553.464208 70.57061 
L 582.599656 72.599384 
L 611.735105 73.987445 
L 640.870553 75.752768 
L 670.006002 77.544931 
L 699.14145 78.901435 
L 728.276899 80.428045 
L 757.412347 82.737796 
L 786.547796 84.204949 
L 815.683244 85.174465 
L 844.818692 86.84256 
L 873.954141 87.283657 
L 903.089589 89.500396 
L 932.225038 94.462764 
L 949.706307 93.501129 
" clip-path="url(#p9ffe8b9ee9)" style="fill: none; stroke: #5cb85c; stroke-linecap: square"/>
   </g>
   <g id="line2d_20">
    <path d="M 81.469943 82.190711 
L 87.297033 63.634893 
L 93.124123 59.029663 
L 98.951212 54.520527 
L 104.778302 53.29647 
L 110.605392 53.604193 
L 116.432481 55.688943 
L 122.259571 56.516574 
L 128.086661 56.24786 
L 145.56793 55.994624 
L 174.703378 56.183299 
L 203.838827 56.547378 
L 232.974275 58.352536 
L 262.109724 58.679551 
L 291.245172 59.725782 
L 320.38062 61.061207 
L 349.516069 63.602646 
L 378.651517 65.122254 
L 407.786966 66.474658 
L 436.922414 67.37994 
L 466.057863 68.631291 
L 495.193311 70.263385 
L 524.32876 70.932325 
L 553.464208 72.172919 
L 582.599656 73.863457 
L 611.735105 75.312055 
L 640.870553 77.073737 
L 670.006002 77.773156 
L 699.14145 77.999021 
L 728.276899 79.520649 
L 757.412347 79.133323 
L 786.547796 79.591504 
L 815.683244 81.386068 
L 844.818692 83.130809 
L 873.954141 85.333717 
L 903.089589 85.808798 
L 932.225038 88.958215 
L 949.706307 86.767732 
" clip-path="url(#p9ffe8b9ee9)" style="fill: none; stroke: #5cb85c; stroke-linecap: square"/>
   </g>
   <g id="line2d_21">
    <path d="M 81.469943 46.673691 
L 87.297033 42.759174 
L 93.124123 42.063737 
L 98.951212 41.780852 
L 104.778302 41.468906 
L 110.605392 42.256301 
L 116.432481 43.444732 
L 122.259571 43.753935 
L 128.086661 43.782791 
L 145.56793 44.103716 
L 174.703378 45.934386 
L 203.838827 47.687281 
L 232.974275 50.971584 
L 262.109724 53.351482 
L 291.245172 55.255637 
L 320.38062 56.482772 
L 349.516069 57.916616 
L 378.651517 59.489718 
L 407.786966 61.0555 
L 436.922414 62.476785 
L 466.057863 64.751817 
L 495.193311 66.697902 
L 524.32876 68.142203 
L 553.464208 70.361422 
L 582.599656 72.389178 
L 611.735105 73.803474 
L 640.870553 75.638379 
L 670.006002 77.360137 
L 699.14145 78.787567 
L 728.276899 80.344677 
L 757.412347 82.689283 
L 786.547796 84.231571 
L 815.683244 85.212897 
L 844.818692 87.016248 
L 873.954141 87.441266 
L 903.089589 89.826676 
L 932.225038 95.027202 
L 949.706307 94.319776 
" clip-path="url(#p9ffe8b9ee9)" style="fill: none; stroke: #5cb85c; stroke-linecap: square"/>
   </g>
   <g id="line2d_22">
    <path d="M 81.469943 67.22853 
L 87.297033 56.969245 
L 93.124123 55.477043 
L 98.951212 52.226741 
L 104.778302 51.5963 
L 110.605392 52.163187 
L 116.432481 53.842781 
L 122.259571 55.541694 
L 128.086661 54.986918 
L 145.56793 54.787119 
L 174.703378 55.256844 
L 203.838827 55.729847 
L 232.974275 57.574094 
L 262.109724 57.904017 
L 291.245172 59.043398 
L 320.38062 60.40998 
L 349.516069 63.018324 
L 378.651517 64.577344 
L 407.786966 65.926346 
L 436.922414 66.798495 
L 466.057863 68.055113 
L 495.193311 69.677852 
L 524.32876 70.393451 
L 553.464208 71.717883 
L 582.599656 73.414457 
L 611.735105 74.929933 
L 640.870553 76.72629 
L 670.006002 77.4711 
L 699.14145 77.820513 
L 728.276899 79.36206 
L 757.412347 79.004364 
L 786.547796 79.569098 
L 815.683244 81.471457 
L 844.818692 83.342418 
L 873.954141 85.762212 
L 903.089589 86.350783 
L 932.225038 89.800227 
L 949.706307 87.741753 
" clip-path="url(#p9ffe8b9ee9)" style="fill: none; stroke: #5cb85c; stroke-linecap: square"/>
   </g>
   <g id="line2d_23">
    <path d="M 81.469943 42.180222 
L 87.297033 41.323266 
L 93.124123 41.532507 
L 98.951212 41.393623 
L 104.778302 41.392454 
L 110.605392 42.380091 
L 116.432481 43.444642 
L 122.259571 43.795678 
L 128.086661 43.861039 
L 145.56793 44.263404 
L 174.703378 46.238567 
L 203.838827 48.058969 
L 232.974275 51.485812 
L 262.109724 53.785081 
L 291.245172 55.641967 
L 320.38062 56.73915 
L 349.516069 58.078445 
L 378.651517 59.544577 
L 407.786966 61.04631 
L 436.922414 62.331632 
L 466.057863 64.480019 
L 495.193311 66.276898 
L 524.32876 67.665347 
L 553.464208 69.789357 
L 582.599656 71.764805 
L 611.735105 73.098043 
L 640.870553 74.824975 
L 670.006002 76.561867 
L 699.14145 77.903661 
L 728.276899 79.430483 
L 757.412347 81.689001 
L 786.547796 83.251342 
L 815.683244 84.244286 
L 844.818692 86.004111 
L 873.954141 86.544559 
L 903.089589 88.854284 
L 932.225038 93.938057 
L 949.706307 93.14384 
" clip-path="url(#p9ffe8b9ee9)" style="fill: none; stroke: #5cb85c; stroke-linecap: square"/>
   </g>
   <g id="line2d_24">
    <path d="M 81.469943 66.901345 
L 87.297033 55.312842 
L 93.124123 53.183626 
L 98.951212 49.933719 
L 104.778302 49.196364 
L 110.605392 49.710822 
L 116.432481 51.396753 
L 122.259571 52.940047 
L 128.086661 52.214297 
L 145.56793 51.969349 
L 174.703378 52.300256 
L 203.838827 52.68046 
L 232.974275 54.393207 
L 262.109724 54.746474 
L 291.245172 55.654216 
L 320.38062 56.850767 
L 349.516069 59.110365 
L 378.651517 60.562385 
L 407.786966 61.793501 
L 436.922414 62.612776 
L 466.057863 63.733568 
L 495.193311 65.277737 
L 524.32876 65.976138 
L 553.464208 67.149307 
L 582.599656 68.854867 
L 611.735105 70.234785 
L 640.870553 72.017543 
L 670.006002 72.797314 
L 699.14145 73.210629 
L 728.276899 74.745299 
L 757.412347 74.593492 
L 786.547796 75.242604 
L 815.683244 77.231098 
L 844.818692 79.238458 
L 873.954141 81.681487 
L 903.089589 82.445725 
L 932.225038 85.949166 
L 949.706307 84.116417 
" clip-path="url(#p9ffe8b9ee9)" style="fill: none; stroke: #5cb85c; stroke-linecap: square"/>
   </g>
   <g id="line2d_25">
    <path d="M 81.469943 42.594981 
L 87.297033 41.45498 
L 93.124123 41.567511 
L 98.951212 41.447822 
L 104.778302 41.444784 
L 110.605392 42.418183 
L 116.432481 43.551686 
L 122.259571 44.023813 
L 128.086661 44.017252 
L 145.56793 44.53225 
L 174.703378 46.594421 
L 203.838827 48.496164 
L 232.974275 52.103728 
L 262.109724 54.549736 
L 291.245172 56.523115 
L 320.38062 57.729687 
L 349.516069 59.164234 
L 378.651517 60.738652 
L 407.786966 62.298869 
L 436.922414 63.776097 
L 466.057863 66.008243 
L 495.193311 67.986463 
L 524.32876 69.385594 
L 553.464208 71.581185 
L 582.599656 73.597801 
L 611.735105 74.980408 
L 640.870553 76.70483 
L 670.006002 78.505332 
L 699.14145 79.834279 
L 728.276899 81.389362 
L 757.412347 83.563955 
L 786.547796 85.215238 
L 815.683244 86.151985 
L 844.818692 87.884861 
L 873.954141 88.308779 
L 903.089589 90.562399 
L 932.225038 95.519631 
L 949.706307 94.80159 
" clip-path="url(#p9ffe8b9ee9)" style="fill: none; stroke: #5cb85c; stroke-linecap: square"/>
   </g>
   <g id="line2d_26">
    <path d="M 81.469943 67.38741 
L 87.297033 56.202063 
L 93.124123 53.821233 
L 98.951212 50.716789 
L 104.778302 50.027193 
L 110.605392 50.695051 
L 116.432481 52.792677 
L 122.259571 53.566633 
L 128.086661 53.069872 
L 145.56793 52.624834 
L 174.703378 52.859562 
L 203.838827 53.289048 
L 232.974275 55.064008 
L 262.109724 55.463439 
L 291.245172 56.545585 
L 320.38062 57.808462 
L 349.516069 60.195327 
L 378.651517 61.738804 
L 407.786966 63.078678 
L 436.922414 63.992772 
L 466.057863 65.246739 
L 495.193311 66.933974 
L 524.32876 67.647744 
L 553.464208 68.947237 
L 582.599656 70.646996 
L 611.735105 72.129379 
L 640.870553 73.918555 
L 670.006002 74.706041 
L 699.14145 75.055576 
L 728.276899 76.64063 
L 757.412347 76.379515 
L 786.547796 76.929297 
L 815.683244 78.828623 
L 844.818692 80.717761 
L 873.954141 83.102713 
L 903.089589 83.745164 
L 932.225038 87.145474 
L 949.706307 85.228912 
" clip-path="url(#p9ffe8b9ee9)" style="fill: none; stroke: #5cb85c; stroke-linecap: square"/>
   </g>
   <g id="line2d_27">
    <path d="M 81.469943 42.39563 
L 87.297033 41.288193 
L 93.124123 41.373551 
L 98.951212 41.308472 
L 104.778302 41.274654 
L 110.605392 42.25197 
L 116.432481 43.300617 
L 122.259571 43.748581 
L 128.086661 43.784691 
L 145.56793 44.212448 
L 174.703378 46.249977 
L 203.838827 48.119841 
L 232.974275 51.690644 
L 262.109724 54.105531 
L 291.245172 56.0753 
L 320.38062 57.27861 
L 349.516069 58.702699 
L 378.651517 60.273313 
L 407.786966 61.858663 
L 436.922414 63.234275 
L 466.057863 65.496677 
L 495.193311 67.386115 
L 524.32876 68.7781 
L 553.464208 70.993933 
L 582.599656 73.019121 
L 611.735105 74.410263 
L 640.870553 76.162695 
L 670.006002 77.957578 
L 699.14145 79.293653 
L 728.276899 80.844421 
L 757.412347 83.115182 
L 786.547796 84.609079 
L 815.683244 85.589705 
L 844.818692 87.25746 
L 873.954141 87.706898 
L 903.089589 89.917316 
L 932.225038 94.89235 
L 949.706307 93.947277 
" clip-path="url(#p9ffe8b9ee9)" style="fill: none; stroke: #5cb85c; stroke-linecap: square"/>
   </g>
   <g id="line2d_28">
    <path d="M 81.469943 73.719399 
L 87.297033 59.443471 
L 93.124123 56.351485 
L 98.951212 52.670698 
L 104.778302 51.747458 
L 110.605392 52.11354 
L 116.432481 53.817909 
L 122.259571 54.995151 
L 128.086661 54.453234 
L 145.56793 54.499675 
L 174.703378 54.781436 
L 203.838827 55.169444 
L 232.974275 56.942073 
L 262.109724 57.302451 
L 291.245172 58.245154 
L 320.38062 59.564536 
L 349.516069 61.996846 
L 378.651517 63.490576 
L 407.786966 64.821734 
L 436.922414 65.679262 
L 466.057863 66.868844 
L 495.193311 68.475059 
L 524.32876 69.154211 
L 553.464208 70.351184 
L 582.599656 72.046452 
L 611.735105 73.453406 
L 640.870553 75.201315 
L 670.006002 75.908612 
L 699.14145 76.185891 
L 728.276899 77.671 
L 757.412347 77.320048 
L 786.547796 77.831925 
L 815.683244 79.630843 
L 844.818692 81.42628 
L 873.954141 83.635575 
L 903.089589 84.19857 
L 932.225038 87.437325 
L 949.706307 85.339202 
" clip-path="url(#p9ffe8b9ee9)" style="fill: none; stroke: #5cb85c; stroke-linecap: square"/>
   </g>
   <g id="line2d_29">
    <path d="M 81.469943 41.937951 
L 87.297033 40.873376 
L 93.124123 41.032927 
L 98.951212 40.877908 
L 104.778302 40.852357 
L 110.605392 41.752618 
L 116.432481 42.845236 
L 122.259571 43.190573 
L 128.086661 43.273611 
L 145.56793 43.640919 
L 174.703378 45.506753 
L 203.838827 47.267456 
L 232.974275 50.500628 
L 262.109724 52.754158 
L 291.245172 54.582968 
L 320.38062 55.736616 
L 349.516069 57.082325 
L 378.651517 58.549039 
L 407.786966 60.067733 
L 436.922414 61.402479 
L 466.057863 63.626056 
L 495.193311 65.458529 
L 524.32876 66.913473 
L 553.464208 69.071521 
L 582.599656 71.079604 
L 611.735105 72.486332 
L 640.870553 74.336507 
L 670.006002 76.075889 
L 699.14145 77.528642 
L 728.276899 79.156114 
L 757.412347 81.515191 
L 786.547796 83.185925 
L 815.683244 84.296494 
L 844.818692 86.184299 
L 873.954141 86.844428 
L 903.089589 89.284501 
L 932.225038 94.539999 
L 949.706307 94.013547 
" clip-path="url(#p9ffe8b9ee9)" style="fill: none; stroke: #5cb85c; stroke-linecap: square"/>
   </g>
   <g id="line2d_30">
    <path d="M 81.469943 64.072034 
L 87.297033 54.929403 
L 93.124123 53.542065 
L 98.951212 50.54669 
L 104.778302 49.997333 
L 110.605392 50.79669 
L 116.432481 52.333835 
L 122.259571 53.625739 
L 128.086661 53.283645 
L 145.56793 53.244086 
L 174.703378 53.249038 
L 203.838827 53.646994 
L 232.974275 55.305912 
L 262.109724 55.679767 
L 291.245172 56.667302 
L 320.38062 57.946982 
L 349.516069 60.223397 
L 378.651517 61.695227 
L 407.786966 62.901034 
L 436.922414 63.682299 
L 466.057863 64.844534 
L 495.193311 66.435289 
L 524.32876 67.120802 
L 553.464208 68.326 
L 582.599656 70.045207 
L 611.735105 71.439848 
L 640.870553 73.200158 
L 670.006002 74.019264 
L 699.14145 74.427556 
L 728.276899 76.000211 
L 757.412347 75.782037 
L 786.547796 76.436958 
L 815.683244 78.452427 
L 844.818692 80.472844 
L 873.954141 83.051136 
L 903.089589 83.796028 
L 932.225038 87.342693 
L 949.706307 85.500242 
" clip-path="url(#p9ffe8b9ee9)" style="fill: none; stroke: #5cb85c; stroke-linecap: square"/>
   </g>
   <g id="line2d_31">
    <path d="M 81.469943 41.902183 
L 87.297033 40.834064 
L 93.124123 41.009668 
L 98.951212 40.895103 
L 104.778302 40.833581 
L 110.605392 41.803295 
L 116.432481 42.911875 
L 122.259571 43.266299 
L 128.086661 43.334321 
L 145.56793 43.721708 
L 174.703378 45.67551 
L 203.838827 47.453299 
L 232.974275 50.783183 
L 262.109724 53.050359 
L 291.245172 54.934521 
L 320.38062 56.036858 
L 349.516069 57.397563 
L 378.651517 58.89244 
L 407.786966 60.452196 
L 436.922414 61.752085 
L 466.057863 64.003209 
L 495.193311 65.826452 
L 524.32876 67.315061 
L 553.464208 69.524462 
L 582.599656 71.575627 
L 611.735105 72.912675 
L 640.870553 74.729542 
L 670.006002 76.479126 
L 699.14145 77.851875 
L 728.276899 79.409636 
L 757.412347 81.765764 
L 786.547796 83.245993 
L 815.683244 84.308723 
L 844.818692 86.056217 
L 873.954141 86.651254 
L 903.089589 88.959617 
L 932.225038 94.014557 
L 949.706307 93.265773 
" clip-path="url(#p9ffe8b9ee9)" style="fill: none; stroke: #5cb85c; stroke-linecap: square"/>
   </g>
   <g id="line2d_32">
    <path d="M 81.469943 62.943095 
L 87.297033 53.549983 
L 93.124123 51.857787 
L 98.951212 49.177113 
L 104.778302 48.672444 
L 110.605392 49.561315 
L 116.432481 51.02179 
L 122.259571 52.226099 
L 128.086661 51.421598 
L 145.56793 51.479178 
L 174.703378 51.806179 
L 203.838827 52.188523 
L 232.974275 53.888718 
L 262.109724 54.26422 
L 291.245172 55.228421 
L 320.38062 56.444708 
L 349.516069 58.733061 
L 378.651517 60.171837 
L 407.786966 61.473061 
L 436.922414 62.296977 
L 466.057863 63.47793 
L 495.193311 65.05853 
L 524.32876 65.779167 
L 553.464208 66.975785 
L 582.599656 68.65293 
L 611.735105 70.028721 
L 640.870553 71.756811 
L 670.006002 72.523254 
L 699.14145 72.907033 
L 728.276899 74.419858 
L 757.412347 74.151499 
L 786.547796 74.719953 
L 815.683244 76.586457 
L 844.818692 78.505847 
L 873.954141 80.803308 
L 903.089589 81.448226 
L 932.225038 84.774096 
L 949.706307 82.83028 
" clip-path="url(#p9ffe8b9ee9)" style="fill: none; stroke: #5cb85c; stroke-linecap: square"/>
   </g>
   <g id="line2d_33">
    <path d="M 81.469943 41.790352 
L 87.297033 40.30445 
L 93.124123 40.271593 
L 98.951212 40.109079 
L 104.778302 39.994007 
L 110.605392 40.975947 
L 116.432481 42.01188 
L 122.259571 42.400738 
L 128.086661 42.450493 
L 145.56793 42.792575 
L 174.703378 44.68426 
L 203.838827 46.414506 
L 232.974275 49.705333 
L 262.109724 51.994846 
L 291.245172 54.007155 
L 320.38062 55.190048 
L 349.516069 56.648846 
L 378.651517 58.236459 
L 407.786966 59.897417 
L 436.922414 61.244563 
L 466.057863 63.633514 
L 495.193311 65.491651 
L 524.32876 67.023477 
L 553.464208 69.343125 
L 582.599656 71.510224 
L 611.735105 72.898798 
L 640.870553 74.856541 
L 670.006002 76.721601 
L 699.14145 78.24498 
L 728.276899 79.912655 
L 757.412347 82.451079 
L 786.547796 83.890001 
L 815.683244 85.162293 
L 844.818692 86.95787 
L 873.954141 87.635923 
L 903.089589 90.01249 
L 932.225038 95.147478 
L 949.706307 94.308916 
" clip-path="url(#p9ffe8b9ee9)" style="fill: none; stroke: #5cb85c; stroke-linecap: square"/>
   </g>
   <g id="line2d_34">
    <path d="M 81.469943 62.261791 
L 87.297033 52.746973 
L 93.124123 51.01387 
L 98.951212 48.35253 
L 104.778302 47.904779 
L 110.605392 48.552722 
L 116.432481 49.943271 
L 122.259571 51.250694 
L 128.086661 50.327026 
L 145.56793 50.597925 
L 174.703378 50.966748 
L 203.838827 51.390206 
L 232.974275 53.135169 
L 262.109724 53.612512 
L 291.245172 54.686082 
L 320.38062 56.04128 
L 349.516069 58.413371 
L 378.651517 59.936473 
L 407.786966 61.364449 
L 436.922414 62.25656 
L 466.057863 63.585719 
L 495.193311 65.17674 
L 524.32876 65.994921 
L 553.464208 67.243949 
L 582.599656 69.050222 
L 611.735105 70.522997 
L 640.870553 72.361601 
L 670.006002 73.129123 
L 699.14145 73.665996 
L 728.276899 75.213652 
L 757.412347 75.032034 
L 786.547796 75.692851 
L 815.683244 77.716165 
L 844.818692 79.623155 
L 873.954141 81.978873 
L 903.089589 82.639335 
L 932.225038 86.069142 
L 949.706307 84.069584 
" clip-path="url(#p9ffe8b9ee9)" style="fill: none; stroke: #5cb85c; stroke-linecap: square"/>
   </g>
   <g id="line2d_35">
    <path d="M 81.469943 41.784229 
L 87.297033 40.453926 
L 93.124123 40.53495 
L 98.951212 40.414161 
L 104.778302 40.293278 
L 110.605392 41.235409 
L 116.432481 42.381321 
L 122.259571 42.66221 
L 128.086661 42.772555 
L 145.56793 43.098381 
L 174.703378 44.988406 
L 203.838827 46.74672 
L 232.974275 50.022791 
L 262.109724 52.321888 
L 291.245172 54.28166 
L 320.38062 55.453433 
L 349.516069 56.876089 
L 378.651517 58.446286 
L 407.786966 60.082324 
L 436.922414 61.417693 
L 466.057863 63.772739 
L 495.193311 65.601563 
L 524.32876 67.113084 
L 553.464208 69.373138 
L 582.599656 71.56842 
L 611.735105 72.877195 
L 640.870553 74.818986 
L 670.006002 76.582839 
L 699.14145 78.052225 
L 728.276899 79.648434 
L 757.412347 82.15369 
L 786.547796 83.528575 
L 815.683244 84.741598 
L 844.818692 86.435072 
L 873.954141 87.024717 
L 903.089589 89.359349 
L 932.225038 94.550303 
L 949.706307 93.623449 
" clip-path="url(#p9ffe8b9ee9)" style="fill: none; stroke: #5cb85c; stroke-linecap: square"/>
   </g>
   <g id="line2d_36">
    <path d="M 81.469943 62.287194 
L 87.297033 53.049952 
L 93.124123 51.491246 
L 98.951212 48.827384 
L 104.778302 48.369997 
L 110.605392 49.164948 
L 116.432481 50.608303 
L 122.259571 52.079584 
L 128.086661 51.025205 
L 145.56793 51.408486 
L 174.703378 51.908957 
L 203.838827 52.368495 
L 232.974275 54.122504 
L 262.109724 54.582668 
L 291.245172 55.64007 
L 320.38062 56.980839 
L 349.516069 59.406567 
L 378.651517 60.91866 
L 407.786966 62.327298 
L 436.922414 63.196146 
L 466.057863 64.486104 
L 495.193311 66.08962 
L 524.32876 66.862574 
L 553.464208 68.102449 
L 582.599656 69.874036 
L 611.735105 71.291949 
L 640.870553 73.073252 
L 670.006002 73.838672 
L 699.14145 74.277635 
L 728.276899 75.7802 
L 757.412347 75.545318 
L 786.547796 76.11746 
L 815.683244 78.0743 
L 844.818692 79.955143 
L 873.954141 82.271322 
L 903.089589 82.902097 
L 932.225038 86.294005 
L 949.706307 84.23126 
" clip-path="url(#p9ffe8b9ee9)" style="fill: none; stroke: #5cb85c; stroke-linecap: square"/>
   </g>
   <g id="line2d_37">
    <path d="M 81.469943 42.245008 
L 87.297033 40.896639 
L 93.124123 40.97514 
L 98.951212 40.848679 
L 104.778302 40.754026 
L 110.605392 41.736954 
L 116.432481 42.856818 
L 122.259571 43.215995 
L 128.086661 43.289964 
L 145.56793 43.637021 
L 174.703378 45.583239 
L 203.838827 47.395581 
L 232.974275 50.781694 
L 262.109724 53.157501 
L 291.245172 55.134406 
L 320.38062 56.333773 
L 349.516069 57.782541 
L 378.651517 59.361042 
L 407.786966 60.976972 
L 436.922414 62.324287 
L 466.057863 64.619667 
L 495.193311 66.484848 
L 524.32876 67.988937 
L 553.464208 70.259749 
L 582.599656 72.309993 
L 611.735105 73.72604 
L 640.870553 75.567755 
L 670.006002 77.352559 
L 699.14145 78.750568 
L 728.276899 80.367362 
L 757.412347 82.773192 
L 786.547796 84.205512 
L 815.683244 85.262664 
L 844.818692 87.027649 
L 873.954141 87.554052 
L 903.089589 89.866729 
L 932.225038 94.94222 
L 949.706307 93.990842 
" clip-path="url(#p9ffe8b9ee9)" style="fill: none; stroke: #5cb85c; stroke-linecap: square"/>
   </g>
   <g id="line2d_38">
    <path d="M 81.469943 64.892263 
L 87.297033 54.674888 
L 93.124123 52.951199 
L 98.951212 50.085587 
L 104.778302 49.471579 
L 110.605392 50.286293 
L 116.432481 51.745694 
L 122.259571 52.954888 
L 128.086661 52.574506 
L 145.56793 52.409902 
L 174.703378 52.917378 
L 203.838827 53.327368 
L 232.974275 55.094301 
L 262.109724 55.491063 
L 291.245172 56.451099 
L 320.38062 57.75537 
L 349.516069 60.194613 
L 378.651517 61.703792 
L 407.786966 63.053085 
L 436.922414 63.878558 
L 466.057863 65.092203 
L 495.193311 66.688511 
L 524.32876 67.420369 
L 553.464208 68.625727 
L 582.599656 70.354115 
L 611.735105 71.732594 
L 640.870553 73.489031 
L 670.006002 74.217354 
L 699.14145 74.586014 
L 728.276899 76.026248 
L 757.412347 75.722801 
L 786.547796 76.255356 
L 815.683244 78.094012 
L 844.818692 79.93529 
L 873.954141 82.149263 
L 903.089589 82.769727 
L 932.225038 86.077627 
L 949.706307 84.001864 
" clip-path="url(#p9ffe8b9ee9)" style="fill: none; stroke: #5cb85c; stroke-linecap: square"/>
   </g>
   <g id="line2d_39">
    <path d="M 81.469943 41.883194 
L 87.297033 40.679816 
L 93.124123 40.742961 
L 98.951212 40.577592 
L 104.778302 40.531151 
L 110.605392 41.474543 
L 116.432481 42.633902 
L 122.259571 43.038476 
L 128.086661 43.055959 
L 145.56793 43.429475 
L 174.703378 45.363065 
L 203.838827 47.195297 
L 232.974275 50.559133 
L 262.109724 52.913438 
L 291.245172 54.881618 
L 320.38062 56.106771 
L 349.516069 57.526038 
L 378.651517 59.137587 
L 407.786966 60.765647 
L 436.922414 62.133205 
L 466.057863 64.489037 
L 495.193311 66.426496 
L 524.32876 67.884906 
L 553.464208 70.122335 
L 582.599656 72.229179 
L 611.735105 73.654533 
L 640.870553 75.517904 
L 670.006002 77.293674 
L 699.14145 78.750053 
L 728.276899 80.314034 
L 757.412347 82.700234 
L 786.547796 84.180152 
L 815.683244 85.266971 
L 844.818692 86.947109 
L 873.954141 87.430552 
L 903.089589 89.687324 
L 932.225038 94.804545 
L 949.706307 93.798514 
" clip-path="url(#p9ffe8b9ee9)" style="fill: none; stroke: #5cb85c; stroke-linecap: square"/>
   </g>
   <g id="line2d_40">
    <path d="M 81.469943 68.68807 
L 87.297033 57.055308 
L 93.124123 55.244723 
L 98.951212 51.900705 
L 104.778302 51.321072 
L 110.605392 51.813487 
L 116.432481 53.906775 
L 122.259571 55.090503 
L 128.086661 54.303877 
L 145.56793 54.691045 
L 174.703378 54.975791 
L 203.838827 55.5068 
L 232.974275 57.289162 
L 262.109724 57.714392 
L 291.245172 58.838605 
L 320.38062 60.190776 
L 349.516069 62.759701 
L 378.651517 64.326891 
L 407.786966 65.727235 
L 436.922414 66.602891 
L 466.057863 67.92996 
L 495.193311 69.586284 
L 524.32876 70.338781 
L 553.464208 71.620996 
L 582.599656 73.387391 
L 611.735105 74.871698 
L 640.870553 76.659636 
L 670.006002 77.450955 
L 699.14145 77.810391 
L 728.276899 79.350862 
L 757.412347 79.023953 
L 786.547796 79.554894 
L 815.683244 81.467261 
L 844.818692 83.288226 
L 873.954141 85.595814 
L 903.089589 86.145163 
L 932.225038 89.469948 
L 949.706307 87.245807 
" clip-path="url(#p9ffe8b9ee9)" style="fill: none; stroke: #5cb85c; stroke-linecap: square"/>
   </g>
   <g id="line2d_41">
    <path d="M 81.469943 42.776828 
L 87.297033 41.558376 
L 93.124123 41.743134 
L 98.951212 41.656463 
L 104.778302 41.653397 
L 110.605392 42.601828 
L 116.432481 43.770634 
L 122.259571 44.145855 
L 128.086661 44.206743 
L 145.56793 44.649084 
L 174.703378 46.672307 
L 203.838827 48.503283 
L 232.974275 51.988464 
L 262.109724 54.322332 
L 291.245172 56.234412 
L 320.38062 57.343153 
L 349.516069 58.704672 
L 378.651517 60.205355 
L 407.786966 61.752305 
L 436.922414 63.07664 
L 466.057863 65.288429 
L 495.193311 67.113425 
L 524.32876 68.507894 
L 553.464208 70.651765 
L 582.599656 72.661306 
L 611.735105 73.988447 
L 640.870553 75.769949 
L 670.006002 77.456806 
L 699.14145 78.808081 
L 728.276899 80.333101 
L 757.412347 82.623156 
L 786.547796 84.17049 
L 815.683244 85.188424 
L 844.818692 86.976167 
L 873.954141 87.524835 
L 903.089589 89.891789 
L 932.225038 95.038792 
L 949.706307 94.327742 
" clip-path="url(#p9ffe8b9ee9)" style="fill: none; stroke: #5cb85c; stroke-linecap: square"/>
   </g>
   <g id="line2d_42">
    <path d="M 81.469943 73.174658 
L 87.297033 59.571351 
L 93.124123 57.103098 
L 98.951212 53.258617 
L 104.778302 52.472861 
L 110.605392 53.097716 
L 116.432481 55.147224 
L 122.259571 56.594116 
L 128.086661 55.545113 
L 145.56793 55.650107 
L 174.703378 55.655191 
L 203.838827 56.04638 
L 232.974275 57.771382 
L 262.109724 58.165406 
L 291.245172 59.237807 
L 320.38062 60.514544 
L 349.516069 62.956736 
L 378.651517 64.42691 
L 407.786966 65.770011 
L 436.922414 66.623764 
L 466.057863 67.835677 
L 495.193311 69.457513 
L 524.32876 70.155662 
L 553.464208 71.400895 
L 582.599656 73.108679 
L 611.735105 74.552798 
L 640.870553 76.353966 
L 670.006002 77.086204 
L 699.14145 77.426947 
L 728.276899 78.95711 
L 757.412347 78.640687 
L 786.547796 79.195045 
L 815.683244 81.108324 
L 844.818692 83.023932 
L 873.954141 85.421909 
L 903.089589 86.098644 
L 932.225038 89.491386 
L 949.706307 87.503343 
" clip-path="url(#p9ffe8b9ee9)" style="fill: none; stroke: #5cb85c; stroke-linecap: square"/>
   </g>
   <g id="line2d_43">
    <path d="M 38.058125 353.2239 
L 993.118125 353.2239 
" clip-path="url(#p9ffe8b9ee9)" style="fill: none; stroke: #dedede; stroke-width: 2; stroke-linecap: square"/>
   </g>
   <g id="text_19">
    <!-- FastQC: Mean Quality Scores -->
    <g transform="translate(400.349375 19.3575)scale(0.16 -0.16)">
     <defs>
      <path id="DejaVuSans-46" d="M 628 4666 
L 3309 4666 
L 3309 4134 
L 1259 4134 
L 1259 2759 
L 3109 2759 
L 3109 2228 
L 1259 2228 
L 1259 0 
L 628 0 
L 628 4666 
z
" transform="scale(0.015625)"/>
      <path id="DejaVuSans-61" d="M 2194 1759 
Q 1497 1759 1228 1600 
Q 959 1441 959 1056 
Q 959 750 1161 570 
Q 1363 391 1709 391 
Q 2188 391 2477 730 
Q 2766 1069 2766 1631 
L 2766 1759 
L 2194 1759 
z
M 3341 1997 
L 3341 0 
L 2766 0 
L 2766 531 
Q 2569 213 2275 61 
Q 1981 -91 1556 -91 
Q 1019 -91 701 211 
Q 384 513 384 1019 
Q 384 1609 779 1909 
Q 1175 2209 1959 2209 
L 2766 2209 
L 2766 2266 
Q 2766 2663 2505 2880 
Q 2244 3097 1772 3097 
Q 1472 3097 1187 3025 
Q 903 2953 641 2809 
L 641 3341 
Q 956 3463 1253 3523 
Q 1550 3584 1831 3584 
Q 2591 3584 2966 3190 
Q 3341 2797 3341 1997 
z
" transform="scale(0.015625)"/>
      <path id="DejaVuSans-51" d="M 2522 4238 
Q 1834 4238 1429 3725 
Q 1025 3213 1025 2328 
Q 1025 1447 1429 934 
Q 1834 422 2522 422 
Q 3209 422 3611 934 
Q 4013 1447 4013 2328 
Q 4013 3213 3611 3725 
Q 3209 4238 2522 4238 
z
M 3406 84 
L 4238 -825 
L 3475 -825 
L 2784 -78 
Q 2681 -84 2626 -87 
Q 2572 -91 2522 -91 
Q 1538 -91 948 567 
Q 359 1225 359 2328 
Q 359 3434 948 4092 
Q 1538 4750 2522 4750 
Q 3503 4750 4090 4092 
Q 4678 3434 4678 2328 
Q 4678 1516 4351 937 
Q 4025 359 3406 84 
z
" transform="scale(0.015625)"/>
      <path id="DejaVuSans-43" d="M 4122 4306 
L 4122 3641 
Q 3803 3938 3442 4084 
Q 3081 4231 2675 4231 
Q 1875 4231 1450 3742 
Q 1025 3253 1025 2328 
Q 1025 1406 1450 917 
Q 1875 428 2675 428 
Q 3081 428 3442 575 
Q 3803 722 4122 1019 
L 4122 359 
Q 3791 134 3420 21 
Q 3050 -91 2638 -91 
Q 1578 -91 968 557 
Q 359 1206 359 2328 
Q 359 3453 968 4101 
Q 1578 4750 2638 4750 
Q 3056 4750 3426 4639 
Q 3797 4528 4122 4306 
z
" transform="scale(0.015625)"/>
      <path id="DejaVuSans-3a" d="M 750 794 
L 1409 794 
L 1409 0 
L 750 0 
L 750 794 
z
M 750 3309 
L 1409 3309 
L 1409 2516 
L 750 2516 
L 750 3309 
z
" transform="scale(0.015625)"/>
      <path id="DejaVuSans-4d" d="M 628 4666 
L 1569 4666 
L 2759 1491 
L 3956 4666 
L 4897 4666 
L 4897 0 
L 4281 0 
L 4281 4097 
L 3078 897 
L 2444 897 
L 1241 4097 
L 1241 0 
L 628 0 
L 628 4666 
z
" transform="scale(0.015625)"/>
      <path id="DejaVuSans-75" d="M 544 1381 
L 544 3500 
L 1119 3500 
L 1119 1403 
Q 1119 906 1312 657 
Q 1506 409 1894 409 
Q 2359 409 2629 706 
Q 2900 1003 2900 1516 
L 2900 3500 
L 3475 3500 
L 3475 0 
L 2900 0 
L 2900 538 
Q 2691 219 2414 64 
Q 2138 -91 1772 -91 
Q 1169 -91 856 284 
Q 544 659 544 1381 
z
M 1991 3584 
L 1991 3584 
z
" transform="scale(0.015625)"/>
      <path id="DejaVuSans-6c" d="M 603 4863 
L 1178 4863 
L 1178 0 
L 603 0 
L 603 4863 
z
" transform="scale(0.015625)"/>
      <path id="DejaVuSans-79" d="M 2059 -325 
Q 1816 -950 1584 -1140 
Q 1353 -1331 966 -1331 
L 506 -1331 
L 506 -850 
L 844 -850 
Q 1081 -850 1212 -737 
Q 1344 -625 1503 -206 
L 1606 56 
L 191 3500 
L 800 3500 
L 1894 763 
L 2988 3500 
L 3597 3500 
L 2059 -325 
z
" transform="scale(0.015625)"/>
     </defs>
     <use xlink:href="#DejaVuSans-46"/>
     <use xlink:href="#DejaVuSans-61" x="48.394531"/>
     <use xlink:href="#DejaVuSans-73" x="109.673828"/>
     <use xlink:href="#DejaVuSans-74" x="161.773438"/>
     <use xlink:href="#DejaVuSans-51" x="200.982422"/>
     <use xlink:href="#DejaVuSans-43" x="279.693359"/>
     <use xlink:href="#DejaVuSans-3a" x="349.517578"/>
     <use xlink:href="#DejaVuSans-20" x="383.208984"/>
     <use xlink:href="#DejaVuSans-4d" x="414.996094"/>
     <use xlink:href="#DejaVuSans-65" x="501.275391"/>
     <use xlink:href="#DejaVuSans-61" x="562.798828"/>
     <use xlink:href="#DejaVuSans-6e" x="624.078125"/>
     <use xlink:href="#DejaVuSans-20" x="687.457031"/>
     <use xlink:href="#DejaVuSans-51" x="719.244141"/>
     <use xlink:href="#DejaVuSans-75" x="797.955078"/>
     <use xlink:href="#DejaVuSans-61" x="861.333984"/>
     <use xlink:href="#DejaVuSans-6c" x="922.613281"/>
     <use xlink:href="#DejaVuSans-69" x="950.396484"/>
     <use xlink:href="#DejaVuSans-74" x="978.179688"/>
     <use xlink:href="#DejaVuSans-79" x="1017.388672"/>
     <use xlink:href="#DejaVuSans-20" x="1076.568359"/>
     <use xlink:href="#DejaVuSans-53" x="1108.355469"/>
     <use xlink:href="#DejaVuSans-63" x="1171.832031"/>
     <use xlink:href="#DejaVuSans-6f" x="1226.8125"/>
     <use xlink:href="#DejaVuSans-72" x="1287.994141"/>
     <use xlink:href="#DejaVuSans-65" x="1326.857422"/>
     <use xlink:href="#DejaVuSans-73" x="1388.380859"/>
    </g>
   </g>
  </g>
 </g>
 <defs>
  <clipPath id="p9ffe8b9ee9">
   <rect x="38.058125" y="35.2559" width="955.06" height="317.968"/>
  </clipPath>
 </defs>
</svg>
