<?xml version="1.0" encoding="utf-8" standalone="no"?>
<!DOCTYPE svg PUBLIC "-//W3C//DTD SVG 1.1//EN"
  "http://www.w3.org/Graphics/SVG/1.1/DTD/svg11.dtd">
<svg xmlns:xlink="http://www.w3.org/1999/xlink" width="1000.278125pt" height="388.844525pt" viewBox="0 0 1000.278125 388.844525" xmlns="http://www.w3.org/2000/svg" version="1.1">
 <metadata>
  <rdf:RDF xmlns:dc="http://purl.org/dc/elements/1.1/" xmlns:cc="http://creativecommons.org/ns#" xmlns:rdf="http://www.w3.org/1999/02/22-rdf-syntax-ns#">
   <cc:Work>
    <dc:type rdf:resource="http://purl.org/dc/dcmitype/StillImage"/>
    <dc:date>2023-04-21T00:01:57.870922</dc:date>
    <dc:format>image/svg+xml</dc:format>
    <dc:creator>
     <cc:Agent>
      <dc:title>Matplotlib v3.5.3, https://matplotlib.org/</dc:title>
     </cc:Agent>
    </dc:creator>
   </cc:Work>
  </rdf:RDF>
 </metadata>
 <defs>
  <style type="text/css">*{stroke-linejoin: round; stroke-linecap: butt}</style>
 </defs>
 <g id="figure_1">
  <g id="axes_1">
   <g id="patch_1">
    <path d="M 43.148125 353.2239 
L 993.078125 353.2239 
L 993.078125 35.2559 
L 43.148125 35.2559 
z
" style="fill: #ffffff"/>
   </g>
   <g id="matplotlib.axis_1">
    <g id="xtick_1">
     <g id="text_1">
      <!-- 0 -->
      <g transform="translate(77.138894 366.30265)scale(0.08 -0.08)">
       <defs>
        <path id="DejaVuSans-30" d="M 2034 4250 
Q 1547 4250 1301 3770 
Q 1056 3291 1056 2328 
Q 1056 1369 1301 889 
Q 1547 409 2034 409 
Q 2525 409 2770 889 
Q 3016 1369 3016 2328 
Q 3016 3291 2770 3770 
Q 2525 4250 2034 4250 
z
M 2034 4750 
Q 2819 4750 3233 4129 
Q 3647 3509 3647 2328 
Q 3647 1150 3233 529 
Q 2819 -91 2034 -91 
Q 1250 -91 836 529 
Q 422 1150 422 2328 
Q 422 3509 836 4129 
Q 1250 4750 2034 4750 
z
" transform="scale(0.015625)"/>
       </defs>
       <use xlink:href="#DejaVuSans-30"/>
      </g>
     </g>
    </g>
    <g id="xtick_2">
     <g id="text_2">
      <!-- 20 -->
      <g transform="translate(207.451237 366.30265)scale(0.08 -0.08)">
       <defs>
        <path id="DejaVuSans-32" d="M 1228 531 
L 3431 531 
L 3431 0 
L 469 0 
L 469 531 
Q 828 903 1448 1529 
Q 2069 2156 2228 2338 
Q 2531 2678 2651 2914 
Q 2772 3150 2772 3378 
Q 2772 3750 2511 3984 
Q 2250 4219 1831 4219 
Q 1534 4219 1204 4116 
Q 875 4013 500 3803 
L 500 4441 
Q 881 4594 1212 4672 
Q 1544 4750 1819 4750 
Q 2544 4750 2975 4387 
Q 3406 4025 3406 3419 
Q 3406 3131 3298 2873 
Q 3191 2616 2906 2266 
Q 2828 2175 2409 1742 
Q 1991 1309 1228 531 
z
" transform="scale(0.015625)"/>
       </defs>
       <use xlink:href="#DejaVuSans-32"/>
       <use xlink:href="#DejaVuSans-30" x="63.623047"/>
      </g>
     </g>
    </g>
    <g id="xtick_3">
     <g id="text_3">
      <!-- 40 -->
      <g transform="translate(340.30858 366.30265)scale(0.08 -0.08)">
       <defs>
        <path id="DejaVuSans-34" d="M 2419 4116 
L 825 1625 
L 2419 1625 
L 2419 4116 
z
M 2253 4666 
L 3047 4666 
L 3047 1625 
L 3713 1625 
L 3713 1100 
L 3047 1100 
L 3047 0 
L 2419 0 
L 2419 1100 
L 313 1100 
L 313 1709 
L 2253 4666 
z
" transform="scale(0.015625)"/>
       </defs>
       <use xlink:href="#DejaVuSans-34"/>
       <use xlink:href="#DejaVuSans-30" x="63.623047"/>
      </g>
     </g>
    </g>
    <g id="xtick_4">
     <g id="text_4">
      <!-- 60 -->
      <g transform="translate(473.165922 366.30265)scale(0.08 -0.08)">
       <defs>
        <path id="DejaVuSans-36" d="M 2113 2584 
Q 1688 2584 1439 2293 
Q 1191 2003 1191 1497 
Q 1191 994 1439 701 
Q 1688 409 2113 409 
Q 2538 409 2786 701 
Q 3034 994 3034 1497 
Q 3034 2003 2786 2293 
Q 2538 2584 2113 2584 
z
M 3366 4563 
L 3366 3988 
Q 3128 4100 2886 4159 
Q 2644 4219 2406 4219 
Q 1781 4219 1451 3797 
Q 1122 3375 1075 2522 
Q 1259 2794 1537 2939 
Q 1816 3084 2150 3084 
Q 2853 3084 3261 2657 
Q 3669 2231 3669 1497 
Q 3669 778 3244 343 
Q 2819 -91 2113 -91 
Q 1303 -91 875 529 
Q 447 1150 447 2328 
Q 447 3434 972 4092 
Q 1497 4750 2381 4750 
Q 2619 4750 2861 4703 
Q 3103 4656 3366 4563 
z
" transform="scale(0.015625)"/>
       </defs>
       <use xlink:href="#DejaVuSans-36"/>
       <use xlink:href="#DejaVuSans-30" x="63.623047"/>
      </g>
     </g>
    </g>
    <g id="xtick_5">
     <g id="text_5">
      <!-- 80 -->
      <g transform="translate(606.023265 366.30265)scale(0.08 -0.08)">
       <defs>
        <path id="DejaVuSans-38" d="M 2034 2216 
Q 1584 2216 1326 1975 
Q 1069 1734 1069 1313 
Q 1069 891 1326 650 
Q 1584 409 2034 409 
Q 2484 409 2743 651 
Q 3003 894 3003 1313 
Q 3003 1734 2745 1975 
Q 2488 2216 2034 2216 
z
M 1403 2484 
Q 997 2584 770 2862 
Q 544 3141 544 3541 
Q 544 4100 942 4425 
Q 1341 4750 2034 4750 
Q 2731 4750 3128 4425 
Q 3525 4100 3525 3541 
Q 3525 3141 3298 2862 
Q 3072 2584 2669 2484 
Q 3125 2378 3379 2068 
Q 3634 1759 3634 1313 
Q 3634 634 3220 271 
Q 2806 -91 2034 -91 
Q 1263 -91 848 271 
Q 434 634 434 1313 
Q 434 1759 690 2068 
Q 947 2378 1403 2484 
z
M 1172 3481 
Q 1172 3119 1398 2916 
Q 1625 2713 2034 2713 
Q 2441 2713 2670 2916 
Q 2900 3119 2900 3481 
Q 2900 3844 2670 4047 
Q 2441 4250 2034 4250 
Q 1625 4250 1398 4047 
Q 1172 3844 1172 3481 
z
" transform="scale(0.015625)"/>
       </defs>
       <use xlink:href="#DejaVuSans-38"/>
       <use xlink:href="#DejaVuSans-30" x="63.623047"/>
      </g>
     </g>
    </g>
    <g id="xtick_6">
     <g id="text_6">
      <!-- 100 -->
      <g transform="translate(736.335608 366.30265)scale(0.08 -0.08)">
       <defs>
        <path id="DejaVuSans-31" d="M 794 531 
L 1825 531 
L 1825 4091 
L 703 3866 
L 703 4441 
L 1819 4666 
L 2450 4666 
L 2450 531 
L 3481 531 
L 3481 0 
L 794 0 
L 794 531 
z
" transform="scale(0.015625)"/>
       </defs>
       <use xlink:href="#DejaVuSans-31"/>
       <use xlink:href="#DejaVuSans-30" x="63.623047"/>
       <use xlink:href="#DejaVuSans-30" x="127.246094"/>
      </g>
     </g>
    </g>
    <g id="xtick_7">
     <g id="text_7">
      <!-- 120 -->
      <g transform="translate(869.19295 366.30265)scale(0.08 -0.08)">
       <use xlink:href="#DejaVuSans-31"/>
       <use xlink:href="#DejaVuSans-32" x="63.623047"/>
       <use xlink:href="#DejaVuSans-30" x="127.246094"/>
      </g>
     </g>
    </g>
    <g id="text_8">
     <!-- Position (bp) -->
     <g transform="translate(486.81 379.564837)scale(0.1 -0.1)">
      <defs>
       <path id="DejaVuSans-50" d="M 1259 4147 
L 1259 2394 
L 2053 2394 
Q 2494 2394 2734 2622 
Q 2975 2850 2975 3272 
Q 2975 3691 2734 3919 
Q 2494 4147 2053 4147 
L 1259 4147 
z
M 628 4666 
L 2053 4666 
Q 2838 4666 3239 4311 
Q 3641 3956 3641 3272 
Q 3641 2581 3239 2228 
Q 2838 1875 2053 1875 
L 1259 1875 
L 1259 0 
L 628 0 
L 628 4666 
z
" transform="scale(0.015625)"/>
       <path id="DejaVuSans-6f" d="M 1959 3097 
Q 1497 3097 1228 2736 
Q 959 2375 959 1747 
Q 959 1119 1226 758 
Q 1494 397 1959 397 
Q 2419 397 2687 759 
Q 2956 1122 2956 1747 
Q 2956 2369 2687 2733 
Q 2419 3097 1959 3097 
z
M 1959 3584 
Q 2709 3584 3137 3096 
Q 3566 2609 3566 1747 
Q 3566 888 3137 398 
Q 2709 -91 1959 -91 
Q 1206 -91 779 398 
Q 353 888 353 1747 
Q 353 2609 779 3096 
Q 1206 3584 1959 3584 
z
" transform="scale(0.015625)"/>
       <path id="DejaVuSans-73" d="M 2834 3397 
L 2834 2853 
Q 2591 2978 2328 3040 
Q 2066 3103 1784 3103 
Q 1356 3103 1142 2972 
Q 928 2841 928 2578 
Q 928 2378 1081 2264 
Q 1234 2150 1697 2047 
L 1894 2003 
Q 2506 1872 2764 1633 
Q 3022 1394 3022 966 
Q 3022 478 2636 193 
Q 2250 -91 1575 -91 
Q 1294 -91 989 -36 
Q 684 19 347 128 
L 347 722 
Q 666 556 975 473 
Q 1284 391 1588 391 
Q 1994 391 2212 530 
Q 2431 669 2431 922 
Q 2431 1156 2273 1281 
Q 2116 1406 1581 1522 
L 1381 1569 
Q 847 1681 609 1914 
Q 372 2147 372 2553 
Q 372 3047 722 3315 
Q 1072 3584 1716 3584 
Q 2034 3584 2315 3537 
Q 2597 3491 2834 3397 
z
" transform="scale(0.015625)"/>
       <path id="DejaVuSans-69" d="M 603 3500 
L 1178 3500 
L 1178 0 
L 603 0 
L 603 3500 
z
M 603 4863 
L 1178 4863 
L 1178 4134 
L 603 4134 
L 603 4863 
z
" transform="scale(0.015625)"/>
       <path id="DejaVuSans-74" d="M 1172 4494 
L 1172 3500 
L 2356 3500 
L 2356 3053 
L 1172 3053 
L 1172 1153 
Q 1172 725 1289 603 
Q 1406 481 1766 481 
L 2356 481 
L 2356 0 
L 1766 0 
Q 1100 0 847 248 
Q 594 497 594 1153 
L 594 3053 
L 172 3053 
L 172 3500 
L 594 3500 
L 594 4494 
L 1172 4494 
z
" transform="scale(0.015625)"/>
       <path id="DejaVuSans-6e" d="M 3513 2113 
L 3513 0 
L 2938 0 
L 2938 2094 
Q 2938 2591 2744 2837 
Q 2550 3084 2163 3084 
Q 1697 3084 1428 2787 
Q 1159 2491 1159 1978 
L 1159 0 
L 581 0 
L 581 3500 
L 1159 3500 
L 1159 2956 
Q 1366 3272 1645 3428 
Q 1925 3584 2291 3584 
Q 2894 3584 3203 3211 
Q 3513 2838 3513 2113 
z
" transform="scale(0.015625)"/>
       <path id="DejaVuSans-20" transform="scale(0.015625)"/>
       <path id="DejaVuSans-28" d="M 1984 4856 
Q 1566 4138 1362 3434 
Q 1159 2731 1159 2009 
Q 1159 1288 1364 580 
Q 1569 -128 1984 -844 
L 1484 -844 
Q 1016 -109 783 600 
Q 550 1309 550 2009 
Q 550 2706 781 3412 
Q 1013 4119 1484 4856 
L 1984 4856 
z
" transform="scale(0.015625)"/>
       <path id="DejaVuSans-62" d="M 3116 1747 
Q 3116 2381 2855 2742 
Q 2594 3103 2138 3103 
Q 1681 3103 1420 2742 
Q 1159 2381 1159 1747 
Q 1159 1113 1420 752 
Q 1681 391 2138 391 
Q 2594 391 2855 752 
Q 3116 1113 3116 1747 
z
M 1159 2969 
Q 1341 3281 1617 3432 
Q 1894 3584 2278 3584 
Q 2916 3584 3314 3078 
Q 3713 2572 3713 1747 
Q 3713 922 3314 415 
Q 2916 -91 2278 -91 
Q 1894 -91 1617 61 
Q 1341 213 1159 525 
L 1159 0 
L 581 0 
L 581 4863 
L 1159 4863 
L 1159 2969 
z
" transform="scale(0.015625)"/>
       <path id="DejaVuSans-70" d="M 1159 525 
L 1159 -1331 
L 581 -1331 
L 581 3500 
L 1159 3500 
L 1159 2969 
Q 1341 3281 1617 3432 
Q 1894 3584 2278 3584 
Q 2916 3584 3314 3078 
Q 3713 2572 3713 1747 
Q 3713 922 3314 415 
Q 2916 -91 2278 -91 
Q 1894 -91 1617 61 
Q 1341 213 1159 525 
z
M 3116 1747 
Q 3116 2381 2855 2742 
Q 2594 3103 2138 3103 
Q 1681 3103 1420 2742 
Q 1159 2381 1159 1747 
Q 1159 1113 1420 752 
Q 1681 391 2138 391 
Q 2594 391 2855 752 
Q 3116 1113 3116 1747 
z
" transform="scale(0.015625)"/>
       <path id="DejaVuSans-29" d="M 513 4856 
L 1013 4856 
Q 1481 4119 1714 3412 
Q 1947 2706 1947 2009 
Q 1947 1309 1714 600 
Q 1481 -109 1013 -844 
L 513 -844 
Q 928 -128 1133 580 
Q 1338 1288 1338 2009 
Q 1338 2731 1133 3434 
Q 928 4138 513 4856 
z
" transform="scale(0.015625)"/>
      </defs>
      <use xlink:href="#DejaVuSans-50"/>
      <use xlink:href="#DejaVuSans-6f" x="56.677734"/>
      <use xlink:href="#DejaVuSans-73" x="117.859375"/>
      <use xlink:href="#DejaVuSans-69" x="169.958984"/>
      <use xlink:href="#DejaVuSans-74" x="197.742188"/>
      <use xlink:href="#DejaVuSans-69" x="236.951172"/>
      <use xlink:href="#DejaVuSans-6f" x="264.734375"/>
      <use xlink:href="#DejaVuSans-6e" x="325.916016"/>
      <use xlink:href="#DejaVuSans-20" x="389.294922"/>
      <use xlink:href="#DejaVuSans-28" x="421.082031"/>
      <use xlink:href="#DejaVuSans-62" x="460.095703"/>
      <use xlink:href="#DejaVuSans-70" x="523.572266"/>
      <use xlink:href="#DejaVuSans-29" x="587.048828"/>
     </g>
    </g>
   </g>
   <g id="matplotlib.axis_2">
    <g id="ytick_1">
     <g id="line2d_1">
      <path d="M 43.148125 353.2239 
L 993.078125 353.2239 
" clip-path="url(#p0d19580d78)" style="fill: none; stroke: #dedede; stroke-linecap: square"/>
     </g>
     <g id="text_9">
      <!-- 0 -->
      <g transform="translate(31.058125 356.263275)scale(0.08 -0.08)">
       <use xlink:href="#DejaVuSans-30"/>
      </g>
     </g>
    </g>
    <g id="ytick_2">
     <g id="line2d_2">
      <path d="M 43.148125 289.6303 
L 993.078125 289.6303 
" clip-path="url(#p0d19580d78)" style="fill: none; stroke: #dedede; stroke-linecap: square"/>
     </g>
     <g id="text_10">
      <!-- 20 -->
      <g transform="translate(25.968125 292.669675)scale(0.08 -0.08)">
       <use xlink:href="#DejaVuSans-32"/>
       <use xlink:href="#DejaVuSans-30" x="63.623047"/>
      </g>
     </g>
    </g>
    <g id="ytick_3">
     <g id="line2d_3">
      <path d="M 43.148125 226.0367 
L 993.078125 226.0367 
" clip-path="url(#p0d19580d78)" style="fill: none; stroke: #dedede; stroke-linecap: square"/>
     </g>
     <g id="text_11">
      <!-- 40 -->
      <g transform="translate(25.968125 229.076075)scale(0.08 -0.08)">
       <use xlink:href="#DejaVuSans-34"/>
       <use xlink:href="#DejaVuSans-30" x="63.623047"/>
      </g>
     </g>
    </g>
    <g id="ytick_4">
     <g id="line2d_4">
      <path d="M 43.148125 162.4431 
L 993.078125 162.4431 
" clip-path="url(#p0d19580d78)" style="fill: none; stroke: #dedede; stroke-linecap: square"/>
     </g>
     <g id="text_12">
      <!-- 60 -->
      <g transform="translate(25.968125 165.482475)scale(0.08 -0.08)">
       <use xlink:href="#DejaVuSans-36"/>
       <use xlink:href="#DejaVuSans-30" x="63.623047"/>
      </g>
     </g>
    </g>
    <g id="ytick_5">
     <g id="line2d_5">
      <path d="M 43.148125 98.8495 
L 993.078125 98.8495 
" clip-path="url(#p0d19580d78)" style="fill: none; stroke: #dedede; stroke-linecap: square"/>
     </g>
     <g id="text_13">
      <!-- 80 -->
      <g transform="translate(25.968125 101.888875)scale(0.08 -0.08)">
       <use xlink:href="#DejaVuSans-38"/>
       <use xlink:href="#DejaVuSans-30" x="63.623047"/>
      </g>
     </g>
    </g>
    <g id="ytick_6">
     <g id="line2d_6">
      <path d="M 43.148125 35.2559 
L 993.078125 35.2559 
" clip-path="url(#p0d19580d78)" style="fill: none; stroke: #dedede; stroke-linecap: square"/>
     </g>
     <g id="text_14">
      <!-- 100 -->
      <g transform="translate(20.878125 38.295275)scale(0.08 -0.08)">
       <use xlink:href="#DejaVuSans-31"/>
       <use xlink:href="#DejaVuSans-30" x="63.623047"/>
       <use xlink:href="#DejaVuSans-30" x="127.246094"/>
      </g>
     </g>
    </g>
    <g id="text_15">
     <!-- % Methylation -->
     <g transform="translate(14.798437 230.089119)rotate(-90)scale(0.1 -0.1)">
      <defs>
       <path id="DejaVuSans-25" d="M 4653 2053 
Q 4381 2053 4226 1822 
Q 4072 1591 4072 1178 
Q 4072 772 4226 539 
Q 4381 306 4653 306 
Q 4919 306 5073 539 
Q 5228 772 5228 1178 
Q 5228 1588 5073 1820 
Q 4919 2053 4653 2053 
z
M 4653 2450 
Q 5147 2450 5437 2106 
Q 5728 1763 5728 1178 
Q 5728 594 5436 251 
Q 5144 -91 4653 -91 
Q 4153 -91 3862 251 
Q 3572 594 3572 1178 
Q 3572 1766 3864 2108 
Q 4156 2450 4653 2450 
z
M 1428 4353 
Q 1159 4353 1004 4120 
Q 850 3888 850 3481 
Q 850 3069 1003 2837 
Q 1156 2606 1428 2606 
Q 1700 2606 1854 2837 
Q 2009 3069 2009 3481 
Q 2009 3884 1853 4118 
Q 1697 4353 1428 4353 
z
M 4250 4750 
L 4750 4750 
L 1831 -91 
L 1331 -91 
L 4250 4750 
z
M 1428 4750 
Q 1922 4750 2215 4408 
Q 2509 4066 2509 3481 
Q 2509 2891 2217 2550 
Q 1925 2209 1428 2209 
Q 931 2209 642 2551 
Q 353 2894 353 3481 
Q 353 4063 643 4406 
Q 934 4750 1428 4750 
z
" transform="scale(0.015625)"/>
       <path id="DejaVuSans-4d" d="M 628 4666 
L 1569 4666 
L 2759 1491 
L 3956 4666 
L 4897 4666 
L 4897 0 
L 4281 0 
L 4281 4097 
L 3078 897 
L 2444 897 
L 1241 4097 
L 1241 0 
L 628 0 
L 628 4666 
z
" transform="scale(0.015625)"/>
       <path id="DejaVuSans-65" d="M 3597 1894 
L 3597 1613 
L 953 1613 
Q 991 1019 1311 708 
Q 1631 397 2203 397 
Q 2534 397 2845 478 
Q 3156 559 3463 722 
L 3463 178 
Q 3153 47 2828 -22 
Q 2503 -91 2169 -91 
Q 1331 -91 842 396 
Q 353 884 353 1716 
Q 353 2575 817 3079 
Q 1281 3584 2069 3584 
Q 2775 3584 3186 3129 
Q 3597 2675 3597 1894 
z
M 3022 2063 
Q 3016 2534 2758 2815 
Q 2500 3097 2075 3097 
Q 1594 3097 1305 2825 
Q 1016 2553 972 2059 
L 3022 2063 
z
" transform="scale(0.015625)"/>
       <path id="DejaVuSans-68" d="M 3513 2113 
L 3513 0 
L 2938 0 
L 2938 2094 
Q 2938 2591 2744 2837 
Q 2550 3084 2163 3084 
Q 1697 3084 1428 2787 
Q 1159 2491 1159 1978 
L 1159 0 
L 581 0 
L 581 4863 
L 1159 4863 
L 1159 2956 
Q 1366 3272 1645 3428 
Q 1925 3584 2291 3584 
Q 2894 3584 3203 3211 
Q 3513 2838 3513 2113 
z
" transform="scale(0.015625)"/>
       <path id="DejaVuSans-79" d="M 2059 -325 
Q 1816 -950 1584 -1140 
Q 1353 -1331 966 -1331 
L 506 -1331 
L 506 -850 
L 844 -850 
Q 1081 -850 1212 -737 
Q 1344 -625 1503 -206 
L 1606 56 
L 191 3500 
L 800 3500 
L 1894 763 
L 2988 3500 
L 3597 3500 
L 2059 -325 
z
" transform="scale(0.015625)"/>
       <path id="DejaVuSans-6c" d="M 603 4863 
L 1178 4863 
L 1178 0 
L 603 0 
L 603 4863 
z
" transform="scale(0.015625)"/>
       <path id="DejaVuSans-61" d="M 2194 1759 
Q 1497 1759 1228 1600 
Q 959 1441 959 1056 
Q 959 750 1161 570 
Q 1363 391 1709 391 
Q 2188 391 2477 730 
Q 2766 1069 2766 1631 
L 2766 1759 
L 2194 1759 
z
M 3341 1997 
L 3341 0 
L 2766 0 
L 2766 531 
Q 2569 213 2275 61 
Q 1981 -91 1556 -91 
Q 1019 -91 701 211 
Q 384 513 384 1019 
Q 384 1609 779 1909 
Q 1175 2209 1959 2209 
L 2766 2209 
L 2766 2266 
Q 2766 2663 2505 2880 
Q 2244 3097 1772 3097 
Q 1472 3097 1187 3025 
Q 903 2953 641 2809 
L 641 3341 
Q 956 3463 1253 3523 
Q 1550 3584 1831 3584 
Q 2591 3584 2966 3190 
Q 3341 2797 3341 1997 
z
" transform="scale(0.015625)"/>
      </defs>
      <use xlink:href="#DejaVuSans-25"/>
      <use xlink:href="#DejaVuSans-20" x="95.019531"/>
      <use xlink:href="#DejaVuSans-4d" x="126.806641"/>
      <use xlink:href="#DejaVuSans-65" x="213.085938"/>
      <use xlink:href="#DejaVuSans-74" x="274.609375"/>
      <use xlink:href="#DejaVuSans-68" x="313.818359"/>
      <use xlink:href="#DejaVuSans-79" x="377.197266"/>
      <use xlink:href="#DejaVuSans-6c" x="436.376953"/>
      <use xlink:href="#DejaVuSans-61" x="464.160156"/>
      <use xlink:href="#DejaVuSans-74" x="525.439453"/>
      <use xlink:href="#DejaVuSans-69" x="564.648438"/>
      <use xlink:href="#DejaVuSans-6f" x="592.431641"/>
      <use xlink:href="#DejaVuSans-6e" x="653.613281"/>
     </g>
    </g>
   </g>
   <g id="line2d_7">
    <path d="M 86.326761 339.519479 
L 92.969628 339.169714 
L 106.255363 339.392292 
L 112.89823 339.328698 
L 119.541097 338.565575 
L 126.183964 339.106121 
L 132.826831 338.629169 
L 152.755433 338.724559 
L 159.3983 338.406591 
L 166.041167 338.851746 
L 172.684034 338.533778 
L 185.969768 338.247607 
L 192.612635 338.21581 
L 199.255503 337.834249 
L 205.89837 337.834249 
L 219.184104 337.548078 
L 225.826971 337.611671 
L 232.469838 337.897842 
L 239.112705 337.516281 
L 245.755573 337.834249 
L 252.39844 337.611671 
L 259.041307 337.516281 
L 265.684174 337.770655 
L 278.969908 337.198313 
L 285.612775 337.3255 
L 292.255642 337.039329 
L 298.89851 336.943938 
L 305.541377 337.23011 
L 312.184244 337.3255 
L 318.827111 337.071126 
L 325.469978 337.42089 
L 332.112845 337.389094 
L 338.755712 337.134719 
L 345.39858 337.198313 
L 352.041447 337.102922 
L 358.684314 336.657767 
L 365.327181 336.784954 
L 371.970048 336.562377 
L 378.612915 336.689564 
L 385.255782 336.943938 
L 391.898649 336.848548 
L 398.541517 336.53058 
L 405.184384 336.721361 
L 411.827251 336.594174 
L 418.470118 336.117222 
L 425.112985 336.276206 
L 431.755852 336.212612 
L 438.398719 335.83105 
L 445.041587 336.117222 
L 451.684454 335.894644 
L 458.327321 336.053628 
L 464.970188 336.403393 
L 471.613055 336.371596 
L 478.255922 336.021831 
L 484.898789 335.894644 
L 491.541656 336.085425 
L 498.184524 335.544879 
L 504.827391 335.576676 
L 511.470258 335.894644 
L 518.113125 335.83105 
L 524.755992 336.117222 
L 531.398859 336.180815 
L 538.041726 335.703863 
L 544.684594 335.990034 
L 551.327461 335.385895 
L 557.970328 335.03613 
L 571.256062 334.84535 
L 577.898929 334.559178 
L 584.541796 334.94074 
L 591.184663 334.94074 
L 597.827531 334.749959 
L 604.470398 335.163318 
L 611.113265 334.84535 
L 624.398999 333.859649 
L 637.684733 333.509884 
L 644.327601 333.923242 
L 650.970468 334.082226 
L 657.613335 333.891446 
L 664.256202 334.177617 
L 670.899069 333.986836 
L 677.541936 333.605274 
L 684.184803 334.018633 
L 697.470538 333.414494 
L 704.113405 333.827852 
L 710.756272 333.382697 
L 717.399139 332.746761 
L 724.042006 333.44629 
L 730.684873 333.287306 
L 737.32774 332.842151 
L 743.970608 333.032932 
L 750.613475 333.032932 
L 757.256342 332.396996 
L 763.899209 332.873948 
L 770.542076 332.396996 
L 777.184943 332.524183 
L 783.82781 333.032932 
L 790.470677 333.001135 
L 797.113545 332.301606 
L 803.756412 332.65137 
L 817.042146 331.474889 
L 823.685013 332.333402 
L 830.32788 331.85645 
L 836.970747 331.920044 
L 843.613615 331.66567 
L 850.256482 331.729263 
L 856.899349 331.602076 
L 863.542216 331.920044 
L 870.185083 331.85645 
L 876.82795 331.156921 
L 883.470817 331.570279 
L 890.113684 330.934343 
L 896.756552 329.980439 
L 910.042286 330.520985 
L 916.685153 329.948642 
L 923.32802 330.298407 
L 929.970887 330.012236 
L 936.613754 329.408097 
L 949.899489 332.619574 
L 949.899489 332.619574 
" clip-path="url(#p0d19580d78)" style="fill: none; stroke: #7cb5ec; stroke-linecap: square"/>
   </g>
   <g id="line2d_8">
    <path d="M 86.326761 338.342998 
L 92.969628 337.993233 
L 112.89823 338.12042 
L 119.541097 337.357297 
L 126.183964 337.802452 
L 132.826831 337.42089 
L 139.469698 337.42089 
L 146.112566 337.611671 
L 152.755433 337.484484 
L 159.3983 337.198313 
L 166.041167 337.579874 
L 172.684034 337.3255 
L 192.612635 337.102922 
L 199.255503 336.689564 
L 205.89837 336.753158 
L 212.541237 336.43519 
L 219.184104 336.339799 
L 232.469838 336.689564 
L 239.112705 336.466986 
L 245.755573 336.721361 
L 259.041307 336.371596 
L 265.684174 336.657767 
L 272.327041 336.466986 
L 278.969908 335.958238 
L 285.612775 336.276206 
L 298.89851 335.767457 
L 305.541377 336.149018 
L 312.184244 336.212612 
L 318.827111 336.053628 
L 325.469978 336.43519 
L 338.755712 336.149018 
L 345.39858 336.276206 
L 352.041447 336.212612 
L 358.684314 335.672066 
L 365.327181 335.926441 
L 371.970048 335.64027 
L 378.612915 335.767457 
L 385.255782 336.149018 
L 391.898649 336.180815 
L 398.541517 335.894644 
L 405.184384 335.990034 
L 411.827251 335.894644 
L 418.470118 335.513082 
L 425.112985 335.703863 
L 431.755852 335.544879 
L 438.398719 335.131521 
L 445.041587 335.385895 
L 458.327321 335.417692 
L 464.970188 336.021831 
L 484.898789 335.417692 
L 491.541656 335.513082 
L 498.184524 335.067927 
L 504.827391 335.099724 
L 518.113125 335.417692 
L 524.755992 335.799254 
L 531.398859 335.672066 
L 538.041726 335.385895 
L 544.684594 335.417692 
L 551.327461 335.03613 
L 564.613195 334.686366 
L 571.256062 334.368398 
L 577.898929 334.431991 
L 584.541796 334.654569 
L 591.184663 334.749959 
L 597.827531 334.590975 
L 604.470398 335.131521 
L 631.041866 333.573478 
L 637.684733 333.573478 
L 644.327601 334.018633 
L 657.613335 333.986836 
L 664.256202 334.336601 
L 670.899069 334.24121 
L 677.541936 333.955039 
L 684.184803 334.14582 
L 697.470538 333.859649 
L 704.113405 333.923242 
L 710.756272 333.764258 
L 717.399139 333.287306 
L 724.042006 333.668868 
L 730.684873 333.605274 
L 737.32774 333.3509 
L 743.970608 333.827852 
L 750.613475 333.478087 
L 757.256342 332.905745 
L 763.899209 333.3509 
L 770.542076 333.032932 
L 777.184943 333.25551 
L 783.82781 333.764258 
L 790.470677 333.605274 
L 797.113545 333.191916 
L 803.756412 333.541681 
L 810.399279 333.191916 
L 817.042146 332.714964 
L 823.685013 333.096526 
L 830.32788 332.55598 
L 843.613615 332.778558 
L 850.256482 332.714964 
L 856.899349 332.937542 
L 870.185083 333.001135 
L 876.82795 332.587777 
L 883.470817 332.587777 
L 890.113684 332.110825 
L 896.756552 331.411295 
L 903.399419 331.76106 
L 910.042286 332.238012 
L 916.685153 331.697466 
L 923.32802 332.238012 
L 936.613754 331.379498 
L 943.256622 332.587777 
L 949.899489 334.082226 
L 949.899489 334.082226 
" clip-path="url(#p0d19580d78)" style="fill: none; stroke: #434348; stroke-linecap: square"/>
   </g>
   <g id="line2d_9">
    <path d="M 86.326761 336.244409 
L 92.969628 335.73566 
L 99.612496 335.799254 
L 106.255363 335.703863 
L 112.89823 335.799254 
L 119.541097 334.622772 
L 126.183964 335.608473 
L 132.826831 334.972537 
L 146.112566 335.417692 
L 152.755433 335.163318 
L 159.3983 334.622772 
L 166.041167 335.354098 
L 179.326901 334.686366 
L 185.969768 334.781756 
L 199.255503 334.304804 
L 205.89837 334.590975 
L 212.541237 334.273007 
L 219.184104 334.209414 
L 225.826971 334.304804 
L 232.469838 334.718162 
L 239.112705 334.273007 
L 245.755573 334.877146 
L 252.39844 334.718162 
L 259.041307 334.177617 
L 265.684174 334.590975 
L 272.327041 334.209414 
L 278.969908 333.700665 
L 285.612775 334.177617 
L 292.255642 333.637071 
L 298.89851 333.44629 
L 305.541377 334.114023 
L 312.184244 334.082226 
L 318.827111 333.764258 
L 325.469978 334.463788 
L 332.112845 334.304804 
L 338.755712 333.955039 
L 345.39858 334.273007 
L 352.041447 334.24121 
L 358.684314 333.319103 
L 365.327181 333.923242 
L 371.970048 333.25551 
L 378.612915 333.096526 
L 385.255782 333.827852 
L 391.898649 333.827852 
L 398.541517 333.3509 
L 405.184384 333.573478 
L 411.827251 333.478087 
L 418.470118 332.842151 
L 425.112985 333.25551 
L 431.755852 333.032932 
L 438.398719 332.46059 
L 445.041587 333.319103 
L 451.684454 333.001135 
L 458.327321 333.064729 
L 464.970188 333.509884 
L 471.613055 333.44629 
L 478.255922 332.969338 
L 484.898789 333.191916 
L 491.541656 333.032932 
L 498.184524 332.524183 
L 504.827391 332.65137 
L 511.470258 333.128322 
L 531.398859 333.605274 
L 538.041726 332.873948 
L 544.684594 333.3509 
L 551.327461 332.46059 
L 564.613195 332.55598 
L 571.256062 331.888247 
L 577.898929 331.85645 
L 584.541796 332.238012 
L 591.184663 332.206215 
L 597.827531 331.85645 
L 604.470398 332.714964 
L 617.756132 331.474889 
L 624.398999 331.029734 
L 631.041866 330.775359 
L 637.684733 330.139423 
L 644.327601 331.093327 
L 657.613335 331.347702 
L 664.256202 331.729263 
L 677.541936 331.093327 
L 684.184803 331.66567 
L 690.82767 331.347702 
L 697.470538 330.838953 
L 704.113405 331.443092 
L 710.756272 331.06153 
L 717.399139 330.26661 
L 724.042006 330.87075 
L 730.684873 331.06153 
L 737.32774 330.203017 
L 743.970608 331.220514 
L 750.613475 330.711766 
L 757.256342 329.567081 
L 763.899209 330.711766 
L 770.542076 330.362001 
L 777.184943 330.520985 
L 783.82781 331.284108 
L 790.470677 331.252311 
L 797.113545 330.203017 
L 803.756412 330.997937 
L 810.399279 330.520985 
L 817.042146 329.726065 
L 823.685013 330.457391 
L 830.32788 329.885049 
L 836.970747 330.234814 
L 856.899349 329.980439 
L 863.542216 330.203017 
L 870.185083 330.616375 
L 876.82795 329.503487 
L 883.470817 330.362001 
L 896.756552 328.327006 
L 903.399419 328.803958 
L 910.042286 329.439894 
L 916.685153 328.835754 
L 923.32802 329.503487 
L 929.970887 328.708567 
L 936.613754 327.659273 
L 943.256622 328.867551 
L 949.899489 330.203017 
L 949.899489 330.203017 
" clip-path="url(#p0d19580d78)" style="fill: none; stroke: #90ed7d; stroke-linecap: square"/>
   </g>
   <g id="line2d_10">
    <path d="M 86.326761 339.137918 
L 92.969628 338.565575 
L 99.612496 338.629169 
L 106.255363 338.438388 
L 112.89823 338.438388 
L 119.541097 337.293703 
L 126.183964 338.279404 
L 139.469698 337.738858 
L 146.112566 338.12042 
L 152.755433 338.152217 
L 159.3983 337.516281 
L 166.041167 338.02503 
L 172.684034 338.088623 
L 179.326901 336.880345 
L 185.969768 337.643468 
L 192.612635 337.198313 
L 199.255503 336.943938 
L 205.89837 337.357297 
L 212.541237 336.975735 
L 219.184104 337.198313 
L 225.826971 337.134719 
L 232.469838 337.42089 
L 239.112705 337.134719 
L 245.755573 337.357297 
L 252.39844 337.452687 
L 259.041307 336.689564 
L 265.684174 337.516281 
L 272.327041 336.498783 
L 278.969908 336.308002 
L 285.612775 337.134719 
L 292.255642 336.308002 
L 298.89851 335.926441 
L 305.541377 336.62597 
L 318.827111 336.562377 
L 325.469978 337.198313 
L 332.112845 337.102922 
L 338.755712 336.43519 
L 345.39858 336.498783 
L 352.041447 336.689564 
L 358.684314 336.117222 
L 365.327181 336.62597 
L 371.970048 335.894644 
L 378.612915 335.449489 
L 385.255782 336.085425 
L 391.898649 336.339799 
L 398.541517 335.990034 
L 405.184384 335.958238 
L 411.827251 335.322302 
L 418.470118 335.163318 
L 425.112985 335.83105 
L 431.755852 335.64027 
L 438.398719 335.004334 
L 445.041587 336.149018 
L 451.684454 335.544879 
L 458.327321 334.686366 
L 464.970188 335.767457 
L 471.613055 335.799254 
L 478.255922 335.385895 
L 484.898789 335.990034 
L 491.541656 335.385895 
L 498.184524 334.622772 
L 504.827391 335.513082 
L 511.470258 335.608473 
L 518.113125 335.354098 
L 524.755992 336.244409 
L 531.398859 335.894644 
L 538.041726 334.908943 
L 544.684594 335.83105 
L 551.327461 334.877146 
L 557.970328 334.813553 
L 564.613195 335.258708 
L 571.256062 333.955039 
L 577.898929 334.209414 
L 584.541796 334.94074 
L 591.184663 334.463788 
L 597.827531 334.527382 
L 604.470398 335.099724 
L 624.398999 332.905745 
L 631.041866 332.269809 
L 637.684733 331.792857 
L 644.327601 332.55598 
L 650.970468 332.810354 
L 657.613335 332.079028 
L 664.256202 333.44629 
L 677.541936 332.842151 
L 684.184803 333.796055 
L 690.82767 332.969338 
L 697.470538 332.937542 
L 704.113405 333.637071 
L 717.399139 331.792857 
L 724.042006 332.714964 
L 730.684873 332.683167 
L 737.32774 331.951841 
L 743.970608 333.001135 
L 750.613475 332.301606 
L 757.256342 330.775359 
L 763.899209 332.524183 
L 770.542076 331.951841 
L 777.184943 332.110825 
L 783.82781 333.160119 
L 790.470677 333.414494 
L 797.113545 331.188718 
L 803.756412 332.428793 
L 810.399279 332.142622 
L 817.042146 330.616375 
L 823.685013 331.76106 
L 830.32788 330.648172 
L 836.970747 331.443092 
L 843.613615 332.015434 
L 850.256482 331.538482 
L 856.899349 331.284108 
L 863.542216 331.888247 
L 870.185083 332.333402 
L 876.82795 330.520985 
L 883.470817 331.792857 
L 896.756552 328.962942 
L 903.399419 329.980439 
L 910.042286 330.743562 
L 916.685153 329.121926 
L 923.32802 329.344503 
L 929.970887 328.899348 
L 936.613754 327.500289 
L 943.256622 329.821455 
L 949.899489 331.570279 
L 949.899489 331.570279 
" clip-path="url(#p0d19580d78)" style="fill: none; stroke: #f7a35c; stroke-linecap: square"/>
   </g>
   <g id="line2d_11">
    <path d="M 86.326761 339.742057 
L 92.969628 338.91534 
L 99.612496 339.201511 
L 106.255363 339.169714 
L 112.89823 339.487682 
L 119.541097 337.897842 
L 126.183964 338.91534 
L 139.469698 338.597372 
L 146.112566 338.947137 
L 152.755433 338.660966 
L 159.3983 338.152217 
L 166.041167 338.91534 
L 172.684034 338.565575 
L 179.326901 337.961436 
L 185.969768 338.374794 
L 192.612635 337.834249 
L 199.255503 337.611671 
L 205.89837 338.056826 
L 212.541237 337.643468 
L 219.184104 337.643468 
L 232.469838 338.02503 
L 239.112705 337.897842 
L 245.755573 338.311201 
L 259.041307 337.707062 
L 265.684174 338.279404 
L 272.327041 337.23011 
L 278.969908 337.261906 
L 285.612775 337.707062 
L 292.255642 337.42089 
L 298.89851 336.943938 
L 305.541377 337.579874 
L 318.827111 337.611671 
L 325.469978 338.02503 
L 332.112845 338.088623 
L 338.755712 337.198313 
L 345.39858 337.3255 
L 352.041447 337.802452 
L 358.684314 337.389094 
L 365.327181 337.42089 
L 378.612915 336.721361 
L 385.255782 337.357297 
L 391.898649 337.166516 
L 398.541517 336.848548 
L 405.184384 337.007532 
L 411.827251 336.943938 
L 418.470118 336.403393 
L 425.112985 336.912142 
L 431.755852 337.039329 
L 438.398719 336.244409 
L 445.041587 337.3255 
L 451.684454 336.371596 
L 458.327321 336.053628 
L 464.970188 336.880345 
L 471.613055 336.53058 
L 478.255922 336.466986 
L 484.898789 337.134719 
L 491.541656 336.657767 
L 498.184524 336.308002 
L 504.827391 336.149018 
L 511.470258 336.466986 
L 518.113125 336.657767 
L 524.755992 337.007532 
L 531.398859 337.071126 
L 538.041726 336.657767 
L 544.684594 336.753158 
L 551.327461 336.212612 
L 564.613195 335.73566 
L 571.256062 335.03613 
L 577.898929 335.417692 
L 584.541796 335.990034 
L 591.184663 336.053628 
L 597.827531 335.608473 
L 604.470398 336.62597 
L 611.113265 336.021831 
L 617.756132 334.718162 
L 624.398999 334.336601 
L 631.041866 333.637071 
L 637.684733 333.573478 
L 644.327601 333.891446 
L 657.613335 333.986836 
L 664.256202 334.590975 
L 670.899069 334.686366 
L 677.541936 334.654569 
L 684.184803 335.067927 
L 690.82767 334.813553 
L 697.470538 334.082226 
L 704.113405 335.131521 
L 717.399139 333.732462 
L 724.042006 334.209414 
L 730.684873 334.400194 
L 737.32774 332.492386 
L 743.970608 334.114023 
L 750.613475 333.637071 
L 757.256342 332.492386 
L 763.899209 333.827852 
L 770.542076 333.605274 
L 777.184943 333.827852 
L 783.82781 335.004334 
L 790.470677 335.099724 
L 797.113545 333.44629 
L 803.756412 334.14582 
L 810.399279 334.14582 
L 817.042146 332.587777 
L 823.685013 333.923242 
L 830.32788 332.746761 
L 836.970747 333.796055 
L 850.256482 333.032932 
L 856.899349 332.206215 
L 863.542216 332.905745 
L 870.185083 333.414494 
L 876.82795 332.238012 
L 883.470817 333.223713 
L 890.113684 332.746761 
L 896.756552 331.506686 
L 903.399419 332.714964 
L 910.042286 332.873948 
L 916.685153 332.079028 
L 923.32802 332.110825 
L 929.970887 331.220514 
L 936.613754 329.535284 
L 943.256622 332.55598 
L 949.899489 332.428793 
L 949.899489 332.428793 
" clip-path="url(#p0d19580d78)" style="fill: none; stroke: #8085e9; stroke-linecap: square"/>
   </g>
   <g id="line2d_12">
    <path d="M 86.326761 339.169714 
L 92.969628 338.660966 
L 99.612496 338.597372 
L 106.255363 338.724559 
L 112.89823 338.629169 
L 119.541097 337.770655 
L 126.183964 338.501982 
L 132.826831 337.993233 
L 139.469698 337.961436 
L 146.112566 338.311201 
L 152.755433 338.088623 
L 159.3983 337.707062 
L 166.041167 338.342998 
L 179.326901 337.484484 
L 185.969768 337.738858 
L 192.612635 337.611671 
L 199.255503 337.166516 
L 205.89837 337.3255 
L 212.541237 337.261906 
L 219.184104 337.071126 
L 225.826971 337.166516 
L 232.469838 337.611671 
L 239.112705 337.23011 
L 245.755573 337.738858 
L 252.39844 337.516281 
L 259.041307 337.071126 
L 265.684174 337.643468 
L 272.327041 337.071126 
L 278.969908 336.62597 
L 285.612775 337.166516 
L 298.89851 336.43519 
L 305.541377 337.039329 
L 312.184244 336.880345 
L 318.827111 336.880345 
L 325.469978 337.42089 
L 332.112845 337.516281 
L 338.755712 336.880345 
L 345.39858 337.166516 
L 352.041447 337.102922 
L 358.684314 336.466986 
L 365.327181 336.848548 
L 371.970048 336.466986 
L 378.612915 336.244409 
L 385.255782 337.039329 
L 391.898649 336.848548 
L 398.541517 336.498783 
L 405.184384 336.689564 
L 411.827251 336.562377 
L 418.470118 335.894644 
L 425.112985 336.403393 
L 431.755852 336.276206 
L 438.398719 335.608473 
L 445.041587 336.403393 
L 458.327321 335.926441 
L 464.970188 336.466986 
L 471.613055 336.403393 
L 478.255922 336.053628 
L 484.898789 336.244409 
L 491.541656 336.180815 
L 498.184524 335.608473 
L 504.827391 335.73566 
L 511.470258 336.149018 
L 518.113125 336.149018 
L 524.755992 336.657767 
L 531.398859 336.53058 
L 538.041726 335.958238 
L 544.684594 336.244409 
L 551.327461 335.481286 
L 557.970328 335.481286 
L 564.613195 335.672066 
L 571.256062 334.972537 
L 591.184663 335.449489 
L 597.827531 334.94074 
L 604.470398 335.799254 
L 611.113265 335.417692 
L 617.756132 334.622772 
L 631.041866 333.923242 
L 637.684733 333.796055 
L 644.327601 334.431991 
L 657.613335 334.622772 
L 664.256202 334.94074 
L 677.541936 334.273007 
L 684.184803 334.877146 
L 697.470538 334.177617 
L 704.113405 334.527382 
L 717.399139 333.3509 
L 724.042006 334.114023 
L 730.684873 333.923242 
L 737.32774 333.191916 
L 743.970608 333.986836 
L 750.613475 333.637071 
L 757.256342 332.810354 
L 763.899209 333.509884 
L 770.542076 333.25551 
L 777.184943 333.319103 
L 783.82781 334.273007 
L 790.470677 334.336601 
L 797.113545 333.191916 
L 803.756412 333.668868 
L 810.399279 333.287306 
L 817.042146 332.55598 
L 823.685013 333.382697 
L 830.32788 332.746761 
L 843.613615 332.937542 
L 856.899349 332.810354 
L 863.542216 333.25551 
L 870.185083 333.414494 
L 876.82795 332.46059 
L 883.470817 332.746761 
L 890.113684 332.110825 
L 896.756552 331.156921 
L 903.399419 331.824654 
L 910.042286 332.269809 
L 916.685153 331.411295 
L 923.32802 332.015434 
L 929.970887 331.315905 
L 936.613754 330.298407 
L 943.256622 331.570279 
L 949.899489 333.064729 
L 949.899489 333.064729 
" clip-path="url(#p0d19580d78)" style="fill: none; stroke: #f15c80; stroke-linecap: square"/>
   </g>
   <g id="line2d_13">
    <path d="M 86.326761 338.342998 
L 92.969628 337.897842 
L 106.255363 337.802452 
L 112.89823 337.929639 
L 119.541097 336.816751 
L 126.183964 337.548078 
L 132.826831 337.102922 
L 139.469698 336.943938 
L 146.112566 337.452687 
L 152.755433 337.3255 
L 159.3983 336.753158 
L 166.041167 337.516281 
L 179.326901 336.594174 
L 185.969768 336.689564 
L 192.612635 336.657767 
L 199.255503 336.244409 
L 205.89837 336.498783 
L 219.184104 336.117222 
L 225.826971 336.244409 
L 232.469838 336.498783 
L 239.112705 336.339799 
L 245.755573 336.943938 
L 252.39844 336.62597 
L 259.041307 335.990034 
L 265.684174 336.62597 
L 272.327041 336.053628 
L 278.969908 335.672066 
L 285.612775 336.276206 
L 298.89851 335.226911 
L 305.541377 336.021831 
L 312.184244 335.703863 
L 318.827111 335.703863 
L 325.469978 336.212612 
L 332.112845 336.149018 
L 338.755712 335.73566 
L 345.39858 336.085425 
L 352.041447 335.799254 
L 358.684314 335.385895 
L 365.327181 335.513082 
L 371.970048 335.322302 
L 378.612915 334.908943 
L 385.255782 335.83105 
L 391.898649 335.354098 
L 398.541517 335.226911 
L 405.184384 335.417692 
L 418.470118 334.559178 
L 425.112985 335.099724 
L 431.755852 334.94074 
L 438.398719 334.495585 
L 445.041587 335.163318 
L 451.684454 334.654569 
L 458.327321 334.304804 
L 464.970188 335.322302 
L 471.613055 335.258708 
L 478.255922 334.877146 
L 484.898789 335.195114 
L 491.541656 334.813553 
L 498.184524 334.209414 
L 511.470258 334.813553 
L 518.113125 334.749959 
L 524.755992 335.258708 
L 531.398859 335.163318 
L 538.041726 334.527382 
L 544.684594 334.972537 
L 551.327461 334.14582 
L 557.970328 333.986836 
L 564.613195 334.368398 
L 571.256062 333.637071 
L 577.898929 333.764258 
L 584.541796 334.24121 
L 591.184663 334.05043 
L 597.827531 333.573478 
L 604.470398 334.463788 
L 611.113265 333.668868 
L 617.756132 333.223713 
L 624.398999 332.55598 
L 637.684733 331.824654 
L 644.327601 332.428793 
L 650.970468 332.778558 
L 670.899069 333.128322 
L 677.541936 332.55598 
L 684.184803 333.128322 
L 690.82767 332.969338 
L 697.470538 332.396996 
L 704.113405 332.905745 
L 710.756272 332.333402 
L 717.399139 331.506686 
L 724.042006 332.333402 
L 730.684873 332.55598 
L 737.32774 331.633873 
L 743.970608 332.269809 
L 757.256342 331.220514 
L 763.899209 331.951841 
L 770.542076 331.66567 
L 777.184943 332.015434 
L 783.82781 332.683167 
L 790.470677 332.65137 
L 797.113545 331.506686 
L 803.756412 332.142622 
L 810.399279 331.951841 
L 817.042146 330.616375 
L 823.685013 331.824654 
L 830.32788 330.997937 
L 836.970747 331.443092 
L 843.613615 331.76106 
L 850.256482 331.188718 
L 856.899349 331.379498 
L 863.542216 331.697466 
L 870.185083 331.76106 
L 876.82795 330.489188 
L 883.470817 331.252311 
L 890.113684 330.393798 
L 896.756552 328.931145 
L 903.399419 329.916846 
L 910.042286 330.457391 
L 916.685153 329.090129 
L 923.32802 330.393798 
L 929.970887 329.408097 
L 936.613754 328.708567 
L 943.256622 330.26661 
L 949.899489 331.411295 
L 949.899489 331.411295 
" clip-path="url(#p0d19580d78)" style="fill: none; stroke: #e4d354; stroke-linecap: square"/>
   </g>
   <g id="line2d_14">
    <path d="M 86.326761 339.678463 
L 92.969628 339.201511 
L 99.612496 339.265105 
L 112.89823 339.169714 
L 119.541097 338.374794 
L 126.183964 338.978934 
L 132.826831 338.470185 
L 139.469698 338.374794 
L 146.112566 338.692762 
L 159.3983 338.088623 
L 166.041167 338.660966 
L 172.684034 338.311201 
L 179.326901 337.802452 
L 192.612635 337.866046 
L 199.255503 337.42089 
L 205.89837 337.579874 
L 212.541237 337.516281 
L 219.184104 337.293703 
L 225.826971 337.261906 
L 232.469838 337.961436 
L 239.112705 337.357297 
L 245.755573 337.802452 
L 252.39844 337.802452 
L 259.041307 337.166516 
L 265.684174 337.675265 
L 278.969908 336.784954 
L 285.612775 337.23011 
L 298.89851 336.53058 
L 305.541377 337.071126 
L 312.184244 337.166516 
L 318.827111 336.880345 
L 325.469978 337.452687 
L 332.112845 337.42089 
L 338.755712 336.848548 
L 345.39858 337.102922 
L 352.041447 337.007532 
L 358.684314 336.594174 
L 365.327181 336.848548 
L 371.970048 336.276206 
L 378.612915 336.339799 
L 385.255782 336.721361 
L 398.541517 336.53058 
L 405.184384 336.721361 
L 418.470118 335.767457 
L 425.112985 336.339799 
L 431.755852 336.180815 
L 438.398719 335.576676 
L 445.041587 336.117222 
L 451.684454 335.862847 
L 458.327321 335.83105 
L 464.970188 336.339799 
L 471.613055 336.276206 
L 478.255922 335.799254 
L 484.898789 336.180815 
L 491.541656 335.862847 
L 498.184524 335.290505 
L 504.827391 335.385895 
L 511.470258 335.990034 
L 518.113125 335.672066 
L 524.755992 336.117222 
L 531.398859 336.149018 
L 538.041726 335.767457 
L 544.684594 335.894644 
L 551.327461 335.131521 
L 564.613195 335.449489 
L 571.256062 334.718162 
L 577.898929 334.718162 
L 584.541796 335.163318 
L 591.184663 335.131521 
L 597.827531 334.527382 
L 604.470398 335.481286 
L 617.756132 334.273007 
L 637.684733 332.937542 
L 644.327601 333.764258 
L 657.613335 333.859649 
L 664.256202 334.273007 
L 670.899069 333.764258 
L 677.541936 333.637071 
L 684.184803 334.304804 
L 690.82767 333.986836 
L 697.470538 333.3509 
L 704.113405 333.796055 
L 717.399139 332.905745 
L 724.042006 333.3509 
L 730.684873 333.478087 
L 737.32774 332.55598 
L 743.970608 333.287306 
L 750.613475 332.810354 
L 757.256342 332.015434 
L 763.899209 332.937542 
L 777.184943 332.365199 
L 783.82781 333.668868 
L 790.470677 333.414494 
L 797.113545 332.301606 
L 803.756412 332.619574 
L 810.399279 332.492386 
L 817.042146 331.474889 
L 823.685013 332.65137 
L 830.32788 331.85645 
L 836.970747 331.920044 
L 843.613615 332.238012 
L 856.899349 332.110825 
L 863.542216 332.46059 
L 870.185083 332.428793 
L 876.82795 331.570279 
L 883.470817 332.110825 
L 890.113684 331.06153 
L 896.756552 329.757862 
L 903.399419 330.711766 
L 910.042286 331.284108 
L 916.685153 330.552782 
L 923.32802 330.902546 
L 929.970887 330.203017 
L 936.613754 329.090129 
L 943.256622 330.807156 
L 949.899489 332.079028 
L 949.899489 332.079028 
" clip-path="url(#p0d19580d78)" style="fill: none; stroke: #2b908f; stroke-linecap: square"/>
   </g>
   <g id="line2d_15">
    <path d="M 86.326761 338.470185 
L 92.969628 337.961436 
L 99.612496 338.056826 
L 106.255363 338.311201 
L 112.89823 338.311201 
L 119.541097 337.071126 
L 126.183964 338.152217 
L 132.826831 337.516281 
L 139.469698 337.293703 
L 146.112566 337.707062 
L 152.755433 337.516281 
L 159.3983 337.071126 
L 166.041167 337.802452 
L 172.684034 337.452687 
L 179.326901 336.594174 
L 185.969768 336.912142 
L 192.612635 336.657767 
L 199.255503 336.276206 
L 205.89837 336.784954 
L 212.541237 336.657767 
L 219.184104 336.212612 
L 225.826971 336.43519 
L 232.469838 337.071126 
L 239.112705 336.403393 
L 245.755573 337.007532 
L 252.39844 336.912142 
L 259.041307 336.149018 
L 265.684174 336.784954 
L 278.969908 335.258708 
L 285.612775 336.308002 
L 292.255642 335.449489 
L 298.89851 334.972537 
L 305.541377 335.958238 
L 312.184244 335.862847 
L 318.827111 335.513082 
L 325.469978 336.053628 
L 332.112845 335.894644 
L 338.755712 335.258708 
L 345.39858 335.73566 
L 352.041447 335.64027 
L 358.684314 334.908943 
L 365.327181 335.099724 
L 371.970048 334.559178 
L 378.612915 334.209414 
L 385.255782 335.195114 
L 391.898649 334.781756 
L 398.541517 334.495585 
L 405.184384 334.718162 
L 411.827251 334.368398 
L 418.470118 333.637071 
L 425.112985 334.559178 
L 431.755852 333.986836 
L 438.398719 333.064729 
L 445.041587 334.177617 
L 458.327321 333.25551 
L 464.970188 334.114023 
L 478.255922 333.382697 
L 484.898789 333.732462 
L 491.541656 333.44629 
L 498.184524 332.683167 
L 504.827391 332.746761 
L 511.470258 333.478087 
L 518.113125 333.287306 
L 524.755992 334.018633 
L 531.398859 333.796055 
L 538.041726 332.65137 
L 544.684594 333.668868 
L 551.327461 332.015434 
L 557.970328 332.333402 
L 564.613195 332.524183 
L 571.256062 331.538482 
L 577.898929 331.284108 
L 584.541796 331.951841 
L 591.184663 331.697466 
L 597.827531 330.934343 
L 604.470398 332.142622 
L 617.756132 330.17122 
L 624.398999 329.312706 
L 631.041866 329.312706 
L 637.684733 328.644974 
L 644.327601 329.535284 
L 650.970468 329.885049 
L 657.613335 329.439894 
L 664.256202 330.362001 
L 670.899069 329.662471 
L 677.541936 329.630674 
L 684.184803 330.489188 
L 697.470538 328.454193 
L 704.113405 329.535284 
L 710.756272 328.48599 
L 717.399139 327.214118 
L 724.042006 328.231615 
L 730.684873 328.644974 
L 737.32774 326.768962 
L 743.970608 328.358802 
L 750.613475 327.818257 
L 757.256342 326.069433 
L 763.899209 327.563882 
L 770.542076 326.959743 
L 777.184943 326.832556 
L 783.82781 328.231615 
L 790.470677 328.072631 
L 797.113545 325.687871 
L 803.756412 326.737166 
L 810.399279 326.355604 
L 817.042146 324.70217 
L 823.685013 326.19662 
L 830.32788 325.147326 
L 836.970747 326.037636 
L 843.613615 325.942246 
L 850.256482 325.433497 
L 856.899349 325.147326 
L 863.542216 325.751465 
L 870.185083 325.560684 
L 876.82795 323.525689 
L 883.470817 324.60678 
L 890.113684 323.81186 
L 896.756552 321.172726 
L 903.399419 322.635378 
L 910.042286 322.826159 
L 916.685153 321.077335 
L 923.32802 322.349207 
L 929.970887 321.268116 
L 936.613754 319.010543 
L 943.256622 321.935849 
L 949.899489 324.034438 
L 949.899489 324.034438 
" clip-path="url(#p0d19580d78)" style="fill: none; stroke: #f45b5b; stroke-linecap: square"/>
   </g>
   <g id="line2d_16">
    <path d="M 86.326761 340.50518 
L 92.969628 340.091822 
L 99.612496 340.060025 
L 106.255363 340.187212 
L 112.89823 340.060025 
L 119.541097 339.265105 
L 126.183964 339.901041 
L 132.826831 339.424089 
L 139.469698 339.392292 
L 146.112566 339.71026 
L 152.755433 339.519479 
L 159.3983 339.201511 
L 166.041167 339.678463 
L 179.326901 338.947137 
L 185.969768 339.042527 
L 192.612635 338.978934 
L 199.255503 338.565575 
L 205.89837 338.756356 
L 212.541237 338.629169 
L 219.184104 338.374794 
L 225.826971 338.533778 
L 232.469838 338.883543 
L 239.112705 338.565575 
L 245.755573 339.042527 
L 259.041307 338.406591 
L 265.684174 338.91534 
L 272.327041 338.406591 
L 278.969908 338.152217 
L 285.612775 338.406591 
L 298.89851 337.897842 
L 305.541377 338.406591 
L 312.184244 338.374794 
L 318.827111 338.21581 
L 332.112845 338.565575 
L 338.755712 338.21581 
L 352.041447 338.311201 
L 358.684314 337.802452 
L 365.327181 338.21581 
L 371.970048 337.707062 
L 378.612915 337.738858 
L 385.255782 338.088623 
L 391.898649 338.056826 
L 398.541517 337.897842 
L 405.184384 337.929639 
L 418.470118 337.484484 
L 425.112985 337.707062 
L 431.755852 337.643468 
L 438.398719 337.007532 
L 445.041587 337.611671 
L 451.684454 337.293703 
L 458.327321 337.293703 
L 464.970188 337.802452 
L 471.613055 337.770655 
L 478.255922 337.42089 
L 484.898789 337.548078 
L 491.541656 337.42089 
L 498.184524 336.912142 
L 504.827391 337.071126 
L 511.470258 337.42089 
L 518.113125 337.23011 
L 524.755992 337.897842 
L 531.398859 337.675265 
L 538.041726 337.166516 
L 544.684594 337.548078 
L 551.327461 336.816751 
L 557.970328 336.657767 
L 564.613195 336.848548 
L 571.256062 336.43519 
L 577.898929 336.403393 
L 584.541796 336.943938 
L 591.184663 336.657767 
L 597.827531 336.212612 
L 604.470398 337.134719 
L 611.113265 336.498783 
L 624.398999 335.544879 
L 631.041866 335.322302 
L 637.684733 334.908943 
L 644.327601 335.544879 
L 657.613335 335.672066 
L 664.256202 335.926441 
L 670.899069 335.544879 
L 677.541936 335.385895 
L 684.184803 335.894644 
L 690.82767 335.799254 
L 697.470538 335.226911 
L 704.113405 335.513082 
L 710.756272 335.163318 
L 717.399139 334.654569 
L 724.042006 335.131521 
L 730.684873 334.877146 
L 737.32774 334.431991 
L 743.970608 334.94074 
L 750.613475 334.908943 
L 757.256342 334.114023 
L 763.899209 334.908943 
L 770.542076 334.336601 
L 777.184943 334.527382 
L 783.82781 335.322302 
L 790.470677 335.163318 
L 797.113545 334.527382 
L 803.756412 334.749959 
L 810.399279 334.304804 
L 817.042146 333.478087 
L 823.685013 334.273007 
L 830.32788 333.891446 
L 836.970747 333.923242 
L 843.613615 334.304804 
L 850.256482 333.764258 
L 856.899349 333.796055 
L 863.542216 334.273007 
L 870.185083 334.24121 
L 876.82795 333.668868 
L 883.470817 333.859649 
L 890.113684 332.937542 
L 896.756552 332.238012 
L 903.399419 332.937542 
L 910.042286 333.223713 
L 916.685153 332.55598 
L 923.32802 332.683167 
L 929.970887 332.46059 
L 936.613754 331.506686 
L 943.256622 332.810354 
L 949.899489 333.319103 
L 949.899489 333.319103 
" clip-path="url(#p0d19580d78)" style="fill: none; stroke: #91e8e1; stroke-linecap: square"/>
   </g>
   <g id="line2d_17">
    <path d="M 86.326761 338.660966 
L 92.969628 338.088623 
L 106.255363 338.152217 
L 112.89823 338.374794 
L 119.541097 337.198313 
L 126.183964 338.02503 
L 132.826831 337.611671 
L 139.469698 337.357297 
L 146.112566 337.897842 
L 152.755433 337.516281 
L 159.3983 336.880345 
L 166.041167 337.643468 
L 172.684034 337.389094 
L 179.326901 336.721361 
L 185.969768 336.848548 
L 192.612635 336.721361 
L 199.255503 336.339799 
L 205.89837 336.657767 
L 212.541237 336.308002 
L 225.826971 336.339799 
L 232.469838 336.784954 
L 239.112705 336.562377 
L 245.755573 336.848548 
L 252.39844 336.657767 
L 259.041307 335.990034 
L 265.684174 336.53058 
L 272.327041 335.990034 
L 278.969908 335.64027 
L 285.612775 336.085425 
L 292.255642 335.767457 
L 298.89851 335.195114 
L 305.541377 335.958238 
L 318.827111 335.703863 
L 325.469978 336.085425 
L 332.112845 336.339799 
L 338.755712 335.385895 
L 345.39858 335.894644 
L 352.041447 335.894644 
L 358.684314 335.354098 
L 365.327181 335.449489 
L 378.612915 334.781756 
L 385.255782 335.449489 
L 391.898649 335.163318 
L 411.827251 334.908943 
L 418.470118 334.24121 
L 425.112985 334.590975 
L 431.755852 334.527382 
L 438.398719 333.764258 
L 445.041587 334.559178 
L 458.327321 333.891446 
L 464.970188 334.718162 
L 471.613055 334.559178 
L 478.255922 334.14582 
L 491.541656 334.336601 
L 498.184524 333.605274 
L 504.827391 333.859649 
L 511.470258 334.304804 
L 518.113125 333.923242 
L 524.755992 334.495585 
L 531.398859 334.654569 
L 538.041726 333.764258 
L 544.684594 334.336601 
L 551.327461 333.382697 
L 557.970328 333.160119 
L 564.613195 333.414494 
L 571.256062 332.714964 
L 577.898929 332.683167 
L 584.541796 333.191916 
L 591.184663 332.873948 
L 597.827531 332.396996 
L 604.470398 333.44629 
L 611.113265 332.937542 
L 617.756132 332.015434 
L 637.684733 330.584578 
L 644.327601 331.156921 
L 650.970468 331.570279 
L 657.613335 331.315905 
L 664.256202 331.729263 
L 670.899069 331.538482 
L 677.541936 331.125124 
L 684.184803 331.824654 
L 690.82767 331.76106 
L 697.470538 330.96614 
L 704.113405 331.220514 
L 710.756272 330.807156 
L 717.399139 330.17122 
L 724.042006 330.679969 
L 730.684873 330.934343 
L 737.32774 329.598878 
L 743.970608 330.679969 
L 750.613475 330.457391 
L 757.256342 328.994738 
L 763.899209 330.139423 
L 777.184943 329.726065 
L 783.82781 330.775359 
L 790.470677 330.679969 
L 797.113545 329.344503 
L 803.756412 329.662471 
L 810.399279 329.47169 
L 817.042146 328.390599 
L 823.685013 329.312706 
L 830.32788 328.740364 
L 836.970747 328.803958 
L 843.613615 329.249113 
L 850.256482 328.740364 
L 856.899349 328.517786 
L 863.542216 328.740364 
L 870.185083 329.408097 
L 876.82795 328.009038 
L 883.470817 328.613177 
L 890.113684 327.595679 
L 896.756552 325.751465 
L 910.042286 327.245914 
L 916.685153 326.546385 
L 923.32802 326.99154 
L 929.970887 326.164823 
L 936.613754 324.70217 
L 943.256622 326.578182 
L 949.899489 327.78646 
L 949.899489 327.78646 
" clip-path="url(#p0d19580d78)" style="fill: none; stroke: #7cb5ec; stroke-linecap: square"/>
   </g>
   <g id="line2d_18">
    <path d="M 86.326761 339.773854 
L 92.969628 339.360495 
L 112.89823 339.551276 
L 119.541097 338.81995 
L 126.183964 339.328698 
L 132.826831 338.883543 
L 146.112566 339.074324 
L 152.755433 338.947137 
L 159.3983 338.629169 
L 166.041167 339.106121 
L 172.684034 338.883543 
L 179.326901 338.851746 
L 185.969768 338.660966 
L 192.612635 338.724559 
L 199.255503 338.279404 
L 205.89837 338.311201 
L 212.541237 338.21581 
L 219.184104 337.961436 
L 225.826971 338.088623 
L 232.469838 338.470185 
L 239.112705 338.247607 
L 245.755573 338.533778 
L 259.041307 338.184014 
L 265.684174 338.374794 
L 272.327041 338.184014 
L 278.969908 337.802452 
L 285.612775 338.02503 
L 292.255642 337.738858 
L 298.89851 337.675265 
L 305.541377 338.056826 
L 318.827111 337.929639 
L 325.469978 338.184014 
L 332.112845 338.152217 
L 338.755712 337.993233 
L 352.041447 337.993233 
L 358.684314 337.484484 
L 365.327181 337.738858 
L 371.970048 337.579874 
L 378.612915 337.579874 
L 385.255782 338.056826 
L 391.898649 337.929639 
L 398.541517 337.675265 
L 405.184384 337.802452 
L 411.827251 337.611671 
L 418.470118 337.293703 
L 425.112985 337.452687 
L 431.755852 337.293703 
L 438.398719 336.848548 
L 445.041587 337.3255 
L 451.684454 337.198313 
L 458.327321 337.357297 
L 464.970188 337.675265 
L 478.255922 337.23011 
L 491.541656 337.134719 
L 498.184524 336.753158 
L 504.827391 336.816751 
L 511.470258 337.039329 
L 518.113125 337.039329 
L 524.755992 337.452687 
L 531.398859 337.389094 
L 538.041726 337.071126 
L 544.684594 337.261906 
L 551.327461 336.753158 
L 557.970328 336.498783 
L 564.613195 336.498783 
L 571.256062 336.149018 
L 577.898929 336.085425 
L 584.541796 336.403393 
L 597.827531 336.308002 
L 604.470398 336.562377 
L 611.113265 336.276206 
L 617.756132 335.799254 
L 624.398999 335.449489 
L 637.684733 335.163318 
L 644.327601 335.576676 
L 650.970468 335.799254 
L 657.613335 335.64027 
L 664.256202 336.053628 
L 677.541936 335.576676 
L 684.184803 335.767457 
L 697.470538 335.195114 
L 704.113405 335.417692 
L 710.756272 335.195114 
L 717.399139 334.749959 
L 724.042006 335.163318 
L 730.684873 335.131521 
L 737.32774 334.781756 
L 743.970608 335.099724 
L 750.613475 334.908943 
L 757.256342 334.368398 
L 763.899209 334.686366 
L 770.542076 334.559178 
L 777.184943 334.718162 
L 783.82781 335.163318 
L 790.470677 335.099724 
L 797.113545 334.686366 
L 803.756412 334.749959 
L 817.042146 333.923242 
L 823.685013 334.24121 
L 830.32788 334.018633 
L 836.970747 334.14582 
L 843.613615 333.955039 
L 856.899349 333.955039 
L 863.542216 334.177617 
L 870.185083 334.05043 
L 876.82795 333.541681 
L 883.470817 333.764258 
L 890.113684 333.25551 
L 896.756552 332.619574 
L 910.042286 333.191916 
L 916.685153 332.746761 
L 923.32802 333.223713 
L 929.970887 332.714964 
L 936.613754 332.079028 
L 943.256622 332.778558 
L 949.899489 333.859649 
L 949.899489 333.859649 
" clip-path="url(#p0d19580d78)" style="fill: none; stroke: #434348; stroke-linecap: square"/>
   </g>
   <g id="line2d_19">
    <path d="M 86.326761 345.211106 
L 92.969628 345.020326 
L 112.89823 345.052122 
L 119.541097 344.57517 
L 126.183964 344.893138 
L 132.826831 344.734154 
L 139.469698 344.702358 
L 146.112566 344.861342 
L 159.3983 344.543374 
L 166.041167 344.797748 
L 179.326901 344.447983 
L 192.612635 344.447983 
L 199.255503 344.193609 
L 205.89837 344.288999 
L 219.184104 344.098218 
L 225.826971 344.161812 
L 232.469838 344.38439 
L 239.112705 344.193609 
L 245.755573 344.416186 
L 259.041307 344.130015 
L 265.684174 344.352593 
L 272.327041 344.225406 
L 278.969908 343.939234 
L 285.612775 344.098218 
L 298.89851 343.748454 
L 305.541377 344.066422 
L 312.184244 344.130015 
L 318.827111 343.939234 
L 325.469978 344.130015 
L 332.112845 344.161812 
L 338.755712 343.971031 
L 352.041447 344.130015 
L 358.684314 343.843844 
L 365.327181 343.971031 
L 371.970048 343.653063 
L 378.612915 343.68486 
L 385.255782 344.066422 
L 391.898649 344.002828 
L 398.541517 343.78025 
L 405.184384 343.907438 
L 411.827251 343.748454 
L 418.470118 343.462282 
L 425.112985 343.748454 
L 431.755852 343.68486 
L 438.398719 343.494079 
L 445.041587 343.68486 
L 451.684454 343.494079 
L 458.327321 343.494079 
L 464.970188 343.748454 
L 471.613055 343.716657 
L 478.255922 343.494079 
L 484.898789 343.653063 
L 491.541656 343.621266 
L 498.184524 343.207908 
L 511.470258 343.557673 
L 518.113125 343.621266 
L 524.755992 343.812047 
L 531.398859 343.78025 
L 538.041726 343.494079 
L 544.684594 343.748454 
L 551.327461 343.366892 
L 557.970328 343.239705 
L 564.613195 343.303298 
L 571.256062 342.98533 
L 577.898929 342.98533 
L 584.541796 343.239705 
L 597.827531 343.048924 
L 604.470398 343.366892 
L 611.113265 343.207908 
L 617.756132 342.826346 
L 637.684733 342.285801 
L 644.327601 342.667362 
L 664.256202 342.921737 
L 677.541936 342.635566 
L 684.184803 342.953534 
L 690.82767 342.79455 
L 697.470538 342.508378 
L 704.113405 342.762753 
L 717.399139 342.285801 
L 724.042006 342.635566 
L 730.684873 342.540175 
L 737.32774 342.158614 
L 743.970608 342.603769 
L 750.613475 342.412988 
L 757.256342 342.031426 
L 763.899209 342.317598 
L 770.542076 342.19041 
L 777.184943 342.285801 
L 783.82781 342.730956 
L 790.470677 342.730956 
L 797.113545 342.222207 
L 803.756412 342.412988 
L 810.399279 342.317598 
L 817.042146 341.808849 
L 823.685013 342.19041 
L 830.32788 341.936036 
L 843.613615 342.19041 
L 850.256482 341.99963 
L 863.542216 342.222207 
L 870.185083 342.349394 
L 876.82795 341.904239 
L 883.470817 342.19041 
L 896.756552 341.20471 
L 910.042286 341.745255 
L 916.685153 341.39549 
L 923.32802 341.618068 
L 929.970887 341.459084 
L 936.613754 340.982132 
L 949.899489 342.158614 
L 949.899489 342.158614 
" clip-path="url(#p0d19580d78)" style="fill: none; stroke: #90ed7d; stroke-linecap: square"/>
   </g>
   <g id="line2d_20">
    <path d="M 86.326761 344.924935 
L 92.969628 344.702358 
L 112.89823 344.861342 
L 119.541097 344.320796 
L 126.183964 344.670561 
L 132.826831 344.447983 
L 139.469698 344.447983 
L 146.112566 344.606967 
L 152.755433 344.511577 
L 159.3983 344.288999 
L 166.041167 344.543374 
L 185.969768 344.225406 
L 192.612635 344.257202 
L 199.255503 344.002828 
L 205.89837 344.066422 
L 219.184104 343.812047 
L 232.469838 344.098218 
L 239.112705 343.907438 
L 245.755573 344.098218 
L 252.39844 344.098218 
L 259.041307 343.875641 
L 265.684174 344.034625 
L 272.327041 343.939234 
L 278.969908 343.68486 
L 285.612775 343.875641 
L 298.89851 343.557673 
L 305.541377 343.748454 
L 312.184244 343.78025 
L 318.827111 343.653063 
L 325.469978 343.907438 
L 332.112845 343.907438 
L 338.755712 343.748454 
L 352.041447 343.78025 
L 358.684314 343.494079 
L 365.327181 343.68486 
L 371.970048 343.462282 
L 378.612915 343.525876 
L 385.255782 343.748454 
L 391.898649 343.58947 
L 405.184384 343.621266 
L 418.470118 343.271502 
L 425.112985 343.430486 
L 431.755852 343.398689 
L 438.398719 343.017127 
L 445.041587 343.430486 
L 451.684454 343.207908 
L 458.327321 343.271502 
L 464.970188 343.653063 
L 471.613055 343.430486 
L 484.898789 343.335095 
L 491.541656 343.303298 
L 498.184524 343.017127 
L 504.827391 343.080721 
L 511.470258 343.303298 
L 518.113125 343.303298 
L 524.755992 343.494079 
L 531.398859 343.462282 
L 538.041726 343.207908 
L 544.684594 343.430486 
L 551.327461 343.017127 
L 557.970328 342.88994 
L 564.613195 343.048924 
L 571.256062 342.730956 
L 577.898929 342.699159 
L 584.541796 342.88994 
L 591.184663 342.762753 
L 597.827531 342.79455 
L 604.470398 343.144314 
L 617.756132 342.603769 
L 624.398999 342.349394 
L 631.041866 342.285801 
L 637.684733 342.031426 
L 644.327601 342.381191 
L 670.899069 342.540175 
L 677.541936 342.412988 
L 684.184803 342.635566 
L 697.470538 342.126817 
L 704.113405 342.444785 
L 717.399139 341.936036 
L 724.042006 342.317598 
L 737.32774 341.967833 
L 743.970608 342.254004 
L 750.613475 342.126817 
L 757.256342 341.745255 
L 763.899209 341.99963 
L 770.542076 341.840646 
L 777.184943 342.063223 
L 783.82781 342.444785 
L 790.470677 342.412988 
L 797.113545 341.99963 
L 803.756412 342.158614 
L 810.399279 341.904239 
L 817.042146 341.427287 
L 823.685013 341.967833 
L 836.970747 341.681662 
L 843.613615 341.840646 
L 856.899349 341.649865 
L 863.542216 341.840646 
L 870.185083 341.872442 
L 876.82795 341.554474 
L 883.470817 341.713458 
L 890.113684 341.363694 
L 896.756552 340.823148 
L 910.042286 341.522678 
L 916.685153 341.172913 
L 923.32802 341.39549 
L 936.613754 340.854945 
L 943.256622 341.20471 
L 949.899489 341.872442 
L 949.899489 341.872442 
" clip-path="url(#p0d19580d78)" style="fill: none; stroke: #f7a35c; stroke-linecap: square"/>
   </g>
   <g id="line2d_21">
    <path d="M 86.326761 341.522678 
L 92.969628 341.172913 
L 112.89823 341.268303 
L 119.541097 340.632367 
L 126.183964 341.013929 
L 132.826831 340.664164 
L 152.755433 340.632367 
L 159.3983 340.441586 
L 166.041167 340.759554 
L 185.969768 340.40979 
L 192.612635 340.473383 
L 199.255503 340.028228 
L 205.89837 340.060025 
L 219.184104 339.678463 
L 225.826971 339.773854 
L 232.469838 340.060025 
L 239.112705 339.837447 
L 245.755573 340.187212 
L 259.041307 339.964634 
L 265.684174 340.091822 
L 272.327041 339.932838 
L 278.969908 339.646666 
L 285.612775 339.742057 
L 298.89851 339.424089 
L 305.541377 339.742057 
L 312.184244 339.742057 
L 318.827111 339.583073 
L 325.469978 339.901041 
L 332.112845 339.996431 
L 338.755712 339.80565 
L 352.041447 339.80565 
L 358.684314 339.455886 
L 365.327181 339.551276 
L 371.970048 339.296902 
L 378.612915 339.455886 
L 385.255782 339.80565 
L 391.898649 339.742057 
L 398.541517 339.519479 
L 405.184384 339.678463 
L 411.827251 339.519479 
L 418.470118 339.233308 
L 425.112985 339.392292 
L 431.755852 339.328698 
L 438.398719 338.947137 
L 445.041587 339.201511 
L 458.327321 339.328698 
L 464.970188 339.61487 
L 491.541656 339.233308 
L 498.184524 338.947137 
L 504.827391 338.91534 
L 511.470258 339.106121 
L 518.113125 339.137918 
L 524.755992 339.455886 
L 531.398859 339.455886 
L 538.041726 339.233308 
L 544.684594 339.455886 
L 551.327461 338.947137 
L 557.970328 338.724559 
L 564.613195 338.81995 
L 571.256062 338.406591 
L 577.898929 338.374794 
L 584.541796 338.660966 
L 591.184663 338.724559 
L 597.827531 338.629169 
L 604.470398 338.978934 
L 611.113265 338.851746 
L 617.756132 338.438388 
L 631.041866 337.897842 
L 637.684733 337.897842 
L 644.327601 338.247607 
L 657.613335 338.311201 
L 664.256202 338.565575 
L 677.541936 338.12042 
L 684.184803 338.406591 
L 697.470538 337.993233 
L 704.113405 338.152217 
L 710.756272 337.993233 
L 717.399139 337.579874 
L 724.042006 338.02503 
L 730.684873 338.02503 
L 737.32774 337.802452 
L 750.613475 337.993233 
L 757.256342 337.516281 
L 763.899209 337.707062 
L 770.542076 337.548078 
L 777.184943 337.675265 
L 783.82781 338.184014 
L 790.470677 338.184014 
L 797.113545 337.770655 
L 810.399279 337.866046 
L 817.042146 337.198313 
L 823.685013 337.707062 
L 830.32788 337.389094 
L 870.185083 337.611671 
L 876.82795 337.261906 
L 883.470817 337.42089 
L 890.113684 336.880345 
L 896.756552 336.594174 
L 903.399419 336.848548 
L 910.042286 336.975735 
L 916.685153 336.816751 
L 923.32802 336.975735 
L 929.970887 336.816751 
L 936.613754 336.43519 
L 943.256622 336.816751 
L 949.899489 337.770655 
L 949.899489 337.770655 
" clip-path="url(#p0d19580d78)" style="fill: none; stroke: #8085e9; stroke-linecap: square"/>
   </g>
   <g id="line2d_22">
    <path d="M 86.326761 344.130015 
L 92.969628 343.875641 
L 112.89823 343.939234 
L 119.541097 343.430486 
L 126.183964 343.748454 
L 132.826831 343.398689 
L 146.112566 343.557673 
L 159.3983 343.303298 
L 166.041167 343.525876 
L 185.969768 343.239705 
L 192.612635 343.239705 
L 199.255503 343.017127 
L 212.541237 342.858143 
L 219.184104 342.730956 
L 232.469838 343.048924 
L 239.112705 342.858143 
L 245.755573 343.112518 
L 259.041307 342.79455 
L 265.684174 343.048924 
L 278.969908 342.603769 
L 285.612775 342.699159 
L 298.89851 342.476582 
L 305.541377 342.730956 
L 318.827111 342.571972 
L 325.469978 342.826346 
L 332.112845 342.858143 
L 338.755712 342.699159 
L 345.39858 342.762753 
L 352.041447 342.699159 
L 358.684314 342.381191 
L 365.327181 342.508378 
L 371.970048 342.317598 
L 378.612915 342.349394 
L 385.255782 342.635566 
L 405.184384 342.571972 
L 418.470118 342.158614 
L 425.112985 342.285801 
L 431.755852 342.254004 
L 438.398719 341.904239 
L 445.041587 342.254004 
L 451.684454 342.09502 
L 471.613055 342.317598 
L 478.255922 342.19041 
L 491.541656 342.126817 
L 498.184524 341.840646 
L 504.827391 341.872442 
L 511.470258 342.031426 
L 518.113125 342.063223 
L 524.755992 342.285801 
L 538.041726 342.126817 
L 544.684594 342.222207 
L 551.327461 341.872442 
L 564.613195 341.745255 
L 571.256062 341.522678 
L 577.898929 341.427287 
L 584.541796 341.618068 
L 591.184663 341.681662 
L 597.827531 341.490881 
L 604.470398 341.840646 
L 617.756132 341.363694 
L 624.398999 341.077522 
L 637.684733 340.854945 
L 644.327601 341.109319 
L 670.899069 341.3001 
L 677.541936 341.077522 
L 684.184803 341.20471 
L 690.82767 341.172913 
L 697.470538 341.013929 
L 704.113405 341.077522 
L 717.399139 340.664164 
L 724.042006 340.982132 
L 737.32774 340.632367 
L 743.970608 340.854945 
L 750.613475 340.727758 
L 757.256342 340.441586 
L 763.899209 340.568774 
L 770.542076 340.50518 
L 777.184943 340.60057 
L 783.82781 340.982132 
L 790.470677 341.013929 
L 797.113545 340.568774 
L 803.756412 340.727758 
L 810.399279 340.50518 
L 817.042146 340.155415 
L 823.685013 340.50518 
L 830.32788 340.187212 
L 836.970747 340.377993 
L 856.899349 340.282602 
L 870.185083 340.50518 
L 876.82795 340.028228 
L 883.470817 340.187212 
L 890.113684 339.932838 
L 896.756552 339.487682 
L 903.399419 339.678463 
L 910.042286 340.028228 
L 916.685153 339.71026 
L 923.32802 339.869244 
L 936.613754 339.328698 
L 943.256622 339.61487 
L 949.899489 340.155415 
L 949.899489 340.155415 
" clip-path="url(#p0d19580d78)" style="fill: none; stroke: #f15c80; stroke-linecap: square"/>
   </g>
   <g id="line2d_23">
    <path d="M 86.326761 337.707062 
L 92.969628 337.166516 
L 99.612496 337.071126 
L 112.89823 337.516281 
L 119.541097 336.149018 
L 126.183964 337.23011 
L 132.826831 336.721361 
L 139.469698 336.53058 
L 146.112566 336.848548 
L 152.755433 336.753158 
L 159.3983 336.149018 
L 166.041167 336.912142 
L 179.326901 335.990034 
L 185.969768 336.180815 
L 192.612635 336.117222 
L 199.255503 335.703863 
L 205.89837 336.021831 
L 212.541237 335.862847 
L 219.184104 335.481286 
L 225.826971 335.767457 
L 232.469838 336.212612 
L 239.112705 335.799254 
L 245.755573 336.466986 
L 252.39844 336.308002 
L 259.041307 335.481286 
L 265.684174 335.894644 
L 272.327041 335.449489 
L 278.969908 334.84535 
L 285.612775 335.672066 
L 292.255642 334.877146 
L 298.89851 334.654569 
L 305.541377 335.544879 
L 312.184244 335.449489 
L 318.827111 335.226911 
L 325.469978 335.862847 
L 332.112845 335.576676 
L 338.755712 335.131521 
L 345.39858 335.576676 
L 352.041447 335.544879 
L 358.684314 334.813553 
L 365.327181 335.163318 
L 371.970048 334.686366 
L 378.612915 334.527382 
L 385.255782 335.417692 
L 391.898649 335.290505 
L 398.541517 334.686366 
L 405.184384 335.03613 
L 411.827251 334.94074 
L 418.470118 334.24121 
L 425.112985 334.527382 
L 431.755852 334.495585 
L 438.398719 333.955039 
L 445.041587 334.749959 
L 451.684454 334.273007 
L 458.327321 334.14582 
L 464.970188 334.813553 
L 478.255922 334.177617 
L 484.898789 334.400194 
L 491.541656 334.24121 
L 498.184524 333.764258 
L 504.827391 333.891446 
L 511.470258 334.431991 
L 518.113125 334.273007 
L 524.755992 334.94074 
L 531.398859 334.781756 
L 538.041726 333.859649 
L 544.684594 334.559178 
L 551.327461 333.637071 
L 557.970328 333.319103 
L 564.613195 333.573478 
L 571.256062 332.969338 
L 577.898929 333.032932 
L 584.541796 333.44629 
L 591.184663 333.509884 
L 597.827531 332.778558 
L 604.470398 333.605274 
L 617.756132 332.301606 
L 631.041866 331.570279 
L 637.684733 330.87075 
L 644.327601 332.110825 
L 650.970468 332.047231 
L 657.613335 332.142622 
L 664.256202 332.905745 
L 670.899069 332.396996 
L 677.541936 332.015434 
L 684.184803 332.746761 
L 690.82767 332.55598 
L 697.470538 331.66567 
L 704.113405 332.65137 
L 710.756272 332.174418 
L 717.399139 330.838953 
L 724.042006 331.76106 
L 730.684873 332.142622 
L 737.32774 330.807156 
L 743.970608 331.983638 
L 750.613475 331.570279 
L 757.256342 330.298407 
L 763.899209 331.602076 
L 770.542076 331.188718 
L 777.184943 331.252311 
L 783.82781 332.079028 
L 790.470677 332.206215 
L 797.113545 330.87075 
L 803.756412 331.284108 
L 810.399279 331.220514 
L 817.042146 329.948642 
L 823.685013 331.06153 
L 830.32788 330.520985 
L 836.970747 330.96614 
L 850.256482 330.838953 
L 856.899349 330.584578 
L 863.542216 330.838953 
L 870.185083 330.96614 
L 876.82795 329.694268 
L 883.470817 330.87075 
L 890.113684 329.948642 
L 896.756552 328.327006 
L 903.399419 329.090129 
L 910.042286 330.07583 
L 916.685153 328.772161 
L 923.32802 329.598878 
L 929.970887 328.899348 
L 936.613754 327.850054 
L 943.256622 329.3763 
L 949.899489 330.489188 
L 949.899489 330.489188 
" clip-path="url(#p0d19580d78)" style="fill: none; stroke: #e4d354; stroke-linecap: square"/>
   </g>
   <g id="line2d_24">
    <path d="M 43.148125 353.2239 
L 993.078125 353.2239 
" clip-path="url(#p0d19580d78)" style="fill: none; stroke: #dedede; stroke-width: 2; stroke-linecap: square"/>
   </g>
   <g id="text_16">
    <!-- Bismark: M-Bias -->
    <g transform="translate(454.100625 19.3575)scale(0.16 -0.16)">
     <defs>
      <path id="DejaVuSans-42" d="M 1259 2228 
L 1259 519 
L 2272 519 
Q 2781 519 3026 730 
Q 3272 941 3272 1375 
Q 3272 1813 3026 2020 
Q 2781 2228 2272 2228 
L 1259 2228 
z
M 1259 4147 
L 1259 2741 
L 2194 2741 
Q 2656 2741 2882 2914 
Q 3109 3088 3109 3444 
Q 3109 3797 2882 3972 
Q 2656 4147 2194 4147 
L 1259 4147 
z
M 628 4666 
L 2241 4666 
Q 2963 4666 3353 4366 
Q 3744 4066 3744 3513 
Q 3744 3084 3544 2831 
Q 3344 2578 2956 2516 
Q 3422 2416 3680 2098 
Q 3938 1781 3938 1306 
Q 3938 681 3513 340 
Q 3088 0 2303 0 
L 628 0 
L 628 4666 
z
" transform="scale(0.015625)"/>
      <path id="DejaVuSans-6d" d="M 3328 2828 
Q 3544 3216 3844 3400 
Q 4144 3584 4550 3584 
Q 5097 3584 5394 3201 
Q 5691 2819 5691 2113 
L 5691 0 
L 5113 0 
L 5113 2094 
Q 5113 2597 4934 2840 
Q 4756 3084 4391 3084 
Q 3944 3084 3684 2787 
Q 3425 2491 3425 1978 
L 3425 0 
L 2847 0 
L 2847 2094 
Q 2847 2600 2669 2842 
Q 2491 3084 2119 3084 
Q 1678 3084 1418 2786 
Q 1159 2488 1159 1978 
L 1159 0 
L 581 0 
L 581 3500 
L 1159 3500 
L 1159 2956 
Q 1356 3278 1631 3431 
Q 1906 3584 2284 3584 
Q 2666 3584 2933 3390 
Q 3200 3197 3328 2828 
z
" transform="scale(0.015625)"/>
      <path id="DejaVuSans-72" d="M 2631 2963 
Q 2534 3019 2420 3045 
Q 2306 3072 2169 3072 
Q 1681 3072 1420 2755 
Q 1159 2438 1159 1844 
L 1159 0 
L 581 0 
L 581 3500 
L 1159 3500 
L 1159 2956 
Q 1341 3275 1631 3429 
Q 1922 3584 2338 3584 
Q 2397 3584 2469 3576 
Q 2541 3569 2628 3553 
L 2631 2963 
z
" transform="scale(0.015625)"/>
      <path id="DejaVuSans-6b" d="M 581 4863 
L 1159 4863 
L 1159 1991 
L 2875 3500 
L 3609 3500 
L 1753 1863 
L 3688 0 
L 2938 0 
L 1159 1709 
L 1159 0 
L 581 0 
L 581 4863 
z
" transform="scale(0.015625)"/>
      <path id="DejaVuSans-3a" d="M 750 794 
L 1409 794 
L 1409 0 
L 750 0 
L 750 794 
z
M 750 3309 
L 1409 3309 
L 1409 2516 
L 750 2516 
L 750 3309 
z
" transform="scale(0.015625)"/>
      <path id="DejaVuSans-2d" d="M 313 2009 
L 1997 2009 
L 1997 1497 
L 313 1497 
L 313 2009 
z
" transform="scale(0.015625)"/>
     </defs>
     <use xlink:href="#DejaVuSans-42"/>
     <use xlink:href="#DejaVuSans-69" x="68.603516"/>
     <use xlink:href="#DejaVuSans-73" x="96.386719"/>
     <use xlink:href="#DejaVuSans-6d" x="148.486328"/>
     <use xlink:href="#DejaVuSans-61" x="245.898438"/>
     <use xlink:href="#DejaVuSans-72" x="307.177734"/>
     <use xlink:href="#DejaVuSans-6b" x="348.291016"/>
     <use xlink:href="#DejaVuSans-3a" x="406.201172"/>
     <use xlink:href="#DejaVuSans-20" x="439.892578"/>
     <use xlink:href="#DejaVuSans-4d" x="471.679688"/>
     <use xlink:href="#DejaVuSans-2d" x="557.958984"/>
     <use xlink:href="#DejaVuSans-42" x="590.417969"/>
     <use xlink:href="#DejaVuSans-69" x="659.021484"/>
     <use xlink:href="#DejaVuSans-61" x="686.804688"/>
     <use xlink:href="#DejaVuSans-73" x="748.083984"/>
    </g>
   </g>
  </g>
 </g>
 <defs>
  <clipPath id="p0d19580d78">
   <rect x="43.148125" y="35.2559" width="949.93" height="317.968"/>
  </clipPath>
 </defs>
</svg>
