<?xml version="1.0" encoding="utf-8" standalone="no"?>
<!DOCTYPE svg PUBLIC "-//W3C//DTD SVG 1.1//EN"
  "http://www.w3.org/Graphics/SVG/1.1/DTD/svg11.dtd">
<svg xmlns:xlink="http://www.w3.org/1999/xlink" width="1000.278125pt" height="388.844525pt" viewBox="0 0 1000.278125 388.844525" xmlns="http://www.w3.org/2000/svg" version="1.1">
 <metadata>
  <rdf:RDF xmlns:dc="http://purl.org/dc/elements/1.1/" xmlns:cc="http://creativecommons.org/ns#" xmlns:rdf="http://www.w3.org/1999/02/22-rdf-syntax-ns#">
   <cc:Work>
    <dc:type rdf:resource="http://purl.org/dc/dcmitype/StillImage"/>
    <dc:date>2023-04-18T05:56:15.161054</dc:date>
    <dc:format>image/svg+xml</dc:format>
    <dc:creator>
     <cc:Agent>
      <dc:title>Matplotlib v3.5.3, https://matplotlib.org/</dc:title>
     </cc:Agent>
    </dc:creator>
   </cc:Work>
  </rdf:RDF>
 </metadata>
 <defs>
  <style type="text/css">*{stroke-linejoin: round; stroke-linecap: butt}</style>
 </defs>
 <g id="figure_1">
  <g id="axes_1">
   <g id="patch_1">
    <path d="M 43.148125 353.2239 
L 993.078125 353.2239 
L 993.078125 35.2559 
L 43.148125 35.2559 
z
" style="fill: #ffffff"/>
   </g>
   <g id="matplotlib.axis_1">
    <g id="xtick_1">
     <g id="text_1">
      <!-- 0 -->
      <g transform="translate(77.239544 366.30265)scale(0.08 -0.08)">
       <defs>
        <path id="DejaVuSans-30" d="M 2034 4250 
Q 1547 4250 1301 3770 
Q 1056 3291 1056 2328 
Q 1056 1369 1301 889 
Q 1547 409 2034 409 
Q 2525 409 2770 889 
Q 3016 1369 3016 2328 
Q 3016 3291 2770 3770 
Q 2525 4250 2034 4250 
z
M 2034 4750 
Q 2819 4750 3233 4129 
Q 3647 3509 3647 2328 
Q 3647 1150 3233 529 
Q 2819 -91 2034 -91 
Q 1250 -91 836 529 
Q 422 1150 422 2328 
Q 422 3509 836 4129 
Q 1250 4750 2034 4750 
z
" transform="scale(0.015625)"/>
       </defs>
       <use xlink:href="#DejaVuSans-30"/>
      </g>
     </g>
    </g>
    <g id="xtick_2">
     <g id="text_2">
      <!-- 20 -->
      <g transform="translate(205.538896 366.30265)scale(0.08 -0.08)">
       <defs>
        <path id="DejaVuSans-32" d="M 1228 531 
L 3431 531 
L 3431 0 
L 469 0 
L 469 531 
Q 828 903 1448 1529 
Q 2069 2156 2228 2338 
Q 2531 2678 2651 2914 
Q 2772 3150 2772 3378 
Q 2772 3750 2511 3984 
Q 2250 4219 1831 4219 
Q 1534 4219 1204 4116 
Q 875 4013 500 3803 
L 500 4441 
Q 881 4594 1212 4672 
Q 1544 4750 1819 4750 
Q 2544 4750 2975 4387 
Q 3406 4025 3406 3419 
Q 3406 3131 3298 2873 
Q 3191 2616 2906 2266 
Q 2828 2175 2409 1742 
Q 1991 1309 1228 531 
z
" transform="scale(0.015625)"/>
       </defs>
       <use xlink:href="#DejaVuSans-32"/>
       <use xlink:href="#DejaVuSans-30" x="63.623047"/>
      </g>
     </g>
    </g>
    <g id="xtick_3">
     <g id="text_3">
      <!-- 40 -->
      <g transform="translate(336.383249 366.30265)scale(0.08 -0.08)">
       <defs>
        <path id="DejaVuSans-34" d="M 2419 4116 
L 825 1625 
L 2419 1625 
L 2419 4116 
z
M 2253 4666 
L 3047 4666 
L 3047 1625 
L 3713 1625 
L 3713 1100 
L 3047 1100 
L 3047 0 
L 2419 0 
L 2419 1100 
L 313 1100 
L 313 1709 
L 2253 4666 
z
" transform="scale(0.015625)"/>
       </defs>
       <use xlink:href="#DejaVuSans-34"/>
       <use xlink:href="#DejaVuSans-30" x="63.623047"/>
      </g>
     </g>
    </g>
    <g id="xtick_4">
     <g id="text_4">
      <!-- 60 -->
      <g transform="translate(467.227602 366.30265)scale(0.08 -0.08)">
       <defs>
        <path id="DejaVuSans-36" d="M 2113 2584 
Q 1688 2584 1439 2293 
Q 1191 2003 1191 1497 
Q 1191 994 1439 701 
Q 1688 409 2113 409 
Q 2538 409 2786 701 
Q 3034 994 3034 1497 
Q 3034 2003 2786 2293 
Q 2538 2584 2113 2584 
z
M 3366 4563 
L 3366 3988 
Q 3128 4100 2886 4159 
Q 2644 4219 2406 4219 
Q 1781 4219 1451 3797 
Q 1122 3375 1075 2522 
Q 1259 2794 1537 2939 
Q 1816 3084 2150 3084 
Q 2853 3084 3261 2657 
Q 3669 2231 3669 1497 
Q 3669 778 3244 343 
Q 2819 -91 2113 -91 
Q 1303 -91 875 529 
Q 447 1150 447 2328 
Q 447 3434 972 4092 
Q 1497 4750 2381 4750 
Q 2619 4750 2861 4703 
Q 3103 4656 3366 4563 
z
" transform="scale(0.015625)"/>
       </defs>
       <use xlink:href="#DejaVuSans-36"/>
       <use xlink:href="#DejaVuSans-30" x="63.623047"/>
      </g>
     </g>
    </g>
    <g id="xtick_5">
     <g id="text_5">
      <!-- 80 -->
      <g transform="translate(598.071954 366.30265)scale(0.08 -0.08)">
       <defs>
        <path id="DejaVuSans-38" d="M 2034 2216 
Q 1584 2216 1326 1975 
Q 1069 1734 1069 1313 
Q 1069 891 1326 650 
Q 1584 409 2034 409 
Q 2484 409 2743 651 
Q 3003 894 3003 1313 
Q 3003 1734 2745 1975 
Q 2488 2216 2034 2216 
z
M 1403 2484 
Q 997 2584 770 2862 
Q 544 3141 544 3541 
Q 544 4100 942 4425 
Q 1341 4750 2034 4750 
Q 2731 4750 3128 4425 
Q 3525 4100 3525 3541 
Q 3525 3141 3298 2862 
Q 3072 2584 2669 2484 
Q 3125 2378 3379 2068 
Q 3634 1759 3634 1313 
Q 3634 634 3220 271 
Q 2806 -91 2034 -91 
Q 1263 -91 848 271 
Q 434 634 434 1313 
Q 434 1759 690 2068 
Q 947 2378 1403 2484 
z
M 1172 3481 
Q 1172 3119 1398 2916 
Q 1625 2713 2034 2713 
Q 2441 2713 2670 2916 
Q 2900 3119 2900 3481 
Q 2900 3844 2670 4047 
Q 2441 4250 2034 4250 
Q 1625 4250 1398 4047 
Q 1172 3844 1172 3481 
z
" transform="scale(0.015625)"/>
       </defs>
       <use xlink:href="#DejaVuSans-38"/>
       <use xlink:href="#DejaVuSans-30" x="63.623047"/>
      </g>
     </g>
    </g>
    <g id="xtick_6">
     <g id="text_6">
      <!-- 100 -->
      <g transform="translate(726.371307 366.30265)scale(0.08 -0.08)">
       <defs>
        <path id="DejaVuSans-31" d="M 794 531 
L 1825 531 
L 1825 4091 
L 703 3866 
L 703 4441 
L 1819 4666 
L 2450 4666 
L 2450 531 
L 3481 531 
L 3481 0 
L 794 0 
L 794 531 
z
" transform="scale(0.015625)"/>
       </defs>
       <use xlink:href="#DejaVuSans-31"/>
       <use xlink:href="#DejaVuSans-30" x="63.623047"/>
       <use xlink:href="#DejaVuSans-30" x="127.246094"/>
      </g>
     </g>
    </g>
    <g id="xtick_7">
     <g id="text_7">
      <!-- 120 -->
      <g transform="translate(857.215659 366.30265)scale(0.08 -0.08)">
       <use xlink:href="#DejaVuSans-31"/>
       <use xlink:href="#DejaVuSans-32" x="63.623047"/>
       <use xlink:href="#DejaVuSans-30" x="127.246094"/>
      </g>
     </g>
    </g>
    <g id="text_8">
     <!-- Position (bp) -->
     <g transform="translate(486.81 379.564837)scale(0.1 -0.1)">
      <defs>
       <path id="DejaVuSans-50" d="M 1259 4147 
L 1259 2394 
L 2053 2394 
Q 2494 2394 2734 2622 
Q 2975 2850 2975 3272 
Q 2975 3691 2734 3919 
Q 2494 4147 2053 4147 
L 1259 4147 
z
M 628 4666 
L 2053 4666 
Q 2838 4666 3239 4311 
Q 3641 3956 3641 3272 
Q 3641 2581 3239 2228 
Q 2838 1875 2053 1875 
L 1259 1875 
L 1259 0 
L 628 0 
L 628 4666 
z
" transform="scale(0.015625)"/>
       <path id="DejaVuSans-6f" d="M 1959 3097 
Q 1497 3097 1228 2736 
Q 959 2375 959 1747 
Q 959 1119 1226 758 
Q 1494 397 1959 397 
Q 2419 397 2687 759 
Q 2956 1122 2956 1747 
Q 2956 2369 2687 2733 
Q 2419 3097 1959 3097 
z
M 1959 3584 
Q 2709 3584 3137 3096 
Q 3566 2609 3566 1747 
Q 3566 888 3137 398 
Q 2709 -91 1959 -91 
Q 1206 -91 779 398 
Q 353 888 353 1747 
Q 353 2609 779 3096 
Q 1206 3584 1959 3584 
z
" transform="scale(0.015625)"/>
       <path id="DejaVuSans-73" d="M 2834 3397 
L 2834 2853 
Q 2591 2978 2328 3040 
Q 2066 3103 1784 3103 
Q 1356 3103 1142 2972 
Q 928 2841 928 2578 
Q 928 2378 1081 2264 
Q 1234 2150 1697 2047 
L 1894 2003 
Q 2506 1872 2764 1633 
Q 3022 1394 3022 966 
Q 3022 478 2636 193 
Q 2250 -91 1575 -91 
Q 1294 -91 989 -36 
Q 684 19 347 128 
L 347 722 
Q 666 556 975 473 
Q 1284 391 1588 391 
Q 1994 391 2212 530 
Q 2431 669 2431 922 
Q 2431 1156 2273 1281 
Q 2116 1406 1581 1522 
L 1381 1569 
Q 847 1681 609 1914 
Q 372 2147 372 2553 
Q 372 3047 722 3315 
Q 1072 3584 1716 3584 
Q 2034 3584 2315 3537 
Q 2597 3491 2834 3397 
z
" transform="scale(0.015625)"/>
       <path id="DejaVuSans-69" d="M 603 3500 
L 1178 3500 
L 1178 0 
L 603 0 
L 603 3500 
z
M 603 4863 
L 1178 4863 
L 1178 4134 
L 603 4134 
L 603 4863 
z
" transform="scale(0.015625)"/>
       <path id="DejaVuSans-74" d="M 1172 4494 
L 1172 3500 
L 2356 3500 
L 2356 3053 
L 1172 3053 
L 1172 1153 
Q 1172 725 1289 603 
Q 1406 481 1766 481 
L 2356 481 
L 2356 0 
L 1766 0 
Q 1100 0 847 248 
Q 594 497 594 1153 
L 594 3053 
L 172 3053 
L 172 3500 
L 594 3500 
L 594 4494 
L 1172 4494 
z
" transform="scale(0.015625)"/>
       <path id="DejaVuSans-6e" d="M 3513 2113 
L 3513 0 
L 2938 0 
L 2938 2094 
Q 2938 2591 2744 2837 
Q 2550 3084 2163 3084 
Q 1697 3084 1428 2787 
Q 1159 2491 1159 1978 
L 1159 0 
L 581 0 
L 581 3500 
L 1159 3500 
L 1159 2956 
Q 1366 3272 1645 3428 
Q 1925 3584 2291 3584 
Q 2894 3584 3203 3211 
Q 3513 2838 3513 2113 
z
" transform="scale(0.015625)"/>
       <path id="DejaVuSans-20" transform="scale(0.015625)"/>
       <path id="DejaVuSans-28" d="M 1984 4856 
Q 1566 4138 1362 3434 
Q 1159 2731 1159 2009 
Q 1159 1288 1364 580 
Q 1569 -128 1984 -844 
L 1484 -844 
Q 1016 -109 783 600 
Q 550 1309 550 2009 
Q 550 2706 781 3412 
Q 1013 4119 1484 4856 
L 1984 4856 
z
" transform="scale(0.015625)"/>
       <path id="DejaVuSans-62" d="M 3116 1747 
Q 3116 2381 2855 2742 
Q 2594 3103 2138 3103 
Q 1681 3103 1420 2742 
Q 1159 2381 1159 1747 
Q 1159 1113 1420 752 
Q 1681 391 2138 391 
Q 2594 391 2855 752 
Q 3116 1113 3116 1747 
z
M 1159 2969 
Q 1341 3281 1617 3432 
Q 1894 3584 2278 3584 
Q 2916 3584 3314 3078 
Q 3713 2572 3713 1747 
Q 3713 922 3314 415 
Q 2916 -91 2278 -91 
Q 1894 -91 1617 61 
Q 1341 213 1159 525 
L 1159 0 
L 581 0 
L 581 4863 
L 1159 4863 
L 1159 2969 
z
" transform="scale(0.015625)"/>
       <path id="DejaVuSans-70" d="M 1159 525 
L 1159 -1331 
L 581 -1331 
L 581 3500 
L 1159 3500 
L 1159 2969 
Q 1341 3281 1617 3432 
Q 1894 3584 2278 3584 
Q 2916 3584 3314 3078 
Q 3713 2572 3713 1747 
Q 3713 922 3314 415 
Q 2916 -91 2278 -91 
Q 1894 -91 1617 61 
Q 1341 213 1159 525 
z
M 3116 1747 
Q 3116 2381 2855 2742 
Q 2594 3103 2138 3103 
Q 1681 3103 1420 2742 
Q 1159 2381 1159 1747 
Q 1159 1113 1420 752 
Q 1681 391 2138 391 
Q 2594 391 2855 752 
Q 3116 1113 3116 1747 
z
" transform="scale(0.015625)"/>
       <path id="DejaVuSans-29" d="M 513 4856 
L 1013 4856 
Q 1481 4119 1714 3412 
Q 1947 2706 1947 2009 
Q 1947 1309 1714 600 
Q 1481 -109 1013 -844 
L 513 -844 
Q 928 -128 1133 580 
Q 1338 1288 1338 2009 
Q 1338 2731 1133 3434 
Q 928 4138 513 4856 
z
" transform="scale(0.015625)"/>
      </defs>
      <use xlink:href="#DejaVuSans-50"/>
      <use xlink:href="#DejaVuSans-6f" x="56.677734"/>
      <use xlink:href="#DejaVuSans-73" x="117.859375"/>
      <use xlink:href="#DejaVuSans-69" x="169.958984"/>
      <use xlink:href="#DejaVuSans-74" x="197.742188"/>
      <use xlink:href="#DejaVuSans-69" x="236.951172"/>
      <use xlink:href="#DejaVuSans-6f" x="264.734375"/>
      <use xlink:href="#DejaVuSans-6e" x="325.916016"/>
      <use xlink:href="#DejaVuSans-20" x="389.294922"/>
      <use xlink:href="#DejaVuSans-28" x="421.082031"/>
      <use xlink:href="#DejaVuSans-62" x="460.095703"/>
      <use xlink:href="#DejaVuSans-70" x="523.572266"/>
      <use xlink:href="#DejaVuSans-29" x="587.048828"/>
     </g>
    </g>
   </g>
   <g id="matplotlib.axis_2">
    <g id="ytick_1">
     <g id="line2d_1">
      <path d="M 43.148125 353.2239 
L 993.078125 353.2239 
" clip-path="url(#pc22b0abb9a)" style="fill: none; stroke: #dedede; stroke-linecap: square"/>
     </g>
     <g id="text_9">
      <!-- 0 -->
      <g transform="translate(31.058125 356.263275)scale(0.08 -0.08)">
       <use xlink:href="#DejaVuSans-30"/>
      </g>
     </g>
    </g>
    <g id="ytick_2">
     <g id="line2d_2">
      <path d="M 43.148125 289.6303 
L 993.078125 289.6303 
" clip-path="url(#pc22b0abb9a)" style="fill: none; stroke: #dedede; stroke-linecap: square"/>
     </g>
     <g id="text_10">
      <!-- 20 -->
      <g transform="translate(25.968125 292.669675)scale(0.08 -0.08)">
       <use xlink:href="#DejaVuSans-32"/>
       <use xlink:href="#DejaVuSans-30" x="63.623047"/>
      </g>
     </g>
    </g>
    <g id="ytick_3">
     <g id="line2d_3">
      <path d="M 43.148125 226.0367 
L 993.078125 226.0367 
" clip-path="url(#pc22b0abb9a)" style="fill: none; stroke: #dedede; stroke-linecap: square"/>
     </g>
     <g id="text_11">
      <!-- 40 -->
      <g transform="translate(25.968125 229.076075)scale(0.08 -0.08)">
       <use xlink:href="#DejaVuSans-34"/>
       <use xlink:href="#DejaVuSans-30" x="63.623047"/>
      </g>
     </g>
    </g>
    <g id="ytick_4">
     <g id="line2d_4">
      <path d="M 43.148125 162.4431 
L 993.078125 162.4431 
" clip-path="url(#pc22b0abb9a)" style="fill: none; stroke: #dedede; stroke-linecap: square"/>
     </g>
     <g id="text_12">
      <!-- 60 -->
      <g transform="translate(25.968125 165.482475)scale(0.08 -0.08)">
       <use xlink:href="#DejaVuSans-36"/>
       <use xlink:href="#DejaVuSans-30" x="63.623047"/>
      </g>
     </g>
    </g>
    <g id="ytick_5">
     <g id="line2d_5">
      <path d="M 43.148125 98.8495 
L 993.078125 98.8495 
" clip-path="url(#pc22b0abb9a)" style="fill: none; stroke: #dedede; stroke-linecap: square"/>
     </g>
     <g id="text_13">
      <!-- 80 -->
      <g transform="translate(25.968125 101.888875)scale(0.08 -0.08)">
       <use xlink:href="#DejaVuSans-38"/>
       <use xlink:href="#DejaVuSans-30" x="63.623047"/>
      </g>
     </g>
    </g>
    <g id="ytick_6">
     <g id="line2d_6">
      <path d="M 43.148125 35.2559 
L 993.078125 35.2559 
" clip-path="url(#pc22b0abb9a)" style="fill: none; stroke: #dedede; stroke-linecap: square"/>
     </g>
     <g id="text_14">
      <!-- 100 -->
      <g transform="translate(20.878125 38.295275)scale(0.08 -0.08)">
       <use xlink:href="#DejaVuSans-31"/>
       <use xlink:href="#DejaVuSans-30" x="63.623047"/>
       <use xlink:href="#DejaVuSans-30" x="127.246094"/>
      </g>
     </g>
    </g>
    <g id="text_15">
     <!-- % Methylation -->
     <g transform="translate(14.798437 230.089119)rotate(-90)scale(0.1 -0.1)">
      <defs>
       <path id="DejaVuSans-25" d="M 4653 2053 
Q 4381 2053 4226 1822 
Q 4072 1591 4072 1178 
Q 4072 772 4226 539 
Q 4381 306 4653 306 
Q 4919 306 5073 539 
Q 5228 772 5228 1178 
Q 5228 1588 5073 1820 
Q 4919 2053 4653 2053 
z
M 4653 2450 
Q 5147 2450 5437 2106 
Q 5728 1763 5728 1178 
Q 5728 594 5436 251 
Q 5144 -91 4653 -91 
Q 4153 -91 3862 251 
Q 3572 594 3572 1178 
Q 3572 1766 3864 2108 
Q 4156 2450 4653 2450 
z
M 1428 4353 
Q 1159 4353 1004 4120 
Q 850 3888 850 3481 
Q 850 3069 1003 2837 
Q 1156 2606 1428 2606 
Q 1700 2606 1854 2837 
Q 2009 3069 2009 3481 
Q 2009 3884 1853 4118 
Q 1697 4353 1428 4353 
z
M 4250 4750 
L 4750 4750 
L 1831 -91 
L 1331 -91 
L 4250 4750 
z
M 1428 4750 
Q 1922 4750 2215 4408 
Q 2509 4066 2509 3481 
Q 2509 2891 2217 2550 
Q 1925 2209 1428 2209 
Q 931 2209 642 2551 
Q 353 2894 353 3481 
Q 353 4063 643 4406 
Q 934 4750 1428 4750 
z
" transform="scale(0.015625)"/>
       <path id="DejaVuSans-4d" d="M 628 4666 
L 1569 4666 
L 2759 1491 
L 3956 4666 
L 4897 4666 
L 4897 0 
L 4281 0 
L 4281 4097 
L 3078 897 
L 2444 897 
L 1241 4097 
L 1241 0 
L 628 0 
L 628 4666 
z
" transform="scale(0.015625)"/>
       <path id="DejaVuSans-65" d="M 3597 1894 
L 3597 1613 
L 953 1613 
Q 991 1019 1311 708 
Q 1631 397 2203 397 
Q 2534 397 2845 478 
Q 3156 559 3463 722 
L 3463 178 
Q 3153 47 2828 -22 
Q 2503 -91 2169 -91 
Q 1331 -91 842 396 
Q 353 884 353 1716 
Q 353 2575 817 3079 
Q 1281 3584 2069 3584 
Q 2775 3584 3186 3129 
Q 3597 2675 3597 1894 
z
M 3022 2063 
Q 3016 2534 2758 2815 
Q 2500 3097 2075 3097 
Q 1594 3097 1305 2825 
Q 1016 2553 972 2059 
L 3022 2063 
z
" transform="scale(0.015625)"/>
       <path id="DejaVuSans-68" d="M 3513 2113 
L 3513 0 
L 2938 0 
L 2938 2094 
Q 2938 2591 2744 2837 
Q 2550 3084 2163 3084 
Q 1697 3084 1428 2787 
Q 1159 2491 1159 1978 
L 1159 0 
L 581 0 
L 581 4863 
L 1159 4863 
L 1159 2956 
Q 1366 3272 1645 3428 
Q 1925 3584 2291 3584 
Q 2894 3584 3203 3211 
Q 3513 2838 3513 2113 
z
" transform="scale(0.015625)"/>
       <path id="DejaVuSans-79" d="M 2059 -325 
Q 1816 -950 1584 -1140 
Q 1353 -1331 966 -1331 
L 506 -1331 
L 506 -850 
L 844 -850 
Q 1081 -850 1212 -737 
Q 1344 -625 1503 -206 
L 1606 56 
L 191 3500 
L 800 3500 
L 1894 763 
L 2988 3500 
L 3597 3500 
L 2059 -325 
z
" transform="scale(0.015625)"/>
       <path id="DejaVuSans-6c" d="M 603 4863 
L 1178 4863 
L 1178 0 
L 603 0 
L 603 4863 
z
" transform="scale(0.015625)"/>
       <path id="DejaVuSans-61" d="M 2194 1759 
Q 1497 1759 1228 1600 
Q 959 1441 959 1056 
Q 959 750 1161 570 
Q 1363 391 1709 391 
Q 2188 391 2477 730 
Q 2766 1069 2766 1631 
L 2766 1759 
L 2194 1759 
z
M 3341 1997 
L 3341 0 
L 2766 0 
L 2766 531 
Q 2569 213 2275 61 
Q 1981 -91 1556 -91 
Q 1019 -91 701 211 
Q 384 513 384 1019 
Q 384 1609 779 1909 
Q 1175 2209 1959 2209 
L 2766 2209 
L 2766 2266 
Q 2766 2663 2505 2880 
Q 2244 3097 1772 3097 
Q 1472 3097 1187 3025 
Q 903 2953 641 2809 
L 641 3341 
Q 956 3463 1253 3523 
Q 1550 3584 1831 3584 
Q 2591 3584 2966 3190 
Q 3341 2797 3341 1997 
z
" transform="scale(0.015625)"/>
      </defs>
      <use xlink:href="#DejaVuSans-25"/>
      <use xlink:href="#DejaVuSans-20" x="95.019531"/>
      <use xlink:href="#DejaVuSans-4d" x="126.806641"/>
      <use xlink:href="#DejaVuSans-65" x="213.085938"/>
      <use xlink:href="#DejaVuSans-74" x="274.609375"/>
      <use xlink:href="#DejaVuSans-68" x="313.818359"/>
      <use xlink:href="#DejaVuSans-79" x="377.197266"/>
      <use xlink:href="#DejaVuSans-6c" x="436.376953"/>
      <use xlink:href="#DejaVuSans-61" x="464.160156"/>
      <use xlink:href="#DejaVuSans-74" x="525.439453"/>
      <use xlink:href="#DejaVuSans-69" x="564.648438"/>
      <use xlink:href="#DejaVuSans-6f" x="592.431641"/>
      <use xlink:href="#DejaVuSans-6e" x="653.613281"/>
     </g>
    </g>
   </g>
   <g id="line2d_7">
    <path d="M 86.326761 221.871319 
L 92.868979 217.101799 
L 99.411197 213.158996 
L 105.953414 209.057209 
L 112.495632 206.322684 
L 119.03785 204.542063 
L 125.580067 204.383079 
L 132.122285 202.793239 
L 138.664502 204.096908 
L 145.20672 202.602458 
L 151.748938 202.697849 
L 158.291155 202.602458 
L 164.833373 202.856833 
L 171.375591 201.39418 
L 177.917808 201.39418 
L 184.460026 199.995121 
L 191.002243 200.408479 
L 197.544461 199.454575 
L 204.086679 200.344886 
L 210.628896 200.885431 
L 217.171114 201.076212 
L 223.713332 200.313089 
L 230.255549 200.59926 
L 236.797767 200.344886 
L 243.339985 201.235196 
L 249.882202 201.616758 
L 256.42442 201.553164 
L 262.966637 200.821838 
L 269.508855 201.648554 
L 276.051073 201.139806 
L 282.59329 201.012618 
L 289.135508 200.59926 
L 295.677726 201.616758 
L 302.219943 200.662854 
L 308.762161 201.012618 
L 321.846596 200.662854 
L 328.388814 201.235196 
L 334.931031 201.616758 
L 341.473249 200.440276 
L 348.015467 199.80434 
L 354.557684 201.044415 
L 361.099902 201.108009 
L 367.642119 200.631057 
L 374.184337 199.867934 
L 380.726555 201.266993 
L 387.268772 200.59926 
L 393.81099 201.934726 
L 400.353208 201.171602 
L 406.895425 200.917228 
L 413.437643 201.266993 
L 419.979861 201.29879 
L 426.522078 201.998319 
L 433.064296 201.902929 
L 439.606513 201.616758 
L 446.148731 201.203399 
L 452.690949 202.125506 
L 459.233166 201.044415 
L 465.775384 201.871132 
L 472.317602 200.662854 
L 478.859819 201.266993 
L 485.402037 201.29879 
L 491.944254 201.521367 
L 498.486472 201.044415 
L 505.02869 201.680351 
L 511.570907 200.249495 
L 524.655343 201.171602 
L 531.19756 201.775742 
L 537.739778 200.567463 
L 544.281996 201.584961 
L 550.824213 200.59926 
L 557.366431 201.521367 
L 563.908648 200.472073 
L 570.450866 200.662854 
L 576.993084 200.440276 
L 583.535301 200.090511 
L 590.077519 200.758244 
L 596.619737 199.867934 
L 603.161954 200.69465 
L 609.704172 200.949025 
L 629.330825 200.726447 
L 635.873042 201.743945 
L 642.41526 201.616758 
L 648.957478 200.249495 
L 655.499695 200.790041 
L 662.041913 201.139806 
L 668.584131 200.154105 
L 675.126348 200.185902 
L 681.668566 200.376682 
L 688.210783 201.330586 
L 694.753001 201.39418 
L 701.295219 201.044415 
L 707.837436 200.249495 
L 714.379654 201.044415 
L 720.921872 200.853634 
L 727.464089 201.680351 
L 734.006307 201.235196 
L 740.548524 201.139806 
L 747.090742 201.775742 
L 753.63296 199.995121 
L 760.175177 201.076212 
L 766.717395 201.235196 
L 773.259613 200.790041 
L 779.80183 201.29879 
L 786.344048 201.266993 
L 792.886265 200.631057 
L 799.428483 200.535666 
L 805.970701 200.249495 
L 812.512918 200.440276 
L 819.055136 200.885431 
L 825.597354 200.249495 
L 832.139571 200.853634 
L 838.681789 200.59926 
L 851.766224 200.408479 
L 858.308442 199.836137 
L 864.850659 200.217698 
L 871.392877 201.076212 
L 877.935095 200.69465 
L 884.477312 199.931527 
L 891.01953 200.662854 
L 897.561748 200.026918 
L 904.103965 199.931527 
L 910.646183 200.376682 
L 917.1884 200.249495 
L 923.730618 200.567463 
L 930.272836 200.249495 
L 936.815053 199.390982 
L 943.357271 197.006222 
L 949.899489 194.430681 
L 949.899489 194.430681 
" clip-path="url(#pc22b0abb9a)" style="fill: none; stroke: #7cb5ec; stroke-linecap: square"/>
   </g>
   <g id="line2d_8">
    <path d="M 86.326761 235.67113 
L 92.868979 231.728327 
L 99.411197 228.32607 
L 105.953414 223.492956 
L 112.495632 221.457961 
L 119.03785 218.88242 
L 132.122285 217.864922 
L 145.20672 218.214687 
L 151.748938 217.19719 
L 158.291155 216.815628 
L 164.833373 217.29258 
L 171.375591 217.515158 
L 177.917808 216.306879 
L 184.460026 215.861724 
L 191.002243 215.543756 
L 197.544461 214.558055 
L 204.086679 215.639146 
L 210.628896 216.370473 
L 217.171114 216.052505 
L 223.713332 214.526258 
L 230.255549 215.321178 
L 236.797767 215.162194 
L 243.339985 216.211489 
L 249.882202 216.752034 
L 256.42442 216.275082 
L 262.966637 215.60735 
L 269.508855 216.40227 
L 276.051073 215.925318 
L 282.59329 216.084302 
L 289.135508 215.480162 
L 295.677726 216.116098 
L 302.219943 214.971414 
L 308.762161 216.40227 
L 315.304378 215.066804 
L 321.846596 215.543756 
L 328.388814 216.370473 
L 334.931031 215.60735 
L 341.473249 215.543756 
L 348.015467 214.81243 
L 354.557684 216.052505 
L 361.099902 216.529457 
L 367.642119 215.480162 
L 374.184337 215.639146 
L 380.726555 215.257585 
L 387.268772 215.193991 
L 393.81099 216.084302 
L 400.353208 216.783831 
L 406.895425 215.60735 
L 413.437643 216.338676 
L 419.979861 216.275082 
L 426.522078 217.356174 
L 439.606513 217.006409 
L 446.148731 216.434066 
L 452.690949 217.133596 
L 459.233166 215.70274 
L 465.775384 216.720238 
L 472.317602 215.670943 
L 478.859819 215.225788 
L 485.402037 216.243286 
L 491.944254 215.925318 
L 498.486472 215.289382 
L 505.02869 215.79813 
L 511.570907 214.90782 
L 518.113125 215.988911 
L 524.655343 216.465863 
L 531.19756 216.720238 
L 537.739778 214.81243 
L 544.281996 215.575553 
L 550.824213 215.289382 
L 557.366431 215.352975 
L 563.908648 215.225788 
L 570.450866 215.734537 
L 576.993084 215.734537 
L 583.535301 214.494462 
L 590.077519 215.734537 
L 596.619737 213.763135 
L 603.161954 215.162194 
L 609.704172 215.352975 
L 616.246389 215.829927 
L 622.788607 216.052505 
L 629.330825 215.829927 
L 635.873042 217.324377 
L 642.41526 216.116098 
L 648.957478 215.543756 
L 655.499695 215.70274 
L 668.584131 215.734537 
L 675.126348 215.130398 
L 681.668566 215.130398 
L 688.210783 215.670943 
L 694.753001 215.957114 
L 701.295219 214.81243 
L 707.837436 214.844226 
L 714.379654 215.766334 
L 720.921872 215.511959 
L 727.464089 216.911018 
L 734.006307 217.133596 
L 740.548524 216.052505 
L 747.090742 215.893521 
L 753.63296 216.211489 
L 760.175177 216.116098 
L 766.717395 215.352975 
L 773.259613 215.321178 
L 779.80183 215.670943 
L 792.886265 215.766334 
L 799.428483 215.130398 
L 805.970701 215.257585 
L 812.512918 215.098601 
L 819.055136 216.116098 
L 825.597354 215.289382 
L 832.139571 215.448366 
L 838.681789 216.59305 
L 845.224007 215.511959 
L 851.766224 215.193991 
L 858.308442 215.861724 
L 864.850659 214.653446 
L 871.392877 215.480162 
L 877.935095 215.066804 
L 884.477312 215.066804 
L 891.01953 215.829927 
L 897.561748 215.00321 
L 904.103965 214.558055 
L 910.646183 216.084302 
L 923.730618 215.734537 
L 936.815053 214.430868 
L 943.357271 211.982514 
L 949.899489 208.071508 
L 949.899489 208.071508 
" clip-path="url(#pc22b0abb9a)" style="fill: none; stroke: #434348; stroke-linecap: square"/>
   </g>
   <g id="line2d_9">
    <path d="M 86.326761 242.63463 
L 99.411197 235.225975 
L 105.953414 229.91591 
L 112.495632 227.594743 
L 119.03785 226.545449 
L 125.580067 224.54225 
L 138.664502 225.496154 
L 145.20672 224.54225 
L 151.748938 223.715534 
L 158.291155 222.602646 
L 164.833373 224.128892 
L 171.375591 223.74733 
L 184.460026 221.775929 
L 191.002243 222.189287 
L 197.544461 221.426164 
L 204.086679 221.903116 
L 210.628896 222.539052 
L 217.171114 222.507255 
L 230.255549 221.426164 
L 236.797767 221.775929 
L 243.339985 222.793426 
L 249.882202 223.397566 
L 256.42442 222.411865 
L 262.966637 221.934913 
L 269.508855 222.95241 
L 276.051073 221.871319 
L 282.59329 222.380068 
L 289.135508 221.394367 
L 295.677726 220.535854 
L 302.219943 221.744132 
L 308.762161 223.174988 
L 315.304378 221.871319 
L 321.846596 220.981009 
L 328.388814 223.779127 
L 334.931031 222.634442 
L 341.473249 221.807726 
L 348.015467 221.871319 
L 354.557684 223.620143 
L 361.099902 222.0621 
L 367.642119 221.553351 
L 374.184337 221.235383 
L 380.726555 222.0621 
L 387.268772 222.348271 
L 393.81099 221.553351 
L 400.353208 221.489758 
L 406.895425 222.666239 
L 413.437643 224.001705 
L 419.979861 225.082796 
L 426.522078 224.065298 
L 433.064296 224.923812 
L 439.606513 223.016004 
L 446.148731 223.969908 
L 452.690949 223.683737 
L 459.233166 221.903116 
L 465.775384 223.461159 
L 472.317602 222.348271 
L 478.859819 223.047801 
L 485.402037 222.920614 
L 491.944254 222.348271 
L 498.486472 223.016004 
L 505.02869 223.238582 
L 511.570907 222.189287 
L 518.113125 223.429362 
L 524.655343 222.443662 
L 531.19756 223.174988 
L 537.739778 222.602646 
L 544.281996 222.634442 
L 550.824213 222.316474 
L 557.366431 222.539052 
L 563.908648 223.270378 
L 570.450866 222.093897 
L 576.993084 222.316474 
L 583.535301 222.825223 
L 590.077519 221.998506 
L 596.619737 220.726634 
L 603.161954 222.698036 
L 609.704172 224.35147 
L 616.246389 224.478657 
L 622.788607 223.779127 
L 629.330825 223.620143 
L 635.873042 225.432561 
L 642.41526 225.464358 
L 648.957478 222.920614 
L 655.499695 224.160689 
L 662.041913 224.033502 
L 668.584131 222.539052 
L 675.126348 222.539052 
L 681.668566 221.934913 
L 688.210783 223.492956 
L 694.753001 224.160689 
L 701.295219 222.284678 
L 707.837436 223.842721 
L 714.379654 224.796625 
L 720.921872 223.74733 
L 734.006307 226.895214 
L 740.548524 223.969908 
L 747.090742 224.701234 
L 753.63296 222.95241 
L 760.175177 224.637641 
L 766.717395 224.001705 
L 773.259613 223.524753 
L 792.886265 225.14639 
L 799.428483 223.429362 
L 805.970701 222.793426 
L 812.512918 224.160689 
L 819.055136 225.273577 
L 825.597354 224.097095 
L 832.139571 226.0367 
L 838.681789 227.181385 
L 845.224007 224.256079 
L 851.766224 223.906314 
L 858.308442 224.54225 
L 864.850659 224.224282 
L 871.392877 224.574047 
L 877.935095 225.273577 
L 884.477312 224.764828 
L 891.01953 225.623342 
L 897.561748 224.574047 
L 904.103965 225.209983 
L 910.646183 225.178186 
L 917.1884 226.672636 
L 923.730618 223.969908 
L 936.815053 225.273577 
L 943.357271 223.111394 
L 949.899489 217.960313 
L 949.899489 217.960313 
" clip-path="url(#pc22b0abb9a)" style="fill: none; stroke: #90ed7d; stroke-linecap: square"/>
   </g>
   <g id="line2d_10">
    <path d="M 86.326761 258.660217 
L 92.868979 255.607724 
L 99.411197 253.890697 
L 105.953414 250.711017 
L 112.495632 247.276962 
L 119.03785 245.559935 
L 125.580067 246.418449 
L 132.122285 245.528138 
L 138.664502 248.29446 
L 145.20672 246.227668 
L 151.748938 246.450246 
L 158.291155 244.478844 
L 164.833373 245.973294 
L 171.375591 246.450246 
L 177.917808 243.556737 
L 184.460026 242.539239 
L 191.002243 240.663228 
L 197.544461 241.267367 
L 204.086679 241.267367 
L 210.628896 241.807913 
L 217.171114 237.610735 
L 223.713332 239.423153 
L 230.255549 239.391356 
L 236.797767 238.977998 
L 243.339985 238.310265 
L 249.882202 241.362758 
L 256.42442 238.246671 
L 262.966637 236.752222 
L 269.508855 240.218073 
L 276.051073 236.784018 
L 282.59329 236.974799 
L 289.135508 234.431055 
L 295.677726 234.272071 
L 308.762161 235.607537 
L 315.304378 235.766521 
L 321.846596 236.052692 
L 328.388814 236.46605 
L 341.473249 235.321366 
L 348.015467 236.338863 
L 354.557684 235.543943 
L 361.099902 236.561441 
L 367.642119 234.335665 
L 374.184337 234.113087 
L 380.726555 235.830114 
L 387.268772 237.356361 
L 393.81099 236.243473 
L 400.353208 234.68543 
L 406.895425 234.939804 
L 413.437643 237.292767 
L 419.979861 237.642532 
L 426.522078 235.861911 
L 433.064296 239.613934 
L 439.606513 237.229174 
L 446.148731 236.974799 
L 452.690949 237.006596 
L 459.233166 235.035194 
L 465.775384 238.723623 
L 472.317602 235.798318 
L 478.859819 236.27527 
L 485.402037 237.07019 
L 491.944254 235.512146 
L 498.486472 234.558242 
L 505.02869 236.020895 
L 511.570907 236.847612 
L 518.113125 238.75542 
L 524.655343 235.003398 
L 531.19756 237.578938 
L 537.739778 234.812617 
L 544.281996 237.101986 
L 550.824213 235.512146 
L 557.366431 235.989098 
L 563.908648 236.020895 
L 570.450866 236.847612 
L 576.993084 234.717226 
L 583.535301 233.604338 
L 590.077519 237.26097 
L 596.619737 235.67113 
L 603.161954 236.46605 
L 609.704172 237.928703 
L 616.246389 235.257772 
L 622.788607 238.05589 
L 629.330825 236.27527 
L 635.873042 240.854009 
L 642.41526 236.911206 
L 648.957478 238.501046 
L 655.499695 239.677527 
L 662.041913 238.024094 
L 668.584131 234.971601 
L 675.126348 235.57574 
L 688.210783 237.706126 
L 694.753001 237.896906 
L 701.295219 235.766521 
L 707.837436 237.101986 
L 714.379654 237.642532 
L 720.921872 238.564639 
L 727.464089 239.009794 
L 734.006307 241.299164 
L 740.548524 237.9605 
L 747.090742 237.515345 
L 753.63296 237.642532 
L 760.175177 237.547142 
L 766.717395 237.229174 
L 773.259613 237.419954 
L 779.80183 238.501046 
L 786.344048 235.798318 
L 792.886265 239.232372 
L 799.428483 236.243473 
L 805.970701 237.26097 
L 812.512918 236.784018 
L 819.055136 237.547142 
L 825.597354 239.582137 
L 832.139571 239.041591 
L 838.681789 239.55034 
L 845.224007 237.86511 
L 851.766224 237.578938 
L 858.308442 235.957302 
L 864.850659 237.9605 
L 871.392877 237.229174 
L 877.935095 239.868308 
L 884.477312 237.006596 
L 891.01953 239.391356 
L 897.561748 236.784018 
L 904.103965 239.741121 
L 910.646183 237.451751 
L 917.1884 239.582137 
L 923.730618 236.752222 
L 930.272836 239.900105 
L 936.815053 236.084489 
L 943.357271 235.989098 
L 949.899489 232.046295 
L 949.899489 232.046295 
" clip-path="url(#pc22b0abb9a)" style="fill: none; stroke: #f7a35c; stroke-linecap: square"/>
   </g>
   <g id="line2d_11">
    <path d="M 86.326761 264.574422 
L 92.868979 260.027479 
L 99.411197 259.486934 
L 105.953414 254.494836 
L 112.495632 254.145071 
L 119.03785 253.095777 
L 132.122285 250.711017 
L 138.664502 253.636322 
L 145.20672 253.350151 
L 151.748938 252.650622 
L 158.291155 249.629926 
L 164.833373 252.046482 
L 171.375591 249.121177 
L 177.917808 247.435946 
L 184.460026 246.895401 
L 191.002243 245.846106 
L 197.544461 244.41525 
L 204.086679 245.082983 
L 210.628896 243.270566 
L 217.171114 242.03049 
L 223.713332 241.23557 
L 230.255549 241.807913 
L 236.797767 240.885806 
L 243.339985 242.221271 
L 249.882202 242.889004 
L 256.42442 240.218073 
L 262.966637 240.122682 
L 269.508855 241.171977 
L 276.051073 238.214874 
L 282.59329 237.928703 
L 289.135508 236.879409 
L 295.677726 237.928703 
L 302.219943 238.787217 
L 308.762161 240.377057 
L 315.304378 238.85081 
L 321.846596 237.610735 
L 328.388814 240.059089 
L 334.931031 237.992297 
L 341.473249 237.928703 
L 348.015467 236.402457 
L 354.557684 237.769719 
L 361.099902 238.564639 
L 367.642119 237.229174 
L 374.184337 236.211676 
L 380.726555 236.847612 
L 387.268772 236.625034 
L 393.81099 235.893708 
L 400.353208 234.240274 
L 406.895425 237.674329 
L 413.437643 236.561441 
L 419.979861 239.232372 
L 426.522078 238.628233 
L 433.064296 236.211676 
L 439.606513 237.896906 
L 446.148731 238.342062 
L 452.690949 238.469249 
L 459.233166 236.625034 
L 465.775384 239.359559 
L 472.317602 236.307066 
L 478.859819 237.737922 
L 485.402037 239.900105 
L 491.944254 238.05589 
L 498.486472 236.529644 
L 505.02869 239.677527 
L 511.570907 237.610735 
L 518.113125 237.451751 
L 524.655343 235.57574 
L 531.19756 237.610735 
L 537.739778 237.038393 
L 544.281996 236.179879 
L 550.824213 236.243473 
L 557.366431 237.388158 
L 563.908648 236.974799 
L 570.450866 236.402457 
L 576.993084 235.353162 
L 583.535301 236.943002 
L 590.077519 237.642532 
L 596.619737 237.706126 
L 603.161954 238.437452 
L 609.704172 235.861911 
L 616.246389 237.833313 
L 622.788607 239.009794 
L 629.330825 237.229174 
L 635.873042 240.090886 
L 642.41526 238.819014 
L 648.957478 239.264169 
L 655.499695 238.564639 
L 662.041913 236.211676 
L 668.584131 235.035194 
L 675.126348 238.532842 
L 681.668566 238.214874 
L 688.210783 238.05589 
L 694.753001 238.66003 
L 701.295219 235.543943 
L 707.837436 238.437452 
L 714.379654 239.613934 
L 720.921872 236.784018 
L 727.464089 239.105185 
L 734.006307 238.596436 
L 740.548524 238.787217 
L 747.090742 237.769719 
L 753.63296 236.243473 
L 760.175177 236.243473 
L 766.717395 236.593238 
L 773.259613 237.86511 
L 779.80183 240.059089 
L 786.344048 235.893708 
L 792.886265 237.419954 
L 799.428483 236.46605 
L 805.970701 235.639334 
L 812.512918 236.529644 
L 819.055136 240.472447 
L 825.597354 236.211676 
L 832.139571 237.674329 
L 838.681789 240.408854 
L 845.224007 236.307066 
L 851.766224 239.868308 
L 858.308442 238.119484 
L 864.850659 237.16558 
L 871.392877 238.564639 
L 884.477312 237.896906 
L 891.01953 240.154479 
L 897.561748 240.090886 
L 904.103965 238.246671 
L 910.646183 239.518543 
L 917.1884 239.55034 
L 923.730618 238.469249 
L 930.272836 238.75542 
L 936.815053 238.405655 
L 943.357271 238.691826 
L 949.899489 230.074894 
L 949.899489 230.074894 
" clip-path="url(#pc22b0abb9a)" style="fill: none; stroke: #8085e9; stroke-linecap: square"/>
   </g>
   <g id="line2d_12">
    <path d="M 86.326761 236.243473 
L 92.868979 232.237076 
L 99.411197 229.534348 
L 105.953414 223.810924 
L 112.495632 221.807726 
L 119.03785 219.232185 
L 125.580067 219.868121 
L 132.122285 218.691639 
L 138.664502 220.345073 
L 145.20672 218.469062 
L 151.748938 218.341874 
L 158.291155 216.40227 
L 164.833373 217.165393 
L 171.375591 216.338676 
L 177.917808 215.289382 
L 184.460026 214.971414 
L 197.544461 213.667745 
L 204.086679 214.081103 
L 210.628896 215.225788 
L 217.171114 215.162194 
L 223.713332 214.367274 
L 230.255549 215.60735 
L 236.797767 213.22259 
L 243.339985 215.448366 
L 249.882202 215.79813 
L 256.42442 215.066804 
L 262.966637 213.985713 
L 269.508855 217.006409 
L 276.051073 214.01751 
L 282.59329 214.271884 
L 289.135508 212.809231 
L 295.677726 214.653446 
L 302.219943 214.176494 
L 308.762161 215.130398 
L 315.304378 214.240087 
L 321.846596 214.303681 
L 328.388814 215.00321 
L 334.931031 215.829927 
L 341.473249 213.794932 
L 348.015467 215.321178 
L 354.557684 215.639146 
L 361.099902 214.399071 
L 367.642119 214.367274 
L 374.184337 214.717039 
L 380.726555 216.752034 
L 387.268772 215.130398 
L 393.81099 214.049306 
L 400.353208 214.081103 
L 406.895425 213.699542 
L 413.437643 215.384772 
L 419.979861 216.306879 
L 426.522078 216.116098 
L 433.064296 217.419767 
L 439.606513 215.575553 
L 446.148731 214.717039 
L 452.690949 216.020708 
L 459.233166 214.717039 
L 465.775384 216.720238 
L 472.317602 214.399071 
L 478.859819 214.971414 
L 485.402037 214.589852 
L 491.944254 214.939617 
L 498.486472 214.90782 
L 505.02869 215.066804 
L 511.570907 214.049306 
L 518.113125 215.448366 
L 524.655343 216.306879 
L 531.19756 215.321178 
L 537.739778 213.731338 
L 544.281996 215.225788 
L 550.824213 214.081103 
L 557.366431 214.367274 
L 563.908648 215.162194 
L 570.450866 214.81243 
L 576.993084 213.890322 
L 583.535301 213.953916 
L 590.077519 214.589852 
L 596.619737 213.127199 
L 603.161954 216.020708 
L 609.704172 215.957114 
L 616.246389 215.670943 
L 622.788607 217.705938 
L 629.330825 216.275082 
L 635.873042 217.928516 
L 642.41526 216.084302 
L 648.957478 215.352975 
L 655.499695 216.59305 
L 662.041913 217.228986 
L 668.584131 215.225788 
L 675.126348 214.558055 
L 681.668566 215.098601 
L 688.210783 216.656644 
L 701.295219 216.40227 
L 707.837436 217.133596 
L 714.379654 215.893521 
L 720.921872 216.40227 
L 727.464089 217.19719 
L 734.006307 217.642345 
L 740.548524 216.974612 
L 747.090742 215.766334 
L 753.63296 214.844226 
L 760.175177 216.974612 
L 766.717395 217.515158 
L 773.259613 216.752034 
L 779.80183 217.451564 
L 786.344048 216.179692 
L 792.886265 217.006409 
L 799.428483 217.451564 
L 805.970701 215.448366 
L 812.512918 215.734537 
L 819.055136 217.99211 
L 825.597354 216.370473 
L 832.139571 217.356174 
L 838.681789 218.0875 
L 845.224007 215.352975 
L 851.766224 217.038206 
L 858.308442 216.59305 
L 864.850659 217.133596 
L 871.392877 216.052505 
L 877.935095 217.833126 
L 884.477312 216.688441 
L 891.01953 217.578751 
L 897.561748 217.19719 
L 904.103965 215.70274 
L 910.646183 216.911018 
L 917.1884 217.483361 
L 923.730618 217.101799 
L 930.272836 216.211489 
L 936.815053 217.19719 
L 943.357271 214.176494 
L 949.899489 210.93322 
L 949.899489 210.93322 
" clip-path="url(#pc22b0abb9a)" style="fill: none; stroke: #f15c80; stroke-linecap: square"/>
   </g>
   <g id="line2d_13">
    <path d="M 86.326761 240.34526 
L 92.868979 237.896906 
L 105.953414 228.898412 
L 112.495632 226.163887 
L 119.03785 224.605844 
L 132.122285 222.093897 
L 138.664502 223.238582 
L 145.20672 223.270378 
L 151.748938 221.585148 
L 158.291155 221.108196 
L 164.833373 222.252881 
L 171.375591 221.012806 
L 177.917808 221.17179 
L 184.460026 219.963511 
L 191.002243 221.553351 
L 197.544461 219.073201 
L 204.086679 221.26718 
L 210.628896 220.440463 
L 217.171114 220.663041 
L 223.713332 221.585148 
L 230.255549 220.122495 
L 236.797767 219.295778 
L 243.339985 221.680538 
L 249.882202 220.981009 
L 256.42442 221.36257 
L 262.966637 219.868121 
L 269.508855 220.027105 
L 276.051073 219.67734 
L 282.59329 220.154292 
L 289.135508 219.931714 
L 295.677726 220.122495 
L 302.219943 219.518356 
L 308.762161 221.585148 
L 315.304378 219.200388 
L 321.846596 221.108196 
L 328.388814 221.076399 
L 354.557684 219.327575 
L 361.099902 222.15749 
L 367.642119 220.313276 
L 374.184337 219.136794 
L 380.726555 220.663041 
L 387.268772 220.535854 
L 393.81099 220.186089 
L 400.353208 221.903116 
L 406.895425 219.327575 
L 413.437643 220.663041 
L 419.979861 221.553351 
L 426.522078 222.15749 
L 433.064296 221.012806 
L 439.606513 220.47226 
L 446.148731 221.998506 
L 452.690949 221.903116 
L 459.233166 219.740934 
L 465.775384 222.0621 
L 472.317602 220.885618 
L 478.859819 220.758431 
L 485.402037 220.822025 
L 491.944254 221.044602 
L 498.486472 220.822025 
L 505.02869 221.139993 
L 511.570907 220.949212 
L 518.113125 221.139993 
L 524.655343 221.712335 
L 531.19756 221.012806 
L 537.739778 220.504057 
L 544.281996 221.394367 
L 550.824213 220.47226 
L 557.366431 222.729833 
L 563.908648 221.934913 
L 570.450866 220.853822 
L 576.993084 219.454762 
L 590.077519 220.853822 
L 596.619737 220.313276 
L 603.161954 220.281479 
L 609.704172 222.316474 
L 616.246389 222.15749 
L 622.788607 221.712335 
L 629.330825 221.457961 
L 635.873042 223.906314 
L 642.41526 222.0621 
L 648.957478 222.15749 
L 655.499695 222.920614 
L 662.041913 219.963511 
L 668.584131 220.599447 
L 675.126348 221.521554 
L 681.668566 220.949212 
L 688.210783 220.249682 
L 694.753001 222.85702 
L 701.295219 221.36257 
L 707.837436 222.189287 
L 714.379654 221.998506 
L 720.921872 220.535854 
L 727.464089 222.95241 
L 734.006307 223.270378 
L 740.548524 224.605844 
L 747.090742 222.602646 
L 753.63296 223.143191 
L 760.175177 221.108196 
L 766.717395 222.221084 
L 773.259613 221.616945 
L 779.80183 222.125694 
L 786.344048 222.0621 
L 799.428483 223.174988 
L 805.970701 223.302175 
L 812.512918 222.888817 
L 819.055136 223.779127 
L 825.597354 222.634442 
L 832.139571 222.984207 
L 838.681789 223.683737 
L 845.224007 221.521554 
L 851.766224 222.666239 
L 858.308442 220.535854 
L 864.850659 222.634442 
L 871.392877 223.238582 
L 877.935095 224.574047 
L 884.477312 221.616945 
L 891.01953 223.683737 
L 897.561748 222.85702 
L 904.103965 221.903116 
L 910.646183 223.779127 
L 917.1884 223.683737 
L 923.730618 224.54225 
L 930.272836 223.588346 
L 936.815053 221.775929 
L 943.357271 221.807726 
L 949.899489 216.179692 
L 949.899489 216.179692 
" clip-path="url(#pc22b0abb9a)" style="fill: none; stroke: #e4d354; stroke-linecap: square"/>
   </g>
   <g id="line2d_14">
    <path d="M 86.326761 236.688628 
L 92.868979 233.795119 
L 99.411197 229.820519 
L 105.953414 225.368967 
L 112.495632 223.524753 
L 119.03785 220.981009 
L 125.580067 219.613746 
L 132.122285 219.041404 
L 138.664502 220.47226 
L 145.20672 219.009607 
L 151.748938 217.896719 
L 158.291155 218.18289 
L 164.833373 218.88242 
L 171.375591 216.688441 
L 177.917808 216.752034 
L 184.460026 216.116098 
L 191.002243 216.529457 
L 197.544461 215.066804 
L 204.086679 216.434066 
L 210.628896 217.451564 
L 223.713332 215.670943 
L 230.255549 215.861724 
L 236.797767 215.734537 
L 243.339985 217.578751 
L 249.882202 216.783831 
L 262.966637 216.052505 
L 276.051073 216.59305 
L 282.59329 216.052505 
L 289.135508 215.225788 
L 295.677726 216.147895 
L 302.219943 216.370473 
L 308.762161 216.879222 
L 315.304378 215.988911 
L 321.846596 215.448366 
L 334.931031 217.483361 
L 341.473249 215.639146 
L 348.015467 215.162194 
L 354.557684 215.988911 
L 361.099902 217.070002 
L 367.642119 215.70274 
L 374.184337 215.639146 
L 380.726555 217.038206 
L 387.268772 216.020708 
L 393.81099 216.783831 
L 400.353208 216.40227 
L 406.895425 214.844226 
L 413.437643 217.070002 
L 419.979861 216.561254 
L 426.522078 216.911018 
L 433.064296 217.801329 
L 439.606513 216.370473 
L 446.148731 217.483361 
L 452.690949 217.419767 
L 459.233166 215.861724 
L 465.775384 217.546954 
L 472.317602 215.639146 
L 478.859819 216.911018 
L 485.402037 216.688441 
L 491.944254 216.974612 
L 498.486472 216.434066 
L 505.02869 216.084302 
L 511.570907 214.876023 
L 518.113125 217.356174 
L 524.655343 215.79813 
L 531.19756 216.847425 
L 537.739778 216.370473 
L 544.281996 216.942815 
L 550.824213 215.130398 
L 557.366431 216.147895 
L 563.908648 216.974612 
L 576.993084 215.861724 
L 583.535301 215.066804 
L 590.077519 216.815628 
L 596.619737 216.338676 
L 603.161954 217.038206 
L 609.704172 217.19719 
L 616.246389 216.688441 
L 622.788607 218.755233 
L 629.330825 217.483361 
L 635.873042 219.327575 
L 642.41526 218.246484 
L 648.957478 216.942815 
L 655.499695 217.864922 
L 662.041913 217.705938 
L 668.584131 216.338676 
L 675.126348 217.070002 
L 681.668566 216.942815 
L 688.210783 216.688441 
L 694.753001 217.610548 
L 701.295219 216.561254 
L 707.837436 217.38797 
L 714.379654 217.419767 
L 720.921872 216.847425 
L 727.464089 218.310078 
L 734.006307 217.769532 
L 740.548524 217.006409 
L 747.090742 217.801329 
L 753.63296 215.321178 
L 760.175177 217.006409 
L 766.717395 217.674142 
L 773.259613 216.275082 
L 779.80183 217.99211 
L 786.344048 217.674142 
L 792.886265 219.073201 
L 799.428483 217.324377 
L 805.970701 216.306879 
L 812.512918 218.755233 
L 819.055136 217.801329 
L 825.597354 218.214687 
L 832.139571 217.896719 
L 838.681789 218.119297 
L 845.224007 216.720238 
L 851.766224 217.515158 
L 858.308442 217.674142 
L 864.850659 217.19719 
L 877.935095 219.009607 
L 884.477312 217.19719 
L 891.01953 216.911018 
L 897.561748 217.515158 
L 904.103965 216.752034 
L 910.646183 218.564452 
L 917.1884 217.801329 
L 923.730618 216.370473 
L 930.272836 217.546954 
L 936.815053 217.165393 
L 943.357271 216.465863 
L 949.899489 208.039711 
L 949.899489 208.039711 
" clip-path="url(#pc22b0abb9a)" style="fill: none; stroke: #2b908f; stroke-linecap: square"/>
   </g>
   <g id="line2d_15">
    <path d="M 86.326761 221.426164 
L 92.868979 217.515158 
L 99.411197 213.063606 
L 105.953414 208.993615 
L 112.495632 205.845732 
L 119.03785 203.206598 
L 125.580067 203.460972 
L 132.122285 202.157303 
L 138.664502 202.697849 
L 151.748938 201.934726 
L 158.291155 201.39418 
L 164.833373 202.411678 
L 171.375591 201.266993 
L 177.917808 200.69465 
L 184.460026 198.341687 
L 191.002243 200.281292 
L 197.544461 198.596062 
L 204.086679 200.090511 
L 210.628896 200.472073 
L 230.255549 199.995121 
L 236.797767 198.659655 
L 243.339985 199.581762 
L 249.882202 200.917228 
L 256.42442 201.076212 
L 262.966637 200.440276 
L 269.508855 201.171602 
L 276.051073 199.89973 
L 282.59329 198.977623 
L 295.677726 199.136607 
L 302.219943 200.313089 
L 308.762161 200.821838 
L 315.304378 200.408479 
L 321.846596 199.549966 
L 328.388814 200.758244 
L 334.931031 200.631057 
L 341.473249 200.313089 
L 348.015467 200.50387 
L 354.557684 201.48957 
L 361.099902 200.058714 
L 367.642119 198.373484 
L 374.184337 199.041217 
L 380.726555 200.058714 
L 387.268772 200.631057 
L 393.81099 199.549966 
L 400.353208 199.359185 
L 406.895425 200.726447 
L 413.437643 201.553164 
L 419.979861 200.185902 
L 426.522078 201.044415 
L 433.064296 200.408479 
L 439.606513 202.379881 
L 446.148731 201.330586 
L 452.690949 200.885431 
L 459.233166 200.026918 
L 465.775384 202.030116 
L 472.317602 200.980822 
L 478.859819 200.662854 
L 485.402037 201.39418 
L 491.944254 199.772543 
L 498.486472 200.885431 
L 505.02869 199.931527 
L 518.113125 200.59926 
L 524.655343 201.266993 
L 531.19756 200.472073 
L 537.739778 199.518169 
L 544.281996 200.59926 
L 550.824213 200.726447 
L 557.366431 200.217698 
L 563.908648 201.584961 
L 570.450866 200.821838 
L 576.993084 199.200201 
L 583.535301 199.454575 
L 590.077519 199.867934 
L 596.619737 199.263794 
L 603.161954 201.457774 
L 609.704172 202.220897 
L 616.246389 201.616758 
L 622.788607 202.761442 
L 629.330825 201.839335 
L 635.873042 203.524566 
L 642.41526 203.333785 
L 648.957478 201.171602 
L 655.499695 202.475271 
L 662.041913 201.457774 
L 681.668566 200.631057 
L 688.210783 201.362383 
L 694.753001 202.252694 
L 701.295219 202.443474 
L 707.837436 202.125506 
L 714.379654 202.475271 
L 720.921872 202.697849 
L 727.464089 201.680351 
L 734.006307 203.301988 
L 740.548524 203.047614 
L 747.090742 200.440276 
L 760.175177 202.507068 
L 766.717395 202.538865 
L 773.259613 201.521367 
L 779.80183 202.507068 
L 786.344048 202.379881 
L 792.886265 202.793239 
L 799.428483 201.902929 
L 805.970701 202.697849 
L 812.512918 202.1891 
L 819.055136 202.1891 
L 825.597354 202.507068 
L 832.139571 202.316287 
L 838.681789 202.348084 
L 845.224007 202.825036 
L 851.766224 204.128705 
L 858.308442 202.348084 
L 864.850659 203.07941 
L 871.392877 202.761442 
L 877.935095 201.807538 
L 884.477312 203.143004 
L 891.01953 204.096908 
L 897.561748 203.460972 
L 904.103965 201.966522 
L 910.646183 204.033314 
L 917.1884 203.015817 
L 923.730618 202.507068 
L 930.272836 204.319486 
L 936.815053 202.697849 
L 943.357271 200.949025 
L 949.899489 196.783644 
L 949.899489 196.783644 
" clip-path="url(#pc22b0abb9a)" style="fill: none; stroke: #f45b5b; stroke-linecap: square"/>
   </g>
   <g id="line2d_16">
    <path d="M 86.326761 235.194178 
L 92.868979 232.30067 
L 99.411197 227.944508 
L 105.953414 224.192486 
L 112.495632 221.871319 
L 119.03785 219.104998 
L 125.580067 217.610548 
L 132.122285 217.133596 
L 138.664502 218.596249 
L 145.20672 217.546954 
L 158.291155 216.338676 
L 164.833373 216.624847 
L 171.375591 215.066804 
L 177.917808 216.052505 
L 184.460026 213.095402 
L 191.002243 214.717039 
L 197.544461 212.713841 
L 204.086679 215.861724 
L 217.171114 213.953916 
L 223.713332 214.01751 
L 230.255549 213.890322 
L 236.797767 212.872825 
L 243.339985 214.780633 
L 249.882202 214.780633 
L 256.42442 215.70274 
L 262.966637 213.286183 
L 269.508855 214.844226 
L 276.051073 215.066804 
L 282.59329 214.144697 
L 295.677726 213.731338 
L 302.219943 213.858526 
L 308.762161 214.430868 
L 315.304378 214.1129 
L 321.846596 213.953916 
L 334.931031 214.748836 
L 341.473249 213.572354 
L 348.015467 213.922119 
L 354.557684 215.257585 
L 361.099902 214.367274 
L 367.642119 213.922119 
L 374.184337 213.063606 
L 380.726555 214.494462 
L 387.268772 214.271884 
L 393.81099 214.558055 
L 400.353208 214.335478 
L 406.895425 213.572354 
L 413.437643 214.90782 
L 419.979861 216.370473 
L 426.522078 214.971414 
L 433.064296 215.193991 
L 439.606513 216.084302 
L 446.148731 216.084302 
L 452.690949 214.939617 
L 459.233166 214.1129 
L 465.775384 215.448366 
L 478.859819 214.717039 
L 485.402037 213.763135 
L 491.944254 214.176494 
L 498.486472 215.035007 
L 505.02869 214.748836 
L 511.570907 215.575553 
L 518.113125 214.90782 
L 524.655343 215.861724 
L 531.19756 214.876023 
L 537.739778 212.554857 
L 544.281996 215.098601 
L 550.824213 215.00321 
L 557.366431 214.621649 
L 563.908648 215.193991 
L 570.450866 214.144697 
L 576.993084 214.462665 
L 583.535301 213.858526 
L 590.077519 214.81243 
L 596.619737 213.445167 
L 603.161954 215.511959 
L 609.704172 216.211489 
L 616.246389 214.748836 
L 622.788607 216.688441 
L 629.330825 215.670943 
L 635.873042 217.610548 
L 642.41526 215.257585 
L 648.957478 214.90782 
L 655.499695 217.29258 
L 662.041913 215.130398 
L 668.584131 214.20829 
L 675.126348 214.780633 
L 681.668566 214.494462 
L 688.210783 214.399071 
L 694.753001 216.179692 
L 701.295219 214.748836 
L 707.837436 215.925318 
L 720.921872 214.939617 
L 727.464089 216.338676 
L 734.006307 217.133596 
L 740.548524 215.893521 
L 747.090742 214.303681 
L 753.63296 215.861724 
L 760.175177 215.289382 
L 766.717395 216.370473 
L 773.259613 214.271884 
L 779.80183 216.688441 
L 786.344048 215.480162 
L 792.886265 215.925318 
L 799.428483 216.624847 
L 805.970701 214.748836 
L 812.512918 215.480162 
L 819.055136 217.324377 
L 825.597354 216.40227 
L 832.139571 218.151094 
L 838.681789 217.896719 
L 845.224007 216.40227 
L 851.766224 216.720238 
L 858.308442 216.338676 
L 864.850659 216.49766 
L 871.392877 215.70274 
L 877.935095 216.752034 
L 884.477312 217.070002 
L 891.01953 217.133596 
L 897.561748 217.38797 
L 904.103965 215.988911 
L 910.646183 217.769532 
L 917.1884 215.543756 
L 923.730618 216.847425 
L 930.272836 217.578751 
L 936.815053 215.639146 
L 943.357271 216.116098 
L 949.899489 209.025412 
L 949.899489 209.025412 
" clip-path="url(#pc22b0abb9a)" style="fill: none; stroke: #91e8e1; stroke-linecap: square"/>
   </g>
   <g id="line2d_17">
    <path d="M 86.326761 250.58383 
L 92.868979 247.213369 
L 99.411197 244.637828 
L 105.953414 238.85081 
L 112.495632 237.006596 
L 119.03785 234.971601 
L 132.122285 233.699729 
L 138.664502 234.653633 
L 145.20672 233.572542 
L 151.748938 232.873012 
L 158.291155 232.014498 
L 164.833373 233.604338 
L 171.375591 233.349964 
L 177.917808 232.459654 
L 184.460026 232.268873 
L 191.002243 230.0113 
L 197.544461 230.965204 
L 204.086679 231.473953 
L 210.628896 232.332466 
L 217.171114 231.092391 
L 223.713332 231.283172 
L 236.797767 230.361065 
L 243.339985 231.219578 
L 249.882202 232.205279 
L 262.966637 230.647236 
L 269.508855 231.50575 
L 276.051073 230.774423 
L 282.59329 231.569343 
L 289.135508 230.10669 
L 295.677726 229.788722 
L 302.219943 230.361065 
L 308.762161 231.632937 
L 315.304378 230.615439 
L 321.846596 230.233878 
L 328.388814 231.060594 
L 334.931031 231.378562 
L 341.473249 230.488252 
L 348.015467 230.265674 
L 354.557684 232.39606 
L 361.099902 231.632937 
L 367.642119 230.297471 
L 374.184337 230.265674 
L 380.726555 231.378562 
L 387.268772 231.410359 
L 393.81099 230.774423 
L 400.353208 230.774423 
L 406.895425 231.219578 
L 413.437643 232.39606 
L 419.979861 232.745825 
L 426.522078 231.887311 
L 433.064296 232.173482 
L 439.606513 231.950905 
L 446.148731 233.000199 
L 452.690949 232.109889 
L 459.233166 230.202081 
L 465.775384 233.254574 
L 472.317602 231.155985 
L 478.859819 231.919108 
L 485.402037 232.364263 
L 491.944254 231.219578 
L 498.486472 230.424658 
L 505.02869 231.283172 
L 511.570907 230.71083 
L 518.113125 232.078092 
L 524.655343 232.30067 
L 531.19756 230.202081 
L 537.739778 230.551846 
L 544.281996 231.982702 
L 550.824213 231.283172 
L 557.366431 230.774423 
L 563.908648 231.50575 
L 570.450866 230.774423 
L 576.993084 230.551846 
L 590.077519 231.378562 
L 603.161954 230.933407 
L 609.704172 232.555044 
L 616.246389 231.855514 
L 622.788607 232.459654 
L 629.330825 231.855514 
L 635.873042 235.035194 
L 642.41526 232.523247 
L 648.957478 231.346766 
L 655.499695 232.841215 
L 662.041913 231.982702 
L 668.584131 230.679033 
L 675.126348 232.014498 
L 681.668566 231.283172 
L 688.210783 231.251375 
L 694.753001 234.017697 
L 701.295219 232.364263 
L 707.837436 231.442156 
L 714.379654 232.30067 
L 720.921872 232.427857 
L 727.464089 231.632937 
L 734.006307 234.939804 
L 740.548524 233.508948 
L 747.090742 231.378562 
L 753.63296 231.219578 
L 760.175177 231.187782 
L 766.717395 232.109889 
L 773.259613 231.346766 
L 779.80183 232.682231 
L 786.344048 231.060594 
L 792.886265 233.477151 
L 799.428483 231.092391 
L 805.970701 230.742626 
L 812.512918 231.569343 
L 819.055136 231.887311 
L 832.139571 233.636135 
L 838.681789 233.731526 
L 845.224007 233.159183 
L 851.766224 232.841215 
L 858.308442 231.919108 
L 864.850659 232.618638 
L 871.392877 232.268873 
L 877.935095 233.667932 
L 884.477312 232.237076 
L 891.01953 231.982702 
L 897.561748 233.381761 
L 904.103965 231.314969 
L 910.646183 231.823718 
L 917.1884 231.982702 
L 923.730618 231.632937 
L 930.272836 232.809418 
L 936.815053 232.141686 
L 943.357271 231.791921 
L 949.899489 224.383266 
L 949.899489 224.383266 
" clip-path="url(#pc22b0abb9a)" style="fill: none; stroke: #7cb5ec; stroke-linecap: square"/>
   </g>
   <g id="line2d_18">
    <path d="M 86.326761 239.741121 
L 92.868979 237.483548 
L 99.411197 233.349964 
L 105.953414 228.198882 
L 119.03785 223.906314 
L 125.580067 223.143191 
L 132.122285 222.125694 
L 138.664502 223.461159 
L 145.20672 221.998506 
L 151.748938 221.871319 
L 158.291155 221.108196 
L 164.833373 222.252881 
L 171.375591 220.949212 
L 177.917808 220.631244 
L 184.460026 220.599447 
L 191.002243 219.931714 
L 197.544461 219.709137 
L 204.086679 220.790228 
L 210.628896 220.981009 
L 217.171114 220.47226 
L 223.713332 220.090698 
L 230.255549 219.58195 
L 236.797767 219.58195 
L 243.339985 220.885618 
L 249.882202 221.298977 
L 256.42442 220.885618 
L 262.966637 220.631244 
L 276.051073 220.535854 
L 282.59329 220.949212 
L 289.135508 220.249682 
L 295.677726 219.868121 
L 302.219943 220.281479 
L 308.762161 220.981009 
L 315.304378 219.931714 
L 321.846596 220.058902 
L 328.388814 221.17179 
L 334.931031 221.203586 
L 341.473249 220.313276 
L 348.015467 219.263982 
L 354.557684 220.599447 
L 361.099902 221.426164 
L 367.642119 219.518356 
L 374.184337 220.535854 
L 380.726555 220.694838 
L 387.268772 220.56765 
L 393.81099 220.663041 
L 400.353208 220.949212 
L 406.895425 220.535854 
L 413.437643 221.235383 
L 426.522078 221.426164 
L 433.064296 221.871319 
L 439.606513 221.585148 
L 446.148731 221.839522 
L 459.233166 221.012806 
L 465.775384 221.807726 
L 472.317602 220.56765 
L 478.859819 220.631244 
L 485.402037 220.885618 
L 491.944254 221.521554 
L 498.486472 220.790228 
L 505.02869 221.585148 
L 511.570907 220.154292 
L 518.113125 220.599447 
L 524.655343 220.56765 
L 531.19756 220.885618 
L 537.739778 219.58195 
L 544.281996 221.298977 
L 557.366431 220.535854 
L 570.450866 221.012806 
L 576.993084 220.186089 
L 583.535301 220.631244 
L 590.077519 220.154292 
L 596.619737 220.47226 
L 603.161954 220.599447 
L 609.704172 221.298977 
L 616.246389 221.139993 
L 622.788607 221.489758 
L 629.330825 221.394367 
L 635.873042 223.842721 
L 642.41526 222.030303 
L 648.957478 221.36257 
L 655.499695 222.125694 
L 662.041913 221.139993 
L 668.584131 221.616945 
L 675.126348 221.17179 
L 681.668566 221.139993 
L 688.210783 220.917415 
L 694.753001 221.871319 
L 701.295219 220.694838 
L 707.837436 221.457961 
L 714.379654 221.934913 
L 720.921872 221.426164 
L 734.006307 221.96671 
L 740.548524 222.539052 
L 747.090742 221.680538 
L 753.63296 221.044602 
L 760.175177 222.093897 
L 766.717395 221.553351 
L 773.259613 220.853822 
L 779.80183 222.316474 
L 786.344048 221.553351 
L 792.886265 221.903116 
L 799.428483 221.998506 
L 805.970701 221.839522 
L 812.512918 221.26718 
L 819.055136 222.793426 
L 825.597354 222.189287 
L 838.681789 223.365769 
L 845.224007 222.221084 
L 851.766224 222.507255 
L 858.308442 221.934913 
L 864.850659 222.380068 
L 871.392877 222.221084 
L 877.935095 222.793426 
L 884.477312 222.125694 
L 891.01953 223.111394 
L 904.103965 222.380068 
L 910.646183 223.174988 
L 917.1884 222.539052 
L 923.730618 222.15749 
L 930.272836 223.492956 
L 936.815053 221.998506 
L 943.357271 221.744132 
L 949.899489 215.066804 
L 949.899489 215.066804 
" clip-path="url(#pc22b0abb9a)" style="fill: none; stroke: #434348; stroke-linecap: square"/>
   </g>
   <g id="line2d_19">
    <path d="M 86.326761 206.577058 
L 92.868979 202.09371 
L 99.411197 197.864735 
L 105.953414 193.858338 
L 112.495632 191.219204 
L 125.580067 187.562572 
L 132.122285 187.149214 
L 138.664502 187.594369 
L 145.20672 186.894839 
L 151.748938 186.608668 
L 158.291155 185.877342 
L 164.833373 186.258903 
L 171.375591 184.192111 
L 177.917808 183.587972 
L 184.460026 182.443287 
L 191.002243 183.11102 
L 197.544461 182.952036 
L 204.086679 184.00133 
L 217.171114 183.174614 
L 223.713332 182.379694 
L 230.255549 183.079223 
L 236.797767 182.538678 
L 243.339985 182.920239 
L 249.882202 184.60547 
L 256.42442 184.223908 
L 262.966637 183.619769 
L 269.508855 184.541876 
L 276.051073 183.270004 
L 282.59329 183.969534 
L 289.135508 183.11102 
L 295.677726 183.174614 
L 308.762161 184.319298 
L 315.304378 183.778753 
L 321.846596 182.888442 
L 328.388814 184.414689 
L 334.931031 183.715159 
L 341.473249 184.192111 
L 348.015467 182.3161 
L 354.557684 184.414689 
L 361.099902 183.397191 
L 367.642119 183.969534 
L 374.184337 182.824849 
L 380.726555 183.460785 
L 387.268772 182.729458 
L 393.81099 184.637266 
L 400.353208 182.570474 
L 406.895425 183.333598 
L 413.437643 185.050625 
L 419.979861 184.351095 
L 426.522078 184.382892 
L 433.064296 184.955234 
L 446.148731 184.255705 
L 452.690949 185.050625 
L 459.233166 184.541876 
L 465.775384 184.923438 
L 472.317602 184.00133 
L 478.859819 184.510079 
L 485.402037 184.00133 
L 491.944254 183.81055 
L 498.486472 183.20641 
L 505.02869 183.90594 
L 511.570907 183.11102 
L 518.113125 183.937737 
L 524.655343 184.573673 
L 537.739778 183.428988 
L 544.281996 184.79625 
L 550.824213 184.541876 
L 557.366431 183.683362 
L 563.908648 183.587972 
L 570.450866 184.192111 
L 576.993084 182.856646 
L 583.535301 183.142817 
L 590.077519 182.729458 
L 596.619737 183.01563 
L 603.161954 184.478282 
L 609.704172 184.859844 
L 616.246389 184.128518 
L 622.788607 185.336796 
L 629.330825 184.764454 
L 635.873042 185.877342 
L 648.957478 184.987031 
L 655.499695 185.750154 
L 662.041913 184.160314 
L 668.584131 184.478282 
L 675.126348 183.874143 
L 681.668566 184.128518 
L 688.210783 185.273202 
L 694.753001 185.368593 
L 701.295219 184.891641 
L 707.837436 184.287502 
L 714.379654 184.70086 
L 720.921872 185.432186 
L 727.464089 184.859844 
L 734.006307 186.004529 
L 740.548524 185.40039 
L 747.090742 185.972732 
L 753.63296 184.223908 
L 760.175177 185.304999 
L 766.717395 184.859844 
L 773.259613 184.223908 
L 779.80183 184.70086 
L 786.344048 185.304999 
L 792.886265 185.686561 
L 799.428483 185.304999 
L 805.970701 184.732657 
L 812.512918 184.732657 
L 819.055136 185.750154 
L 825.597354 186.2907 
L 832.139571 186.099919 
L 838.681789 186.38609 
L 845.224007 185.209609 
L 851.766224 186.099919 
L 858.308442 185.559374 
L 864.850659 186.131716 
L 871.392877 185.432186 
L 877.935095 186.926636 
L 884.477312 186.099919 
L 891.01953 186.227106 
L 897.561748 186.894839 
L 904.103965 186.258903 
L 910.646183 185.877342 
L 917.1884 186.513278 
L 923.730618 186.99023 
L 930.272836 186.513278 
L 936.815053 185.718358 
L 943.357271 185.750154 
L 949.899489 178.977436 
L 949.899489 178.977436 
" clip-path="url(#pc22b0abb9a)" style="fill: none; stroke: #90ed7d; stroke-linecap: square"/>
   </g>
   <g id="line2d_20">
    <path d="M 86.326761 211.378375 
L 92.868979 206.545262 
L 99.411197 203.047614 
L 105.953414 197.896532 
L 112.495632 195.257398 
L 119.03785 193.190606 
L 125.580067 191.696156 
L 132.122285 191.75975 
L 138.664502 192.840841 
L 145.20672 190.774049 
L 151.748938 190.615065 
L 158.291155 190.742252 
L 164.833373 191.187407 
L 171.375591 189.851942 
L 177.917808 188.961631 
L 184.460026 187.88054 
L 197.544461 187.626166 
L 204.086679 188.389289 
L 210.628896 189.533974 
L 217.171114 189.438583 
L 223.713332 187.97593 
L 230.255549 188.548273 
L 236.797767 188.293898 
L 243.339985 188.516476 
L 249.882202 189.883738 
L 256.42442 189.47038 
L 262.966637 188.67546 
L 269.508855 189.724754 
L 276.051073 188.834444 
L 282.59329 189.247802 
L 289.135508 188.739054 
L 302.219943 189.088818 
L 308.762161 189.883738 
L 315.304378 188.993428 
L 321.846596 188.929834 
L 328.388814 189.724754 
L 334.931031 190.074519 
L 341.473249 189.406786 
L 348.015467 188.611866 
L 354.557684 190.042722 
L 361.099902 189.756551 
L 367.642119 189.120615 
L 374.184337 188.929834 
L 380.726555 189.088818 
L 387.268772 189.406786 
L 393.81099 189.438583 
L 400.353208 189.820145 
L 406.895425 190.456081 
L 413.437643 190.297097 
L 419.979861 190.646862 
L 426.522078 190.074519 
L 433.064296 190.615065 
L 439.606513 190.805846 
L 446.148731 190.774049 
L 452.690949 190.519674 
L 459.233166 190.487878 
L 465.775384 190.646862 
L 472.317602 189.37499 
L 478.859819 190.010926 
L 485.402037 190.933033 
L 491.944254 190.805846 
L 498.486472 189.502177 
L 505.02869 190.16991 
L 511.570907 189.724754 
L 518.113125 190.805846 
L 524.655343 190.519674 
L 531.19756 190.774049 
L 537.739778 189.37499 
L 544.281996 191.409985 
L 550.824213 190.646862 
L 563.908648 189.597567 
L 570.450866 190.456081 
L 576.993084 190.010926 
L 583.535301 190.042722 
L 590.077519 189.56577 
L 596.619737 189.438583 
L 603.161954 190.106316 
L 609.704172 191.06022 
L 616.246389 190.16991 
L 622.788607 191.441782 
L 629.330825 190.933033 
L 635.873042 191.378188 
L 642.41526 190.805846 
L 648.957478 190.583268 
L 655.499695 191.187407 
L 662.041913 190.2653 
L 668.584131 190.487878 
L 675.126348 190.138113 
L 681.668566 190.996626 
L 688.210783 190.583268 
L 694.753001 191.187407 
L 701.295219 190.487878 
L 707.837436 191.123814 
L 714.379654 191.314594 
L 720.921872 191.06022 
L 727.464089 191.028423 
L 734.006307 192.427482 
L 740.548524 192.586466 
L 747.090742 191.75975 
L 753.63296 190.042722 
L 760.175177 191.251001 
L 766.717395 192.045921 
L 773.259613 191.187407 
L 779.80183 191.473578 
L 786.344048 190.837642 
L 792.886265 191.75975 
L 799.428483 191.95053 
L 805.970701 191.505375 
L 812.512918 190.805846 
L 819.055136 191.568969 
L 825.597354 192.491076 
L 832.139571 192.427482 
L 838.681789 193.508574 
L 845.224007 191.600766 
L 858.308442 192.045921 
L 871.392877 191.823343 
L 877.935095 193.031622 
L 884.477312 192.459279 
L 891.01953 193.095215 
L 904.103965 192.204905 
L 910.646183 192.491076 
L 917.1884 192.300295 
L 923.730618 193.413183 
L 930.272836 192.809044 
L 936.815053 191.85514 
L 943.357271 191.982327 
L 949.899489 185.877342 
L 949.899489 185.877342 
" clip-path="url(#pc22b0abb9a)" style="fill: none; stroke: #f7a35c; stroke-linecap: square"/>
   </g>
   <g id="line2d_21">
    <path d="M 86.326761 247.59493 
L 92.868979 244.41525 
L 99.411197 240.822212 
L 105.953414 235.925505 
L 112.495632 233.09559 
L 119.03785 231.442156 
L 125.580067 230.488252 
L 132.122285 229.661535 
L 138.664502 230.583642 
L 158.291155 228.32607 
L 164.833373 229.152786 
L 171.375591 228.039898 
L 177.917808 227.308572 
L 184.460026 226.958807 
L 191.002243 227.149588 
L 197.544461 225.368967 
L 204.086679 227.372166 
L 210.628896 226.83162 
L 217.171114 227.308572 
L 223.713332 226.545449 
L 230.255549 226.92701 
L 236.797767 226.958807 
L 243.339985 227.117791 
L 249.882202 227.944508 
L 256.42442 227.880914 
L 262.966637 226.577246 
L 269.508855 228.039898 
L 276.051073 227.117791 
L 289.135508 227.085994 
L 295.677726 226.545449 
L 302.219943 226.704433 
L 308.762161 228.039898 
L 315.304378 227.022401 
L 321.846596 226.73623 
L 328.388814 227.976305 
L 334.931031 227.912711 
L 341.473249 226.92701 
L 348.015467 226.418262 
L 354.557684 227.499353 
L 361.099902 227.880914 
L 367.642119 227.244978 
L 374.184337 227.085994 
L 380.726555 227.562946 
L 387.268772 227.435759 
L 393.81099 227.72193 
L 400.353208 227.62654 
L 406.895425 227.308572 
L 413.437643 228.039898 
L 419.979861 228.644038 
L 426.522078 228.32607 
L 433.064296 228.993802 
L 439.606513 229.089193 
L 446.148731 228.675834 
L 452.690949 228.930209 
L 459.233166 227.562946 
L 465.775384 228.803022 
L 472.317602 227.244978 
L 478.859819 227.912711 
L 485.402037 228.071695 
L 498.486472 227.690134 
L 505.02869 227.880914 
L 511.570907 227.53115 
L 518.113125 228.039898 
L 524.655343 228.071695 
L 531.19756 228.453257 
L 537.739778 226.354668 
L 544.281996 228.580444 
L 550.824213 227.72193 
L 557.366431 227.785524 
L 563.908648 227.594743 
L 570.450866 227.817321 
L 583.535301 226.895214 
L 590.077519 227.785524 
L 596.619737 227.562946 
L 603.161954 227.753727 
L 609.704172 228.51685 
L 616.246389 227.976305 
L 622.788607 229.184583 
L 629.330825 228.548647 
L 635.873042 229.629738 
L 642.41526 229.31177 
L 648.957478 228.294273 
L 655.499695 228.898412 
L 662.041913 227.849118 
L 668.584131 228.262476 
L 675.126348 228.357866 
L 681.668566 228.135289 
L 688.210783 228.803022 
L 694.753001 229.21638 
L 701.295219 228.32607 
L 707.837436 228.866615 
L 714.379654 228.993802 
L 720.921872 228.771225 
L 727.464089 229.184583 
L 734.006307 230.074894 
L 740.548524 229.852316 
L 753.63296 227.944508 
L 760.175177 228.644038 
L 766.717395 228.866615 
L 773.259613 228.580444 
L 779.80183 229.343567 
L 786.344048 228.993802 
L 792.886265 229.91591 
L 799.428483 228.675834 
L 805.970701 228.771225 
L 812.512918 228.675834 
L 819.055136 229.756926 
L 825.597354 228.739428 
L 832.139571 229.21638 
L 838.681789 230.583642 
L 845.224007 229.12099 
L 851.766224 229.725129 
L 858.308442 228.866615 
L 864.850659 228.898412 
L 871.392877 229.089193 
L 877.935095 229.91591 
L 884.477312 229.057396 
L 891.01953 229.947706 
L 897.561748 229.248177 
L 904.103965 229.025599 
L 910.646183 230.170284 
L 917.1884 230.202081 
L 923.730618 229.884113 
L 930.272836 230.233878 
L 936.815053 229.852316 
L 943.357271 228.548647 
L 949.899489 221.553351 
L 949.899489 221.553351 
" clip-path="url(#pc22b0abb9a)" style="fill: none; stroke: #8085e9; stroke-linecap: square"/>
   </g>
   <g id="line2d_22">
    <path d="M 86.326761 208.484866 
L 99.411197 200.69465 
L 105.953414 194.875836 
L 112.495632 193.317793 
L 119.03785 191.314594 
L 125.580067 189.661161 
L 132.122285 188.357492 
L 138.664502 189.724754 
L 145.20672 187.78515 
L 158.291155 188.007727 
L 164.833373 188.039524 
L 171.375591 186.258903 
L 177.917808 186.258903 
L 184.460026 185.463983 
L 191.002243 185.463983 
L 197.544461 184.891641 
L 204.086679 186.036326 
L 210.628896 186.19531 
L 217.171114 186.131716 
L 223.713332 185.304999 
L 230.255549 186.354294 
L 236.797767 185.114218 
L 243.339985 186.036326 
L 249.882202 186.163513 
L 256.42442 186.831246 
L 262.966637 186.354294 
L 269.508855 186.672262 
L 276.051073 185.877342 
L 282.59329 186.227106 
L 295.677726 186.068122 
L 302.219943 186.068122 
L 308.762161 187.339994 
L 315.304378 186.449684 
L 321.846596 186.258903 
L 328.388814 187.78515 
L 334.931031 187.530775 
L 348.015467 185.40039 
L 354.557684 186.831246 
L 361.099902 186.735855 
L 374.184337 186.163513 
L 380.726555 186.2907 
L 387.268772 186.258903 
L 393.81099 187.371791 
L 400.353208 185.909138 
L 413.437643 187.530775 
L 419.979861 187.212807 
L 426.522078 187.467182 
L 433.064296 187.276401 
L 439.606513 187.753353 
L 446.148731 187.657962 
L 452.690949 187.149214 
L 459.233166 187.308198 
L 465.775384 187.212807 
L 472.317602 186.036326 
L 478.859819 186.799449 
L 485.402037 187.244604 
L 491.944254 186.894839 
L 498.486472 186.19531 
L 505.02869 187.78515 
L 511.570907 186.004529 
L 518.113125 187.403588 
L 524.655343 186.958433 
L 531.19756 187.816946 
L 537.739778 186.004529 
L 544.281996 187.308198 
L 550.824213 187.149214 
L 557.366431 187.371791 
L 563.908648 187.053823 
L 570.450866 187.308198 
L 576.993084 186.322497 
L 583.535301 187.08562 
L 590.077519 186.036326 
L 596.619737 186.640465 
L 603.161954 187.657962 
L 609.704172 187.08562 
L 616.246389 187.371791 
L 622.788607 188.325695 
L 629.330825 188.198508 
L 635.873042 188.262102 
L 648.957478 187.88054 
L 655.499695 187.816946 
L 662.041913 186.894839 
L 668.584131 187.562572 
L 675.126348 187.022026 
L 694.753001 187.97593 
L 701.295219 188.039524 
L 714.379654 188.421086 
L 720.921872 187.912337 
L 727.464089 188.611866 
L 734.006307 188.77085 
L 740.548524 188.707257 
L 747.090742 188.166711 
L 753.63296 187.97593 
L 760.175177 187.944134 
L 766.717395 188.516476 
L 773.259613 188.230305 
L 779.80183 188.516476 
L 786.344048 188.134914 
L 799.428483 189.247802 
L 805.970701 188.198508 
L 812.512918 188.293898 
L 819.055136 188.898038 
L 825.597354 188.802647 
L 832.139571 189.788348 
L 838.681789 189.915535 
L 845.224007 188.007727 
L 851.766224 189.311396 
L 858.308442 189.088818 
L 871.392877 189.057022 
L 877.935095 190.010926 
L 884.477312 189.47038 
L 891.01953 189.120615 
L 897.561748 189.851942 
L 904.103965 189.152412 
L 910.646183 189.915535 
L 917.1884 189.438583 
L 923.730618 190.519674 
L 930.272836 189.692958 
L 936.815053 189.311396 
L 943.357271 187.88054 
L 949.899489 182.475084 
L 949.899489 182.475084 
" clip-path="url(#pc22b0abb9a)" style="fill: none; stroke: #f15c80; stroke-linecap: square"/>
   </g>
   <g id="line2d_23">
    <path d="M 43.148125 353.2239 
L 993.078125 353.2239 
" clip-path="url(#pc22b0abb9a)" style="fill: none; stroke: #dedede; stroke-width: 2; stroke-linecap: square"/>
   </g>
   <g id="text_16">
    <!-- Bismark: M-Bias -->
    <g transform="translate(454.100625 19.3575)scale(0.16 -0.16)">
     <defs>
      <path id="DejaVuSans-42" d="M 1259 2228 
L 1259 519 
L 2272 519 
Q 2781 519 3026 730 
Q 3272 941 3272 1375 
Q 3272 1813 3026 2020 
Q 2781 2228 2272 2228 
L 1259 2228 
z
M 1259 4147 
L 1259 2741 
L 2194 2741 
Q 2656 2741 2882 2914 
Q 3109 3088 3109 3444 
Q 3109 3797 2882 3972 
Q 2656 4147 2194 4147 
L 1259 4147 
z
M 628 4666 
L 2241 4666 
Q 2963 4666 3353 4366 
Q 3744 4066 3744 3513 
Q 3744 3084 3544 2831 
Q 3344 2578 2956 2516 
Q 3422 2416 3680 2098 
Q 3938 1781 3938 1306 
Q 3938 681 3513 340 
Q 3088 0 2303 0 
L 628 0 
L 628 4666 
z
" transform="scale(0.015625)"/>
      <path id="DejaVuSans-6d" d="M 3328 2828 
Q 3544 3216 3844 3400 
Q 4144 3584 4550 3584 
Q 5097 3584 5394 3201 
Q 5691 2819 5691 2113 
L 5691 0 
L 5113 0 
L 5113 2094 
Q 5113 2597 4934 2840 
Q 4756 3084 4391 3084 
Q 3944 3084 3684 2787 
Q 3425 2491 3425 1978 
L 3425 0 
L 2847 0 
L 2847 2094 
Q 2847 2600 2669 2842 
Q 2491 3084 2119 3084 
Q 1678 3084 1418 2786 
Q 1159 2488 1159 1978 
L 1159 0 
L 581 0 
L 581 3500 
L 1159 3500 
L 1159 2956 
Q 1356 3278 1631 3431 
Q 1906 3584 2284 3584 
Q 2666 3584 2933 3390 
Q 3200 3197 3328 2828 
z
" transform="scale(0.015625)"/>
      <path id="DejaVuSans-72" d="M 2631 2963 
Q 2534 3019 2420 3045 
Q 2306 3072 2169 3072 
Q 1681 3072 1420 2755 
Q 1159 2438 1159 1844 
L 1159 0 
L 581 0 
L 581 3500 
L 1159 3500 
L 1159 2956 
Q 1341 3275 1631 3429 
Q 1922 3584 2338 3584 
Q 2397 3584 2469 3576 
Q 2541 3569 2628 3553 
L 2631 2963 
z
" transform="scale(0.015625)"/>
      <path id="DejaVuSans-6b" d="M 581 4863 
L 1159 4863 
L 1159 1991 
L 2875 3500 
L 3609 3500 
L 1753 1863 
L 3688 0 
L 2938 0 
L 1159 1709 
L 1159 0 
L 581 0 
L 581 4863 
z
" transform="scale(0.015625)"/>
      <path id="DejaVuSans-3a" d="M 750 794 
L 1409 794 
L 1409 0 
L 750 0 
L 750 794 
z
M 750 3309 
L 1409 3309 
L 1409 2516 
L 750 2516 
L 750 3309 
z
" transform="scale(0.015625)"/>
      <path id="DejaVuSans-2d" d="M 313 2009 
L 1997 2009 
L 1997 1497 
L 313 1497 
L 313 2009 
z
" transform="scale(0.015625)"/>
     </defs>
     <use xlink:href="#DejaVuSans-42"/>
     <use xlink:href="#DejaVuSans-69" x="68.603516"/>
     <use xlink:href="#DejaVuSans-73" x="96.386719"/>
     <use xlink:href="#DejaVuSans-6d" x="148.486328"/>
     <use xlink:href="#DejaVuSans-61" x="245.898438"/>
     <use xlink:href="#DejaVuSans-72" x="307.177734"/>
     <use xlink:href="#DejaVuSans-6b" x="348.291016"/>
     <use xlink:href="#DejaVuSans-3a" x="406.201172"/>
     <use xlink:href="#DejaVuSans-20" x="439.892578"/>
     <use xlink:href="#DejaVuSans-4d" x="471.679688"/>
     <use xlink:href="#DejaVuSans-2d" x="557.958984"/>
     <use xlink:href="#DejaVuSans-42" x="590.417969"/>
     <use xlink:href="#DejaVuSans-69" x="659.021484"/>
     <use xlink:href="#DejaVuSans-61" x="686.804688"/>
     <use xlink:href="#DejaVuSans-73" x="748.083984"/>
    </g>
   </g>
  </g>
 </g>
 <defs>
  <clipPath id="pc22b0abb9a">
   <rect x="43.148125" y="35.2559" width="949.93" height="317.968"/>
  </clipPath>
 </defs>
</svg>
