<?xml version="1.0" encoding="utf-8" standalone="no"?>
<!DOCTYPE svg PUBLIC "-//W3C//DTD SVG 1.1//EN"
  "http://www.w3.org/Graphics/SVG/1.1/DTD/svg11.dtd">
<svg xmlns:xlink="http://www.w3.org/1999/xlink" width="1000.278125pt" height="388.844525pt" viewBox="0 0 1000.278125 388.844525" xmlns="http://www.w3.org/2000/svg" version="1.1">
 <metadata>
  <rdf:RDF xmlns:dc="http://purl.org/dc/elements/1.1/" xmlns:cc="http://creativecommons.org/ns#" xmlns:rdf="http://www.w3.org/1999/02/22-rdf-syntax-ns#">
   <cc:Work>
    <dc:type rdf:resource="http://purl.org/dc/dcmitype/StillImage"/>
    <dc:date>2023-04-21T00:01:49.213676</dc:date>
    <dc:format>image/svg+xml</dc:format>
    <dc:creator>
     <cc:Agent>
      <dc:title>Matplotlib v3.5.3, https://matplotlib.org/</dc:title>
     </cc:Agent>
    </dc:creator>
   </cc:Work>
  </rdf:RDF>
 </metadata>
 <defs>
  <style type="text/css">*{stroke-linejoin: round; stroke-linecap: butt}</style>
 </defs>
 <g id="figure_1">
  <g id="axes_1">
   <g id="patch_1">
    <path d="M 43.148125 353.2239 
L 993.078125 353.2239 
L 993.078125 35.2559 
L 43.148125 35.2559 
z
" style="fill: #ffffff"/>
   </g>
   <g id="matplotlib.axis_1">
    <g id="xtick_1">
     <g id="text_1">
      <!-- 0 -->
      <g transform="translate(77.239544 366.30265)scale(0.08 -0.08)">
       <defs>
        <path id="DejaVuSans-30" d="M 2034 4250 
Q 1547 4250 1301 3770 
Q 1056 3291 1056 2328 
Q 1056 1369 1301 889 
Q 1547 409 2034 409 
Q 2525 409 2770 889 
Q 3016 1369 3016 2328 
Q 3016 3291 2770 3770 
Q 2525 4250 2034 4250 
z
M 2034 4750 
Q 2819 4750 3233 4129 
Q 3647 3509 3647 2328 
Q 3647 1150 3233 529 
Q 2819 -91 2034 -91 
Q 1250 -91 836 529 
Q 422 1150 422 2328 
Q 422 3509 836 4129 
Q 1250 4750 2034 4750 
z
" transform="scale(0.015625)"/>
       </defs>
       <use xlink:href="#DejaVuSans-30"/>
      </g>
     </g>
    </g>
    <g id="xtick_2">
     <g id="text_2">
      <!-- 20 -->
      <g transform="translate(205.538896 366.30265)scale(0.08 -0.08)">
       <defs>
        <path id="DejaVuSans-32" d="M 1228 531 
L 3431 531 
L 3431 0 
L 469 0 
L 469 531 
Q 828 903 1448 1529 
Q 2069 2156 2228 2338 
Q 2531 2678 2651 2914 
Q 2772 3150 2772 3378 
Q 2772 3750 2511 3984 
Q 2250 4219 1831 4219 
Q 1534 4219 1204 4116 
Q 875 4013 500 3803 
L 500 4441 
Q 881 4594 1212 4672 
Q 1544 4750 1819 4750 
Q 2544 4750 2975 4387 
Q 3406 4025 3406 3419 
Q 3406 3131 3298 2873 
Q 3191 2616 2906 2266 
Q 2828 2175 2409 1742 
Q 1991 1309 1228 531 
z
" transform="scale(0.015625)"/>
       </defs>
       <use xlink:href="#DejaVuSans-32"/>
       <use xlink:href="#DejaVuSans-30" x="63.623047"/>
      </g>
     </g>
    </g>
    <g id="xtick_3">
     <g id="text_3">
      <!-- 40 -->
      <g transform="translate(336.383249 366.30265)scale(0.08 -0.08)">
       <defs>
        <path id="DejaVuSans-34" d="M 2419 4116 
L 825 1625 
L 2419 1625 
L 2419 4116 
z
M 2253 4666 
L 3047 4666 
L 3047 1625 
L 3713 1625 
L 3713 1100 
L 3047 1100 
L 3047 0 
L 2419 0 
L 2419 1100 
L 313 1100 
L 313 1709 
L 2253 4666 
z
" transform="scale(0.015625)"/>
       </defs>
       <use xlink:href="#DejaVuSans-34"/>
       <use xlink:href="#DejaVuSans-30" x="63.623047"/>
      </g>
     </g>
    </g>
    <g id="xtick_4">
     <g id="text_4">
      <!-- 60 -->
      <g transform="translate(467.227602 366.30265)scale(0.08 -0.08)">
       <defs>
        <path id="DejaVuSans-36" d="M 2113 2584 
Q 1688 2584 1439 2293 
Q 1191 2003 1191 1497 
Q 1191 994 1439 701 
Q 1688 409 2113 409 
Q 2538 409 2786 701 
Q 3034 994 3034 1497 
Q 3034 2003 2786 2293 
Q 2538 2584 2113 2584 
z
M 3366 4563 
L 3366 3988 
Q 3128 4100 2886 4159 
Q 2644 4219 2406 4219 
Q 1781 4219 1451 3797 
Q 1122 3375 1075 2522 
Q 1259 2794 1537 2939 
Q 1816 3084 2150 3084 
Q 2853 3084 3261 2657 
Q 3669 2231 3669 1497 
Q 3669 778 3244 343 
Q 2819 -91 2113 -91 
Q 1303 -91 875 529 
Q 447 1150 447 2328 
Q 447 3434 972 4092 
Q 1497 4750 2381 4750 
Q 2619 4750 2861 4703 
Q 3103 4656 3366 4563 
z
" transform="scale(0.015625)"/>
       </defs>
       <use xlink:href="#DejaVuSans-36"/>
       <use xlink:href="#DejaVuSans-30" x="63.623047"/>
      </g>
     </g>
    </g>
    <g id="xtick_5">
     <g id="text_5">
      <!-- 80 -->
      <g transform="translate(598.071954 366.30265)scale(0.08 -0.08)">
       <defs>
        <path id="DejaVuSans-38" d="M 2034 2216 
Q 1584 2216 1326 1975 
Q 1069 1734 1069 1313 
Q 1069 891 1326 650 
Q 1584 409 2034 409 
Q 2484 409 2743 651 
Q 3003 894 3003 1313 
Q 3003 1734 2745 1975 
Q 2488 2216 2034 2216 
z
M 1403 2484 
Q 997 2584 770 2862 
Q 544 3141 544 3541 
Q 544 4100 942 4425 
Q 1341 4750 2034 4750 
Q 2731 4750 3128 4425 
Q 3525 4100 3525 3541 
Q 3525 3141 3298 2862 
Q 3072 2584 2669 2484 
Q 3125 2378 3379 2068 
Q 3634 1759 3634 1313 
Q 3634 634 3220 271 
Q 2806 -91 2034 -91 
Q 1263 -91 848 271 
Q 434 634 434 1313 
Q 434 1759 690 2068 
Q 947 2378 1403 2484 
z
M 1172 3481 
Q 1172 3119 1398 2916 
Q 1625 2713 2034 2713 
Q 2441 2713 2670 2916 
Q 2900 3119 2900 3481 
Q 2900 3844 2670 4047 
Q 2441 4250 2034 4250 
Q 1625 4250 1398 4047 
Q 1172 3844 1172 3481 
z
" transform="scale(0.015625)"/>
       </defs>
       <use xlink:href="#DejaVuSans-38"/>
       <use xlink:href="#DejaVuSans-30" x="63.623047"/>
      </g>
     </g>
    </g>
    <g id="xtick_6">
     <g id="text_6">
      <!-- 100 -->
      <g transform="translate(726.371307 366.30265)scale(0.08 -0.08)">
       <defs>
        <path id="DejaVuSans-31" d="M 794 531 
L 1825 531 
L 1825 4091 
L 703 3866 
L 703 4441 
L 1819 4666 
L 2450 4666 
L 2450 531 
L 3481 531 
L 3481 0 
L 794 0 
L 794 531 
z
" transform="scale(0.015625)"/>
       </defs>
       <use xlink:href="#DejaVuSans-31"/>
       <use xlink:href="#DejaVuSans-30" x="63.623047"/>
       <use xlink:href="#DejaVuSans-30" x="127.246094"/>
      </g>
     </g>
    </g>
    <g id="xtick_7">
     <g id="text_7">
      <!-- 120 -->
      <g transform="translate(857.215659 366.30265)scale(0.08 -0.08)">
       <use xlink:href="#DejaVuSans-31"/>
       <use xlink:href="#DejaVuSans-32" x="63.623047"/>
       <use xlink:href="#DejaVuSans-30" x="127.246094"/>
      </g>
     </g>
    </g>
    <g id="text_8">
     <!-- Position (bp) -->
     <g transform="translate(486.81 379.564837)scale(0.1 -0.1)">
      <defs>
       <path id="DejaVuSans-50" d="M 1259 4147 
L 1259 2394 
L 2053 2394 
Q 2494 2394 2734 2622 
Q 2975 2850 2975 3272 
Q 2975 3691 2734 3919 
Q 2494 4147 2053 4147 
L 1259 4147 
z
M 628 4666 
L 2053 4666 
Q 2838 4666 3239 4311 
Q 3641 3956 3641 3272 
Q 3641 2581 3239 2228 
Q 2838 1875 2053 1875 
L 1259 1875 
L 1259 0 
L 628 0 
L 628 4666 
z
" transform="scale(0.015625)"/>
       <path id="DejaVuSans-6f" d="M 1959 3097 
Q 1497 3097 1228 2736 
Q 959 2375 959 1747 
Q 959 1119 1226 758 
Q 1494 397 1959 397 
Q 2419 397 2687 759 
Q 2956 1122 2956 1747 
Q 2956 2369 2687 2733 
Q 2419 3097 1959 3097 
z
M 1959 3584 
Q 2709 3584 3137 3096 
Q 3566 2609 3566 1747 
Q 3566 888 3137 398 
Q 2709 -91 1959 -91 
Q 1206 -91 779 398 
Q 353 888 353 1747 
Q 353 2609 779 3096 
Q 1206 3584 1959 3584 
z
" transform="scale(0.015625)"/>
       <path id="DejaVuSans-73" d="M 2834 3397 
L 2834 2853 
Q 2591 2978 2328 3040 
Q 2066 3103 1784 3103 
Q 1356 3103 1142 2972 
Q 928 2841 928 2578 
Q 928 2378 1081 2264 
Q 1234 2150 1697 2047 
L 1894 2003 
Q 2506 1872 2764 1633 
Q 3022 1394 3022 966 
Q 3022 478 2636 193 
Q 2250 -91 1575 -91 
Q 1294 -91 989 -36 
Q 684 19 347 128 
L 347 722 
Q 666 556 975 473 
Q 1284 391 1588 391 
Q 1994 391 2212 530 
Q 2431 669 2431 922 
Q 2431 1156 2273 1281 
Q 2116 1406 1581 1522 
L 1381 1569 
Q 847 1681 609 1914 
Q 372 2147 372 2553 
Q 372 3047 722 3315 
Q 1072 3584 1716 3584 
Q 2034 3584 2315 3537 
Q 2597 3491 2834 3397 
z
" transform="scale(0.015625)"/>
       <path id="DejaVuSans-69" d="M 603 3500 
L 1178 3500 
L 1178 0 
L 603 0 
L 603 3500 
z
M 603 4863 
L 1178 4863 
L 1178 4134 
L 603 4134 
L 603 4863 
z
" transform="scale(0.015625)"/>
       <path id="DejaVuSans-74" d="M 1172 4494 
L 1172 3500 
L 2356 3500 
L 2356 3053 
L 1172 3053 
L 1172 1153 
Q 1172 725 1289 603 
Q 1406 481 1766 481 
L 2356 481 
L 2356 0 
L 1766 0 
Q 1100 0 847 248 
Q 594 497 594 1153 
L 594 3053 
L 172 3053 
L 172 3500 
L 594 3500 
L 594 4494 
L 1172 4494 
z
" transform="scale(0.015625)"/>
       <path id="DejaVuSans-6e" d="M 3513 2113 
L 3513 0 
L 2938 0 
L 2938 2094 
Q 2938 2591 2744 2837 
Q 2550 3084 2163 3084 
Q 1697 3084 1428 2787 
Q 1159 2491 1159 1978 
L 1159 0 
L 581 0 
L 581 3500 
L 1159 3500 
L 1159 2956 
Q 1366 3272 1645 3428 
Q 1925 3584 2291 3584 
Q 2894 3584 3203 3211 
Q 3513 2838 3513 2113 
z
" transform="scale(0.015625)"/>
       <path id="DejaVuSans-20" transform="scale(0.015625)"/>
       <path id="DejaVuSans-28" d="M 1984 4856 
Q 1566 4138 1362 3434 
Q 1159 2731 1159 2009 
Q 1159 1288 1364 580 
Q 1569 -128 1984 -844 
L 1484 -844 
Q 1016 -109 783 600 
Q 550 1309 550 2009 
Q 550 2706 781 3412 
Q 1013 4119 1484 4856 
L 1984 4856 
z
" transform="scale(0.015625)"/>
       <path id="DejaVuSans-62" d="M 3116 1747 
Q 3116 2381 2855 2742 
Q 2594 3103 2138 3103 
Q 1681 3103 1420 2742 
Q 1159 2381 1159 1747 
Q 1159 1113 1420 752 
Q 1681 391 2138 391 
Q 2594 391 2855 752 
Q 3116 1113 3116 1747 
z
M 1159 2969 
Q 1341 3281 1617 3432 
Q 1894 3584 2278 3584 
Q 2916 3584 3314 3078 
Q 3713 2572 3713 1747 
Q 3713 922 3314 415 
Q 2916 -91 2278 -91 
Q 1894 -91 1617 61 
Q 1341 213 1159 525 
L 1159 0 
L 581 0 
L 581 4863 
L 1159 4863 
L 1159 2969 
z
" transform="scale(0.015625)"/>
       <path id="DejaVuSans-70" d="M 1159 525 
L 1159 -1331 
L 581 -1331 
L 581 3500 
L 1159 3500 
L 1159 2969 
Q 1341 3281 1617 3432 
Q 1894 3584 2278 3584 
Q 2916 3584 3314 3078 
Q 3713 2572 3713 1747 
Q 3713 922 3314 415 
Q 2916 -91 2278 -91 
Q 1894 -91 1617 61 
Q 1341 213 1159 525 
z
M 3116 1747 
Q 3116 2381 2855 2742 
Q 2594 3103 2138 3103 
Q 1681 3103 1420 2742 
Q 1159 2381 1159 1747 
Q 1159 1113 1420 752 
Q 1681 391 2138 391 
Q 2594 391 2855 752 
Q 3116 1113 3116 1747 
z
" transform="scale(0.015625)"/>
       <path id="DejaVuSans-29" d="M 513 4856 
L 1013 4856 
Q 1481 4119 1714 3412 
Q 1947 2706 1947 2009 
Q 1947 1309 1714 600 
Q 1481 -109 1013 -844 
L 513 -844 
Q 928 -128 1133 580 
Q 1338 1288 1338 2009 
Q 1338 2731 1133 3434 
Q 928 4138 513 4856 
z
" transform="scale(0.015625)"/>
      </defs>
      <use xlink:href="#DejaVuSans-50"/>
      <use xlink:href="#DejaVuSans-6f" x="56.677734"/>
      <use xlink:href="#DejaVuSans-73" x="117.859375"/>
      <use xlink:href="#DejaVuSans-69" x="169.958984"/>
      <use xlink:href="#DejaVuSans-74" x="197.742188"/>
      <use xlink:href="#DejaVuSans-69" x="236.951172"/>
      <use xlink:href="#DejaVuSans-6f" x="264.734375"/>
      <use xlink:href="#DejaVuSans-6e" x="325.916016"/>
      <use xlink:href="#DejaVuSans-20" x="389.294922"/>
      <use xlink:href="#DejaVuSans-28" x="421.082031"/>
      <use xlink:href="#DejaVuSans-62" x="460.095703"/>
      <use xlink:href="#DejaVuSans-70" x="523.572266"/>
      <use xlink:href="#DejaVuSans-29" x="587.048828"/>
     </g>
    </g>
   </g>
   <g id="matplotlib.axis_2">
    <g id="ytick_1">
     <g id="line2d_1">
      <path d="M 43.148125 353.2239 
L 993.078125 353.2239 
" clip-path="url(#p81c482bb17)" style="fill: none; stroke: #dedede; stroke-linecap: square"/>
     </g>
     <g id="text_9">
      <!-- 0 -->
      <g transform="translate(31.058125 356.263275)scale(0.08 -0.08)">
       <use xlink:href="#DejaVuSans-30"/>
      </g>
     </g>
    </g>
    <g id="ytick_2">
     <g id="line2d_2">
      <path d="M 43.148125 289.6303 
L 993.078125 289.6303 
" clip-path="url(#p81c482bb17)" style="fill: none; stroke: #dedede; stroke-linecap: square"/>
     </g>
     <g id="text_10">
      <!-- 20 -->
      <g transform="translate(25.968125 292.669675)scale(0.08 -0.08)">
       <use xlink:href="#DejaVuSans-32"/>
       <use xlink:href="#DejaVuSans-30" x="63.623047"/>
      </g>
     </g>
    </g>
    <g id="ytick_3">
     <g id="line2d_3">
      <path d="M 43.148125 226.0367 
L 993.078125 226.0367 
" clip-path="url(#p81c482bb17)" style="fill: none; stroke: #dedede; stroke-linecap: square"/>
     </g>
     <g id="text_11">
      <!-- 40 -->
      <g transform="translate(25.968125 229.076075)scale(0.08 -0.08)">
       <use xlink:href="#DejaVuSans-34"/>
       <use xlink:href="#DejaVuSans-30" x="63.623047"/>
      </g>
     </g>
    </g>
    <g id="ytick_4">
     <g id="line2d_4">
      <path d="M 43.148125 162.4431 
L 993.078125 162.4431 
" clip-path="url(#p81c482bb17)" style="fill: none; stroke: #dedede; stroke-linecap: square"/>
     </g>
     <g id="text_12">
      <!-- 60 -->
      <g transform="translate(25.968125 165.482475)scale(0.08 -0.08)">
       <use xlink:href="#DejaVuSans-36"/>
       <use xlink:href="#DejaVuSans-30" x="63.623047"/>
      </g>
     </g>
    </g>
    <g id="ytick_5">
     <g id="line2d_5">
      <path d="M 43.148125 98.8495 
L 993.078125 98.8495 
" clip-path="url(#p81c482bb17)" style="fill: none; stroke: #dedede; stroke-linecap: square"/>
     </g>
     <g id="text_13">
      <!-- 80 -->
      <g transform="translate(25.968125 101.888875)scale(0.08 -0.08)">
       <use xlink:href="#DejaVuSans-38"/>
       <use xlink:href="#DejaVuSans-30" x="63.623047"/>
      </g>
     </g>
    </g>
    <g id="ytick_6">
     <g id="line2d_6">
      <path d="M 43.148125 35.2559 
L 993.078125 35.2559 
" clip-path="url(#p81c482bb17)" style="fill: none; stroke: #dedede; stroke-linecap: square"/>
     </g>
     <g id="text_14">
      <!-- 100 -->
      <g transform="translate(20.878125 38.295275)scale(0.08 -0.08)">
       <use xlink:href="#DejaVuSans-31"/>
       <use xlink:href="#DejaVuSans-30" x="63.623047"/>
       <use xlink:href="#DejaVuSans-30" x="127.246094"/>
      </g>
     </g>
    </g>
    <g id="text_15">
     <!-- % Methylation -->
     <g transform="translate(14.798437 230.089119)rotate(-90)scale(0.1 -0.1)">
      <defs>
       <path id="DejaVuSans-25" d="M 4653 2053 
Q 4381 2053 4226 1822 
Q 4072 1591 4072 1178 
Q 4072 772 4226 539 
Q 4381 306 4653 306 
Q 4919 306 5073 539 
Q 5228 772 5228 1178 
Q 5228 1588 5073 1820 
Q 4919 2053 4653 2053 
z
M 4653 2450 
Q 5147 2450 5437 2106 
Q 5728 1763 5728 1178 
Q 5728 594 5436 251 
Q 5144 -91 4653 -91 
Q 4153 -91 3862 251 
Q 3572 594 3572 1178 
Q 3572 1766 3864 2108 
Q 4156 2450 4653 2450 
z
M 1428 4353 
Q 1159 4353 1004 4120 
Q 850 3888 850 3481 
Q 850 3069 1003 2837 
Q 1156 2606 1428 2606 
Q 1700 2606 1854 2837 
Q 2009 3069 2009 3481 
Q 2009 3884 1853 4118 
Q 1697 4353 1428 4353 
z
M 4250 4750 
L 4750 4750 
L 1831 -91 
L 1331 -91 
L 4250 4750 
z
M 1428 4750 
Q 1922 4750 2215 4408 
Q 2509 4066 2509 3481 
Q 2509 2891 2217 2550 
Q 1925 2209 1428 2209 
Q 931 2209 642 2551 
Q 353 2894 353 3481 
Q 353 4063 643 4406 
Q 934 4750 1428 4750 
z
" transform="scale(0.015625)"/>
       <path id="DejaVuSans-4d" d="M 628 4666 
L 1569 4666 
L 2759 1491 
L 3956 4666 
L 4897 4666 
L 4897 0 
L 4281 0 
L 4281 4097 
L 3078 897 
L 2444 897 
L 1241 4097 
L 1241 0 
L 628 0 
L 628 4666 
z
" transform="scale(0.015625)"/>
       <path id="DejaVuSans-65" d="M 3597 1894 
L 3597 1613 
L 953 1613 
Q 991 1019 1311 708 
Q 1631 397 2203 397 
Q 2534 397 2845 478 
Q 3156 559 3463 722 
L 3463 178 
Q 3153 47 2828 -22 
Q 2503 -91 2169 -91 
Q 1331 -91 842 396 
Q 353 884 353 1716 
Q 353 2575 817 3079 
Q 1281 3584 2069 3584 
Q 2775 3584 3186 3129 
Q 3597 2675 3597 1894 
z
M 3022 2063 
Q 3016 2534 2758 2815 
Q 2500 3097 2075 3097 
Q 1594 3097 1305 2825 
Q 1016 2553 972 2059 
L 3022 2063 
z
" transform="scale(0.015625)"/>
       <path id="DejaVuSans-68" d="M 3513 2113 
L 3513 0 
L 2938 0 
L 2938 2094 
Q 2938 2591 2744 2837 
Q 2550 3084 2163 3084 
Q 1697 3084 1428 2787 
Q 1159 2491 1159 1978 
L 1159 0 
L 581 0 
L 581 4863 
L 1159 4863 
L 1159 2956 
Q 1366 3272 1645 3428 
Q 1925 3584 2291 3584 
Q 2894 3584 3203 3211 
Q 3513 2838 3513 2113 
z
" transform="scale(0.015625)"/>
       <path id="DejaVuSans-79" d="M 2059 -325 
Q 1816 -950 1584 -1140 
Q 1353 -1331 966 -1331 
L 506 -1331 
L 506 -850 
L 844 -850 
Q 1081 -850 1212 -737 
Q 1344 -625 1503 -206 
L 1606 56 
L 191 3500 
L 800 3500 
L 1894 763 
L 2988 3500 
L 3597 3500 
L 2059 -325 
z
" transform="scale(0.015625)"/>
       <path id="DejaVuSans-6c" d="M 603 4863 
L 1178 4863 
L 1178 0 
L 603 0 
L 603 4863 
z
" transform="scale(0.015625)"/>
       <path id="DejaVuSans-61" d="M 2194 1759 
Q 1497 1759 1228 1600 
Q 959 1441 959 1056 
Q 959 750 1161 570 
Q 1363 391 1709 391 
Q 2188 391 2477 730 
Q 2766 1069 2766 1631 
L 2766 1759 
L 2194 1759 
z
M 3341 1997 
L 3341 0 
L 2766 0 
L 2766 531 
Q 2569 213 2275 61 
Q 1981 -91 1556 -91 
Q 1019 -91 701 211 
Q 384 513 384 1019 
Q 384 1609 779 1909 
Q 1175 2209 1959 2209 
L 2766 2209 
L 2766 2266 
Q 2766 2663 2505 2880 
Q 2244 3097 1772 3097 
Q 1472 3097 1187 3025 
Q 903 2953 641 2809 
L 641 3341 
Q 956 3463 1253 3523 
Q 1550 3584 1831 3584 
Q 2591 3584 2966 3190 
Q 3341 2797 3341 1997 
z
" transform="scale(0.015625)"/>
      </defs>
      <use xlink:href="#DejaVuSans-25"/>
      <use xlink:href="#DejaVuSans-20" x="95.019531"/>
      <use xlink:href="#DejaVuSans-4d" x="126.806641"/>
      <use xlink:href="#DejaVuSans-65" x="213.085938"/>
      <use xlink:href="#DejaVuSans-74" x="274.609375"/>
      <use xlink:href="#DejaVuSans-68" x="313.818359"/>
      <use xlink:href="#DejaVuSans-79" x="377.197266"/>
      <use xlink:href="#DejaVuSans-6c" x="436.376953"/>
      <use xlink:href="#DejaVuSans-61" x="464.160156"/>
      <use xlink:href="#DejaVuSans-74" x="525.439453"/>
      <use xlink:href="#DejaVuSans-69" x="564.648438"/>
      <use xlink:href="#DejaVuSans-6f" x="592.431641"/>
      <use xlink:href="#DejaVuSans-6e" x="653.613281"/>
     </g>
    </g>
   </g>
   <g id="line2d_7">
    <path d="M 86.326761 341.713458 
L 92.868979 340.950335 
L 99.411197 340.823148 
L 105.953414 340.346196 
L 119.03785 339.80565 
L 125.580067 339.455886 
L 138.664502 339.551276 
L 145.20672 339.583073 
L 151.748938 339.964634 
L 164.833373 339.519479 
L 171.375591 339.773854 
L 191.002243 339.487682 
L 197.544461 339.678463 
L 204.086679 339.519479 
L 217.171114 339.551276 
L 223.713332 339.424089 
L 236.797767 339.328698 
L 243.339985 338.724559 
L 249.882202 339.233308 
L 262.966637 339.01073 
L 269.508855 339.360495 
L 276.051073 339.169714 
L 282.59329 338.724559 
L 289.135508 339.042527 
L 302.219943 338.947137 
L 308.762161 338.883543 
L 315.304378 339.106121 
L 328.388814 338.692762 
L 334.931031 338.91534 
L 348.015467 338.629169 
L 354.557684 338.81995 
L 361.099902 338.788153 
L 367.642119 338.597372 
L 374.184337 338.565575 
L 380.726555 338.851746 
L 393.81099 338.724559 
L 400.353208 338.692762 
L 413.437643 338.91534 
L 419.979861 338.788153 
L 426.522078 339.01073 
L 433.064296 338.91534 
L 452.690949 339.137918 
L 459.233166 338.81995 
L 465.775384 338.660966 
L 472.317602 339.137918 
L 478.859819 339.042527 
L 485.402037 339.106121 
L 491.944254 339.360495 
L 498.486472 339.01073 
L 511.570907 339.106121 
L 524.655343 338.883543 
L 531.19756 339.01073 
L 537.739778 338.883543 
L 544.281996 338.629169 
L 557.366431 338.788153 
L 563.908648 338.660966 
L 570.450866 338.91534 
L 576.993084 338.629169 
L 590.077519 338.724559 
L 596.619737 338.501982 
L 603.161954 338.629169 
L 609.704172 338.470185 
L 616.246389 338.533778 
L 622.788607 338.883543 
L 635.873042 338.692762 
L 648.957478 338.788153 
L 655.499695 338.501982 
L 668.584131 338.724559 
L 675.126348 338.311201 
L 688.210783 338.851746 
L 694.753001 338.660966 
L 701.295219 338.597372 
L 707.837436 338.756356 
L 714.379654 338.660966 
L 727.464089 338.81995 
L 734.006307 338.756356 
L 740.548524 338.947137 
L 753.63296 338.660966 
L 760.175177 338.851746 
L 773.259613 338.470185 
L 779.80183 338.724559 
L 786.344048 338.501982 
L 825.597354 338.756356 
L 832.139571 338.470185 
L 838.681789 338.374794 
L 845.224007 338.533778 
L 884.477312 338.629169 
L 891.01953 338.470185 
L 897.561748 338.660966 
L 910.646183 338.152217 
L 917.1884 338.152217 
L 923.730618 338.406591 
L 930.272836 338.152217 
L 936.815053 338.279404 
L 943.357271 337.993233 
L 949.899489 336.848548 
L 949.899489 336.848548 
" clip-path="url(#p81c482bb17)" style="fill: none; stroke: #7cb5ec; stroke-linecap: square"/>
   </g>
   <g id="line2d_8">
    <path d="M 86.326761 340.314399 
L 92.868979 339.424089 
L 99.411197 339.328698 
L 105.953414 338.756356 
L 112.495632 338.438388 
L 119.03785 337.961436 
L 125.580067 337.770655 
L 138.664502 337.834249 
L 145.20672 337.611671 
L 151.748938 338.184014 
L 164.833373 337.834249 
L 171.375591 338.02503 
L 177.917808 337.738858 
L 184.460026 337.611671 
L 197.544461 337.961436 
L 204.086679 337.770655 
L 217.171114 337.738858 
L 236.797767 337.516281 
L 243.339985 336.880345 
L 249.882202 337.548078 
L 262.966637 337.198313 
L 269.508855 337.42089 
L 276.051073 337.3255 
L 282.59329 336.848548 
L 289.135508 337.261906 
L 295.677726 337.134719 
L 302.219943 337.134719 
L 308.762161 336.912142 
L 315.304378 337.389094 
L 321.846596 336.816751 
L 328.388814 336.784954 
L 334.931031 337.007532 
L 341.473249 336.848548 
L 348.015467 336.816751 
L 354.557684 337.039329 
L 380.726555 336.784954 
L 393.81099 336.880345 
L 400.353208 336.689564 
L 406.895425 337.007532 
L 413.437643 336.880345 
L 419.979861 336.880345 
L 426.522078 337.23011 
L 433.064296 337.071126 
L 439.606513 337.3255 
L 446.148731 337.039329 
L 452.690949 337.134719 
L 459.233166 336.943938 
L 465.775384 336.880345 
L 472.317602 337.357297 
L 485.402037 337.293703 
L 491.944254 337.452687 
L 498.486472 337.261906 
L 505.02869 337.3255 
L 511.570907 337.166516 
L 518.113125 337.134719 
L 524.655343 336.975735 
L 537.739778 337.198313 
L 544.281996 336.816751 
L 557.366431 337.039329 
L 563.908648 336.943938 
L 570.450866 337.134719 
L 576.993084 336.657767 
L 583.535301 336.62597 
L 590.077519 336.848548 
L 596.619737 336.562377 
L 609.704172 336.721361 
L 616.246389 336.62597 
L 622.788607 337.039329 
L 629.330825 336.848548 
L 635.873042 336.816751 
L 642.41526 336.975735 
L 648.957478 336.912142 
L 655.499695 336.53058 
L 662.041913 336.594174 
L 668.584131 336.880345 
L 675.126348 336.62597 
L 681.668566 336.721361 
L 688.210783 336.943938 
L 694.753001 336.880345 
L 701.295219 336.943938 
L 714.379654 336.880345 
L 720.921872 337.198313 
L 734.006307 337.102922 
L 740.548524 337.166516 
L 753.63296 336.753158 
L 760.175177 336.912142 
L 766.717395 336.912142 
L 773.259613 336.594174 
L 779.80183 336.848548 
L 786.344048 336.657767 
L 792.886265 336.816751 
L 799.428483 336.848548 
L 805.970701 336.657767 
L 812.512918 336.721361 
L 825.597354 337.102922 
L 838.681789 336.62597 
L 845.224007 336.721361 
L 851.766224 336.62597 
L 858.308442 337.007532 
L 864.850659 336.816751 
L 884.477312 336.943938 
L 891.01953 336.689564 
L 897.561748 336.816751 
L 917.1884 336.403393 
L 923.730618 336.657767 
L 930.272836 336.498783 
L 936.815053 336.466986 
L 943.357271 336.117222 
L 949.899489 334.972537 
L 949.899489 334.972537 
" clip-path="url(#p81c482bb17)" style="fill: none; stroke: #434348; stroke-linecap: square"/>
   </g>
   <g id="line2d_9">
    <path d="M 86.326761 340.727758 
L 92.868979 339.360495 
L 99.411197 339.360495 
L 105.953414 338.406591 
L 112.495632 338.247607 
L 125.580067 337.452687 
L 132.122285 337.389094 
L 138.664502 337.802452 
L 145.20672 337.42089 
L 151.748938 338.02503 
L 158.291155 337.42089 
L 164.833373 337.357297 
L 171.375591 337.548078 
L 184.460026 337.039329 
L 191.002243 337.579874 
L 197.544461 337.738858 
L 204.086679 337.516281 
L 210.628896 337.579874 
L 223.713332 337.42089 
L 230.255549 337.071126 
L 236.797767 337.23011 
L 243.339985 336.053628 
L 249.882202 337.198313 
L 256.42442 337.293703 
L 262.966637 336.498783 
L 269.508855 337.102922 
L 282.59329 336.403393 
L 289.135508 336.816751 
L 295.677726 336.816751 
L 302.219943 336.498783 
L 308.762161 336.43519 
L 315.304378 337.039329 
L 321.846596 336.498783 
L 328.388814 336.212612 
L 334.931031 336.880345 
L 341.473249 336.308002 
L 348.015467 336.276206 
L 354.557684 336.53058 
L 361.099902 336.43519 
L 367.642119 335.862847 
L 380.726555 336.403393 
L 387.268772 336.594174 
L 393.81099 336.43519 
L 400.353208 336.053628 
L 406.895425 336.562377 
L 413.437643 336.594174 
L 419.979861 336.466986 
L 426.522078 336.975735 
L 433.064296 336.689564 
L 439.606513 337.166516 
L 446.148731 336.816751 
L 459.233166 336.53058 
L 465.775384 336.085425 
L 472.317602 337.071126 
L 478.859819 336.848548 
L 485.402037 336.975735 
L 491.944254 337.42089 
L 498.486472 336.721361 
L 505.02869 337.039329 
L 511.570907 336.880345 
L 518.113125 336.276206 
L 524.655343 336.180815 
L 531.19756 336.562377 
L 550.824213 336.753158 
L 557.366431 336.562377 
L 570.450866 336.53058 
L 583.535301 335.990034 
L 590.077519 336.53058 
L 596.619737 336.085425 
L 603.161954 336.403393 
L 616.246389 336.371596 
L 622.788607 336.721361 
L 635.873042 336.117222 
L 642.41526 336.689564 
L 648.957478 336.62597 
L 655.499695 336.403393 
L 662.041913 336.657767 
L 668.584131 336.53058 
L 675.126348 335.990034 
L 681.668566 336.339799 
L 688.210783 336.816751 
L 694.753001 336.276206 
L 701.295219 336.594174 
L 707.837436 336.371596 
L 714.379654 336.339799 
L 720.921872 336.848548 
L 734.006307 336.62597 
L 740.548524 337.198313 
L 747.090742 336.721361 
L 753.63296 336.53058 
L 760.175177 336.848548 
L 766.717395 337.007532 
L 773.259613 335.926441 
L 779.80183 336.594174 
L 786.344048 336.021831 
L 792.886265 336.43519 
L 799.428483 336.339799 
L 819.055136 336.498783 
L 825.597354 336.753158 
L 832.139571 336.149018 
L 851.766224 336.403393 
L 858.308442 336.562377 
L 864.850659 336.339799 
L 871.392877 336.657767 
L 877.935095 336.403393 
L 884.477312 336.53058 
L 891.01953 336.053628 
L 897.561748 336.403393 
L 904.103965 336.021831 
L 910.646183 335.767457 
L 917.1884 335.258708 
L 923.730618 336.180815 
L 930.272836 335.131521 
L 936.815053 335.703863 
L 943.357271 335.576676 
L 949.899489 331.824654 
L 949.899489 331.824654 
" clip-path="url(#p81c482bb17)" style="fill: none; stroke: #90ed7d; stroke-linecap: square"/>
   </g>
   <g id="line2d_10">
    <path d="M 86.326761 344.193609 
L 92.868979 343.048924 
L 99.411197 343.176111 
L 105.953414 342.412988 
L 112.495632 342.508378 
L 119.03785 342.285801 
L 125.580067 341.20471 
L 132.122285 341.522678 
L 138.664502 342.158614 
L 145.20672 341.713458 
L 151.748938 342.063223 
L 158.291155 341.872442 
L 164.833373 342.254004 
L 177.917808 341.236506 
L 184.460026 340.950335 
L 191.002243 340.854945 
L 197.544461 341.236506 
L 204.086679 341.39549 
L 210.628896 340.950335 
L 217.171114 340.950335 
L 223.713332 340.727758 
L 230.255549 340.155415 
L 236.797767 340.536977 
L 243.339985 338.724559 
L 249.882202 340.695961 
L 256.42442 340.632367 
L 262.966637 339.773854 
L 269.508855 340.441586 
L 276.051073 339.773854 
L 282.59329 339.80565 
L 289.135508 340.060025 
L 295.677726 340.187212 
L 302.219943 339.487682 
L 308.762161 339.455886 
L 315.304378 339.869244 
L 321.846596 339.932838 
L 328.388814 339.487682 
L 334.931031 339.964634 
L 341.473249 339.773854 
L 348.015467 339.233308 
L 354.557684 339.424089 
L 361.099902 339.455886 
L 367.642119 338.788153 
L 374.184337 339.074324 
L 380.726555 339.773854 
L 387.268772 340.314399 
L 393.81099 339.678463 
L 400.353208 339.742057 
L 406.895425 339.964634 
L 413.437643 340.028228 
L 426.522078 339.61487 
L 433.064296 339.583073 
L 439.606513 340.028228 
L 459.233166 339.837447 
L 465.775384 339.328698 
L 472.317602 340.091822 
L 478.859819 340.282602 
L 485.402037 340.123618 
L 491.944254 340.823148 
L 498.486472 340.060025 
L 505.02869 339.61487 
L 511.570907 339.61487 
L 518.113125 339.487682 
L 524.655343 338.597372 
L 531.19756 339.742057 
L 537.739778 340.40979 
L 544.281996 339.424089 
L 550.824213 340.123618 
L 557.366431 338.978934 
L 563.908648 339.773854 
L 576.993084 339.169714 
L 583.535301 339.233308 
L 590.077519 339.742057 
L 596.619737 339.042527 
L 603.161954 339.678463 
L 609.704172 339.424089 
L 616.246389 339.296902 
L 622.788607 339.996431 
L 629.330825 339.01073 
L 635.873042 339.169714 
L 642.41526 339.837447 
L 648.957478 339.042527 
L 655.499695 339.074324 
L 662.041913 339.61487 
L 668.584131 339.932838 
L 675.126348 338.81995 
L 681.668566 339.296902 
L 688.210783 340.282602 
L 694.753001 338.947137 
L 701.295219 339.869244 
L 707.837436 339.837447 
L 714.379654 340.314399 
L 720.921872 339.996431 
L 727.464089 340.123618 
L 734.006307 339.71026 
L 740.548524 340.250806 
L 747.090742 339.678463 
L 753.63296 340.091822 
L 760.175177 339.646666 
L 766.717395 340.155415 
L 773.259613 338.406591 
L 779.80183 339.328698 
L 786.344048 338.756356 
L 792.886265 339.742057 
L 799.428483 339.074324 
L 805.970701 339.487682 
L 819.055136 339.61487 
L 825.597354 339.869244 
L 832.139571 338.660966 
L 845.224007 338.883543 
L 851.766224 339.392292 
L 871.392877 339.646666 
L 877.935095 338.883543 
L 884.477312 339.137918 
L 891.01953 338.91534 
L 897.561748 339.328698 
L 904.103965 338.342998 
L 910.646183 338.311201 
L 917.1884 338.152217 
L 923.730618 338.756356 
L 930.272836 337.548078 
L 936.815053 338.692762 
L 943.357271 337.675265 
L 949.899489 334.590975 
L 949.899489 334.590975 
" clip-path="url(#p81c482bb17)" style="fill: none; stroke: #f7a35c; stroke-linecap: square"/>
   </g>
   <g id="line2d_11">
    <path d="M 86.326761 343.939234 
L 92.868979 343.017127 
L 99.411197 342.571972 
L 105.953414 342.540175 
L 119.03785 342.19041 
L 125.580067 341.109319 
L 132.122285 341.713458 
L 138.664502 341.777052 
L 145.20672 341.522678 
L 151.748938 341.840646 
L 158.291155 341.522678 
L 164.833373 341.745255 
L 171.375591 341.618068 
L 177.917808 341.172913 
L 184.460026 341.236506 
L 197.544461 340.950335 
L 204.086679 341.013929 
L 210.628896 340.664164 
L 217.171114 340.791351 
L 223.713332 340.695961 
L 230.255549 340.250806 
L 236.797767 340.155415 
L 243.339985 338.724559 
L 249.882202 340.314399 
L 256.42442 340.187212 
L 262.966637 339.455886 
L 269.508855 339.487682 
L 276.051073 339.71026 
L 282.59329 339.487682 
L 289.135508 339.773854 
L 302.219943 339.233308 
L 308.762161 338.851746 
L 315.304378 339.837447 
L 321.846596 339.360495 
L 328.388814 339.01073 
L 334.931031 339.646666 
L 341.473249 339.265105 
L 348.015467 339.106121 
L 354.557684 338.692762 
L 361.099902 339.01073 
L 367.642119 338.565575 
L 374.184337 338.597372 
L 380.726555 339.074324 
L 387.268772 339.392292 
L 393.81099 339.01073 
L 400.353208 339.074324 
L 406.895425 339.01073 
L 413.437643 339.296902 
L 426.522078 338.91534 
L 433.064296 338.91534 
L 439.606513 339.487682 
L 446.148731 339.360495 
L 452.690949 339.360495 
L 459.233166 339.201511 
L 465.775384 338.438388 
L 472.317602 339.837447 
L 478.859819 339.360495 
L 485.402037 339.360495 
L 491.944254 339.61487 
L 498.486472 339.265105 
L 505.02869 339.265105 
L 511.570907 339.424089 
L 518.113125 339.137918 
L 524.655343 338.724559 
L 537.739778 339.583073 
L 544.281996 338.91534 
L 550.824213 339.137918 
L 557.366431 338.438388 
L 563.908648 339.169714 
L 570.450866 339.328698 
L 576.993084 338.883543 
L 596.619737 338.883543 
L 603.161954 339.296902 
L 609.704172 338.438388 
L 616.246389 338.851746 
L 629.330825 338.724559 
L 635.873042 338.02503 
L 642.41526 339.106121 
L 648.957478 338.565575 
L 655.499695 339.106121 
L 662.041913 338.81995 
L 668.584131 339.137918 
L 675.126348 338.501982 
L 681.668566 338.91534 
L 688.210783 339.201511 
L 694.753001 338.883543 
L 701.295219 339.583073 
L 707.837436 339.074324 
L 714.379654 339.106121 
L 720.921872 339.487682 
L 727.464089 339.646666 
L 734.006307 338.81995 
L 740.548524 339.646666 
L 747.090742 338.978934 
L 753.63296 339.106121 
L 760.175177 338.883543 
L 766.717395 339.137918 
L 773.259613 338.152217 
L 779.80183 338.91534 
L 786.344048 338.056826 
L 792.886265 339.074324 
L 799.428483 338.756356 
L 805.970701 338.978934 
L 812.512918 339.328698 
L 819.055136 338.788153 
L 825.597354 339.328698 
L 832.139571 337.738858 
L 838.681789 338.565575 
L 845.224007 338.247607 
L 851.766224 339.074324 
L 864.850659 338.851746 
L 871.392877 338.91534 
L 877.935095 338.660966 
L 884.477312 338.660966 
L 891.01953 338.279404 
L 897.561748 339.169714 
L 904.103965 338.02503 
L 910.646183 337.770655 
L 917.1884 337.802452 
L 923.730618 338.184014 
L 930.272836 337.198313 
L 936.815053 337.770655 
L 943.357271 336.721361 
L 949.899489 333.955039 
L 949.899489 333.955039 
" clip-path="url(#p81c482bb17)" style="fill: none; stroke: #8085e9; stroke-linecap: square"/>
   </g>
   <g id="line2d_12">
    <path d="M 86.326761 342.317598 
L 92.868979 341.141116 
L 99.411197 341.141116 
L 105.953414 340.346196 
L 112.495632 340.187212 
L 119.03785 339.837447 
L 125.580067 339.360495 
L 132.122285 339.61487 
L 138.664502 339.646666 
L 145.20672 339.265105 
L 151.748938 339.964634 
L 164.833373 339.487682 
L 171.375591 339.646666 
L 177.917808 339.455886 
L 184.460026 339.106121 
L 191.002243 339.106121 
L 197.544461 339.487682 
L 223.713332 339.296902 
L 230.255549 339.106121 
L 236.797767 339.169714 
L 243.339985 338.21581 
L 249.882202 339.233308 
L 256.42442 339.074324 
L 262.966637 338.374794 
L 269.508855 338.883543 
L 276.051073 338.724559 
L 282.59329 338.374794 
L 289.135508 338.947137 
L 295.677726 338.788153 
L 302.219943 338.374794 
L 308.762161 338.501982 
L 315.304378 339.01073 
L 321.846596 338.501982 
L 328.388814 338.279404 
L 334.931031 338.565575 
L 341.473249 338.533778 
L 348.015467 338.088623 
L 354.557684 338.279404 
L 361.099902 338.311201 
L 367.642119 337.484484 
L 374.184337 337.929639 
L 380.726555 338.12042 
L 387.268772 338.597372 
L 393.81099 338.279404 
L 400.353208 338.311201 
L 413.437643 338.756356 
L 419.979861 338.406591 
L 426.522078 338.565575 
L 433.064296 338.501982 
L 446.148731 338.788153 
L 452.690949 338.756356 
L 459.233166 338.533778 
L 465.775384 338.02503 
L 472.317602 339.106121 
L 485.402037 338.883543 
L 491.944254 339.137918 
L 498.486472 338.724559 
L 505.02869 338.851746 
L 511.570907 338.692762 
L 518.113125 338.724559 
L 524.655343 337.897842 
L 531.19756 338.438388 
L 537.739778 338.788153 
L 544.281996 338.152217 
L 550.824213 338.438388 
L 557.366431 338.279404 
L 563.908648 338.342998 
L 570.450866 338.279404 
L 583.535301 337.866046 
L 590.077519 338.279404 
L 596.619737 338.056826 
L 609.704172 337.961436 
L 622.788607 338.374794 
L 635.873042 338.02503 
L 642.41526 338.279404 
L 648.957478 338.374794 
L 655.499695 338.21581 
L 662.041913 338.342998 
L 668.584131 338.279404 
L 675.126348 337.929639 
L 681.668566 337.866046 
L 688.210783 338.470185 
L 694.753001 338.21581 
L 701.295219 338.692762 
L 707.837436 338.597372 
L 714.379654 338.374794 
L 720.921872 338.692762 
L 727.464089 338.81995 
L 734.006307 338.692762 
L 740.548524 339.01073 
L 747.090742 338.565575 
L 753.63296 338.311201 
L 760.175177 338.406591 
L 766.717395 338.756356 
L 773.259613 337.866046 
L 779.80183 338.12042 
L 786.344048 337.993233 
L 792.886265 338.342998 
L 799.428483 338.12042 
L 805.970701 338.724559 
L 812.512918 338.342998 
L 819.055136 338.279404 
L 825.597354 338.883543 
L 832.139571 337.866046 
L 845.224007 337.866046 
L 851.766224 338.311201 
L 858.308442 338.565575 
L 864.850659 338.12042 
L 871.392877 338.470185 
L 877.935095 338.184014 
L 884.477312 338.279404 
L 891.01953 338.088623 
L 897.561748 338.342998 
L 904.103965 337.675265 
L 910.646183 337.738858 
L 917.1884 337.484484 
L 923.730618 338.02503 
L 930.272836 337.039329 
L 936.815053 337.643468 
L 943.357271 337.261906 
L 949.899489 334.368398 
L 949.899489 334.368398 
" clip-path="url(#p81c482bb17)" style="fill: none; stroke: #f15c80; stroke-linecap: square"/>
   </g>
   <g id="line2d_13">
    <path d="M 86.326761 341.840646 
L 92.868979 341.013929 
L 99.411197 340.950335 
L 105.953414 339.837447 
L 112.495632 340.091822 
L 119.03785 339.80565 
L 125.580067 339.169714 
L 132.122285 339.296902 
L 138.664502 339.583073 
L 145.20672 339.296902 
L 151.748938 339.80565 
L 158.291155 339.742057 
L 164.833373 339.424089 
L 171.375591 339.678463 
L 184.460026 339.137918 
L 191.002243 339.487682 
L 197.544461 339.583073 
L 204.086679 339.424089 
L 217.171114 339.646666 
L 223.713332 339.201511 
L 236.797767 338.978934 
L 243.339985 337.993233 
L 249.882202 339.137918 
L 256.42442 339.042527 
L 262.966637 338.565575 
L 269.508855 339.106121 
L 276.051073 338.947137 
L 282.59329 338.184014 
L 289.135508 339.169714 
L 295.677726 338.947137 
L 302.219943 338.597372 
L 308.762161 338.533778 
L 315.304378 339.265105 
L 321.846596 338.565575 
L 328.388814 338.247607 
L 334.931031 338.91534 
L 341.473249 338.374794 
L 348.015467 338.311201 
L 354.557684 338.470185 
L 361.099902 338.501982 
L 367.642119 337.929639 
L 374.184337 338.565575 
L 380.726555 338.342998 
L 387.268772 338.438388 
L 393.81099 338.756356 
L 400.353208 338.02503 
L 413.437643 338.692762 
L 419.979861 338.565575 
L 426.522078 338.883543 
L 433.064296 339.074324 
L 439.606513 338.978934 
L 446.148731 339.074324 
L 465.775384 338.311201 
L 472.317602 339.137918 
L 478.859819 339.137918 
L 485.402037 338.629169 
L 491.944254 339.519479 
L 498.486472 338.724559 
L 505.02869 339.074324 
L 524.655343 338.501982 
L 537.739778 338.470185 
L 544.281996 338.152217 
L 550.824213 338.788153 
L 557.366431 338.342998 
L 563.908648 338.470185 
L 570.450866 338.756356 
L 576.993084 338.21581 
L 583.535301 338.247607 
L 590.077519 338.406591 
L 596.619737 338.247607 
L 603.161954 338.374794 
L 609.704172 338.12042 
L 622.788607 338.629169 
L 629.330825 338.533778 
L 642.41526 338.501982 
L 648.957478 338.470185 
L 655.499695 338.279404 
L 662.041913 338.597372 
L 668.584131 338.470185 
L 675.126348 337.834249 
L 688.210783 338.629169 
L 694.753001 338.374794 
L 701.295219 338.597372 
L 707.837436 338.533778 
L 714.379654 338.342998 
L 720.921872 338.883543 
L 727.464089 339.137918 
L 734.006307 338.629169 
L 740.548524 339.265105 
L 747.090742 338.533778 
L 753.63296 338.406591 
L 760.175177 338.788153 
L 766.717395 338.692762 
L 773.259613 337.929639 
L 779.80183 338.565575 
L 786.344048 338.152217 
L 792.886265 338.470185 
L 799.428483 338.12042 
L 805.970701 338.438388 
L 812.512918 338.629169 
L 819.055136 338.533778 
L 825.597354 338.565575 
L 832.139571 337.866046 
L 845.224007 338.438388 
L 851.766224 338.438388 
L 858.308442 338.565575 
L 864.850659 338.374794 
L 871.392877 338.533778 
L 884.477312 338.501982 
L 891.01953 338.184014 
L 897.561748 338.533778 
L 904.103965 337.961436 
L 910.646183 337.961436 
L 917.1884 337.23011 
L 923.730618 338.311201 
L 930.272836 337.548078 
L 943.357271 337.42089 
L 949.899489 334.781756 
L 949.899489 334.781756 
" clip-path="url(#p81c482bb17)" style="fill: none; stroke: #e4d354; stroke-linecap: square"/>
   </g>
   <g id="line2d_14">
    <path d="M 86.326761 342.88994 
L 92.868979 341.586271 
L 99.411197 341.840646 
L 105.953414 341.045726 
L 125.580067 339.996431 
L 138.664502 340.155415 
L 145.20672 340.028228 
L 151.748938 340.441586 
L 158.291155 340.40979 
L 164.833373 340.219009 
L 177.917808 340.314399 
L 184.460026 339.80565 
L 191.002243 340.091822 
L 197.544461 340.219009 
L 223.713332 340.060025 
L 230.255549 339.678463 
L 236.797767 339.80565 
L 243.339985 338.947137 
L 249.882202 339.901041 
L 256.42442 339.583073 
L 262.966637 339.106121 
L 269.508855 339.61487 
L 276.051073 339.455886 
L 282.59329 339.169714 
L 289.135508 339.678463 
L 302.219943 339.169714 
L 308.762161 339.074324 
L 315.304378 339.678463 
L 321.846596 339.201511 
L 328.388814 338.91534 
L 334.931031 339.583073 
L 341.473249 339.137918 
L 354.557684 339.106121 
L 361.099902 339.360495 
L 367.642119 338.692762 
L 387.268772 339.360495 
L 393.81099 338.978934 
L 413.437643 339.296902 
L 419.979861 339.201511 
L 426.522078 339.487682 
L 433.064296 339.392292 
L 446.148731 339.678463 
L 452.690949 339.296902 
L 459.233166 339.265105 
L 465.775384 338.91534 
L 472.317602 339.773854 
L 478.859819 339.487682 
L 485.402037 339.487682 
L 491.944254 339.742057 
L 505.02869 339.487682 
L 518.113125 339.455886 
L 524.655343 338.947137 
L 537.739778 339.455886 
L 544.281996 339.074324 
L 570.450866 339.360495 
L 576.993084 338.788153 
L 583.535301 338.756356 
L 590.077519 339.137918 
L 596.619737 338.851746 
L 603.161954 338.978934 
L 609.704172 338.788153 
L 616.246389 338.883543 
L 622.788607 339.201511 
L 635.873042 338.756356 
L 642.41526 339.01073 
L 648.957478 339.106121 
L 655.499695 339.01073 
L 662.041913 339.074324 
L 668.584131 338.978934 
L 675.126348 338.629169 
L 681.668566 338.501982 
L 688.210783 339.360495 
L 694.753001 338.947137 
L 701.295219 339.233308 
L 714.379654 339.201511 
L 727.464089 339.424089 
L 734.006307 339.137918 
L 740.548524 339.519479 
L 747.090742 339.169714 
L 753.63296 339.01073 
L 760.175177 339.233308 
L 766.717395 339.201511 
L 773.259613 338.692762 
L 779.80183 338.565575 
L 792.886265 338.91534 
L 799.428483 338.724559 
L 805.970701 338.978934 
L 812.512918 338.756356 
L 819.055136 338.883543 
L 825.597354 339.233308 
L 832.139571 338.756356 
L 838.681789 338.565575 
L 845.224007 338.565575 
L 851.766224 338.692762 
L 858.308442 338.947137 
L 891.01953 338.533778 
L 897.561748 339.042527 
L 904.103965 338.342998 
L 910.646183 338.12042 
L 917.1884 338.056826 
L 923.730618 338.247607 
L 930.272836 337.548078 
L 936.815053 337.929639 
L 943.357271 337.039329 
L 949.899489 334.114023 
L 949.899489 334.114023 
" clip-path="url(#p81c482bb17)" style="fill: none; stroke: #2b908f; stroke-linecap: square"/>
   </g>
   <g id="line2d_15">
    <path d="M 86.326761 343.144314 
L 92.868979 342.09502 
L 99.411197 342.09502 
L 105.953414 341.268303 
L 112.495632 341.363694 
L 119.03785 341.109319 
L 125.580067 340.568774 
L 132.122285 340.60057 
L 138.664502 340.854945 
L 145.20672 340.568774 
L 151.748938 340.982132 
L 164.833373 340.441586 
L 171.375591 340.759554 
L 177.917808 340.441586 
L 184.460026 340.282602 
L 191.002243 340.473383 
L 197.544461 340.823148 
L 210.628896 340.568774 
L 217.171114 340.632367 
L 230.255549 340.282602 
L 236.797767 340.314399 
L 243.339985 339.424089 
L 249.882202 340.282602 
L 256.42442 340.346196 
L 262.966637 340.028228 
L 276.051073 340.123618 
L 282.59329 339.837447 
L 289.135508 340.060025 
L 295.677726 339.837447 
L 302.219943 339.80565 
L 308.762161 339.61487 
L 315.304378 340.473383 
L 321.846596 339.901041 
L 328.388814 339.61487 
L 334.931031 339.996431 
L 341.473249 339.837447 
L 348.015467 339.265105 
L 354.557684 339.646666 
L 361.099902 339.71026 
L 367.642119 339.01073 
L 374.184337 339.424089 
L 380.726555 339.424089 
L 387.268772 339.742057 
L 393.81099 339.71026 
L 400.353208 339.487682 
L 413.437643 340.028228 
L 419.979861 339.837447 
L 446.148731 340.187212 
L 459.233166 339.996431 
L 465.775384 339.233308 
L 472.317602 340.219009 
L 478.859819 340.219009 
L 491.944254 340.536977 
L 498.486472 340.187212 
L 505.02869 340.219009 
L 511.570907 340.091822 
L 518.113125 339.837447 
L 524.655343 339.169714 
L 531.19756 339.869244 
L 537.739778 340.060025 
L 544.281996 339.455886 
L 550.824213 339.932838 
L 557.366431 339.678463 
L 570.450866 339.773854 
L 576.993084 339.424089 
L 583.535301 339.201511 
L 590.077519 339.678463 
L 596.619737 339.487682 
L 603.161954 339.583073 
L 609.704172 339.455886 
L 616.246389 339.487682 
L 622.788607 339.71026 
L 629.330825 339.71026 
L 635.873042 339.360495 
L 642.41526 339.80565 
L 648.957478 339.901041 
L 655.499695 339.583073 
L 668.584131 339.80565 
L 675.126348 339.296902 
L 681.668566 339.392292 
L 688.210783 339.964634 
L 694.753001 339.583073 
L 701.295219 340.091822 
L 714.379654 339.71026 
L 720.921872 340.123618 
L 727.464089 339.932838 
L 734.006307 339.869244 
L 740.548524 340.250806 
L 747.090742 339.519479 
L 760.175177 339.80565 
L 766.717395 339.996431 
L 773.259613 339.137918 
L 779.80183 339.233308 
L 786.344048 338.851746 
L 792.886265 339.455886 
L 799.428483 339.233308 
L 805.970701 339.773854 
L 812.512918 339.742057 
L 819.055136 339.519479 
L 825.597354 339.901041 
L 832.139571 339.106121 
L 838.681789 339.137918 
L 845.224007 339.328698 
L 851.766224 339.392292 
L 858.308442 339.61487 
L 864.850659 339.296902 
L 871.392877 339.519479 
L 884.477312 339.328698 
L 891.01953 339.01073 
L 897.561748 339.424089 
L 904.103965 338.883543 
L 917.1884 338.374794 
L 923.730618 339.137918 
L 930.272836 338.056826 
L 936.815053 338.374794 
L 943.357271 338.02503 
L 949.899489 335.258708 
L 949.899489 335.258708 
" clip-path="url(#p81c482bb17)" style="fill: none; stroke: #f45b5b; stroke-linecap: square"/>
   </g>
   <g id="line2d_16">
    <path d="M 86.326761 343.271502 
L 92.868979 342.158614 
L 99.411197 342.09502 
L 105.953414 341.363694 
L 112.495632 341.363694 
L 119.03785 341.20471 
L 125.580067 340.40979 
L 138.664502 340.854945 
L 145.20672 340.727758 
L 151.748938 341.20471 
L 158.291155 340.664164 
L 171.375591 340.759554 
L 184.460026 340.314399 
L 197.544461 340.791351 
L 204.086679 340.441586 
L 210.628896 340.50518 
L 217.171114 340.854945 
L 223.713332 340.60057 
L 230.255549 340.219009 
L 236.797767 340.155415 
L 243.339985 339.678463 
L 249.882202 340.346196 
L 262.966637 339.901041 
L 269.508855 340.346196 
L 276.051073 340.060025 
L 282.59329 339.583073 
L 289.135508 340.187212 
L 302.219943 339.80565 
L 308.762161 339.646666 
L 315.304378 340.187212 
L 321.846596 339.61487 
L 328.388814 339.487682 
L 334.931031 340.091822 
L 341.473249 339.551276 
L 348.015467 339.360495 
L 354.557684 339.551276 
L 361.099902 339.455886 
L 367.642119 339.106121 
L 374.184337 339.265105 
L 380.726555 339.61487 
L 387.268772 339.583073 
L 393.81099 339.678463 
L 400.353208 339.487682 
L 406.895425 339.71026 
L 426.522078 339.869244 
L 439.606513 339.996431 
L 446.148731 339.80565 
L 452.690949 339.837447 
L 459.233166 339.71026 
L 465.775384 339.360495 
L 472.317602 340.187212 
L 485.402037 340.028228 
L 491.944254 340.250806 
L 498.486472 339.996431 
L 505.02869 340.155415 
L 511.570907 340.091822 
L 518.113125 339.773854 
L 524.655343 339.137918 
L 531.19756 339.837447 
L 537.739778 339.80565 
L 544.281996 339.455886 
L 550.824213 339.678463 
L 563.908648 339.487682 
L 570.450866 339.678463 
L 576.993084 339.519479 
L 583.535301 339.106121 
L 590.077519 339.678463 
L 596.619737 339.233308 
L 603.161954 339.328698 
L 609.704172 339.233308 
L 616.246389 339.265105 
L 622.788607 339.61487 
L 635.873042 339.424089 
L 642.41526 339.646666 
L 648.957478 339.487682 
L 662.041913 339.487682 
L 668.584131 339.678463 
L 681.668566 339.106121 
L 688.210783 339.551276 
L 694.753001 339.487682 
L 701.295219 339.80565 
L 714.379654 339.678463 
L 720.921872 339.964634 
L 734.006307 339.837447 
L 740.548524 340.250806 
L 753.63296 339.487682 
L 760.175177 339.61487 
L 766.717395 339.964634 
L 773.259613 339.487682 
L 779.80183 339.551276 
L 786.344048 339.074324 
L 792.886265 339.487682 
L 799.428483 339.61487 
L 805.970701 339.392292 
L 812.512918 339.424089 
L 819.055136 339.71026 
L 825.597354 339.869244 
L 832.139571 339.233308 
L 851.766224 339.233308 
L 858.308442 339.583073 
L 864.850659 339.424089 
L 871.392877 339.869244 
L 884.477312 339.455886 
L 897.561748 339.583073 
L 904.103965 339.360495 
L 910.646183 338.883543 
L 917.1884 338.91534 
L 923.730618 339.137918 
L 930.272836 338.629169 
L 936.815053 338.947137 
L 943.357271 338.374794 
L 949.899489 336.149018 
L 949.899489 336.149018 
" clip-path="url(#p81c482bb17)" style="fill: none; stroke: #91e8e1; stroke-linecap: square"/>
   </g>
   <g id="line2d_17">
    <path d="M 86.326761 342.858143 
L 92.868979 341.967833 
L 99.411197 341.745255 
L 105.953414 341.172913 
L 112.495632 341.045726 
L 119.03785 340.632367 
L 125.580067 340.091822 
L 132.122285 340.441586 
L 145.20672 340.377993 
L 151.748938 340.791351 
L 158.291155 340.441586 
L 164.833373 340.346196 
L 171.375591 340.441586 
L 177.917808 340.314399 
L 184.460026 339.996431 
L 191.002243 340.346196 
L 204.086679 340.473383 
L 210.628896 340.155415 
L 217.171114 340.219009 
L 230.255549 339.996431 
L 236.797767 339.996431 
L 243.339985 338.947137 
L 249.882202 340.060025 
L 256.42442 339.996431 
L 262.966637 339.392292 
L 269.508855 339.901041 
L 276.051073 339.837447 
L 282.59329 339.233308 
L 289.135508 339.837447 
L 295.677726 339.773854 
L 302.219943 339.296902 
L 308.762161 339.360495 
L 315.304378 339.932838 
L 321.846596 339.392292 
L 328.388814 339.074324 
L 334.931031 339.646666 
L 341.473249 339.328698 
L 361.099902 339.296902 
L 367.642119 338.91534 
L 380.726555 339.233308 
L 387.268772 339.61487 
L 393.81099 339.487682 
L 400.353208 339.233308 
L 406.895425 339.583073 
L 413.437643 339.71026 
L 433.064296 339.551276 
L 446.148731 340.028228 
L 452.690949 339.678463 
L 459.233166 339.71026 
L 465.775384 338.91534 
L 472.317602 339.964634 
L 478.859819 339.932838 
L 491.944254 340.187212 
L 498.486472 339.646666 
L 505.02869 339.869244 
L 524.655343 339.201511 
L 531.19756 339.455886 
L 537.739778 339.519479 
L 544.281996 339.201511 
L 550.824213 339.61487 
L 563.908648 339.233308 
L 570.450866 339.487682 
L 576.993084 339.042527 
L 583.535301 339.042527 
L 590.077519 339.519479 
L 596.619737 339.042527 
L 609.704172 339.042527 
L 616.246389 339.169714 
L 622.788607 339.61487 
L 629.330825 339.201511 
L 635.873042 338.91534 
L 642.41526 339.360495 
L 655.499695 339.106121 
L 662.041913 339.424089 
L 668.584131 339.392292 
L 675.126348 338.756356 
L 688.210783 339.455886 
L 694.753001 339.265105 
L 707.837436 339.61487 
L 714.379654 339.328698 
L 720.921872 339.742057 
L 727.464089 339.742057 
L 734.006307 339.360495 
L 740.548524 339.646666 
L 753.63296 339.169714 
L 766.717395 339.678463 
L 773.259613 338.788153 
L 779.80183 338.978934 
L 786.344048 338.629169 
L 792.886265 339.169714 
L 799.428483 338.851746 
L 805.970701 339.201511 
L 819.055136 339.169714 
L 825.597354 339.487682 
L 832.139571 338.692762 
L 838.681789 338.851746 
L 845.224007 338.788153 
L 851.766224 338.91534 
L 858.308442 339.392292 
L 864.850659 338.81995 
L 871.392877 339.169714 
L 877.935095 338.91534 
L 884.477312 339.106121 
L 891.01953 338.81995 
L 897.561748 338.883543 
L 904.103965 338.692762 
L 910.646183 338.374794 
L 917.1884 337.929639 
L 923.730618 338.470185 
L 930.272836 337.484484 
L 936.815053 337.993233 
L 943.357271 337.548078 
L 949.899489 334.14582 
L 949.899489 334.14582 
" clip-path="url(#p81c482bb17)" style="fill: none; stroke: #7cb5ec; stroke-linecap: square"/>
   </g>
   <g id="line2d_18">
    <path d="M 86.326761 342.540175 
L 92.868979 341.39549 
L 99.411197 341.236506 
L 112.495632 340.282602 
L 125.580067 339.742057 
L 132.122285 339.932838 
L 138.664502 339.901041 
L 145.20672 339.678463 
L 151.748938 340.219009 
L 158.291155 339.901041 
L 164.833373 339.773854 
L 171.375591 340.028228 
L 177.917808 339.837447 
L 191.002243 339.773854 
L 197.544461 340.028228 
L 204.086679 339.901041 
L 217.171114 339.964634 
L 223.713332 339.742057 
L 236.797767 339.583073 
L 243.339985 339.042527 
L 249.882202 339.742057 
L 262.966637 339.201511 
L 269.508855 339.61487 
L 276.051073 339.455886 
L 282.59329 339.01073 
L 289.135508 339.360495 
L 302.219943 339.296902 
L 308.762161 339.201511 
L 315.304378 339.583073 
L 321.846596 338.947137 
L 328.388814 338.978934 
L 334.931031 339.296902 
L 341.473249 339.042527 
L 348.015467 339.042527 
L 354.557684 339.169714 
L 367.642119 338.788153 
L 387.268772 339.01073 
L 400.353208 338.91534 
L 413.437643 339.201511 
L 419.979861 339.074324 
L 426.522078 339.360495 
L 433.064296 339.233308 
L 439.606513 339.583073 
L 446.148731 339.265105 
L 452.690949 339.233308 
L 459.233166 339.074324 
L 465.775384 339.074324 
L 472.317602 339.455886 
L 485.402037 339.551276 
L 491.944254 339.61487 
L 498.486472 339.265105 
L 505.02869 339.455886 
L 518.113125 339.265105 
L 524.655343 339.042527 
L 537.739778 339.296902 
L 544.281996 338.947137 
L 550.824213 339.137918 
L 557.366431 339.01073 
L 563.908648 339.042527 
L 570.450866 339.296902 
L 576.993084 338.91534 
L 583.535301 338.947137 
L 590.077519 339.137918 
L 596.619737 338.81995 
L 603.161954 338.91534 
L 616.246389 338.851746 
L 622.788607 339.201511 
L 635.873042 338.978934 
L 642.41526 339.233308 
L 655.499695 338.947137 
L 662.041913 338.883543 
L 668.584131 339.137918 
L 675.126348 338.660966 
L 688.210783 339.169714 
L 694.753001 338.947137 
L 701.295219 339.169714 
L 707.837436 339.169714 
L 714.379654 339.042527 
L 720.921872 339.328698 
L 734.006307 339.169714 
L 740.548524 339.392292 
L 747.090742 339.042527 
L 753.63296 338.978934 
L 760.175177 339.137918 
L 766.717395 339.169714 
L 773.259613 338.756356 
L 779.80183 339.042527 
L 786.344048 338.91534 
L 799.428483 338.947137 
L 805.970701 339.042527 
L 819.055136 339.01073 
L 825.597354 339.265105 
L 845.224007 338.947137 
L 858.308442 339.201511 
L 864.850659 338.91534 
L 871.392877 339.042527 
L 897.561748 339.106121 
L 917.1884 338.406591 
L 923.730618 338.629169 
L 930.272836 338.21581 
L 936.815053 338.501982 
L 943.357271 337.961436 
L 949.899489 335.544879 
L 949.899489 335.544879 
" clip-path="url(#p81c482bb17)" style="fill: none; stroke: #434348; stroke-linecap: square"/>
   </g>
   <g id="line2d_19">
    <path d="M 86.326761 347.182508 
L 92.868979 346.641962 
L 99.411197 346.578369 
L 105.953414 346.16501 
L 119.03785 345.878839 
L 125.580067 345.624465 
L 138.664502 345.783449 
L 145.20672 345.688058 
L 151.748938 345.942433 
L 158.291155 345.719855 
L 164.833373 345.624465 
L 177.917808 345.688058 
L 184.460026 345.592668 
L 191.002243 345.719855 
L 204.086679 345.560871 
L 210.628896 345.719855 
L 223.713332 345.592668 
L 230.255549 345.338294 
L 236.797767 345.433684 
L 243.339985 344.924935 
L 249.882202 345.529074 
L 256.42442 345.465481 
L 262.966637 345.2747 
L 269.508855 345.37009 
L 282.59329 344.988529 
L 289.135508 345.401887 
L 302.219943 345.17931 
L 308.762161 345.147513 
L 315.304378 345.37009 
L 321.846596 345.052122 
L 328.388814 344.893138 
L 334.931031 345.2747 
L 348.015467 344.988529 
L 354.557684 345.211106 
L 361.099902 345.083919 
L 367.642119 344.829545 
L 380.726555 345.052122 
L 400.353208 345.020326 
L 413.437643 345.306497 
L 419.979861 345.115716 
L 426.522078 345.242903 
L 433.064296 345.147513 
L 439.606513 345.338294 
L 465.775384 344.893138 
L 472.317602 345.37009 
L 478.859819 345.2747 
L 485.402037 345.306497 
L 491.944254 345.497278 
L 498.486472 345.211106 
L 505.02869 345.37009 
L 524.655343 344.893138 
L 531.19756 345.211106 
L 537.739778 345.242903 
L 544.281996 345.020326 
L 550.824213 345.211106 
L 557.366431 345.083919 
L 563.908648 345.083919 
L 570.450866 345.211106 
L 576.993084 344.893138 
L 583.535301 344.893138 
L 590.077519 345.052122 
L 596.619737 344.924935 
L 609.704172 344.988529 
L 616.246389 344.893138 
L 622.788607 345.020326 
L 635.873042 344.893138 
L 642.41526 345.147513 
L 655.499695 344.893138 
L 668.584131 345.083919 
L 675.126348 344.829545 
L 681.668566 344.861342 
L 688.210783 345.17931 
L 694.753001 344.988529 
L 701.295219 345.115716 
L 714.379654 345.083919 
L 727.464089 345.306497 
L 734.006307 345.020326 
L 740.548524 345.401887 
L 747.090742 345.020326 
L 753.63296 345.147513 
L 766.717395 345.147513 
L 773.259613 344.734154 
L 779.80183 345.020326 
L 786.344048 344.829545 
L 792.886265 344.988529 
L 799.428483 344.924935 
L 812.512918 344.988529 
L 819.055136 344.988529 
L 825.597354 345.147513 
L 832.139571 344.893138 
L 845.224007 344.765951 
L 858.308442 345.17931 
L 864.850659 344.829545 
L 871.392877 344.988529 
L 877.935095 344.893138 
L 884.477312 344.956732 
L 891.01953 344.861342 
L 897.561748 344.956732 
L 904.103965 344.765951 
L 910.646183 344.702358 
L 917.1884 344.38439 
L 923.730618 344.638764 
L 930.272836 344.161812 
L 936.815053 344.161812 
L 943.357271 343.971031 
L 949.899489 341.808849 
L 949.899489 341.808849 
" clip-path="url(#p81c482bb17)" style="fill: none; stroke: #90ed7d; stroke-linecap: square"/>
   </g>
   <g id="line2d_20">
    <path d="M 86.326761 346.832743 
L 92.868979 346.323994 
L 99.411197 346.196807 
L 105.953414 345.783449 
L 112.495632 345.719855 
L 125.580067 345.242903 
L 138.664502 345.465481 
L 145.20672 345.2747 
L 151.748938 345.465481 
L 158.291155 345.433684 
L 164.833373 345.211106 
L 177.917808 345.338294 
L 184.460026 345.17931 
L 197.544461 345.465481 
L 204.086679 345.338294 
L 217.171114 345.37009 
L 230.255549 345.115716 
L 236.797767 345.211106 
L 243.339985 344.734154 
L 249.882202 345.2747 
L 262.966637 344.924935 
L 269.508855 345.211106 
L 276.051073 345.083919 
L 282.59329 344.797748 
L 289.135508 345.115716 
L 308.762161 344.924935 
L 315.304378 345.052122 
L 328.388814 344.765951 
L 334.931031 345.020326 
L 348.015467 344.670561 
L 354.557684 344.956732 
L 361.099902 344.861342 
L 367.642119 344.57517 
L 374.184337 344.765951 
L 387.268772 344.829545 
L 400.353208 344.702358 
L 406.895425 344.893138 
L 446.148731 345.020326 
L 452.690949 344.988529 
L 465.775384 344.702358 
L 472.317602 345.083919 
L 491.944254 345.211106 
L 498.486472 344.956732 
L 511.570907 345.115716 
L 524.655343 344.797748 
L 537.739778 344.988529 
L 544.281996 344.734154 
L 550.824213 344.861342 
L 563.908648 344.765951 
L 570.450866 344.893138 
L 576.993084 344.638764 
L 583.535301 344.57517 
L 590.077519 344.797748 
L 596.619737 344.638764 
L 603.161954 344.861342 
L 616.246389 344.702358 
L 622.788607 344.797748 
L 629.330825 344.702358 
L 642.41526 344.893138 
L 648.957478 344.702358 
L 655.499695 344.670561 
L 668.584131 344.829545 
L 675.126348 344.606967 
L 681.668566 344.606967 
L 688.210783 344.988529 
L 694.753001 344.765951 
L 714.379654 344.829545 
L 720.921872 345.052122 
L 727.464089 344.861342 
L 734.006307 344.829545 
L 740.548524 344.988529 
L 753.63296 344.765951 
L 760.175177 344.956732 
L 766.717395 344.988529 
L 773.259613 344.511577 
L 779.80183 344.765951 
L 786.344048 344.606967 
L 792.886265 344.829545 
L 799.428483 344.606967 
L 805.970701 344.797748 
L 812.512918 344.765951 
L 825.597354 344.956732 
L 832.139571 344.606967 
L 838.681789 344.702358 
L 845.224007 344.511577 
L 851.766224 344.57517 
L 858.308442 344.861342 
L 864.850659 344.702358 
L 871.392877 344.861342 
L 877.935095 344.734154 
L 884.477312 344.893138 
L 891.01953 344.57517 
L 897.561748 344.797748 
L 904.103965 344.47978 
L 917.1884 344.225406 
L 923.730618 344.225406 
L 930.272836 344.034625 
L 936.815053 344.002828 
L 943.357271 343.78025 
L 949.899489 341.713458 
L 949.899489 341.713458 
" clip-path="url(#p81c482bb17)" style="fill: none; stroke: #f7a35c; stroke-linecap: square"/>
   </g>
   <g id="line2d_21">
    <path d="M 86.326761 343.653063 
L 92.868979 342.603769 
L 99.411197 342.571972 
L 105.953414 341.99963 
L 112.495632 341.745255 
L 119.03785 341.20471 
L 132.122285 341.077522 
L 138.664502 341.236506 
L 145.20672 341.172913 
L 151.748938 341.490881 
L 164.833373 341.109319 
L 171.375591 341.268303 
L 191.002243 341.268303 
L 197.544461 341.39549 
L 204.086679 341.172913 
L 223.713332 341.077522 
L 236.797767 340.886742 
L 243.339985 340.441586 
L 249.882202 341.045726 
L 256.42442 340.982132 
L 262.966637 340.60057 
L 269.508855 341.013929 
L 276.051073 340.918538 
L 282.59329 340.40979 
L 289.135508 340.727758 
L 308.762161 340.50518 
L 315.304378 340.791351 
L 321.846596 340.441586 
L 328.388814 340.377993 
L 334.931031 340.664164 
L 341.473249 340.40979 
L 348.015467 340.377993 
L 361.099902 340.536977 
L 367.642119 340.314399 
L 374.184337 340.282602 
L 380.726555 340.441586 
L 387.268772 340.282602 
L 393.81099 340.377993 
L 400.353208 340.314399 
L 413.437643 340.536977 
L 419.979861 340.40979 
L 426.522078 340.664164 
L 433.064296 340.60057 
L 439.606513 340.695961 
L 446.148731 340.60057 
L 452.690949 340.727758 
L 459.233166 340.473383 
L 465.775384 340.377993 
L 472.317602 340.918538 
L 478.859819 340.791351 
L 485.402037 340.791351 
L 491.944254 340.950335 
L 505.02869 340.727758 
L 511.570907 340.759554 
L 518.113125 340.473383 
L 524.655343 340.346196 
L 531.19756 340.632367 
L 537.739778 340.60057 
L 544.281996 340.441586 
L 570.450866 340.60057 
L 583.535301 340.377993 
L 590.077519 340.536977 
L 596.619737 340.282602 
L 603.161954 340.441586 
L 616.246389 340.219009 
L 622.788607 340.473383 
L 629.330825 340.40979 
L 642.41526 340.50518 
L 668.584131 340.40979 
L 675.126348 340.123618 
L 681.668566 340.282602 
L 688.210783 340.60057 
L 694.753001 340.473383 
L 701.295219 340.60057 
L 714.379654 340.50518 
L 720.921872 340.727758 
L 734.006307 340.568774 
L 740.548524 340.791351 
L 747.090742 340.50518 
L 753.63296 340.40979 
L 760.175177 340.536977 
L 766.717395 340.50518 
L 773.259613 340.282602 
L 779.80183 340.40979 
L 786.344048 340.282602 
L 805.970701 340.441586 
L 812.512918 340.346196 
L 819.055136 340.60057 
L 825.597354 340.695961 
L 832.139571 340.40979 
L 838.681789 340.441586 
L 845.224007 340.314399 
L 884.477312 340.664164 
L 891.01953 340.40979 
L 897.561748 340.473383 
L 910.646183 340.091822 
L 923.730618 340.123618 
L 930.272836 339.71026 
L 936.815053 339.901041 
L 943.357271 339.773854 
L 949.899489 337.484484 
L 949.899489 337.484484 
" clip-path="url(#p81c482bb17)" style="fill: none; stroke: #8085e9; stroke-linecap: square"/>
   </g>
   <g id="line2d_22">
    <path d="M 86.326761 345.878839 
L 92.868979 345.083919 
L 99.411197 345.020326 
L 105.953414 344.543374 
L 112.495632 344.447983 
L 125.580067 343.939234 
L 132.122285 343.907438 
L 138.664502 344.066422 
L 145.20672 343.875641 
L 151.748938 344.225406 
L 158.291155 344.098218 
L 164.833373 343.843844 
L 171.375591 344.034625 
L 191.002243 344.002828 
L 204.086679 344.066422 
L 210.628896 343.971031 
L 217.171114 344.066422 
L 223.713332 343.971031 
L 230.255549 343.748454 
L 236.797767 343.843844 
L 243.339985 343.303298 
L 249.882202 343.812047 
L 262.966637 343.462282 
L 269.508855 343.812047 
L 276.051073 343.716657 
L 282.59329 343.430486 
L 289.135508 343.621266 
L 295.677726 343.621266 
L 308.762161 343.398689 
L 315.304378 343.716657 
L 321.846596 343.366892 
L 328.388814 343.366892 
L 334.931031 343.494079 
L 341.473249 343.335095 
L 348.015467 343.335095 
L 354.557684 343.462282 
L 367.642119 343.207908 
L 393.81099 343.303298 
L 400.353208 343.207908 
L 413.437643 343.525876 
L 419.979861 343.366892 
L 426.522078 343.462282 
L 433.064296 343.366892 
L 439.606513 343.494079 
L 446.148731 343.430486 
L 452.690949 343.494079 
L 459.233166 343.366892 
L 465.775384 343.080721 
L 472.317602 343.494079 
L 478.859819 343.621266 
L 511.570907 343.525876 
L 524.655343 343.271502 
L 531.19756 343.494079 
L 537.739778 343.462282 
L 544.281996 343.239705 
L 550.824213 343.398689 
L 570.450866 343.303298 
L 576.993084 343.048924 
L 583.535301 343.112518 
L 590.077519 343.303298 
L 596.619737 343.112518 
L 609.704172 343.176111 
L 616.246389 343.176111 
L 622.788607 343.366892 
L 629.330825 343.207908 
L 642.41526 343.271502 
L 648.957478 343.335095 
L 662.041913 343.176111 
L 668.584131 343.366892 
L 675.126348 342.953534 
L 688.210783 343.430486 
L 694.753001 343.207908 
L 707.837436 343.303298 
L 714.379654 343.271502 
L 727.464089 343.430486 
L 734.006307 343.366892 
L 740.548524 343.525876 
L 747.090742 343.239705 
L 753.63296 343.176111 
L 766.717395 343.398689 
L 773.259613 343.080721 
L 779.80183 343.207908 
L 786.344048 343.112518 
L 825.597354 343.398689 
L 832.139571 343.112518 
L 858.308442 343.271502 
L 864.850659 343.112518 
L 877.935095 343.271502 
L 884.477312 343.271502 
L 891.01953 343.112518 
L 897.561748 343.176111 
L 910.646183 343.017127 
L 917.1884 342.730956 
L 923.730618 342.88994 
L 930.272836 342.571972 
L 936.815053 342.635566 
L 943.357271 342.412988 
L 949.899489 340.40979 
L 949.899489 340.40979 
" clip-path="url(#p81c482bb17)" style="fill: none; stroke: #f15c80; stroke-linecap: square"/>
   </g>
   <g id="line2d_23">
    <path d="M 86.326761 341.649865 
L 92.868979 340.632367 
L 99.411197 340.40979 
L 105.953414 339.455886 
L 119.03785 339.106121 
L 125.580067 338.597372 
L 132.122285 338.660966 
L 138.664502 339.074324 
L 145.20672 338.756356 
L 151.748938 339.233308 
L 158.291155 339.137918 
L 164.833373 338.851746 
L 171.375591 338.978934 
L 177.917808 338.883543 
L 184.460026 338.597372 
L 191.002243 338.692762 
L 197.544461 339.106121 
L 204.086679 338.724559 
L 223.713332 338.947137 
L 230.255549 338.692762 
L 236.797767 338.724559 
L 243.339985 337.516281 
L 249.882202 338.788153 
L 262.966637 338.056826 
L 269.508855 338.81995 
L 276.051073 338.279404 
L 282.59329 337.897842 
L 289.135508 338.406591 
L 308.762161 337.897842 
L 315.304378 338.692762 
L 321.846596 337.961436 
L 328.388814 337.611671 
L 334.931031 338.438388 
L 341.473249 337.866046 
L 348.015467 337.738858 
L 354.557684 337.961436 
L 361.099902 337.929639 
L 367.642119 337.134719 
L 374.184337 337.548078 
L 380.726555 337.802452 
L 387.268772 337.897842 
L 393.81099 338.12042 
L 400.353208 337.675265 
L 413.437643 338.056826 
L 419.979861 337.961436 
L 426.522078 338.279404 
L 439.606513 338.438388 
L 446.148731 338.501982 
L 459.233166 338.02503 
L 465.775384 337.707062 
L 472.317602 338.756356 
L 485.402037 338.533778 
L 491.944254 339.074324 
L 498.486472 338.152217 
L 505.02869 338.406591 
L 511.570907 338.184014 
L 518.113125 338.152217 
L 524.655343 337.738858 
L 531.19756 338.12042 
L 537.739778 338.184014 
L 544.281996 337.897842 
L 550.824213 338.374794 
L 563.908648 337.802452 
L 570.450866 337.961436 
L 576.993084 337.707062 
L 583.535301 337.834249 
L 590.077519 338.152217 
L 596.619737 337.738858 
L 603.161954 338.02503 
L 609.704172 337.866046 
L 635.873042 337.929639 
L 642.41526 338.184014 
L 655.499695 337.961436 
L 662.041913 337.929639 
L 668.584131 338.152217 
L 675.126348 337.452687 
L 681.668566 337.834249 
L 688.210783 338.342998 
L 694.753001 337.897842 
L 707.837436 338.056826 
L 714.379654 337.866046 
L 720.921872 338.660966 
L 727.464089 338.342998 
L 734.006307 338.152217 
L 740.548524 338.692762 
L 747.090742 338.184014 
L 753.63296 337.866046 
L 760.175177 338.342998 
L 766.717395 338.501982 
L 773.259613 337.643468 
L 779.80183 337.897842 
L 786.344048 337.802452 
L 792.886265 338.056826 
L 799.428483 337.961436 
L 805.970701 338.279404 
L 812.512918 337.866046 
L 819.055136 338.12042 
L 825.597354 338.533778 
L 832.139571 337.707062 
L 845.224007 337.675265 
L 858.308442 338.02503 
L 871.392877 337.993233 
L 884.477312 338.152217 
L 891.01953 337.548078 
L 897.561748 338.152217 
L 910.646183 337.102922 
L 917.1884 337.007532 
L 923.730618 337.484484 
L 930.272836 336.689564 
L 936.815053 337.198313 
L 943.357271 336.403393 
L 949.899489 333.859649 
L 949.899489 333.859649 
" clip-path="url(#p81c482bb17)" style="fill: none; stroke: #e4d354; stroke-linecap: square"/>
   </g>
   <g id="line2d_24">
    <path d="M 43.148125 353.2239 
L 993.078125 353.2239 
" clip-path="url(#p81c482bb17)" style="fill: none; stroke: #dedede; stroke-width: 2; stroke-linecap: square"/>
   </g>
   <g id="text_16">
    <!-- Bismark: M-Bias -->
    <g transform="translate(454.100625 19.3575)scale(0.16 -0.16)">
     <defs>
      <path id="DejaVuSans-42" d="M 1259 2228 
L 1259 519 
L 2272 519 
Q 2781 519 3026 730 
Q 3272 941 3272 1375 
Q 3272 1813 3026 2020 
Q 2781 2228 2272 2228 
L 1259 2228 
z
M 1259 4147 
L 1259 2741 
L 2194 2741 
Q 2656 2741 2882 2914 
Q 3109 3088 3109 3444 
Q 3109 3797 2882 3972 
Q 2656 4147 2194 4147 
L 1259 4147 
z
M 628 4666 
L 2241 4666 
Q 2963 4666 3353 4366 
Q 3744 4066 3744 3513 
Q 3744 3084 3544 2831 
Q 3344 2578 2956 2516 
Q 3422 2416 3680 2098 
Q 3938 1781 3938 1306 
Q 3938 681 3513 340 
Q 3088 0 2303 0 
L 628 0 
L 628 4666 
z
" transform="scale(0.015625)"/>
      <path id="DejaVuSans-6d" d="M 3328 2828 
Q 3544 3216 3844 3400 
Q 4144 3584 4550 3584 
Q 5097 3584 5394 3201 
Q 5691 2819 5691 2113 
L 5691 0 
L 5113 0 
L 5113 2094 
Q 5113 2597 4934 2840 
Q 4756 3084 4391 3084 
Q 3944 3084 3684 2787 
Q 3425 2491 3425 1978 
L 3425 0 
L 2847 0 
L 2847 2094 
Q 2847 2600 2669 2842 
Q 2491 3084 2119 3084 
Q 1678 3084 1418 2786 
Q 1159 2488 1159 1978 
L 1159 0 
L 581 0 
L 581 3500 
L 1159 3500 
L 1159 2956 
Q 1356 3278 1631 3431 
Q 1906 3584 2284 3584 
Q 2666 3584 2933 3390 
Q 3200 3197 3328 2828 
z
" transform="scale(0.015625)"/>
      <path id="DejaVuSans-72" d="M 2631 2963 
Q 2534 3019 2420 3045 
Q 2306 3072 2169 3072 
Q 1681 3072 1420 2755 
Q 1159 2438 1159 1844 
L 1159 0 
L 581 0 
L 581 3500 
L 1159 3500 
L 1159 2956 
Q 1341 3275 1631 3429 
Q 1922 3584 2338 3584 
Q 2397 3584 2469 3576 
Q 2541 3569 2628 3553 
L 2631 2963 
z
" transform="scale(0.015625)"/>
      <path id="DejaVuSans-6b" d="M 581 4863 
L 1159 4863 
L 1159 1991 
L 2875 3500 
L 3609 3500 
L 1753 1863 
L 3688 0 
L 2938 0 
L 1159 1709 
L 1159 0 
L 581 0 
L 581 4863 
z
" transform="scale(0.015625)"/>
      <path id="DejaVuSans-3a" d="M 750 794 
L 1409 794 
L 1409 0 
L 750 0 
L 750 794 
z
M 750 3309 
L 1409 3309 
L 1409 2516 
L 750 2516 
L 750 3309 
z
" transform="scale(0.015625)"/>
      <path id="DejaVuSans-2d" d="M 313 2009 
L 1997 2009 
L 1997 1497 
L 313 1497 
L 313 2009 
z
" transform="scale(0.015625)"/>
     </defs>
     <use xlink:href="#DejaVuSans-42"/>
     <use xlink:href="#DejaVuSans-69" x="68.603516"/>
     <use xlink:href="#DejaVuSans-73" x="96.386719"/>
     <use xlink:href="#DejaVuSans-6d" x="148.486328"/>
     <use xlink:href="#DejaVuSans-61" x="245.898438"/>
     <use xlink:href="#DejaVuSans-72" x="307.177734"/>
     <use xlink:href="#DejaVuSans-6b" x="348.291016"/>
     <use xlink:href="#DejaVuSans-3a" x="406.201172"/>
     <use xlink:href="#DejaVuSans-20" x="439.892578"/>
     <use xlink:href="#DejaVuSans-4d" x="471.679688"/>
     <use xlink:href="#DejaVuSans-2d" x="557.958984"/>
     <use xlink:href="#DejaVuSans-42" x="590.417969"/>
     <use xlink:href="#DejaVuSans-69" x="659.021484"/>
     <use xlink:href="#DejaVuSans-61" x="686.804688"/>
     <use xlink:href="#DejaVuSans-73" x="748.083984"/>
    </g>
   </g>
  </g>
 </g>
 <defs>
  <clipPath id="p81c482bb17">
   <rect x="43.148125" y="35.2559" width="949.93" height="317.968"/>
  </clipPath>
 </defs>
</svg>
