<?xml version="1.0" encoding="utf-8" standalone="no"?>
<!DOCTYPE svg PUBLIC "-//W3C//DTD SVG 1.1//EN"
  "http://www.w3.org/Graphics/SVG/1.1/DTD/svg11.dtd">
<svg xmlns:xlink="http://www.w3.org/1999/xlink" width="1000.278125pt" height="388.844525pt" viewBox="0 0 1000.278125 388.844525" xmlns="http://www.w3.org/2000/svg" version="1.1">
 <metadata>
  <rdf:RDF xmlns:dc="http://purl.org/dc/elements/1.1/" xmlns:cc="http://creativecommons.org/ns#" xmlns:rdf="http://www.w3.org/1999/02/22-rdf-syntax-ns#">
   <cc:Work>
    <dc:type rdf:resource="http://purl.org/dc/dcmitype/StillImage"/>
    <dc:date>2023-04-18T05:56:23.231630</dc:date>
    <dc:format>image/svg+xml</dc:format>
    <dc:creator>
     <cc:Agent>
      <dc:title>Matplotlib v3.5.3, https://matplotlib.org/</dc:title>
     </cc:Agent>
    </dc:creator>
   </cc:Work>
  </rdf:RDF>
 </metadata>
 <defs>
  <style type="text/css">*{stroke-linejoin: round; stroke-linecap: butt}</style>
 </defs>
 <g id="figure_1">
  <g id="axes_1">
   <g id="patch_1">
    <path d="M 43.148125 353.2239 
L 993.078125 353.2239 
L 993.078125 35.2559 
L 43.148125 35.2559 
z
" style="fill: #ffffff"/>
   </g>
   <g id="matplotlib.axis_1">
    <g id="xtick_1">
     <g id="text_1">
      <!-- 0 -->
      <g transform="translate(77.138894 366.30265)scale(0.08 -0.08)">
       <defs>
        <path id="DejaVuSans-30" d="M 2034 4250 
Q 1547 4250 1301 3770 
Q 1056 3291 1056 2328 
Q 1056 1369 1301 889 
Q 1547 409 2034 409 
Q 2525 409 2770 889 
Q 3016 1369 3016 2328 
Q 3016 3291 2770 3770 
Q 2525 4250 2034 4250 
z
M 2034 4750 
Q 2819 4750 3233 4129 
Q 3647 3509 3647 2328 
Q 3647 1150 3233 529 
Q 2819 -91 2034 -91 
Q 1250 -91 836 529 
Q 422 1150 422 2328 
Q 422 3509 836 4129 
Q 1250 4750 2034 4750 
z
" transform="scale(0.015625)"/>
       </defs>
       <use xlink:href="#DejaVuSans-30"/>
      </g>
     </g>
    </g>
    <g id="xtick_2">
     <g id="text_2">
      <!-- 20 -->
      <g transform="translate(207.451237 366.30265)scale(0.08 -0.08)">
       <defs>
        <path id="DejaVuSans-32" d="M 1228 531 
L 3431 531 
L 3431 0 
L 469 0 
L 469 531 
Q 828 903 1448 1529 
Q 2069 2156 2228 2338 
Q 2531 2678 2651 2914 
Q 2772 3150 2772 3378 
Q 2772 3750 2511 3984 
Q 2250 4219 1831 4219 
Q 1534 4219 1204 4116 
Q 875 4013 500 3803 
L 500 4441 
Q 881 4594 1212 4672 
Q 1544 4750 1819 4750 
Q 2544 4750 2975 4387 
Q 3406 4025 3406 3419 
Q 3406 3131 3298 2873 
Q 3191 2616 2906 2266 
Q 2828 2175 2409 1742 
Q 1991 1309 1228 531 
z
" transform="scale(0.015625)"/>
       </defs>
       <use xlink:href="#DejaVuSans-32"/>
       <use xlink:href="#DejaVuSans-30" x="63.623047"/>
      </g>
     </g>
    </g>
    <g id="xtick_3">
     <g id="text_3">
      <!-- 40 -->
      <g transform="translate(340.30858 366.30265)scale(0.08 -0.08)">
       <defs>
        <path id="DejaVuSans-34" d="M 2419 4116 
L 825 1625 
L 2419 1625 
L 2419 4116 
z
M 2253 4666 
L 3047 4666 
L 3047 1625 
L 3713 1625 
L 3713 1100 
L 3047 1100 
L 3047 0 
L 2419 0 
L 2419 1100 
L 313 1100 
L 313 1709 
L 2253 4666 
z
" transform="scale(0.015625)"/>
       </defs>
       <use xlink:href="#DejaVuSans-34"/>
       <use xlink:href="#DejaVuSans-30" x="63.623047"/>
      </g>
     </g>
    </g>
    <g id="xtick_4">
     <g id="text_4">
      <!-- 60 -->
      <g transform="translate(473.165922 366.30265)scale(0.08 -0.08)">
       <defs>
        <path id="DejaVuSans-36" d="M 2113 2584 
Q 1688 2584 1439 2293 
Q 1191 2003 1191 1497 
Q 1191 994 1439 701 
Q 1688 409 2113 409 
Q 2538 409 2786 701 
Q 3034 994 3034 1497 
Q 3034 2003 2786 2293 
Q 2538 2584 2113 2584 
z
M 3366 4563 
L 3366 3988 
Q 3128 4100 2886 4159 
Q 2644 4219 2406 4219 
Q 1781 4219 1451 3797 
Q 1122 3375 1075 2522 
Q 1259 2794 1537 2939 
Q 1816 3084 2150 3084 
Q 2853 3084 3261 2657 
Q 3669 2231 3669 1497 
Q 3669 778 3244 343 
Q 2819 -91 2113 -91 
Q 1303 -91 875 529 
Q 447 1150 447 2328 
Q 447 3434 972 4092 
Q 1497 4750 2381 4750 
Q 2619 4750 2861 4703 
Q 3103 4656 3366 4563 
z
" transform="scale(0.015625)"/>
       </defs>
       <use xlink:href="#DejaVuSans-36"/>
       <use xlink:href="#DejaVuSans-30" x="63.623047"/>
      </g>
     </g>
    </g>
    <g id="xtick_5">
     <g id="text_5">
      <!-- 80 -->
      <g transform="translate(606.023265 366.30265)scale(0.08 -0.08)">
       <defs>
        <path id="DejaVuSans-38" d="M 2034 2216 
Q 1584 2216 1326 1975 
Q 1069 1734 1069 1313 
Q 1069 891 1326 650 
Q 1584 409 2034 409 
Q 2484 409 2743 651 
Q 3003 894 3003 1313 
Q 3003 1734 2745 1975 
Q 2488 2216 2034 2216 
z
M 1403 2484 
Q 997 2584 770 2862 
Q 544 3141 544 3541 
Q 544 4100 942 4425 
Q 1341 4750 2034 4750 
Q 2731 4750 3128 4425 
Q 3525 4100 3525 3541 
Q 3525 3141 3298 2862 
Q 3072 2584 2669 2484 
Q 3125 2378 3379 2068 
Q 3634 1759 3634 1313 
Q 3634 634 3220 271 
Q 2806 -91 2034 -91 
Q 1263 -91 848 271 
Q 434 634 434 1313 
Q 434 1759 690 2068 
Q 947 2378 1403 2484 
z
M 1172 3481 
Q 1172 3119 1398 2916 
Q 1625 2713 2034 2713 
Q 2441 2713 2670 2916 
Q 2900 3119 2900 3481 
Q 2900 3844 2670 4047 
Q 2441 4250 2034 4250 
Q 1625 4250 1398 4047 
Q 1172 3844 1172 3481 
z
" transform="scale(0.015625)"/>
       </defs>
       <use xlink:href="#DejaVuSans-38"/>
       <use xlink:href="#DejaVuSans-30" x="63.623047"/>
      </g>
     </g>
    </g>
    <g id="xtick_6">
     <g id="text_6">
      <!-- 100 -->
      <g transform="translate(736.335608 366.30265)scale(0.08 -0.08)">
       <defs>
        <path id="DejaVuSans-31" d="M 794 531 
L 1825 531 
L 1825 4091 
L 703 3866 
L 703 4441 
L 1819 4666 
L 2450 4666 
L 2450 531 
L 3481 531 
L 3481 0 
L 794 0 
L 794 531 
z
" transform="scale(0.015625)"/>
       </defs>
       <use xlink:href="#DejaVuSans-31"/>
       <use xlink:href="#DejaVuSans-30" x="63.623047"/>
       <use xlink:href="#DejaVuSans-30" x="127.246094"/>
      </g>
     </g>
    </g>
    <g id="xtick_7">
     <g id="text_7">
      <!-- 120 -->
      <g transform="translate(869.19295 366.30265)scale(0.08 -0.08)">
       <use xlink:href="#DejaVuSans-31"/>
       <use xlink:href="#DejaVuSans-32" x="63.623047"/>
       <use xlink:href="#DejaVuSans-30" x="127.246094"/>
      </g>
     </g>
    </g>
    <g id="text_8">
     <!-- Position (bp) -->
     <g transform="translate(486.81 379.564837)scale(0.1 -0.1)">
      <defs>
       <path id="DejaVuSans-50" d="M 1259 4147 
L 1259 2394 
L 2053 2394 
Q 2494 2394 2734 2622 
Q 2975 2850 2975 3272 
Q 2975 3691 2734 3919 
Q 2494 4147 2053 4147 
L 1259 4147 
z
M 628 4666 
L 2053 4666 
Q 2838 4666 3239 4311 
Q 3641 3956 3641 3272 
Q 3641 2581 3239 2228 
Q 2838 1875 2053 1875 
L 1259 1875 
L 1259 0 
L 628 0 
L 628 4666 
z
" transform="scale(0.015625)"/>
       <path id="DejaVuSans-6f" d="M 1959 3097 
Q 1497 3097 1228 2736 
Q 959 2375 959 1747 
Q 959 1119 1226 758 
Q 1494 397 1959 397 
Q 2419 397 2687 759 
Q 2956 1122 2956 1747 
Q 2956 2369 2687 2733 
Q 2419 3097 1959 3097 
z
M 1959 3584 
Q 2709 3584 3137 3096 
Q 3566 2609 3566 1747 
Q 3566 888 3137 398 
Q 2709 -91 1959 -91 
Q 1206 -91 779 398 
Q 353 888 353 1747 
Q 353 2609 779 3096 
Q 1206 3584 1959 3584 
z
" transform="scale(0.015625)"/>
       <path id="DejaVuSans-73" d="M 2834 3397 
L 2834 2853 
Q 2591 2978 2328 3040 
Q 2066 3103 1784 3103 
Q 1356 3103 1142 2972 
Q 928 2841 928 2578 
Q 928 2378 1081 2264 
Q 1234 2150 1697 2047 
L 1894 2003 
Q 2506 1872 2764 1633 
Q 3022 1394 3022 966 
Q 3022 478 2636 193 
Q 2250 -91 1575 -91 
Q 1294 -91 989 -36 
Q 684 19 347 128 
L 347 722 
Q 666 556 975 473 
Q 1284 391 1588 391 
Q 1994 391 2212 530 
Q 2431 669 2431 922 
Q 2431 1156 2273 1281 
Q 2116 1406 1581 1522 
L 1381 1569 
Q 847 1681 609 1914 
Q 372 2147 372 2553 
Q 372 3047 722 3315 
Q 1072 3584 1716 3584 
Q 2034 3584 2315 3537 
Q 2597 3491 2834 3397 
z
" transform="scale(0.015625)"/>
       <path id="DejaVuSans-69" d="M 603 3500 
L 1178 3500 
L 1178 0 
L 603 0 
L 603 3500 
z
M 603 4863 
L 1178 4863 
L 1178 4134 
L 603 4134 
L 603 4863 
z
" transform="scale(0.015625)"/>
       <path id="DejaVuSans-74" d="M 1172 4494 
L 1172 3500 
L 2356 3500 
L 2356 3053 
L 1172 3053 
L 1172 1153 
Q 1172 725 1289 603 
Q 1406 481 1766 481 
L 2356 481 
L 2356 0 
L 1766 0 
Q 1100 0 847 248 
Q 594 497 594 1153 
L 594 3053 
L 172 3053 
L 172 3500 
L 594 3500 
L 594 4494 
L 1172 4494 
z
" transform="scale(0.015625)"/>
       <path id="DejaVuSans-6e" d="M 3513 2113 
L 3513 0 
L 2938 0 
L 2938 2094 
Q 2938 2591 2744 2837 
Q 2550 3084 2163 3084 
Q 1697 3084 1428 2787 
Q 1159 2491 1159 1978 
L 1159 0 
L 581 0 
L 581 3500 
L 1159 3500 
L 1159 2956 
Q 1366 3272 1645 3428 
Q 1925 3584 2291 3584 
Q 2894 3584 3203 3211 
Q 3513 2838 3513 2113 
z
" transform="scale(0.015625)"/>
       <path id="DejaVuSans-20" transform="scale(0.015625)"/>
       <path id="DejaVuSans-28" d="M 1984 4856 
Q 1566 4138 1362 3434 
Q 1159 2731 1159 2009 
Q 1159 1288 1364 580 
Q 1569 -128 1984 -844 
L 1484 -844 
Q 1016 -109 783 600 
Q 550 1309 550 2009 
Q 550 2706 781 3412 
Q 1013 4119 1484 4856 
L 1984 4856 
z
" transform="scale(0.015625)"/>
       <path id="DejaVuSans-62" d="M 3116 1747 
Q 3116 2381 2855 2742 
Q 2594 3103 2138 3103 
Q 1681 3103 1420 2742 
Q 1159 2381 1159 1747 
Q 1159 1113 1420 752 
Q 1681 391 2138 391 
Q 2594 391 2855 752 
Q 3116 1113 3116 1747 
z
M 1159 2969 
Q 1341 3281 1617 3432 
Q 1894 3584 2278 3584 
Q 2916 3584 3314 3078 
Q 3713 2572 3713 1747 
Q 3713 922 3314 415 
Q 2916 -91 2278 -91 
Q 1894 -91 1617 61 
Q 1341 213 1159 525 
L 1159 0 
L 581 0 
L 581 4863 
L 1159 4863 
L 1159 2969 
z
" transform="scale(0.015625)"/>
       <path id="DejaVuSans-70" d="M 1159 525 
L 1159 -1331 
L 581 -1331 
L 581 3500 
L 1159 3500 
L 1159 2969 
Q 1341 3281 1617 3432 
Q 1894 3584 2278 3584 
Q 2916 3584 3314 3078 
Q 3713 2572 3713 1747 
Q 3713 922 3314 415 
Q 2916 -91 2278 -91 
Q 1894 -91 1617 61 
Q 1341 213 1159 525 
z
M 3116 1747 
Q 3116 2381 2855 2742 
Q 2594 3103 2138 3103 
Q 1681 3103 1420 2742 
Q 1159 2381 1159 1747 
Q 1159 1113 1420 752 
Q 1681 391 2138 391 
Q 2594 391 2855 752 
Q 3116 1113 3116 1747 
z
" transform="scale(0.015625)"/>
       <path id="DejaVuSans-29" d="M 513 4856 
L 1013 4856 
Q 1481 4119 1714 3412 
Q 1947 2706 1947 2009 
Q 1947 1309 1714 600 
Q 1481 -109 1013 -844 
L 513 -844 
Q 928 -128 1133 580 
Q 1338 1288 1338 2009 
Q 1338 2731 1133 3434 
Q 928 4138 513 4856 
z
" transform="scale(0.015625)"/>
      </defs>
      <use xlink:href="#DejaVuSans-50"/>
      <use xlink:href="#DejaVuSans-6f" x="56.677734"/>
      <use xlink:href="#DejaVuSans-73" x="117.859375"/>
      <use xlink:href="#DejaVuSans-69" x="169.958984"/>
      <use xlink:href="#DejaVuSans-74" x="197.742188"/>
      <use xlink:href="#DejaVuSans-69" x="236.951172"/>
      <use xlink:href="#DejaVuSans-6f" x="264.734375"/>
      <use xlink:href="#DejaVuSans-6e" x="325.916016"/>
      <use xlink:href="#DejaVuSans-20" x="389.294922"/>
      <use xlink:href="#DejaVuSans-28" x="421.082031"/>
      <use xlink:href="#DejaVuSans-62" x="460.095703"/>
      <use xlink:href="#DejaVuSans-70" x="523.572266"/>
      <use xlink:href="#DejaVuSans-29" x="587.048828"/>
     </g>
    </g>
   </g>
   <g id="matplotlib.axis_2">
    <g id="ytick_1">
     <g id="line2d_1">
      <path d="M 43.148125 353.2239 
L 993.078125 353.2239 
" clip-path="url(#p5af9b5763c)" style="fill: none; stroke: #dedede; stroke-linecap: square"/>
     </g>
     <g id="text_9">
      <!-- 0 -->
      <g transform="translate(31.058125 356.263275)scale(0.08 -0.08)">
       <use xlink:href="#DejaVuSans-30"/>
      </g>
     </g>
    </g>
    <g id="ytick_2">
     <g id="line2d_2">
      <path d="M 43.148125 289.6303 
L 993.078125 289.6303 
" clip-path="url(#p5af9b5763c)" style="fill: none; stroke: #dedede; stroke-linecap: square"/>
     </g>
     <g id="text_10">
      <!-- 20 -->
      <g transform="translate(25.968125 292.669675)scale(0.08 -0.08)">
       <use xlink:href="#DejaVuSans-32"/>
       <use xlink:href="#DejaVuSans-30" x="63.623047"/>
      </g>
     </g>
    </g>
    <g id="ytick_3">
     <g id="line2d_3">
      <path d="M 43.148125 226.0367 
L 993.078125 226.0367 
" clip-path="url(#p5af9b5763c)" style="fill: none; stroke: #dedede; stroke-linecap: square"/>
     </g>
     <g id="text_11">
      <!-- 40 -->
      <g transform="translate(25.968125 229.076075)scale(0.08 -0.08)">
       <use xlink:href="#DejaVuSans-34"/>
       <use xlink:href="#DejaVuSans-30" x="63.623047"/>
      </g>
     </g>
    </g>
    <g id="ytick_4">
     <g id="line2d_4">
      <path d="M 43.148125 162.4431 
L 993.078125 162.4431 
" clip-path="url(#p5af9b5763c)" style="fill: none; stroke: #dedede; stroke-linecap: square"/>
     </g>
     <g id="text_12">
      <!-- 60 -->
      <g transform="translate(25.968125 165.482475)scale(0.08 -0.08)">
       <use xlink:href="#DejaVuSans-36"/>
       <use xlink:href="#DejaVuSans-30" x="63.623047"/>
      </g>
     </g>
    </g>
    <g id="ytick_5">
     <g id="line2d_5">
      <path d="M 43.148125 98.8495 
L 993.078125 98.8495 
" clip-path="url(#p5af9b5763c)" style="fill: none; stroke: #dedede; stroke-linecap: square"/>
     </g>
     <g id="text_13">
      <!-- 80 -->
      <g transform="translate(25.968125 101.888875)scale(0.08 -0.08)">
       <use xlink:href="#DejaVuSans-38"/>
       <use xlink:href="#DejaVuSans-30" x="63.623047"/>
      </g>
     </g>
    </g>
    <g id="ytick_6">
     <g id="line2d_6">
      <path d="M 43.148125 35.2559 
L 993.078125 35.2559 
" clip-path="url(#p5af9b5763c)" style="fill: none; stroke: #dedede; stroke-linecap: square"/>
     </g>
     <g id="text_14">
      <!-- 100 -->
      <g transform="translate(20.878125 38.295275)scale(0.08 -0.08)">
       <use xlink:href="#DejaVuSans-31"/>
       <use xlink:href="#DejaVuSans-30" x="63.623047"/>
       <use xlink:href="#DejaVuSans-30" x="127.246094"/>
      </g>
     </g>
    </g>
    <g id="text_15">
     <!-- % Methylation -->
     <g transform="translate(14.798437 230.089119)rotate(-90)scale(0.1 -0.1)">
      <defs>
       <path id="DejaVuSans-25" d="M 4653 2053 
Q 4381 2053 4226 1822 
Q 4072 1591 4072 1178 
Q 4072 772 4226 539 
Q 4381 306 4653 306 
Q 4919 306 5073 539 
Q 5228 772 5228 1178 
Q 5228 1588 5073 1820 
Q 4919 2053 4653 2053 
z
M 4653 2450 
Q 5147 2450 5437 2106 
Q 5728 1763 5728 1178 
Q 5728 594 5436 251 
Q 5144 -91 4653 -91 
Q 4153 -91 3862 251 
Q 3572 594 3572 1178 
Q 3572 1766 3864 2108 
Q 4156 2450 4653 2450 
z
M 1428 4353 
Q 1159 4353 1004 4120 
Q 850 3888 850 3481 
Q 850 3069 1003 2837 
Q 1156 2606 1428 2606 
Q 1700 2606 1854 2837 
Q 2009 3069 2009 3481 
Q 2009 3884 1853 4118 
Q 1697 4353 1428 4353 
z
M 4250 4750 
L 4750 4750 
L 1831 -91 
L 1331 -91 
L 4250 4750 
z
M 1428 4750 
Q 1922 4750 2215 4408 
Q 2509 4066 2509 3481 
Q 2509 2891 2217 2550 
Q 1925 2209 1428 2209 
Q 931 2209 642 2551 
Q 353 2894 353 3481 
Q 353 4063 643 4406 
Q 934 4750 1428 4750 
z
" transform="scale(0.015625)"/>
       <path id="DejaVuSans-4d" d="M 628 4666 
L 1569 4666 
L 2759 1491 
L 3956 4666 
L 4897 4666 
L 4897 0 
L 4281 0 
L 4281 4097 
L 3078 897 
L 2444 897 
L 1241 4097 
L 1241 0 
L 628 0 
L 628 4666 
z
" transform="scale(0.015625)"/>
       <path id="DejaVuSans-65" d="M 3597 1894 
L 3597 1613 
L 953 1613 
Q 991 1019 1311 708 
Q 1631 397 2203 397 
Q 2534 397 2845 478 
Q 3156 559 3463 722 
L 3463 178 
Q 3153 47 2828 -22 
Q 2503 -91 2169 -91 
Q 1331 -91 842 396 
Q 353 884 353 1716 
Q 353 2575 817 3079 
Q 1281 3584 2069 3584 
Q 2775 3584 3186 3129 
Q 3597 2675 3597 1894 
z
M 3022 2063 
Q 3016 2534 2758 2815 
Q 2500 3097 2075 3097 
Q 1594 3097 1305 2825 
Q 1016 2553 972 2059 
L 3022 2063 
z
" transform="scale(0.015625)"/>
       <path id="DejaVuSans-68" d="M 3513 2113 
L 3513 0 
L 2938 0 
L 2938 2094 
Q 2938 2591 2744 2837 
Q 2550 3084 2163 3084 
Q 1697 3084 1428 2787 
Q 1159 2491 1159 1978 
L 1159 0 
L 581 0 
L 581 4863 
L 1159 4863 
L 1159 2956 
Q 1366 3272 1645 3428 
Q 1925 3584 2291 3584 
Q 2894 3584 3203 3211 
Q 3513 2838 3513 2113 
z
" transform="scale(0.015625)"/>
       <path id="DejaVuSans-79" d="M 2059 -325 
Q 1816 -950 1584 -1140 
Q 1353 -1331 966 -1331 
L 506 -1331 
L 506 -850 
L 844 -850 
Q 1081 -850 1212 -737 
Q 1344 -625 1503 -206 
L 1606 56 
L 191 3500 
L 800 3500 
L 1894 763 
L 2988 3500 
L 3597 3500 
L 2059 -325 
z
" transform="scale(0.015625)"/>
       <path id="DejaVuSans-6c" d="M 603 4863 
L 1178 4863 
L 1178 0 
L 603 0 
L 603 4863 
z
" transform="scale(0.015625)"/>
       <path id="DejaVuSans-61" d="M 2194 1759 
Q 1497 1759 1228 1600 
Q 959 1441 959 1056 
Q 959 750 1161 570 
Q 1363 391 1709 391 
Q 2188 391 2477 730 
Q 2766 1069 2766 1631 
L 2766 1759 
L 2194 1759 
z
M 3341 1997 
L 3341 0 
L 2766 0 
L 2766 531 
Q 2569 213 2275 61 
Q 1981 -91 1556 -91 
Q 1019 -91 701 211 
Q 384 513 384 1019 
Q 384 1609 779 1909 
Q 1175 2209 1959 2209 
L 2766 2209 
L 2766 2266 
Q 2766 2663 2505 2880 
Q 2244 3097 1772 3097 
Q 1472 3097 1187 3025 
Q 903 2953 641 2809 
L 641 3341 
Q 956 3463 1253 3523 
Q 1550 3584 1831 3584 
Q 2591 3584 2966 3190 
Q 3341 2797 3341 1997 
z
" transform="scale(0.015625)"/>
      </defs>
      <use xlink:href="#DejaVuSans-25"/>
      <use xlink:href="#DejaVuSans-20" x="95.019531"/>
      <use xlink:href="#DejaVuSans-4d" x="126.806641"/>
      <use xlink:href="#DejaVuSans-65" x="213.085938"/>
      <use xlink:href="#DejaVuSans-74" x="274.609375"/>
      <use xlink:href="#DejaVuSans-68" x="313.818359"/>
      <use xlink:href="#DejaVuSans-79" x="377.197266"/>
      <use xlink:href="#DejaVuSans-6c" x="436.376953"/>
      <use xlink:href="#DejaVuSans-61" x="464.160156"/>
      <use xlink:href="#DejaVuSans-74" x="525.439453"/>
      <use xlink:href="#DejaVuSans-69" x="564.648438"/>
      <use xlink:href="#DejaVuSans-6f" x="592.431641"/>
      <use xlink:href="#DejaVuSans-6e" x="653.613281"/>
     </g>
    </g>
   </g>
   <g id="line2d_7">
    <path d="M 86.326761 339.80565 
L 92.969628 339.964634 
L 99.612496 339.487682 
L 106.255363 339.932838 
L 112.89823 340.028228 
L 119.541097 339.837447 
L 126.183964 339.964634 
L 146.112566 338.91534 
L 152.755433 339.042527 
L 159.3983 338.883543 
L 166.041167 339.265105 
L 172.684034 339.296902 
L 179.326901 339.106121 
L 185.969768 338.724559 
L 192.612635 338.501982 
L 199.255503 338.565575 
L 205.89837 338.12042 
L 212.541237 337.993233 
L 219.184104 337.548078 
L 225.826971 338.12042 
L 232.469838 338.12042 
L 239.112705 337.866046 
L 245.755573 337.897842 
L 252.39844 338.088623 
L 259.041307 337.707062 
L 265.684174 338.247607 
L 278.969908 337.261906 
L 285.612775 337.261906 
L 292.255642 337.42089 
L 298.89851 337.452687 
L 305.541377 337.293703 
L 312.184244 337.675265 
L 318.827111 337.389094 
L 325.469978 337.23011 
L 332.112845 337.579874 
L 338.755712 337.23011 
L 345.39858 337.007532 
L 352.041447 337.357297 
L 358.684314 337.166516 
L 365.327181 337.42089 
L 371.970048 337.484484 
L 378.612915 337.357297 
L 385.255782 337.611671 
L 391.898649 338.342998 
L 398.541517 337.929639 
L 405.184384 337.961436 
L 411.827251 337.579874 
L 418.470118 337.071126 
L 425.112985 337.3255 
L 431.755852 337.071126 
L 438.398719 337.198313 
L 445.041587 337.039329 
L 451.684454 337.579874 
L 458.327321 337.548078 
L 464.970188 337.738858 
L 471.613055 337.357297 
L 478.255922 336.848548 
L 484.898789 337.42089 
L 498.184524 336.371596 
L 518.113125 336.021831 
L 524.755992 336.371596 
L 531.398859 336.117222 
L 544.684594 336.498783 
L 551.327461 336.371596 
L 557.970328 335.703863 
L 564.613195 335.481286 
L 571.256062 335.894644 
L 577.898929 335.544879 
L 584.541796 336.212612 
L 591.184663 336.371596 
L 597.827531 336.816751 
L 604.470398 336.466986 
L 611.113265 336.276206 
L 617.756132 335.894644 
L 624.398999 335.672066 
L 631.041866 335.672066 
L 637.684733 335.417692 
L 644.327601 335.385895 
L 650.970468 336.053628 
L 657.613335 335.481286 
L 670.899069 335.862847 
L 677.541936 335.290505 
L 690.82767 334.495585 
L 697.470538 334.177617 
L 704.113405 334.749959 
L 710.756272 334.877146 
L 717.399139 334.431991 
L 724.042006 334.877146 
L 730.684873 335.449489 
L 737.32774 334.400194 
L 743.970608 335.290505 
L 750.613475 334.972537 
L 757.256342 334.368398 
L 763.899209 334.05043 
L 770.542076 333.541681 
L 777.184943 334.177617 
L 790.470677 334.495585 
L 797.113545 334.972537 
L 810.399279 334.463788 
L 817.042146 333.859649 
L 823.685013 333.382697 
L 836.970747 333.191916 
L 843.613615 333.700665 
L 850.256482 333.573478 
L 856.899349 334.336601 
L 863.542216 334.14582 
L 876.82795 333.160119 
L 883.470817 333.287306 
L 890.113684 331.951841 
L 896.756552 332.079028 
L 903.399419 332.365199 
L 910.042286 333.001135 
L 916.685153 332.269809 
L 923.32802 333.382697 
L 929.970887 333.160119 
L 936.613754 332.269809 
L 943.256622 331.920044 
L 949.899489 333.923242 
L 949.899489 333.923242 
" clip-path="url(#p5af9b5763c)" style="fill: none; stroke: #7cb5ec; stroke-linecap: square"/>
   </g>
   <g id="line2d_8">
    <path d="M 86.326761 338.279404 
L 92.969628 338.597372 
L 99.612496 337.993233 
L 106.255363 338.756356 
L 112.89823 338.724559 
L 119.541097 338.311201 
L 126.183964 338.533778 
L 132.826831 338.21581 
L 139.469698 337.611671 
L 146.112566 337.42089 
L 159.3983 337.611671 
L 166.041167 337.802452 
L 172.684034 337.611671 
L 179.326901 337.579874 
L 185.969768 337.102922 
L 192.612635 337.198313 
L 199.255503 336.880345 
L 212.541237 336.721361 
L 219.184104 336.339799 
L 225.826971 336.657767 
L 232.469838 336.53058 
L 252.39844 336.657767 
L 259.041307 336.339799 
L 265.684174 337.007532 
L 278.969908 335.862847 
L 292.255642 335.894644 
L 298.89851 336.021831 
L 305.541377 335.926441 
L 312.184244 336.276206 
L 325.469978 336.117222 
L 332.112845 336.43519 
L 338.755712 335.799254 
L 345.39858 335.608473 
L 352.041447 336.021831 
L 358.684314 335.958238 
L 365.327181 336.149018 
L 371.970048 336.117222 
L 378.612915 335.83105 
L 391.898649 336.975735 
L 398.541517 336.784954 
L 405.184384 336.880345 
L 418.470118 335.990034 
L 425.112985 336.085425 
L 431.755852 335.958238 
L 438.398719 335.544879 
L 445.041587 335.83105 
L 451.684454 336.308002 
L 458.327321 336.62597 
L 471.613055 336.562377 
L 478.255922 335.799254 
L 484.898789 336.180815 
L 491.541656 335.64027 
L 498.184524 335.258708 
L 504.827391 335.258708 
L 511.470258 335.004334 
L 518.113125 334.972537 
L 524.755992 335.354098 
L 531.398859 335.290505 
L 538.041726 335.544879 
L 544.684594 335.322302 
L 551.327461 335.385895 
L 557.970328 334.622772 
L 564.613195 334.590975 
L 571.256062 334.84535 
L 577.898929 334.749959 
L 584.541796 335.354098 
L 591.184663 335.195114 
L 597.827531 335.894644 
L 604.470398 335.799254 
L 611.113265 335.258708 
L 617.756132 335.004334 
L 624.398999 335.03613 
L 637.684733 334.431991 
L 644.327601 334.527382 
L 650.970468 335.067927 
L 657.613335 335.131521 
L 664.256202 334.749959 
L 670.899069 335.226911 
L 677.541936 334.686366 
L 684.184803 334.431991 
L 690.82767 334.018633 
L 697.470538 334.082226 
L 710.756272 334.590975 
L 717.399139 334.082226 
L 724.042006 334.495585 
L 730.684873 334.590975 
L 737.32774 334.05043 
L 743.970608 334.908943 
L 750.613475 334.400194 
L 757.256342 333.541681 
L 770.542076 333.319103 
L 777.184943 333.955039 
L 783.82781 333.891446 
L 790.470677 334.368398 
L 797.113545 334.431991 
L 810.399279 334.304804 
L 823.685013 333.509884 
L 830.32788 333.191916 
L 836.970747 333.287306 
L 843.613615 333.541681 
L 850.256482 333.44629 
L 856.899349 333.827852 
L 863.542216 334.018633 
L 870.185083 333.382697 
L 876.82795 333.541681 
L 883.470817 333.414494 
L 890.113684 332.206215 
L 910.042286 333.064729 
L 916.685153 332.65137 
L 923.32802 333.382697 
L 929.970887 333.319103 
L 936.613754 332.969338 
L 943.256622 332.873948 
L 949.899489 334.527382 
L 949.899489 334.527382 
" clip-path="url(#p5af9b5763c)" style="fill: none; stroke: #434348; stroke-linecap: square"/>
   </g>
   <g id="line2d_9">
    <path d="M 86.326761 338.247607 
L 92.969628 338.470185 
L 99.612496 337.452687 
L 106.255363 337.770655 
L 112.89823 338.470185 
L 119.541097 338.056826 
L 126.183964 338.247607 
L 139.469698 337.166516 
L 159.3983 336.880345 
L 166.041167 337.484484 
L 172.684034 336.943938 
L 179.326901 337.007532 
L 185.969768 336.43519 
L 192.612635 336.339799 
L 199.255503 335.862847 
L 205.89837 336.180815 
L 212.541237 336.053628 
L 219.184104 335.226911 
L 225.826971 336.149018 
L 232.469838 335.958238 
L 239.112705 335.385895 
L 245.755573 335.894644 
L 252.39844 336.021831 
L 259.041307 335.290505 
L 265.684174 336.180815 
L 272.327041 335.73566 
L 278.969908 335.099724 
L 285.612775 335.099724 
L 292.255642 334.813553 
L 298.89851 335.03613 
L 305.541377 334.813553 
L 312.184244 335.449489 
L 318.827111 334.463788 
L 325.469978 334.972537 
L 332.112845 335.990034 
L 345.39858 334.431991 
L 352.041447 335.195114 
L 358.684314 335.73566 
L 365.327181 336.053628 
L 371.970048 335.449489 
L 378.612915 335.004334 
L 385.255782 335.417692 
L 391.898649 336.594174 
L 398.541517 336.085425 
L 405.184384 336.244409 
L 411.827251 335.926441 
L 418.470118 334.908943 
L 425.112985 335.131521 
L 431.755852 334.94074 
L 438.398719 334.877146 
L 445.041587 335.163318 
L 451.684454 335.703863 
L 458.327321 335.799254 
L 464.970188 335.64027 
L 471.613055 335.894644 
L 478.255922 334.781756 
L 484.898789 335.258708 
L 491.541656 335.131521 
L 498.184524 334.368398 
L 518.113125 333.25551 
L 524.755992 334.177617 
L 531.398859 333.986836 
L 544.684594 333.891446 
L 551.327461 334.527382 
L 557.970328 333.160119 
L 571.256062 333.573478 
L 577.898929 333.096526 
L 584.541796 334.24121 
L 591.184663 334.05043 
L 597.827531 335.290505 
L 604.470398 335.067927 
L 611.113265 334.686366 
L 617.756132 333.764258 
L 624.398999 333.986836 
L 631.041866 333.668868 
L 644.327601 333.573478 
L 650.970468 334.209414 
L 657.613335 334.400194 
L 664.256202 333.44629 
L 670.899069 334.304804 
L 677.541936 333.3509 
L 684.184803 332.142622 
L 690.82767 331.983638 
L 697.470538 332.142622 
L 704.113405 332.810354 
L 710.756272 333.160119 
L 717.399139 332.206215 
L 724.042006 333.414494 
L 730.684873 334.273007 
L 737.32774 332.746761 
L 743.970608 333.509884 
L 750.613475 333.509884 
L 757.256342 332.015434 
L 763.899209 331.920044 
L 770.542076 331.570279 
L 777.184943 332.873948 
L 783.82781 333.287306 
L 790.470677 333.319103 
L 797.113545 333.096526 
L 803.756412 333.478087 
L 810.399279 333.128322 
L 817.042146 331.85645 
L 823.685013 331.570279 
L 830.32788 332.047231 
L 836.970747 331.029734 
L 843.613615 331.66567 
L 850.256482 332.683167 
L 863.542216 333.096526 
L 870.185083 332.206215 
L 876.82795 332.55598 
L 883.470817 331.888247 
L 890.113684 330.012236 
L 896.756552 330.07583 
L 903.399419 330.997937 
L 910.042286 331.633873 
L 916.685153 330.616375 
L 923.32802 332.587777 
L 929.970887 332.365199 
L 936.613754 331.633873 
L 943.256622 329.916846 
L 949.899489 331.538482 
L 949.899489 331.538482 
" clip-path="url(#p5af9b5763c)" style="fill: none; stroke: #90ed7d; stroke-linecap: square"/>
   </g>
   <g id="line2d_10">
    <path d="M 86.326761 341.045726 
L 92.969628 340.918538 
L 99.612496 339.773854 
L 106.255363 340.155415 
L 112.89823 340.950335 
L 119.541097 340.759554 
L 126.183964 341.077522 
L 132.826831 339.837447 
L 139.469698 340.028228 
L 146.112566 339.551276 
L 152.755433 339.328698 
L 159.3983 339.392292 
L 166.041167 340.060025 
L 172.684034 339.742057 
L 179.326901 340.028228 
L 185.969768 338.851746 
L 192.612635 338.629169 
L 199.255503 338.724559 
L 205.89837 338.692762 
L 212.541237 338.184014 
L 219.184104 337.516281 
L 225.826971 338.724559 
L 232.469838 337.643468 
L 239.112705 337.039329 
L 245.755573 338.247607 
L 252.39844 338.374794 
L 259.041307 337.611671 
L 265.684174 338.91534 
L 272.327041 337.993233 
L 278.969908 337.23011 
L 285.612775 337.643468 
L 292.255642 337.897842 
L 298.89851 337.611671 
L 305.541377 337.611671 
L 312.184244 337.134719 
L 318.827111 336.053628 
L 325.469978 337.643468 
L 332.112845 338.947137 
L 338.755712 337.166516 
L 345.39858 335.926441 
L 352.041447 336.816751 
L 358.684314 337.548078 
L 365.327181 338.660966 
L 371.970048 337.707062 
L 378.612915 337.166516 
L 385.255782 337.961436 
L 391.898649 339.646666 
L 398.541517 338.088623 
L 405.184384 338.851746 
L 411.827251 338.692762 
L 418.470118 337.007532 
L 425.112985 337.770655 
L 431.755852 336.403393 
L 438.398719 337.007532 
L 445.041587 337.007532 
L 451.684454 337.929639 
L 458.327321 337.293703 
L 464.970188 337.834249 
L 471.613055 338.21581 
L 478.255922 336.466986 
L 484.898789 337.484484 
L 491.541656 337.357297 
L 498.184524 335.958238 
L 504.827391 336.308002 
L 511.470258 335.926441 
L 518.113125 333.955039 
L 524.755992 335.64027 
L 531.398859 335.926441 
L 538.041726 336.784954 
L 544.684594 336.594174 
L 551.327461 336.784954 
L 557.970328 335.672066 
L 564.613195 336.180815 
L 571.256062 336.021831 
L 577.898929 334.972537 
L 584.541796 336.117222 
L 591.184663 334.431991 
L 597.827531 337.198313 
L 604.470398 337.579874 
L 611.113265 336.689564 
L 617.756132 336.308002 
L 624.398999 334.94074 
L 631.041866 336.371596 
L 644.327601 334.749959 
L 650.970468 337.039329 
L 657.613335 336.943938 
L 664.256202 334.336601 
L 670.899069 335.513082 
L 677.541936 336.117222 
L 684.184803 333.541681 
L 690.82767 332.269809 
L 697.470538 333.509884 
L 704.113405 335.481286 
L 710.756272 334.273007 
L 717.399139 333.541681 
L 724.042006 334.877146 
L 730.684873 337.102922 
L 737.32774 333.319103 
L 743.970608 336.943938 
L 750.613475 335.322302 
L 757.256342 333.032932 
L 770.542076 332.238012 
L 777.184943 334.686366 
L 783.82781 335.226911 
L 790.470677 336.053628 
L 797.113545 335.385895 
L 803.756412 335.958238 
L 810.399279 335.926441 
L 817.042146 332.46059 
L 823.685013 333.764258 
L 830.32788 334.24121 
L 836.970747 332.396996 
L 843.613615 333.382697 
L 850.256482 334.05043 
L 856.899349 334.84535 
L 863.542216 332.905745 
L 870.185083 333.923242 
L 876.82795 334.304804 
L 883.470817 331.697466 
L 890.113684 330.26661 
L 896.756552 329.757862 
L 903.399419 331.602076 
L 910.042286 333.637071 
L 916.685153 331.474889 
L 923.32802 333.986836 
L 929.970887 333.637071 
L 936.613754 332.015434 
L 943.256622 328.835754 
L 949.899489 333.478087 
L 949.899489 333.478087 
" clip-path="url(#p5af9b5763c)" style="fill: none; stroke: #f7a35c; stroke-linecap: square"/>
   </g>
   <g id="line2d_11">
    <path d="M 86.326761 340.250806 
L 92.969628 339.773854 
L 99.612496 338.438388 
L 106.255363 339.583073 
L 112.89823 339.901041 
L 119.541097 339.773854 
L 126.183964 340.346196 
L 132.826831 339.487682 
L 139.469698 338.406591 
L 146.112566 338.311201 
L 152.755433 338.692762 
L 159.3983 338.660966 
L 166.041167 339.392292 
L 172.684034 338.438388 
L 179.326901 338.660966 
L 185.969768 337.961436 
L 192.612635 338.12042 
L 199.255503 337.198313 
L 205.89837 337.675265 
L 212.541237 337.102922 
L 219.184104 336.308002 
L 225.826971 338.056826 
L 232.469838 336.562377 
L 239.112705 336.657767 
L 245.755573 337.802452 
L 252.39844 337.611671 
L 259.041307 336.753158 
L 265.684174 338.247607 
L 272.327041 337.961436 
L 278.969908 336.880345 
L 285.612775 337.007532 
L 292.255642 336.816751 
L 305.541377 336.721361 
L 312.184244 337.134719 
L 318.827111 335.990034 
L 325.469978 336.212612 
L 332.112845 338.02503 
L 338.755712 336.816751 
L 345.39858 335.862847 
L 352.041447 335.894644 
L 358.684314 336.466986 
L 365.327181 337.802452 
L 371.970048 337.134719 
L 378.612915 336.880345 
L 385.255782 337.3255 
L 391.898649 338.724559 
L 398.541517 337.516281 
L 405.184384 337.802452 
L 411.827251 337.802452 
L 418.470118 336.276206 
L 425.112985 337.23011 
L 431.755852 336.784954 
L 438.398719 336.180815 
L 445.041587 336.880345 
L 451.684454 337.866046 
L 458.327321 336.244409 
L 464.970188 336.912142 
L 471.613055 337.961436 
L 478.255922 335.449489 
L 484.898789 337.261906 
L 491.541656 337.3255 
L 498.184524 335.799254 
L 504.827391 336.308002 
L 511.470258 335.004334 
L 518.113125 333.891446 
L 524.755992 335.226911 
L 531.398859 335.544879 
L 538.041726 336.212612 
L 544.684594 336.180815 
L 551.327461 335.64027 
L 557.970328 335.290505 
L 571.256062 336.149018 
L 577.898929 334.686366 
L 584.541796 336.212612 
L 591.184663 334.24121 
L 597.827531 336.62597 
L 604.470398 336.62597 
L 611.113265 335.067927 
L 617.756132 335.894644 
L 624.398999 333.796055 
L 631.041866 335.576676 
L 637.684733 333.25551 
L 644.327601 334.781756 
L 650.970468 334.877146 
L 657.613335 335.73566 
L 664.256202 333.986836 
L 670.899069 334.749959 
L 677.541936 334.527382 
L 684.184803 333.764258 
L 690.82767 332.206215 
L 704.113405 334.559178 
L 710.756272 334.273007 
L 717.399139 333.191916 
L 724.042006 333.986836 
L 730.684873 335.73566 
L 737.32774 333.923242 
L 743.970608 335.163318 
L 750.613475 334.114023 
L 757.256342 331.602076 
L 763.899209 332.079028 
L 770.542076 331.125124 
L 777.184943 333.128322 
L 783.82781 334.495585 
L 790.470677 335.226911 
L 797.113545 334.622772 
L 803.756412 334.749959 
L 810.399279 335.608473 
L 817.042146 332.714964 
L 823.685013 333.605274 
L 830.32788 333.541681 
L 836.970747 333.032932 
L 843.613615 333.3509 
L 850.256482 333.44629 
L 856.899349 333.923242 
L 863.542216 334.082226 
L 870.185083 333.25551 
L 876.82795 332.714964 
L 890.113684 330.489188 
L 896.756552 330.107626 
L 903.399419 331.379498 
L 910.042286 333.764258 
L 916.685153 333.001135 
L 923.32802 334.781756 
L 929.970887 334.082226 
L 936.613754 332.174418 
L 943.256622 330.07583 
L 949.899489 333.478087 
L 949.899489 333.478087 
" clip-path="url(#p5af9b5763c)" style="fill: none; stroke: #8085e9; stroke-linecap: square"/>
   </g>
   <g id="line2d_12">
    <path d="M 86.326761 340.028228 
L 92.969628 340.028228 
L 99.612496 339.487682 
L 106.255363 339.996431 
L 112.89823 340.187212 
L 119.541097 340.060025 
L 126.183964 340.632367 
L 132.826831 339.773854 
L 139.469698 339.106121 
L 159.3983 338.501982 
L 166.041167 339.455886 
L 172.684034 339.074324 
L 179.326901 338.978934 
L 185.969768 338.406591 
L 192.612635 338.81995 
L 199.255503 338.056826 
L 205.89837 338.02503 
L 212.541237 337.866046 
L 219.184104 337.293703 
L 225.826971 338.247607 
L 232.469838 337.834249 
L 239.112705 337.579874 
L 252.39844 338.247607 
L 259.041307 337.516281 
L 265.684174 338.533778 
L 272.327041 338.12042 
L 278.969908 337.102922 
L 292.255642 337.484484 
L 298.89851 337.389094 
L 305.541377 336.975735 
L 312.184244 337.293703 
L 318.827111 336.912142 
L 325.469978 337.3255 
L 332.112845 338.12042 
L 338.755712 337.102922 
L 345.39858 336.753158 
L 352.041447 337.3255 
L 358.684314 337.452687 
L 365.327181 337.993233 
L 371.970048 337.707062 
L 378.612915 337.261906 
L 385.255782 337.643468 
L 391.898649 338.947137 
L 398.541517 338.02503 
L 405.184384 338.279404 
L 411.827251 338.406591 
L 418.470118 337.198313 
L 425.112985 337.516281 
L 431.755852 337.134719 
L 438.398719 336.943938 
L 445.041587 337.389094 
L 451.684454 338.12042 
L 458.327321 337.738858 
L 464.970188 337.961436 
L 471.613055 337.961436 
L 478.255922 336.975735 
L 484.898789 337.834249 
L 491.541656 337.42089 
L 498.184524 336.594174 
L 504.827391 336.466986 
L 511.470258 336.149018 
L 518.113125 335.703863 
L 524.755992 336.276206 
L 531.398859 336.562377 
L 538.041726 337.039329 
L 544.684594 336.594174 
L 551.327461 336.62597 
L 557.970328 335.481286 
L 571.256062 336.212612 
L 577.898929 335.703863 
L 584.541796 336.62597 
L 591.184663 336.149018 
L 597.827531 337.357297 
L 604.470398 336.943938 
L 611.113265 337.071126 
L 617.756132 336.244409 
L 624.398999 335.894644 
L 631.041866 336.180815 
L 637.684733 335.73566 
L 644.327601 335.990034 
L 650.970468 336.562377 
L 664.256202 335.958238 
L 670.899069 336.403393 
L 677.541936 336.053628 
L 684.184803 334.749959 
L 690.82767 334.781756 
L 697.470538 334.527382 
L 710.756272 335.672066 
L 717.399139 334.527382 
L 724.042006 335.576676 
L 730.684873 336.276206 
L 737.32774 335.03613 
L 743.970608 336.371596 
L 750.613475 335.03613 
L 757.256342 334.686366 
L 763.899209 334.654569 
L 770.542076 333.955039 
L 777.184943 334.559178 
L 783.82781 334.908943 
L 790.470677 335.481286 
L 797.113545 335.290505 
L 803.756412 335.862847 
L 810.399279 335.226911 
L 817.042146 334.368398 
L 823.685013 333.668868 
L 830.32788 334.273007 
L 836.970747 333.700665 
L 843.613615 335.067927 
L 850.256482 334.527382 
L 856.899349 335.163318 
L 863.542216 334.749959 
L 870.185083 334.114023 
L 883.470817 333.955039 
L 890.113684 332.396996 
L 896.756552 332.428793 
L 910.042286 333.796055 
L 916.685153 332.714964 
L 923.32802 334.336601 
L 929.970887 334.177617 
L 936.613754 333.414494 
L 943.256622 332.524183 
L 949.899489 333.700665 
L 949.899489 333.700665 
" clip-path="url(#p5af9b5763c)" style="fill: none; stroke: #f15c80; stroke-linecap: square"/>
   </g>
   <g id="line2d_13">
    <path d="M 86.326761 339.996431 
L 92.969628 340.091822 
L 99.612496 339.455886 
L 106.255363 340.060025 
L 112.89823 340.219009 
L 119.541097 340.123618 
L 126.183964 340.50518 
L 132.826831 339.678463 
L 139.469698 339.042527 
L 152.755433 338.692762 
L 159.3983 338.692762 
L 166.041167 339.392292 
L 172.684034 339.074324 
L 179.326901 339.042527 
L 185.969768 338.279404 
L 192.612635 338.406591 
L 199.255503 337.738858 
L 205.89837 338.311201 
L 212.541237 338.247607 
L 219.184104 337.039329 
L 225.826971 338.597372 
L 232.469838 338.152217 
L 239.112705 337.23011 
L 245.755573 337.452687 
L 252.39844 337.866046 
L 259.041307 337.134719 
L 265.684174 338.438388 
L 272.327041 337.675265 
L 278.969908 337.102922 
L 292.255642 337.007532 
L 298.89851 337.166516 
L 305.541377 336.753158 
L 312.184244 337.261906 
L 318.827111 336.466986 
L 325.469978 336.753158 
L 332.112845 337.643468 
L 345.39858 336.212612 
L 352.041447 337.039329 
L 358.684314 337.007532 
L 365.327181 337.484484 
L 371.970048 337.42089 
L 378.612915 337.198313 
L 385.255782 337.770655 
L 391.898649 338.565575 
L 398.541517 338.247607 
L 405.184384 338.342998 
L 411.827251 337.961436 
L 418.470118 336.848548 
L 425.112985 337.389094 
L 431.755852 337.452687 
L 438.398719 336.848548 
L 445.041587 337.007532 
L 451.684454 337.929639 
L 464.970188 337.452687 
L 471.613055 337.707062 
L 478.255922 336.43519 
L 484.898789 337.389094 
L 491.541656 337.166516 
L 498.184524 336.085425 
L 504.827391 336.244409 
L 518.113125 335.099724 
L 524.755992 335.958238 
L 531.398859 335.926441 
L 538.041726 336.244409 
L 544.684594 336.053628 
L 551.327461 336.498783 
L 557.970328 335.131521 
L 564.613195 335.449489 
L 571.256062 335.258708 
L 577.898929 335.290505 
L 584.541796 336.212612 
L 591.184663 335.608473 
L 597.827531 336.753158 
L 604.470398 336.753158 
L 611.113265 335.894644 
L 617.756132 335.544879 
L 624.398999 335.513082 
L 631.041866 335.894644 
L 644.327601 335.703863 
L 650.970468 336.276206 
L 657.613335 335.703863 
L 664.256202 335.608473 
L 670.899069 336.085425 
L 684.184803 334.527382 
L 690.82767 333.891446 
L 697.470538 334.177617 
L 704.113405 335.067927 
L 710.756272 335.64027 
L 717.399139 333.44629 
L 724.042006 334.813553 
L 730.684873 335.449489 
L 737.32774 334.336601 
L 743.970608 335.83105 
L 750.613475 334.972537 
L 757.256342 333.923242 
L 763.899209 333.223713 
L 770.542076 333.414494 
L 777.184943 334.527382 
L 783.82781 334.749959 
L 790.470677 335.481286 
L 797.113545 335.004334 
L 803.756412 335.195114 
L 810.399279 334.654569 
L 817.042146 333.796055 
L 830.32788 333.25551 
L 836.970747 332.714964 
L 843.613615 333.44629 
L 850.256482 333.637071 
L 856.899349 334.082226 
L 863.542216 333.986836 
L 870.185083 333.541681 
L 876.82795 333.986836 
L 883.470817 333.414494 
L 890.113684 332.110825 
L 903.399419 332.587777 
L 910.042286 333.668868 
L 916.685153 331.76106 
L 923.32802 334.431991 
L 936.613754 332.810354 
L 943.256622 330.648172 
L 949.899489 333.160119 
L 949.899489 333.160119 
" clip-path="url(#p5af9b5763c)" style="fill: none; stroke: #e4d354; stroke-linecap: square"/>
   </g>
   <g id="line2d_14">
    <path d="M 86.326761 340.314399 
L 92.969628 340.377993 
L 99.612496 339.551276 
L 106.255363 340.155415 
L 112.89823 340.632367 
L 119.541097 340.377993 
L 126.183964 340.346196 
L 132.826831 339.932838 
L 139.469698 339.169714 
L 146.112566 338.947137 
L 152.755433 339.106121 
L 159.3983 338.851746 
L 166.041167 339.71026 
L 172.684034 339.201511 
L 179.326901 339.201511 
L 185.969768 338.501982 
L 192.612635 338.342998 
L 199.255503 337.929639 
L 205.89837 337.866046 
L 212.541237 338.152217 
L 219.184104 337.198313 
L 225.826971 338.279404 
L 232.469838 338.088623 
L 239.112705 337.389094 
L 245.755573 338.02503 
L 252.39844 338.184014 
L 259.041307 337.452687 
L 265.684174 338.279404 
L 278.969908 337.039329 
L 285.612775 337.516281 
L 292.255642 337.198313 
L 298.89851 337.42089 
L 305.541377 336.943938 
L 312.184244 337.452687 
L 318.827111 337.007532 
L 325.469978 337.23011 
L 332.112845 337.961436 
L 345.39858 336.53058 
L 352.041447 337.102922 
L 358.684314 337.293703 
L 365.327181 337.738858 
L 371.970048 337.707062 
L 378.612915 336.912142 
L 385.255782 337.675265 
L 391.898649 338.629169 
L 398.541517 337.834249 
L 405.184384 338.12042 
L 411.827251 337.866046 
L 418.470118 336.848548 
L 445.041587 337.198313 
L 451.684454 337.770655 
L 458.327321 337.516281 
L 464.970188 337.675265 
L 471.613055 338.152217 
L 478.255922 336.753158 
L 484.898789 337.389094 
L 491.541656 337.007532 
L 498.184524 335.958238 
L 504.827391 336.339799 
L 511.470258 335.958238 
L 518.113125 335.449489 
L 524.755992 335.767457 
L 531.398859 335.513082 
L 538.041726 336.721361 
L 544.684594 336.149018 
L 551.327461 336.276206 
L 557.970328 335.354098 
L 564.613195 335.672066 
L 571.256062 335.576676 
L 577.898929 335.226911 
L 584.541796 336.276206 
L 591.184663 335.799254 
L 597.827531 336.912142 
L 611.113265 336.244409 
L 617.756132 335.894644 
L 624.398999 335.131521 
L 631.041866 335.73566 
L 637.684733 335.449489 
L 644.327601 335.576676 
L 650.970468 335.926441 
L 657.613335 335.672066 
L 664.256202 335.64027 
L 670.899069 336.149018 
L 677.541936 335.576676 
L 684.184803 333.859649 
L 690.82767 333.509884 
L 697.470538 333.859649 
L 704.113405 334.877146 
L 710.756272 334.749959 
L 717.399139 333.668868 
L 724.042006 334.622772 
L 730.684873 335.099724 
L 737.32774 334.209414 
L 743.970608 335.417692 
L 750.613475 334.908943 
L 757.256342 333.859649 
L 763.899209 333.859649 
L 770.542076 333.382697 
L 777.184943 334.304804 
L 783.82781 334.463788 
L 790.470677 334.84535 
L 803.756412 334.718162 
L 810.399279 334.463788 
L 817.042146 333.128322 
L 823.685013 333.319103 
L 836.970747 333.191916 
L 843.613615 333.827852 
L 850.256482 333.478087 
L 856.899349 334.082226 
L 863.542216 334.431991 
L 870.185083 333.319103 
L 883.470817 333.128322 
L 890.113684 331.570279 
L 896.756552 330.902546 
L 903.399419 332.110825 
L 910.042286 332.778558 
L 916.685153 332.810354 
L 923.32802 334.05043 
L 929.970887 333.732462 
L 936.613754 332.683167 
L 943.256622 331.06153 
L 949.899489 333.414494 
L 949.899489 333.414494 
" clip-path="url(#p5af9b5763c)" style="fill: none; stroke: #2b908f; stroke-linecap: square"/>
   </g>
   <g id="line2d_15">
    <path d="M 86.326761 340.823148 
L 92.969628 340.823148 
L 99.612496 339.487682 
L 106.255363 340.123618 
L 112.89823 340.632367 
L 119.541097 340.536977 
L 126.183964 340.950335 
L 132.826831 340.091822 
L 139.469698 339.61487 
L 146.112566 339.265105 
L 152.755433 339.487682 
L 159.3983 339.233308 
L 166.041167 339.837447 
L 192.612635 339.137918 
L 199.255503 338.406591 
L 205.89837 338.438388 
L 212.541237 338.279404 
L 219.184104 337.897842 
L 225.826971 338.629169 
L 232.469838 338.02503 
L 239.112705 337.675265 
L 245.755573 338.342998 
L 252.39844 338.597372 
L 259.041307 337.834249 
L 265.684174 338.851746 
L 272.327041 338.21581 
L 278.969908 337.198313 
L 285.612775 337.23011 
L 292.255642 338.088623 
L 298.89851 337.897842 
L 305.541377 337.3255 
L 312.184244 337.770655 
L 318.827111 336.689564 
L 325.469978 337.23011 
L 332.112845 338.438388 
L 338.755712 337.389094 
L 345.39858 336.498783 
L 352.041447 337.134719 
L 358.684314 337.643468 
L 365.327181 337.993233 
L 371.970048 337.611671 
L 378.612915 337.071126 
L 385.255782 337.452687 
L 391.898649 338.660966 
L 398.541517 337.770655 
L 405.184384 338.629169 
L 411.827251 338.088623 
L 418.470118 336.816751 
L 425.112985 337.198313 
L 431.755852 336.880345 
L 438.398719 336.212612 
L 445.041587 336.657767 
L 451.684454 337.993233 
L 458.327321 337.23011 
L 464.970188 337.357297 
L 471.613055 337.738858 
L 478.255922 336.053628 
L 484.898789 337.23011 
L 491.541656 336.43519 
L 498.184524 335.83105 
L 504.827391 335.481286 
L 511.470258 335.576676 
L 518.113125 334.654569 
L 524.755992 335.226911 
L 531.398859 335.099724 
L 538.041726 335.576676 
L 544.684594 335.322302 
L 551.327461 335.481286 
L 557.970328 334.177617 
L 564.613195 334.781756 
L 571.256062 335.131521 
L 577.898929 334.114023 
L 584.541796 335.449489 
L 591.184663 335.226911 
L 597.827531 336.212612 
L 604.470398 336.117222 
L 611.113265 335.672066 
L 617.756132 334.177617 
L 624.398999 334.304804 
L 631.041866 334.654569 
L 637.684733 334.209414 
L 644.327601 334.209414 
L 650.970468 335.099724 
L 657.613335 334.336601 
L 664.256202 333.923242 
L 670.899069 334.718162 
L 677.541936 333.478087 
L 684.184803 331.951841 
L 690.82767 331.252311 
L 697.470538 331.76106 
L 704.113405 333.160119 
L 710.756272 333.096526 
L 717.399139 331.411295 
L 724.042006 333.25551 
L 730.684873 333.605274 
L 737.32774 331.85645 
L 743.970608 334.14582 
L 750.613475 332.524183 
L 757.256342 331.06153 
L 763.899209 331.029734 
L 770.542076 329.789658 
L 777.184943 332.269809 
L 783.82781 332.905745 
L 790.470677 333.223713 
L 797.113545 331.983638 
L 803.756412 331.951841 
L 810.399279 332.969338 
L 817.042146 330.330204 
L 823.685013 329.058332 
L 830.32788 330.298407 
L 836.970747 328.136225 
L 843.613615 330.552782 
L 850.256482 330.234814 
L 856.899349 330.330204 
L 863.542216 330.616375 
L 870.185083 329.694268 
L 883.470817 329.47169 
L 890.113684 326.705369 
L 896.756552 326.832556 
L 903.399419 327.277711 
L 910.042286 328.994738 
L 916.685153 327.563882 
L 923.32802 330.139423 
L 929.970887 329.726065 
L 936.613754 328.263412 
L 943.256622 325.4017 
L 949.899489 329.726065 
L 949.899489 329.726065 
" clip-path="url(#p5af9b5763c)" style="fill: none; stroke: #f45b5b; stroke-linecap: square"/>
   </g>
   <g id="line2d_16">
    <path d="M 86.326761 341.077522 
L 92.969628 341.077522 
L 99.612496 340.695961 
L 112.89823 341.331897 
L 119.541097 341.109319 
L 126.183964 341.3001 
L 139.469698 340.060025 
L 146.112566 339.773854 
L 152.755433 340.187212 
L 159.3983 339.932838 
L 166.041167 340.377993 
L 172.684034 340.091822 
L 179.326901 340.028228 
L 185.969768 339.551276 
L 192.612635 339.551276 
L 199.255503 339.233308 
L 205.89837 339.455886 
L 219.184104 338.692762 
L 225.826971 339.551276 
L 232.469838 339.074324 
L 239.112705 338.756356 
L 245.755573 339.233308 
L 252.39844 339.201511 
L 259.041307 338.660966 
L 265.684174 339.455886 
L 272.327041 339.074324 
L 278.969908 338.406591 
L 285.612775 338.565575 
L 292.255642 338.438388 
L 298.89851 338.756356 
L 305.541377 338.342998 
L 312.184244 338.565575 
L 318.827111 338.279404 
L 325.469978 338.406591 
L 332.112845 338.947137 
L 345.39858 337.834249 
L 352.041447 338.406591 
L 358.684314 338.406591 
L 365.327181 338.91534 
L 371.970048 338.756356 
L 378.612915 338.247607 
L 385.255782 338.756356 
L 391.898649 339.551276 
L 398.541517 339.106121 
L 405.184384 339.296902 
L 418.470118 338.501982 
L 425.112985 338.565575 
L 431.755852 338.152217 
L 445.041587 338.184014 
L 451.684454 338.851746 
L 458.327321 338.629169 
L 464.970188 338.91534 
L 471.613055 338.756356 
L 478.255922 337.834249 
L 484.898789 338.788153 
L 498.184524 337.42089 
L 504.827391 337.484484 
L 511.470258 337.23011 
L 518.113125 336.498783 
L 524.755992 337.23011 
L 531.398859 337.738858 
L 538.041726 337.929639 
L 544.684594 337.42089 
L 551.327461 337.834249 
L 557.970328 336.880345 
L 564.613195 336.943938 
L 571.256062 337.293703 
L 577.898929 336.784954 
L 584.541796 337.611671 
L 591.184663 337.3255 
L 597.827531 338.279404 
L 611.113265 337.452687 
L 617.756132 336.753158 
L 624.398999 337.039329 
L 631.041866 336.943938 
L 637.684733 336.975735 
L 644.327601 336.816751 
L 650.970468 337.261906 
L 657.613335 337.23011 
L 664.256202 336.975735 
L 670.899069 337.23011 
L 677.541936 336.721361 
L 684.184803 335.83105 
L 690.82767 335.195114 
L 697.470538 335.73566 
L 704.113405 336.466986 
L 710.756272 336.339799 
L 717.399139 335.576676 
L 724.042006 336.466986 
L 730.684873 336.689564 
L 737.32774 335.703863 
L 743.970608 336.816751 
L 750.613475 335.926441 
L 757.256342 335.449489 
L 763.899209 335.226911 
L 770.542076 334.654569 
L 777.184943 335.799254 
L 783.82781 335.894644 
L 790.470677 336.403393 
L 797.113545 336.180815 
L 810.399279 336.180815 
L 817.042146 335.004334 
L 823.685013 335.163318 
L 836.970747 334.463788 
L 843.613615 335.608473 
L 850.256482 335.290505 
L 856.899349 335.481286 
L 863.542216 335.799254 
L 870.185083 335.03613 
L 876.82795 334.749959 
L 883.470817 333.986836 
L 890.113684 333.605274 
L 896.756552 333.955039 
L 903.399419 334.114023 
L 910.042286 334.749959 
L 916.685153 334.209414 
L 923.32802 335.163318 
L 929.970887 335.03613 
L 943.256622 332.65137 
L 949.899489 334.718162 
L 949.899489 334.718162 
" clip-path="url(#p5af9b5763c)" style="fill: none; stroke: #91e8e1; stroke-linecap: square"/>
   </g>
   <g id="line2d_17">
    <path d="M 86.326761 340.282602 
L 92.969628 340.536977 
L 99.612496 339.678463 
L 112.89823 340.759554 
L 119.541097 340.441586 
L 126.183964 340.536977 
L 132.826831 340.028228 
L 139.469698 339.360495 
L 159.3983 338.947137 
L 166.041167 339.487682 
L 172.684034 339.201511 
L 179.326901 339.328698 
L 185.969768 338.629169 
L 192.612635 338.533778 
L 205.89837 338.02503 
L 212.541237 338.088623 
L 219.184104 337.42089 
L 225.826971 338.374794 
L 232.469838 338.088623 
L 239.112705 337.389094 
L 245.755573 337.675265 
L 252.39844 338.088623 
L 259.041307 337.42089 
L 265.684174 338.438388 
L 272.327041 338.02503 
L 278.969908 336.880345 
L 285.612775 337.261906 
L 292.255642 337.3255 
L 298.89851 337.23011 
L 305.541377 336.816751 
L 312.184244 337.261906 
L 318.827111 336.371596 
L 325.469978 336.943938 
L 332.112845 337.993233 
L 338.755712 336.975735 
L 345.39858 336.466986 
L 352.041447 337.23011 
L 358.684314 336.848548 
L 365.327181 337.802452 
L 371.970048 337.738858 
L 378.612915 336.816751 
L 385.255782 337.484484 
L 391.898649 338.406591 
L 398.541517 337.643468 
L 405.184384 338.184014 
L 411.827251 337.738858 
L 418.470118 336.975735 
L 425.112985 337.198313 
L 438.398719 336.53058 
L 445.041587 336.816751 
L 451.684454 337.834249 
L 458.327321 337.261906 
L 464.970188 337.484484 
L 471.613055 337.866046 
L 478.255922 336.276206 
L 484.898789 337.166516 
L 491.541656 336.816751 
L 498.184524 335.703863 
L 504.827391 335.926441 
L 518.113125 334.877146 
L 524.755992 335.226911 
L 531.398859 335.290505 
L 538.041726 336.180815 
L 544.684594 335.481286 
L 551.327461 335.990034 
L 557.970328 334.84535 
L 564.613195 335.004334 
L 571.256062 335.449489 
L 577.898929 334.749959 
L 584.541796 335.73566 
L 591.184663 335.767457 
L 597.827531 336.085425 
L 604.470398 336.212612 
L 611.113265 335.894644 
L 617.756132 334.622772 
L 631.041866 335.322302 
L 637.684733 334.527382 
L 650.970468 335.576676 
L 664.256202 334.495585 
L 670.899069 335.767457 
L 677.541936 334.177617 
L 684.184803 333.191916 
L 690.82767 332.873948 
L 697.470538 332.778558 
L 704.113405 333.700665 
L 710.756272 334.400194 
L 717.399139 332.65137 
L 724.042006 334.018633 
L 730.684873 334.94074 
L 737.32774 333.3509 
L 743.970608 334.813553 
L 750.613475 334.177617 
L 757.256342 332.746761 
L 763.899209 332.587777 
L 770.542076 332.079028 
L 783.82781 333.859649 
L 790.470677 333.605274 
L 797.113545 334.05043 
L 803.756412 333.541681 
L 810.399279 333.414494 
L 817.042146 332.142622 
L 823.685013 331.792857 
L 830.32788 331.920044 
L 836.970747 332.174418 
L 843.613615 332.714964 
L 850.256482 331.951841 
L 856.899349 332.905745 
L 863.542216 332.873948 
L 870.185083 332.206215 
L 876.82795 332.333402 
L 883.470817 331.474889 
L 890.113684 329.948642 
L 896.756552 328.772161 
L 903.399419 329.885049 
L 910.042286 332.015434 
L 916.685153 330.393798 
L 923.32802 331.983638 
L 929.970887 331.888247 
L 936.613754 330.679969 
L 943.256622 329.058332 
L 949.899489 331.220514 
L 949.899489 331.220514 
" clip-path="url(#p5af9b5763c)" style="fill: none; stroke: #7cb5ec; stroke-linecap: square"/>
   </g>
   <g id="line2d_18">
    <path d="M 86.326761 340.187212 
L 92.969628 340.219009 
L 99.612496 339.837447 
L 112.89823 340.377993 
L 119.541097 340.250806 
L 126.183964 340.282602 
L 132.826831 339.932838 
L 139.469698 339.392292 
L 152.755433 339.265105 
L 159.3983 339.328698 
L 166.041167 339.519479 
L 179.326901 339.424089 
L 185.969768 338.883543 
L 192.612635 339.042527 
L 199.255503 338.565575 
L 212.541237 338.470185 
L 219.184104 338.184014 
L 225.826971 338.501982 
L 252.39844 338.692762 
L 259.041307 338.184014 
L 265.684174 338.883543 
L 278.969908 337.707062 
L 305.541377 337.866046 
L 312.184244 338.438388 
L 325.469978 337.961436 
L 332.112845 338.597372 
L 338.755712 337.961436 
L 345.39858 337.579874 
L 352.041447 337.866046 
L 371.970048 338.21581 
L 378.612915 337.929639 
L 385.255782 338.247607 
L 391.898649 339.106121 
L 398.541517 338.660966 
L 405.184384 338.692762 
L 418.470118 337.929639 
L 431.755852 337.707062 
L 438.398719 337.866046 
L 445.041587 337.675265 
L 451.684454 338.311201 
L 458.327321 338.565575 
L 464.970188 338.597372 
L 471.613055 338.470185 
L 478.255922 337.611671 
L 484.898789 338.088623 
L 498.184524 337.007532 
L 504.827391 336.753158 
L 524.755992 337.134719 
L 531.398859 337.293703 
L 538.041726 337.293703 
L 551.327461 337.102922 
L 557.970328 336.466986 
L 571.256062 336.53058 
L 577.898929 336.371596 
L 584.541796 337.198313 
L 591.184663 337.3255 
L 597.827531 337.802452 
L 604.470398 337.866046 
L 611.113265 337.3255 
L 617.756132 336.498783 
L 631.041866 336.43519 
L 637.684733 336.53058 
L 644.327601 336.180815 
L 650.970468 337.039329 
L 657.613335 336.562377 
L 664.256202 336.594174 
L 670.899069 336.975735 
L 677.541936 336.339799 
L 684.184803 335.513082 
L 690.82767 335.449489 
L 697.470538 335.64027 
L 704.113405 336.021831 
L 710.756272 336.053628 
L 717.399139 335.544879 
L 724.042006 336.308002 
L 730.684873 336.594174 
L 737.32774 335.767457 
L 743.970608 336.403393 
L 750.613475 335.958238 
L 757.256342 335.354098 
L 763.899209 335.131521 
L 770.542076 334.686366 
L 777.184943 335.481286 
L 783.82781 335.608473 
L 790.470677 335.990034 
L 797.113545 335.83105 
L 803.756412 335.83105 
L 810.399279 335.703863 
L 823.685013 334.559178 
L 830.32788 334.590975 
L 836.970747 334.400194 
L 843.613615 334.813553 
L 850.256482 335.067927 
L 856.899349 335.099724 
L 863.542216 335.322302 
L 883.470817 334.336601 
L 890.113684 333.573478 
L 896.756552 333.509884 
L 903.399419 333.700665 
L 910.042286 334.368398 
L 916.685153 333.44629 
L 923.32802 334.622772 
L 929.970887 334.527382 
L 936.613754 333.923242 
L 943.256622 333.700665 
L 949.899489 334.431991 
L 949.899489 334.431991 
" clip-path="url(#p5af9b5763c)" style="fill: none; stroke: #434348; stroke-linecap: square"/>
   </g>
   <g id="line2d_19">
    <path d="M 86.326761 345.719855 
L 92.969628 345.878839 
L 99.612496 345.560871 
L 112.89823 345.878839 
L 119.541097 345.815246 
L 126.183964 345.942433 
L 132.826831 345.656262 
L 139.469698 345.211106 
L 152.755433 345.211106 
L 159.3983 345.17931 
L 166.041167 345.465481 
L 172.684034 345.242903 
L 179.326901 345.17931 
L 185.969768 344.924935 
L 192.612635 345.020326 
L 205.89837 344.797748 
L 212.541237 344.702358 
L 219.184104 344.447983 
L 225.826971 344.765951 
L 232.469838 344.702358 
L 239.112705 344.47978 
L 252.39844 344.829545 
L 259.041307 344.352593 
L 265.684174 344.956732 
L 278.969908 344.288999 
L 305.541377 344.193609 
L 312.184244 344.47978 
L 318.827111 344.098218 
L 332.112845 344.638764 
L 345.39858 343.843844 
L 352.041447 344.257202 
L 358.684314 344.161812 
L 365.327181 344.47978 
L 371.970048 344.47978 
L 378.612915 344.225406 
L 391.898649 344.988529 
L 398.541517 344.670561 
L 405.184384 344.861342 
L 411.827251 344.606967 
L 418.470118 344.130015 
L 425.112985 344.47978 
L 431.755852 344.161812 
L 438.398719 344.257202 
L 445.041587 344.161812 
L 451.684454 344.511577 
L 464.970188 344.511577 
L 471.613055 344.702358 
L 478.255922 344.098218 
L 484.898789 344.416186 
L 491.541656 344.193609 
L 498.184524 343.748454 
L 511.470258 343.68486 
L 518.113125 343.303298 
L 531.398859 343.812047 
L 551.327461 343.875641 
L 557.970328 343.335095 
L 571.256062 343.525876 
L 577.898929 343.398689 
L 584.541796 343.875641 
L 591.184663 343.716657 
L 597.827531 344.225406 
L 604.470398 344.257202 
L 611.113265 343.907438 
L 624.398999 343.525876 
L 631.041866 343.525876 
L 637.684733 343.207908 
L 644.327601 343.462282 
L 650.970468 343.843844 
L 657.613335 343.748454 
L 664.256202 343.525876 
L 670.899069 343.716657 
L 684.184803 343.017127 
L 697.470538 342.730956 
L 704.113405 343.271502 
L 710.756272 343.303298 
L 717.399139 342.699159 
L 724.042006 343.176111 
L 730.684873 343.335095 
L 737.32774 343.112518 
L 743.970608 343.557673 
L 750.613475 343.303298 
L 757.256342 342.635566 
L 763.899209 342.667362 
L 770.542076 342.476582 
L 777.184943 342.953534 
L 783.82781 343.080721 
L 790.470677 343.398689 
L 797.113545 343.239705 
L 803.756412 343.398689 
L 810.399279 343.398689 
L 817.042146 342.730956 
L 823.685013 342.635566 
L 830.32788 342.730956 
L 836.970747 342.476582 
L 843.613615 343.017127 
L 850.256482 342.826346 
L 856.899349 343.207908 
L 870.185083 342.571972 
L 876.82795 342.79455 
L 883.470817 342.603769 
L 890.113684 341.840646 
L 896.756552 341.808849 
L 903.399419 342.285801 
L 910.042286 342.412988 
L 916.685153 341.936036 
L 923.32802 342.858143 
L 929.970887 342.508378 
L 936.613754 342.412988 
L 943.256622 341.777052 
L 949.899489 342.285801 
L 949.899489 342.285801 
" clip-path="url(#p5af9b5763c)" style="fill: none; stroke: #90ed7d; stroke-linecap: square"/>
   </g>
   <g id="line2d_20">
    <path d="M 86.326761 345.497278 
L 92.969628 345.560871 
L 99.612496 345.338294 
L 112.89823 345.719855 
L 119.541097 345.529074 
L 126.183964 345.592668 
L 132.826831 345.433684 
L 139.469698 345.052122 
L 146.112566 344.924935 
L 152.755433 345.020326 
L 159.3983 344.988529 
L 166.041167 345.211106 
L 199.255503 344.511577 
L 205.89837 344.606967 
L 219.184104 344.225406 
L 225.826971 344.606967 
L 232.469838 344.606967 
L 239.112705 344.288999 
L 252.39844 344.47978 
L 259.041307 344.257202 
L 265.684174 344.606967 
L 278.969908 344.066422 
L 305.541377 344.034625 
L 312.184244 344.352593 
L 318.827111 344.034625 
L 325.469978 344.130015 
L 332.112845 344.38439 
L 338.755712 344.034625 
L 345.39858 343.812047 
L 352.041447 344.002828 
L 371.970048 344.257202 
L 378.612915 344.002828 
L 391.898649 344.606967 
L 398.541517 344.416186 
L 405.184384 344.511577 
L 411.827251 344.416186 
L 418.470118 344.034625 
L 425.112985 344.225406 
L 445.041587 343.843844 
L 451.684454 344.352593 
L 458.327321 344.288999 
L 464.970188 344.447983 
L 471.613055 344.47978 
L 478.255922 343.843844 
L 484.898789 344.130015 
L 491.541656 344.034625 
L 498.184524 343.621266 
L 504.827391 343.462282 
L 511.470258 343.525876 
L 518.113125 343.239705 
L 531.398859 343.58947 
L 538.041726 343.58947 
L 544.684594 343.748454 
L 551.327461 343.716657 
L 557.970328 343.080721 
L 564.613195 343.144314 
L 571.256062 343.366892 
L 577.898929 343.144314 
L 584.541796 343.462282 
L 604.470398 343.971031 
L 611.113265 343.748454 
L 617.756132 343.303298 
L 624.398999 343.271502 
L 631.041866 343.398689 
L 637.684733 343.080721 
L 650.970468 343.494079 
L 657.613335 343.525876 
L 664.256202 343.366892 
L 670.899069 343.68486 
L 677.541936 343.366892 
L 684.184803 342.858143 
L 690.82767 342.540175 
L 697.470538 342.635566 
L 710.756272 343.144314 
L 717.399139 342.699159 
L 724.042006 343.017127 
L 730.684873 343.112518 
L 737.32774 342.603769 
L 743.970608 343.239705 
L 750.613475 342.826346 
L 757.256342 342.88994 
L 770.542076 342.317598 
L 790.470677 343.239705 
L 797.113545 342.921737 
L 803.756412 343.207908 
L 810.399279 343.017127 
L 817.042146 342.444785 
L 830.32788 342.158614 
L 836.970747 342.158614 
L 843.613615 342.508378 
L 856.899349 342.79455 
L 863.542216 342.699159 
L 870.185083 342.412988 
L 883.470817 342.254004 
L 890.113684 341.745255 
L 903.399419 341.904239 
L 910.042286 342.19041 
L 916.685153 341.872442 
L 923.32802 342.476582 
L 929.970887 342.508378 
L 936.613754 341.99963 
L 943.256622 341.745255 
L 949.899489 342.285801 
L 949.899489 342.285801 
" clip-path="url(#p5af9b5763c)" style="fill: none; stroke: #f7a35c; stroke-linecap: square"/>
   </g>
   <g id="line2d_21">
    <path d="M 86.326761 341.713458 
L 92.969628 341.872442 
L 99.612496 341.522678 
L 106.255363 341.808849 
L 112.89823 341.967833 
L 119.541097 341.777052 
L 126.183964 341.840646 
L 132.826831 341.554474 
L 139.469698 340.886742 
L 159.3983 340.823148 
L 166.041167 341.077522 
L 179.326901 340.854945 
L 185.969768 340.536977 
L 192.612635 340.60057 
L 199.255503 340.282602 
L 212.541237 340.091822 
L 219.184104 339.80565 
L 225.826971 340.123618 
L 245.755573 340.123618 
L 252.39844 340.250806 
L 259.041307 339.996431 
L 265.684174 340.40979 
L 278.969908 339.519479 
L 285.612775 339.61487 
L 292.255642 339.455886 
L 305.541377 339.551276 
L 312.184244 340.028228 
L 318.827111 339.742057 
L 325.469978 339.61487 
L 332.112845 340.060025 
L 345.39858 339.455886 
L 358.684314 339.61487 
L 378.612915 339.61487 
L 385.255782 339.996431 
L 391.898649 340.664164 
L 411.827251 340.091822 
L 418.470118 339.61487 
L 425.112985 339.742057 
L 431.755852 339.455886 
L 438.398719 339.360495 
L 445.041587 339.551276 
L 451.684454 339.996431 
L 458.327321 340.028228 
L 464.970188 340.219009 
L 471.613055 340.219009 
L 478.255922 339.583073 
L 484.898789 339.869244 
L 491.541656 339.519479 
L 498.184524 339.042527 
L 511.470258 338.851746 
L 524.755992 339.233308 
L 538.041726 339.201511 
L 544.684594 339.074324 
L 551.327461 339.233308 
L 564.613195 338.374794 
L 571.256062 338.756356 
L 577.898929 338.533778 
L 584.541796 339.106121 
L 591.184663 339.233308 
L 597.827531 339.61487 
L 604.470398 339.61487 
L 617.756132 338.851746 
L 631.041866 338.788153 
L 637.684733 338.438388 
L 644.327601 338.438388 
L 650.970468 339.106121 
L 657.613335 338.947137 
L 664.256202 338.947137 
L 670.899069 339.074324 
L 677.541936 338.724559 
L 684.184803 338.056826 
L 690.82767 338.088623 
L 697.470538 337.834249 
L 704.113405 338.406591 
L 710.756272 338.438388 
L 717.399139 338.152217 
L 730.684873 338.660966 
L 737.32774 338.247607 
L 743.970608 338.81995 
L 750.613475 338.533778 
L 757.256342 337.770655 
L 763.899209 337.866046 
L 770.542076 337.42089 
L 777.184943 337.866046 
L 783.82781 338.12042 
L 790.470677 338.501982 
L 803.756412 338.311201 
L 810.399279 338.533778 
L 817.042146 337.770655 
L 836.970747 337.23011 
L 843.613615 337.770655 
L 850.256482 337.866046 
L 856.899349 338.184014 
L 863.542216 337.897842 
L 870.185083 337.961436 
L 883.470817 337.579874 
L 890.113684 336.562377 
L 910.042286 337.389094 
L 916.685153 336.975735 
L 923.32802 337.738858 
L 929.970887 337.707062 
L 936.613754 337.42089 
L 943.256622 336.943938 
L 949.899489 337.548078 
L 949.899489 337.548078 
" clip-path="url(#p5af9b5763c)" style="fill: none; stroke: #8085e9; stroke-linecap: square"/>
   </g>
   <g id="line2d_22">
    <path d="M 86.326761 344.320796 
L 92.969628 344.320796 
L 99.612496 344.193609 
L 106.255363 344.416186 
L 126.183964 344.416186 
L 132.826831 344.193609 
L 139.469698 343.748454 
L 146.112566 343.58947 
L 152.755433 343.68486 
L 159.3983 343.58947 
L 166.041167 343.812047 
L 172.684034 343.653063 
L 179.326901 343.653063 
L 185.969768 343.239705 
L 192.612635 343.366892 
L 199.255503 343.176111 
L 212.541237 343.017127 
L 219.184104 342.88994 
L 225.826971 343.112518 
L 245.755573 342.98533 
L 252.39844 343.144314 
L 259.041307 342.730956 
L 265.684174 343.112518 
L 272.327041 342.921737 
L 278.969908 342.508378 
L 285.612775 342.476582 
L 292.255642 342.571972 
L 298.89851 342.444785 
L 305.541377 342.508378 
L 312.184244 342.79455 
L 318.827111 342.571972 
L 325.469978 342.476582 
L 332.112845 342.858143 
L 345.39858 342.19041 
L 352.041447 342.603769 
L 358.684314 342.571972 
L 365.327181 342.667362 
L 371.970048 342.635566 
L 378.612915 342.381191 
L 391.898649 343.176111 
L 398.541517 343.017127 
L 405.184384 343.048924 
L 418.470118 342.381191 
L 425.112985 342.508378 
L 445.041587 342.381191 
L 451.684454 342.79455 
L 458.327321 342.699159 
L 464.970188 342.858143 
L 471.613055 342.762753 
L 478.255922 342.349394 
L 484.898789 342.540175 
L 491.541656 342.412988 
L 498.184524 341.904239 
L 504.827391 341.745255 
L 511.470258 341.840646 
L 518.113125 341.713458 
L 531.398859 341.967833 
L 544.684594 341.904239 
L 551.327461 341.99963 
L 557.970328 341.618068 
L 577.898929 341.522678 
L 584.541796 341.777052 
L 591.184663 341.872442 
L 597.827531 342.222207 
L 624.398999 341.713458 
L 631.041866 341.459084 
L 637.684733 341.363694 
L 644.327601 341.459084 
L 650.970468 341.808849 
L 664.256202 341.522678 
L 670.899069 341.745255 
L 684.184803 340.950335 
L 704.113405 340.982132 
L 710.756272 341.109319 
L 717.399139 340.791351 
L 724.042006 341.39549 
L 730.684873 341.459084 
L 737.32774 340.791351 
L 743.970608 341.427287 
L 750.613475 341.236506 
L 757.256342 340.823148 
L 763.899209 340.60057 
L 770.542076 340.50518 
L 777.184943 340.854945 
L 783.82781 340.886742 
L 790.470677 341.172913 
L 797.113545 341.172913 
L 803.756412 340.950335 
L 810.399279 341.045726 
L 817.042146 340.60057 
L 830.32788 340.123618 
L 836.970747 340.282602 
L 843.613615 340.823148 
L 850.256482 340.536977 
L 856.899349 340.950335 
L 863.542216 340.791351 
L 870.185083 340.346196 
L 876.82795 340.473383 
L 883.470817 340.40979 
L 890.113684 339.80565 
L 903.399419 339.80565 
L 910.042286 340.091822 
L 916.685153 339.901041 
L 923.32802 340.50518 
L 929.970887 340.50518 
L 943.256622 339.71026 
L 949.899489 340.155415 
L 949.899489 340.155415 
" clip-path="url(#p5af9b5763c)" style="fill: none; stroke: #f15c80; stroke-linecap: square"/>
   </g>
   <g id="line2d_23">
    <path d="M 43.148125 353.2239 
L 993.078125 353.2239 
" clip-path="url(#p5af9b5763c)" style="fill: none; stroke: #dedede; stroke-width: 2; stroke-linecap: square"/>
   </g>
   <g id="text_16">
    <!-- Bismark: M-Bias -->
    <g transform="translate(454.100625 19.3575)scale(0.16 -0.16)">
     <defs>
      <path id="DejaVuSans-42" d="M 1259 2228 
L 1259 519 
L 2272 519 
Q 2781 519 3026 730 
Q 3272 941 3272 1375 
Q 3272 1813 3026 2020 
Q 2781 2228 2272 2228 
L 1259 2228 
z
M 1259 4147 
L 1259 2741 
L 2194 2741 
Q 2656 2741 2882 2914 
Q 3109 3088 3109 3444 
Q 3109 3797 2882 3972 
Q 2656 4147 2194 4147 
L 1259 4147 
z
M 628 4666 
L 2241 4666 
Q 2963 4666 3353 4366 
Q 3744 4066 3744 3513 
Q 3744 3084 3544 2831 
Q 3344 2578 2956 2516 
Q 3422 2416 3680 2098 
Q 3938 1781 3938 1306 
Q 3938 681 3513 340 
Q 3088 0 2303 0 
L 628 0 
L 628 4666 
z
" transform="scale(0.015625)"/>
      <path id="DejaVuSans-6d" d="M 3328 2828 
Q 3544 3216 3844 3400 
Q 4144 3584 4550 3584 
Q 5097 3584 5394 3201 
Q 5691 2819 5691 2113 
L 5691 0 
L 5113 0 
L 5113 2094 
Q 5113 2597 4934 2840 
Q 4756 3084 4391 3084 
Q 3944 3084 3684 2787 
Q 3425 2491 3425 1978 
L 3425 0 
L 2847 0 
L 2847 2094 
Q 2847 2600 2669 2842 
Q 2491 3084 2119 3084 
Q 1678 3084 1418 2786 
Q 1159 2488 1159 1978 
L 1159 0 
L 581 0 
L 581 3500 
L 1159 3500 
L 1159 2956 
Q 1356 3278 1631 3431 
Q 1906 3584 2284 3584 
Q 2666 3584 2933 3390 
Q 3200 3197 3328 2828 
z
" transform="scale(0.015625)"/>
      <path id="DejaVuSans-72" d="M 2631 2963 
Q 2534 3019 2420 3045 
Q 2306 3072 2169 3072 
Q 1681 3072 1420 2755 
Q 1159 2438 1159 1844 
L 1159 0 
L 581 0 
L 581 3500 
L 1159 3500 
L 1159 2956 
Q 1341 3275 1631 3429 
Q 1922 3584 2338 3584 
Q 2397 3584 2469 3576 
Q 2541 3569 2628 3553 
L 2631 2963 
z
" transform="scale(0.015625)"/>
      <path id="DejaVuSans-6b" d="M 581 4863 
L 1159 4863 
L 1159 1991 
L 2875 3500 
L 3609 3500 
L 1753 1863 
L 3688 0 
L 2938 0 
L 1159 1709 
L 1159 0 
L 581 0 
L 581 4863 
z
" transform="scale(0.015625)"/>
      <path id="DejaVuSans-3a" d="M 750 794 
L 1409 794 
L 1409 0 
L 750 0 
L 750 794 
z
M 750 3309 
L 1409 3309 
L 1409 2516 
L 750 2516 
L 750 3309 
z
" transform="scale(0.015625)"/>
      <path id="DejaVuSans-2d" d="M 313 2009 
L 1997 2009 
L 1997 1497 
L 313 1497 
L 313 2009 
z
" transform="scale(0.015625)"/>
     </defs>
     <use xlink:href="#DejaVuSans-42"/>
     <use xlink:href="#DejaVuSans-69" x="68.603516"/>
     <use xlink:href="#DejaVuSans-73" x="96.386719"/>
     <use xlink:href="#DejaVuSans-6d" x="148.486328"/>
     <use xlink:href="#DejaVuSans-61" x="245.898438"/>
     <use xlink:href="#DejaVuSans-72" x="307.177734"/>
     <use xlink:href="#DejaVuSans-6b" x="348.291016"/>
     <use xlink:href="#DejaVuSans-3a" x="406.201172"/>
     <use xlink:href="#DejaVuSans-20" x="439.892578"/>
     <use xlink:href="#DejaVuSans-4d" x="471.679688"/>
     <use xlink:href="#DejaVuSans-2d" x="557.958984"/>
     <use xlink:href="#DejaVuSans-42" x="590.417969"/>
     <use xlink:href="#DejaVuSans-69" x="659.021484"/>
     <use xlink:href="#DejaVuSans-61" x="686.804688"/>
     <use xlink:href="#DejaVuSans-73" x="748.083984"/>
    </g>
   </g>
  </g>
 </g>
 <defs>
  <clipPath id="p5af9b5763c">
   <rect x="43.148125" y="35.2559" width="949.93" height="317.968"/>
  </clipPath>
 </defs>
</svg>
