<?xml version="1.0" encoding="utf-8" standalone="no"?>
<!DOCTYPE svg PUBLIC "-//W3C//DTD SVG 1.1//EN"
  "http://www.w3.org/Graphics/SVG/1.1/DTD/svg11.dtd">
<svg xmlns:xlink="http://www.w3.org/1999/xlink" width="1000.318125pt" height="388.844525pt" viewBox="0 0 1000.318125 388.844525" xmlns="http://www.w3.org/2000/svg" version="1.1">
 <metadata>
  <rdf:RDF xmlns:dc="http://purl.org/dc/elements/1.1/" xmlns:cc="http://creativecommons.org/ns#" xmlns:rdf="http://www.w3.org/1999/02/22-rdf-syntax-ns#">
   <cc:Work>
    <dc:type rdf:resource="http://purl.org/dc/dcmitype/StillImage"/>
    <dc:date>2023-04-21T00:02:42.636640</dc:date>
    <dc:format>image/svg+xml</dc:format>
    <dc:creator>
     <cc:Agent>
      <dc:title>Matplotlib v3.5.3, https://matplotlib.org/</dc:title>
     </cc:Agent>
    </dc:creator>
   </cc:Work>
  </rdf:RDF>
 </metadata>
 <defs>
  <style type="text/css">*{stroke-linejoin: round; stroke-linecap: butt}</style>
 </defs>
 <g id="figure_1">
  <g id="axes_1">
   <g id="patch_1">
    <path d="M 38.058125 353.2239 
L 993.118125 353.2239 
L 993.118125 35.2559 
L 38.058125 35.2559 
z
" style="fill: #ffffff"/>
   </g>
   <g id="patch_2">
    <path d="M 38.058125 -53.540074 
L 955.952612 -53.540074 
L 955.952612 -1680.59597 
L 38.058125 -1680.59597 
z
" clip-path="url(#pf5dc6e3758)" style="fill: #e6c3c3"/>
   </g>
   <g id="patch_3">
    <path d="M 38.058125 251.532907 
L 955.952612 251.532907 
L 955.952612 -53.540074 
L 38.058125 -53.540074 
z
" clip-path="url(#pf5dc6e3758)" style="fill: #e6dcc3"/>
   </g>
   <g id="patch_4">
    <path d="M 38.058125 353.2239 
L 955.952612 353.2239 
L 955.952612 251.532907 
L 38.058125 251.532907 
z
" clip-path="url(#pf5dc6e3758)" style="fill: #c3e6c3"/>
   </g>
   <g id="matplotlib.axis_1">
    <g id="xtick_1">
     <g id="text_1">
      <!-- 0 -->
      <g transform="translate(72.678638 366.30265)scale(0.08 -0.08)">
       <defs>
        <path id="DejaVuSans-30" d="M 2034 4250 
Q 1547 4250 1301 3770 
Q 1056 3291 1056 2328 
Q 1056 1369 1301 889 
Q 1547 409 2034 409 
Q 2525 409 2770 889 
Q 3016 1369 3016 2328 
Q 3016 3291 2770 3770 
Q 2525 4250 2034 4250 
z
M 2034 4750 
Q 2819 4750 3233 4129 
Q 3647 3509 3647 2328 
Q 3647 1150 3233 529 
Q 2819 -91 2034 -91 
Q 1250 -91 836 529 
Q 422 1150 422 2328 
Q 422 3509 836 4129 
Q 1250 4750 2034 4750 
z
" transform="scale(0.015625)"/>
       </defs>
       <use xlink:href="#DejaVuSans-30"/>
      </g>
     </g>
    </g>
    <g id="xtick_2">
     <g id="text_2">
      <!-- 20 -->
      <g transform="translate(195.059734 366.30265)scale(0.08 -0.08)">
       <defs>
        <path id="DejaVuSans-32" d="M 1228 531 
L 3431 531 
L 3431 0 
L 469 0 
L 469 531 
Q 828 903 1448 1529 
Q 2069 2156 2228 2338 
Q 2531 2678 2651 2914 
Q 2772 3150 2772 3378 
Q 2772 3750 2511 3984 
Q 2250 4219 1831 4219 
Q 1534 4219 1204 4116 
Q 875 4013 500 3803 
L 500 4441 
Q 881 4594 1212 4672 
Q 1544 4750 1819 4750 
Q 2544 4750 2975 4387 
Q 3406 4025 3406 3419 
Q 3406 3131 3298 2873 
Q 3191 2616 2906 2266 
Q 2828 2175 2409 1742 
Q 1991 1309 1228 531 
z
" transform="scale(0.015625)"/>
       </defs>
       <use xlink:href="#DejaVuSans-32"/>
       <use xlink:href="#DejaVuSans-30" x="63.623047"/>
      </g>
     </g>
    </g>
    <g id="xtick_3">
     <g id="text_3">
      <!-- 40 -->
      <g transform="translate(319.985829 366.30265)scale(0.08 -0.08)">
       <defs>
        <path id="DejaVuSans-34" d="M 2419 4116 
L 825 1625 
L 2419 1625 
L 2419 4116 
z
M 2253 4666 
L 3047 4666 
L 3047 1625 
L 3713 1625 
L 3713 1100 
L 3047 1100 
L 3047 0 
L 2419 0 
L 2419 1100 
L 313 1100 
L 313 1709 
L 2253 4666 
z
" transform="scale(0.015625)"/>
       </defs>
       <use xlink:href="#DejaVuSans-34"/>
       <use xlink:href="#DejaVuSans-30" x="63.623047"/>
      </g>
     </g>
    </g>
    <g id="xtick_4">
     <g id="text_4">
      <!-- 60 -->
      <g transform="translate(444.911925 366.30265)scale(0.08 -0.08)">
       <defs>
        <path id="DejaVuSans-36" d="M 2113 2584 
Q 1688 2584 1439 2293 
Q 1191 2003 1191 1497 
Q 1191 994 1439 701 
Q 1688 409 2113 409 
Q 2538 409 2786 701 
Q 3034 994 3034 1497 
Q 3034 2003 2786 2293 
Q 2538 2584 2113 2584 
z
M 3366 4563 
L 3366 3988 
Q 3128 4100 2886 4159 
Q 2644 4219 2406 4219 
Q 1781 4219 1451 3797 
Q 1122 3375 1075 2522 
Q 1259 2794 1537 2939 
Q 1816 3084 2150 3084 
Q 2853 3084 3261 2657 
Q 3669 2231 3669 1497 
Q 3669 778 3244 343 
Q 2819 -91 2113 -91 
Q 1303 -91 875 529 
Q 447 1150 447 2328 
Q 447 3434 972 4092 
Q 1497 4750 2381 4750 
Q 2619 4750 2861 4703 
Q 3103 4656 3366 4563 
z
" transform="scale(0.015625)"/>
       </defs>
       <use xlink:href="#DejaVuSans-36"/>
       <use xlink:href="#DejaVuSans-30" x="63.623047"/>
      </g>
     </g>
    </g>
    <g id="xtick_5">
     <g id="text_5">
      <!-- 80 -->
      <g transform="translate(569.83802 366.30265)scale(0.08 -0.08)">
       <defs>
        <path id="DejaVuSans-38" d="M 2034 2216 
Q 1584 2216 1326 1975 
Q 1069 1734 1069 1313 
Q 1069 891 1326 650 
Q 1584 409 2034 409 
Q 2484 409 2743 651 
Q 3003 894 3003 1313 
Q 3003 1734 2745 1975 
Q 2488 2216 2034 2216 
z
M 1403 2484 
Q 997 2584 770 2862 
Q 544 3141 544 3541 
Q 544 4100 942 4425 
Q 1341 4750 2034 4750 
Q 2731 4750 3128 4425 
Q 3525 4100 3525 3541 
Q 3525 3141 3298 2862 
Q 3072 2584 2669 2484 
Q 3125 2378 3379 2068 
Q 3634 1759 3634 1313 
Q 3634 634 3220 271 
Q 2806 -91 2034 -91 
Q 1263 -91 848 271 
Q 434 634 434 1313 
Q 434 1759 690 2068 
Q 947 2378 1403 2484 
z
M 1172 3481 
Q 1172 3119 1398 2916 
Q 1625 2713 2034 2713 
Q 2441 2713 2670 2916 
Q 2900 3119 2900 3481 
Q 2900 3844 2670 4047 
Q 2441 4250 2034 4250 
Q 1625 4250 1398 4047 
Q 1172 3844 1172 3481 
z
" transform="scale(0.015625)"/>
       </defs>
       <use xlink:href="#DejaVuSans-38"/>
       <use xlink:href="#DejaVuSans-30" x="63.623047"/>
      </g>
     </g>
    </g>
    <g id="xtick_6">
     <g id="text_6">
      <!-- 100 -->
      <g transform="translate(692.219116 366.30265)scale(0.08 -0.08)">
       <defs>
        <path id="DejaVuSans-31" d="M 794 531 
L 1825 531 
L 1825 4091 
L 703 3866 
L 703 4441 
L 1819 4666 
L 2450 4666 
L 2450 531 
L 3481 531 
L 3481 0 
L 794 0 
L 794 531 
z
" transform="scale(0.015625)"/>
       </defs>
       <use xlink:href="#DejaVuSans-31"/>
       <use xlink:href="#DejaVuSans-30" x="63.623047"/>
       <use xlink:href="#DejaVuSans-30" x="127.246094"/>
      </g>
     </g>
    </g>
    <g id="xtick_7">
     <g id="text_7">
      <!-- 120 -->
      <g transform="translate(817.145211 366.30265)scale(0.08 -0.08)">
       <use xlink:href="#DejaVuSans-31"/>
       <use xlink:href="#DejaVuSans-32" x="63.623047"/>
       <use xlink:href="#DejaVuSans-30" x="127.246094"/>
      </g>
     </g>
    </g>
    <g id="xtick_8">
     <g id="text_8">
      <!-- 140 -->
      <g transform="translate(942.071307 366.30265)scale(0.08 -0.08)">
       <use xlink:href="#DejaVuSans-31"/>
       <use xlink:href="#DejaVuSans-34" x="63.623047"/>
       <use xlink:href="#DejaVuSans-30" x="127.246094"/>
      </g>
     </g>
    </g>
    <g id="text_9">
     <!-- Position (bp) -->
     <g transform="translate(484.285 379.564837)scale(0.1 -0.1)">
      <defs>
       <path id="DejaVuSans-50" d="M 1259 4147 
L 1259 2394 
L 2053 2394 
Q 2494 2394 2734 2622 
Q 2975 2850 2975 3272 
Q 2975 3691 2734 3919 
Q 2494 4147 2053 4147 
L 1259 4147 
z
M 628 4666 
L 2053 4666 
Q 2838 4666 3239 4311 
Q 3641 3956 3641 3272 
Q 3641 2581 3239 2228 
Q 2838 1875 2053 1875 
L 1259 1875 
L 1259 0 
L 628 0 
L 628 4666 
z
" transform="scale(0.015625)"/>
       <path id="DejaVuSans-6f" d="M 1959 3097 
Q 1497 3097 1228 2736 
Q 959 2375 959 1747 
Q 959 1119 1226 758 
Q 1494 397 1959 397 
Q 2419 397 2687 759 
Q 2956 1122 2956 1747 
Q 2956 2369 2687 2733 
Q 2419 3097 1959 3097 
z
M 1959 3584 
Q 2709 3584 3137 3096 
Q 3566 2609 3566 1747 
Q 3566 888 3137 398 
Q 2709 -91 1959 -91 
Q 1206 -91 779 398 
Q 353 888 353 1747 
Q 353 2609 779 3096 
Q 1206 3584 1959 3584 
z
" transform="scale(0.015625)"/>
       <path id="DejaVuSans-73" d="M 2834 3397 
L 2834 2853 
Q 2591 2978 2328 3040 
Q 2066 3103 1784 3103 
Q 1356 3103 1142 2972 
Q 928 2841 928 2578 
Q 928 2378 1081 2264 
Q 1234 2150 1697 2047 
L 1894 2003 
Q 2506 1872 2764 1633 
Q 3022 1394 3022 966 
Q 3022 478 2636 193 
Q 2250 -91 1575 -91 
Q 1294 -91 989 -36 
Q 684 19 347 128 
L 347 722 
Q 666 556 975 473 
Q 1284 391 1588 391 
Q 1994 391 2212 530 
Q 2431 669 2431 922 
Q 2431 1156 2273 1281 
Q 2116 1406 1581 1522 
L 1381 1569 
Q 847 1681 609 1914 
Q 372 2147 372 2553 
Q 372 3047 722 3315 
Q 1072 3584 1716 3584 
Q 2034 3584 2315 3537 
Q 2597 3491 2834 3397 
z
" transform="scale(0.015625)"/>
       <path id="DejaVuSans-69" d="M 603 3500 
L 1178 3500 
L 1178 0 
L 603 0 
L 603 3500 
z
M 603 4863 
L 1178 4863 
L 1178 4134 
L 603 4134 
L 603 4863 
z
" transform="scale(0.015625)"/>
       <path id="DejaVuSans-74" d="M 1172 4494 
L 1172 3500 
L 2356 3500 
L 2356 3053 
L 1172 3053 
L 1172 1153 
Q 1172 725 1289 603 
Q 1406 481 1766 481 
L 2356 481 
L 2356 0 
L 1766 0 
Q 1100 0 847 248 
Q 594 497 594 1153 
L 594 3053 
L 172 3053 
L 172 3500 
L 594 3500 
L 594 4494 
L 1172 4494 
z
" transform="scale(0.015625)"/>
       <path id="DejaVuSans-6e" d="M 3513 2113 
L 3513 0 
L 2938 0 
L 2938 2094 
Q 2938 2591 2744 2837 
Q 2550 3084 2163 3084 
Q 1697 3084 1428 2787 
Q 1159 2491 1159 1978 
L 1159 0 
L 581 0 
L 581 3500 
L 1159 3500 
L 1159 2956 
Q 1366 3272 1645 3428 
Q 1925 3584 2291 3584 
Q 2894 3584 3203 3211 
Q 3513 2838 3513 2113 
z
" transform="scale(0.015625)"/>
       <path id="DejaVuSans-20" transform="scale(0.015625)"/>
       <path id="DejaVuSans-28" d="M 1984 4856 
Q 1566 4138 1362 3434 
Q 1159 2731 1159 2009 
Q 1159 1288 1364 580 
Q 1569 -128 1984 -844 
L 1484 -844 
Q 1016 -109 783 600 
Q 550 1309 550 2009 
Q 550 2706 781 3412 
Q 1013 4119 1484 4856 
L 1984 4856 
z
" transform="scale(0.015625)"/>
       <path id="DejaVuSans-62" d="M 3116 1747 
Q 3116 2381 2855 2742 
Q 2594 3103 2138 3103 
Q 1681 3103 1420 2742 
Q 1159 2381 1159 1747 
Q 1159 1113 1420 752 
Q 1681 391 2138 391 
Q 2594 391 2855 752 
Q 3116 1113 3116 1747 
z
M 1159 2969 
Q 1341 3281 1617 3432 
Q 1894 3584 2278 3584 
Q 2916 3584 3314 3078 
Q 3713 2572 3713 1747 
Q 3713 922 3314 415 
Q 2916 -91 2278 -91 
Q 1894 -91 1617 61 
Q 1341 213 1159 525 
L 1159 0 
L 581 0 
L 581 4863 
L 1159 4863 
L 1159 2969 
z
" transform="scale(0.015625)"/>
       <path id="DejaVuSans-70" d="M 1159 525 
L 1159 -1331 
L 581 -1331 
L 581 3500 
L 1159 3500 
L 1159 2969 
Q 1341 3281 1617 3432 
Q 1894 3584 2278 3584 
Q 2916 3584 3314 3078 
Q 3713 2572 3713 1747 
Q 3713 922 3314 415 
Q 2916 -91 2278 -91 
Q 1894 -91 1617 61 
Q 1341 213 1159 525 
z
M 3116 1747 
Q 3116 2381 2855 2742 
Q 2594 3103 2138 3103 
Q 1681 3103 1420 2742 
Q 1159 2381 1159 1747 
Q 1159 1113 1420 752 
Q 1681 391 2138 391 
Q 2594 391 2855 752 
Q 3116 1113 3116 1747 
z
" transform="scale(0.015625)"/>
       <path id="DejaVuSans-29" d="M 513 4856 
L 1013 4856 
Q 1481 4119 1714 3412 
Q 1947 2706 1947 2009 
Q 1947 1309 1714 600 
Q 1481 -109 1013 -844 
L 513 -844 
Q 928 -128 1133 580 
Q 1338 1288 1338 2009 
Q 1338 2731 1133 3434 
Q 928 4138 513 4856 
z
" transform="scale(0.015625)"/>
      </defs>
      <use xlink:href="#DejaVuSans-50"/>
      <use xlink:href="#DejaVuSans-6f" x="56.677734"/>
      <use xlink:href="#DejaVuSans-73" x="117.859375"/>
      <use xlink:href="#DejaVuSans-69" x="169.958984"/>
      <use xlink:href="#DejaVuSans-74" x="197.742188"/>
      <use xlink:href="#DejaVuSans-69" x="236.951172"/>
      <use xlink:href="#DejaVuSans-6f" x="264.734375"/>
      <use xlink:href="#DejaVuSans-6e" x="325.916016"/>
      <use xlink:href="#DejaVuSans-20" x="389.294922"/>
      <use xlink:href="#DejaVuSans-28" x="421.082031"/>
      <use xlink:href="#DejaVuSans-62" x="460.095703"/>
      <use xlink:href="#DejaVuSans-70" x="523.572266"/>
      <use xlink:href="#DejaVuSans-29" x="587.048828"/>
     </g>
    </g>
   </g>
   <g id="matplotlib.axis_2">
    <g id="ytick_1">
     <g id="line2d_1">
      <path d="M 38.058125 353.2239 
L 993.118125 353.2239 
" clip-path="url(#pf5dc6e3758)" style="fill: none; stroke: #dedede; stroke-linecap: square"/>
     </g>
     <g id="text_10">
      <!-- 0 -->
      <g transform="translate(25.968125 356.263275)scale(0.08 -0.08)">
       <use xlink:href="#DejaVuSans-30"/>
      </g>
     </g>
    </g>
    <g id="ytick_2">
     <g id="line2d_2">
      <path d="M 38.058125 312.547503 
L 993.118125 312.547503 
" clip-path="url(#pf5dc6e3758)" style="fill: none; stroke: #dedede; stroke-linecap: square"/>
     </g>
     <g id="text_11">
      <!-- 2 -->
      <g transform="translate(25.968125 315.586878)scale(0.08 -0.08)">
       <use xlink:href="#DejaVuSans-32"/>
      </g>
     </g>
    </g>
    <g id="ytick_3">
     <g id="line2d_3">
      <path d="M 38.058125 271.871105 
L 993.118125 271.871105 
" clip-path="url(#pf5dc6e3758)" style="fill: none; stroke: #dedede; stroke-linecap: square"/>
     </g>
     <g id="text_12">
      <!-- 4 -->
      <g transform="translate(25.968125 274.91048)scale(0.08 -0.08)">
       <use xlink:href="#DejaVuSans-34"/>
      </g>
     </g>
    </g>
    <g id="ytick_4">
     <g id="line2d_4">
      <path d="M 38.058125 231.194708 
L 993.118125 231.194708 
" clip-path="url(#pf5dc6e3758)" style="fill: none; stroke: #dedede; stroke-linecap: square"/>
     </g>
     <g id="text_13">
      <!-- 6 -->
      <g transform="translate(25.968125 234.234083)scale(0.08 -0.08)">
       <use xlink:href="#DejaVuSans-36"/>
      </g>
     </g>
    </g>
    <g id="ytick_5">
     <g id="line2d_5">
      <path d="M 38.058125 190.51831 
L 993.118125 190.51831 
" clip-path="url(#pf5dc6e3758)" style="fill: none; stroke: #dedede; stroke-linecap: square"/>
     </g>
     <g id="text_14">
      <!-- 8 -->
      <g transform="translate(25.968125 193.557685)scale(0.08 -0.08)">
       <use xlink:href="#DejaVuSans-38"/>
      </g>
     </g>
    </g>
    <g id="ytick_6">
     <g id="line2d_6">
      <path d="M 38.058125 149.841913 
L 993.118125 149.841913 
" clip-path="url(#pf5dc6e3758)" style="fill: none; stroke: #dedede; stroke-linecap: square"/>
     </g>
     <g id="text_15">
      <!-- 10 -->
      <g transform="translate(20.878125 152.881288)scale(0.08 -0.08)">
       <use xlink:href="#DejaVuSans-31"/>
       <use xlink:href="#DejaVuSans-30" x="63.623047"/>
      </g>
     </g>
    </g>
    <g id="ytick_7">
     <g id="line2d_7">
      <path d="M 38.058125 109.165516 
L 993.118125 109.165516 
" clip-path="url(#pf5dc6e3758)" style="fill: none; stroke: #dedede; stroke-linecap: square"/>
     </g>
     <g id="text_16">
      <!-- 12 -->
      <g transform="translate(20.878125 112.204891)scale(0.08 -0.08)">
       <use xlink:href="#DejaVuSans-31"/>
       <use xlink:href="#DejaVuSans-32" x="63.623047"/>
      </g>
     </g>
    </g>
    <g id="ytick_8">
     <g id="line2d_8">
      <path d="M 38.058125 68.489118 
L 993.118125 68.489118 
" clip-path="url(#pf5dc6e3758)" style="fill: none; stroke: #dedede; stroke-linecap: square"/>
     </g>
     <g id="text_17">
      <!-- 14 -->
      <g transform="translate(20.878125 71.528493)scale(0.08 -0.08)">
       <use xlink:href="#DejaVuSans-31"/>
       <use xlink:href="#DejaVuSans-34" x="63.623047"/>
      </g>
     </g>
    </g>
    <g id="text_18">
     <!-- % of Sequences -->
     <g transform="translate(14.798438 234.257869)rotate(-90)scale(0.1 -0.1)">
      <defs>
       <path id="DejaVuSans-25" d="M 4653 2053 
Q 4381 2053 4226 1822 
Q 4072 1591 4072 1178 
Q 4072 772 4226 539 
Q 4381 306 4653 306 
Q 4919 306 5073 539 
Q 5228 772 5228 1178 
Q 5228 1588 5073 1820 
Q 4919 2053 4653 2053 
z
M 4653 2450 
Q 5147 2450 5437 2106 
Q 5728 1763 5728 1178 
Q 5728 594 5436 251 
Q 5144 -91 4653 -91 
Q 4153 -91 3862 251 
Q 3572 594 3572 1178 
Q 3572 1766 3864 2108 
Q 4156 2450 4653 2450 
z
M 1428 4353 
Q 1159 4353 1004 4120 
Q 850 3888 850 3481 
Q 850 3069 1003 2837 
Q 1156 2606 1428 2606 
Q 1700 2606 1854 2837 
Q 2009 3069 2009 3481 
Q 2009 3884 1853 4118 
Q 1697 4353 1428 4353 
z
M 4250 4750 
L 4750 4750 
L 1831 -91 
L 1331 -91 
L 4250 4750 
z
M 1428 4750 
Q 1922 4750 2215 4408 
Q 2509 4066 2509 3481 
Q 2509 2891 2217 2550 
Q 1925 2209 1428 2209 
Q 931 2209 642 2551 
Q 353 2894 353 3481 
Q 353 4063 643 4406 
Q 934 4750 1428 4750 
z
" transform="scale(0.015625)"/>
       <path id="DejaVuSans-66" d="M 2375 4863 
L 2375 4384 
L 1825 4384 
Q 1516 4384 1395 4259 
Q 1275 4134 1275 3809 
L 1275 3500 
L 2222 3500 
L 2222 3053 
L 1275 3053 
L 1275 0 
L 697 0 
L 697 3053 
L 147 3053 
L 147 3500 
L 697 3500 
L 697 3744 
Q 697 4328 969 4595 
Q 1241 4863 1831 4863 
L 2375 4863 
z
" transform="scale(0.015625)"/>
       <path id="DejaVuSans-53" d="M 3425 4513 
L 3425 3897 
Q 3066 4069 2747 4153 
Q 2428 4238 2131 4238 
Q 1616 4238 1336 4038 
Q 1056 3838 1056 3469 
Q 1056 3159 1242 3001 
Q 1428 2844 1947 2747 
L 2328 2669 
Q 3034 2534 3370 2195 
Q 3706 1856 3706 1288 
Q 3706 609 3251 259 
Q 2797 -91 1919 -91 
Q 1588 -91 1214 -16 
Q 841 59 441 206 
L 441 856 
Q 825 641 1194 531 
Q 1563 422 1919 422 
Q 2459 422 2753 634 
Q 3047 847 3047 1241 
Q 3047 1584 2836 1778 
Q 2625 1972 2144 2069 
L 1759 2144 
Q 1053 2284 737 2584 
Q 422 2884 422 3419 
Q 422 4038 858 4394 
Q 1294 4750 2059 4750 
Q 2388 4750 2728 4690 
Q 3069 4631 3425 4513 
z
" transform="scale(0.015625)"/>
       <path id="DejaVuSans-65" d="M 3597 1894 
L 3597 1613 
L 953 1613 
Q 991 1019 1311 708 
Q 1631 397 2203 397 
Q 2534 397 2845 478 
Q 3156 559 3463 722 
L 3463 178 
Q 3153 47 2828 -22 
Q 2503 -91 2169 -91 
Q 1331 -91 842 396 
Q 353 884 353 1716 
Q 353 2575 817 3079 
Q 1281 3584 2069 3584 
Q 2775 3584 3186 3129 
Q 3597 2675 3597 1894 
z
M 3022 2063 
Q 3016 2534 2758 2815 
Q 2500 3097 2075 3097 
Q 1594 3097 1305 2825 
Q 1016 2553 972 2059 
L 3022 2063 
z
" transform="scale(0.015625)"/>
       <path id="DejaVuSans-71" d="M 947 1747 
Q 947 1113 1208 752 
Q 1469 391 1925 391 
Q 2381 391 2643 752 
Q 2906 1113 2906 1747 
Q 2906 2381 2643 2742 
Q 2381 3103 1925 3103 
Q 1469 3103 1208 2742 
Q 947 2381 947 1747 
z
M 2906 525 
Q 2725 213 2448 61 
Q 2172 -91 1784 -91 
Q 1150 -91 751 415 
Q 353 922 353 1747 
Q 353 2572 751 3078 
Q 1150 3584 1784 3584 
Q 2172 3584 2448 3432 
Q 2725 3281 2906 2969 
L 2906 3500 
L 3481 3500 
L 3481 -1331 
L 2906 -1331 
L 2906 525 
z
" transform="scale(0.015625)"/>
       <path id="DejaVuSans-75" d="M 544 1381 
L 544 3500 
L 1119 3500 
L 1119 1403 
Q 1119 906 1312 657 
Q 1506 409 1894 409 
Q 2359 409 2629 706 
Q 2900 1003 2900 1516 
L 2900 3500 
L 3475 3500 
L 3475 0 
L 2900 0 
L 2900 538 
Q 2691 219 2414 64 
Q 2138 -91 1772 -91 
Q 1169 -91 856 284 
Q 544 659 544 1381 
z
M 1991 3584 
L 1991 3584 
z
" transform="scale(0.015625)"/>
       <path id="DejaVuSans-63" d="M 3122 3366 
L 3122 2828 
Q 2878 2963 2633 3030 
Q 2388 3097 2138 3097 
Q 1578 3097 1268 2742 
Q 959 2388 959 1747 
Q 959 1106 1268 751 
Q 1578 397 2138 397 
Q 2388 397 2633 464 
Q 2878 531 3122 666 
L 3122 134 
Q 2881 22 2623 -34 
Q 2366 -91 2075 -91 
Q 1284 -91 818 406 
Q 353 903 353 1747 
Q 353 2603 823 3093 
Q 1294 3584 2113 3584 
Q 2378 3584 2631 3529 
Q 2884 3475 3122 3366 
z
" transform="scale(0.015625)"/>
      </defs>
      <use xlink:href="#DejaVuSans-25"/>
      <use xlink:href="#DejaVuSans-20" x="95.019531"/>
      <use xlink:href="#DejaVuSans-6f" x="126.806641"/>
      <use xlink:href="#DejaVuSans-66" x="187.988281"/>
      <use xlink:href="#DejaVuSans-20" x="223.193359"/>
      <use xlink:href="#DejaVuSans-53" x="254.980469"/>
      <use xlink:href="#DejaVuSans-65" x="318.457031"/>
      <use xlink:href="#DejaVuSans-71" x="379.980469"/>
      <use xlink:href="#DejaVuSans-75" x="443.457031"/>
      <use xlink:href="#DejaVuSans-65" x="506.835938"/>
      <use xlink:href="#DejaVuSans-6e" x="568.359375"/>
      <use xlink:href="#DejaVuSans-63" x="631.738281"/>
      <use xlink:href="#DejaVuSans-65" x="686.71875"/>
      <use xlink:href="#DejaVuSans-73" x="748.242188"/>
     </g>
    </g>
   </g>
   <g id="line2d_9">
    <path d="M 81.469943 353.216731 
L 87.716248 353.206002 
L 93.962553 353.196725 
L 100.208858 353.189322 
L 106.455162 353.168285 
L 112.701467 353.018728 
L 118.947772 352.370883 
L 125.194077 352.264057 
L 131.440381 352.180002 
L 150.179296 351.929157 
L 181.41082 351.320997 
L 212.642343 350.370731 
L 243.873867 349.041317 
L 275.105391 347.731477 
L 306.336915 346.247727 
L 337.568439 344.458332 
L 368.799963 342.318509 
L 400.031487 339.702513 
L 431.263011 336.508579 
L 462.494534 332.825623 
L 493.726058 328.418386 
L 524.957582 323.164336 
L 556.189106 316.890124 
L 587.42063 309.565173 
L 618.652154 301.105212 
L 649.883678 291.034846 
L 681.115202 279.266571 
L 712.346725 265.521524 
L 743.578249 249.233948 
L 774.809773 230.106416 
L 806.041297 208.266416 
L 837.272821 183.506875 
L 868.504345 155.32482 
L 899.735869 123.85023 
L 930.967392 89.609723 
L 949.706307 67.54462 
" clip-path="url(#pf5dc6e3758)" style="fill: none; stroke: #7cb5ec; stroke-linecap: square"/>
   </g>
   <g id="line2d_10">
    <path d="M 81.469943 353.21631 
L 87.716248 353.204784 
L 93.962553 353.191946 
L 100.208858 353.18117 
L 106.455162 353.141531 
L 112.701467 352.855303 
L 118.947772 351.568562 
L 125.194077 350.799133 
L 131.440381 350.090331 
L 150.179296 348.240767 
L 181.41082 345.082375 
L 212.642343 341.852531 
L 243.873867 338.600339 
L 275.105391 335.654475 
L 306.336915 332.878633 
L 337.568439 330.014211 
L 368.799963 327.029018 
L 400.031487 323.688019 
L 431.263011 319.930594 
L 462.494534 315.784548 
L 493.726058 311.009369 
L 524.957582 305.461509 
L 556.189106 298.964143 
L 587.42063 291.462347 
L 618.652154 282.870972 
L 649.883678 272.706149 
L 681.115202 260.885164 
L 712.346725 247.138861 
L 743.578249 230.898766 
L 774.809773 211.849067 
L 806.041297 190.137672 
L 837.272821 165.55982 
L 868.504345 137.60223 
L 899.735869 106.340412 
L 930.967392 72.295547 
L 949.706307 50.397233 
" clip-path="url(#pf5dc6e3758)" style="fill: none; stroke: #434348; stroke-linecap: square"/>
   </g>
   <g id="line2d_11">
    <path d="M 81.469943 353.221661 
L 87.716248 353.219063 
L 93.962553 353.216105 
L 100.208858 353.214107 
L 106.455162 353.20915 
L 112.701467 353.175572 
L 118.947772 353.056492 
L 125.194077 353.004007 
L 131.440381 352.953241 
L 150.179296 352.783579 
L 181.41082 352.408294 
L 212.642343 351.778939 
L 243.873867 350.83657 
L 275.105391 349.890452 
L 306.336915 348.825005 
L 337.568439 347.529808 
L 368.799963 346.016333 
L 400.031487 344.183864 
L 431.263011 341.998463 
L 462.494534 339.519595 
L 493.726058 336.566252 
L 524.957582 333.064364 
L 556.189106 328.978316 
L 587.42063 324.194751 
L 618.652154 318.686246 
L 649.883678 312.189884 
L 681.115202 304.643072 
L 712.346725 295.822249 
L 743.578249 285.349413 
L 774.809773 272.979143 
L 806.041297 258.801522 
L 837.272821 242.671753 
L 868.504345 224.131741 
L 899.735869 203.216855 
L 930.967392 180.160083 
L 949.706307 165.069986 
" clip-path="url(#pf5dc6e3758)" style="fill: none; stroke: #90ed7d; stroke-linecap: square"/>
   </g>
   <g id="line2d_12">
    <path d="M 81.469943 353.221182 
L 87.716248 353.217864 
L 93.962553 353.212428 
L 100.208858 353.208111 
L 106.455162 353.185885 
L 112.701467 353.031029 
L 118.947772 352.344769 
L 125.194077 351.719987 
L 131.440381 351.111994 
L 150.179296 349.461923 
L 181.41082 346.638013 
L 212.642343 343.692225 
L 243.873867 340.725931 
L 275.105391 338.036212 
L 306.336915 335.560845 
L 337.568439 333.034225 
L 368.799963 330.544004 
L 400.031487 327.848249 
L 431.263011 324.951836 
L 462.494534 321.848753 
L 493.726058 318.386519 
L 524.957582 314.443295 
L 556.189106 309.981826 
L 587.42063 304.880721 
L 618.652154 299.107794 
L 649.883678 292.384287 
L 681.115202 284.655342 
L 712.346725 275.693214 
L 743.578249 265.129854 
L 774.809773 252.721681 
L 806.041297 238.551327 
L 837.272821 222.483141 
L 868.504345 204.033469 
L 899.735869 183.234145 
L 930.967392 160.294935 
L 949.706307 145.342154 
" clip-path="url(#pf5dc6e3758)" style="fill: none; stroke: #f7a35c; stroke-linecap: square"/>
   </g>
   <g id="line2d_13">
    <path d="M 81.469943 353.222451 
L 87.716248 353.220357 
L 93.962553 353.218667 
L 100.208858 353.217056 
L 106.455162 353.21295 
L 112.701467 353.180423 
L 118.947772 353.041942 
L 125.194077 352.970367 
L 131.440381 352.897262 
L 150.179296 352.6655 
L 181.41082 352.212361 
L 212.642343 351.616152 
L 243.873867 350.911799 
L 275.105391 350.220135 
L 306.336915 349.443031 
L 337.568439 348.544273 
L 368.799963 347.480079 
L 400.031487 346.207438 
L 431.263011 344.722262 
L 462.494534 343.033341 
L 493.726058 341.065043 
L 524.957582 338.771218 
L 556.189106 336.139226 
L 587.42063 333.115993 
L 618.652154 329.652358 
L 649.883678 325.661706 
L 681.115202 321.124392 
L 712.346725 315.867557 
L 743.578249 309.765634 
L 774.809773 302.660963 
L 806.041297 294.695504 
L 837.272821 285.672791 
L 868.504345 275.64258 
L 899.735869 264.272019 
L 930.967392 252.168973 
L 949.706307 244.194754 
" clip-path="url(#pf5dc6e3758)" style="fill: none; stroke: #8085e9; stroke-linecap: square"/>
   </g>
   <g id="line2d_14">
    <path d="M 81.469943 353.222853 
L 87.716248 353.221002 
L 93.962553 353.21754 
L 100.208858 353.215205 
L 106.455162 353.206831 
L 112.701467 353.152244 
L 118.947772 352.925924 
L 125.194077 352.764095 
L 131.440381 352.595744 
L 150.179296 352.050789 
L 181.41082 350.819451 
L 212.642343 348.983644 
L 243.873867 346.629596 
L 275.105391 344.478906 
L 306.336915 342.526855 
L 337.568439 340.597106 
L 368.799963 338.658115 
L 400.031487 336.555828 
L 431.263011 334.258912 
L 462.494534 331.747189 
L 493.726058 328.893788 
L 524.957582 325.620306 
L 556.189106 321.891947 
L 587.42063 317.652094 
L 618.652154 312.827883 
L 649.883678 307.297194 
L 681.115202 300.98106 
L 712.346725 293.6858 
L 743.578249 285.166321 
L 774.809773 275.123132 
L 806.041297 263.696662 
L 837.272821 250.935655 
L 868.504345 236.906113 
L 899.735869 221.345294 
L 930.967392 204.857344 
L 949.706307 193.97269 
" clip-path="url(#pf5dc6e3758)" style="fill: none; stroke: #f15c80; stroke-linecap: square"/>
   </g>
   <g id="line2d_15">
    <path d="M 81.469943 353.2239 
L 87.716248 353.223228 
L 93.962553 353.222557 
L 100.208858 353.222221 
L 106.455162 353.218862 
L 112.701467 353.20375 
L 118.947772 353.142964 
L 125.194077 353.102663 
L 131.440381 353.057661 
L 150.179296 352.923932 
L 181.41082 352.602873 
L 212.642343 352.022616 
L 243.873867 351.189273 
L 275.105391 350.253098 
L 306.336915 349.160423 
L 337.568439 347.799684 
L 368.799963 346.12541 
L 400.031487 344.108179 
L 431.263011 341.656243 
L 462.494534 338.881704 
L 493.726058 335.686094 
L 524.957582 331.95543 
L 556.189106 327.696497 
L 587.42063 322.966789 
L 618.652154 317.737762 
L 649.883678 311.726505 
L 681.115202 304.907833 
L 712.346725 297.289872 
L 743.578249 288.614096 
L 774.809773 278.723468 
L 806.041297 267.703493 
L 837.272821 255.468262 
L 868.504345 242.114027 
L 899.735869 227.254845 
L 930.967392 211.645743 
L 949.706307 201.613258 
" clip-path="url(#pf5dc6e3758)" style="fill: none; stroke: #e4d354; stroke-linecap: square"/>
   </g>
   <g id="line2d_16">
    <path d="M 81.469943 353.2239 
L 87.716248 353.223228 
L 93.962553 353.222557 
L 100.208858 353.222221 
L 106.455162 353.208116 
L 112.701467 353.154046 
L 118.947772 352.98277 
L 125.194077 352.858847 
L 131.440381 352.725856 
L 150.179296 352.335951 
L 181.41082 351.528938 
L 212.642343 350.392739 
L 243.873867 348.918219 
L 275.105391 347.373912 
L 306.336915 345.720459 
L 337.568439 343.815935 
L 368.799963 341.602846 
L 400.031487 339.032158 
L 431.263011 335.971755 
L 462.494534 332.471878 
L 493.726058 328.430163 
L 524.957582 323.697232 
L 556.189106 318.292562 
L 587.42063 312.272641 
L 618.652154 305.599722 
L 649.883678 297.888264 
L 681.115202 289.117312 
L 712.346725 279.271552 
L 743.578249 268.037716 
L 774.809773 254.962023 
L 806.041297 240.238049 
L 837.272821 224.029279 
L 868.504345 206.47374 
L 899.735869 187.265554 
L 930.967392 167.223959 
L 949.706307 154.30678 
" clip-path="url(#pf5dc6e3758)" style="fill: none; stroke: #2b908f; stroke-linecap: square"/>
   </g>
   <g id="line2d_17">
    <path d="M 81.469943 353.22306 
L 87.716248 353.22278 
L 93.962553 353.22166 
L 100.208858 353.22138 
L 106.455162 353.218861 
L 112.701467 353.207942 
L 118.947772 353.14915 
L 125.194077 353.115555 
L 131.440381 353.07804 
L 150.179296 352.952169 
L 181.41082 352.625958 
L 212.642343 352.111388 
L 243.873867 351.364002 
L 275.105391 350.326576 
L 306.336915 348.93987 
L 337.568439 347.115976 
L 368.799963 344.845094 
L 400.031487 342.023192 
L 431.263011 338.554411 
L 462.494534 334.593177 
L 493.726058 329.844802 
L 524.957582 324.240305 
L 556.189106 317.846595 
L 587.42063 310.786073 
L 618.652154 302.830289 
L 649.883678 293.813171 
L 681.115202 283.738973 
L 712.346725 272.51402 
L 743.578249 259.808294 
L 774.809773 245.450291 
L 806.041297 230.00234 
L 837.272821 213.082462 
L 868.504345 194.840942 
L 899.735869 175.255549 
L 930.967392 155.555035 
L 949.706307 142.987779 
" clip-path="url(#pf5dc6e3758)" style="fill: none; stroke: #f45b5b; stroke-linecap: square"/>
   </g>
   <g id="line2d_18">
    <path d="M 81.469943 353.2225 
L 87.716248 353.22138 
L 93.962553 353.22026 
L 100.208858 353.219981 
L 106.455162 353.211022 
L 112.701467 353.182746 
L 118.947772 353.054803 
L 125.194077 352.962976 
L 131.440381 352.868909 
L 150.179296 352.576237 
L 181.41082 351.819948 
L 212.642343 350.725018 
L 243.873867 349.245588 
L 275.105391 347.443643 
L 306.336915 345.31403 
L 337.568439 342.72416 
L 368.799963 339.645645 
L 400.031487 335.904797 
L 431.263011 331.382072 
L 462.494534 326.223609 
L 493.726058 320.039199 
L 524.957582 312.711706 
L 556.189106 304.299864 
L 587.42063 294.954183 
L 618.652154 284.455899 
L 649.883678 272.580763 
L 681.115202 259.12138 
L 712.346725 244.011847 
L 743.578249 226.937991 
L 774.809773 207.336696 
L 806.041297 185.956637 
L 837.272821 162.912093 
L 868.504345 138.348869 
L 899.735869 112.279227 
L 930.967392 85.912434 
L 949.706307 68.982982 
" clip-path="url(#pf5dc6e3758)" style="fill: none; stroke: #91e8e1; stroke-linecap: square"/>
   </g>
   <g id="line2d_19">
    <path d="M 81.469943 353.220315 
L 87.716248 353.215597 
L 93.962553 353.211162 
L 100.208858 353.207577 
L 106.455162 353.200312 
L 112.701467 353.1437 
L 118.947772 352.876868 
L 125.194077 352.791762 
L 131.440381 352.712882 
L 150.179296 352.453297 
L 181.41082 351.913728 
L 212.642343 351.272389 
L 243.873867 350.549944 
L 275.105391 349.736448 
L 306.336915 348.858943 
L 337.568439 347.889575 
L 368.799963 346.803756 
L 400.031487 345.553933 
L 431.263011 344.158238 
L 462.494534 342.669191 
L 493.726058 340.993098 
L 524.957582 339.136167 
L 556.189106 337.107625 
L 587.42063 334.912494 
L 618.652154 332.52507 
L 649.883678 329.870438 
L 681.115202 326.929707 
L 712.346725 323.691329 
L 743.578249 320.033173 
L 774.809773 315.840883 
L 806.041297 311.257988 
L 837.272821 306.091763 
L 868.504345 300.391026 
L 899.735869 293.928801 
L 930.967392 287.020624 
L 949.706307 282.4566 
" clip-path="url(#pf5dc6e3758)" style="fill: none; stroke: #7cb5ec; stroke-linecap: square"/>
   </g>
   <g id="line2d_20">
    <path d="M 81.469943 353.220126 
L 87.716248 353.215408 
L 93.962553 353.209464 
L 100.208858 353.204746 
L 106.455162 353.189461 
L 112.701467 353.10209 
L 118.947772 352.740528 
L 125.194077 352.556067 
L 131.440381 352.389627 
L 150.179296 351.873401 
L 181.41082 350.656545 
L 212.642343 348.77895 
L 243.873867 346.305136 
L 275.105391 343.880122 
L 306.336915 341.748491 
L 337.568439 339.655506 
L 368.799963 337.631438 
L 400.031487 335.468235 
L 431.263011 333.227324 
L 462.494534 330.860243 
L 493.726058 328.263392 
L 524.957582 325.433206 
L 556.189106 322.351568 
L 587.42063 319.038009 
L 618.652154 315.449562 
L 649.883678 311.491532 
L 681.115202 307.138595 
L 712.346725 302.293719 
L 743.578249 296.828601 
L 774.809773 290.493942 
L 806.041297 283.4809 
L 837.272821 275.733393 
L 868.504345 267.34132 
L 899.735869 258.010129 
L 930.967392 248.060244 
L 949.706307 241.480436 
" clip-path="url(#pf5dc6e3758)" style="fill: none; stroke: #434348; stroke-linecap: square"/>
   </g>
   <g id="line2d_21">
    <path d="M 81.469943 353.223317 
L 87.716248 353.222384 
L 93.962553 353.221918 
L 100.208858 353.221451 
L 106.455162 353.219936 
L 112.701467 353.206644 
L 118.947772 353.142516 
L 125.194077 353.099142 
L 131.440381 353.058333 
L 150.179296 352.903003 
L 181.41082 352.563753 
L 212.642343 352.103499 
L 243.873867 351.530753 
L 275.105391 350.878768 
L 306.336915 350.163307 
L 337.568439 349.351445 
L 368.799963 348.397731 
L 400.031487 347.273832 
L 431.263011 345.947312 
L 462.494534 344.445477 
L 493.726058 342.693938 
L 524.957582 340.647363 
L 556.189106 338.255872 
L 587.42063 335.485629 
L 618.652154 332.357014 
L 649.883678 328.754526 
L 681.115202 324.632671 
L 712.346725 319.881776 
L 743.578249 314.292831 
L 774.809773 307.760106 
L 806.041297 300.422794 
L 837.272821 292.103179 
L 868.504345 282.682681 
L 899.735869 272.0229 
L 930.967392 260.549041 
L 949.706307 252.996002 
" clip-path="url(#pf5dc6e3758)" style="fill: none; stroke: #90ed7d; stroke-linecap: square"/>
   </g>
   <g id="line2d_22">
    <path d="M 81.469943 353.2232 
L 87.716248 353.222268 
L 93.962553 353.221218 
L 100.208858 353.220286 
L 106.455162 353.216088 
L 112.701467 353.177728 
L 118.947772 353.035247 
L 125.194077 352.910721 
L 131.440381 352.797972 
L 150.179296 352.41796 
L 181.41082 351.453543 
L 212.642343 349.930464 
L 243.873867 347.890209 
L 275.105391 345.899437 
L 306.336915 344.082371 
L 337.568439 342.291796 
L 368.799963 340.544595 
L 400.031487 338.619771 
L 431.263011 336.546355 
L 462.494534 334.280252 
L 493.726058 331.73026 
L 524.957582 328.822595 
L 556.189106 325.48912 
L 587.42063 321.677551 
L 618.652154 317.413424 
L 649.883678 312.570745 
L 681.115202 307.041125 
L 712.346725 300.665922 
L 743.578249 293.134103 
L 774.809773 284.229639 
L 806.041297 274.098671 
L 837.272821 262.724059 
L 868.504345 250.079733 
L 899.735869 236.094359 
L 930.967392 221.080648 
L 949.706307 211.192481 
" clip-path="url(#pf5dc6e3758)" style="fill: none; stroke: #f7a35c; stroke-linecap: square"/>
   </g>
   <g id="line2d_23">
    <path d="M 81.469943 353.221807 
L 87.716248 353.22015 
L 93.962553 353.218754 
L 100.208858 353.217795 
L 106.455162 353.214655 
L 112.701467 353.193374 
L 118.947772 353.095515 
L 125.194077 353.034637 
L 131.440381 352.9687 
L 150.179296 352.748003 
L 181.41082 352.292061 
L 212.642343 351.704298 
L 243.873867 350.936377 
L 275.105391 350.016871 
L 306.336915 348.927237 
L 337.568439 347.595799 
L 368.799963 345.999986 
L 400.031487 344.026065 
L 431.263011 341.648184 
L 462.494534 338.893014 
L 493.726058 335.572776 
L 524.957582 331.646738 
L 556.189106 326.988817 
L 587.42063 321.593257 
L 618.652154 315.409437 
L 649.883678 308.177639 
L 681.115202 299.955095 
L 712.346725 290.641939 
L 743.578249 279.996597 
L 774.809773 267.821011 
L 806.041297 254.553577 
L 837.272821 239.960897 
L 868.504345 224.390763 
L 899.735869 207.504665 
L 930.967392 190.27217 
L 949.706307 179.365225 
" clip-path="url(#pf5dc6e3758)" style="fill: none; stroke: #8085e9; stroke-linecap: square"/>
   </g>
   <g id="line2d_24">
    <path d="M 81.469943 353.222068 
L 87.716248 353.220586 
L 93.962553 353.21858 
L 100.208858 353.215091 
L 106.455162 353.207939 
L 112.701467 353.158138 
L 118.947772 352.95867 
L 125.194077 352.795048 
L 131.440381 352.637445 
L 150.179296 352.172206 
L 181.41082 351.101237 
L 212.642343 349.513727 
L 243.873867 347.457559 
L 275.105391 345.402908 
L 306.336915 343.401513 
L 337.568439 341.237316 
L 368.799963 338.92136 
L 400.031487 336.175558 
L 431.263011 332.978071 
L 462.494534 329.293487 
L 493.726058 324.864863 
L 524.957582 319.588286 
L 556.189106 313.279448 
L 587.42063 305.926434 
L 618.652154 297.46779 
L 649.883678 287.58121 
L 681.115202 276.225371 
L 712.346725 263.195658 
L 743.578249 248.17751 
L 774.809773 230.66447 
L 806.041297 211.237986 
L 837.272821 190.112561 
L 868.504345 167.710367 
L 899.735869 143.825133 
L 930.967392 119.492976 
L 949.706307 104.053391 
" clip-path="url(#pf5dc6e3758)" style="fill: none; stroke: #f15c80; stroke-linecap: square"/>
   </g>
   <g id="line2d_25">
    <path d="M 81.469943 353.220748 
L 87.716248 353.216575 
L 93.962553 353.211568 
L 100.208858 353.209436 
L 106.455162 353.198958 
L 112.701467 353.109299 
L 118.947772 352.549551 
L 125.194077 352.400366 
L 131.440381 352.237087 
L 150.179296 351.762159 
L 181.41082 350.897013 
L 212.642343 349.837229 
L 243.873867 348.514901 
L 275.105391 347.068051 
L 306.336915 345.481714 
L 337.568439 343.709345 
L 368.799963 341.724017 
L 400.031487 339.413003 
L 431.263011 336.795292 
L 462.494534 333.940979 
L 493.726058 330.760758 
L 524.957582 327.1834 
L 556.189106 323.165514 
L 587.42063 318.641546 
L 618.652154 313.618247 
L 649.883678 307.945634 
L 681.115202 301.588139 
L 712.346725 294.471235 
L 743.578249 286.302206 
L 774.809773 276.921037 
L 806.041297 266.488986 
L 837.272821 254.701802 
L 868.504345 241.816172 
L 899.735869 227.346541 
L 930.967392 211.92431 
L 949.706307 201.854755 
" clip-path="url(#pf5dc6e3758)" style="fill: none; stroke: #e4d354; stroke-linecap: square"/>
   </g>
   <g id="line2d_26">
    <path d="M 81.469943 353.221118 
L 87.716248 353.216853 
L 93.962553 353.210456 
L 100.208858 353.206654 
L 106.455162 353.188945 
L 112.701467 353.072767 
L 118.947772 352.415665 
L 125.194077 352.153732 
L 131.440381 351.874832 
L 150.179296 351.025763 
L 181.41082 349.260292 
L 212.642343 346.707095 
L 243.873867 343.404799 
L 275.105391 340.202639 
L 306.336915 337.151149 
L 337.568439 334.12067 
L 368.799963 331.068419 
L 400.031487 327.728349 
L 431.263011 324.115796 
L 462.494534 320.231407 
L 493.726058 315.936975 
L 524.957582 311.151131 
L 556.189106 305.791631 
L 587.42063 299.772618 
L 618.652154 293.102418 
L 649.883678 285.543316 
L 681.115202 277.073857 
L 712.346725 267.52036 
L 743.578249 256.513763 
L 774.809773 243.686935 
L 806.041297 229.247215 
L 837.272821 213.191414 
L 868.504345 195.789678 
L 899.735869 176.601925 
L 930.967392 156.234057 
L 949.706307 142.928018 
" clip-path="url(#pf5dc6e3758)" style="fill: none; stroke: #2b908f; stroke-linecap: square"/>
   </g>
   <g id="line2d_27">
    <path d="M 81.469943 353.222191 
L 87.716248 353.219016 
L 93.962553 353.217063 
L 100.208858 353.216086 
L 106.455162 353.211446 
L 112.701467 353.186701 
L 118.947772 353.081943 
L 125.194077 353.009581 
L 131.440381 352.933474 
L 150.179296 352.683226 
L 181.41082 352.169951 
L 212.642343 351.545275 
L 243.873867 350.79777 
L 275.105391 349.918939 
L 306.336915 348.950164 
L 337.568439 347.841922 
L 368.799963 346.614336 
L 400.031487 345.183582 
L 431.263011 343.551125 
L 462.494534 341.792437 
L 493.726058 339.789785 
L 524.957582 337.563128 
L 556.189106 335.089543 
L 587.42063 332.353566 
L 618.652154 329.393567 
L 649.883678 326.024807 
L 681.115202 322.273723 
L 712.346725 318.113243 
L 743.578249 313.326996 
L 774.809773 307.795166 
L 806.041297 301.699138 
L 837.272821 294.825765 
L 868.504345 287.233768 
L 899.735869 278.633582 
L 930.967392 269.410121 
L 949.706307 263.332717 
" clip-path="url(#pf5dc6e3758)" style="fill: none; stroke: #f45b5b; stroke-linecap: square"/>
   </g>
   <g id="line2d_28">
    <path d="M 81.469943 353.222516 
L 87.716248 353.219179 
L 93.962553 353.215923 
L 100.208858 353.2134 
L 106.455162 353.203958 
L 112.701467 353.141607 
L 118.947772 352.917927 
L 125.194077 352.743493 
L 131.440381 352.564581 
L 150.179296 352.01987 
L 181.41082 350.756599 
L 212.642343 348.808549 
L 243.873867 346.298889 
L 275.105391 343.860354 
L 306.336915 341.673272 
L 337.568439 339.463284 
L 368.799963 337.319619 
L 400.031487 334.983336 
L 431.263011 332.492837 
L 462.494534 329.803468 
L 493.726058 326.838797 
L 524.957582 323.54725 
L 556.189106 319.885866 
L 587.42063 315.840938 
L 618.652154 311.477453 
L 649.883678 306.560042 
L 681.115202 301.089146 
L 712.346725 294.947682 
L 743.578249 287.859958 
L 774.809773 279.577955 
L 806.041297 270.308634 
L 837.272821 260.036726 
L 868.504345 248.804442 
L 899.735869 236.347617 
L 930.967392 223.040466 
L 949.706307 214.314408 
" clip-path="url(#pf5dc6e3758)" style="fill: none; stroke: #91e8e1; stroke-linecap: square"/>
   </g>
   <g id="line2d_29">
    <path d="M 81.469943 353.222608 
L 87.716248 353.22054 
L 93.962553 353.21873 
L 100.208858 353.217782 
L 106.455162 353.213991 
L 112.701467 353.188917 
L 118.947772 353.078627 
L 125.194077 353.017795 
L 131.440381 352.950501 
L 150.179296 352.727662 
L 181.41082 352.245435 
L 212.642343 351.605199 
L 243.873867 350.791394 
L 275.105391 349.837882 
L 306.336915 348.738029 
L 337.568439 347.437809 
L 368.799963 345.896105 
L 400.031487 343.948118 
L 431.263011 341.584527 
L 462.494534 338.8871 
L 493.726058 335.631759 
L 524.957582 331.726618 
L 556.189106 327.090649 
L 587.42063 321.692194 
L 618.652154 315.465786 
L 649.883678 308.144901 
L 681.115202 299.762902 
L 712.346725 290.223336 
L 743.578249 279.210481 
L 774.809773 266.520454 
L 806.041297 252.725128 
L 837.272821 237.547967 
L 868.504345 221.197989 
L 899.735869 203.397296 
L 930.967392 185.263198 
L 949.706307 173.77949 
" clip-path="url(#pf5dc6e3758)" style="fill: none; stroke: #7cb5ec; stroke-linecap: square"/>
   </g>
   <g id="line2d_30">
    <path d="M 81.469943 353.222866 
L 87.716248 353.220884 
L 93.962553 353.21761 
L 100.208858 353.215714 
L 106.455162 353.204944 
L 112.701467 353.143939 
L 118.947772 352.922411 
L 125.194077 352.749651 
L 131.440381 352.583871 
L 150.179296 352.095509 
L 181.41082 350.95023 
L 212.642343 349.225581 
L 243.873867 346.990288 
L 275.105391 344.786945 
L 306.336915 342.718191 
L 337.568439 340.559395 
L 368.799963 338.283346 
L 400.031487 335.592606 
L 431.263011 332.473508 
L 462.494534 328.904908 
L 493.726058 324.639084 
L 524.957582 319.531864 
L 556.189106 313.439321 
L 587.42063 306.350666 
L 618.652154 298.178356 
L 649.883678 288.569119 
L 681.115202 277.495828 
L 712.346725 264.761202 
L 743.578249 249.936092 
L 774.809773 232.619401 
L 806.041297 213.474458 
L 837.272821 192.588909 
L 868.504345 170.356249 
L 899.735869 146.584763 
L 930.967392 122.389417 
L 949.706307 107.08363 
" clip-path="url(#pf5dc6e3758)" style="fill: none; stroke: #434348; stroke-linecap: square"/>
   </g>
   <g id="line2d_31">
    <path d="M 81.469943 353.220502 
L 87.716248 353.216388 
L 93.962553 353.212232 
L 100.208858 353.209571 
L 106.455162 353.201465 
L 112.701467 353.143822 
L 118.947772 352.882216 
L 125.194077 352.759028 
L 131.440381 352.628451 
L 150.179296 352.244259 
L 181.41082 351.534473 
L 212.642343 350.599739 
L 243.873867 349.412082 
L 275.105391 348.316409 
L 306.336915 347.137355 
L 337.568439 345.797558 
L 368.799963 344.241787 
L 400.031487 342.390021 
L 431.263011 340.233675 
L 462.494534 337.87796 
L 493.726058 335.177838 
L 524.957582 332.101071 
L 556.189106 328.63673 
L 587.42063 324.792786 
L 618.652154 320.575693 
L 649.883678 315.824367 
L 681.115202 310.538671 
L 712.346725 304.662466 
L 743.578249 298.000482 
L 774.809773 290.417574 
L 806.041297 282.104032 
L 837.272821 272.857959 
L 868.504345 262.783329 
L 899.735869 251.495128 
L 930.967392 239.694012 
L 949.706307 231.984043 
" clip-path="url(#pf5dc6e3758)" style="fill: none; stroke: #90ed7d; stroke-linecap: square"/>
   </g>
   <g id="line2d_32">
    <path d="M 81.469943 353.220645 
L 87.716248 353.216388 
L 93.962553 353.210902 
L 100.208858 353.206173 
L 106.455162 353.189019 
L 112.701467 353.090846 
L 118.947772 352.71426 
L 125.194077 352.475868 
L 131.440381 352.238867 
L 150.179296 351.561702 
L 181.41082 350.17701 
L 212.642343 348.108533 
L 243.873867 345.40702 
L 275.105391 342.9765 
L 306.336915 340.740501 
L 337.568439 338.47657 
L 368.799963 336.136633 
L 400.031487 333.493942 
L 431.263011 330.54433 
L 462.494534 327.32715 
L 493.726058 323.673332 
L 524.957582 319.50399 
L 556.189106 314.792598 
L 587.42063 309.531104 
L 618.652154 303.7828 
L 649.883678 297.318269 
L 681.115202 290.073274 
L 712.346725 281.933964 
L 743.578249 272.650435 
L 774.809773 261.877851 
L 806.041297 249.915281 
L 837.272821 236.74921 
L 868.504345 222.558391 
L 899.735869 206.936979 
L 930.967392 190.643982 
L 949.706307 179.996002 
" clip-path="url(#pf5dc6e3758)" style="fill: none; stroke: #f7a35c; stroke-linecap: square"/>
   </g>
   <g id="line2d_33">
    <path d="M 81.469943 353.221954 
L 87.716248 353.219087 
L 93.962553 353.217108 
L 100.208858 353.215196 
L 106.455162 353.209359 
L 112.701467 353.173519 
L 118.947772 352.994525 
L 125.194077 352.905813 
L 131.440381 352.820719 
L 150.179296 352.53043 
L 181.41082 351.918915 
L 212.642343 351.177631 
L 243.873867 350.269054 
L 275.105391 349.195505 
L 306.336915 347.955721 
L 337.568439 346.536287 
L 368.799963 344.907781 
L 400.031487 342.973209 
L 431.263011 340.704816 
L 462.494534 338.194841 
L 493.726058 335.298404 
L 524.957582 331.994158 
L 556.189106 328.206129 
L 587.42063 323.948496 
L 618.652154 319.206412 
L 649.883678 313.804649 
L 681.115202 307.766133 
L 712.346725 301.037478 
L 743.578249 293.367527 
L 774.809773 284.693358 
L 806.041297 275.164146 
L 837.272821 264.517606 
L 868.504345 252.904634 
L 899.735869 240.194493 
L 930.967392 226.960838 
L 949.706307 218.425905 
" clip-path="url(#pf5dc6e3758)" style="fill: none; stroke: #8085e9; stroke-linecap: square"/>
   </g>
   <g id="line2d_34">
    <path d="M 81.469943 353.221886 
L 87.716248 353.218746 
L 93.962553 353.215742 
L 100.208858 353.212773 
L 106.455162 353.201918 
L 112.701467 353.133038 
L 118.947772 352.826112 
L 125.194077 352.628857 
L 131.440381 352.439042 
L 150.179296 351.845282 
L 181.41082 350.427419 
L 212.642343 348.253287 
L 243.873867 345.454887 
L 275.105391 342.67152 
L 306.336915 340.02177 
L 337.568439 337.319845 
L 368.799963 334.57829 
L 400.031487 331.493582 
L 431.263011 328.067398 
L 462.494534 324.304109 
L 493.726058 320.018296 
L 524.957582 315.144232 
L 556.189106 309.528714 
L 587.42063 303.214402 
L 618.652154 296.249846 
L 649.883678 288.3818 
L 681.115202 279.507774 
L 712.346725 269.545945 
L 743.578249 258.181838 
L 774.809773 245.114111 
L 806.041297 230.530858 
L 837.272821 214.524779 
L 868.504345 197.294043 
L 899.735869 178.738551 
L 930.967392 159.5025 
L 949.706307 147.158682 
" clip-path="url(#pf5dc6e3758)" style="fill: none; stroke: #f15c80; stroke-linecap: square"/>
   </g>
   <g id="line2d_35">
    <path d="M 81.469943 353.221614 
L 87.716248 353.218173 
L 93.962553 353.21508 
L 100.208858 353.213413 
L 106.455162 353.206852 
L 112.701467 353.162297 
L 118.947772 352.976359 
L 125.194077 352.896606 
L 131.440381 352.818869 
L 150.179296 352.565305 
L 181.41082 352.017047 
L 212.642343 351.300097 
L 243.873867 350.412202 
L 275.105391 349.454858 
L 306.336915 348.400955 
L 337.568439 347.223718 
L 368.799963 345.871243 
L 400.031487 344.307959 
L 431.263011 342.498542 
L 462.494534 340.55341 
L 493.726058 338.331084 
L 524.957582 335.842222 
L 556.189106 333.031217 
L 587.42063 329.896129 
L 618.652154 326.41835 
L 649.883678 322.460235 
L 681.115202 317.996599 
L 712.346725 312.954459 
L 743.578249 307.131514 
L 774.809773 300.441088 
L 806.041297 292.965037 
L 837.272821 284.538472 
L 868.504345 275.169341 
L 899.735869 264.721742 
L 930.967392 253.668191 
L 949.706307 246.473788 
" clip-path="url(#pf5dc6e3758)" style="fill: none; stroke: #e4d354; stroke-linecap: square"/>
   </g>
   <g id="line2d_36">
    <path d="M 81.469943 353.221776 
L 87.716248 353.218038 
L 93.962553 353.214274 
L 100.208858 353.211907 
L 106.455162 353.199028 
L 112.701467 353.117527 
L 118.947772 352.803731 
L 125.194077 352.610936 
L 131.440381 352.429515 
L 150.179296 351.874131 
L 181.41082 350.539366 
L 212.642343 348.447646 
L 243.873867 345.70053 
L 275.105391 343.025767 
L 306.336915 340.588355 
L 337.568439 338.151152 
L 368.799963 335.720403 
L 400.031487 333.068518 
L 431.263011 330.202364 
L 462.494534 327.179796 
L 493.726058 323.812257 
L 524.957582 320.054025 
L 556.189106 315.81224 
L 587.42063 311.121154 
L 618.652154 305.967322 
L 649.883678 300.154342 
L 681.115202 293.555489 
L 712.346725 286.050361 
L 743.578249 277.352813 
L 774.809773 267.207447 
L 806.041297 255.681164 
L 837.272821 242.878934 
L 868.504345 228.833372 
L 899.735869 213.412991 
L 930.967392 197.114476 
L 949.706307 186.519315 
" clip-path="url(#pf5dc6e3758)" style="fill: none; stroke: #2b908f; stroke-linecap: square"/>
   </g>
   <g id="line2d_37">
    <path d="M 81.469943 353.22293 
L 87.716248 353.221437 
L 93.962553 353.220021 
L 100.208858 353.219323 
L 106.455162 353.216996 
L 112.701467 353.199019 
L 118.947772 353.116212 
L 125.194077 353.063464 
L 131.440381 353.011686 
L 150.179296 352.83055 
L 181.41082 352.432155 
L 212.642343 351.915076 
L 243.873867 351.259347 
L 275.105391 350.524764 
L 306.336915 349.72077 
L 337.568439 348.8155 
L 368.799963 347.789104 
L 400.031487 346.594793 
L 431.263011 345.22043 
L 462.494534 343.756402 
L 493.726058 342.094426 
L 524.957582 340.217423 
L 556.189106 338.100983 
L 587.42063 335.748324 
L 618.652154 333.153447 
L 649.883678 330.211456 
L 681.115202 326.867882 
L 712.346725 323.051029 
L 743.578249 318.601172 
L 774.809773 313.354217 
L 806.041297 307.433657 
L 837.272821 300.635997 
L 868.504345 292.938935 
L 899.735869 284.105217 
L 930.967392 274.609806 
L 949.706307 268.288026 
" clip-path="url(#pf5dc6e3758)" style="fill: none; stroke: #f45b5b; stroke-linecap: square"/>
   </g>
   <g id="line2d_38">
    <path d="M 81.469943 353.222989 
L 87.716248 353.221437 
L 93.962553 353.219207 
L 100.208858 353.217908 
L 106.455162 353.211314 
L 112.701467 353.166032 
L 118.947772 352.992293 
L 125.194077 352.853694 
L 131.440381 352.722134 
L 150.179296 352.298733 
L 181.41082 351.227675 
L 212.642343 349.437397 
L 243.873867 346.956389 
L 275.105391 344.525551 
L 306.336915 342.368235 
L 337.568439 340.242839 
L 368.799963 338.219499 
L 400.031487 336.057917 
L 431.263011 333.786475 
L 462.494534 331.425524 
L 493.726058 328.842488 
L 524.957582 325.979402 
L 556.189106 322.800216 
L 587.42063 319.326086 
L 618.652154 315.549566 
L 649.883678 311.31435 
L 681.115202 306.508214 
L 712.346725 301.009783 
L 743.578249 294.613563 
L 774.809773 286.9919 
L 806.041297 278.279026 
L 837.272821 268.443831 
L 868.504345 257.475727 
L 899.735869 245.138733 
L 930.967392 231.919177 
L 949.706307 223.143773 
" clip-path="url(#pf5dc6e3758)" style="fill: none; stroke: #91e8e1; stroke-linecap: square"/>
   </g>
   <g id="line2d_39">
    <path d="M 81.469943 353.222797 
L 87.716248 353.221089 
L 93.962553 353.219857 
L 100.208858 353.219187 
L 106.455162 353.216614 
L 112.701467 353.20003 
L 118.947772 353.121933 
L 125.194077 353.069566 
L 131.440381 353.014582 
L 150.179296 352.821118 
L 181.41082 352.377903 
L 212.642343 351.77536 
L 243.873867 350.974777 
L 275.105391 350.027151 
L 306.336915 348.940714 
L 337.568439 347.682634 
L 368.799963 346.25764 
L 400.031487 344.599471 
L 431.263011 342.723799 
L 462.494534 340.719608 
L 493.726058 338.477015 
L 524.957582 336.016062 
L 556.189106 333.282787 
L 587.42063 330.297742 
L 618.652154 327.065996 
L 649.883678 323.467775 
L 681.115202 319.455256 
L 712.346725 314.997633 
L 743.578249 309.931974 
L 774.809773 304.168141 
L 806.041297 297.788649 
L 837.272821 290.586753 
L 868.504345 282.634904 
L 899.735869 273.68889 
L 930.967392 264.15126 
L 949.706307 257.905765 
" clip-path="url(#pf5dc6e3758)" style="fill: none; stroke: #7cb5ec; stroke-linecap: square"/>
   </g>
   <g id="line2d_40">
    <path d="M 81.469943 353.222797 
L 87.716248 353.221284 
L 93.962553 353.219316 
L 100.208858 353.218062 
L 106.455162 353.212268 
L 112.701467 353.177673 
L 118.947772 353.032377 
L 125.194077 352.917567 
L 131.440381 352.801351 
L 150.179296 352.420061 
L 181.41082 351.435553 
L 212.642343 349.82137 
L 243.873867 347.597424 
L 275.105391 345.277019 
L 306.336915 343.037167 
L 337.568439 340.710138 
L 368.799963 338.38217 
L 400.031487 335.81442 
L 431.263011 333.060202 
L 462.494534 330.13472 
L 493.726058 326.913465 
L 524.957582 323.394219 
L 556.189106 319.495139 
L 587.42063 315.259715 
L 618.652154 310.702317 
L 649.883678 305.678198 
L 681.115202 300.064401 
L 712.346725 293.787671 
L 743.578249 286.624556 
L 774.809773 278.385954 
L 806.041297 269.102597 
L 837.272821 258.797556 
L 868.504345 247.590393 
L 899.735869 235.241629 
L 930.967392 222.140351 
L 949.706307 213.602352 
" clip-path="url(#pf5dc6e3758)" style="fill: none; stroke: #434348; stroke-linecap: square"/>
   </g>
   <g id="line2d_41">
    <path d="M 81.469943 353.222795 
L 87.716248 353.221434 
L 93.962553 353.220839 
L 100.208858 353.219648 
L 106.455162 353.217437 
L 112.701467 353.2006 
L 118.947772 353.098725 
L 125.194077 353.042176 
L 131.440381 352.978398 
L 150.179296 352.799276 
L 181.41082 352.453107 
L 212.642343 351.998431 
L 243.873867 351.452051 
L 275.105391 350.843271 
L 306.336915 350.131511 
L 337.568439 349.275189 
L 368.799963 348.253452 
L 400.031487 346.989393 
L 431.263011 345.457757 
L 462.494534 343.69545 
L 493.726058 341.593607 
L 524.957582 339.143095 
L 556.189106 336.251751 
L 587.42063 332.859488 
L 618.652154 328.950625 
L 649.883678 324.364017 
L 681.115202 319.090752 
L 712.346725 313.022951 
L 743.578249 305.909757 
L 774.809773 297.574887 
L 806.041297 288.292721 
L 837.272821 277.787927 
L 868.504345 266.113262 
L 899.735869 252.908304 
L 930.967392 239.097168 
L 949.706307 230.081696 
" clip-path="url(#pf5dc6e3758)" style="fill: none; stroke: #90ed7d; stroke-linecap: square"/>
   </g>
   <g id="line2d_42">
    <path d="M 81.469943 353.222709 
L 87.716248 353.221264 
L 93.962553 353.219478 
L 100.208858 353.217097 
L 106.455162 353.211315 
L 112.701467 353.171772 
L 118.947772 353.000933 
L 125.194077 352.857816 
L 131.440381 352.704324 
L 150.179296 352.254937 
L 181.41082 351.252623 
L 212.642343 349.775087 
L 243.873867 347.910736 
L 275.105391 346.152986 
L 306.336915 344.482655 
L 337.568439 342.804942 
L 368.799963 341.091344 
L 400.031487 339.155136 
L 431.263011 336.961861 
L 462.494534 334.500328 
L 493.726058 331.619002 
L 524.957582 328.280788 
L 556.189106 324.380548 
L 587.42063 319.825744 
L 618.652154 314.570863 
L 649.883678 308.445595 
L 681.115202 301.376178 
L 712.346725 293.148846 
L 743.578249 283.484473 
L 774.809773 271.997977 
L 806.041297 259.021888 
L 837.272821 244.465981 
L 868.504345 228.495194 
L 899.735869 210.84416 
L 930.967392 192.345885 
L 949.706307 180.263178 
" clip-path="url(#pf5dc6e3758)" style="fill: none; stroke: #f7a35c; stroke-linecap: square"/>
   </g>
   <g id="line2d_43">
    <path d="M 38.058125 353.2239 
L 993.118125 353.2239 
" clip-path="url(#pf5dc6e3758)" style="fill: none; stroke: #dedede; stroke-width: 2; stroke-linecap: square"/>
   </g>
   <g id="text_19">
    <!-- FastQC: Adapter Content -->
    <g transform="translate(416.290625 19.3575)scale(0.16 -0.16)">
     <defs>
      <path id="DejaVuSans-46" d="M 628 4666 
L 3309 4666 
L 3309 4134 
L 1259 4134 
L 1259 2759 
L 3109 2759 
L 3109 2228 
L 1259 2228 
L 1259 0 
L 628 0 
L 628 4666 
z
" transform="scale(0.015625)"/>
      <path id="DejaVuSans-61" d="M 2194 1759 
Q 1497 1759 1228 1600 
Q 959 1441 959 1056 
Q 959 750 1161 570 
Q 1363 391 1709 391 
Q 2188 391 2477 730 
Q 2766 1069 2766 1631 
L 2766 1759 
L 2194 1759 
z
M 3341 1997 
L 3341 0 
L 2766 0 
L 2766 531 
Q 2569 213 2275 61 
Q 1981 -91 1556 -91 
Q 1019 -91 701 211 
Q 384 513 384 1019 
Q 384 1609 779 1909 
Q 1175 2209 1959 2209 
L 2766 2209 
L 2766 2266 
Q 2766 2663 2505 2880 
Q 2244 3097 1772 3097 
Q 1472 3097 1187 3025 
Q 903 2953 641 2809 
L 641 3341 
Q 956 3463 1253 3523 
Q 1550 3584 1831 3584 
Q 2591 3584 2966 3190 
Q 3341 2797 3341 1997 
z
" transform="scale(0.015625)"/>
      <path id="DejaVuSans-51" d="M 2522 4238 
Q 1834 4238 1429 3725 
Q 1025 3213 1025 2328 
Q 1025 1447 1429 934 
Q 1834 422 2522 422 
Q 3209 422 3611 934 
Q 4013 1447 4013 2328 
Q 4013 3213 3611 3725 
Q 3209 4238 2522 4238 
z
M 3406 84 
L 4238 -825 
L 3475 -825 
L 2784 -78 
Q 2681 -84 2626 -87 
Q 2572 -91 2522 -91 
Q 1538 -91 948 567 
Q 359 1225 359 2328 
Q 359 3434 948 4092 
Q 1538 4750 2522 4750 
Q 3503 4750 4090 4092 
Q 4678 3434 4678 2328 
Q 4678 1516 4351 937 
Q 4025 359 3406 84 
z
" transform="scale(0.015625)"/>
      <path id="DejaVuSans-43" d="M 4122 4306 
L 4122 3641 
Q 3803 3938 3442 4084 
Q 3081 4231 2675 4231 
Q 1875 4231 1450 3742 
Q 1025 3253 1025 2328 
Q 1025 1406 1450 917 
Q 1875 428 2675 428 
Q 3081 428 3442 575 
Q 3803 722 4122 1019 
L 4122 359 
Q 3791 134 3420 21 
Q 3050 -91 2638 -91 
Q 1578 -91 968 557 
Q 359 1206 359 2328 
Q 359 3453 968 4101 
Q 1578 4750 2638 4750 
Q 3056 4750 3426 4639 
Q 3797 4528 4122 4306 
z
" transform="scale(0.015625)"/>
      <path id="DejaVuSans-3a" d="M 750 794 
L 1409 794 
L 1409 0 
L 750 0 
L 750 794 
z
M 750 3309 
L 1409 3309 
L 1409 2516 
L 750 2516 
L 750 3309 
z
" transform="scale(0.015625)"/>
      <path id="DejaVuSans-41" d="M 2188 4044 
L 1331 1722 
L 3047 1722 
L 2188 4044 
z
M 1831 4666 
L 2547 4666 
L 4325 0 
L 3669 0 
L 3244 1197 
L 1141 1197 
L 716 0 
L 50 0 
L 1831 4666 
z
" transform="scale(0.015625)"/>
      <path id="DejaVuSans-64" d="M 2906 2969 
L 2906 4863 
L 3481 4863 
L 3481 0 
L 2906 0 
L 2906 525 
Q 2725 213 2448 61 
Q 2172 -91 1784 -91 
Q 1150 -91 751 415 
Q 353 922 353 1747 
Q 353 2572 751 3078 
Q 1150 3584 1784 3584 
Q 2172 3584 2448 3432 
Q 2725 3281 2906 2969 
z
M 947 1747 
Q 947 1113 1208 752 
Q 1469 391 1925 391 
Q 2381 391 2643 752 
Q 2906 1113 2906 1747 
Q 2906 2381 2643 2742 
Q 2381 3103 1925 3103 
Q 1469 3103 1208 2742 
Q 947 2381 947 1747 
z
" transform="scale(0.015625)"/>
      <path id="DejaVuSans-72" d="M 2631 2963 
Q 2534 3019 2420 3045 
Q 2306 3072 2169 3072 
Q 1681 3072 1420 2755 
Q 1159 2438 1159 1844 
L 1159 0 
L 581 0 
L 581 3500 
L 1159 3500 
L 1159 2956 
Q 1341 3275 1631 3429 
Q 1922 3584 2338 3584 
Q 2397 3584 2469 3576 
Q 2541 3569 2628 3553 
L 2631 2963 
z
" transform="scale(0.015625)"/>
     </defs>
     <use xlink:href="#DejaVuSans-46"/>
     <use xlink:href="#DejaVuSans-61" x="48.394531"/>
     <use xlink:href="#DejaVuSans-73" x="109.673828"/>
     <use xlink:href="#DejaVuSans-74" x="161.773438"/>
     <use xlink:href="#DejaVuSans-51" x="200.982422"/>
     <use xlink:href="#DejaVuSans-43" x="279.693359"/>
     <use xlink:href="#DejaVuSans-3a" x="349.517578"/>
     <use xlink:href="#DejaVuSans-20" x="383.208984"/>
     <use xlink:href="#DejaVuSans-41" x="414.996094"/>
     <use xlink:href="#DejaVuSans-64" x="481.654297"/>
     <use xlink:href="#DejaVuSans-61" x="545.130859"/>
     <use xlink:href="#DejaVuSans-70" x="606.410156"/>
     <use xlink:href="#DejaVuSans-74" x="669.886719"/>
     <use xlink:href="#DejaVuSans-65" x="709.095703"/>
     <use xlink:href="#DejaVuSans-72" x="770.619141"/>
     <use xlink:href="#DejaVuSans-20" x="811.732422"/>
     <use xlink:href="#DejaVuSans-43" x="843.519531"/>
     <use xlink:href="#DejaVuSans-6f" x="913.34375"/>
     <use xlink:href="#DejaVuSans-6e" x="974.525391"/>
     <use xlink:href="#DejaVuSans-74" x="1037.904297"/>
     <use xlink:href="#DejaVuSans-65" x="1077.113281"/>
     <use xlink:href="#DejaVuSans-6e" x="1138.636719"/>
     <use xlink:href="#DejaVuSans-74" x="1202.015625"/>
    </g>
   </g>
  </g>
 </g>
 <defs>
  <clipPath id="pf5dc6e3758">
   <rect x="38.058125" y="35.2559" width="955.06" height="317.968"/>
  </clipPath>
 </defs>
</svg>
