<?xml version="1.0" encoding="utf-8" standalone="no"?>
<!DOCTYPE svg PUBLIC "-//W3C//DTD SVG 1.1//EN"
  "http://www.w3.org/Graphics/SVG/1.1/DTD/svg11.dtd">
<svg xmlns:xlink="http://www.w3.org/1999/xlink" width="1000.278125pt" height="388.844525pt" viewBox="0 0 1000.278125 388.844525" xmlns="http://www.w3.org/2000/svg" version="1.1">
 <metadata>
  <rdf:RDF xmlns:dc="http://purl.org/dc/elements/1.1/" xmlns:cc="http://creativecommons.org/ns#" xmlns:rdf="http://www.w3.org/1999/02/22-rdf-syntax-ns#">
   <cc:Work>
    <dc:type rdf:resource="http://purl.org/dc/dcmitype/StillImage"/>
    <dc:date>2023-04-18T05:56:19.286014</dc:date>
    <dc:format>image/svg+xml</dc:format>
    <dc:creator>
     <cc:Agent>
      <dc:title>Matplotlib v3.5.3, https://matplotlib.org/</dc:title>
     </cc:Agent>
    </dc:creator>
   </cc:Work>
  </rdf:RDF>
 </metadata>
 <defs>
  <style type="text/css">*{stroke-linejoin: round; stroke-linecap: butt}</style>
 </defs>
 <g id="figure_1">
  <g id="axes_1">
   <g id="patch_1">
    <path d="M 43.148125 353.2239 
L 993.078125 353.2239 
L 993.078125 35.2559 
L 43.148125 35.2559 
z
" style="fill: #ffffff"/>
   </g>
   <g id="matplotlib.axis_1">
    <g id="xtick_1">
     <g id="text_1">
      <!-- 0 -->
      <g transform="translate(77.239544 366.30265)scale(0.08 -0.08)">
       <defs>
        <path id="DejaVuSans-30" d="M 2034 4250 
Q 1547 4250 1301 3770 
Q 1056 3291 1056 2328 
Q 1056 1369 1301 889 
Q 1547 409 2034 409 
Q 2525 409 2770 889 
Q 3016 1369 3016 2328 
Q 3016 3291 2770 3770 
Q 2525 4250 2034 4250 
z
M 2034 4750 
Q 2819 4750 3233 4129 
Q 3647 3509 3647 2328 
Q 3647 1150 3233 529 
Q 2819 -91 2034 -91 
Q 1250 -91 836 529 
Q 422 1150 422 2328 
Q 422 3509 836 4129 
Q 1250 4750 2034 4750 
z
" transform="scale(0.015625)"/>
       </defs>
       <use xlink:href="#DejaVuSans-30"/>
      </g>
     </g>
    </g>
    <g id="xtick_2">
     <g id="text_2">
      <!-- 20 -->
      <g transform="translate(205.538896 366.30265)scale(0.08 -0.08)">
       <defs>
        <path id="DejaVuSans-32" d="M 1228 531 
L 3431 531 
L 3431 0 
L 469 0 
L 469 531 
Q 828 903 1448 1529 
Q 2069 2156 2228 2338 
Q 2531 2678 2651 2914 
Q 2772 3150 2772 3378 
Q 2772 3750 2511 3984 
Q 2250 4219 1831 4219 
Q 1534 4219 1204 4116 
Q 875 4013 500 3803 
L 500 4441 
Q 881 4594 1212 4672 
Q 1544 4750 1819 4750 
Q 2544 4750 2975 4387 
Q 3406 4025 3406 3419 
Q 3406 3131 3298 2873 
Q 3191 2616 2906 2266 
Q 2828 2175 2409 1742 
Q 1991 1309 1228 531 
z
" transform="scale(0.015625)"/>
       </defs>
       <use xlink:href="#DejaVuSans-32"/>
       <use xlink:href="#DejaVuSans-30" x="63.623047"/>
      </g>
     </g>
    </g>
    <g id="xtick_3">
     <g id="text_3">
      <!-- 40 -->
      <g transform="translate(336.383249 366.30265)scale(0.08 -0.08)">
       <defs>
        <path id="DejaVuSans-34" d="M 2419 4116 
L 825 1625 
L 2419 1625 
L 2419 4116 
z
M 2253 4666 
L 3047 4666 
L 3047 1625 
L 3713 1625 
L 3713 1100 
L 3047 1100 
L 3047 0 
L 2419 0 
L 2419 1100 
L 313 1100 
L 313 1709 
L 2253 4666 
z
" transform="scale(0.015625)"/>
       </defs>
       <use xlink:href="#DejaVuSans-34"/>
       <use xlink:href="#DejaVuSans-30" x="63.623047"/>
      </g>
     </g>
    </g>
    <g id="xtick_4">
     <g id="text_4">
      <!-- 60 -->
      <g transform="translate(467.227602 366.30265)scale(0.08 -0.08)">
       <defs>
        <path id="DejaVuSans-36" d="M 2113 2584 
Q 1688 2584 1439 2293 
Q 1191 2003 1191 1497 
Q 1191 994 1439 701 
Q 1688 409 2113 409 
Q 2538 409 2786 701 
Q 3034 994 3034 1497 
Q 3034 2003 2786 2293 
Q 2538 2584 2113 2584 
z
M 3366 4563 
L 3366 3988 
Q 3128 4100 2886 4159 
Q 2644 4219 2406 4219 
Q 1781 4219 1451 3797 
Q 1122 3375 1075 2522 
Q 1259 2794 1537 2939 
Q 1816 3084 2150 3084 
Q 2853 3084 3261 2657 
Q 3669 2231 3669 1497 
Q 3669 778 3244 343 
Q 2819 -91 2113 -91 
Q 1303 -91 875 529 
Q 447 1150 447 2328 
Q 447 3434 972 4092 
Q 1497 4750 2381 4750 
Q 2619 4750 2861 4703 
Q 3103 4656 3366 4563 
z
" transform="scale(0.015625)"/>
       </defs>
       <use xlink:href="#DejaVuSans-36"/>
       <use xlink:href="#DejaVuSans-30" x="63.623047"/>
      </g>
     </g>
    </g>
    <g id="xtick_5">
     <g id="text_5">
      <!-- 80 -->
      <g transform="translate(598.071954 366.30265)scale(0.08 -0.08)">
       <defs>
        <path id="DejaVuSans-38" d="M 2034 2216 
Q 1584 2216 1326 1975 
Q 1069 1734 1069 1313 
Q 1069 891 1326 650 
Q 1584 409 2034 409 
Q 2484 409 2743 651 
Q 3003 894 3003 1313 
Q 3003 1734 2745 1975 
Q 2488 2216 2034 2216 
z
M 1403 2484 
Q 997 2584 770 2862 
Q 544 3141 544 3541 
Q 544 4100 942 4425 
Q 1341 4750 2034 4750 
Q 2731 4750 3128 4425 
Q 3525 4100 3525 3541 
Q 3525 3141 3298 2862 
Q 3072 2584 2669 2484 
Q 3125 2378 3379 2068 
Q 3634 1759 3634 1313 
Q 3634 634 3220 271 
Q 2806 -91 2034 -91 
Q 1263 -91 848 271 
Q 434 634 434 1313 
Q 434 1759 690 2068 
Q 947 2378 1403 2484 
z
M 1172 3481 
Q 1172 3119 1398 2916 
Q 1625 2713 2034 2713 
Q 2441 2713 2670 2916 
Q 2900 3119 2900 3481 
Q 2900 3844 2670 4047 
Q 2441 4250 2034 4250 
Q 1625 4250 1398 4047 
Q 1172 3844 1172 3481 
z
" transform="scale(0.015625)"/>
       </defs>
       <use xlink:href="#DejaVuSans-38"/>
       <use xlink:href="#DejaVuSans-30" x="63.623047"/>
      </g>
     </g>
    </g>
    <g id="xtick_6">
     <g id="text_6">
      <!-- 100 -->
      <g transform="translate(726.371307 366.30265)scale(0.08 -0.08)">
       <defs>
        <path id="DejaVuSans-31" d="M 794 531 
L 1825 531 
L 1825 4091 
L 703 3866 
L 703 4441 
L 1819 4666 
L 2450 4666 
L 2450 531 
L 3481 531 
L 3481 0 
L 794 0 
L 794 531 
z
" transform="scale(0.015625)"/>
       </defs>
       <use xlink:href="#DejaVuSans-31"/>
       <use xlink:href="#DejaVuSans-30" x="63.623047"/>
       <use xlink:href="#DejaVuSans-30" x="127.246094"/>
      </g>
     </g>
    </g>
    <g id="xtick_7">
     <g id="text_7">
      <!-- 120 -->
      <g transform="translate(857.215659 366.30265)scale(0.08 -0.08)">
       <use xlink:href="#DejaVuSans-31"/>
       <use xlink:href="#DejaVuSans-32" x="63.623047"/>
       <use xlink:href="#DejaVuSans-30" x="127.246094"/>
      </g>
     </g>
    </g>
    <g id="text_8">
     <!-- Position (bp) -->
     <g transform="translate(486.81 379.564837)scale(0.1 -0.1)">
      <defs>
       <path id="DejaVuSans-50" d="M 1259 4147 
L 1259 2394 
L 2053 2394 
Q 2494 2394 2734 2622 
Q 2975 2850 2975 3272 
Q 2975 3691 2734 3919 
Q 2494 4147 2053 4147 
L 1259 4147 
z
M 628 4666 
L 2053 4666 
Q 2838 4666 3239 4311 
Q 3641 3956 3641 3272 
Q 3641 2581 3239 2228 
Q 2838 1875 2053 1875 
L 1259 1875 
L 1259 0 
L 628 0 
L 628 4666 
z
" transform="scale(0.015625)"/>
       <path id="DejaVuSans-6f" d="M 1959 3097 
Q 1497 3097 1228 2736 
Q 959 2375 959 1747 
Q 959 1119 1226 758 
Q 1494 397 1959 397 
Q 2419 397 2687 759 
Q 2956 1122 2956 1747 
Q 2956 2369 2687 2733 
Q 2419 3097 1959 3097 
z
M 1959 3584 
Q 2709 3584 3137 3096 
Q 3566 2609 3566 1747 
Q 3566 888 3137 398 
Q 2709 -91 1959 -91 
Q 1206 -91 779 398 
Q 353 888 353 1747 
Q 353 2609 779 3096 
Q 1206 3584 1959 3584 
z
" transform="scale(0.015625)"/>
       <path id="DejaVuSans-73" d="M 2834 3397 
L 2834 2853 
Q 2591 2978 2328 3040 
Q 2066 3103 1784 3103 
Q 1356 3103 1142 2972 
Q 928 2841 928 2578 
Q 928 2378 1081 2264 
Q 1234 2150 1697 2047 
L 1894 2003 
Q 2506 1872 2764 1633 
Q 3022 1394 3022 966 
Q 3022 478 2636 193 
Q 2250 -91 1575 -91 
Q 1294 -91 989 -36 
Q 684 19 347 128 
L 347 722 
Q 666 556 975 473 
Q 1284 391 1588 391 
Q 1994 391 2212 530 
Q 2431 669 2431 922 
Q 2431 1156 2273 1281 
Q 2116 1406 1581 1522 
L 1381 1569 
Q 847 1681 609 1914 
Q 372 2147 372 2553 
Q 372 3047 722 3315 
Q 1072 3584 1716 3584 
Q 2034 3584 2315 3537 
Q 2597 3491 2834 3397 
z
" transform="scale(0.015625)"/>
       <path id="DejaVuSans-69" d="M 603 3500 
L 1178 3500 
L 1178 0 
L 603 0 
L 603 3500 
z
M 603 4863 
L 1178 4863 
L 1178 4134 
L 603 4134 
L 603 4863 
z
" transform="scale(0.015625)"/>
       <path id="DejaVuSans-74" d="M 1172 4494 
L 1172 3500 
L 2356 3500 
L 2356 3053 
L 1172 3053 
L 1172 1153 
Q 1172 725 1289 603 
Q 1406 481 1766 481 
L 2356 481 
L 2356 0 
L 1766 0 
Q 1100 0 847 248 
Q 594 497 594 1153 
L 594 3053 
L 172 3053 
L 172 3500 
L 594 3500 
L 594 4494 
L 1172 4494 
z
" transform="scale(0.015625)"/>
       <path id="DejaVuSans-6e" d="M 3513 2113 
L 3513 0 
L 2938 0 
L 2938 2094 
Q 2938 2591 2744 2837 
Q 2550 3084 2163 3084 
Q 1697 3084 1428 2787 
Q 1159 2491 1159 1978 
L 1159 0 
L 581 0 
L 581 3500 
L 1159 3500 
L 1159 2956 
Q 1366 3272 1645 3428 
Q 1925 3584 2291 3584 
Q 2894 3584 3203 3211 
Q 3513 2838 3513 2113 
z
" transform="scale(0.015625)"/>
       <path id="DejaVuSans-20" transform="scale(0.015625)"/>
       <path id="DejaVuSans-28" d="M 1984 4856 
Q 1566 4138 1362 3434 
Q 1159 2731 1159 2009 
Q 1159 1288 1364 580 
Q 1569 -128 1984 -844 
L 1484 -844 
Q 1016 -109 783 600 
Q 550 1309 550 2009 
Q 550 2706 781 3412 
Q 1013 4119 1484 4856 
L 1984 4856 
z
" transform="scale(0.015625)"/>
       <path id="DejaVuSans-62" d="M 3116 1747 
Q 3116 2381 2855 2742 
Q 2594 3103 2138 3103 
Q 1681 3103 1420 2742 
Q 1159 2381 1159 1747 
Q 1159 1113 1420 752 
Q 1681 391 2138 391 
Q 2594 391 2855 752 
Q 3116 1113 3116 1747 
z
M 1159 2969 
Q 1341 3281 1617 3432 
Q 1894 3584 2278 3584 
Q 2916 3584 3314 3078 
Q 3713 2572 3713 1747 
Q 3713 922 3314 415 
Q 2916 -91 2278 -91 
Q 1894 -91 1617 61 
Q 1341 213 1159 525 
L 1159 0 
L 581 0 
L 581 4863 
L 1159 4863 
L 1159 2969 
z
" transform="scale(0.015625)"/>
       <path id="DejaVuSans-70" d="M 1159 525 
L 1159 -1331 
L 581 -1331 
L 581 3500 
L 1159 3500 
L 1159 2969 
Q 1341 3281 1617 3432 
Q 1894 3584 2278 3584 
Q 2916 3584 3314 3078 
Q 3713 2572 3713 1747 
Q 3713 922 3314 415 
Q 2916 -91 2278 -91 
Q 1894 -91 1617 61 
Q 1341 213 1159 525 
z
M 3116 1747 
Q 3116 2381 2855 2742 
Q 2594 3103 2138 3103 
Q 1681 3103 1420 2742 
Q 1159 2381 1159 1747 
Q 1159 1113 1420 752 
Q 1681 391 2138 391 
Q 2594 391 2855 752 
Q 3116 1113 3116 1747 
z
" transform="scale(0.015625)"/>
       <path id="DejaVuSans-29" d="M 513 4856 
L 1013 4856 
Q 1481 4119 1714 3412 
Q 1947 2706 1947 2009 
Q 1947 1309 1714 600 
Q 1481 -109 1013 -844 
L 513 -844 
Q 928 -128 1133 580 
Q 1338 1288 1338 2009 
Q 1338 2731 1133 3434 
Q 928 4138 513 4856 
z
" transform="scale(0.015625)"/>
      </defs>
      <use xlink:href="#DejaVuSans-50"/>
      <use xlink:href="#DejaVuSans-6f" x="56.677734"/>
      <use xlink:href="#DejaVuSans-73" x="117.859375"/>
      <use xlink:href="#DejaVuSans-69" x="169.958984"/>
      <use xlink:href="#DejaVuSans-74" x="197.742188"/>
      <use xlink:href="#DejaVuSans-69" x="236.951172"/>
      <use xlink:href="#DejaVuSans-6f" x="264.734375"/>
      <use xlink:href="#DejaVuSans-6e" x="325.916016"/>
      <use xlink:href="#DejaVuSans-20" x="389.294922"/>
      <use xlink:href="#DejaVuSans-28" x="421.082031"/>
      <use xlink:href="#DejaVuSans-62" x="460.095703"/>
      <use xlink:href="#DejaVuSans-70" x="523.572266"/>
      <use xlink:href="#DejaVuSans-29" x="587.048828"/>
     </g>
    </g>
   </g>
   <g id="matplotlib.axis_2">
    <g id="ytick_1">
     <g id="line2d_1">
      <path d="M 43.148125 353.2239 
L 993.078125 353.2239 
" clip-path="url(#p6364a82500)" style="fill: none; stroke: #dedede; stroke-linecap: square"/>
     </g>
     <g id="text_9">
      <!-- 0 -->
      <g transform="translate(31.058125 356.263275)scale(0.08 -0.08)">
       <use xlink:href="#DejaVuSans-30"/>
      </g>
     </g>
    </g>
    <g id="ytick_2">
     <g id="line2d_2">
      <path d="M 43.148125 289.6303 
L 993.078125 289.6303 
" clip-path="url(#p6364a82500)" style="fill: none; stroke: #dedede; stroke-linecap: square"/>
     </g>
     <g id="text_10">
      <!-- 20 -->
      <g transform="translate(25.968125 292.669675)scale(0.08 -0.08)">
       <use xlink:href="#DejaVuSans-32"/>
       <use xlink:href="#DejaVuSans-30" x="63.623047"/>
      </g>
     </g>
    </g>
    <g id="ytick_3">
     <g id="line2d_3">
      <path d="M 43.148125 226.0367 
L 993.078125 226.0367 
" clip-path="url(#p6364a82500)" style="fill: none; stroke: #dedede; stroke-linecap: square"/>
     </g>
     <g id="text_11">
      <!-- 40 -->
      <g transform="translate(25.968125 229.076075)scale(0.08 -0.08)">
       <use xlink:href="#DejaVuSans-34"/>
       <use xlink:href="#DejaVuSans-30" x="63.623047"/>
      </g>
     </g>
    </g>
    <g id="ytick_4">
     <g id="line2d_4">
      <path d="M 43.148125 162.4431 
L 993.078125 162.4431 
" clip-path="url(#p6364a82500)" style="fill: none; stroke: #dedede; stroke-linecap: square"/>
     </g>
     <g id="text_12">
      <!-- 60 -->
      <g transform="translate(25.968125 165.482475)scale(0.08 -0.08)">
       <use xlink:href="#DejaVuSans-36"/>
       <use xlink:href="#DejaVuSans-30" x="63.623047"/>
      </g>
     </g>
    </g>
    <g id="ytick_5">
     <g id="line2d_5">
      <path d="M 43.148125 98.8495 
L 993.078125 98.8495 
" clip-path="url(#p6364a82500)" style="fill: none; stroke: #dedede; stroke-linecap: square"/>
     </g>
     <g id="text_13">
      <!-- 80 -->
      <g transform="translate(25.968125 101.888875)scale(0.08 -0.08)">
       <use xlink:href="#DejaVuSans-38"/>
       <use xlink:href="#DejaVuSans-30" x="63.623047"/>
      </g>
     </g>
    </g>
    <g id="ytick_6">
     <g id="line2d_6">
      <path d="M 43.148125 35.2559 
L 993.078125 35.2559 
" clip-path="url(#p6364a82500)" style="fill: none; stroke: #dedede; stroke-linecap: square"/>
     </g>
     <g id="text_14">
      <!-- 100 -->
      <g transform="translate(20.878125 38.295275)scale(0.08 -0.08)">
       <use xlink:href="#DejaVuSans-31"/>
       <use xlink:href="#DejaVuSans-30" x="63.623047"/>
       <use xlink:href="#DejaVuSans-30" x="127.246094"/>
      </g>
     </g>
    </g>
    <g id="text_15">
     <!-- % Methylation -->
     <g transform="translate(14.798437 230.089119)rotate(-90)scale(0.1 -0.1)">
      <defs>
       <path id="DejaVuSans-25" d="M 4653 2053 
Q 4381 2053 4226 1822 
Q 4072 1591 4072 1178 
Q 4072 772 4226 539 
Q 4381 306 4653 306 
Q 4919 306 5073 539 
Q 5228 772 5228 1178 
Q 5228 1588 5073 1820 
Q 4919 2053 4653 2053 
z
M 4653 2450 
Q 5147 2450 5437 2106 
Q 5728 1763 5728 1178 
Q 5728 594 5436 251 
Q 5144 -91 4653 -91 
Q 4153 -91 3862 251 
Q 3572 594 3572 1178 
Q 3572 1766 3864 2108 
Q 4156 2450 4653 2450 
z
M 1428 4353 
Q 1159 4353 1004 4120 
Q 850 3888 850 3481 
Q 850 3069 1003 2837 
Q 1156 2606 1428 2606 
Q 1700 2606 1854 2837 
Q 2009 3069 2009 3481 
Q 2009 3884 1853 4118 
Q 1697 4353 1428 4353 
z
M 4250 4750 
L 4750 4750 
L 1831 -91 
L 1331 -91 
L 4250 4750 
z
M 1428 4750 
Q 1922 4750 2215 4408 
Q 2509 4066 2509 3481 
Q 2509 2891 2217 2550 
Q 1925 2209 1428 2209 
Q 931 2209 642 2551 
Q 353 2894 353 3481 
Q 353 4063 643 4406 
Q 934 4750 1428 4750 
z
" transform="scale(0.015625)"/>
       <path id="DejaVuSans-4d" d="M 628 4666 
L 1569 4666 
L 2759 1491 
L 3956 4666 
L 4897 4666 
L 4897 0 
L 4281 0 
L 4281 4097 
L 3078 897 
L 2444 897 
L 1241 4097 
L 1241 0 
L 628 0 
L 628 4666 
z
" transform="scale(0.015625)"/>
       <path id="DejaVuSans-65" d="M 3597 1894 
L 3597 1613 
L 953 1613 
Q 991 1019 1311 708 
Q 1631 397 2203 397 
Q 2534 397 2845 478 
Q 3156 559 3463 722 
L 3463 178 
Q 3153 47 2828 -22 
Q 2503 -91 2169 -91 
Q 1331 -91 842 396 
Q 353 884 353 1716 
Q 353 2575 817 3079 
Q 1281 3584 2069 3584 
Q 2775 3584 3186 3129 
Q 3597 2675 3597 1894 
z
M 3022 2063 
Q 3016 2534 2758 2815 
Q 2500 3097 2075 3097 
Q 1594 3097 1305 2825 
Q 1016 2553 972 2059 
L 3022 2063 
z
" transform="scale(0.015625)"/>
       <path id="DejaVuSans-68" d="M 3513 2113 
L 3513 0 
L 2938 0 
L 2938 2094 
Q 2938 2591 2744 2837 
Q 2550 3084 2163 3084 
Q 1697 3084 1428 2787 
Q 1159 2491 1159 1978 
L 1159 0 
L 581 0 
L 581 4863 
L 1159 4863 
L 1159 2956 
Q 1366 3272 1645 3428 
Q 1925 3584 2291 3584 
Q 2894 3584 3203 3211 
Q 3513 2838 3513 2113 
z
" transform="scale(0.015625)"/>
       <path id="DejaVuSans-79" d="M 2059 -325 
Q 1816 -950 1584 -1140 
Q 1353 -1331 966 -1331 
L 506 -1331 
L 506 -850 
L 844 -850 
Q 1081 -850 1212 -737 
Q 1344 -625 1503 -206 
L 1606 56 
L 191 3500 
L 800 3500 
L 1894 763 
L 2988 3500 
L 3597 3500 
L 2059 -325 
z
" transform="scale(0.015625)"/>
       <path id="DejaVuSans-6c" d="M 603 4863 
L 1178 4863 
L 1178 0 
L 603 0 
L 603 4863 
z
" transform="scale(0.015625)"/>
       <path id="DejaVuSans-61" d="M 2194 1759 
Q 1497 1759 1228 1600 
Q 959 1441 959 1056 
Q 959 750 1161 570 
Q 1363 391 1709 391 
Q 2188 391 2477 730 
Q 2766 1069 2766 1631 
L 2766 1759 
L 2194 1759 
z
M 3341 1997 
L 3341 0 
L 2766 0 
L 2766 531 
Q 2569 213 2275 61 
Q 1981 -91 1556 -91 
Q 1019 -91 701 211 
Q 384 513 384 1019 
Q 384 1609 779 1909 
Q 1175 2209 1959 2209 
L 2766 2209 
L 2766 2266 
Q 2766 2663 2505 2880 
Q 2244 3097 1772 3097 
Q 1472 3097 1187 3025 
Q 903 2953 641 2809 
L 641 3341 
Q 956 3463 1253 3523 
Q 1550 3584 1831 3584 
Q 2591 3584 2966 3190 
Q 3341 2797 3341 1997 
z
" transform="scale(0.015625)"/>
      </defs>
      <use xlink:href="#DejaVuSans-25"/>
      <use xlink:href="#DejaVuSans-20" x="95.019531"/>
      <use xlink:href="#DejaVuSans-4d" x="126.806641"/>
      <use xlink:href="#DejaVuSans-65" x="213.085938"/>
      <use xlink:href="#DejaVuSans-74" x="274.609375"/>
      <use xlink:href="#DejaVuSans-68" x="313.818359"/>
      <use xlink:href="#DejaVuSans-79" x="377.197266"/>
      <use xlink:href="#DejaVuSans-6c" x="436.376953"/>
      <use xlink:href="#DejaVuSans-61" x="464.160156"/>
      <use xlink:href="#DejaVuSans-74" x="525.439453"/>
      <use xlink:href="#DejaVuSans-69" x="564.648438"/>
      <use xlink:href="#DejaVuSans-6f" x="592.431641"/>
      <use xlink:href="#DejaVuSans-6e" x="653.613281"/>
     </g>
    </g>
   </g>
   <g id="line2d_7">
    <path d="M 86.326761 342.730956 
L 92.868979 341.840646 
L 112.495632 340.632367 
L 119.03785 340.028228 
L 132.122285 339.837447 
L 138.664502 339.487682 
L 145.20672 339.392292 
L 151.748938 339.551276 
L 158.291155 339.201511 
L 164.833373 339.296902 
L 171.375591 339.106121 
L 177.917808 339.169714 
L 191.002243 338.978934 
L 197.544461 339.106121 
L 223.713332 338.947137 
L 230.255549 339.106121 
L 236.797767 338.91534 
L 249.882202 339.106121 
L 262.966637 338.883543 
L 269.508855 339.169714 
L 276.051073 338.947137 
L 282.59329 338.947137 
L 289.135508 338.788153 
L 295.677726 338.91534 
L 302.219943 338.851746 
L 308.762161 338.947137 
L 321.846596 338.629169 
L 328.388814 338.342998 
L 341.473249 338.724559 
L 348.015467 338.501982 
L 354.557684 338.533778 
L 367.642119 338.311201 
L 387.268772 338.660966 
L 393.81099 338.342998 
L 400.353208 338.438388 
L 413.437643 338.406591 
L 426.522078 338.81995 
L 433.064296 338.756356 
L 439.606513 338.883543 
L 459.233166 338.470185 
L 465.775384 338.81995 
L 478.859819 338.660966 
L 485.402037 338.597372 
L 491.944254 338.756356 
L 518.113125 338.406591 
L 524.655343 338.279404 
L 531.19756 338.501982 
L 550.824213 338.406591 
L 576.993084 338.279404 
L 583.535301 337.993233 
L 603.161954 338.279404 
L 616.246389 338.12042 
L 622.788607 338.056826 
L 642.41526 338.438388 
L 655.499695 338.565575 
L 662.041913 338.374794 
L 675.126348 338.374794 
L 681.668566 338.533778 
L 714.379654 338.406591 
L 720.921872 338.501982 
L 740.548524 338.342998 
L 747.090742 338.438388 
L 753.63296 338.21581 
L 760.175177 338.279404 
L 766.717395 337.993233 
L 773.259613 338.279404 
L 786.344048 338.184014 
L 792.886265 338.088623 
L 799.428483 338.152217 
L 805.970701 338.056826 
L 832.139571 338.279404 
L 858.308442 338.02503 
L 877.935095 338.152217 
L 891.01953 338.056826 
L 930.272836 337.961436 
L 936.815053 338.21581 
L 943.357271 337.770655 
L 949.899489 336.816751 
L 949.899489 336.816751 
" clip-path="url(#p6364a82500)" style="fill: none; stroke: #7cb5ec; stroke-linecap: square"/>
   </g>
   <g id="line2d_8">
    <path d="M 86.326761 341.490881 
L 92.868979 340.568774 
L 112.495632 339.201511 
L 119.03785 338.629169 
L 125.580067 338.342998 
L 132.122285 338.342998 
L 138.664502 337.961436 
L 145.20672 337.770655 
L 151.748938 338.02503 
L 158.291155 337.611671 
L 164.833373 337.770655 
L 171.375591 337.611671 
L 177.917808 337.643468 
L 184.460026 337.389094 
L 204.086679 337.516281 
L 210.628896 337.484484 
L 217.171114 337.579874 
L 223.713332 337.357297 
L 230.255549 337.516281 
L 236.797767 337.3255 
L 249.882202 337.611671 
L 256.42442 337.516281 
L 262.966637 337.23011 
L 269.508855 337.579874 
L 282.59329 337.293703 
L 295.677726 337.3255 
L 315.304378 337.261906 
L 328.388814 336.753158 
L 341.473249 337.071126 
L 348.015467 336.816751 
L 354.557684 336.880345 
L 367.642119 336.657767 
L 387.268772 337.007532 
L 393.81099 336.689564 
L 400.353208 336.848548 
L 406.895425 336.689564 
L 426.522078 337.23011 
L 452.690949 337.102922 
L 459.233166 336.943938 
L 465.775384 337.23011 
L 478.859819 337.039329 
L 485.402037 336.975735 
L 491.944254 337.23011 
L 511.570907 336.943938 
L 524.655343 336.657767 
L 531.19756 336.880345 
L 544.281996 336.848548 
L 563.908648 336.62597 
L 570.450866 336.753158 
L 583.535301 336.466986 
L 603.161954 336.657767 
L 616.246389 336.466986 
L 629.330825 336.62597 
L 635.873042 336.784954 
L 642.41526 336.784954 
L 648.957478 336.975735 
L 655.499695 337.007532 
L 668.584131 336.721361 
L 675.126348 336.784954 
L 681.668566 337.007532 
L 688.210783 336.848548 
L 694.753001 337.007532 
L 707.837436 336.784954 
L 727.464089 336.943938 
L 734.006307 336.816751 
L 740.548524 336.816751 
L 747.090742 336.943938 
L 760.175177 336.721361 
L 766.717395 336.594174 
L 773.259613 336.816751 
L 819.055136 336.689564 
L 825.597354 336.784954 
L 851.766224 336.594174 
L 858.308442 336.498783 
L 864.850659 336.53058 
L 871.392877 336.721361 
L 884.477312 336.594174 
L 897.561748 336.594174 
L 904.103965 336.466986 
L 917.1884 336.594174 
L 923.730618 336.403393 
L 936.815053 336.753158 
L 943.357271 336.498783 
L 949.899489 335.290505 
L 949.899489 335.290505 
" clip-path="url(#p6364a82500)" style="fill: none; stroke: #434348; stroke-linecap: square"/>
   </g>
   <g id="line2d_9">
    <path d="M 86.326761 340.060025 
L 92.868979 339.01073 
L 99.411197 338.501982 
L 105.953414 338.152217 
L 112.495632 337.643468 
L 119.03785 336.912142 
L 125.580067 336.689564 
L 132.122285 336.753158 
L 138.664502 336.149018 
L 145.20672 336.021831 
L 151.748938 336.689564 
L 158.291155 335.862847 
L 164.833373 336.149018 
L 171.375591 336.021831 
L 177.917808 336.053628 
L 184.460026 335.672066 
L 191.002243 335.64027 
L 210.628896 336.053628 
L 236.797767 335.73566 
L 243.339985 336.053628 
L 262.966637 335.862847 
L 269.508855 336.244409 
L 282.59329 335.894644 
L 289.135508 335.608473 
L 295.677726 335.958238 
L 302.219943 335.767457 
L 308.762161 335.958238 
L 315.304378 335.576676 
L 321.846596 335.672066 
L 328.388814 335.131521 
L 341.473249 335.703863 
L 348.015467 335.099724 
L 354.557684 335.354098 
L 367.642119 335.004334 
L 380.726555 335.03613 
L 387.268772 335.354098 
L 393.81099 334.94074 
L 400.353208 335.131521 
L 406.895425 335.004334 
L 419.979861 335.417692 
L 426.522078 335.926441 
L 433.064296 335.799254 
L 439.606513 335.958238 
L 446.148731 335.926441 
L 452.690949 335.513082 
L 459.233166 335.544879 
L 465.775384 335.990034 
L 472.317602 335.703863 
L 478.859819 335.544879 
L 485.402037 335.544879 
L 498.486472 335.958238 
L 505.02869 335.608473 
L 511.570907 335.417692 
L 518.113125 335.417692 
L 524.655343 335.163318 
L 531.19756 335.544879 
L 557.366431 335.544879 
L 563.908648 335.258708 
L 570.450866 335.417692 
L 576.993084 335.226911 
L 583.535301 334.813553 
L 603.161954 335.449489 
L 609.704172 335.322302 
L 616.246389 335.03613 
L 622.788607 334.972537 
L 629.330825 335.195114 
L 635.873042 335.703863 
L 642.41526 335.64027 
L 648.957478 335.767457 
L 655.499695 336.117222 
L 662.041913 335.894644 
L 675.126348 335.894644 
L 681.668566 336.149018 
L 688.210783 335.799254 
L 694.753001 336.085425 
L 701.295219 335.64027 
L 720.921872 335.926441 
L 727.464089 335.894644 
L 734.006307 335.73566 
L 747.090742 335.958238 
L 753.63296 335.417692 
L 760.175177 335.862847 
L 766.717395 335.767457 
L 773.259613 335.862847 
L 779.80183 336.085425 
L 786.344048 335.544879 
L 792.886265 335.83105 
L 805.970701 335.672066 
L 812.512918 335.513082 
L 819.055136 336.085425 
L 825.597354 335.926441 
L 832.139571 336.308002 
L 838.681789 335.862847 
L 845.224007 335.608473 
L 851.766224 335.862847 
L 864.850659 335.926441 
L 871.392877 336.085425 
L 877.935095 335.926441 
L 884.477312 335.576676 
L 891.01953 335.990034 
L 897.561748 336.244409 
L 904.103965 335.958238 
L 917.1884 335.767457 
L 923.730618 335.449489 
L 936.815053 335.990034 
L 943.357271 335.83105 
L 949.899489 332.619574 
L 949.899489 332.619574 
" clip-path="url(#p6364a82500)" style="fill: none; stroke: #90ed7d; stroke-linecap: square"/>
   </g>
   <g id="line2d_10">
    <path d="M 86.326761 342.603769 
L 92.868979 342.09502 
L 99.411197 341.3001 
L 105.953414 341.331897 
L 119.03785 340.377993 
L 132.122285 339.932838 
L 138.664502 339.519479 
L 145.20672 339.646666 
L 151.748938 340.187212 
L 158.291155 339.360495 
L 164.833373 339.551276 
L 177.917808 339.392292 
L 191.002243 338.756356 
L 197.544461 339.074324 
L 204.086679 339.137918 
L 210.628896 339.424089 
L 217.171114 339.360495 
L 223.713332 338.851746 
L 230.255549 338.91534 
L 236.797767 338.756356 
L 243.339985 339.137918 
L 249.882202 338.883543 
L 262.966637 338.91534 
L 269.508855 339.392292 
L 282.59329 339.042527 
L 289.135508 338.756356 
L 295.677726 338.947137 
L 302.219943 338.788153 
L 308.762161 339.01073 
L 315.304378 338.533778 
L 334.931031 338.533778 
L 341.473249 338.756356 
L 348.015467 338.311201 
L 354.557684 338.533778 
L 361.099902 338.184014 
L 374.184337 338.184014 
L 380.726555 337.961436 
L 387.268772 338.438388 
L 393.81099 337.961436 
L 400.353208 338.279404 
L 406.895425 337.834249 
L 413.437643 338.21581 
L 419.979861 338.438388 
L 426.522078 339.360495 
L 433.064296 338.81995 
L 439.606513 339.328698 
L 446.148731 339.328698 
L 452.690949 338.597372 
L 459.233166 338.470185 
L 465.775384 339.455886 
L 472.317602 338.947137 
L 478.859819 338.660966 
L 491.944254 338.597372 
L 498.486472 338.978934 
L 505.02869 338.660966 
L 511.570907 338.088623 
L 524.655343 337.993233 
L 531.19756 338.374794 
L 537.739778 338.533778 
L 550.824213 338.438388 
L 557.366431 337.993233 
L 563.908648 338.21581 
L 570.450866 338.184014 
L 576.993084 337.897842 
L 583.535301 337.484484 
L 590.077519 337.961436 
L 596.619737 337.834249 
L 603.161954 338.406591 
L 616.246389 337.993233 
L 622.788607 337.961436 
L 629.330825 338.279404 
L 635.873042 338.788153 
L 642.41526 338.406591 
L 648.957478 338.629169 
L 655.499695 339.201511 
L 662.041913 339.233308 
L 668.584131 338.91534 
L 675.126348 339.01073 
L 688.210783 338.724559 
L 701.295219 338.438388 
L 707.837436 338.629169 
L 714.379654 338.629169 
L 720.921872 339.137918 
L 734.006307 338.629169 
L 740.548524 338.692762 
L 747.090742 339.137918 
L 753.63296 338.184014 
L 766.717395 338.851746 
L 773.259613 338.629169 
L 779.80183 338.660966 
L 786.344048 338.152217 
L 792.886265 338.501982 
L 805.970701 338.247607 
L 812.512918 338.088623 
L 819.055136 339.01073 
L 825.597354 338.501982 
L 832.139571 338.788153 
L 838.681789 338.533778 
L 845.224007 338.12042 
L 851.766224 338.374794 
L 858.308442 338.470185 
L 864.850659 338.406591 
L 871.392877 338.724559 
L 877.935095 338.279404 
L 884.477312 338.21581 
L 897.561748 338.692762 
L 904.103965 338.342998 
L 910.646183 338.692762 
L 917.1884 338.438388 
L 923.730618 337.961436 
L 936.815053 338.470185 
L 943.357271 337.897842 
L 949.899489 335.449489 
L 949.899489 335.449489 
" clip-path="url(#p6364a82500)" style="fill: none; stroke: #f7a35c; stroke-linecap: square"/>
   </g>
   <g id="line2d_11">
    <path d="M 86.326761 344.161812 
L 92.868979 343.398689 
L 99.411197 342.762753 
L 112.495632 342.285801 
L 125.580067 341.363694 
L 145.20672 340.886742 
L 151.748938 341.236506 
L 158.291155 340.60057 
L 164.833373 340.632367 
L 184.460026 340.091822 
L 204.086679 339.964634 
L 210.628896 340.219009 
L 217.171114 339.869244 
L 223.713332 339.869244 
L 236.797767 339.61487 
L 243.339985 339.837447 
L 262.966637 339.646666 
L 269.508855 340.028228 
L 276.051073 339.742057 
L 282.59329 339.678463 
L 289.135508 339.424089 
L 308.762161 339.742057 
L 315.304378 339.265105 
L 321.846596 339.265105 
L 328.388814 338.91534 
L 334.931031 339.201511 
L 341.473249 339.360495 
L 348.015467 338.788153 
L 361.099902 338.91534 
L 380.726555 338.724559 
L 387.268772 339.233308 
L 393.81099 338.81995 
L 400.353208 338.851746 
L 406.895425 338.724559 
L 413.437643 338.756356 
L 419.979861 339.201511 
L 426.522078 339.869244 
L 433.064296 339.296902 
L 439.606513 339.678463 
L 446.148731 339.71026 
L 452.690949 339.233308 
L 459.233166 338.978934 
L 465.775384 339.61487 
L 478.859819 339.583073 
L 485.402037 339.360495 
L 498.486472 339.646666 
L 505.02869 339.106121 
L 511.570907 338.883543 
L 518.113125 338.851746 
L 524.655343 339.01073 
L 531.19756 339.328698 
L 537.739778 339.265105 
L 544.281996 339.042527 
L 550.824213 339.169714 
L 557.366431 339.01073 
L 570.450866 339.106121 
L 583.535301 338.247607 
L 590.077519 338.81995 
L 596.619737 338.692762 
L 603.161954 339.201511 
L 609.704172 339.169714 
L 616.246389 338.788153 
L 629.330825 338.883543 
L 635.873042 339.551276 
L 642.41526 339.296902 
L 648.957478 339.233308 
L 655.499695 339.742057 
L 668.584131 339.455886 
L 675.126348 339.583073 
L 688.210783 339.296902 
L 694.753001 339.519479 
L 701.295219 339.169714 
L 707.837436 339.455886 
L 714.379654 339.296902 
L 727.464089 339.519479 
L 734.006307 339.360495 
L 747.090742 339.61487 
L 753.63296 339.074324 
L 760.175177 339.360495 
L 779.80183 339.265105 
L 786.344048 338.788153 
L 792.886265 339.201511 
L 799.428483 339.201511 
L 805.970701 339.01073 
L 812.512918 339.01073 
L 819.055136 339.583073 
L 825.597354 339.137918 
L 832.139571 339.487682 
L 845.224007 339.042527 
L 851.766224 339.01073 
L 858.308442 339.201511 
L 864.850659 339.233308 
L 871.392877 339.424089 
L 877.935095 339.106121 
L 884.477312 339.169714 
L 891.01953 339.61487 
L 897.561748 339.551276 
L 904.103965 339.074324 
L 910.646183 339.296902 
L 923.730618 338.788153 
L 930.272836 338.756356 
L 936.815053 339.106121 
L 943.357271 338.692762 
L 949.899489 336.053628 
L 949.899489 336.053628 
" clip-path="url(#p6364a82500)" style="fill: none; stroke: #8085e9; stroke-linecap: square"/>
   </g>
   <g id="line2d_12">
    <path d="M 86.326761 342.19041 
L 99.411197 340.823148 
L 112.495632 340.282602 
L 119.03785 339.487682 
L 125.580067 339.392292 
L 132.122285 339.424089 
L 138.664502 338.91534 
L 145.20672 338.692762 
L 151.748938 339.233308 
L 158.291155 338.597372 
L 164.833373 338.851746 
L 171.375591 338.629169 
L 177.917808 338.692762 
L 191.002243 338.311201 
L 197.544461 338.565575 
L 204.086679 338.597372 
L 210.628896 338.788153 
L 217.171114 338.597372 
L 236.797767 338.438388 
L 249.882202 338.660966 
L 262.966637 338.629169 
L 269.508855 338.788153 
L 289.135508 338.21581 
L 295.677726 338.438388 
L 308.762161 338.438388 
L 321.846596 338.152217 
L 328.388814 337.675265 
L 341.473249 337.993233 
L 348.015467 337.579874 
L 354.557684 337.866046 
L 361.099902 337.802452 
L 367.642119 337.611671 
L 374.184337 337.579874 
L 380.726555 337.389094 
L 387.268772 337.961436 
L 393.81099 337.484484 
L 400.353208 337.738858 
L 413.437643 337.643468 
L 426.522078 338.342998 
L 433.064296 338.311201 
L 439.606513 338.470185 
L 459.233166 337.961436 
L 465.775384 338.533778 
L 472.317602 338.247607 
L 478.859819 338.088623 
L 485.402037 338.12042 
L 498.486472 338.406591 
L 511.570907 337.802452 
L 524.655343 337.579874 
L 531.19756 338.12042 
L 544.281996 337.929639 
L 550.824213 338.152217 
L 557.366431 337.802452 
L 563.908648 337.675265 
L 570.450866 337.834249 
L 576.993084 337.770655 
L 583.535301 337.261906 
L 590.077519 337.579874 
L 596.619737 337.611671 
L 603.161954 337.866046 
L 609.704172 337.770655 
L 616.246389 337.516281 
L 622.788607 337.42089 
L 629.330825 337.675265 
L 635.873042 338.088623 
L 648.957478 338.12042 
L 655.499695 338.597372 
L 662.041913 338.311201 
L 668.584131 338.184014 
L 675.126348 338.247607 
L 681.668566 338.438388 
L 688.210783 338.21581 
L 694.753001 338.374794 
L 701.295219 338.056826 
L 707.837436 338.21581 
L 714.379654 338.056826 
L 720.921872 338.406591 
L 727.464089 338.470185 
L 734.006307 338.247607 
L 747.090742 338.470185 
L 753.63296 338.12042 
L 760.175177 338.279404 
L 766.717395 338.152217 
L 779.80183 338.438388 
L 786.344048 338.152217 
L 799.428483 338.21581 
L 805.970701 338.02503 
L 812.512918 338.056826 
L 819.055136 338.533778 
L 825.597354 338.279404 
L 832.139571 338.724559 
L 838.681789 338.406591 
L 845.224007 338.247607 
L 851.766224 338.438388 
L 864.850659 338.406591 
L 871.392877 338.565575 
L 877.935095 338.247607 
L 891.01953 338.374794 
L 897.561748 338.533778 
L 904.103965 338.342998 
L 910.646183 338.438388 
L 923.730618 338.02503 
L 930.272836 338.152217 
L 936.815053 338.470185 
L 943.357271 338.184014 
L 949.899489 335.83105 
L 949.899489 335.83105 
" clip-path="url(#p6364a82500)" style="fill: none; stroke: #f15c80; stroke-linecap: square"/>
   </g>
   <g id="line2d_13">
    <path d="M 86.326761 341.490881 
L 92.868979 340.536977 
L 99.411197 339.869244 
L 112.495632 339.328698 
L 119.03785 338.533778 
L 125.580067 338.406591 
L 132.122285 338.406591 
L 138.664502 337.834249 
L 145.20672 337.834249 
L 151.748938 338.406591 
L 158.291155 337.516281 
L 164.833373 337.897842 
L 171.375591 337.675265 
L 177.917808 337.738858 
L 184.460026 337.42089 
L 191.002243 337.42089 
L 210.628896 337.897842 
L 217.171114 337.611671 
L 230.255549 337.579874 
L 236.797767 337.548078 
L 243.339985 337.961436 
L 256.42442 337.643468 
L 262.966637 337.675265 
L 269.508855 337.993233 
L 276.051073 337.802452 
L 282.59329 337.770655 
L 289.135508 337.548078 
L 295.677726 337.738858 
L 302.219943 337.452687 
L 308.762161 337.611671 
L 321.846596 337.261906 
L 328.388814 337.007532 
L 334.931031 337.071126 
L 341.473249 337.42089 
L 348.015467 336.784954 
L 354.557684 337.039329 
L 367.642119 336.689564 
L 374.184337 336.784954 
L 380.726555 336.721361 
L 387.268772 337.071126 
L 393.81099 336.689564 
L 400.353208 337.071126 
L 406.895425 336.784954 
L 419.979861 337.166516 
L 426.522078 337.611671 
L 433.064296 337.484484 
L 439.606513 337.834249 
L 446.148731 337.770655 
L 452.690949 337.293703 
L 459.233166 337.261906 
L 465.775384 337.675265 
L 472.317602 337.389094 
L 485.402037 337.23011 
L 498.486472 337.516281 
L 505.02869 337.389094 
L 511.570907 337.007532 
L 524.655343 336.912142 
L 531.19756 337.261906 
L 537.739778 337.166516 
L 550.824213 337.198313 
L 557.366431 337.039329 
L 563.908648 337.007532 
L 570.450866 337.102922 
L 576.993084 336.975735 
L 583.535301 336.562377 
L 590.077519 336.62597 
L 603.161954 337.198313 
L 609.704172 337.071126 
L 616.246389 336.721361 
L 629.330825 337.039329 
L 635.873042 337.357297 
L 642.41526 337.23011 
L 655.499695 337.675265 
L 662.041913 337.548078 
L 675.126348 337.579874 
L 681.668566 337.866046 
L 688.210783 337.516281 
L 694.753001 337.675265 
L 701.295219 337.3255 
L 707.837436 337.548078 
L 714.379654 337.357297 
L 720.921872 337.707062 
L 727.464089 337.707062 
L 734.006307 337.516281 
L 747.090742 337.770655 
L 753.63296 337.134719 
L 760.175177 337.42089 
L 779.80183 337.611671 
L 786.344048 337.102922 
L 792.886265 337.452687 
L 799.428483 337.548078 
L 805.970701 337.166516 
L 812.512918 337.261906 
L 819.055136 337.802452 
L 825.597354 337.484484 
L 832.139571 337.866046 
L 838.681789 337.675265 
L 845.224007 337.23011 
L 858.308442 337.516281 
L 877.935095 337.3255 
L 884.477312 337.23011 
L 897.561748 337.643468 
L 904.103965 337.42089 
L 910.646183 337.548078 
L 917.1884 337.516281 
L 923.730618 337.039329 
L 930.272836 337.23011 
L 936.815053 337.548078 
L 943.357271 337.484484 
L 949.899489 334.686366 
L 949.899489 334.686366 
" clip-path="url(#p6364a82500)" style="fill: none; stroke: #e4d354; stroke-linecap: square"/>
   </g>
   <g id="line2d_14">
    <path d="M 86.326761 343.176111 
L 92.868979 342.317598 
L 99.411197 341.745255 
L 105.953414 341.681662 
L 119.03785 340.536977 
L 138.664502 340.060025 
L 145.20672 339.742057 
L 151.748938 340.155415 
L 158.291155 339.678463 
L 164.833373 339.773854 
L 171.375591 339.551276 
L 177.917808 339.71026 
L 184.460026 339.328698 
L 197.544461 339.487682 
L 210.628896 339.646666 
L 230.255549 339.551276 
L 236.797767 339.392292 
L 249.882202 339.646666 
L 256.42442 339.61487 
L 262.966637 339.424089 
L 269.508855 339.837447 
L 276.051073 339.487682 
L 282.59329 339.583073 
L 289.135508 339.392292 
L 308.762161 339.487682 
L 315.304378 339.265105 
L 321.846596 339.169714 
L 328.388814 338.756356 
L 334.931031 339.074324 
L 341.473249 339.169714 
L 348.015467 338.756356 
L 361.099902 338.724559 
L 367.642119 338.565575 
L 387.268772 339.01073 
L 393.81099 338.724559 
L 400.353208 338.851746 
L 406.895425 338.756356 
L 419.979861 339.01073 
L 426.522078 339.487682 
L 433.064296 339.296902 
L 439.606513 339.551276 
L 446.148731 339.392292 
L 452.690949 339.074324 
L 459.233166 338.947137 
L 465.775384 339.455886 
L 478.859819 339.074324 
L 491.944254 339.265105 
L 498.486472 339.424089 
L 505.02869 339.265105 
L 511.570907 338.91534 
L 518.113125 338.883543 
L 524.655343 338.724559 
L 531.19756 339.106121 
L 537.739778 339.169714 
L 544.281996 338.91534 
L 550.824213 338.978934 
L 563.908648 338.883543 
L 576.993084 338.756356 
L 583.535301 338.342998 
L 590.077519 338.597372 
L 603.161954 338.851746 
L 616.246389 338.565575 
L 629.330825 338.724559 
L 635.873042 339.106121 
L 648.957478 339.074324 
L 655.499695 339.424089 
L 662.041913 339.169714 
L 668.584131 339.137918 
L 681.668566 339.392292 
L 688.210783 339.201511 
L 694.753001 339.296902 
L 701.295219 339.01073 
L 707.837436 339.137918 
L 714.379654 338.978934 
L 720.921872 339.328698 
L 734.006307 339.074324 
L 740.548524 339.392292 
L 747.090742 339.360495 
L 753.63296 338.851746 
L 760.175177 339.074324 
L 779.80183 339.074324 
L 786.344048 338.91534 
L 792.886265 338.91534 
L 799.428483 339.106121 
L 812.512918 338.81995 
L 819.055136 339.296902 
L 825.597354 339.169714 
L 832.139571 339.519479 
L 845.224007 338.91534 
L 851.766224 339.201511 
L 858.308442 339.01073 
L 864.850659 339.201511 
L 871.392877 339.233308 
L 884.477312 338.91534 
L 897.561748 339.106121 
L 904.103965 338.91534 
L 910.646183 339.074324 
L 917.1884 338.724559 
L 923.730618 338.533778 
L 936.815053 338.81995 
L 943.357271 338.629169 
L 949.899489 336.244409 
L 949.899489 336.244409 
" clip-path="url(#p6364a82500)" style="fill: none; stroke: #2b908f; stroke-linecap: square"/>
   </g>
   <g id="line2d_15">
    <path d="M 86.326761 342.540175 
L 92.868979 341.586271 
L 99.411197 341.045726 
L 105.953414 340.823148 
L 112.495632 340.441586 
L 119.03785 339.869244 
L 125.580067 339.583073 
L 132.122285 339.678463 
L 138.664502 339.169714 
L 145.20672 339.01073 
L 151.748938 339.487682 
L 158.291155 338.788153 
L 164.833373 339.074324 
L 171.375591 338.851746 
L 177.917808 338.883543 
L 184.460026 338.533778 
L 191.002243 338.470185 
L 197.544461 338.756356 
L 217.171114 338.947137 
L 223.713332 338.724559 
L 230.255549 338.756356 
L 236.797767 338.533778 
L 243.339985 338.851746 
L 249.882202 338.91534 
L 262.966637 338.756356 
L 269.508855 339.01073 
L 276.051073 338.724559 
L 282.59329 338.756356 
L 289.135508 338.565575 
L 295.677726 338.756356 
L 302.219943 338.724559 
L 308.762161 338.565575 
L 315.304378 338.565575 
L 328.388814 338.056826 
L 334.931031 338.056826 
L 341.473249 338.406591 
L 348.015467 337.866046 
L 354.557684 338.02503 
L 380.726555 337.961436 
L 387.268772 338.184014 
L 393.81099 337.866046 
L 400.353208 338.056826 
L 413.437643 337.897842 
L 419.979861 338.342998 
L 426.522078 338.629169 
L 433.064296 338.629169 
L 439.606513 338.756356 
L 446.148731 338.692762 
L 452.690949 338.311201 
L 459.233166 338.21581 
L 465.775384 338.756356 
L 478.859819 338.374794 
L 491.944254 338.438388 
L 498.486472 338.724559 
L 518.113125 337.866046 
L 524.655343 337.802452 
L 531.19756 338.342998 
L 544.281996 337.929639 
L 550.824213 338.184014 
L 557.366431 338.12042 
L 563.908648 337.897842 
L 570.450866 338.056826 
L 576.993084 337.834249 
L 583.535301 337.452687 
L 603.161954 338.02503 
L 609.704172 337.961436 
L 616.246389 337.770655 
L 622.788607 337.834249 
L 635.873042 338.311201 
L 642.41526 338.311201 
L 648.957478 338.501982 
L 655.499695 338.851746 
L 662.041913 338.470185 
L 675.126348 338.470185 
L 681.668566 338.629169 
L 688.210783 338.406591 
L 694.753001 338.692762 
L 701.295219 338.12042 
L 707.837436 338.311201 
L 714.379654 338.21581 
L 720.921872 338.597372 
L 734.006307 338.406591 
L 740.548524 338.406591 
L 747.090742 338.565575 
L 753.63296 338.12042 
L 760.175177 338.438388 
L 773.259613 338.279404 
L 779.80183 338.374794 
L 786.344048 338.21581 
L 799.428483 338.438388 
L 805.970701 338.088623 
L 812.512918 338.088623 
L 819.055136 338.597372 
L 825.597354 338.470185 
L 832.139571 338.724559 
L 845.224007 338.184014 
L 864.850659 338.406591 
L 871.392877 338.597372 
L 877.935095 338.152217 
L 884.477312 338.184014 
L 897.561748 338.406591 
L 917.1884 337.993233 
L 923.730618 337.643468 
L 930.272836 338.088623 
L 936.815053 338.152217 
L 943.357271 338.02503 
L 949.899489 335.354098 
L 949.899489 335.354098 
" clip-path="url(#p6364a82500)" style="fill: none; stroke: #f45b5b; stroke-linecap: square"/>
   </g>
   <g id="line2d_16">
    <path d="M 86.326761 343.653063 
L 92.868979 342.858143 
L 99.411197 342.254004 
L 105.953414 342.063223 
L 112.495632 341.554474 
L 119.03785 340.918538 
L 125.580067 340.759554 
L 132.122285 340.823148 
L 138.664502 340.40979 
L 145.20672 340.282602 
L 151.748938 340.664164 
L 158.291155 340.187212 
L 164.833373 340.346196 
L 171.375591 340.187212 
L 177.917808 340.250806 
L 191.002243 339.901041 
L 204.086679 340.219009 
L 223.713332 339.964634 
L 230.255549 340.123618 
L 236.797767 339.869244 
L 243.339985 340.250806 
L 256.42442 340.060025 
L 282.59329 339.964634 
L 289.135508 339.901041 
L 295.677726 340.028228 
L 302.219943 339.869244 
L 308.762161 340.028228 
L 315.304378 339.773854 
L 321.846596 339.678463 
L 328.388814 339.392292 
L 334.931031 339.424089 
L 341.473249 339.678463 
L 348.015467 339.265105 
L 354.557684 339.392292 
L 361.099902 339.392292 
L 367.642119 339.137918 
L 374.184337 339.233308 
L 380.726555 339.201511 
L 387.268772 339.487682 
L 393.81099 339.201511 
L 400.353208 339.328698 
L 406.895425 339.233308 
L 419.979861 339.551276 
L 426.522078 339.869244 
L 433.064296 339.678463 
L 439.606513 340.028228 
L 446.148731 339.932838 
L 452.690949 339.61487 
L 459.233166 339.519479 
L 465.775384 339.964634 
L 472.317602 339.71026 
L 478.859819 339.583073 
L 491.944254 339.71026 
L 498.486472 339.837447 
L 511.570907 339.424089 
L 518.113125 339.296902 
L 524.655343 339.328698 
L 531.19756 339.646666 
L 550.824213 339.424089 
L 576.993084 339.392292 
L 583.535301 338.883543 
L 590.077519 339.201511 
L 609.704172 339.328698 
L 616.246389 339.137918 
L 622.788607 339.106121 
L 629.330825 339.296902 
L 635.873042 339.61487 
L 642.41526 339.646666 
L 655.499695 339.996431 
L 668.584131 339.71026 
L 688.210783 339.773854 
L 694.753001 339.996431 
L 701.295219 339.61487 
L 714.379654 339.61487 
L 720.921872 339.80565 
L 727.464089 339.869244 
L 734.006307 339.742057 
L 747.090742 339.932838 
L 753.63296 339.424089 
L 760.175177 339.742057 
L 766.717395 339.71026 
L 773.259613 339.837447 
L 779.80183 339.837447 
L 786.344048 339.583073 
L 792.886265 339.837447 
L 812.512918 339.551276 
L 819.055136 339.964634 
L 825.597354 339.837447 
L 832.139571 340.060025 
L 845.224007 339.71026 
L 851.766224 339.837447 
L 858.308442 339.773854 
L 877.935095 339.869244 
L 884.477312 339.646666 
L 891.01953 339.901041 
L 897.561748 339.964634 
L 904.103965 339.773854 
L 930.272836 339.519479 
L 936.815053 339.773854 
L 943.357271 339.61487 
L 949.899489 337.484484 
L 949.899489 337.484484 
" clip-path="url(#p6364a82500)" style="fill: none; stroke: #91e8e1; stroke-linecap: square"/>
   </g>
   <g id="line2d_17">
    <path d="M 86.326761 342.349394 
L 92.868979 341.427287 
L 99.411197 340.918538 
L 112.495632 340.441586 
L 119.03785 339.742057 
L 132.122285 339.455886 
L 138.664502 339.01073 
L 145.20672 338.851746 
L 151.748938 339.424089 
L 158.291155 338.756356 
L 164.833373 339.074324 
L 171.375591 338.724559 
L 177.917808 338.81995 
L 184.460026 338.533778 
L 191.002243 338.660966 
L 197.544461 338.660966 
L 204.086679 338.851746 
L 210.628896 338.883543 
L 236.797767 338.501982 
L 249.882202 338.91534 
L 256.42442 338.851746 
L 262.966637 338.597372 
L 269.508855 338.883543 
L 289.135508 338.565575 
L 295.677726 338.660966 
L 302.219943 338.533778 
L 308.762161 338.629169 
L 321.846596 338.311201 
L 328.388814 337.961436 
L 341.473249 338.374794 
L 348.015467 337.834249 
L 354.557684 338.02503 
L 361.099902 337.993233 
L 367.642119 337.802452 
L 387.268772 338.184014 
L 393.81099 337.738858 
L 400.353208 338.02503 
L 406.895425 337.866046 
L 413.437643 338.02503 
L 426.522078 338.724559 
L 433.064296 338.597372 
L 446.148731 338.756356 
L 452.690949 338.374794 
L 459.233166 338.279404 
L 465.775384 338.692762 
L 478.859819 338.311201 
L 491.944254 338.501982 
L 498.486472 338.629169 
L 511.570907 338.02503 
L 518.113125 338.02503 
L 524.655343 337.770655 
L 531.19756 338.247607 
L 544.281996 338.02503 
L 550.824213 338.21581 
L 557.366431 337.993233 
L 563.908648 337.961436 
L 570.450866 338.056826 
L 576.993084 337.993233 
L 583.535301 337.643468 
L 603.161954 338.088623 
L 609.704172 337.961436 
L 616.246389 337.675265 
L 622.788607 337.643468 
L 635.873042 338.21581 
L 642.41526 338.184014 
L 648.957478 338.342998 
L 655.499695 338.724559 
L 662.041913 338.438388 
L 675.126348 338.342998 
L 681.668566 338.629169 
L 688.210783 338.311201 
L 694.753001 338.438388 
L 701.295219 338.088623 
L 707.837436 338.311201 
L 714.379654 338.21581 
L 720.921872 338.406591 
L 734.006307 338.247607 
L 747.090742 338.501982 
L 753.63296 338.088623 
L 760.175177 338.279404 
L 766.717395 338.02503 
L 773.259613 338.21581 
L 779.80183 338.247607 
L 786.344048 337.897842 
L 792.886265 338.152217 
L 799.428483 338.184014 
L 812.512918 337.834249 
L 819.055136 338.501982 
L 825.597354 338.12042 
L 832.139571 338.470185 
L 845.224007 337.961436 
L 851.766224 338.152217 
L 858.308442 338.088623 
L 864.850659 338.342998 
L 871.392877 338.279404 
L 877.935095 338.02503 
L 884.477312 337.929639 
L 897.561748 338.279404 
L 904.103965 337.866046 
L 910.646183 338.088623 
L 923.730618 337.579874 
L 930.272836 337.675265 
L 936.815053 337.993233 
L 943.357271 337.770655 
L 949.899489 334.877146 
L 949.899489 334.877146 
" clip-path="url(#p6364a82500)" style="fill: none; stroke: #7cb5ec; stroke-linecap: square"/>
   </g>
   <g id="line2d_18">
    <path d="M 86.326761 343.398689 
L 92.868979 342.444785 
L 99.411197 342.09502 
L 112.495632 341.236506 
L 119.03785 340.536977 
L 132.122285 340.377993 
L 138.664502 339.996431 
L 145.20672 339.869244 
L 151.748938 340.219009 
L 158.291155 339.71026 
L 164.833373 339.869244 
L 171.375591 339.71026 
L 177.917808 339.837447 
L 184.460026 339.551276 
L 191.002243 339.678463 
L 197.544461 339.646666 
L 204.086679 339.80565 
L 217.171114 339.773854 
L 223.713332 339.742057 
L 230.255549 339.837447 
L 236.797767 339.646666 
L 249.882202 339.869244 
L 262.966637 339.583073 
L 269.508855 339.901041 
L 276.051073 339.678463 
L 282.59329 339.71026 
L 289.135508 339.487682 
L 295.677726 339.678463 
L 302.219943 339.61487 
L 308.762161 339.71026 
L 328.388814 339.169714 
L 334.931031 339.201511 
L 341.473249 339.424089 
L 348.015467 339.201511 
L 361.099902 339.169714 
L 367.642119 339.01073 
L 374.184337 339.137918 
L 380.726555 339.137918 
L 387.268772 339.328698 
L 393.81099 339.042527 
L 400.353208 339.201511 
L 413.437643 339.169714 
L 426.522078 339.61487 
L 459.233166 339.424089 
L 465.775384 339.678463 
L 485.402037 339.487682 
L 498.486472 339.71026 
L 505.02869 339.487682 
L 524.655343 339.201511 
L 531.19756 339.487682 
L 544.281996 339.328698 
L 563.908648 339.265105 
L 570.450866 339.360495 
L 576.993084 339.233308 
L 583.535301 338.978934 
L 603.161954 339.360495 
L 609.704172 339.296902 
L 616.246389 339.074324 
L 622.788607 339.074324 
L 655.499695 339.678463 
L 668.584131 339.455886 
L 694.753001 339.71026 
L 701.295219 339.487682 
L 727.464089 339.678463 
L 734.006307 339.61487 
L 747.090742 339.71026 
L 753.63296 339.455886 
L 760.175177 339.61487 
L 773.259613 339.487682 
L 779.80183 339.646666 
L 786.344048 339.487682 
L 799.428483 339.71026 
L 812.512918 339.360495 
L 819.055136 339.773854 
L 825.597354 339.742057 
L 832.139571 339.901041 
L 845.224007 339.519479 
L 851.766224 339.71026 
L 877.935095 339.646666 
L 884.477312 339.551276 
L 897.561748 339.901041 
L 904.103965 339.71026 
L 910.646183 339.678463 
L 917.1884 339.360495 
L 930.272836 339.455886 
L 936.815053 339.583073 
L 943.357271 339.392292 
L 949.899489 337.166516 
L 949.899489 337.166516 
" clip-path="url(#p6364a82500)" style="fill: none; stroke: #434348; stroke-linecap: square"/>
   </g>
   <g id="line2d_19">
    <path d="M 86.326761 347.373289 
L 92.868979 346.86454 
L 125.580067 345.656262 
L 132.122285 345.624465 
L 138.664502 345.338294 
L 145.20672 345.338294 
L 151.748938 345.529074 
L 158.291155 345.242903 
L 164.833373 345.37009 
L 171.375591 345.211106 
L 177.917808 345.242903 
L 184.460026 345.083919 
L 223.713332 345.17931 
L 236.797767 345.115716 
L 243.339985 345.242903 
L 289.135508 345.147513 
L 302.219943 345.115716 
L 308.762161 345.147513 
L 334.931031 344.829545 
L 341.473249 345.052122 
L 348.015467 344.829545 
L 354.557684 344.893138 
L 367.642119 344.702358 
L 387.268772 344.893138 
L 393.81099 344.734154 
L 400.353208 344.829545 
L 406.895425 344.765951 
L 439.606513 345.147513 
L 452.690949 345.020326 
L 459.233166 344.924935 
L 465.775384 345.147513 
L 485.402037 345.020326 
L 498.486472 345.115716 
L 511.570907 344.893138 
L 518.113125 344.861342 
L 524.655343 344.670561 
L 531.19756 344.924935 
L 537.739778 344.956732 
L 544.281996 344.861342 
L 563.908648 344.861342 
L 576.993084 344.893138 
L 583.535301 344.638764 
L 603.161954 344.893138 
L 629.330825 344.861342 
L 635.873042 344.988529 
L 642.41526 344.956732 
L 655.499695 345.211106 
L 662.041913 345.052122 
L 688.210783 345.020326 
L 694.753001 345.17931 
L 701.295219 345.052122 
L 727.464089 345.115716 
L 734.006307 345.052122 
L 740.548524 345.147513 
L 747.090742 345.115716 
L 753.63296 344.924935 
L 760.175177 345.052122 
L 773.259613 345.052122 
L 779.80183 345.115716 
L 786.344048 344.988529 
L 799.428483 345.115716 
L 812.512918 344.893138 
L 819.055136 345.17931 
L 825.597354 345.147513 
L 832.139571 345.2747 
L 838.681789 345.083919 
L 845.224007 345.020326 
L 858.308442 345.115716 
L 871.392877 345.115716 
L 891.01953 345.115716 
L 897.561748 345.115716 
L 904.103965 344.956732 
L 910.646183 344.988529 
L 917.1884 344.797748 
L 923.730618 344.734154 
L 936.815053 344.861342 
L 943.357271 344.606967 
L 949.899489 343.112518 
L 949.899489 343.112518 
" clip-path="url(#p6364a82500)" style="fill: none; stroke: #90ed7d; stroke-linecap: square"/>
   </g>
   <g id="line2d_20">
    <path d="M 86.326761 346.991727 
L 92.868979 346.482978 
L 125.580067 345.2747 
L 132.122285 345.242903 
L 145.20672 344.924935 
L 151.748938 345.17931 
L 158.291155 344.861342 
L 164.833373 344.988529 
L 171.375591 344.829545 
L 177.917808 344.861342 
L 191.002243 344.765951 
L 210.628896 344.893138 
L 282.59329 344.893138 
L 289.135508 344.734154 
L 302.219943 344.765951 
L 308.762161 344.797748 
L 328.388814 344.47978 
L 341.473249 344.638764 
L 348.015467 344.47978 
L 361.099902 344.511577 
L 367.642119 344.352593 
L 374.184337 344.447983 
L 380.726555 344.416186 
L 387.268772 344.57517 
L 393.81099 344.38439 
L 400.353208 344.511577 
L 406.895425 344.447983 
L 446.148731 344.829545 
L 452.690949 344.670561 
L 459.233166 344.638764 
L 465.775384 344.765951 
L 478.859819 344.638764 
L 498.486472 344.734154 
L 511.570907 344.638764 
L 524.655343 344.416186 
L 531.19756 344.670561 
L 550.824213 344.57517 
L 576.993084 344.511577 
L 583.535301 344.320796 
L 603.161954 344.606967 
L 622.788607 344.38439 
L 635.873042 344.702358 
L 642.41526 344.638764 
L 655.499695 344.861342 
L 668.584131 344.765951 
L 688.210783 344.765951 
L 694.753001 344.861342 
L 701.295219 344.702358 
L 740.548524 344.829545 
L 747.090742 344.797748 
L 753.63296 344.57517 
L 760.175177 344.797748 
L 773.259613 344.702358 
L 779.80183 344.765951 
L 786.344048 344.638764 
L 799.428483 344.829545 
L 805.970701 344.638764 
L 812.512918 344.606967 
L 819.055136 344.861342 
L 825.597354 344.797748 
L 832.139571 344.924935 
L 845.224007 344.765951 
L 851.766224 344.924935 
L 858.308442 344.765951 
L 871.392877 344.797748 
L 891.01953 344.734154 
L 897.561748 344.893138 
L 904.103965 344.734154 
L 910.646183 344.765951 
L 917.1884 344.511577 
L 923.730618 344.447983 
L 936.815053 344.57517 
L 943.357271 344.416186 
L 949.899489 342.762753 
L 949.899489 342.762753 
" clip-path="url(#p6364a82500)" style="fill: none; stroke: #f7a35c; stroke-linecap: square"/>
   </g>
   <g id="line2d_21">
    <path d="M 86.326761 344.543374 
L 92.868979 343.716657 
L 112.495632 342.540175 
L 119.03785 341.967833 
L 125.580067 341.777052 
L 132.122285 341.777052 
L 138.664502 341.459084 
L 145.20672 341.363694 
L 151.748938 341.586271 
L 158.291155 341.172913 
L 164.833373 341.3001 
L 171.375591 341.109319 
L 177.917808 341.172913 
L 184.460026 341.013929 
L 197.544461 341.045726 
L 210.628896 341.172913 
L 230.255549 341.141116 
L 236.797767 341.045726 
L 243.339985 341.20471 
L 256.42442 341.109319 
L 262.966637 340.982132 
L 269.508855 341.236506 
L 282.59329 341.077522 
L 289.135508 340.886742 
L 295.677726 341.013929 
L 302.219943 340.982132 
L 308.762161 341.077522 
L 328.388814 340.60057 
L 341.473249 340.886742 
L 348.015467 340.568774 
L 354.557684 340.664164 
L 380.726555 340.632367 
L 387.268772 340.823148 
L 393.81099 340.536977 
L 406.895425 340.568774 
L 413.437643 340.568774 
L 426.522078 340.982132 
L 459.233166 340.791351 
L 465.775384 341.013929 
L 485.402037 340.823148 
L 491.944254 341.045726 
L 505.02869 340.886742 
L 524.655343 340.60057 
L 531.19756 340.759554 
L 557.366431 340.823148 
L 563.908648 340.695961 
L 570.450866 340.727758 
L 583.535301 340.473383 
L 603.161954 340.791351 
L 616.246389 340.50518 
L 629.330825 340.60057 
L 635.873042 340.950335 
L 642.41526 340.854945 
L 655.499695 341.109319 
L 662.041913 340.950335 
L 688.210783 340.982132 
L 694.753001 341.172913 
L 701.295219 340.950335 
L 747.090742 341.109319 
L 753.63296 340.823148 
L 760.175177 341.045726 
L 766.717395 340.950335 
L 773.259613 340.982132 
L 779.80183 341.141116 
L 786.344048 340.982132 
L 792.886265 340.982132 
L 799.428483 341.141116 
L 805.970701 340.918538 
L 812.512918 340.823148 
L 819.055136 341.141116 
L 832.139571 341.363694 
L 838.681789 341.077522 
L 845.224007 340.982132 
L 851.766224 341.20471 
L 858.308442 341.109319 
L 877.935095 341.109319 
L 884.477312 341.077522 
L 897.561748 341.331897 
L 904.103965 341.141116 
L 910.646183 341.141116 
L 917.1884 340.918538 
L 936.815053 341.045726 
L 943.357271 340.823148 
L 949.899489 339.074324 
L 949.899489 339.074324 
" clip-path="url(#p6364a82500)" style="fill: none; stroke: #8085e9; stroke-linecap: square"/>
   </g>
   <g id="line2d_22">
    <path d="M 86.326761 346.514775 
L 92.868979 345.910636 
L 119.03785 344.543374 
L 132.122285 344.447983 
L 138.664502 344.193609 
L 151.748938 344.257202 
L 158.291155 343.939234 
L 164.833373 344.034625 
L 171.375591 343.939234 
L 177.917808 344.002828 
L 184.460026 343.78025 
L 217.171114 344.002828 
L 223.713332 343.907438 
L 230.255549 343.939234 
L 236.797767 343.843844 
L 249.882202 343.939234 
L 262.966637 343.78025 
L 269.508855 344.002828 
L 289.135508 343.716657 
L 308.762161 343.843844 
L 321.846596 343.621266 
L 328.388814 343.462282 
L 341.473249 343.716657 
L 348.015467 343.430486 
L 354.557684 343.557673 
L 367.642119 343.398689 
L 380.726555 343.430486 
L 387.268772 343.557673 
L 393.81099 343.335095 
L 400.353208 343.462282 
L 413.437643 343.398689 
L 426.522078 343.78025 
L 459.233166 343.58947 
L 465.775384 343.812047 
L 478.859819 343.621266 
L 498.486472 343.78025 
L 511.570907 343.525876 
L 524.655343 343.366892 
L 531.19756 343.557673 
L 570.450866 343.494079 
L 576.993084 343.430486 
L 583.535301 343.239705 
L 603.161954 343.525876 
L 616.246389 343.366892 
L 622.788607 343.303298 
L 635.873042 343.58947 
L 642.41526 343.557673 
L 655.499695 343.78025 
L 675.126348 343.653063 
L 694.753001 343.843844 
L 701.295219 343.653063 
L 727.464089 343.748454 
L 734.006307 343.68486 
L 747.090742 343.78025 
L 753.63296 343.557673 
L 760.175177 343.68486 
L 805.970701 343.58947 
L 812.512918 343.494079 
L 819.055136 343.875641 
L 825.597354 343.812047 
L 832.139571 343.939234 
L 838.681789 343.68486 
L 845.224007 343.621266 
L 851.766224 343.748454 
L 891.01953 343.78025 
L 897.561748 343.907438 
L 904.103965 343.68486 
L 910.646183 343.748454 
L 923.730618 343.462282 
L 936.815053 343.653063 
L 943.357271 343.398689 
L 949.899489 341.808849 
L 949.899489 341.808849 
" clip-path="url(#p6364a82500)" style="fill: none; stroke: #f15c80; stroke-linecap: square"/>
   </g>
   <g id="line2d_23">
    <path d="M 43.148125 353.2239 
L 993.078125 353.2239 
" clip-path="url(#p6364a82500)" style="fill: none; stroke: #dedede; stroke-width: 2; stroke-linecap: square"/>
   </g>
   <g id="text_16">
    <!-- Bismark: M-Bias -->
    <g transform="translate(454.100625 19.3575)scale(0.16 -0.16)">
     <defs>
      <path id="DejaVuSans-42" d="M 1259 2228 
L 1259 519 
L 2272 519 
Q 2781 519 3026 730 
Q 3272 941 3272 1375 
Q 3272 1813 3026 2020 
Q 2781 2228 2272 2228 
L 1259 2228 
z
M 1259 4147 
L 1259 2741 
L 2194 2741 
Q 2656 2741 2882 2914 
Q 3109 3088 3109 3444 
Q 3109 3797 2882 3972 
Q 2656 4147 2194 4147 
L 1259 4147 
z
M 628 4666 
L 2241 4666 
Q 2963 4666 3353 4366 
Q 3744 4066 3744 3513 
Q 3744 3084 3544 2831 
Q 3344 2578 2956 2516 
Q 3422 2416 3680 2098 
Q 3938 1781 3938 1306 
Q 3938 681 3513 340 
Q 3088 0 2303 0 
L 628 0 
L 628 4666 
z
" transform="scale(0.015625)"/>
      <path id="DejaVuSans-6d" d="M 3328 2828 
Q 3544 3216 3844 3400 
Q 4144 3584 4550 3584 
Q 5097 3584 5394 3201 
Q 5691 2819 5691 2113 
L 5691 0 
L 5113 0 
L 5113 2094 
Q 5113 2597 4934 2840 
Q 4756 3084 4391 3084 
Q 3944 3084 3684 2787 
Q 3425 2491 3425 1978 
L 3425 0 
L 2847 0 
L 2847 2094 
Q 2847 2600 2669 2842 
Q 2491 3084 2119 3084 
Q 1678 3084 1418 2786 
Q 1159 2488 1159 1978 
L 1159 0 
L 581 0 
L 581 3500 
L 1159 3500 
L 1159 2956 
Q 1356 3278 1631 3431 
Q 1906 3584 2284 3584 
Q 2666 3584 2933 3390 
Q 3200 3197 3328 2828 
z
" transform="scale(0.015625)"/>
      <path id="DejaVuSans-72" d="M 2631 2963 
Q 2534 3019 2420 3045 
Q 2306 3072 2169 3072 
Q 1681 3072 1420 2755 
Q 1159 2438 1159 1844 
L 1159 0 
L 581 0 
L 581 3500 
L 1159 3500 
L 1159 2956 
Q 1341 3275 1631 3429 
Q 1922 3584 2338 3584 
Q 2397 3584 2469 3576 
Q 2541 3569 2628 3553 
L 2631 2963 
z
" transform="scale(0.015625)"/>
      <path id="DejaVuSans-6b" d="M 581 4863 
L 1159 4863 
L 1159 1991 
L 2875 3500 
L 3609 3500 
L 1753 1863 
L 3688 0 
L 2938 0 
L 1159 1709 
L 1159 0 
L 581 0 
L 581 4863 
z
" transform="scale(0.015625)"/>
      <path id="DejaVuSans-3a" d="M 750 794 
L 1409 794 
L 1409 0 
L 750 0 
L 750 794 
z
M 750 3309 
L 1409 3309 
L 1409 2516 
L 750 2516 
L 750 3309 
z
" transform="scale(0.015625)"/>
      <path id="DejaVuSans-2d" d="M 313 2009 
L 1997 2009 
L 1997 1497 
L 313 1497 
L 313 2009 
z
" transform="scale(0.015625)"/>
     </defs>
     <use xlink:href="#DejaVuSans-42"/>
     <use xlink:href="#DejaVuSans-69" x="68.603516"/>
     <use xlink:href="#DejaVuSans-73" x="96.386719"/>
     <use xlink:href="#DejaVuSans-6d" x="148.486328"/>
     <use xlink:href="#DejaVuSans-61" x="245.898438"/>
     <use xlink:href="#DejaVuSans-72" x="307.177734"/>
     <use xlink:href="#DejaVuSans-6b" x="348.291016"/>
     <use xlink:href="#DejaVuSans-3a" x="406.201172"/>
     <use xlink:href="#DejaVuSans-20" x="439.892578"/>
     <use xlink:href="#DejaVuSans-4d" x="471.679688"/>
     <use xlink:href="#DejaVuSans-2d" x="557.958984"/>
     <use xlink:href="#DejaVuSans-42" x="590.417969"/>
     <use xlink:href="#DejaVuSans-69" x="659.021484"/>
     <use xlink:href="#DejaVuSans-61" x="686.804688"/>
     <use xlink:href="#DejaVuSans-73" x="748.083984"/>
    </g>
   </g>
  </g>
 </g>
 <defs>
  <clipPath id="p6364a82500">
   <rect x="43.148125" y="35.2559" width="949.93" height="317.968"/>
  </clipPath>
 </defs>
</svg>
