<?xml version="1.0" encoding="utf-8" standalone="no"?>
<!DOCTYPE svg PUBLIC "-//W3C//DTD SVG 1.1//EN"
  "http://www.w3.org/Graphics/SVG/1.1/DTD/svg11.dtd">
<svg xmlns:xlink="http://www.w3.org/1999/xlink" width="1000.278125pt" height="388.844525pt" viewBox="0 0 1000.278125 388.844525" xmlns="http://www.w3.org/2000/svg" version="1.1">
 <metadata>
  <rdf:RDF xmlns:dc="http://purl.org/dc/elements/1.1/" xmlns:cc="http://creativecommons.org/ns#" xmlns:rdf="http://www.w3.org/1999/02/22-rdf-syntax-ns#">
   <cc:Work>
    <dc:type rdf:resource="http://purl.org/dc/dcmitype/StillImage"/>
    <dc:date>2023-04-21T00:02:03.136130</dc:date>
    <dc:format>image/svg+xml</dc:format>
    <dc:creator>
     <cc:Agent>
      <dc:title>Matplotlib v3.5.3, https://matplotlib.org/</dc:title>
     </cc:Agent>
    </dc:creator>
   </cc:Work>
  </rdf:RDF>
 </metadata>
 <defs>
  <style type="text/css">*{stroke-linejoin: round; stroke-linecap: butt}</style>
 </defs>
 <g id="figure_1">
  <g id="axes_1">
   <g id="patch_1">
    <path d="M 43.148125 353.2239 
L 993.078125 353.2239 
L 993.078125 35.2559 
L 43.148125 35.2559 
z
" style="fill: #ffffff"/>
   </g>
   <g id="matplotlib.axis_1">
    <g id="xtick_1">
     <g id="text_1">
      <!-- 0 -->
      <g transform="translate(40.603125 366.30265)scale(0.08 -0.08)">
       <defs>
        <path id="DejaVuSans-30" d="M 2034 4250 
Q 1547 4250 1301 3770 
Q 1056 3291 1056 2328 
Q 1056 1369 1301 889 
Q 1547 409 2034 409 
Q 2525 409 2770 889 
Q 3016 1369 3016 2328 
Q 3016 3291 2770 3770 
Q 2525 4250 2034 4250 
z
M 2034 4750 
Q 2819 4750 3233 4129 
Q 3647 3509 3647 2328 
Q 3647 1150 3233 529 
Q 2819 -91 2034 -91 
Q 1250 -91 836 529 
Q 422 1150 422 2328 
Q 422 3509 836 4129 
Q 1250 4750 2034 4750 
z
" transform="scale(0.015625)"/>
       </defs>
       <use xlink:href="#DejaVuSans-30"/>
      </g>
     </g>
    </g>
    <g id="xtick_2">
     <g id="text_2">
      <!-- 2 -->
      <g transform="translate(213.31767 366.30265)scale(0.08 -0.08)">
       <defs>
        <path id="DejaVuSans-32" d="M 1228 531 
L 3431 531 
L 3431 0 
L 469 0 
L 469 531 
Q 828 903 1448 1529 
Q 2069 2156 2228 2338 
Q 2531 2678 2651 2914 
Q 2772 3150 2772 3378 
Q 2772 3750 2511 3984 
Q 2250 4219 1831 4219 
Q 1534 4219 1204 4116 
Q 875 4013 500 3803 
L 500 4441 
Q 881 4594 1212 4672 
Q 1544 4750 1819 4750 
Q 2544 4750 2975 4387 
Q 3406 4025 3406 3419 
Q 3406 3131 3298 2873 
Q 3191 2616 2906 2266 
Q 2828 2175 2409 1742 
Q 1991 1309 1228 531 
z
" transform="scale(0.015625)"/>
       </defs>
       <use xlink:href="#DejaVuSans-32"/>
      </g>
     </g>
    </g>
    <g id="xtick_3">
     <g id="text_3">
      <!-- 4 -->
      <g transform="translate(386.032216 366.30265)scale(0.08 -0.08)">
       <defs>
        <path id="DejaVuSans-34" d="M 2419 4116 
L 825 1625 
L 2419 1625 
L 2419 4116 
z
M 2253 4666 
L 3047 4666 
L 3047 1625 
L 3713 1625 
L 3713 1100 
L 3047 1100 
L 3047 0 
L 2419 0 
L 2419 1100 
L 313 1100 
L 313 1709 
L 2253 4666 
z
" transform="scale(0.015625)"/>
       </defs>
       <use xlink:href="#DejaVuSans-34"/>
      </g>
     </g>
    </g>
    <g id="xtick_4">
     <g id="text_4">
      <!-- 6 -->
      <g transform="translate(558.746761 366.30265)scale(0.08 -0.08)">
       <defs>
        <path id="DejaVuSans-36" d="M 2113 2584 
Q 1688 2584 1439 2293 
Q 1191 2003 1191 1497 
Q 1191 994 1439 701 
Q 1688 409 2113 409 
Q 2538 409 2786 701 
Q 3034 994 3034 1497 
Q 3034 2003 2786 2293 
Q 2538 2584 2113 2584 
z
M 3366 4563 
L 3366 3988 
Q 3128 4100 2886 4159 
Q 2644 4219 2406 4219 
Q 1781 4219 1451 3797 
Q 1122 3375 1075 2522 
Q 1259 2794 1537 2939 
Q 1816 3084 2150 3084 
Q 2853 3084 3261 2657 
Q 3669 2231 3669 1497 
Q 3669 778 3244 343 
Q 2819 -91 2113 -91 
Q 1303 -91 875 529 
Q 447 1150 447 2328 
Q 447 3434 972 4092 
Q 1497 4750 2381 4750 
Q 2619 4750 2861 4703 
Q 3103 4656 3366 4563 
z
" transform="scale(0.015625)"/>
       </defs>
       <use xlink:href="#DejaVuSans-36"/>
      </g>
     </g>
    </g>
    <g id="xtick_5">
     <g id="text_5">
      <!-- 8 -->
      <g transform="translate(731.461307 366.30265)scale(0.08 -0.08)">
       <defs>
        <path id="DejaVuSans-38" d="M 2034 2216 
Q 1584 2216 1326 1975 
Q 1069 1734 1069 1313 
Q 1069 891 1326 650 
Q 1584 409 2034 409 
Q 2484 409 2743 651 
Q 3003 894 3003 1313 
Q 3003 1734 2745 1975 
Q 2488 2216 2034 2216 
z
M 1403 2484 
Q 997 2584 770 2862 
Q 544 3141 544 3541 
Q 544 4100 942 4425 
Q 1341 4750 2034 4750 
Q 2731 4750 3128 4425 
Q 3525 4100 3525 3541 
Q 3525 3141 3298 2862 
Q 3072 2584 2669 2484 
Q 3125 2378 3379 2068 
Q 3634 1759 3634 1313 
Q 3634 634 3220 271 
Q 2806 -91 2034 -91 
Q 1263 -91 848 271 
Q 434 634 434 1313 
Q 434 1759 690 2068 
Q 947 2378 1403 2484 
z
M 1172 3481 
Q 1172 3119 1398 2916 
Q 1625 2713 2034 2713 
Q 2441 2713 2670 2916 
Q 2900 3119 2900 3481 
Q 2900 3844 2670 4047 
Q 2441 4250 2034 4250 
Q 1625 4250 1398 4047 
Q 1172 3844 1172 3481 
z
" transform="scale(0.015625)"/>
       </defs>
       <use xlink:href="#DejaVuSans-38"/>
      </g>
     </g>
    </g>
    <g id="xtick_6">
     <g id="text_6">
      <!-- 10 -->
      <g transform="translate(901.630852 366.30265)scale(0.08 -0.08)">
       <defs>
        <path id="DejaVuSans-31" d="M 794 531 
L 1825 531 
L 1825 4091 
L 703 3866 
L 703 4441 
L 1819 4666 
L 2450 4666 
L 2450 531 
L 3481 531 
L 3481 0 
L 794 0 
L 794 531 
z
" transform="scale(0.015625)"/>
       </defs>
       <use xlink:href="#DejaVuSans-31"/>
       <use xlink:href="#DejaVuSans-30" x="63.623047"/>
      </g>
     </g>
    </g>
    <g id="text_7">
     <!-- Coverage (X) -->
     <g transform="translate(485.240469 379.564837)scale(0.1 -0.1)">
      <defs>
       <path id="DejaVuSans-43" d="M 4122 4306 
L 4122 3641 
Q 3803 3938 3442 4084 
Q 3081 4231 2675 4231 
Q 1875 4231 1450 3742 
Q 1025 3253 1025 2328 
Q 1025 1406 1450 917 
Q 1875 428 2675 428 
Q 3081 428 3442 575 
Q 3803 722 4122 1019 
L 4122 359 
Q 3791 134 3420 21 
Q 3050 -91 2638 -91 
Q 1578 -91 968 557 
Q 359 1206 359 2328 
Q 359 3453 968 4101 
Q 1578 4750 2638 4750 
Q 3056 4750 3426 4639 
Q 3797 4528 4122 4306 
z
" transform="scale(0.015625)"/>
       <path id="DejaVuSans-6f" d="M 1959 3097 
Q 1497 3097 1228 2736 
Q 959 2375 959 1747 
Q 959 1119 1226 758 
Q 1494 397 1959 397 
Q 2419 397 2687 759 
Q 2956 1122 2956 1747 
Q 2956 2369 2687 2733 
Q 2419 3097 1959 3097 
z
M 1959 3584 
Q 2709 3584 3137 3096 
Q 3566 2609 3566 1747 
Q 3566 888 3137 398 
Q 2709 -91 1959 -91 
Q 1206 -91 779 398 
Q 353 888 353 1747 
Q 353 2609 779 3096 
Q 1206 3584 1959 3584 
z
" transform="scale(0.015625)"/>
       <path id="DejaVuSans-76" d="M 191 3500 
L 800 3500 
L 1894 563 
L 2988 3500 
L 3597 3500 
L 2284 0 
L 1503 0 
L 191 3500 
z
" transform="scale(0.015625)"/>
       <path id="DejaVuSans-65" d="M 3597 1894 
L 3597 1613 
L 953 1613 
Q 991 1019 1311 708 
Q 1631 397 2203 397 
Q 2534 397 2845 478 
Q 3156 559 3463 722 
L 3463 178 
Q 3153 47 2828 -22 
Q 2503 -91 2169 -91 
Q 1331 -91 842 396 
Q 353 884 353 1716 
Q 353 2575 817 3079 
Q 1281 3584 2069 3584 
Q 2775 3584 3186 3129 
Q 3597 2675 3597 1894 
z
M 3022 2063 
Q 3016 2534 2758 2815 
Q 2500 3097 2075 3097 
Q 1594 3097 1305 2825 
Q 1016 2553 972 2059 
L 3022 2063 
z
" transform="scale(0.015625)"/>
       <path id="DejaVuSans-72" d="M 2631 2963 
Q 2534 3019 2420 3045 
Q 2306 3072 2169 3072 
Q 1681 3072 1420 2755 
Q 1159 2438 1159 1844 
L 1159 0 
L 581 0 
L 581 3500 
L 1159 3500 
L 1159 2956 
Q 1341 3275 1631 3429 
Q 1922 3584 2338 3584 
Q 2397 3584 2469 3576 
Q 2541 3569 2628 3553 
L 2631 2963 
z
" transform="scale(0.015625)"/>
       <path id="DejaVuSans-61" d="M 2194 1759 
Q 1497 1759 1228 1600 
Q 959 1441 959 1056 
Q 959 750 1161 570 
Q 1363 391 1709 391 
Q 2188 391 2477 730 
Q 2766 1069 2766 1631 
L 2766 1759 
L 2194 1759 
z
M 3341 1997 
L 3341 0 
L 2766 0 
L 2766 531 
Q 2569 213 2275 61 
Q 1981 -91 1556 -91 
Q 1019 -91 701 211 
Q 384 513 384 1019 
Q 384 1609 779 1909 
Q 1175 2209 1959 2209 
L 2766 2209 
L 2766 2266 
Q 2766 2663 2505 2880 
Q 2244 3097 1772 3097 
Q 1472 3097 1187 3025 
Q 903 2953 641 2809 
L 641 3341 
Q 956 3463 1253 3523 
Q 1550 3584 1831 3584 
Q 2591 3584 2966 3190 
Q 3341 2797 3341 1997 
z
" transform="scale(0.015625)"/>
       <path id="DejaVuSans-67" d="M 2906 1791 
Q 2906 2416 2648 2759 
Q 2391 3103 1925 3103 
Q 1463 3103 1205 2759 
Q 947 2416 947 1791 
Q 947 1169 1205 825 
Q 1463 481 1925 481 
Q 2391 481 2648 825 
Q 2906 1169 2906 1791 
z
M 3481 434 
Q 3481 -459 3084 -895 
Q 2688 -1331 1869 -1331 
Q 1566 -1331 1297 -1286 
Q 1028 -1241 775 -1147 
L 775 -588 
Q 1028 -725 1275 -790 
Q 1522 -856 1778 -856 
Q 2344 -856 2625 -561 
Q 2906 -266 2906 331 
L 2906 616 
Q 2728 306 2450 153 
Q 2172 0 1784 0 
Q 1141 0 747 490 
Q 353 981 353 1791 
Q 353 2603 747 3093 
Q 1141 3584 1784 3584 
Q 2172 3584 2450 3431 
Q 2728 3278 2906 2969 
L 2906 3500 
L 3481 3500 
L 3481 434 
z
" transform="scale(0.015625)"/>
       <path id="DejaVuSans-20" transform="scale(0.015625)"/>
       <path id="DejaVuSans-28" d="M 1984 4856 
Q 1566 4138 1362 3434 
Q 1159 2731 1159 2009 
Q 1159 1288 1364 580 
Q 1569 -128 1984 -844 
L 1484 -844 
Q 1016 -109 783 600 
Q 550 1309 550 2009 
Q 550 2706 781 3412 
Q 1013 4119 1484 4856 
L 1984 4856 
z
" transform="scale(0.015625)"/>
       <path id="DejaVuSans-58" d="M 403 4666 
L 1081 4666 
L 2241 2931 
L 3406 4666 
L 4084 4666 
L 2584 2425 
L 4184 0 
L 3506 0 
L 2194 1984 
L 872 0 
L 191 0 
L 1856 2491 
L 403 4666 
z
" transform="scale(0.015625)"/>
       <path id="DejaVuSans-29" d="M 513 4856 
L 1013 4856 
Q 1481 4119 1714 3412 
Q 1947 2706 1947 2009 
Q 1947 1309 1714 600 
Q 1481 -109 1013 -844 
L 513 -844 
Q 928 -128 1133 580 
Q 1338 1288 1338 2009 
Q 1338 2731 1133 3434 
Q 928 4138 513 4856 
z
" transform="scale(0.015625)"/>
      </defs>
      <use xlink:href="#DejaVuSans-43"/>
      <use xlink:href="#DejaVuSans-6f" x="69.824219"/>
      <use xlink:href="#DejaVuSans-76" x="131.005859"/>
      <use xlink:href="#DejaVuSans-65" x="190.185547"/>
      <use xlink:href="#DejaVuSans-72" x="251.708984"/>
      <use xlink:href="#DejaVuSans-61" x="292.822266"/>
      <use xlink:href="#DejaVuSans-67" x="354.101562"/>
      <use xlink:href="#DejaVuSans-65" x="417.578125"/>
      <use xlink:href="#DejaVuSans-20" x="479.101562"/>
      <use xlink:href="#DejaVuSans-28" x="510.888672"/>
      <use xlink:href="#DejaVuSans-58" x="549.902344"/>
      <use xlink:href="#DejaVuSans-29" x="618.408203"/>
     </g>
    </g>
   </g>
   <g id="matplotlib.axis_2">
    <g id="ytick_1">
     <g id="line2d_1">
      <path d="M 43.148125 353.2239 
L 993.078125 353.2239 
" clip-path="url(#pf76c900603)" style="fill: none; stroke: #dedede; stroke-linecap: square"/>
     </g>
     <g id="text_8">
      <!-- 0 -->
      <g transform="translate(31.058125 356.263275)scale(0.08 -0.08)">
       <use xlink:href="#DejaVuSans-30"/>
      </g>
     </g>
    </g>
    <g id="ytick_2">
     <g id="line2d_2">
      <path d="M 43.148125 289.6303 
L 993.078125 289.6303 
" clip-path="url(#pf76c900603)" style="fill: none; stroke: #dedede; stroke-linecap: square"/>
     </g>
     <g id="text_9">
      <!-- 20 -->
      <g transform="translate(25.968125 292.669675)scale(0.08 -0.08)">
       <use xlink:href="#DejaVuSans-32"/>
       <use xlink:href="#DejaVuSans-30" x="63.623047"/>
      </g>
     </g>
    </g>
    <g id="ytick_3">
     <g id="line2d_3">
      <path d="M 43.148125 226.0367 
L 993.078125 226.0367 
" clip-path="url(#pf76c900603)" style="fill: none; stroke: #dedede; stroke-linecap: square"/>
     </g>
     <g id="text_10">
      <!-- 40 -->
      <g transform="translate(25.968125 229.076075)scale(0.08 -0.08)">
       <use xlink:href="#DejaVuSans-34"/>
       <use xlink:href="#DejaVuSans-30" x="63.623047"/>
      </g>
     </g>
    </g>
    <g id="ytick_4">
     <g id="line2d_4">
      <path d="M 43.148125 162.4431 
L 993.078125 162.4431 
" clip-path="url(#pf76c900603)" style="fill: none; stroke: #dedede; stroke-linecap: square"/>
     </g>
     <g id="text_11">
      <!-- 60 -->
      <g transform="translate(25.968125 165.482475)scale(0.08 -0.08)">
       <use xlink:href="#DejaVuSans-36"/>
       <use xlink:href="#DejaVuSans-30" x="63.623047"/>
      </g>
     </g>
    </g>
    <g id="ytick_5">
     <g id="line2d_5">
      <path d="M 43.148125 98.8495 
L 993.078125 98.8495 
" clip-path="url(#pf76c900603)" style="fill: none; stroke: #dedede; stroke-linecap: square"/>
     </g>
     <g id="text_12">
      <!-- 80 -->
      <g transform="translate(25.968125 101.888875)scale(0.08 -0.08)">
       <use xlink:href="#DejaVuSans-38"/>
       <use xlink:href="#DejaVuSans-30" x="63.623047"/>
      </g>
     </g>
    </g>
    <g id="ytick_6">
     <g id="line2d_6">
      <path d="M 43.148125 35.2559 
L 993.078125 35.2559 
" clip-path="url(#pf76c900603)" style="fill: none; stroke: #dedede; stroke-linecap: square"/>
     </g>
     <g id="text_13">
      <!-- 100 -->
      <g transform="translate(20.878125 38.295275)scale(0.08 -0.08)">
       <use xlink:href="#DejaVuSans-31"/>
       <use xlink:href="#DejaVuSans-30" x="63.623047"/>
       <use xlink:href="#DejaVuSans-30" x="127.246094"/>
      </g>
     </g>
    </g>
    <g id="text_14">
     <!-- Fraction of reference (%) -->
     <g transform="translate(14.798438 256.30865)rotate(-90)scale(0.1 -0.1)">
      <defs>
       <path id="DejaVuSans-46" d="M 628 4666 
L 3309 4666 
L 3309 4134 
L 1259 4134 
L 1259 2759 
L 3109 2759 
L 3109 2228 
L 1259 2228 
L 1259 0 
L 628 0 
L 628 4666 
z
" transform="scale(0.015625)"/>
       <path id="DejaVuSans-63" d="M 3122 3366 
L 3122 2828 
Q 2878 2963 2633 3030 
Q 2388 3097 2138 3097 
Q 1578 3097 1268 2742 
Q 959 2388 959 1747 
Q 959 1106 1268 751 
Q 1578 397 2138 397 
Q 2388 397 2633 464 
Q 2878 531 3122 666 
L 3122 134 
Q 2881 22 2623 -34 
Q 2366 -91 2075 -91 
Q 1284 -91 818 406 
Q 353 903 353 1747 
Q 353 2603 823 3093 
Q 1294 3584 2113 3584 
Q 2378 3584 2631 3529 
Q 2884 3475 3122 3366 
z
" transform="scale(0.015625)"/>
       <path id="DejaVuSans-74" d="M 1172 4494 
L 1172 3500 
L 2356 3500 
L 2356 3053 
L 1172 3053 
L 1172 1153 
Q 1172 725 1289 603 
Q 1406 481 1766 481 
L 2356 481 
L 2356 0 
L 1766 0 
Q 1100 0 847 248 
Q 594 497 594 1153 
L 594 3053 
L 172 3053 
L 172 3500 
L 594 3500 
L 594 4494 
L 1172 4494 
z
" transform="scale(0.015625)"/>
       <path id="DejaVuSans-69" d="M 603 3500 
L 1178 3500 
L 1178 0 
L 603 0 
L 603 3500 
z
M 603 4863 
L 1178 4863 
L 1178 4134 
L 603 4134 
L 603 4863 
z
" transform="scale(0.015625)"/>
       <path id="DejaVuSans-6e" d="M 3513 2113 
L 3513 0 
L 2938 0 
L 2938 2094 
Q 2938 2591 2744 2837 
Q 2550 3084 2163 3084 
Q 1697 3084 1428 2787 
Q 1159 2491 1159 1978 
L 1159 0 
L 581 0 
L 581 3500 
L 1159 3500 
L 1159 2956 
Q 1366 3272 1645 3428 
Q 1925 3584 2291 3584 
Q 2894 3584 3203 3211 
Q 3513 2838 3513 2113 
z
" transform="scale(0.015625)"/>
       <path id="DejaVuSans-66" d="M 2375 4863 
L 2375 4384 
L 1825 4384 
Q 1516 4384 1395 4259 
Q 1275 4134 1275 3809 
L 1275 3500 
L 2222 3500 
L 2222 3053 
L 1275 3053 
L 1275 0 
L 697 0 
L 697 3053 
L 147 3053 
L 147 3500 
L 697 3500 
L 697 3744 
Q 697 4328 969 4595 
Q 1241 4863 1831 4863 
L 2375 4863 
z
" transform="scale(0.015625)"/>
       <path id="DejaVuSans-25" d="M 4653 2053 
Q 4381 2053 4226 1822 
Q 4072 1591 4072 1178 
Q 4072 772 4226 539 
Q 4381 306 4653 306 
Q 4919 306 5073 539 
Q 5228 772 5228 1178 
Q 5228 1588 5073 1820 
Q 4919 2053 4653 2053 
z
M 4653 2450 
Q 5147 2450 5437 2106 
Q 5728 1763 5728 1178 
Q 5728 594 5436 251 
Q 5144 -91 4653 -91 
Q 4153 -91 3862 251 
Q 3572 594 3572 1178 
Q 3572 1766 3864 2108 
Q 4156 2450 4653 2450 
z
M 1428 4353 
Q 1159 4353 1004 4120 
Q 850 3888 850 3481 
Q 850 3069 1003 2837 
Q 1156 2606 1428 2606 
Q 1700 2606 1854 2837 
Q 2009 3069 2009 3481 
Q 2009 3884 1853 4118 
Q 1697 4353 1428 4353 
z
M 4250 4750 
L 4750 4750 
L 1831 -91 
L 1331 -91 
L 4250 4750 
z
M 1428 4750 
Q 1922 4750 2215 4408 
Q 2509 4066 2509 3481 
Q 2509 2891 2217 2550 
Q 1925 2209 1428 2209 
Q 931 2209 642 2551 
Q 353 2894 353 3481 
Q 353 4063 643 4406 
Q 934 4750 1428 4750 
z
" transform="scale(0.015625)"/>
      </defs>
      <use xlink:href="#DejaVuSans-46"/>
      <use xlink:href="#DejaVuSans-72" x="50.269531"/>
      <use xlink:href="#DejaVuSans-61" x="91.382812"/>
      <use xlink:href="#DejaVuSans-63" x="152.662109"/>
      <use xlink:href="#DejaVuSans-74" x="207.642578"/>
      <use xlink:href="#DejaVuSans-69" x="246.851562"/>
      <use xlink:href="#DejaVuSans-6f" x="274.634766"/>
      <use xlink:href="#DejaVuSans-6e" x="335.816406"/>
      <use xlink:href="#DejaVuSans-20" x="399.195312"/>
      <use xlink:href="#DejaVuSans-6f" x="430.982422"/>
      <use xlink:href="#DejaVuSans-66" x="492.164062"/>
      <use xlink:href="#DejaVuSans-20" x="527.369141"/>
      <use xlink:href="#DejaVuSans-72" x="559.15625"/>
      <use xlink:href="#DejaVuSans-65" x="598.019531"/>
      <use xlink:href="#DejaVuSans-66" x="659.542969"/>
      <use xlink:href="#DejaVuSans-65" x="694.748047"/>
      <use xlink:href="#DejaVuSans-72" x="756.271484"/>
      <use xlink:href="#DejaVuSans-65" x="795.134766"/>
      <use xlink:href="#DejaVuSans-6e" x="856.658203"/>
      <use xlink:href="#DejaVuSans-63" x="920.037109"/>
      <use xlink:href="#DejaVuSans-65" x="975.017578"/>
      <use xlink:href="#DejaVuSans-20" x="1036.541016"/>
      <use xlink:href="#DejaVuSans-28" x="1068.328125"/>
      <use xlink:href="#DejaVuSans-25" x="1107.341797"/>
      <use xlink:href="#DejaVuSans-29" x="1202.361328"/>
     </g>
    </g>
   </g>
   <g id="line2d_7">
    <path d="M 43.148125 35.2559 
L 129.505398 173.57738 
L 215.86267 222.6018 
L 302.219943 272.561707 
L 388.577216 300.113849 
L 474.934489 321.175589 
L 561.291761 333.289276 
L 647.649034 341.46411 
L 734.006307 346.168001 
L 820.36358 349.124377 
L 906.720852 350.816427 
L 993.078125 351.832891 
" clip-path="url(#pf76c900603)" style="fill: none; stroke: #7cb5ec; stroke-linecap: square"/>
   </g>
   <g id="line2d_8">
    <path d="M 43.148125 35.2559 
L 129.505398 152.894408 
L 215.86267 209.773986 
L 302.219943 260.761598 
L 388.577216 293.467394 
L 474.934489 316.61373 
L 561.291761 330.897202 
L 647.649034 340.022936 
L 734.006307 345.468168 
L 820.36358 348.753612 
L 906.720852 350.6495 
L 993.078125 351.74971 
" clip-path="url(#pf76c900603)" style="fill: none; stroke: #434348; stroke-linecap: square"/>
   </g>
   <g id="line2d_9">
    <path d="M 43.148125 35.2559 
L 129.505398 239.083165 
L 215.86267 294.916101 
L 302.219943 331.535689 
L 388.577216 343.872048 
L 474.934489 349.840877 
L 561.291761 351.861269 
L 647.649034 352.721278 
L 734.006307 353.01293 
L 820.36358 353.1304 
L 906.720852 353.172508 
L 993.078125 353.190376 
" clip-path="url(#pf76c900603)" style="fill: none; stroke: #90ed7d; stroke-linecap: square"/>
   </g>
   <g id="line2d_10">
    <path d="M 43.148125 35.2559 
L 129.505398 315.375457 
L 215.86267 337.058365 
L 302.219943 350.925508 
L 388.577216 352.440628 
L 474.934489 353.092566 
L 561.291761 353.174898 
L 647.649034 353.205682 
L 734.006307 353.21084 
L 820.36358 353.213213 
L 906.720852 353.214239 
L 993.078125 353.215064 
" clip-path="url(#pf76c900603)" style="fill: none; stroke: #f7a35c; stroke-linecap: square"/>
   </g>
   <g id="line2d_11">
    <path d="M 43.148125 35.2559 
L 129.505398 306.0894 
L 215.86267 330.704819 
L 302.219943 349.048885 
L 388.577216 351.581122 
L 474.934489 352.883647 
L 561.291761 353.093625 
L 647.649034 353.184262 
L 734.006307 353.201897 
L 820.36358 353.209345 
L 906.720852 353.21158 
L 993.078125 353.212991 
" clip-path="url(#pf76c900603)" style="fill: none; stroke: #8085e9; stroke-linecap: square"/>
   </g>
   <g id="line2d_12">
    <path d="M 43.148125 35.2559 
L 129.505398 244.133586 
L 215.86267 302.782374 
L 302.219943 335.327723 
L 388.577216 346.20808 
L 474.934489 350.812818 
L 561.291761 352.329738 
L 647.649034 352.906804 
L 734.006307 353.09586 
L 820.36358 353.164731 
L 906.720852 353.188626 
L 993.078125 353.198564 
" clip-path="url(#pf76c900603)" style="fill: none; stroke: #f15c80; stroke-linecap: square"/>
   </g>
   <g id="line2d_13">
    <path d="M 43.148125 35.2559 
L 129.505398 266.576869 
L 215.86267 312.893617 
L 302.219943 341.040048 
L 388.577216 348.471526 
L 474.934489 351.753509 
L 561.291761 352.672058 
L 647.649034 353.030998 
L 734.006307 353.13793 
L 820.36358 353.179406 
L 906.720852 353.194054 
L 993.078125 353.200795 
" clip-path="url(#pf76c900603)" style="fill: none; stroke: #e4d354; stroke-linecap: square"/>
   </g>
   <g id="line2d_14">
    <path d="M 43.148125 35.2559 
L 129.505398 242.55983 
L 215.86267 291.19651 
L 302.219943 329.333702 
L 388.577216 341.802944 
L 474.934489 348.85696 
L 561.291761 351.292538 
L 647.649034 352.474443 
L 734.006307 352.894053 
L 820.36358 353.082977 
L 906.720852 353.151049 
L 993.078125 353.181584 
" clip-path="url(#pf76c900603)" style="fill: none; stroke: #2b908f; stroke-linecap: square"/>
   </g>
   <g id="line2d_15">
    <path d="M 43.148125 35.2559 
L 129.505398 257.393399 
L 215.86267 298.707962 
L 302.219943 333.755116 
L 388.577216 343.898724 
L 474.934489 349.80207 
L 561.291761 351.714437 
L 647.649034 352.65254 
L 734.006307 352.970584 
L 820.36358 353.113742 
L 906.720852 353.165435 
L 993.078125 353.188365 
" clip-path="url(#pf76c900603)" style="fill: none; stroke: #f45b5b; stroke-linecap: square"/>
   </g>
   <g id="line2d_16">
    <path d="M 43.148125 35.2559 
L 129.505398 234.077224 
L 215.86267 291.115467 
L 302.219943 328.452033 
L 388.577216 342.181384 
L 474.934489 348.946388 
L 561.291761 351.449567 
L 647.649034 352.533037 
L 734.006307 352.933027 
L 820.36358 353.096691 
L 906.720852 353.157668 
L 993.078125 353.183571 
" clip-path="url(#pf76c900603)" style="fill: none; stroke: #91e8e1; stroke-linecap: square"/>
   </g>
   <g id="line2d_17">
    <path d="M 43.148125 35.2559 
L 129.505398 244.427787 
L 215.86267 291.114406 
L 302.219943 329.357349 
L 388.577216 341.625733 
L 474.934489 348.773908 
L 561.291761 351.229556 
L 647.649034 352.447314 
L 734.006307 352.877985 
L 820.36358 353.075818 
L 906.720852 353.148718 
L 993.078125 353.180843 
" clip-path="url(#pf76c900603)" style="fill: none; stroke: #7cb5ec; stroke-linecap: square"/>
   </g>
   <g id="line2d_18">
    <path d="M 43.148125 35.2559 
L 129.505398 131.869567 
L 215.86267 183.12509 
L 302.219943 233.369454 
L 388.577216 269.488789 
L 474.934489 297.417223 
L 561.291761 316.424574 
L 647.649034 329.649545 
L 734.006307 338.257555 
L 820.36358 343.903565 
L 906.720852 347.455867 
L 993.078125 349.692582 
" clip-path="url(#pf76c900603)" style="fill: none; stroke: #434348; stroke-linecap: square"/>
   </g>
   <g id="line2d_19">
    <path d="M 43.148125 35.2559 
L 129.505398 157.313665 
L 215.86267 216.459149 
L 302.219943 268.976246 
L 388.577216 301.012779 
L 474.934489 322.960286 
L 561.291761 335.694514 
L 647.649034 343.474145 
L 734.006307 347.808465 
L 820.36358 350.289275 
L 906.720852 351.625794 
L 993.078125 352.35751 
" clip-path="url(#pf76c900603)" style="fill: none; stroke: #90ed7d; stroke-linecap: square"/>
   </g>
   <g id="line2d_20">
    <path d="M 43.148125 35.2559 
L 129.505398 141.598336 
L 215.86267 198.023306 
L 302.219943 249.690267 
L 388.577216 284.837672 
L 474.934489 310.245512 
L 561.291761 326.537393 
L 647.649034 337.150938 
L 734.006307 343.631319 
L 820.36358 347.609559 
L 906.720852 349.951622 
L 993.078125 351.335151 
" clip-path="url(#pf76c900603)" style="fill: none; stroke: #f7a35c; stroke-linecap: square"/>
   </g>
   <g id="line2d_21">
    <path d="M 43.148125 35.2559 
L 129.505398 125.297939 
L 215.86267 176.785859 
L 302.219943 225.813494 
L 388.577216 262.902667 
L 474.934489 291.575436 
L 561.291761 311.814779 
L 647.649034 326.07393 
L 734.006307 335.644321 
L 820.36358 342.019228 
L 906.720852 346.149742 
L 993.078125 348.800993 
" clip-path="url(#pf76c900603)" style="fill: none; stroke: #8085e9; stroke-linecap: square"/>
   </g>
   <g id="line2d_22">
    <path d="M 43.148125 35.2559 
L 129.505398 126.494967 
L 215.86267 177.461017 
L 302.219943 226.486199 
L 388.577216 263.41317 
L 474.934489 292.049733 
L 561.291761 312.243261 
L 647.649034 326.456976 
L 734.006307 335.987783 
L 820.36358 342.315853 
L 906.720852 346.392325 
L 993.078125 348.995034 
" clip-path="url(#pf76c900603)" style="fill: none; stroke: #f15c80; stroke-linecap: square"/>
   </g>
   <g id="line2d_23">
    <path d="M 43.148125 35.2559 
L 129.505398 246.928363 
L 215.86267 298.467302 
L 302.219943 333.955727 
L 388.577216 344.937177 
L 474.934489 350.364402 
L 561.291761 352.086174 
L 647.649034 352.818335 
L 734.006307 353.054436 
L 820.36358 353.149722 
L 906.720852 353.181857 
L 993.078125 353.195371 
" clip-path="url(#pf76c900603)" style="fill: none; stroke: #e4d354; stroke-linecap: square"/>
   </g>
   <g id="line2d_24">
    <path d="M 43.148125 353.2239 
L 993.078125 353.2239 
" clip-path="url(#pf76c900603)" style="fill: none; stroke: #dedede; stroke-width: 2; stroke-linecap: square"/>
   </g>
   <g id="text_15">
    <!-- Qualimap BamQC: Genome fraction covered by at least X reads -->
    <g transform="translate(262.523125 19.3575)scale(0.16 -0.16)">
     <defs>
      <path id="DejaVuSans-51" d="M 2522 4238 
Q 1834 4238 1429 3725 
Q 1025 3213 1025 2328 
Q 1025 1447 1429 934 
Q 1834 422 2522 422 
Q 3209 422 3611 934 
Q 4013 1447 4013 2328 
Q 4013 3213 3611 3725 
Q 3209 4238 2522 4238 
z
M 3406 84 
L 4238 -825 
L 3475 -825 
L 2784 -78 
Q 2681 -84 2626 -87 
Q 2572 -91 2522 -91 
Q 1538 -91 948 567 
Q 359 1225 359 2328 
Q 359 3434 948 4092 
Q 1538 4750 2522 4750 
Q 3503 4750 4090 4092 
Q 4678 3434 4678 2328 
Q 4678 1516 4351 937 
Q 4025 359 3406 84 
z
" transform="scale(0.015625)"/>
      <path id="DejaVuSans-75" d="M 544 1381 
L 544 3500 
L 1119 3500 
L 1119 1403 
Q 1119 906 1312 657 
Q 1506 409 1894 409 
Q 2359 409 2629 706 
Q 2900 1003 2900 1516 
L 2900 3500 
L 3475 3500 
L 3475 0 
L 2900 0 
L 2900 538 
Q 2691 219 2414 64 
Q 2138 -91 1772 -91 
Q 1169 -91 856 284 
Q 544 659 544 1381 
z
M 1991 3584 
L 1991 3584 
z
" transform="scale(0.015625)"/>
      <path id="DejaVuSans-6c" d="M 603 4863 
L 1178 4863 
L 1178 0 
L 603 0 
L 603 4863 
z
" transform="scale(0.015625)"/>
      <path id="DejaVuSans-6d" d="M 3328 2828 
Q 3544 3216 3844 3400 
Q 4144 3584 4550 3584 
Q 5097 3584 5394 3201 
Q 5691 2819 5691 2113 
L 5691 0 
L 5113 0 
L 5113 2094 
Q 5113 2597 4934 2840 
Q 4756 3084 4391 3084 
Q 3944 3084 3684 2787 
Q 3425 2491 3425 1978 
L 3425 0 
L 2847 0 
L 2847 2094 
Q 2847 2600 2669 2842 
Q 2491 3084 2119 3084 
Q 1678 3084 1418 2786 
Q 1159 2488 1159 1978 
L 1159 0 
L 581 0 
L 581 3500 
L 1159 3500 
L 1159 2956 
Q 1356 3278 1631 3431 
Q 1906 3584 2284 3584 
Q 2666 3584 2933 3390 
Q 3200 3197 3328 2828 
z
" transform="scale(0.015625)"/>
      <path id="DejaVuSans-70" d="M 1159 525 
L 1159 -1331 
L 581 -1331 
L 581 3500 
L 1159 3500 
L 1159 2969 
Q 1341 3281 1617 3432 
Q 1894 3584 2278 3584 
Q 2916 3584 3314 3078 
Q 3713 2572 3713 1747 
Q 3713 922 3314 415 
Q 2916 -91 2278 -91 
Q 1894 -91 1617 61 
Q 1341 213 1159 525 
z
M 3116 1747 
Q 3116 2381 2855 2742 
Q 2594 3103 2138 3103 
Q 1681 3103 1420 2742 
Q 1159 2381 1159 1747 
Q 1159 1113 1420 752 
Q 1681 391 2138 391 
Q 2594 391 2855 752 
Q 3116 1113 3116 1747 
z
" transform="scale(0.015625)"/>
      <path id="DejaVuSans-42" d="M 1259 2228 
L 1259 519 
L 2272 519 
Q 2781 519 3026 730 
Q 3272 941 3272 1375 
Q 3272 1813 3026 2020 
Q 2781 2228 2272 2228 
L 1259 2228 
z
M 1259 4147 
L 1259 2741 
L 2194 2741 
Q 2656 2741 2882 2914 
Q 3109 3088 3109 3444 
Q 3109 3797 2882 3972 
Q 2656 4147 2194 4147 
L 1259 4147 
z
M 628 4666 
L 2241 4666 
Q 2963 4666 3353 4366 
Q 3744 4066 3744 3513 
Q 3744 3084 3544 2831 
Q 3344 2578 2956 2516 
Q 3422 2416 3680 2098 
Q 3938 1781 3938 1306 
Q 3938 681 3513 340 
Q 3088 0 2303 0 
L 628 0 
L 628 4666 
z
" transform="scale(0.015625)"/>
      <path id="DejaVuSans-3a" d="M 750 794 
L 1409 794 
L 1409 0 
L 750 0 
L 750 794 
z
M 750 3309 
L 1409 3309 
L 1409 2516 
L 750 2516 
L 750 3309 
z
" transform="scale(0.015625)"/>
      <path id="DejaVuSans-47" d="M 3809 666 
L 3809 1919 
L 2778 1919 
L 2778 2438 
L 4434 2438 
L 4434 434 
Q 4069 175 3628 42 
Q 3188 -91 2688 -91 
Q 1594 -91 976 548 
Q 359 1188 359 2328 
Q 359 3472 976 4111 
Q 1594 4750 2688 4750 
Q 3144 4750 3555 4637 
Q 3966 4525 4313 4306 
L 4313 3634 
Q 3963 3931 3569 4081 
Q 3175 4231 2741 4231 
Q 1884 4231 1454 3753 
Q 1025 3275 1025 2328 
Q 1025 1384 1454 906 
Q 1884 428 2741 428 
Q 3075 428 3337 486 
Q 3600 544 3809 666 
z
" transform="scale(0.015625)"/>
      <path id="DejaVuSans-64" d="M 2906 2969 
L 2906 4863 
L 3481 4863 
L 3481 0 
L 2906 0 
L 2906 525 
Q 2725 213 2448 61 
Q 2172 -91 1784 -91 
Q 1150 -91 751 415 
Q 353 922 353 1747 
Q 353 2572 751 3078 
Q 1150 3584 1784 3584 
Q 2172 3584 2448 3432 
Q 2725 3281 2906 2969 
z
M 947 1747 
Q 947 1113 1208 752 
Q 1469 391 1925 391 
Q 2381 391 2643 752 
Q 2906 1113 2906 1747 
Q 2906 2381 2643 2742 
Q 2381 3103 1925 3103 
Q 1469 3103 1208 2742 
Q 947 2381 947 1747 
z
" transform="scale(0.015625)"/>
      <path id="DejaVuSans-62" d="M 3116 1747 
Q 3116 2381 2855 2742 
Q 2594 3103 2138 3103 
Q 1681 3103 1420 2742 
Q 1159 2381 1159 1747 
Q 1159 1113 1420 752 
Q 1681 391 2138 391 
Q 2594 391 2855 752 
Q 3116 1113 3116 1747 
z
M 1159 2969 
Q 1341 3281 1617 3432 
Q 1894 3584 2278 3584 
Q 2916 3584 3314 3078 
Q 3713 2572 3713 1747 
Q 3713 922 3314 415 
Q 2916 -91 2278 -91 
Q 1894 -91 1617 61 
Q 1341 213 1159 525 
L 1159 0 
L 581 0 
L 581 4863 
L 1159 4863 
L 1159 2969 
z
" transform="scale(0.015625)"/>
      <path id="DejaVuSans-79" d="M 2059 -325 
Q 1816 -950 1584 -1140 
Q 1353 -1331 966 -1331 
L 506 -1331 
L 506 -850 
L 844 -850 
Q 1081 -850 1212 -737 
Q 1344 -625 1503 -206 
L 1606 56 
L 191 3500 
L 800 3500 
L 1894 763 
L 2988 3500 
L 3597 3500 
L 2059 -325 
z
" transform="scale(0.015625)"/>
      <path id="DejaVuSans-73" d="M 2834 3397 
L 2834 2853 
Q 2591 2978 2328 3040 
Q 2066 3103 1784 3103 
Q 1356 3103 1142 2972 
Q 928 2841 928 2578 
Q 928 2378 1081 2264 
Q 1234 2150 1697 2047 
L 1894 2003 
Q 2506 1872 2764 1633 
Q 3022 1394 3022 966 
Q 3022 478 2636 193 
Q 2250 -91 1575 -91 
Q 1294 -91 989 -36 
Q 684 19 347 128 
L 347 722 
Q 666 556 975 473 
Q 1284 391 1588 391 
Q 1994 391 2212 530 
Q 2431 669 2431 922 
Q 2431 1156 2273 1281 
Q 2116 1406 1581 1522 
L 1381 1569 
Q 847 1681 609 1914 
Q 372 2147 372 2553 
Q 372 3047 722 3315 
Q 1072 3584 1716 3584 
Q 2034 3584 2315 3537 
Q 2597 3491 2834 3397 
z
" transform="scale(0.015625)"/>
     </defs>
     <use xlink:href="#DejaVuSans-51"/>
     <use xlink:href="#DejaVuSans-75" x="78.710938"/>
     <use xlink:href="#DejaVuSans-61" x="142.089844"/>
     <use xlink:href="#DejaVuSans-6c" x="203.369141"/>
     <use xlink:href="#DejaVuSans-69" x="231.152344"/>
     <use xlink:href="#DejaVuSans-6d" x="258.935547"/>
     <use xlink:href="#DejaVuSans-61" x="356.347656"/>
     <use xlink:href="#DejaVuSans-70" x="417.626953"/>
     <use xlink:href="#DejaVuSans-20" x="481.103516"/>
     <use xlink:href="#DejaVuSans-42" x="512.890625"/>
     <use xlink:href="#DejaVuSans-61" x="581.494141"/>
     <use xlink:href="#DejaVuSans-6d" x="642.773438"/>
     <use xlink:href="#DejaVuSans-51" x="740.185547"/>
     <use xlink:href="#DejaVuSans-43" x="818.896484"/>
     <use xlink:href="#DejaVuSans-3a" x="888.720703"/>
     <use xlink:href="#DejaVuSans-20" x="922.412109"/>
     <use xlink:href="#DejaVuSans-47" x="954.199219"/>
     <use xlink:href="#DejaVuSans-65" x="1031.689453"/>
     <use xlink:href="#DejaVuSans-6e" x="1093.212891"/>
     <use xlink:href="#DejaVuSans-6f" x="1156.591797"/>
     <use xlink:href="#DejaVuSans-6d" x="1217.773438"/>
     <use xlink:href="#DejaVuSans-65" x="1315.185547"/>
     <use xlink:href="#DejaVuSans-20" x="1376.708984"/>
     <use xlink:href="#DejaVuSans-66" x="1408.496094"/>
     <use xlink:href="#DejaVuSans-72" x="1443.701172"/>
     <use xlink:href="#DejaVuSans-61" x="1484.814453"/>
     <use xlink:href="#DejaVuSans-63" x="1546.09375"/>
     <use xlink:href="#DejaVuSans-74" x="1601.074219"/>
     <use xlink:href="#DejaVuSans-69" x="1640.283203"/>
     <use xlink:href="#DejaVuSans-6f" x="1668.066406"/>
     <use xlink:href="#DejaVuSans-6e" x="1729.248047"/>
     <use xlink:href="#DejaVuSans-20" x="1792.626953"/>
     <use xlink:href="#DejaVuSans-63" x="1824.414062"/>
     <use xlink:href="#DejaVuSans-6f" x="1879.394531"/>
     <use xlink:href="#DejaVuSans-76" x="1940.576172"/>
     <use xlink:href="#DejaVuSans-65" x="1999.755859"/>
     <use xlink:href="#DejaVuSans-72" x="2061.279297"/>
     <use xlink:href="#DejaVuSans-65" x="2100.142578"/>
     <use xlink:href="#DejaVuSans-64" x="2161.666016"/>
     <use xlink:href="#DejaVuSans-20" x="2225.142578"/>
     <use xlink:href="#DejaVuSans-62" x="2256.929688"/>
     <use xlink:href="#DejaVuSans-79" x="2320.40625"/>
     <use xlink:href="#DejaVuSans-20" x="2379.585938"/>
     <use xlink:href="#DejaVuSans-61" x="2411.373047"/>
     <use xlink:href="#DejaVuSans-74" x="2472.652344"/>
     <use xlink:href="#DejaVuSans-20" x="2511.861328"/>
     <use xlink:href="#DejaVuSans-6c" x="2543.648438"/>
     <use xlink:href="#DejaVuSans-65" x="2571.431641"/>
     <use xlink:href="#DejaVuSans-61" x="2632.955078"/>
     <use xlink:href="#DejaVuSans-73" x="2694.234375"/>
     <use xlink:href="#DejaVuSans-74" x="2746.333984"/>
     <use xlink:href="#DejaVuSans-20" x="2785.542969"/>
     <use xlink:href="#DejaVuSans-58" x="2817.330078"/>
     <use xlink:href="#DejaVuSans-20" x="2885.835938"/>
     <use xlink:href="#DejaVuSans-72" x="2917.623047"/>
     <use xlink:href="#DejaVuSans-65" x="2956.486328"/>
     <use xlink:href="#DejaVuSans-61" x="3018.009766"/>
     <use xlink:href="#DejaVuSans-64" x="3079.289062"/>
     <use xlink:href="#DejaVuSans-73" x="3142.765625"/>
    </g>
   </g>
  </g>
 </g>
 <defs>
  <clipPath id="pf76c900603">
   <rect x="43.148125" y="35.2559" width="949.93" height="317.968"/>
  </clipPath>
 </defs>
</svg>
