<?xml version="1.0" encoding="utf-8" standalone="no"?>
<!DOCTYPE svg PUBLIC "-//W3C//DTD SVG 1.1//EN"
  "http://www.w3.org/Graphics/SVG/1.1/DTD/svg11.dtd">
<svg xmlns:xlink="http://www.w3.org/1999/xlink" width="1000.240625pt" height="388.844525pt" viewBox="0 0 1000.240625 388.844525" xmlns="http://www.w3.org/2000/svg" version="1.1">
 <metadata>
  <rdf:RDF xmlns:dc="http://purl.org/dc/elements/1.1/" xmlns:cc="http://creativecommons.org/ns#" xmlns:rdf="http://www.w3.org/1999/02/22-rdf-syntax-ns#">
   <cc:Work>
    <dc:type rdf:resource="http://purl.org/dc/dcmitype/StillImage"/>
    <dc:date>2023-04-21T00:02:08.321084</dc:date>
    <dc:format>image/svg+xml</dc:format>
    <dc:creator>
     <cc:Agent>
      <dc:title>Matplotlib v3.5.3, https://matplotlib.org/</dc:title>
     </cc:Agent>
    </dc:creator>
   </cc:Work>
  </rdf:RDF>
 </metadata>
 <defs>
  <style type="text/css">*{stroke-linejoin: round; stroke-linecap: butt}</style>
 </defs>
 <g id="figure_1">
  <g id="axes_1">
   <g id="patch_1">
    <path d="M 45.690625 353.2239 
L 985.405625 353.2239 
L 985.405625 35.2559 
L 45.690625 35.2559 
z
" style="fill: #ffffff"/>
   </g>
   <g id="matplotlib.axis_1">
    <g id="xtick_1">
     <g id="text_1">
      <!-- 0 -->
      <g transform="translate(43.145625 366.30265)scale(0.08 -0.08)">
       <defs>
        <path id="DejaVuSans-30" d="M 2034 4250 
Q 1547 4250 1301 3770 
Q 1056 3291 1056 2328 
Q 1056 1369 1301 889 
Q 1547 409 2034 409 
Q 2525 409 2770 889 
Q 3016 1369 3016 2328 
Q 3016 3291 2770 3770 
Q 2525 4250 2034 4250 
z
M 2034 4750 
Q 2819 4750 3233 4129 
Q 3647 3509 3647 2328 
Q 3647 1150 3233 529 
Q 2819 -91 2034 -91 
Q 1250 -91 836 529 
Q 422 1150 422 2328 
Q 422 3509 836 4129 
Q 1250 4750 2034 4750 
z
" transform="scale(0.015625)"/>
       </defs>
       <use xlink:href="#DejaVuSans-30"/>
      </g>
     </g>
    </g>
    <g id="xtick_2">
     <g id="text_2">
      <!-- 20 -->
      <g transform="translate(228.543625 366.30265)scale(0.08 -0.08)">
       <defs>
        <path id="DejaVuSans-32" d="M 1228 531 
L 3431 531 
L 3431 0 
L 469 0 
L 469 531 
Q 828 903 1448 1529 
Q 2069 2156 2228 2338 
Q 2531 2678 2651 2914 
Q 2772 3150 2772 3378 
Q 2772 3750 2511 3984 
Q 2250 4219 1831 4219 
Q 1534 4219 1204 4116 
Q 875 4013 500 3803 
L 500 4441 
Q 881 4594 1212 4672 
Q 1544 4750 1819 4750 
Q 2544 4750 2975 4387 
Q 3406 4025 3406 3419 
Q 3406 3131 3298 2873 
Q 3191 2616 2906 2266 
Q 2828 2175 2409 1742 
Q 1991 1309 1228 531 
z
" transform="scale(0.015625)"/>
       </defs>
       <use xlink:href="#DejaVuSans-32"/>
       <use xlink:href="#DejaVuSans-30" x="63.623047"/>
      </g>
     </g>
    </g>
    <g id="xtick_3">
     <g id="text_3">
      <!-- 40 -->
      <g transform="translate(416.486625 366.30265)scale(0.08 -0.08)">
       <defs>
        <path id="DejaVuSans-34" d="M 2419 4116 
L 825 1625 
L 2419 1625 
L 2419 4116 
z
M 2253 4666 
L 3047 4666 
L 3047 1625 
L 3713 1625 
L 3713 1100 
L 3047 1100 
L 3047 0 
L 2419 0 
L 2419 1100 
L 313 1100 
L 313 1709 
L 2253 4666 
z
" transform="scale(0.015625)"/>
       </defs>
       <use xlink:href="#DejaVuSans-34"/>
       <use xlink:href="#DejaVuSans-30" x="63.623047"/>
      </g>
     </g>
    </g>
    <g id="xtick_4">
     <g id="text_4">
      <!-- 60 -->
      <g transform="translate(604.429625 366.30265)scale(0.08 -0.08)">
       <defs>
        <path id="DejaVuSans-36" d="M 2113 2584 
Q 1688 2584 1439 2293 
Q 1191 2003 1191 1497 
Q 1191 994 1439 701 
Q 1688 409 2113 409 
Q 2538 409 2786 701 
Q 3034 994 3034 1497 
Q 3034 2003 2786 2293 
Q 2538 2584 2113 2584 
z
M 3366 4563 
L 3366 3988 
Q 3128 4100 2886 4159 
Q 2644 4219 2406 4219 
Q 1781 4219 1451 3797 
Q 1122 3375 1075 2522 
Q 1259 2794 1537 2939 
Q 1816 3084 2150 3084 
Q 2853 3084 3261 2657 
Q 3669 2231 3669 1497 
Q 3669 778 3244 343 
Q 2819 -91 2113 -91 
Q 1303 -91 875 529 
Q 447 1150 447 2328 
Q 447 3434 972 4092 
Q 1497 4750 2381 4750 
Q 2619 4750 2861 4703 
Q 3103 4656 3366 4563 
z
" transform="scale(0.015625)"/>
       </defs>
       <use xlink:href="#DejaVuSans-36"/>
       <use xlink:href="#DejaVuSans-30" x="63.623047"/>
      </g>
     </g>
    </g>
    <g id="xtick_5">
     <g id="text_5">
      <!-- 80 -->
      <g transform="translate(792.372625 366.30265)scale(0.08 -0.08)">
       <defs>
        <path id="DejaVuSans-38" d="M 2034 2216 
Q 1584 2216 1326 1975 
Q 1069 1734 1069 1313 
Q 1069 891 1326 650 
Q 1584 409 2034 409 
Q 2484 409 2743 651 
Q 3003 894 3003 1313 
Q 3003 1734 2745 1975 
Q 2488 2216 2034 2216 
z
M 1403 2484 
Q 997 2584 770 2862 
Q 544 3141 544 3541 
Q 544 4100 942 4425 
Q 1341 4750 2034 4750 
Q 2731 4750 3128 4425 
Q 3525 4100 3525 3541 
Q 3525 3141 3298 2862 
Q 3072 2584 2669 2484 
Q 3125 2378 3379 2068 
Q 3634 1759 3634 1313 
Q 3634 634 3220 271 
Q 2806 -91 2034 -91 
Q 1263 -91 848 271 
Q 434 634 434 1313 
Q 434 1759 690 2068 
Q 947 2378 1403 2484 
z
M 1172 3481 
Q 1172 3119 1398 2916 
Q 1625 2713 2034 2713 
Q 2441 2713 2670 2916 
Q 2900 3119 2900 3481 
Q 2900 3844 2670 4047 
Q 2441 4250 2034 4250 
Q 1625 4250 1398 4047 
Q 1172 3844 1172 3481 
z
" transform="scale(0.015625)"/>
       </defs>
       <use xlink:href="#DejaVuSans-38"/>
       <use xlink:href="#DejaVuSans-30" x="63.623047"/>
      </g>
     </g>
    </g>
    <g id="xtick_6">
     <g id="text_6">
      <!-- 100 -->
      <g transform="translate(977.770625 366.30265)scale(0.08 -0.08)">
       <defs>
        <path id="DejaVuSans-31" d="M 794 531 
L 1825 531 
L 1825 4091 
L 703 3866 
L 703 4441 
L 1819 4666 
L 2450 4666 
L 2450 531 
L 3481 531 
L 3481 0 
L 794 0 
L 794 531 
z
" transform="scale(0.015625)"/>
       </defs>
       <use xlink:href="#DejaVuSans-31"/>
       <use xlink:href="#DejaVuSans-30" x="63.623047"/>
       <use xlink:href="#DejaVuSans-30" x="127.246094"/>
      </g>
     </g>
    </g>
    <g id="text_7">
     <!-- GC content (%) -->
     <g transform="translate(477.209063 379.564837)scale(0.1 -0.1)">
      <defs>
       <path id="DejaVuSans-47" d="M 3809 666 
L 3809 1919 
L 2778 1919 
L 2778 2438 
L 4434 2438 
L 4434 434 
Q 4069 175 3628 42 
Q 3188 -91 2688 -91 
Q 1594 -91 976 548 
Q 359 1188 359 2328 
Q 359 3472 976 4111 
Q 1594 4750 2688 4750 
Q 3144 4750 3555 4637 
Q 3966 4525 4313 4306 
L 4313 3634 
Q 3963 3931 3569 4081 
Q 3175 4231 2741 4231 
Q 1884 4231 1454 3753 
Q 1025 3275 1025 2328 
Q 1025 1384 1454 906 
Q 1884 428 2741 428 
Q 3075 428 3337 486 
Q 3600 544 3809 666 
z
" transform="scale(0.015625)"/>
       <path id="DejaVuSans-43" d="M 4122 4306 
L 4122 3641 
Q 3803 3938 3442 4084 
Q 3081 4231 2675 4231 
Q 1875 4231 1450 3742 
Q 1025 3253 1025 2328 
Q 1025 1406 1450 917 
Q 1875 428 2675 428 
Q 3081 428 3442 575 
Q 3803 722 4122 1019 
L 4122 359 
Q 3791 134 3420 21 
Q 3050 -91 2638 -91 
Q 1578 -91 968 557 
Q 359 1206 359 2328 
Q 359 3453 968 4101 
Q 1578 4750 2638 4750 
Q 3056 4750 3426 4639 
Q 3797 4528 4122 4306 
z
" transform="scale(0.015625)"/>
       <path id="DejaVuSans-20" transform="scale(0.015625)"/>
       <path id="DejaVuSans-63" d="M 3122 3366 
L 3122 2828 
Q 2878 2963 2633 3030 
Q 2388 3097 2138 3097 
Q 1578 3097 1268 2742 
Q 959 2388 959 1747 
Q 959 1106 1268 751 
Q 1578 397 2138 397 
Q 2388 397 2633 464 
Q 2878 531 3122 666 
L 3122 134 
Q 2881 22 2623 -34 
Q 2366 -91 2075 -91 
Q 1284 -91 818 406 
Q 353 903 353 1747 
Q 353 2603 823 3093 
Q 1294 3584 2113 3584 
Q 2378 3584 2631 3529 
Q 2884 3475 3122 3366 
z
" transform="scale(0.015625)"/>
       <path id="DejaVuSans-6f" d="M 1959 3097 
Q 1497 3097 1228 2736 
Q 959 2375 959 1747 
Q 959 1119 1226 758 
Q 1494 397 1959 397 
Q 2419 397 2687 759 
Q 2956 1122 2956 1747 
Q 2956 2369 2687 2733 
Q 2419 3097 1959 3097 
z
M 1959 3584 
Q 2709 3584 3137 3096 
Q 3566 2609 3566 1747 
Q 3566 888 3137 398 
Q 2709 -91 1959 -91 
Q 1206 -91 779 398 
Q 353 888 353 1747 
Q 353 2609 779 3096 
Q 1206 3584 1959 3584 
z
" transform="scale(0.015625)"/>
       <path id="DejaVuSans-6e" d="M 3513 2113 
L 3513 0 
L 2938 0 
L 2938 2094 
Q 2938 2591 2744 2837 
Q 2550 3084 2163 3084 
Q 1697 3084 1428 2787 
Q 1159 2491 1159 1978 
L 1159 0 
L 581 0 
L 581 3500 
L 1159 3500 
L 1159 2956 
Q 1366 3272 1645 3428 
Q 1925 3584 2291 3584 
Q 2894 3584 3203 3211 
Q 3513 2838 3513 2113 
z
" transform="scale(0.015625)"/>
       <path id="DejaVuSans-74" d="M 1172 4494 
L 1172 3500 
L 2356 3500 
L 2356 3053 
L 1172 3053 
L 1172 1153 
Q 1172 725 1289 603 
Q 1406 481 1766 481 
L 2356 481 
L 2356 0 
L 1766 0 
Q 1100 0 847 248 
Q 594 497 594 1153 
L 594 3053 
L 172 3053 
L 172 3500 
L 594 3500 
L 594 4494 
L 1172 4494 
z
" transform="scale(0.015625)"/>
       <path id="DejaVuSans-65" d="M 3597 1894 
L 3597 1613 
L 953 1613 
Q 991 1019 1311 708 
Q 1631 397 2203 397 
Q 2534 397 2845 478 
Q 3156 559 3463 722 
L 3463 178 
Q 3153 47 2828 -22 
Q 2503 -91 2169 -91 
Q 1331 -91 842 396 
Q 353 884 353 1716 
Q 353 2575 817 3079 
Q 1281 3584 2069 3584 
Q 2775 3584 3186 3129 
Q 3597 2675 3597 1894 
z
M 3022 2063 
Q 3016 2534 2758 2815 
Q 2500 3097 2075 3097 
Q 1594 3097 1305 2825 
Q 1016 2553 972 2059 
L 3022 2063 
z
" transform="scale(0.015625)"/>
       <path id="DejaVuSans-28" d="M 1984 4856 
Q 1566 4138 1362 3434 
Q 1159 2731 1159 2009 
Q 1159 1288 1364 580 
Q 1569 -128 1984 -844 
L 1484 -844 
Q 1016 -109 783 600 
Q 550 1309 550 2009 
Q 550 2706 781 3412 
Q 1013 4119 1484 4856 
L 1984 4856 
z
" transform="scale(0.015625)"/>
       <path id="DejaVuSans-25" d="M 4653 2053 
Q 4381 2053 4226 1822 
Q 4072 1591 4072 1178 
Q 4072 772 4226 539 
Q 4381 306 4653 306 
Q 4919 306 5073 539 
Q 5228 772 5228 1178 
Q 5228 1588 5073 1820 
Q 4919 2053 4653 2053 
z
M 4653 2450 
Q 5147 2450 5437 2106 
Q 5728 1763 5728 1178 
Q 5728 594 5436 251 
Q 5144 -91 4653 -91 
Q 4153 -91 3862 251 
Q 3572 594 3572 1178 
Q 3572 1766 3864 2108 
Q 4156 2450 4653 2450 
z
M 1428 4353 
Q 1159 4353 1004 4120 
Q 850 3888 850 3481 
Q 850 3069 1003 2837 
Q 1156 2606 1428 2606 
Q 1700 2606 1854 2837 
Q 2009 3069 2009 3481 
Q 2009 3884 1853 4118 
Q 1697 4353 1428 4353 
z
M 4250 4750 
L 4750 4750 
L 1831 -91 
L 1331 -91 
L 4250 4750 
z
M 1428 4750 
Q 1922 4750 2215 4408 
Q 2509 4066 2509 3481 
Q 2509 2891 2217 2550 
Q 1925 2209 1428 2209 
Q 931 2209 642 2551 
Q 353 2894 353 3481 
Q 353 4063 643 4406 
Q 934 4750 1428 4750 
z
" transform="scale(0.015625)"/>
       <path id="DejaVuSans-29" d="M 513 4856 
L 1013 4856 
Q 1481 4119 1714 3412 
Q 1947 2706 1947 2009 
Q 1947 1309 1714 600 
Q 1481 -109 1013 -844 
L 513 -844 
Q 928 -128 1133 580 
Q 1338 1288 1338 2009 
Q 1338 2731 1133 3434 
Q 928 4138 513 4856 
z
" transform="scale(0.015625)"/>
      </defs>
      <use xlink:href="#DejaVuSans-47"/>
      <use xlink:href="#DejaVuSans-43" x="77.490234"/>
      <use xlink:href="#DejaVuSans-20" x="147.314453"/>
      <use xlink:href="#DejaVuSans-63" x="179.101562"/>
      <use xlink:href="#DejaVuSans-6f" x="234.082031"/>
      <use xlink:href="#DejaVuSans-6e" x="295.263672"/>
      <use xlink:href="#DejaVuSans-74" x="358.642578"/>
      <use xlink:href="#DejaVuSans-65" x="397.851562"/>
      <use xlink:href="#DejaVuSans-6e" x="459.375"/>
      <use xlink:href="#DejaVuSans-74" x="522.753906"/>
      <use xlink:href="#DejaVuSans-20" x="561.962891"/>
      <use xlink:href="#DejaVuSans-28" x="593.75"/>
      <use xlink:href="#DejaVuSans-25" x="632.763672"/>
      <use xlink:href="#DejaVuSans-29" x="727.783203"/>
     </g>
    </g>
   </g>
   <g id="matplotlib.axis_2">
    <g id="ytick_1">
     <g id="line2d_1">
      <path d="M 45.690625 353.2239 
L 985.405625 353.2239 
" clip-path="url(#peb74faa90e)" style="fill: none; stroke: #dedede; stroke-linecap: square"/>
     </g>
     <g id="text_8">
      <!-- 0.00 -->
      <g transform="translate(20.878125 356.263275)scale(0.08 -0.08)">
       <defs>
        <path id="DejaVuSans-2e" d="M 684 794 
L 1344 794 
L 1344 0 
L 684 0 
L 684 794 
z
" transform="scale(0.015625)"/>
       </defs>
       <use xlink:href="#DejaVuSans-30"/>
       <use xlink:href="#DejaVuSans-2e" x="63.623047"/>
       <use xlink:href="#DejaVuSans-30" x="95.410156"/>
       <use xlink:href="#DejaVuSans-30" x="159.033203"/>
      </g>
     </g>
    </g>
    <g id="ytick_2">
     <g id="line2d_2">
      <path d="M 45.690625 297.525609 
L 985.405625 297.525609 
" clip-path="url(#peb74faa90e)" style="fill: none; stroke: #dedede; stroke-linecap: square"/>
     </g>
     <g id="text_9">
      <!-- 0.02 -->
      <g transform="translate(20.878125 300.564984)scale(0.08 -0.08)">
       <use xlink:href="#DejaVuSans-30"/>
       <use xlink:href="#DejaVuSans-2e" x="63.623047"/>
       <use xlink:href="#DejaVuSans-30" x="95.410156"/>
       <use xlink:href="#DejaVuSans-32" x="159.033203"/>
      </g>
     </g>
    </g>
    <g id="ytick_3">
     <g id="line2d_3">
      <path d="M 45.690625 241.827318 
L 985.405625 241.827318 
" clip-path="url(#peb74faa90e)" style="fill: none; stroke: #dedede; stroke-linecap: square"/>
     </g>
     <g id="text_10">
      <!-- 0.04 -->
      <g transform="translate(20.878125 244.866693)scale(0.08 -0.08)">
       <use xlink:href="#DejaVuSans-30"/>
       <use xlink:href="#DejaVuSans-2e" x="63.623047"/>
       <use xlink:href="#DejaVuSans-30" x="95.410156"/>
       <use xlink:href="#DejaVuSans-34" x="159.033203"/>
      </g>
     </g>
    </g>
    <g id="ytick_4">
     <g id="line2d_4">
      <path d="M 45.690625 186.129026 
L 985.405625 186.129026 
" clip-path="url(#peb74faa90e)" style="fill: none; stroke: #dedede; stroke-linecap: square"/>
     </g>
     <g id="text_11">
      <!-- 0.06 -->
      <g transform="translate(20.878125 189.168401)scale(0.08 -0.08)">
       <use xlink:href="#DejaVuSans-30"/>
       <use xlink:href="#DejaVuSans-2e" x="63.623047"/>
       <use xlink:href="#DejaVuSans-30" x="95.410156"/>
       <use xlink:href="#DejaVuSans-36" x="159.033203"/>
      </g>
     </g>
    </g>
    <g id="ytick_5">
     <g id="line2d_5">
      <path d="M 45.690625 130.430735 
L 985.405625 130.430735 
" clip-path="url(#peb74faa90e)" style="fill: none; stroke: #dedede; stroke-linecap: square"/>
     </g>
     <g id="text_12">
      <!-- 0.08 -->
      <g transform="translate(20.878125 133.47011)scale(0.08 -0.08)">
       <use xlink:href="#DejaVuSans-30"/>
       <use xlink:href="#DejaVuSans-2e" x="63.623047"/>
       <use xlink:href="#DejaVuSans-30" x="95.410156"/>
       <use xlink:href="#DejaVuSans-38" x="159.033203"/>
      </g>
     </g>
    </g>
    <g id="ytick_6">
     <g id="line2d_6">
      <path d="M 45.690625 74.732444 
L 985.405625 74.732444 
" clip-path="url(#peb74faa90e)" style="fill: none; stroke: #dedede; stroke-linecap: square"/>
     </g>
     <g id="text_13">
      <!-- 0.10 -->
      <g transform="translate(20.878125 77.771819)scale(0.08 -0.08)">
       <use xlink:href="#DejaVuSans-30"/>
       <use xlink:href="#DejaVuSans-2e" x="63.623047"/>
       <use xlink:href="#DejaVuSans-31" x="95.410156"/>
       <use xlink:href="#DejaVuSans-30" x="159.033203"/>
      </g>
     </g>
    </g>
    <g id="text_14">
     <!-- Fraction of reads -->
     <g transform="translate(14.798438 236.059431)rotate(-90)scale(0.1 -0.1)">
      <defs>
       <path id="DejaVuSans-46" d="M 628 4666 
L 3309 4666 
L 3309 4134 
L 1259 4134 
L 1259 2759 
L 3109 2759 
L 3109 2228 
L 1259 2228 
L 1259 0 
L 628 0 
L 628 4666 
z
" transform="scale(0.015625)"/>
       <path id="DejaVuSans-72" d="M 2631 2963 
Q 2534 3019 2420 3045 
Q 2306 3072 2169 3072 
Q 1681 3072 1420 2755 
Q 1159 2438 1159 1844 
L 1159 0 
L 581 0 
L 581 3500 
L 1159 3500 
L 1159 2956 
Q 1341 3275 1631 3429 
Q 1922 3584 2338 3584 
Q 2397 3584 2469 3576 
Q 2541 3569 2628 3553 
L 2631 2963 
z
" transform="scale(0.015625)"/>
       <path id="DejaVuSans-61" d="M 2194 1759 
Q 1497 1759 1228 1600 
Q 959 1441 959 1056 
Q 959 750 1161 570 
Q 1363 391 1709 391 
Q 2188 391 2477 730 
Q 2766 1069 2766 1631 
L 2766 1759 
L 2194 1759 
z
M 3341 1997 
L 3341 0 
L 2766 0 
L 2766 531 
Q 2569 213 2275 61 
Q 1981 -91 1556 -91 
Q 1019 -91 701 211 
Q 384 513 384 1019 
Q 384 1609 779 1909 
Q 1175 2209 1959 2209 
L 2766 2209 
L 2766 2266 
Q 2766 2663 2505 2880 
Q 2244 3097 1772 3097 
Q 1472 3097 1187 3025 
Q 903 2953 641 2809 
L 641 3341 
Q 956 3463 1253 3523 
Q 1550 3584 1831 3584 
Q 2591 3584 2966 3190 
Q 3341 2797 3341 1997 
z
" transform="scale(0.015625)"/>
       <path id="DejaVuSans-69" d="M 603 3500 
L 1178 3500 
L 1178 0 
L 603 0 
L 603 3500 
z
M 603 4863 
L 1178 4863 
L 1178 4134 
L 603 4134 
L 603 4863 
z
" transform="scale(0.015625)"/>
       <path id="DejaVuSans-66" d="M 2375 4863 
L 2375 4384 
L 1825 4384 
Q 1516 4384 1395 4259 
Q 1275 4134 1275 3809 
L 1275 3500 
L 2222 3500 
L 2222 3053 
L 1275 3053 
L 1275 0 
L 697 0 
L 697 3053 
L 147 3053 
L 147 3500 
L 697 3500 
L 697 3744 
Q 697 4328 969 4595 
Q 1241 4863 1831 4863 
L 2375 4863 
z
" transform="scale(0.015625)"/>
       <path id="DejaVuSans-64" d="M 2906 2969 
L 2906 4863 
L 3481 4863 
L 3481 0 
L 2906 0 
L 2906 525 
Q 2725 213 2448 61 
Q 2172 -91 1784 -91 
Q 1150 -91 751 415 
Q 353 922 353 1747 
Q 353 2572 751 3078 
Q 1150 3584 1784 3584 
Q 2172 3584 2448 3432 
Q 2725 3281 2906 2969 
z
M 947 1747 
Q 947 1113 1208 752 
Q 1469 391 1925 391 
Q 2381 391 2643 752 
Q 2906 1113 2906 1747 
Q 2906 2381 2643 2742 
Q 2381 3103 1925 3103 
Q 1469 3103 1208 2742 
Q 947 2381 947 1747 
z
" transform="scale(0.015625)"/>
       <path id="DejaVuSans-73" d="M 2834 3397 
L 2834 2853 
Q 2591 2978 2328 3040 
Q 2066 3103 1784 3103 
Q 1356 3103 1142 2972 
Q 928 2841 928 2578 
Q 928 2378 1081 2264 
Q 1234 2150 1697 2047 
L 1894 2003 
Q 2506 1872 2764 1633 
Q 3022 1394 3022 966 
Q 3022 478 2636 193 
Q 2250 -91 1575 -91 
Q 1294 -91 989 -36 
Q 684 19 347 128 
L 347 722 
Q 666 556 975 473 
Q 1284 391 1588 391 
Q 1994 391 2212 530 
Q 2431 669 2431 922 
Q 2431 1156 2273 1281 
Q 2116 1406 1581 1522 
L 1381 1569 
Q 847 1681 609 1914 
Q 372 2147 372 2553 
Q 372 3047 722 3315 
Q 1072 3584 1716 3584 
Q 2034 3584 2315 3537 
Q 2597 3491 2834 3397 
z
" transform="scale(0.015625)"/>
      </defs>
      <use xlink:href="#DejaVuSans-46"/>
      <use xlink:href="#DejaVuSans-72" x="50.269531"/>
      <use xlink:href="#DejaVuSans-61" x="91.382812"/>
      <use xlink:href="#DejaVuSans-63" x="152.662109"/>
      <use xlink:href="#DejaVuSans-74" x="207.642578"/>
      <use xlink:href="#DejaVuSans-69" x="246.851562"/>
      <use xlink:href="#DejaVuSans-6f" x="274.634766"/>
      <use xlink:href="#DejaVuSans-6e" x="335.816406"/>
      <use xlink:href="#DejaVuSans-20" x="399.195312"/>
      <use xlink:href="#DejaVuSans-6f" x="430.982422"/>
      <use xlink:href="#DejaVuSans-66" x="492.164062"/>
      <use xlink:href="#DejaVuSans-20" x="527.369141"/>
      <use xlink:href="#DejaVuSans-72" x="559.15625"/>
      <use xlink:href="#DejaVuSans-65" x="598.019531"/>
      <use xlink:href="#DejaVuSans-61" x="659.542969"/>
      <use xlink:href="#DejaVuSans-64" x="720.822266"/>
      <use xlink:href="#DejaVuSans-73" x="784.298828"/>
     </g>
    </g>
   </g>
   <g id="line2d_7">
    <path d="M 55.087775 353.2239 
L 64.484925 353.223307 
L 73.882075 353.222714 
L 83.279225 353.220342 
L 92.676375 353.222121 
L 102.073525 353.21975 
L 111.470675 353.20967 
L 120.867825 353.203741 
L 130.264975 353.19959 
L 139.662125 353.190104 
L 149.059275 353.167573 
L 158.456425 352.908467 
L 167.853575 351.91355 
L 177.250725 349.771335 
L 186.647875 345.824275 
L 196.045025 337.048486 
L 205.442175 318.424319 
L 214.839325 287.108728 
L 224.236475 242.288822 
L 233.633625 190.765377 
L 243.030775 140.880167 
L 252.427925 103.165798 
L 261.825075 82.232806 
L 271.222225 78.771347 
L 280.619375 67.943466 
L 290.016525 143.97461 
L 299.413675 152.833407 
L 308.810825 188.767835 
L 318.207975 221.769093 
L 327.605125 251.121531 
L 337.002275 276.069176 
L 346.399425 295.592208 
L 355.796575 311.112446 
L 365.193725 322.362485 
L 374.590875 330.655638 
L 383.988025 336.981487 
L 393.385175 341.526208 
L 402.782325 345.313772 
L 412.179475 347.847314 
L 421.576625 349.57745 
L 430.973775 350.951836 
L 440.370925 351.847736 
L 449.768075 352.385513 
L 459.165225 352.707468 
L 468.562375 352.925662 
L 477.959525 353.041874 
L 487.356675 353.102945 
L 496.753825 353.158086 
L 506.150975 353.190697 
L 515.548125 353.180617 
L 524.945275 353.20967 
L 534.342425 353.219157 
L 543.739575 353.214413 
L 553.136725 353.220342 
L 562.533875 353.220935 
L 571.931025 353.218564 
L 581.328175 353.222714 
L 590.725325 353.222714 
L 600.122475 353.2239 
L 609.519625 353.221528 
L 618.916775 353.223307 
L 628.313925 353.222714 
L 637.711075 353.222714 
L 647.108225 353.2239 
L 656.505375 353.222714 
L 665.902525 353.2239 
L 675.299675 353.218564 
L 684.696825 353.2239 
L 694.093975 353.2239 
L 703.491125 353.2239 
L 712.888275 353.2239 
L 722.285425 353.222714 
L 731.682575 353.223307 
L 741.079725 353.2239 
L 750.476875 353.222714 
L 759.874025 353.2239 
L 769.271175 353.2239 
L 778.668325 353.2239 
L 788.065475 353.2239 
L 797.462625 353.223307 
L 806.859775 353.2239 
L 816.256925 353.2239 
L 825.654075 353.2239 
L 835.051225 353.2239 
L 844.448375 353.2239 
L 853.845525 353.2239 
L 863.242675 353.2239 
L 872.639825 353.2239 
L 882.036975 353.2239 
L 891.434125 353.2239 
L 900.831275 353.2239 
L 910.228425 353.2239 
L 919.625575 353.2239 
L 929.022725 353.2239 
L 938.419875 353.2239 
L 947.817025 353.2239 
L 957.214175 353.2239 
L 966.611325 353.2239 
L 976.008475 353.2239 
L 985.405625 353.215599 
" clip-path="url(#peb74faa90e)" style="fill: none; stroke: #7cb5ec; stroke-linecap: square"/>
   </g>
   <g id="line2d_8">
    <path d="M 55.087775 353.2239 
L 64.484925 353.2239 
L 73.882075 353.223371 
L 83.279225 353.221784 
L 92.676375 353.215963 
L 102.073525 353.215963 
L 111.470675 353.215963 
L 120.867825 353.199561 
L 130.264975 353.195857 
L 139.662125 353.178925 
L 149.059275 353.077865 
L 158.456425 352.548753 
L 167.853575 350.575163 
L 177.250725 347.102069 
L 186.647875 339.887621 
L 196.045025 324.814266 
L 205.442175 298.034827 
L 214.839325 258.881564 
L 224.236475 211.100594 
L 233.633625 162.002134 
L 243.030775 121.928745 
L 252.427925 96.320232 
L 261.825075 88.476669 
L 271.222225 94.30008 
L 280.619375 90.841801 
L 290.016525 163.615927 
L 299.413675 174.311935 
L 308.810825 207.31744 
L 318.207975 237.265204 
L 327.605125 263.364734 
L 337.002275 284.54775 
L 346.399425 301.612156 
L 355.796575 315.111931 
L 365.193725 324.908448 
L 374.590875 332.393801 
L 383.988025 338.026203 
L 393.385175 342.208837 
L 402.782325 345.648597 
L 412.179475 348.055001 
L 421.576625 349.712181 
L 430.973775 350.875699 
L 440.370925 351.800588 
L 449.768075 352.325996 
L 459.165225 352.691613 
L 468.562375 352.904316 
L 477.959525 353.042414 
L 487.356675 353.095326 
L 496.753825 353.158819 
L 506.150975 353.186333 
L 515.548125 353.171518 
L 524.945275 353.207498 
L 534.342425 353.214376 
L 543.739575 353.216492 
L 553.136725 353.217551 
L 562.533875 353.219138 
L 571.931025 353.218609 
L 581.328175 353.221254 
L 590.725325 353.219667 
L 600.122475 353.221784 
L 609.519625 353.220196 
L 618.916775 353.223371 
L 628.313925 353.2239 
L 637.711075 353.222842 
L 647.108225 353.223371 
L 656.505375 353.2239 
L 665.902525 353.2239 
L 675.299675 353.218609 
L 684.696825 353.2239 
L 694.093975 353.2239 
L 703.491125 353.223371 
L 712.888275 353.2239 
L 722.285425 353.223371 
L 731.682575 353.2239 
L 741.079725 353.2239 
L 750.476875 353.222313 
L 759.874025 353.2239 
L 769.271175 353.2239 
L 778.668325 353.2239 
L 788.065475 353.2239 
L 797.462625 353.222313 
L 806.859775 353.2239 
L 816.256925 353.2239 
L 825.654075 353.2239 
L 835.051225 353.2239 
L 844.448375 353.2239 
L 853.845525 353.2239 
L 863.242675 353.2239 
L 872.639825 353.2239 
L 882.036975 353.2239 
L 891.434125 353.2239 
L 900.831275 353.2239 
L 910.228425 353.2239 
L 919.625575 353.2239 
L 929.022725 353.2239 
L 938.419875 353.2239 
L 947.817025 353.2239 
L 957.214175 353.2239 
L 966.611325 353.2239 
L 976.008475 353.2239 
L 985.405625 353.21808 
" clip-path="url(#peb74faa90e)" style="fill: none; stroke: #434348; stroke-linecap: square"/>
   </g>
   <g id="line2d_9">
    <path d="M 55.087775 353.2239 
L 64.484925 353.2239 
L 73.882075 353.219493 
L 83.279225 353.219493 
L 92.676375 353.209211 
L 102.073525 353.206274 
L 111.470675 353.200398 
L 120.867825 353.193054 
L 130.264975 353.188647 
L 139.662125 353.163677 
L 149.059275 352.934534 
L 158.456425 351.912205 
L 167.853575 349.713315 
L 177.250725 346.258547 
L 186.647875 338.486788 
L 196.045025 321.290799 
L 205.442175 292.765462 
L 214.839325 250.98069 
L 224.236475 199.197362 
L 233.633625 147.537418 
L 243.030775 105.50294 
L 252.427925 82.211165 
L 261.825075 78.763741 
L 271.222225 91.716183 
L 280.619375 96.733822 
L 290.016525 174.279554 
L 299.413675 188.113315 
L 308.810825 220.466511 
L 318.207975 249.980394 
L 327.605125 274.570644 
L 337.002275 294.387087 
L 346.399425 308.965562 
L 355.796575 320.352195 
L 365.193725 328.748221 
L 374.590875 334.820504 
L 383.988025 339.030268 
L 393.385175 342.02675 
L 402.782325 344.553196 
L 412.179475 346.816716 
L 421.576625 348.472125 
L 430.973775 349.816136 
L 440.370925 350.860498 
L 449.768075 351.821135 
L 459.165225 352.424838 
L 468.562375 352.656919 
L 477.959525 352.818494 
L 487.356675 353.012384 
L 496.753825 353.074076 
L 506.150975 353.115204 
L 515.548125 353.156332 
L 524.945275 353.194523 
L 534.342425 353.203336 
L 543.739575 353.203336 
L 553.136725 353.212149 
L 562.533875 353.218025 
L 571.931025 353.219493 
L 581.328175 353.222431 
L 590.725325 353.218025 
L 600.122475 353.222431 
L 609.519625 353.222431 
L 618.916775 353.2239 
L 628.313925 353.2239 
L 637.711075 353.2239 
L 647.108225 353.2239 
L 656.505375 353.2239 
L 665.902525 353.2239 
L 675.299675 353.219493 
L 684.696825 353.2239 
L 694.093975 353.2239 
L 703.491125 353.2239 
L 712.888275 353.2239 
L 722.285425 353.2239 
L 731.682575 353.2239 
L 741.079725 353.2239 
L 750.476875 353.220962 
L 759.874025 353.2239 
L 769.271175 353.2239 
L 778.668325 353.2239 
L 788.065475 353.2239 
L 797.462625 353.2239 
L 806.859775 353.2239 
L 816.256925 353.2239 
L 825.654075 353.2239 
L 835.051225 353.2239 
L 844.448375 353.2239 
L 853.845525 353.2239 
L 863.242675 353.2239 
L 872.639825 353.2239 
L 882.036975 353.2239 
L 891.434125 353.2239 
L 900.831275 353.2239 
L 910.228425 353.2239 
L 919.625575 353.2239 
L 929.022725 353.2239 
L 938.419875 353.2239 
L 947.817025 353.2239 
L 957.214175 353.2239 
L 966.611325 353.2239 
L 976.008475 353.2239 
L 985.405625 353.222431 
" clip-path="url(#peb74faa90e)" style="fill: none; stroke: #90ed7d; stroke-linecap: square"/>
   </g>
   <g id="line2d_10">
    <path d="M 55.087775 353.2239 
L 64.484925 353.2239 
L 73.882075 353.2239 
L 83.279225 353.213308 
L 92.676375 353.213308 
L 102.073525 353.202716 
L 111.470675 353.208012 
L 120.867825 353.202716 
L 130.264975 353.186827 
L 139.662125 353.139162 
L 149.059275 352.879653 
L 158.456425 351.40204 
L 167.853575 348.738099 
L 177.250725 347.138675 
L 186.647875 344.061638 
L 196.045025 334.724604 
L 205.442175 315.558 
L 214.839325 282.187241 
L 224.236475 232.096678 
L 233.633625 174.639232 
L 243.030775 121.598738 
L 252.427925 79.812468 
L 261.825075 62.939077 
L 271.222225 68.568837 
L 280.619375 67.02767 
L 290.016525 150.181818 
L 299.413675 164.730219 
L 308.810825 204.40864 
L 318.207975 239.627739 
L 327.605125 268.539178 
L 337.002275 291.238285 
L 346.399425 308.651878 
L 355.796575 321.177167 
L 365.193725 329.539717 
L 374.590875 335.942709 
L 383.988025 340.068375 
L 393.385175 342.255666 
L 402.782325 344.935495 
L 412.179475 347.286966 
L 421.576625 348.483886 
L 430.973775 350.088606 
L 440.370925 351.126642 
L 449.768075 351.979315 
L 459.165225 352.487741 
L 468.562375 352.800212 
L 477.959525 352.93791 
L 487.356675 353.03324 
L 496.753825 353.123274 
L 506.150975 353.144458 
L 515.548125 353.181531 
L 524.945275 353.197419 
L 534.342425 353.218604 
L 543.739575 353.213308 
L 553.136725 353.213308 
L 562.533875 353.208012 
L 571.931025 353.213308 
L 581.328175 353.2239 
L 590.725325 353.218604 
L 600.122475 353.2239 
L 609.519625 353.218604 
L 618.916775 353.2239 
L 628.313925 353.2239 
L 637.711075 353.2239 
L 647.108225 353.2239 
L 656.505375 353.2239 
L 665.902525 353.2239 
L 675.299675 353.218604 
L 684.696825 353.2239 
L 694.093975 353.2239 
L 703.491125 353.2239 
L 712.888275 353.2239 
L 722.285425 353.2239 
L 731.682575 353.2239 
L 741.079725 353.2239 
L 750.476875 353.2239 
L 759.874025 353.2239 
L 769.271175 353.2239 
L 778.668325 353.2239 
L 788.065475 353.2239 
L 797.462625 353.2239 
L 806.859775 353.2239 
L 816.256925 353.2239 
L 825.654075 353.2239 
L 835.051225 353.2239 
L 844.448375 353.2239 
L 853.845525 353.2239 
L 863.242675 353.2239 
L 872.639825 353.2239 
L 882.036975 353.2239 
L 891.434125 353.2239 
L 900.831275 353.2239 
L 910.228425 353.2239 
L 919.625575 353.2239 
L 929.022725 353.2239 
L 938.419875 353.2239 
L 947.817025 353.2239 
L 957.214175 353.2239 
L 966.611325 353.2239 
L 976.008475 353.2239 
L 985.405625 353.218604 
" clip-path="url(#peb74faa90e)" style="fill: none; stroke: #f7a35c; stroke-linecap: square"/>
   </g>
   <g id="line2d_11">
    <path d="M 55.087775 353.2239 
L 64.484925 353.2239 
L 73.882075 353.215809 
L 83.279225 353.219854 
L 92.676375 353.211763 
L 102.073525 353.211763 
L 111.470675 353.211763 
L 120.867825 353.211763 
L 130.264975 353.179398 
L 139.662125 353.171306 
L 149.059275 352.969023 
L 158.456425 351.577314 
L 167.853575 349.004271 
L 177.250725 347.636836 
L 186.647875 344.837236 
L 196.045025 337.101924 
L 205.442175 320.041354 
L 214.839325 288.970645 
L 224.236475 241.761778 
L 233.633625 184.005861 
L 243.030775 128.232321 
L 252.427925 87.452015 
L 261.825075 67.256055 
L 271.222225 69.169654 
L 280.619375 64.193486 
L 290.016525 144.673904 
L 299.413675 158.356344 
L 308.810825 197.975543 
L 318.207975 232.832995 
L 327.605125 262.507949 
L 337.002275 284.374769 
L 346.399425 303.660456 
L 355.796575 317.213434 
L 365.193725 327.89399 
L 374.590875 333.94226 
L 383.988025 339.027661 
L 393.385175 342.171143 
L 402.782325 345.193255 
L 412.179475 347.483101 
L 421.576625 348.834353 
L 430.973775 350.165377 
L 440.370925 351.128245 
L 449.768075 351.921196 
L 459.165225 352.519954 
L 468.562375 352.786968 
L 477.959525 353.00948 
L 487.356675 353.013525 
L 496.753825 353.110621 
L 506.150975 353.163215 
L 515.548125 353.171306 
L 524.945275 353.203672 
L 534.342425 353.199626 
L 543.739575 353.199626 
L 553.136725 353.215809 
L 562.533875 353.2239 
L 571.931025 353.215809 
L 581.328175 353.2239 
L 590.725325 353.215809 
L 600.122475 353.2239 
L 609.519625 353.215809 
L 618.916775 353.2239 
L 628.313925 353.2239 
L 637.711075 353.2239 
L 647.108225 353.2239 
L 656.505375 353.2239 
L 665.902525 353.2239 
L 675.299675 353.203672 
L 684.696825 353.2239 
L 694.093975 353.2239 
L 703.491125 353.2239 
L 712.888275 353.2239 
L 722.285425 353.2239 
L 731.682575 353.2239 
L 741.079725 353.2239 
L 750.476875 353.2239 
L 759.874025 353.2239 
L 769.271175 353.2239 
L 778.668325 353.2239 
L 788.065475 353.2239 
L 797.462625 353.219854 
L 806.859775 353.2239 
L 816.256925 353.2239 
L 825.654075 353.2239 
L 835.051225 353.2239 
L 844.448375 353.2239 
L 853.845525 353.2239 
L 863.242675 353.2239 
L 872.639825 353.2239 
L 882.036975 353.2239 
L 891.434125 353.2239 
L 900.831275 353.2239 
L 910.228425 353.2239 
L 919.625575 353.2239 
L 929.022725 353.2239 
L 938.419875 353.2239 
L 947.817025 353.2239 
L 957.214175 353.2239 
L 966.611325 353.2239 
L 976.008475 353.2239 
L 985.405625 353.207717 
" clip-path="url(#peb74faa90e)" style="fill: none; stroke: #8085e9; stroke-linecap: square"/>
   </g>
   <g id="line2d_12">
    <path d="M 55.087775 353.2239 
L 64.484925 353.2239 
L 73.882075 353.22227 
L 83.279225 353.220641 
L 92.676375 353.214122 
L 102.073525 353.207604 
L 111.470675 353.215752 
L 120.867825 353.205974 
L 130.264975 353.194567 
L 139.662125 353.1799 
L 149.059275 353.028345 
L 158.456425 352.145087 
L 167.853575 349.896202 
L 177.250725 347.086726 
L 186.647875 340.868071 
L 196.045025 326.059654 
L 205.442175 298.05615 
L 214.839325 255.319192 
L 224.236475 199.838554 
L 233.633625 140.692885 
L 243.030775 93.938897 
L 252.427925 67.52428 
L 261.825075 65.879986 
L 271.222225 82.137141 
L 280.619375 90.847496 
L 290.016525 172.429864 
L 299.413675 190.590423 
L 308.810825 224.735989 
L 318.207975 256.213857 
L 327.605125 280.935293 
L 337.002275 299.806369 
L 346.399425 314.267676 
L 355.796575 324.144843 
L 365.193725 331.699792 
L 374.590875 337.131337 
L 383.988025 340.713256 
L 393.385175 342.804067 
L 402.782325 345.321841 
L 412.179475 347.272504 
L 421.576625 348.845093 
L 430.973775 350.072202 
L 440.370925 351.344941 
L 449.768075 351.996791 
L 459.165225 352.550864 
L 468.562375 352.746419 
L 477.959525 352.878419 
L 487.356675 353.000641 
L 496.753825 353.087011 
L 506.150975 353.139159 
L 515.548125 353.176641 
L 524.945275 353.212493 
L 534.342425 353.219011 
L 543.739575 353.219011 
L 553.136725 353.219011 
L 562.533875 353.220641 
L 571.931025 353.220641 
L 581.328175 353.2239 
L 590.725325 353.22227 
L 600.122475 353.2239 
L 609.519625 353.22227 
L 618.916775 353.2239 
L 628.313925 353.2239 
L 637.711075 353.22227 
L 647.108225 353.2239 
L 656.505375 353.2239 
L 665.902525 353.2239 
L 675.299675 353.217381 
L 684.696825 353.2239 
L 694.093975 353.2239 
L 703.491125 353.2239 
L 712.888275 353.2239 
L 722.285425 353.2239 
L 731.682575 353.2239 
L 741.079725 353.2239 
L 750.476875 353.2239 
L 759.874025 353.2239 
L 769.271175 353.2239 
L 778.668325 353.2239 
L 788.065475 353.2239 
L 797.462625 353.2239 
L 806.859775 353.2239 
L 816.256925 353.2239 
L 825.654075 353.2239 
L 835.051225 353.2239 
L 844.448375 353.2239 
L 853.845525 353.2239 
L 863.242675 353.2239 
L 872.639825 353.2239 
L 882.036975 353.2239 
L 891.434125 353.2239 
L 900.831275 353.2239 
L 910.228425 353.2239 
L 919.625575 353.2239 
L 929.022725 353.2239 
L 938.419875 353.2239 
L 947.817025 353.2239 
L 957.214175 353.2239 
L 966.611325 353.2239 
L 976.008475 353.2239 
L 985.405625 353.215752 
" clip-path="url(#peb74faa90e)" style="fill: none; stroke: #f15c80; stroke-linecap: square"/>
   </g>
   <g id="line2d_13">
    <path d="M 55.087775 353.2239 
L 64.484925 353.2239 
L 73.882075 353.221814 
L 83.279225 353.221814 
L 92.676375 353.219729 
L 102.073525 353.209301 
L 111.470675 353.20513 
L 120.867825 353.200959 
L 130.264975 353.194703 
L 139.662125 353.184275 
L 149.059275 353.036205 
L 158.456425 352.220774 
L 167.853575 350.343822 
L 177.250725 348.103993 
L 186.647875 343.797432 
L 196.045025 332.790153 
L 205.442175 310.444 
L 214.839325 273.37629 
L 224.236475 221.076073 
L 233.633625 163.714344 
L 243.030775 113.084615 
L 252.427925 79.75621 
L 261.825075 66.240072 
L 271.222225 73.593551 
L 280.619375 76.532024 
L 290.016525 157.687244 
L 299.413675 172.04801 
L 308.810825 209.960348 
L 318.207975 242.846628 
L 327.605125 269.968579 
L 337.002275 291.359572 
L 346.399425 307.872576 
L 355.796575 320.049822 
L 365.193725 329.094643 
L 374.590875 335.321952 
L 383.988025 339.799524 
L 393.385175 342.548216 
L 402.782325 345.509629 
L 412.179475 347.682722 
L 421.576625 349.340695 
L 430.973775 350.398045 
L 440.370925 351.45748 
L 449.768075 352.181149 
L 459.165225 352.581565 
L 468.562375 352.869365 
L 477.959525 353.013264 
L 487.356675 353.094599 
L 496.753825 353.127967 
L 506.150975 353.178019 
L 515.548125 353.169677 
L 524.945275 353.200959 
L 534.342425 353.209301 
L 543.739575 353.20513 
L 553.136725 353.215558 
L 562.533875 353.219729 
L 571.931025 353.219729 
L 581.328175 353.2239 
L 590.725325 353.221814 
L 600.122475 353.219729 
L 609.519625 353.221814 
L 618.916775 353.2239 
L 628.313925 353.2239 
L 637.711075 353.2239 
L 647.108225 353.2239 
L 656.505375 353.2239 
L 665.902525 353.2239 
L 675.299675 353.221814 
L 684.696825 353.2239 
L 694.093975 353.2239 
L 703.491125 353.2239 
L 712.888275 353.2239 
L 722.285425 353.2239 
L 731.682575 353.2239 
L 741.079725 353.2239 
L 750.476875 353.2239 
L 759.874025 353.2239 
L 769.271175 353.2239 
L 778.668325 353.2239 
L 788.065475 353.2239 
L 797.462625 353.221814 
L 806.859775 353.2239 
L 816.256925 353.2239 
L 825.654075 353.2239 
L 835.051225 353.2239 
L 844.448375 353.2239 
L 853.845525 353.2239 
L 863.242675 353.2239 
L 872.639825 353.2239 
L 882.036975 353.2239 
L 891.434125 353.2239 
L 900.831275 353.2239 
L 910.228425 353.2239 
L 919.625575 353.2239 
L 929.022725 353.2239 
L 938.419875 353.2239 
L 947.817025 353.2239 
L 957.214175 353.2239 
L 966.611325 353.2239 
L 976.008475 353.2239 
L 985.405625 353.213472 
" clip-path="url(#peb74faa90e)" style="fill: none; stroke: #e4d354; stroke-linecap: square"/>
   </g>
   <g id="line2d_14">
    <path d="M 55.087775 353.2239 
L 64.484925 353.2239 
L 73.882075 353.2239 
L 83.279225 353.215276 
L 92.676375 353.222463 
L 102.073525 353.209527 
L 111.470675 353.212402 
L 120.867825 353.20809 
L 130.264975 353.190843 
L 139.662125 353.172158 
L 149.059275 353.038491 
L 158.456425 352.299729 
L 167.853575 350.47582 
L 177.250725 348.25091 
L 186.647875 343.808277 
L 196.045025 332.515565 
L 205.442175 310.444689 
L 214.839325 274.624789 
L 224.236475 225.147852 
L 233.633625 170.02959 
L 243.030775 119.568116 
L 252.427925 85.027395 
L 261.825075 70.937737 
L 271.222225 77.349444 
L 280.619375 77.030368 
L 290.016525 156.970461 
L 299.413675 169.167222 
L 308.810825 205.734507 
L 318.207975 238.465691 
L 327.605125 266.065785 
L 337.002275 288.47011 
L 346.399425 305.013207 
L 355.796575 318.060837 
L 365.193725 327.167445 
L 374.590875 333.872358 
L 383.988025 338.566515 
L 393.385175 341.9355 
L 402.782325 344.758319 
L 412.179475 346.843813 
L 421.576625 348.75827 
L 430.973775 350.159618 
L 440.370925 351.352561 
L 449.768075 352.036706 
L 459.165225 352.403213 
L 468.562375 352.697855 
L 477.959525 352.886139 
L 487.356675 352.955129 
L 496.753825 353.07586 
L 506.150975 353.153473 
L 515.548125 353.16066 
L 524.945275 353.199466 
L 534.342425 353.210964 
L 543.739575 353.215276 
L 553.136725 353.210964 
L 562.533875 353.213839 
L 571.931025 353.221025 
L 581.328175 353.219588 
L 590.725325 353.222463 
L 600.122475 353.219588 
L 609.519625 353.222463 
L 618.916775 353.2239 
L 628.313925 353.2239 
L 637.711075 353.219588 
L 647.108225 353.2239 
L 656.505375 353.2239 
L 665.902525 353.2239 
L 675.299675 353.221025 
L 684.696825 353.2239 
L 694.093975 353.2239 
L 703.491125 353.2239 
L 712.888275 353.2239 
L 722.285425 353.2239 
L 731.682575 353.2239 
L 741.079725 353.2239 
L 750.476875 353.222463 
L 759.874025 353.2239 
L 769.271175 353.2239 
L 778.668325 353.2239 
L 788.065475 353.2239 
L 797.462625 353.2239 
L 806.859775 353.2239 
L 816.256925 353.2239 
L 825.654075 353.2239 
L 835.051225 353.2239 
L 844.448375 353.2239 
L 853.845525 353.2239 
L 863.242675 353.2239 
L 872.639825 353.2239 
L 882.036975 353.2239 
L 891.434125 353.2239 
L 900.831275 353.2239 
L 910.228425 353.2239 
L 919.625575 353.2239 
L 929.022725 353.2239 
L 938.419875 353.2239 
L 947.817025 353.2239 
L 957.214175 353.2239 
L 966.611325 353.2239 
L 976.008475 353.2239 
L 985.405625 353.213839 
" clip-path="url(#peb74faa90e)" style="fill: none; stroke: #2b908f; stroke-linecap: square"/>
   </g>
   <g id="line2d_15">
    <path d="M 55.087775 353.2239 
L 64.484925 353.2239 
L 73.882075 353.2239 
L 83.279225 353.2239 
L 92.676375 353.22224 
L 102.073525 353.217259 
L 111.470675 353.212278 
L 120.867825 353.212278 
L 130.264975 353.202317 
L 139.662125 353.202317 
L 149.059275 353.167452 
L 158.456425 352.865289 
L 167.853575 352.214478 
L 177.250725 351.183473 
L 186.647875 349.455169 
L 196.045025 344.761688 
L 205.442175 333.241325 
L 214.839325 309.521563 
L 224.236475 270.152436 
L 233.633625 218.202056 
L 243.030775 160.266533 
L 252.427925 110.286851 
L 261.825075 77.420861 
L 271.222225 66.780422 
L 280.619375 50.397233 
L 290.016525 127.30757 
L 299.413675 136.833992 
L 308.810825 175.517442 
L 318.207975 213.357494 
L 327.605125 245.818387 
L 337.002275 272.250971 
L 346.399425 292.723316 
L 355.796575 308.362719 
L 365.193725 319.992658 
L 374.590875 328.303789 
L 383.988025 333.790862 
L 393.385175 338.188822 
L 402.782325 341.419637 
L 412.179475 344.587363 
L 421.576625 346.652694 
L 430.973775 348.686481 
L 440.370925 350.129224 
L 449.768075 351.349496 
L 459.165225 351.988686 
L 468.562375 352.284208 
L 477.959525 352.669382 
L 487.356675 352.856988 
L 496.753825 353.01139 
L 506.150975 353.101043 
L 515.548125 353.147529 
L 524.945275 353.189035 
L 534.342425 353.203977 
L 543.739575 353.205637 
L 553.136725 353.202317 
L 562.533875 353.218919 
L 571.931025 353.215599 
L 581.328175 353.2239 
L 590.725325 353.2239 
L 600.122475 353.22224 
L 609.519625 353.218919 
L 618.916775 353.2239 
L 628.313925 353.2239 
L 637.711075 353.2239 
L 647.108225 353.2239 
L 656.505375 353.2239 
L 665.902525 353.2239 
L 675.299675 353.22058 
L 684.696825 353.2239 
L 694.093975 353.2239 
L 703.491125 353.22224 
L 712.888275 353.2239 
L 722.285425 353.22058 
L 731.682575 353.2239 
L 741.079725 353.2239 
L 750.476875 353.2239 
L 759.874025 353.2239 
L 769.271175 353.2239 
L 778.668325 353.2239 
L 788.065475 353.2239 
L 797.462625 353.2239 
L 806.859775 353.2239 
L 816.256925 353.2239 
L 825.654075 353.2239 
L 835.051225 353.2239 
L 844.448375 353.2239 
L 853.845525 353.2239 
L 863.242675 353.2239 
L 872.639825 353.2239 
L 882.036975 353.2239 
L 891.434125 353.2239 
L 900.831275 353.2239 
L 910.228425 353.2239 
L 919.625575 353.2239 
L 929.022725 353.2239 
L 938.419875 353.2239 
L 947.817025 353.2239 
L 957.214175 353.2239 
L 966.611325 353.2239 
L 976.008475 353.2239 
L 985.405625 353.213939 
" clip-path="url(#peb74faa90e)" style="fill: none; stroke: #f45b5b; stroke-linecap: square"/>
   </g>
   <g id="line2d_16">
    <path d="M 55.087775 353.2239 
L 64.484925 353.22252 
L 73.882075 353.22252 
L 83.279225 353.22114 
L 92.676375 353.22114 
L 102.073525 353.21838 
L 111.470675 353.212861 
L 120.867825 353.200442 
L 130.264975 353.197682 
L 139.662125 353.170084 
L 149.059275 353.056932 
L 158.456425 352.266251 
L 167.853575 350.512402 
L 177.250725 348.11138 
L 186.647875 343.465265 
L 196.045025 330.953735 
L 205.442175 307.211219 
L 214.839325 268.030411 
L 224.236475 215.009231 
L 233.633625 156.952806 
L 243.030775 106.045629 
L 252.427925 73.932655 
L 261.825075 65.410409 
L 271.222225 75.682365 
L 280.619375 80.535465 
L 290.016525 161.855581 
L 299.413675 176.432818 
L 308.810825 213.488584 
L 318.207975 246.390859 
L 327.605125 272.934567 
L 337.002275 294.300899 
L 346.399425 310.597488 
L 355.796575 321.949904 
L 365.193725 330.690175 
L 374.590875 336.13387 
L 383.988025 340.515044 
L 393.385175 343.183766 
L 402.782325 345.929762 
L 412.179475 348.006508 
L 421.576625 349.408484 
L 430.973775 350.637972 
L 440.370925 351.598381 
L 449.768075 352.208295 
L 459.165225 352.616745 
L 468.562375 352.833389 
L 477.959525 352.95482 
L 487.356675 353.011396 
L 496.753825 353.098329 
L 506.150975 353.146626 
L 515.548125 353.164564 
L 524.945275 353.199062 
L 534.342425 353.215621 
L 543.739575 353.211481 
L 553.136725 353.215621 
L 562.533875 353.215621 
L 571.931025 353.22114 
L 581.328175 353.22114 
L 590.725325 353.22114 
L 600.122475 353.22252 
L 609.519625 353.22114 
L 618.916775 353.2239 
L 628.313925 353.2239 
L 637.711075 353.2239 
L 647.108225 353.22252 
L 656.505375 353.2239 
L 665.902525 353.2239 
L 675.299675 353.217001 
L 684.696825 353.2239 
L 694.093975 353.2239 
L 703.491125 353.2239 
L 712.888275 353.2239 
L 722.285425 353.22252 
L 731.682575 353.2239 
L 741.079725 353.2239 
L 750.476875 353.21976 
L 759.874025 353.2239 
L 769.271175 353.2239 
L 778.668325 353.2239 
L 788.065475 353.2239 
L 797.462625 353.2239 
L 806.859775 353.2239 
L 816.256925 353.2239 
L 825.654075 353.2239 
L 835.051225 353.2239 
L 844.448375 353.2239 
L 853.845525 353.2239 
L 863.242675 353.2239 
L 872.639825 353.2239 
L 882.036975 353.2239 
L 891.434125 353.2239 
L 900.831275 353.2239 
L 910.228425 353.2239 
L 919.625575 353.2239 
L 929.022725 353.2239 
L 938.419875 353.2239 
L 947.817025 353.2239 
L 957.214175 353.2239 
L 966.611325 353.2239 
L 976.008475 353.2239 
L 985.405625 353.217001 
" clip-path="url(#peb74faa90e)" style="fill: none; stroke: #91e8e1; stroke-linecap: square"/>
   </g>
   <g id="line2d_17">
    <path d="M 55.087775 353.2239 
L 64.484925 353.2239 
L 73.882075 353.2239 
L 83.279225 353.216712 
L 92.676375 353.218149 
L 102.073525 353.218149 
L 111.470675 353.213836 
L 120.867825 353.20521 
L 130.264975 353.202335 
L 139.662125 353.187958 
L 149.059275 353.026936 
L 158.456425 352.243394 
L 167.853575 350.536855 
L 177.250725 348.992774 
L 186.647875 345.716276 
L 196.045025 336.835656 
L 205.442175 317.711486 
L 214.839325 283.708647 
L 224.236475 234.930655 
L 233.633625 178.284177 
L 243.030775 124.379377 
L 252.427925 85.045579 
L 261.825075 67.876669 
L 271.222225 72.70875 
L 280.619375 71.374572 
L 290.016525 151.938483 
L 299.413675 164.180425 
L 308.810825 202.483398 
L 318.207975 235.960042 
L 327.605125 264.623294 
L 337.002275 286.146972 
L 346.399425 303.187927 
L 355.796575 316.509576 
L 365.193725 326.144983 
L 374.590875 332.90357 
L 383.988025 337.333097 
L 393.385175 340.41407 
L 402.782325 343.694882 
L 412.179475 345.835604 
L 421.576625 347.898691 
L 430.973775 349.418331 
L 440.370925 350.735256 
L 449.768075 351.587807 
L 459.165225 352.346908 
L 468.562375 352.631571 
L 477.959525 352.782529 
L 487.356675 352.897544 
L 496.753825 353.011122 
L 506.150975 353.108885 
L 515.548125 353.121824 
L 524.945275 353.18652 
L 534.342425 353.193708 
L 543.739575 353.208085 
L 553.136725 353.209523 
L 562.533875 353.219587 
L 571.931025 353.219587 
L 581.328175 353.218149 
L 590.725325 353.222462 
L 600.122475 353.2239 
L 609.519625 353.222462 
L 618.916775 353.2239 
L 628.313925 353.2239 
L 637.711075 353.2239 
L 647.108225 353.2239 
L 656.505375 353.2239 
L 665.902525 353.2239 
L 675.299675 353.222462 
L 684.696825 353.2239 
L 694.093975 353.2239 
L 703.491125 353.2239 
L 712.888275 353.2239 
L 722.285425 353.2239 
L 731.682575 353.2239 
L 741.079725 353.2239 
L 750.476875 353.2239 
L 759.874025 353.2239 
L 769.271175 353.2239 
L 778.668325 353.2239 
L 788.065475 353.2239 
L 797.462625 353.222462 
L 806.859775 353.2239 
L 816.256925 353.2239 
L 825.654075 353.2239 
L 835.051225 353.2239 
L 844.448375 353.2239 
L 853.845525 353.2239 
L 863.242675 353.2239 
L 872.639825 353.2239 
L 882.036975 353.2239 
L 891.434125 353.2239 
L 900.831275 353.2239 
L 910.228425 353.2239 
L 919.625575 353.2239 
L 929.022725 353.2239 
L 938.419875 353.2239 
L 947.817025 353.2239 
L 957.214175 353.2239 
L 966.611325 353.2239 
L 976.008475 353.2239 
L 985.405625 353.219587 
" clip-path="url(#peb74faa90e)" style="fill: none; stroke: #7cb5ec; stroke-linecap: square"/>
   </g>
   <g id="line2d_18">
    <path d="M 55.087775 353.2239 
L 64.484925 353.223483 
L 73.882075 353.221817 
L 83.279225 353.220151 
L 92.676375 353.218485 
L 102.073525 353.213069 
L 111.470675 353.20932 
L 120.867825 353.193075 
L 130.264975 353.17183 
L 139.662125 353.10893 
L 149.059275 352.759853 
L 158.456425 351.281899 
L 167.853575 347.572852 
L 177.250725 340.775015 
L 186.647875 328.231154 
L 196.045025 305.51449 
L 205.442175 272.375087 
L 214.839325 230.820345 
L 224.236475 185.839401 
L 233.633625 145.643061 
L 243.030775 116.267274 
L 252.427925 101.474824 
L 261.825075 99.680285 
L 271.222225 112.15458 
L 280.619375 113.851228 
L 290.016525 182.826425 
L 299.413675 192.817608 
L 308.810825 223.830058 
L 318.207975 250.145381 
L 327.605125 273.041165 
L 337.002275 291.567656 
L 346.399425 306.375935 
L 355.796575 317.654288 
L 365.193725 326.291236 
L 374.590875 332.993264 
L 383.988025 337.787449 
L 393.385175 341.444843 
L 402.782325 344.471565 
L 412.179475 346.836791 
L 421.576625 348.648825 
L 430.973775 350.097203 
L 440.370925 351.114025 
L 449.768075 351.912154 
L 459.165225 352.404944 
L 468.562375 352.666127 
L 477.959525 352.86066 
L 487.356675 352.993959 
L 496.753825 353.06644 
L 506.150975 353.146836 
L 515.548125 353.145587 
L 524.945275 353.188909 
L 534.342425 353.20932 
L 543.739575 353.210987 
L 553.136725 353.213903 
L 562.533875 353.220568 
L 571.931025 353.221401 
L 581.328175 353.223067 
L 590.725325 353.220984 
L 600.122475 353.221817 
L 609.519625 353.220151 
L 618.916775 353.223483 
L 628.313925 353.223483 
L 637.711075 353.223067 
L 647.108225 353.2239 
L 656.505375 353.223483 
L 665.902525 353.2239 
L 675.299675 353.220568 
L 684.696825 353.2239 
L 694.093975 353.2239 
L 703.491125 353.2239 
L 712.888275 353.2239 
L 722.285425 353.223483 
L 731.682575 353.2239 
L 741.079725 353.223483 
L 750.476875 353.22265 
L 759.874025 353.2239 
L 769.271175 353.2239 
L 778.668325 353.2239 
L 788.065475 353.2239 
L 797.462625 353.223483 
L 806.859775 353.2239 
L 816.256925 353.2239 
L 825.654075 353.2239 
L 835.051225 353.2239 
L 844.448375 353.2239 
L 853.845525 353.2239 
L 863.242675 353.2239 
L 872.639825 353.2239 
L 882.036975 353.2239 
L 891.434125 353.2239 
L 900.831275 353.2239 
L 910.228425 353.2239 
L 919.625575 353.2239 
L 929.022725 353.2239 
L 938.419875 353.2239 
L 947.817025 353.2239 
L 957.214175 353.2239 
L 966.611325 353.2239 
L 976.008475 353.2239 
L 985.405625 353.214319 
" clip-path="url(#peb74faa90e)" style="fill: none; stroke: #434348; stroke-linecap: square"/>
   </g>
   <g id="line2d_19">
    <path d="M 55.087775 353.2239 
L 64.484925 353.222146 
L 73.882075 353.220392 
L 83.279225 353.2163 
L 92.676375 353.212793 
L 102.073525 353.212793 
L 111.470675 353.2087 
L 120.867825 353.195254 
L 130.264975 353.161932 
L 139.662125 353.106395 
L 149.059275 352.900614 
L 158.456425 351.764145 
L 167.853575 348.537133 
L 177.250725 341.332479 
L 186.647875 328.234436 
L 196.045025 305.200471 
L 205.442175 269.849494 
L 214.839325 223.616706 
L 224.236475 173.729562 
L 233.633625 128.872346 
L 243.030775 96.32162 
L 252.427925 81.41949 
L 261.825075 84.322047 
L 271.222225 100.544211 
L 280.619375 108.965425 
L 290.016525 184.003969 
L 299.413675 198.540721 
L 308.810825 233.006609 
L 318.207975 261.794242 
L 327.605125 285.420995 
L 337.002275 303.736624 
L 346.399425 317.567175 
L 355.796575 327.649248 
L 365.193725 334.739905 
L 374.590875 339.877985 
L 383.988025 343.366899 
L 393.385175 345.51181 
L 402.782325 347.522846 
L 412.179475 349.143367 
L 421.576625 350.300298 
L 430.973775 351.178372 
L 440.370925 351.903865 
L 449.768075 352.40604 
L 459.165225 352.71471 
L 468.562375 352.86963 
L 477.959525 353.004674 
L 487.356675 353.059042 
L 496.753825 353.126856 
L 506.150975 353.164855 
L 515.548125 353.17187 
L 524.945275 353.197008 
L 534.342425 353.211039 
L 543.739575 353.211039 
L 553.136725 353.218054 
L 562.533875 353.218054 
L 571.931025 353.219808 
L 581.328175 353.222731 
L 590.725325 353.222731 
L 600.122475 353.222146 
L 609.519625 353.220977 
L 618.916775 353.2239 
L 628.313925 353.223315 
L 637.711075 353.2239 
L 647.108225 353.222146 
L 656.505375 353.2239 
L 665.902525 353.2239 
L 675.299675 353.218054 
L 684.696825 353.2239 
L 694.093975 353.2239 
L 703.491125 353.2239 
L 712.888275 353.2239 
L 722.285425 353.223315 
L 731.682575 353.2239 
L 741.079725 353.2239 
L 750.476875 353.222731 
L 759.874025 353.2239 
L 769.271175 353.2239 
L 778.668325 353.2239 
L 788.065475 353.2239 
L 797.462625 353.223315 
L 806.859775 353.2239 
L 816.256925 353.2239 
L 825.654075 353.2239 
L 835.051225 353.2239 
L 844.448375 353.2239 
L 853.845525 353.2239 
L 863.242675 353.2239 
L 872.639825 353.2239 
L 882.036975 353.2239 
L 891.434125 353.2239 
L 900.831275 353.2239 
L 910.228425 353.2239 
L 919.625575 353.2239 
L 929.022725 353.2239 
L 938.419875 353.2239 
L 947.817025 353.2239 
L 957.214175 353.2239 
L 966.611325 353.2239 
L 976.008475 353.2239 
L 985.405625 353.216885 
" clip-path="url(#peb74faa90e)" style="fill: none; stroke: #90ed7d; stroke-linecap: square"/>
   </g>
   <g id="line2d_20">
    <path d="M 55.087775 353.2239 
L 64.484925 353.2239 
L 73.882075 353.222441 
L 83.279225 353.216604 
L 92.676375 353.216117 
L 102.073525 353.209794 
L 111.470675 353.206389 
L 120.867825 353.198607 
L 130.264975 353.174286 
L 139.662125 353.130023 
L 149.059275 352.93935 
L 158.456425 351.944156 
L 167.853575 348.900691 
L 177.250725 342.174619 
L 186.647875 330.270715 
L 196.045025 308.401252 
L 205.442175 274.677985 
L 214.839325 230.183177 
L 224.236475 180.994515 
L 233.633625 136.081395 
L 243.030775 104.133523 
L 252.427925 87.466697 
L 261.825075 86.954021 
L 271.222225 100.837612 
L 280.619375 105.695871 
L 290.016525 179.789679 
L 299.413675 193.634843 
L 308.810825 226.655248 
L 318.207975 255.972616 
L 327.605125 280.197275 
L 337.002275 299.147795 
L 346.399425 313.998367 
L 355.796575 324.522813 
L 365.193725 332.369087 
L 374.590875 338.034786 
L 383.988025 341.890555 
L 393.385175 344.742862 
L 402.782325 346.831991 
L 412.179475 348.710991 
L 421.576625 350.070993 
L 430.973775 351.058891 
L 440.370925 351.771967 
L 449.768075 352.289021 
L 459.165225 352.665988 
L 468.562375 352.843041 
L 477.959525 352.981182 
L 487.356675 353.059494 
L 496.753825 353.115431 
L 506.150975 353.155803 
L 515.548125 353.174286 
L 524.945275 353.198607 
L 534.342425 353.213199 
L 543.739575 353.215631 
L 553.136725 353.215145 
L 562.533875 353.220009 
L 571.931025 353.220982 
L 581.328175 353.222441 
L 590.725325 353.221954 
L 600.122475 353.223414 
L 609.519625 353.222927 
L 618.916775 353.2239 
L 628.313925 353.223414 
L 637.711075 353.223414 
L 647.108225 353.222927 
L 656.505375 353.2239 
L 665.902525 353.2239 
L 675.299675 353.218063 
L 684.696825 353.2239 
L 694.093975 353.2239 
L 703.491125 353.2239 
L 712.888275 353.2239 
L 722.285425 353.222441 
L 731.682575 353.2239 
L 741.079725 353.2239 
L 750.476875 353.222927 
L 759.874025 353.2239 
L 769.271175 353.2239 
L 778.668325 353.2239 
L 788.065475 353.2239 
L 797.462625 353.2239 
L 806.859775 353.2239 
L 816.256925 353.2239 
L 825.654075 353.2239 
L 835.051225 353.223414 
L 844.448375 353.2239 
L 853.845525 353.223414 
L 863.242675 353.2239 
L 872.639825 353.2239 
L 882.036975 353.2239 
L 891.434125 353.2239 
L 900.831275 353.2239 
L 910.228425 353.2239 
L 919.625575 353.2239 
L 929.022725 353.2239 
L 938.419875 353.2239 
L 947.817025 353.2239 
L 957.214175 353.2239 
L 966.611325 353.2239 
L 976.008475 353.2239 
L 985.405625 353.217577 
" clip-path="url(#peb74faa90e)" style="fill: none; stroke: #f7a35c; stroke-linecap: square"/>
   </g>
   <g id="line2d_21">
    <path d="M 55.087775 353.2239 
L 64.484925 353.223509 
L 73.882075 353.220377 
L 83.279225 353.219594 
L 92.676375 353.216854 
L 102.073525 353.210982 
L 111.470675 353.207459 
L 120.867825 353.196889 
L 130.264975 353.171444 
L 139.662125 353.112333 
L 149.059275 352.751012 
L 158.456425 351.146011 
L 167.853575 347.396182 
L 177.250725 341.106536 
L 186.647875 328.826324 
L 196.045025 306.120262 
L 205.442175 272.808669 
L 214.839325 230.457399 
L 224.236475 183.884586 
L 233.633625 142.498273 
L 243.030775 113.218364 
L 252.427925 97.540639 
L 261.825075 97.002376 
L 271.222225 108.949845 
L 280.619375 111.365566 
L 290.016525 182.190331 
L 299.413675 193.634378 
L 308.810825 224.738899 
L 318.207975 251.916258 
L 327.605125 274.946843 
L 337.002275 293.341325 
L 346.399425 308.063879 
L 355.796575 319.19632 
L 365.193725 327.886028 
L 374.590875 334.412509 
L 383.988025 339.034128 
L 393.385175 342.480574 
L 402.782325 345.484665 
L 412.179475 347.698392 
L 421.576625 349.315136 
L 430.973775 350.564688 
L 440.370925 351.593846 
L 449.768075 352.157945 
L 459.165225 352.527095 
L 468.562375 352.776849 
L 477.959525 352.933043 
L 487.356675 353.010161 
L 496.753825 353.100198 
L 506.150975 353.153828 
L 515.548125 353.160483 
L 524.945275 353.189451 
L 534.342425 353.209416 
L 543.739575 353.209416 
L 553.136725 353.212548 
L 562.533875 353.218028 
L 571.931025 353.219594 
L 581.328175 353.221943 
L 590.725325 353.221943 
L 600.122475 353.222726 
L 609.519625 353.219985 
L 618.916775 353.223509 
L 628.313925 353.223509 
L 637.711075 353.221551 
L 647.108225 353.223509 
L 656.505375 353.223117 
L 665.902525 353.2239 
L 675.299675 353.219594 
L 684.696825 353.2239 
L 694.093975 353.2239 
L 703.491125 353.223509 
L 712.888275 353.2239 
L 722.285425 353.222726 
L 731.682575 353.2239 
L 741.079725 353.2239 
L 750.476875 353.223509 
L 759.874025 353.2239 
L 769.271175 353.2239 
L 778.668325 353.2239 
L 788.065475 353.2239 
L 797.462625 353.2239 
L 806.859775 353.2239 
L 816.256925 353.2239 
L 825.654075 353.2239 
L 835.051225 353.223509 
L 844.448375 353.2239 
L 853.845525 353.2239 
L 863.242675 353.2239 
L 872.639825 353.2239 
L 882.036975 353.2239 
L 891.434125 353.2239 
L 900.831275 353.2239 
L 910.228425 353.2239 
L 919.625575 353.2239 
L 929.022725 353.2239 
L 938.419875 353.2239 
L 947.817025 353.2239 
L 957.214175 353.2239 
L 966.611325 353.2239 
L 976.008475 353.2239 
L 985.405625 353.216071 
" clip-path="url(#peb74faa90e)" style="fill: none; stroke: #8085e9; stroke-linecap: square"/>
   </g>
   <g id="line2d_22">
    <path d="M 55.087775 353.2239 
L 64.484925 353.2239 
L 73.882075 353.219926 
L 83.279225 353.219132 
L 92.676375 353.21635 
L 102.073525 353.212377 
L 111.470675 353.207608 
L 120.867825 353.192112 
L 130.264975 353.181383 
L 139.662125 353.14721 
L 149.059275 352.955288 
L 158.456425 352.108126 
L 167.853575 349.483992 
L 177.250725 343.419554 
L 186.647875 331.607372 
L 196.045025 310.48436 
L 205.442175 277.908772 
L 214.839325 235.428307 
L 224.236475 189.02833 
L 233.633625 145.260831 
L 243.030775 114.127643 
L 252.427925 96.505331 
L 261.825075 92.809529 
L 271.222225 103.471765 
L 280.619375 103.50554 
L 290.016525 175.691892 
L 299.413675 187.510035 
L 308.810825 219.841647 
L 318.207975 248.936005 
L 327.605125 273.783031 
L 337.002275 293.542718 
L 346.399425 308.859176 
L 355.796575 320.703147 
L 365.193725 329.282843 
L 374.590875 335.661191 
L 383.988025 340.142565 
L 393.385175 343.592007 
L 402.782325 345.948324 
L 412.179475 348.060267 
L 421.576625 349.481607 
L 430.973775 350.738045 
L 440.370925 351.558981 
L 449.768075 352.184418 
L 459.165225 352.555151 
L 468.562375 352.790385 
L 477.959525 352.932639 
L 487.356675 353.022838 
L 496.753825 353.097541 
L 506.150975 353.15476 
L 515.548125 353.163899 
L 524.945275 353.192112 
L 534.342425 353.210787 
L 543.739575 353.213569 
L 553.136725 353.214363 
L 562.533875 353.215556 
L 571.931025 353.219132 
L 581.328175 353.222311 
L 590.725325 353.220324 
L 600.122475 353.222311 
L 609.519625 353.221913 
L 618.916775 353.2239 
L 628.313925 353.223503 
L 637.711075 353.223503 
L 647.108225 353.2239 
L 656.505375 353.2239 
L 665.902525 353.2239 
L 675.299675 353.216748 
L 684.696825 353.2239 
L 694.093975 353.2239 
L 703.491125 353.223503 
L 712.888275 353.2239 
L 722.285425 353.2239 
L 731.682575 353.2239 
L 741.079725 353.2239 
L 750.476875 353.221516 
L 759.874025 353.2239 
L 769.271175 353.2239 
L 778.668325 353.2239 
L 788.065475 353.2239 
L 797.462625 353.2239 
L 806.859775 353.2239 
L 816.256925 353.2239 
L 825.654075 353.2239 
L 835.051225 353.2239 
L 844.448375 353.2239 
L 853.845525 353.2239 
L 863.242675 353.2239 
L 872.639825 353.2239 
L 882.036975 353.2239 
L 891.434125 353.2239 
L 900.831275 353.2239 
L 910.228425 353.2239 
L 919.625575 353.2239 
L 929.022725 353.2239 
L 938.419875 353.2239 
L 947.817025 353.2239 
L 957.214175 353.2239 
L 966.611325 353.2239 
L 976.008475 353.2239 
L 985.405625 353.21794 
" clip-path="url(#peb74faa90e)" style="fill: none; stroke: #f15c80; stroke-linecap: square"/>
   </g>
   <g id="line2d_23">
    <path d="M 55.087775 353.2239 
L 64.484925 353.2239 
L 73.882075 353.222312 
L 83.279225 353.215959 
L 92.676375 353.217547 
L 102.073525 353.211194 
L 111.470675 353.201665 
L 120.867825 353.204841 
L 130.264975 353.20643 
L 139.662125 353.147665 
L 149.059275 352.845903 
L 158.456425 351.610265 
L 167.853575 349.218401 
L 177.250725 345.945073 
L 186.647875 338.210425 
L 196.045025 321.422906 
L 205.442175 292.510889 
L 214.839325 249.28104 
L 224.236475 196.556792 
L 233.633625 143.222667 
L 243.030775 101.507982 
L 252.427925 78.721743 
L 261.825075 75.605649 
L 271.222225 91.481529 
L 280.619375 96.975193 
L 290.016525 173.938905 
L 299.413675 188.896791 
L 308.810825 223.208767 
L 318.207975 252.824366 
L 327.605125 276.995536 
L 337.002275 296.781621 
L 346.399425 310.794515 
L 355.796575 322.159841 
L 365.193725 329.899253 
L 374.590875 336.042501 
L 383.988025 340.11947 
L 393.385175 342.668568 
L 402.782325 345.224019 
L 412.179475 347.171181 
L 421.576625 348.811816 
L 430.973775 350.225334 
L 440.370925 351.175092 
L 449.768075 351.838969 
L 459.165225 352.475847 
L 468.562375 352.679139 
L 477.959525 352.917373 
L 487.356675 352.974549 
L 496.753825 353.082548 
L 506.150975 353.134959 
L 515.548125 353.15243 
L 524.945275 353.195312 
L 534.342425 353.211194 
L 543.739575 353.208018 
L 553.136725 353.215959 
L 562.533875 353.220724 
L 571.931025 353.220724 
L 581.328175 353.219135 
L 590.725325 353.220724 
L 600.122475 353.220724 
L 609.519625 353.214371 
L 618.916775 353.222312 
L 628.313925 353.2239 
L 637.711075 353.220724 
L 647.108225 353.2239 
L 656.505375 353.2239 
L 665.902525 353.2239 
L 675.299675 353.220724 
L 684.696825 353.2239 
L 694.093975 353.2239 
L 703.491125 353.2239 
L 712.888275 353.2239 
L 722.285425 353.2239 
L 731.682575 353.2239 
L 741.079725 353.2239 
L 750.476875 353.2239 
L 759.874025 353.2239 
L 769.271175 353.2239 
L 778.668325 353.2239 
L 788.065475 353.2239 
L 797.462625 353.2239 
L 806.859775 353.2239 
L 816.256925 353.2239 
L 825.654075 353.2239 
L 835.051225 353.2239 
L 844.448375 353.2239 
L 853.845525 353.2239 
L 863.242675 353.2239 
L 872.639825 353.2239 
L 882.036975 353.2239 
L 891.434125 353.2239 
L 900.831275 353.2239 
L 910.228425 353.2239 
L 919.625575 353.2239 
L 929.022725 353.2239 
L 938.419875 353.2239 
L 947.817025 353.2239 
L 957.214175 353.2239 
L 966.611325 353.2239 
L 976.008475 353.2239 
L 985.405625 353.219135 
" clip-path="url(#peb74faa90e)" style="fill: none; stroke: #e4d354; stroke-linecap: square"/>
   </g>
   <g id="line2d_24">
    <path d="M 55.087775 353.2239 
L 64.484925 353.2239 
L 73.882075 353.2239 
L 83.279225 353.2239 
L 92.676375 353.2239 
L 102.073525 353.2239 
L 111.470675 353.2239 
L 120.867825 353.2239 
L 130.264975 353.2239 
L 139.662125 353.2239 
L 149.059275 353.2239 
L 158.456425 353.2239 
L 167.853575 353.2239 
L 177.250725 353.2239 
L 186.647875 353.2239 
L 196.045025 353.2239 
L 205.442175 353.221115 
L 214.839325 353.21833 
L 224.236475 353.21833 
L 233.633625 353.21833 
L 243.030775 353.21276 
L 252.427925 353.201621 
L 261.825075 353.148707 
L 271.222225 352.989967 
L 280.619375 352.661347 
L 290.016525 351.91499 
L 299.413675 350.335944 
L 308.810825 347.768252 
L 318.207975 343.162004 
L 327.605125 336.171868 
L 337.002275 327.081907 
L 346.399425 314.800434 
L 355.796575 299.310739 
L 365.193725 280.256354 
L 374.590875 258.820866 
L 383.988025 232.806979 
L 393.385175 205.163917 
L 402.782325 179.400673 
L 412.179475 177.097549 
L 421.576625 178.386964 
L 430.973775 169.271939 
L 440.370925 161.365566 
L 449.768075 163.958322 
L 459.165225 172.14597 
L 468.562375 185.240639 
L 477.959525 205.695836 
L 487.356675 226.802704 
L 496.753825 247.088021 
L 506.150975 267.217384 
L 515.548125 285.065901 
L 524.945275 299.455555 
L 534.342425 311.065863 
L 543.739575 320.94117 
L 553.136725 328.956155 
L 562.533875 335.144235 
L 571.931025 340.18493 
L 581.328175 343.927855 
L 590.725325 346.902144 
L 600.122475 348.678919 
L 609.519625 349.934916 
L 618.916775 350.876217 
L 628.313925 351.383071 
L 637.711075 351.60308 
L 647.108225 351.945624 
L 656.505375 352.148923 
L 665.902525 352.380071 
L 675.299675 352.488683 
L 684.696825 352.664132 
L 694.093975 352.708691 
L 703.491125 352.817302 
L 712.888275 352.898065 
L 722.285425 352.931484 
L 731.682575 353.009462 
L 741.079725 353.04845 
L 750.476875 353.079084 
L 759.874025 353.134783 
L 769.271175 353.154277 
L 778.668325 353.176556 
L 788.065475 353.176556 
L 797.462625 353.209975 
L 806.859775 353.2239 
L 816.256925 353.2239 
L 825.654075 353.2239 
L 835.051225 353.2239 
L 844.448375 353.2239 
L 853.845525 353.2239 
L 863.242675 353.2239 
L 872.639825 353.2239 
L 882.036975 353.2239 
L 891.434125 353.2239 
L 900.831275 353.2239 
L 910.228425 353.2239 
L 919.625575 353.2239 
L 929.022725 353.2239 
L 938.419875 353.2239 
L 947.817025 353.2239 
L 957.214175 353.2239 
L 966.611325 353.2239 
L 976.008475 353.2239 
L 985.405625 353.2239 
" clip-path="url(#peb74faa90e)" style="fill: none; stroke-dasharray: 3.7,1.6; stroke-dashoffset: 0; stroke: #000000"/>
   </g>
   <g id="line2d_25">
    <path d="M 45.690625 353.2239 
L 985.405625 353.2239 
" clip-path="url(#peb74faa90e)" style="fill: none; stroke: #dedede; stroke-width: 2; stroke-linecap: square"/>
   </g>
   <g id="text_15">
    <!-- Qualimap BamQC: GC content distribution -->
    <g transform="translate(346.124375 19.3575)scale(0.16 -0.16)">
     <defs>
      <path id="DejaVuSans-51" d="M 2522 4238 
Q 1834 4238 1429 3725 
Q 1025 3213 1025 2328 
Q 1025 1447 1429 934 
Q 1834 422 2522 422 
Q 3209 422 3611 934 
Q 4013 1447 4013 2328 
Q 4013 3213 3611 3725 
Q 3209 4238 2522 4238 
z
M 3406 84 
L 4238 -825 
L 3475 -825 
L 2784 -78 
Q 2681 -84 2626 -87 
Q 2572 -91 2522 -91 
Q 1538 -91 948 567 
Q 359 1225 359 2328 
Q 359 3434 948 4092 
Q 1538 4750 2522 4750 
Q 3503 4750 4090 4092 
Q 4678 3434 4678 2328 
Q 4678 1516 4351 937 
Q 4025 359 3406 84 
z
" transform="scale(0.015625)"/>
      <path id="DejaVuSans-75" d="M 544 1381 
L 544 3500 
L 1119 3500 
L 1119 1403 
Q 1119 906 1312 657 
Q 1506 409 1894 409 
Q 2359 409 2629 706 
Q 2900 1003 2900 1516 
L 2900 3500 
L 3475 3500 
L 3475 0 
L 2900 0 
L 2900 538 
Q 2691 219 2414 64 
Q 2138 -91 1772 -91 
Q 1169 -91 856 284 
Q 544 659 544 1381 
z
M 1991 3584 
L 1991 3584 
z
" transform="scale(0.015625)"/>
      <path id="DejaVuSans-6c" d="M 603 4863 
L 1178 4863 
L 1178 0 
L 603 0 
L 603 4863 
z
" transform="scale(0.015625)"/>
      <path id="DejaVuSans-6d" d="M 3328 2828 
Q 3544 3216 3844 3400 
Q 4144 3584 4550 3584 
Q 5097 3584 5394 3201 
Q 5691 2819 5691 2113 
L 5691 0 
L 5113 0 
L 5113 2094 
Q 5113 2597 4934 2840 
Q 4756 3084 4391 3084 
Q 3944 3084 3684 2787 
Q 3425 2491 3425 1978 
L 3425 0 
L 2847 0 
L 2847 2094 
Q 2847 2600 2669 2842 
Q 2491 3084 2119 3084 
Q 1678 3084 1418 2786 
Q 1159 2488 1159 1978 
L 1159 0 
L 581 0 
L 581 3500 
L 1159 3500 
L 1159 2956 
Q 1356 3278 1631 3431 
Q 1906 3584 2284 3584 
Q 2666 3584 2933 3390 
Q 3200 3197 3328 2828 
z
" transform="scale(0.015625)"/>
      <path id="DejaVuSans-70" d="M 1159 525 
L 1159 -1331 
L 581 -1331 
L 581 3500 
L 1159 3500 
L 1159 2969 
Q 1341 3281 1617 3432 
Q 1894 3584 2278 3584 
Q 2916 3584 3314 3078 
Q 3713 2572 3713 1747 
Q 3713 922 3314 415 
Q 2916 -91 2278 -91 
Q 1894 -91 1617 61 
Q 1341 213 1159 525 
z
M 3116 1747 
Q 3116 2381 2855 2742 
Q 2594 3103 2138 3103 
Q 1681 3103 1420 2742 
Q 1159 2381 1159 1747 
Q 1159 1113 1420 752 
Q 1681 391 2138 391 
Q 2594 391 2855 752 
Q 3116 1113 3116 1747 
z
" transform="scale(0.015625)"/>
      <path id="DejaVuSans-42" d="M 1259 2228 
L 1259 519 
L 2272 519 
Q 2781 519 3026 730 
Q 3272 941 3272 1375 
Q 3272 1813 3026 2020 
Q 2781 2228 2272 2228 
L 1259 2228 
z
M 1259 4147 
L 1259 2741 
L 2194 2741 
Q 2656 2741 2882 2914 
Q 3109 3088 3109 3444 
Q 3109 3797 2882 3972 
Q 2656 4147 2194 4147 
L 1259 4147 
z
M 628 4666 
L 2241 4666 
Q 2963 4666 3353 4366 
Q 3744 4066 3744 3513 
Q 3744 3084 3544 2831 
Q 3344 2578 2956 2516 
Q 3422 2416 3680 2098 
Q 3938 1781 3938 1306 
Q 3938 681 3513 340 
Q 3088 0 2303 0 
L 628 0 
L 628 4666 
z
" transform="scale(0.015625)"/>
      <path id="DejaVuSans-3a" d="M 750 794 
L 1409 794 
L 1409 0 
L 750 0 
L 750 794 
z
M 750 3309 
L 1409 3309 
L 1409 2516 
L 750 2516 
L 750 3309 
z
" transform="scale(0.015625)"/>
      <path id="DejaVuSans-62" d="M 3116 1747 
Q 3116 2381 2855 2742 
Q 2594 3103 2138 3103 
Q 1681 3103 1420 2742 
Q 1159 2381 1159 1747 
Q 1159 1113 1420 752 
Q 1681 391 2138 391 
Q 2594 391 2855 752 
Q 3116 1113 3116 1747 
z
M 1159 2969 
Q 1341 3281 1617 3432 
Q 1894 3584 2278 3584 
Q 2916 3584 3314 3078 
Q 3713 2572 3713 1747 
Q 3713 922 3314 415 
Q 2916 -91 2278 -91 
Q 1894 -91 1617 61 
Q 1341 213 1159 525 
L 1159 0 
L 581 0 
L 581 4863 
L 1159 4863 
L 1159 2969 
z
" transform="scale(0.015625)"/>
     </defs>
     <use xlink:href="#DejaVuSans-51"/>
     <use xlink:href="#DejaVuSans-75" x="78.710938"/>
     <use xlink:href="#DejaVuSans-61" x="142.089844"/>
     <use xlink:href="#DejaVuSans-6c" x="203.369141"/>
     <use xlink:href="#DejaVuSans-69" x="231.152344"/>
     <use xlink:href="#DejaVuSans-6d" x="258.935547"/>
     <use xlink:href="#DejaVuSans-61" x="356.347656"/>
     <use xlink:href="#DejaVuSans-70" x="417.626953"/>
     <use xlink:href="#DejaVuSans-20" x="481.103516"/>
     <use xlink:href="#DejaVuSans-42" x="512.890625"/>
     <use xlink:href="#DejaVuSans-61" x="581.494141"/>
     <use xlink:href="#DejaVuSans-6d" x="642.773438"/>
     <use xlink:href="#DejaVuSans-51" x="740.185547"/>
     <use xlink:href="#DejaVuSans-43" x="818.896484"/>
     <use xlink:href="#DejaVuSans-3a" x="888.720703"/>
     <use xlink:href="#DejaVuSans-20" x="922.412109"/>
     <use xlink:href="#DejaVuSans-47" x="954.199219"/>
     <use xlink:href="#DejaVuSans-43" x="1031.689453"/>
     <use xlink:href="#DejaVuSans-20" x="1101.513672"/>
     <use xlink:href="#DejaVuSans-63" x="1133.300781"/>
     <use xlink:href="#DejaVuSans-6f" x="1188.28125"/>
     <use xlink:href="#DejaVuSans-6e" x="1249.462891"/>
     <use xlink:href="#DejaVuSans-74" x="1312.841797"/>
     <use xlink:href="#DejaVuSans-65" x="1352.050781"/>
     <use xlink:href="#DejaVuSans-6e" x="1413.574219"/>
     <use xlink:href="#DejaVuSans-74" x="1476.953125"/>
     <use xlink:href="#DejaVuSans-20" x="1516.162109"/>
     <use xlink:href="#DejaVuSans-64" x="1547.949219"/>
     <use xlink:href="#DejaVuSans-69" x="1611.425781"/>
     <use xlink:href="#DejaVuSans-73" x="1639.208984"/>
     <use xlink:href="#DejaVuSans-74" x="1691.308594"/>
     <use xlink:href="#DejaVuSans-72" x="1730.517578"/>
     <use xlink:href="#DejaVuSans-69" x="1771.630859"/>
     <use xlink:href="#DejaVuSans-62" x="1799.414062"/>
     <use xlink:href="#DejaVuSans-75" x="1862.890625"/>
     <use xlink:href="#DejaVuSans-74" x="1926.269531"/>
     <use xlink:href="#DejaVuSans-69" x="1965.478516"/>
     <use xlink:href="#DejaVuSans-6f" x="1993.261719"/>
     <use xlink:href="#DejaVuSans-6e" x="2054.443359"/>
    </g>
   </g>
  </g>
 </g>
 <defs>
  <clipPath id="peb74faa90e">
   <rect x="45.690625" y="35.2559" width="939.715" height="317.968"/>
  </clipPath>
 </defs>
</svg>
