<?xml version="1.0" encoding="utf-8" standalone="no"?>
<!DOCTYPE svg PUBLIC "-//W3C//DTD SVG 1.1//EN"
  "http://www.w3.org/Graphics/SVG/1.1/DTD/svg11.dtd">
<svg xmlns:xlink="http://www.w3.org/1999/xlink" width="1000.358125pt" height="388.844525pt" viewBox="0 0 1000.358125 388.844525" xmlns="http://www.w3.org/2000/svg" version="1.1">
 <metadata>
  <rdf:RDF xmlns:dc="http://purl.org/dc/elements/1.1/" xmlns:cc="http://creativecommons.org/ns#" xmlns:rdf="http://www.w3.org/1999/02/22-rdf-syntax-ns#">
   <cc:Work>
    <dc:type rdf:resource="http://purl.org/dc/dcmitype/StillImage"/>
    <dc:date>2023-04-18T05:57:05.799397</dc:date>
    <dc:format>image/svg+xml</dc:format>
    <dc:creator>
     <cc:Agent>
      <dc:title>Matplotlib v3.5.3, https://matplotlib.org/</dc:title>
     </cc:Agent>
    </dc:creator>
   </cc:Work>
  </rdf:RDF>
 </metadata>
 <defs>
  <style type="text/css">*{stroke-linejoin: round; stroke-linecap: butt}</style>
 </defs>
 <g id="figure_1">
  <g id="axes_1">
   <g id="patch_1">
    <path d="M 32.968125 353.2239 
L 993.158125 353.2239 
L 993.158125 35.2559 
L 32.968125 35.2559 
z
" style="fill: #ffffff"/>
   </g>
   <g id="patch_2">
    <path d="M 32.968125 -918.6481 
L 993.158125 -918.6481 
L 993.158125 -6006.1361 
L 32.968125 -6006.1361 
z
" clip-path="url(#pb5d69db51a)" style="fill: #e6c3c3"/>
   </g>
   <g id="patch_3">
    <path d="M 32.968125 35.2559 
L 993.158125 35.2559 
L 993.158125 -918.6481 
L 32.968125 -918.6481 
z
" clip-path="url(#pb5d69db51a)" style="fill: #e6dcc3"/>
   </g>
   <g id="patch_4">
    <path d="M 32.968125 353.2239 
L 993.158125 353.2239 
L 993.158125 35.2559 
L 32.968125 35.2559 
z
" clip-path="url(#pb5d69db51a)" style="fill: #c3e6c3"/>
   </g>
   <g id="matplotlib.axis_1">
    <g id="xtick_1">
     <g id="text_1">
      <!-- 0 -->
      <g transform="translate(30.423125 366.30265)scale(0.08 -0.08)">
       <defs>
        <path id="DejaVuSans-30" d="M 2034 4250 
Q 1547 4250 1301 3770 
Q 1056 3291 1056 2328 
Q 1056 1369 1301 889 
Q 1547 409 2034 409 
Q 2525 409 2770 889 
Q 3016 1369 3016 2328 
Q 3016 3291 2770 3770 
Q 2525 4250 2034 4250 
z
M 2034 4750 
Q 2819 4750 3233 4129 
Q 3647 3509 3647 2328 
Q 3647 1150 3233 529 
Q 2819 -91 2034 -91 
Q 1250 -91 836 529 
Q 422 1150 422 2328 
Q 422 3509 836 4129 
Q 1250 4750 2034 4750 
z
" transform="scale(0.015625)"/>
       </defs>
       <use xlink:href="#DejaVuSans-30"/>
      </g>
     </g>
    </g>
    <g id="xtick_2">
     <g id="text_2">
      <!-- 20 -->
      <g transform="translate(149.845734 366.30265)scale(0.08 -0.08)">
       <defs>
        <path id="DejaVuSans-32" d="M 1228 531 
L 3431 531 
L 3431 0 
L 469 0 
L 469 531 
Q 828 903 1448 1529 
Q 2069 2156 2228 2338 
Q 2531 2678 2651 2914 
Q 2772 3150 2772 3378 
Q 2772 3750 2511 3984 
Q 2250 4219 1831 4219 
Q 1534 4219 1204 4116 
Q 875 4013 500 3803 
L 500 4441 
Q 881 4594 1212 4672 
Q 1544 4750 1819 4750 
Q 2544 4750 2975 4387 
Q 3406 4025 3406 3419 
Q 3406 3131 3298 2873 
Q 3191 2616 2906 2266 
Q 2828 2175 2409 1742 
Q 1991 1309 1228 531 
z
" transform="scale(0.015625)"/>
       </defs>
       <use xlink:href="#DejaVuSans-32"/>
       <use xlink:href="#DejaVuSans-30" x="63.623047"/>
      </g>
     </g>
    </g>
    <g id="xtick_3">
     <g id="text_3">
      <!-- 40 -->
      <g transform="translate(271.813343 366.30265)scale(0.08 -0.08)">
       <defs>
        <path id="DejaVuSans-34" d="M 2419 4116 
L 825 1625 
L 2419 1625 
L 2419 4116 
z
M 2253 4666 
L 3047 4666 
L 3047 1625 
L 3713 1625 
L 3713 1100 
L 3047 1100 
L 3047 0 
L 2419 0 
L 2419 1100 
L 313 1100 
L 313 1709 
L 2253 4666 
z
" transform="scale(0.015625)"/>
       </defs>
       <use xlink:href="#DejaVuSans-34"/>
       <use xlink:href="#DejaVuSans-30" x="63.623047"/>
      </g>
     </g>
    </g>
    <g id="xtick_4">
     <g id="text_4">
      <!-- 60 -->
      <g transform="translate(393.780951 366.30265)scale(0.08 -0.08)">
       <defs>
        <path id="DejaVuSans-36" d="M 2113 2584 
Q 1688 2584 1439 2293 
Q 1191 2003 1191 1497 
Q 1191 994 1439 701 
Q 1688 409 2113 409 
Q 2538 409 2786 701 
Q 3034 994 3034 1497 
Q 3034 2003 2786 2293 
Q 2538 2584 2113 2584 
z
M 3366 4563 
L 3366 3988 
Q 3128 4100 2886 4159 
Q 2644 4219 2406 4219 
Q 1781 4219 1451 3797 
Q 1122 3375 1075 2522 
Q 1259 2794 1537 2939 
Q 1816 3084 2150 3084 
Q 2853 3084 3261 2657 
Q 3669 2231 3669 1497 
Q 3669 778 3244 343 
Q 2819 -91 2113 -91 
Q 1303 -91 875 529 
Q 447 1150 447 2328 
Q 447 3434 972 4092 
Q 1497 4750 2381 4750 
Q 2619 4750 2861 4703 
Q 3103 4656 3366 4563 
z
" transform="scale(0.015625)"/>
       </defs>
       <use xlink:href="#DejaVuSans-36"/>
       <use xlink:href="#DejaVuSans-30" x="63.623047"/>
      </g>
     </g>
    </g>
    <g id="xtick_5">
     <g id="text_5">
      <!-- 80 -->
      <g transform="translate(515.74856 366.30265)scale(0.08 -0.08)">
       <defs>
        <path id="DejaVuSans-38" d="M 2034 2216 
Q 1584 2216 1326 1975 
Q 1069 1734 1069 1313 
Q 1069 891 1326 650 
Q 1584 409 2034 409 
Q 2484 409 2743 651 
Q 3003 894 3003 1313 
Q 3003 1734 2745 1975 
Q 2488 2216 2034 2216 
z
M 1403 2484 
Q 997 2584 770 2862 
Q 544 3141 544 3541 
Q 544 4100 942 4425 
Q 1341 4750 2034 4750 
Q 2731 4750 3128 4425 
Q 3525 4100 3525 3541 
Q 3525 3141 3298 2862 
Q 3072 2584 2669 2484 
Q 3125 2378 3379 2068 
Q 3634 1759 3634 1313 
Q 3634 634 3220 271 
Q 2806 -91 2034 -91 
Q 1263 -91 848 271 
Q 434 634 434 1313 
Q 434 1759 690 2068 
Q 947 2378 1403 2484 
z
M 1172 3481 
Q 1172 3119 1398 2916 
Q 1625 2713 2034 2713 
Q 2441 2713 2670 2916 
Q 2900 3119 2900 3481 
Q 2900 3844 2670 4047 
Q 2441 4250 2034 4250 
Q 1625 4250 1398 4047 
Q 1172 3844 1172 3481 
z
" transform="scale(0.015625)"/>
       </defs>
       <use xlink:href="#DejaVuSans-38"/>
       <use xlink:href="#DejaVuSans-30" x="63.623047"/>
      </g>
     </g>
    </g>
    <g id="xtick_6">
     <g id="text_6">
      <!-- 100 -->
      <g transform="translate(635.171169 366.30265)scale(0.08 -0.08)">
       <defs>
        <path id="DejaVuSans-31" d="M 794 531 
L 1825 531 
L 1825 4091 
L 703 3866 
L 703 4441 
L 1819 4666 
L 2450 4666 
L 2450 531 
L 3481 531 
L 3481 0 
L 794 0 
L 794 531 
z
" transform="scale(0.015625)"/>
       </defs>
       <use xlink:href="#DejaVuSans-31"/>
       <use xlink:href="#DejaVuSans-30" x="63.623047"/>
       <use xlink:href="#DejaVuSans-30" x="127.246094"/>
      </g>
     </g>
    </g>
    <g id="xtick_7">
     <g id="text_7">
      <!-- 120 -->
      <g transform="translate(757.138778 366.30265)scale(0.08 -0.08)">
       <use xlink:href="#DejaVuSans-31"/>
       <use xlink:href="#DejaVuSans-32" x="63.623047"/>
       <use xlink:href="#DejaVuSans-30" x="127.246094"/>
      </g>
     </g>
    </g>
    <g id="xtick_8">
     <g id="text_8">
      <!-- 140 -->
      <g transform="translate(879.106386 366.30265)scale(0.08 -0.08)">
       <use xlink:href="#DejaVuSans-31"/>
       <use xlink:href="#DejaVuSans-34" x="63.623047"/>
       <use xlink:href="#DejaVuSans-30" x="127.246094"/>
      </g>
     </g>
    </g>
    <g id="text_9">
     <!-- Position in Read (bp) -->
     <g transform="translate(461.46 379.564837)scale(0.1 -0.1)">
      <defs>
       <path id="DejaVuSans-50" d="M 1259 4147 
L 1259 2394 
L 2053 2394 
Q 2494 2394 2734 2622 
Q 2975 2850 2975 3272 
Q 2975 3691 2734 3919 
Q 2494 4147 2053 4147 
L 1259 4147 
z
M 628 4666 
L 2053 4666 
Q 2838 4666 3239 4311 
Q 3641 3956 3641 3272 
Q 3641 2581 3239 2228 
Q 2838 1875 2053 1875 
L 1259 1875 
L 1259 0 
L 628 0 
L 628 4666 
z
" transform="scale(0.015625)"/>
       <path id="DejaVuSans-6f" d="M 1959 3097 
Q 1497 3097 1228 2736 
Q 959 2375 959 1747 
Q 959 1119 1226 758 
Q 1494 397 1959 397 
Q 2419 397 2687 759 
Q 2956 1122 2956 1747 
Q 2956 2369 2687 2733 
Q 2419 3097 1959 3097 
z
M 1959 3584 
Q 2709 3584 3137 3096 
Q 3566 2609 3566 1747 
Q 3566 888 3137 398 
Q 2709 -91 1959 -91 
Q 1206 -91 779 398 
Q 353 888 353 1747 
Q 353 2609 779 3096 
Q 1206 3584 1959 3584 
z
" transform="scale(0.015625)"/>
       <path id="DejaVuSans-73" d="M 2834 3397 
L 2834 2853 
Q 2591 2978 2328 3040 
Q 2066 3103 1784 3103 
Q 1356 3103 1142 2972 
Q 928 2841 928 2578 
Q 928 2378 1081 2264 
Q 1234 2150 1697 2047 
L 1894 2003 
Q 2506 1872 2764 1633 
Q 3022 1394 3022 966 
Q 3022 478 2636 193 
Q 2250 -91 1575 -91 
Q 1294 -91 989 -36 
Q 684 19 347 128 
L 347 722 
Q 666 556 975 473 
Q 1284 391 1588 391 
Q 1994 391 2212 530 
Q 2431 669 2431 922 
Q 2431 1156 2273 1281 
Q 2116 1406 1581 1522 
L 1381 1569 
Q 847 1681 609 1914 
Q 372 2147 372 2553 
Q 372 3047 722 3315 
Q 1072 3584 1716 3584 
Q 2034 3584 2315 3537 
Q 2597 3491 2834 3397 
z
" transform="scale(0.015625)"/>
       <path id="DejaVuSans-69" d="M 603 3500 
L 1178 3500 
L 1178 0 
L 603 0 
L 603 3500 
z
M 603 4863 
L 1178 4863 
L 1178 4134 
L 603 4134 
L 603 4863 
z
" transform="scale(0.015625)"/>
       <path id="DejaVuSans-74" d="M 1172 4494 
L 1172 3500 
L 2356 3500 
L 2356 3053 
L 1172 3053 
L 1172 1153 
Q 1172 725 1289 603 
Q 1406 481 1766 481 
L 2356 481 
L 2356 0 
L 1766 0 
Q 1100 0 847 248 
Q 594 497 594 1153 
L 594 3053 
L 172 3053 
L 172 3500 
L 594 3500 
L 594 4494 
L 1172 4494 
z
" transform="scale(0.015625)"/>
       <path id="DejaVuSans-6e" d="M 3513 2113 
L 3513 0 
L 2938 0 
L 2938 2094 
Q 2938 2591 2744 2837 
Q 2550 3084 2163 3084 
Q 1697 3084 1428 2787 
Q 1159 2491 1159 1978 
L 1159 0 
L 581 0 
L 581 3500 
L 1159 3500 
L 1159 2956 
Q 1366 3272 1645 3428 
Q 1925 3584 2291 3584 
Q 2894 3584 3203 3211 
Q 3513 2838 3513 2113 
z
" transform="scale(0.015625)"/>
       <path id="DejaVuSans-20" transform="scale(0.015625)"/>
       <path id="DejaVuSans-52" d="M 2841 2188 
Q 3044 2119 3236 1894 
Q 3428 1669 3622 1275 
L 4263 0 
L 3584 0 
L 2988 1197 
Q 2756 1666 2539 1819 
Q 2322 1972 1947 1972 
L 1259 1972 
L 1259 0 
L 628 0 
L 628 4666 
L 2053 4666 
Q 2853 4666 3247 4331 
Q 3641 3997 3641 3322 
Q 3641 2881 3436 2590 
Q 3231 2300 2841 2188 
z
M 1259 4147 
L 1259 2491 
L 2053 2491 
Q 2509 2491 2742 2702 
Q 2975 2913 2975 3322 
Q 2975 3731 2742 3939 
Q 2509 4147 2053 4147 
L 1259 4147 
z
" transform="scale(0.015625)"/>
       <path id="DejaVuSans-65" d="M 3597 1894 
L 3597 1613 
L 953 1613 
Q 991 1019 1311 708 
Q 1631 397 2203 397 
Q 2534 397 2845 478 
Q 3156 559 3463 722 
L 3463 178 
Q 3153 47 2828 -22 
Q 2503 -91 2169 -91 
Q 1331 -91 842 396 
Q 353 884 353 1716 
Q 353 2575 817 3079 
Q 1281 3584 2069 3584 
Q 2775 3584 3186 3129 
Q 3597 2675 3597 1894 
z
M 3022 2063 
Q 3016 2534 2758 2815 
Q 2500 3097 2075 3097 
Q 1594 3097 1305 2825 
Q 1016 2553 972 2059 
L 3022 2063 
z
" transform="scale(0.015625)"/>
       <path id="DejaVuSans-61" d="M 2194 1759 
Q 1497 1759 1228 1600 
Q 959 1441 959 1056 
Q 959 750 1161 570 
Q 1363 391 1709 391 
Q 2188 391 2477 730 
Q 2766 1069 2766 1631 
L 2766 1759 
L 2194 1759 
z
M 3341 1997 
L 3341 0 
L 2766 0 
L 2766 531 
Q 2569 213 2275 61 
Q 1981 -91 1556 -91 
Q 1019 -91 701 211 
Q 384 513 384 1019 
Q 384 1609 779 1909 
Q 1175 2209 1959 2209 
L 2766 2209 
L 2766 2266 
Q 2766 2663 2505 2880 
Q 2244 3097 1772 3097 
Q 1472 3097 1187 3025 
Q 903 2953 641 2809 
L 641 3341 
Q 956 3463 1253 3523 
Q 1550 3584 1831 3584 
Q 2591 3584 2966 3190 
Q 3341 2797 3341 1997 
z
" transform="scale(0.015625)"/>
       <path id="DejaVuSans-64" d="M 2906 2969 
L 2906 4863 
L 3481 4863 
L 3481 0 
L 2906 0 
L 2906 525 
Q 2725 213 2448 61 
Q 2172 -91 1784 -91 
Q 1150 -91 751 415 
Q 353 922 353 1747 
Q 353 2572 751 3078 
Q 1150 3584 1784 3584 
Q 2172 3584 2448 3432 
Q 2725 3281 2906 2969 
z
M 947 1747 
Q 947 1113 1208 752 
Q 1469 391 1925 391 
Q 2381 391 2643 752 
Q 2906 1113 2906 1747 
Q 2906 2381 2643 2742 
Q 2381 3103 1925 3103 
Q 1469 3103 1208 2742 
Q 947 2381 947 1747 
z
" transform="scale(0.015625)"/>
       <path id="DejaVuSans-28" d="M 1984 4856 
Q 1566 4138 1362 3434 
Q 1159 2731 1159 2009 
Q 1159 1288 1364 580 
Q 1569 -128 1984 -844 
L 1484 -844 
Q 1016 -109 783 600 
Q 550 1309 550 2009 
Q 550 2706 781 3412 
Q 1013 4119 1484 4856 
L 1984 4856 
z
" transform="scale(0.015625)"/>
       <path id="DejaVuSans-62" d="M 3116 1747 
Q 3116 2381 2855 2742 
Q 2594 3103 2138 3103 
Q 1681 3103 1420 2742 
Q 1159 2381 1159 1747 
Q 1159 1113 1420 752 
Q 1681 391 2138 391 
Q 2594 391 2855 752 
Q 3116 1113 3116 1747 
z
M 1159 2969 
Q 1341 3281 1617 3432 
Q 1894 3584 2278 3584 
Q 2916 3584 3314 3078 
Q 3713 2572 3713 1747 
Q 3713 922 3314 415 
Q 2916 -91 2278 -91 
Q 1894 -91 1617 61 
Q 1341 213 1159 525 
L 1159 0 
L 581 0 
L 581 4863 
L 1159 4863 
L 1159 2969 
z
" transform="scale(0.015625)"/>
       <path id="DejaVuSans-70" d="M 1159 525 
L 1159 -1331 
L 581 -1331 
L 581 3500 
L 1159 3500 
L 1159 2969 
Q 1341 3281 1617 3432 
Q 1894 3584 2278 3584 
Q 2916 3584 3314 3078 
Q 3713 2572 3713 1747 
Q 3713 922 3314 415 
Q 2916 -91 2278 -91 
Q 1894 -91 1617 61 
Q 1341 213 1159 525 
z
M 3116 1747 
Q 3116 2381 2855 2742 
Q 2594 3103 2138 3103 
Q 1681 3103 1420 2742 
Q 1159 2381 1159 1747 
Q 1159 1113 1420 752 
Q 1681 391 2138 391 
Q 2594 391 2855 752 
Q 3116 1113 3116 1747 
z
" transform="scale(0.015625)"/>
       <path id="DejaVuSans-29" d="M 513 4856 
L 1013 4856 
Q 1481 4119 1714 3412 
Q 1947 2706 1947 2009 
Q 1947 1309 1714 600 
Q 1481 -109 1013 -844 
L 513 -844 
Q 928 -128 1133 580 
Q 1338 1288 1338 2009 
Q 1338 2731 1133 3434 
Q 928 4138 513 4856 
z
" transform="scale(0.015625)"/>
      </defs>
      <use xlink:href="#DejaVuSans-50"/>
      <use xlink:href="#DejaVuSans-6f" x="56.677734"/>
      <use xlink:href="#DejaVuSans-73" x="117.859375"/>
      <use xlink:href="#DejaVuSans-69" x="169.958984"/>
      <use xlink:href="#DejaVuSans-74" x="197.742188"/>
      <use xlink:href="#DejaVuSans-69" x="236.951172"/>
      <use xlink:href="#DejaVuSans-6f" x="264.734375"/>
      <use xlink:href="#DejaVuSans-6e" x="325.916016"/>
      <use xlink:href="#DejaVuSans-20" x="389.294922"/>
      <use xlink:href="#DejaVuSans-69" x="421.082031"/>
      <use xlink:href="#DejaVuSans-6e" x="448.865234"/>
      <use xlink:href="#DejaVuSans-20" x="512.244141"/>
      <use xlink:href="#DejaVuSans-52" x="544.03125"/>
      <use xlink:href="#DejaVuSans-65" x="609.013672"/>
      <use xlink:href="#DejaVuSans-61" x="670.537109"/>
      <use xlink:href="#DejaVuSans-64" x="731.816406"/>
      <use xlink:href="#DejaVuSans-20" x="795.292969"/>
      <use xlink:href="#DejaVuSans-28" x="827.080078"/>
      <use xlink:href="#DejaVuSans-62" x="866.09375"/>
      <use xlink:href="#DejaVuSans-70" x="929.570312"/>
      <use xlink:href="#DejaVuSans-29" x="993.046875"/>
     </g>
    </g>
   </g>
   <g id="matplotlib.axis_2">
    <g id="ytick_1">
     <g id="line2d_1">
      <path d="M 32.968125 353.2239 
L 993.158125 353.2239 
" clip-path="url(#pb5d69db51a)" style="fill: none; stroke: #dedede; stroke-linecap: square"/>
     </g>
     <g id="text_10">
      <!-- 0 -->
      <g transform="translate(20.878125 356.263275)scale(0.08 -0.08)">
       <use xlink:href="#DejaVuSans-30"/>
      </g>
     </g>
    </g>
    <g id="ytick_2">
     <g id="line2d_2">
      <path d="M 32.968125 289.6303 
L 993.158125 289.6303 
" clip-path="url(#pb5d69db51a)" style="fill: none; stroke: #dedede; stroke-linecap: square"/>
     </g>
     <g id="text_11">
      <!-- 1 -->
      <g transform="translate(20.878125 292.669675)scale(0.08 -0.08)">
       <use xlink:href="#DejaVuSans-31"/>
      </g>
     </g>
    </g>
    <g id="ytick_3">
     <g id="line2d_3">
      <path d="M 32.968125 226.0367 
L 993.158125 226.0367 
" clip-path="url(#pb5d69db51a)" style="fill: none; stroke: #dedede; stroke-linecap: square"/>
     </g>
     <g id="text_12">
      <!-- 2 -->
      <g transform="translate(20.878125 229.076075)scale(0.08 -0.08)">
       <use xlink:href="#DejaVuSans-32"/>
      </g>
     </g>
    </g>
    <g id="ytick_4">
     <g id="line2d_4">
      <path d="M 32.968125 162.4431 
L 993.158125 162.4431 
" clip-path="url(#pb5d69db51a)" style="fill: none; stroke: #dedede; stroke-linecap: square"/>
     </g>
     <g id="text_13">
      <!-- 3 -->
      <g transform="translate(20.878125 165.482475)scale(0.08 -0.08)">
       <defs>
        <path id="DejaVuSans-33" d="M 2597 2516 
Q 3050 2419 3304 2112 
Q 3559 1806 3559 1356 
Q 3559 666 3084 287 
Q 2609 -91 1734 -91 
Q 1441 -91 1130 -33 
Q 819 25 488 141 
L 488 750 
Q 750 597 1062 519 
Q 1375 441 1716 441 
Q 2309 441 2620 675 
Q 2931 909 2931 1356 
Q 2931 1769 2642 2001 
Q 2353 2234 1838 2234 
L 1294 2234 
L 1294 2753 
L 1863 2753 
Q 2328 2753 2575 2939 
Q 2822 3125 2822 3475 
Q 2822 3834 2567 4026 
Q 2313 4219 1838 4219 
Q 1578 4219 1281 4162 
Q 984 4106 628 3988 
L 628 4550 
Q 988 4650 1302 4700 
Q 1616 4750 1894 4750 
Q 2613 4750 3031 4423 
Q 3450 4097 3450 3541 
Q 3450 3153 3228 2886 
Q 3006 2619 2597 2516 
z
" transform="scale(0.015625)"/>
       </defs>
       <use xlink:href="#DejaVuSans-33"/>
      </g>
     </g>
    </g>
    <g id="ytick_5">
     <g id="line2d_5">
      <path d="M 32.968125 98.8495 
L 993.158125 98.8495 
" clip-path="url(#pb5d69db51a)" style="fill: none; stroke: #dedede; stroke-linecap: square"/>
     </g>
     <g id="text_14">
      <!-- 4 -->
      <g transform="translate(20.878125 101.888875)scale(0.08 -0.08)">
       <use xlink:href="#DejaVuSans-34"/>
      </g>
     </g>
    </g>
    <g id="ytick_6">
     <g id="line2d_6">
      <path d="M 32.968125 35.2559 
L 993.158125 35.2559 
" clip-path="url(#pb5d69db51a)" style="fill: none; stroke: #dedede; stroke-linecap: square"/>
     </g>
     <g id="text_15">
      <!-- 5 -->
      <g transform="translate(20.878125 38.295275)scale(0.08 -0.08)">
       <defs>
        <path id="DejaVuSans-35" d="M 691 4666 
L 3169 4666 
L 3169 4134 
L 1269 4134 
L 1269 2991 
Q 1406 3038 1543 3061 
Q 1681 3084 1819 3084 
Q 2600 3084 3056 2656 
Q 3513 2228 3513 1497 
Q 3513 744 3044 326 
Q 2575 -91 1722 -91 
Q 1428 -91 1123 -41 
Q 819 9 494 109 
L 494 744 
Q 775 591 1075 516 
Q 1375 441 1709 441 
Q 2250 441 2565 725 
Q 2881 1009 2881 1497 
Q 2881 1984 2565 2268 
Q 2250 2553 1709 2553 
Q 1456 2553 1204 2497 
Q 953 2441 691 2322 
L 691 4666 
z
" transform="scale(0.015625)"/>
       </defs>
       <use xlink:href="#DejaVuSans-35"/>
      </g>
     </g>
    </g>
    <g id="text_16">
     <!-- Percentage N-Count -->
     <g transform="translate(14.798438 244.344588)rotate(-90)scale(0.1 -0.1)">
      <defs>
       <path id="DejaVuSans-72" d="M 2631 2963 
Q 2534 3019 2420 3045 
Q 2306 3072 2169 3072 
Q 1681 3072 1420 2755 
Q 1159 2438 1159 1844 
L 1159 0 
L 581 0 
L 581 3500 
L 1159 3500 
L 1159 2956 
Q 1341 3275 1631 3429 
Q 1922 3584 2338 3584 
Q 2397 3584 2469 3576 
Q 2541 3569 2628 3553 
L 2631 2963 
z
" transform="scale(0.015625)"/>
       <path id="DejaVuSans-63" d="M 3122 3366 
L 3122 2828 
Q 2878 2963 2633 3030 
Q 2388 3097 2138 3097 
Q 1578 3097 1268 2742 
Q 959 2388 959 1747 
Q 959 1106 1268 751 
Q 1578 397 2138 397 
Q 2388 397 2633 464 
Q 2878 531 3122 666 
L 3122 134 
Q 2881 22 2623 -34 
Q 2366 -91 2075 -91 
Q 1284 -91 818 406 
Q 353 903 353 1747 
Q 353 2603 823 3093 
Q 1294 3584 2113 3584 
Q 2378 3584 2631 3529 
Q 2884 3475 3122 3366 
z
" transform="scale(0.015625)"/>
       <path id="DejaVuSans-67" d="M 2906 1791 
Q 2906 2416 2648 2759 
Q 2391 3103 1925 3103 
Q 1463 3103 1205 2759 
Q 947 2416 947 1791 
Q 947 1169 1205 825 
Q 1463 481 1925 481 
Q 2391 481 2648 825 
Q 2906 1169 2906 1791 
z
M 3481 434 
Q 3481 -459 3084 -895 
Q 2688 -1331 1869 -1331 
Q 1566 -1331 1297 -1286 
Q 1028 -1241 775 -1147 
L 775 -588 
Q 1028 -725 1275 -790 
Q 1522 -856 1778 -856 
Q 2344 -856 2625 -561 
Q 2906 -266 2906 331 
L 2906 616 
Q 2728 306 2450 153 
Q 2172 0 1784 0 
Q 1141 0 747 490 
Q 353 981 353 1791 
Q 353 2603 747 3093 
Q 1141 3584 1784 3584 
Q 2172 3584 2450 3431 
Q 2728 3278 2906 2969 
L 2906 3500 
L 3481 3500 
L 3481 434 
z
" transform="scale(0.015625)"/>
       <path id="DejaVuSans-4e" d="M 628 4666 
L 1478 4666 
L 3547 763 
L 3547 4666 
L 4159 4666 
L 4159 0 
L 3309 0 
L 1241 3903 
L 1241 0 
L 628 0 
L 628 4666 
z
" transform="scale(0.015625)"/>
       <path id="DejaVuSans-2d" d="M 313 2009 
L 1997 2009 
L 1997 1497 
L 313 1497 
L 313 2009 
z
" transform="scale(0.015625)"/>
       <path id="DejaVuSans-43" d="M 4122 4306 
L 4122 3641 
Q 3803 3938 3442 4084 
Q 3081 4231 2675 4231 
Q 1875 4231 1450 3742 
Q 1025 3253 1025 2328 
Q 1025 1406 1450 917 
Q 1875 428 2675 428 
Q 3081 428 3442 575 
Q 3803 722 4122 1019 
L 4122 359 
Q 3791 134 3420 21 
Q 3050 -91 2638 -91 
Q 1578 -91 968 557 
Q 359 1206 359 2328 
Q 359 3453 968 4101 
Q 1578 4750 2638 4750 
Q 3056 4750 3426 4639 
Q 3797 4528 4122 4306 
z
" transform="scale(0.015625)"/>
       <path id="DejaVuSans-75" d="M 544 1381 
L 544 3500 
L 1119 3500 
L 1119 1403 
Q 1119 906 1312 657 
Q 1506 409 1894 409 
Q 2359 409 2629 706 
Q 2900 1003 2900 1516 
L 2900 3500 
L 3475 3500 
L 3475 0 
L 2900 0 
L 2900 538 
Q 2691 219 2414 64 
Q 2138 -91 1772 -91 
Q 1169 -91 856 284 
Q 544 659 544 1381 
z
M 1991 3584 
L 1991 3584 
z
" transform="scale(0.015625)"/>
      </defs>
      <use xlink:href="#DejaVuSans-50"/>
      <use xlink:href="#DejaVuSans-65" x="56.677734"/>
      <use xlink:href="#DejaVuSans-72" x="118.201172"/>
      <use xlink:href="#DejaVuSans-63" x="157.064453"/>
      <use xlink:href="#DejaVuSans-65" x="212.044922"/>
      <use xlink:href="#DejaVuSans-6e" x="273.568359"/>
      <use xlink:href="#DejaVuSans-74" x="336.947266"/>
      <use xlink:href="#DejaVuSans-61" x="376.15625"/>
      <use xlink:href="#DejaVuSans-67" x="437.435547"/>
      <use xlink:href="#DejaVuSans-65" x="500.912109"/>
      <use xlink:href="#DejaVuSans-20" x="562.435547"/>
      <use xlink:href="#DejaVuSans-4e" x="594.222656"/>
      <use xlink:href="#DejaVuSans-2d" x="669.027344"/>
      <use xlink:href="#DejaVuSans-43" x="705.111328"/>
      <use xlink:href="#DejaVuSans-6f" x="774.935547"/>
      <use xlink:href="#DejaVuSans-75" x="836.117188"/>
      <use xlink:href="#DejaVuSans-6e" x="899.496094"/>
      <use xlink:href="#DejaVuSans-74" x="962.875"/>
     </g>
    </g>
   </g>
   <g id="line2d_7">
    <path d="M 39.066505 351.972625 
L 45.164886 352.983637 
L 51.263266 353.218626 
L 57.361647 353.218772 
L 63.460027 353.219651 
L 69.558408 351.680207 
L 75.656788 353.206759 
L 81.755169 353.2239 
L 87.853549 353.212473 
L 106.14869 353.209601 
L 136.640592 353.212473 
L 167.132495 353.186308 
L 197.624397 353.11499 
L 228.116299 353.104647 
L 258.608201 353.164449 
L 289.100103 353.098377 
L 319.592006 353.04253 
L 350.083908 353.166793 
L 380.57581 353.117686 
L 411.067712 353.095037 
L 441.559614 352.945605 
L 472.051517 352.873057 
L 502.543419 353.075464 
L 533.035321 353.134856 
L 563.527223 352.957706 
L 594.019125 352.570676 
L 624.511028 352.508589 
L 655.00293 352.747563 
L 685.494832 352.886594 
L 715.986734 352.865556 
L 746.478636 352.969309 
L 776.970538 352.977073 
L 807.462441 352.728899 
L 837.954343 352.570588 
L 868.446245 352.17767 
L 898.938147 352.113209 
L 929.430049 352.04198 
L 947.725191 352.09642 
" clip-path="url(#pb5d69db51a)" style="fill: none; stroke: #5cb85c; stroke-linecap: square"/>
   </g>
   <g id="line2d_8">
    <path d="M 39.066505 333.977332 
L 45.164886 339.434535 
L 51.263266 341.483514 
L 57.361647 344.46029 
L 63.460027 346.359544 
L 69.558408 346.602151 
L 75.656788 347.467539 
L 81.755169 347.957296 
L 87.853549 348.486022 
L 106.14869 349.457243 
L 136.640592 350.026697 
L 167.132495 350.818189 
L 197.624397 351.554889 
L 228.116299 351.747979 
L 258.608201 351.559665 
L 289.100103 350.828942 
L 319.592006 349.688335 
L 350.083908 350.187644 
L 380.57581 349.798798 
L 411.067712 349.305789 
L 441.559614 348.592119 
L 472.051517 348.196211 
L 502.543419 347.692215 
L 533.035321 346.391188 
L 563.527223 344.460583 
L 594.019125 343.755146 
L 624.511028 343.462787 
L 655.00293 343.530734 
L 685.494832 343.006462 
L 715.986734 343.164186 
L 746.478636 343.125861 
L 776.970538 343.629828 
L 807.462441 343.641461 
L 837.954343 343.573747 
L 868.446245 344.134176 
L 898.938147 343.944779 
L 929.430049 344.484492 
L 947.725191 344.60269 
" clip-path="url(#pb5d69db51a)" style="fill: none; stroke: #5cb85c; stroke-linecap: square"/>
   </g>
   <g id="line2d_9">
    <path d="M 39.066505 351.957641 
L 45.164886 352.973798 
L 51.263266 353.220025 
L 57.361647 353.21965 
L 63.460027 353.218026 
L 69.558408 351.682416 
L 75.656788 353.203277 
L 81.755169 353.2239 
L 87.853549 353.212276 
L 106.14869 353.210376 
L 136.640592 353.212226 
L 167.132495 353.184004 
L 197.624397 353.111285 
L 228.116299 353.102386 
L 258.608201 353.157631 
L 289.100103 353.092837 
L 319.592006 353.040067 
L 350.083908 353.16753 
L 380.57581 353.122134 
L 411.067712 353.090937 
L 441.559614 352.941601 
L 472.051517 352.870857 
L 502.543419 353.072364 
L 533.035321 353.125059 
L 563.527223 352.950625 
L 594.019125 352.554111 
L 624.511028 352.490967 
L 655.00293 352.736695 
L 685.494832 352.883331 
L 715.986734 352.860583 
L 746.478636 352.965074 
L 776.970538 352.971398 
L 807.462441 352.719921 
L 837.954343 352.56331 
L 868.446245 352.152148 
L 898.938147 352.07723 
L 929.430049 352.003387 
L 947.725191 352.051382 
" clip-path="url(#pb5d69db51a)" style="fill: none; stroke: #5cb85c; stroke-linecap: square"/>
   </g>
   <g id="line2d_10">
    <path d="M 39.066505 333.944415 
L 45.164886 339.369543 
L 51.263266 341.396733 
L 57.361647 344.413706 
L 63.460027 346.301409 
L 69.558408 346.570384 
L 75.656788 347.43943 
L 81.755169 347.917761 
L 87.853549 348.444962 
L 106.14869 349.408624 
L 136.640592 349.983672 
L 167.132495 350.782124 
L 197.624397 351.528855 
L 228.116299 351.723612 
L 258.608201 351.537279 
L 289.100103 350.788673 
L 319.592006 349.643678 
L 350.083908 350.138757 
L 380.57581 349.754268 
L 411.067712 349.267362 
L 441.559614 348.541779 
L 472.051517 348.14414 
L 502.543419 347.642536 
L 533.035321 346.33853 
L 563.527223 344.432855 
L 594.019125 343.738443 
L 624.511028 343.437371 
L 655.00293 343.503965 
L 685.494832 342.986887 
L 715.986734 343.135598 
L 746.478636 343.109976 
L 776.970538 343.618279 
L 807.462441 343.61558 
L 837.954343 343.55116 
L 868.446245 344.114259 
L 898.938147 343.926301 
L 929.430049 344.460227 
L 947.725191 344.573317 
" clip-path="url(#pb5d69db51a)" style="fill: none; stroke: #5cb85c; stroke-linecap: square"/>
   </g>
   <g id="line2d_11">
    <path d="M 39.066505 353.047174 
L 45.164886 352.118483 
L 51.263266 344.835218 
L 57.361647 353.2239 
L 63.460027 353.219872 
L 69.558408 353.2239 
L 75.656788 353.155677 
L 81.755169 353.209047 
L 87.853549 353.2239 
L 106.14869 353.2239 
L 136.640592 353.223799 
L 167.132495 353.208443 
L 197.624397 352.006456 
L 228.116299 352.193503 
L 258.608201 350.066149 
L 289.100103 350.581423 
L 319.592006 348.920704 
L 350.083908 352.348176 
L 380.57581 353.217153 
L 411.067712 350.578905 
L 441.559614 351.491082 
L 472.051517 352.878353 
L 502.543419 352.727155 
L 533.035321 350.175558 
L 563.527223 351.362188 
L 594.019125 352.69337 
L 624.511028 352.084648 
L 655.00293 352.606417 
L 685.494832 353.015555 
L 715.986734 353.204163 
L 746.478636 350.451622 
L 776.970538 352.245464 
L 807.462441 353.127028 
L 837.954343 352.245967 
L 868.446245 350.514659 
L 898.938147 352.094265 
L 929.430049 353.2239 
L 947.725191 353.2239 
" clip-path="url(#pb5d69db51a)" style="fill: none; stroke: #5cb85c; stroke-linecap: square"/>
   </g>
   <g id="line2d_12">
    <path d="M 39.066505 343.204408 
L 45.164886 353.2239 
L 51.263266 353.213075 
L 57.361647 353.2239 
L 63.460027 353.2239 
L 69.558408 353.2239 
L 75.656788 353.2239 
L 81.755169 353.2239 
L 87.853549 353.223648 
L 106.14869 353.22385 
L 136.640592 353.22385 
L 167.132495 353.22385 
L 197.624397 353.2239 
L 228.116299 353.2239 
L 258.608201 353.2239 
L 289.100103 353.163582 
L 319.592006 353.219268 
L 350.083908 353.223749 
L 380.57581 353.2239 
L 411.067712 353.156281 
L 441.559614 353.192482 
L 472.051517 353.150843 
L 502.543419 352.41358 
L 533.035321 353.204465 
L 563.527223 353.222943 
L 594.019125 352.212233 
L 624.511028 352.068033 
L 655.00293 352.641914 
L 685.494832 352.856653 
L 715.986734 353.221836 
L 746.478636 353.223799 
L 776.970538 353.223799 
L 807.462441 353.22385 
L 837.954343 353.223749 
L 868.446245 353.21957 
L 898.938147 353.223497 
L 929.430049 353.223397 
L 947.725191 353.223648 
" clip-path="url(#pb5d69db51a)" style="fill: none; stroke: #5cb85c; stroke-linecap: square"/>
   </g>
   <g id="line2d_13">
    <path d="M 39.066505 353.11154 
L 45.164886 352.42793 
L 51.263266 345.205391 
L 57.361647 353.2239 
L 63.460027 353.2239 
L 69.558408 353.2239 
L 75.656788 353.132542 
L 81.755169 353.2218 
L 87.853549 353.2239 
L 106.14869 353.2239 
L 136.640592 353.2239 
L 167.132495 353.22327 
L 197.624397 352.238913 
L 228.116299 352.390966 
L 258.608201 350.463626 
L 289.100103 350.981322 
L 319.592006 349.319235 
L 350.083908 352.482114 
L 380.57581 353.22306 
L 411.067712 350.866022 
L 441.559614 351.789893 
L 472.051517 352.963687 
L 502.543419 352.897951 
L 533.035321 350.539233 
L 563.527223 351.577144 
L 594.019125 352.831585 
L 624.511028 352.31326 
L 655.00293 352.761229 
L 685.494832 353.11553 
L 715.986734 353.217179 
L 746.478636 350.652853 
L 776.970538 352.396637 
L 807.462441 353.162575 
L 837.954343 352.420159 
L 868.446245 350.672384 
L 898.938147 352.151545 
L 929.430049 353.2239 
L 947.725191 353.2239 
" clip-path="url(#pb5d69db51a)" style="fill: none; stroke: #5cb85c; stroke-linecap: square"/>
   </g>
   <g id="line2d_14">
    <path d="M 39.066505 343.962081 
L 45.164886 353.2239 
L 51.263266 353.2239 
L 57.361647 353.2239 
L 63.460027 353.2239 
L 69.558408 353.2239 
L 75.656788 353.2239 
L 81.755169 353.2239 
L 87.853549 353.2239 
L 106.14869 353.2239 
L 136.640592 353.2239 
L 167.132495 353.2239 
L 197.624397 353.2239 
L 228.116299 353.2239 
L 258.608201 353.2239 
L 289.100103 353.172865 
L 319.592006 353.22033 
L 350.083908 353.2239 
L 380.57581 353.2239 
L 411.067712 353.148293 
L 441.559614 353.191977 
L 472.051517 353.150604 
L 502.543419 352.818354 
L 533.035321 353.22327 
L 563.527223 353.2239 
L 594.019125 352.32439 
L 624.511028 352.283437 
L 655.00293 352.763119 
L 685.494832 353.203108 
L 715.986734 353.2239 
L 746.478636 353.2239 
L 776.970538 353.2239 
L 807.462441 353.2239 
L 837.954343 353.2239 
L 868.446245 353.2239 
L 898.938147 353.2239 
L 929.430049 353.2239 
L 947.725191 353.2239 
" clip-path="url(#pb5d69db51a)" style="fill: none; stroke: #5cb85c; stroke-linecap: square"/>
   </g>
   <g id="line2d_15">
    <path d="M 39.066505 353.159997 
L 45.164886 352.231212 
L 51.263266 345.333171 
L 57.361647 353.2239 
L 63.460027 353.2239 
L 69.558408 353.2239 
L 75.656788 353.067206 
L 81.755169 353.2239 
L 87.853549 353.2239 
L 106.14869 353.2239 
L 136.640592 353.2239 
L 167.132495 353.222674 
L 197.624397 352.156629 
L 228.116299 352.34011 
L 258.608201 350.37627 
L 289.100103 350.846002 
L 319.592006 349.238793 
L 350.083908 352.519039 
L 380.57581 353.223375 
L 411.067712 350.741831 
L 441.559614 351.759204 
L 472.051517 353.054775 
L 502.543419 352.931346 
L 533.035321 350.772469 
L 563.527223 351.702654 
L 594.019125 352.913313 
L 624.511028 352.42905 
L 655.00293 352.836104 
L 685.494832 353.150368 
L 715.986734 353.216547 
L 746.478636 350.681779 
L 776.970538 352.466166 
L 807.462441 353.187834 
L 837.954343 352.48735 
L 868.446245 350.807485 
L 898.938147 352.120739 
L 929.430049 353.2239 
L 947.725191 353.2239 
" clip-path="url(#pb5d69db51a)" style="fill: none; stroke: #5cb85c; stroke-linecap: square"/>
   </g>
   <g id="line2d_16">
    <path d="M 39.066505 344.463038 
L 45.164886 353.2239 
L 51.263266 353.222149 
L 57.361647 353.2239 
L 63.460027 353.2239 
L 69.558408 353.2239 
L 75.656788 353.2239 
L 81.755169 353.2239 
L 87.853549 353.2239 
L 106.14869 353.2239 
L 136.640592 353.2239 
L 167.132495 353.2239 
L 197.624397 353.2239 
L 228.116299 353.2239 
L 258.608201 353.2239 
L 289.100103 353.134436 
L 319.592006 353.218648 
L 350.083908 353.2239 
L 380.57581 353.2239 
L 411.067712 353.082438 
L 441.559614 353.177329 
L 472.051517 353.127082 
L 502.543419 352.892129 
L 533.035321 353.222499 
L 563.527223 353.2239 
L 594.019125 352.294065 
L 624.511028 352.309822 
L 655.00293 352.788483 
L 685.494832 353.185908 
L 715.986734 353.223725 
L 746.478636 353.2239 
L 776.970538 353.2239 
L 807.462441 353.2239 
L 837.954343 353.2239 
L 868.446245 353.22355 
L 898.938147 353.2239 
L 929.430049 353.2239 
L 947.725191 353.2239 
" clip-path="url(#pb5d69db51a)" style="fill: none; stroke: #5cb85c; stroke-linecap: square"/>
   </g>
   <g id="line2d_17">
    <path d="M 39.066505 353.037149 
L 45.164886 352.136734 
L 51.263266 344.828677 
L 57.361647 353.2239 
L 63.460027 353.22154 
L 69.558408 353.2239 
L 75.656788 353.151619 
L 81.755169 353.208559 
L 87.853549 353.2239 
L 106.14869 353.2239 
L 136.640592 353.223841 
L 167.132495 353.210978 
L 197.624397 352.016305 
L 228.116299 352.194736 
L 258.608201 350.073154 
L 289.100103 350.587205 
L 319.592006 348.925213 
L 350.083908 352.350273 
L 380.57581 353.217114 
L 411.067712 350.583193 
L 441.559614 351.494229 
L 472.051517 352.885448 
L 502.543419 352.722181 
L 533.035321 350.193642 
L 563.527223 351.362707 
L 594.019125 352.708079 
L 624.511028 352.096375 
L 655.00293 352.621401 
L 685.494832 353.025053 
L 715.986734 353.206671 
L 746.478636 350.466127 
L 776.970538 352.250318 
L 807.462441 353.130259 
L 837.954343 352.250731 
L 868.446245 350.515691 
L 898.938147 352.095962 
L 929.430049 353.2239 
L 947.725191 353.2239 
" clip-path="url(#pb5d69db51a)" style="fill: none; stroke: #5cb85c; stroke-linecap: square"/>
   </g>
   <g id="line2d_18">
    <path d="M 39.066505 343.180964 
L 45.164886 353.2239 
L 51.263266 353.214459 
L 57.361647 353.2239 
L 63.460027 353.2239 
L 69.558408 353.2239 
L 75.656788 353.2239 
L 81.755169 353.2239 
L 87.853549 353.2239 
L 106.14869 353.2239 
L 136.640592 353.2239 
L 167.132495 353.2239 
L 197.624397 353.2239 
L 228.116299 353.2239 
L 258.608201 353.2239 
L 289.100103 353.16578 
L 319.592006 353.219003 
L 350.083908 353.2239 
L 380.57581 353.2239 
L 411.067712 353.154982 
L 441.559614 353.192804 
L 472.051517 353.149436 
L 502.543419 352.4625 
L 533.035321 353.204251 
L 563.527223 353.222602 
L 594.019125 352.212732 
L 624.511028 352.071592 
L 655.00293 352.64636 
L 685.494832 352.901261 
L 715.986734 353.221835 
L 746.478636 353.2239 
L 776.970538 353.2239 
L 807.462441 353.2239 
L 837.954343 353.223782 
L 868.446245 353.220006 
L 898.938147 353.223841 
L 929.430049 353.223664 
L 947.725191 353.2239 
" clip-path="url(#pb5d69db51a)" style="fill: none; stroke: #5cb85c; stroke-linecap: square"/>
   </g>
   <g id="line2d_19">
    <path d="M 39.066505 353.076247 
L 45.164886 352.06127 
L 51.263266 344.888254 
L 57.361647 353.2239 
L 63.460027 353.221713 
L 69.558408 353.2239 
L 75.656788 353.153172 
L 81.755169 353.21515 
L 87.853549 353.2239 
L 106.14869 353.2239 
L 136.640592 353.2239 
L 167.132495 353.215004 
L 197.624397 352.048145 
L 228.116299 352.218037 
L 258.608201 350.111668 
L 289.100103 350.616969 
L 319.592006 348.956766 
L 350.083908 352.391502 
L 380.57581 353.219744 
L 411.067712 350.603407 
L 441.559614 351.540729 
L 472.051517 352.911751 
L 502.543419 352.739234 
L 533.035321 350.274924 
L 563.527223 351.406639 
L 594.019125 352.740765 
L 624.511028 352.147018 
L 655.00293 352.659173 
L 685.494832 353.052258 
L 715.986734 353.205817 
L 746.478636 350.491336 
L 776.970538 352.269296 
L 807.462441 353.136912 
L 837.954343 352.2779 
L 868.446245 350.535523 
L 898.938147 352.099769 
L 929.430049 353.2239 
L 947.725191 353.2239 
" clip-path="url(#pb5d69db51a)" style="fill: none; stroke: #5cb85c; stroke-linecap: square"/>
   </g>
   <g id="line2d_20">
    <path d="M 39.066505 343.306726 
L 45.164886 353.2239 
L 51.263266 353.217702 
L 57.361647 353.2239 
L 63.460027 353.2239 
L 69.558408 353.2239 
L 75.656788 353.2239 
L 81.755169 353.2239 
L 87.853549 353.2239 
L 106.14869 353.2239 
L 136.640592 353.2239 
L 167.132495 353.2239 
L 197.624397 353.2239 
L 228.116299 353.2239 
L 258.608201 353.2239 
L 289.100103 353.170891 
L 319.592006 353.217483 
L 350.083908 353.223681 
L 380.57581 353.223754 
L 411.067712 353.156162 
L 441.559614 353.190797 
L 472.051517 353.145152 
L 502.543419 352.550967 
L 533.035321 353.209244 
L 563.527223 353.222879 
L 594.019125 352.232912 
L 624.511028 352.109685 
L 655.00293 352.657277 
L 685.494832 352.980947 
L 715.986734 353.222879 
L 746.478636 353.2239 
L 776.970538 353.2239 
L 807.462441 353.2239 
L 837.954343 353.2239 
L 868.446245 353.22164 
L 898.938147 353.2239 
L 929.430049 353.223463 
L 947.725191 353.2239 
" clip-path="url(#pb5d69db51a)" style="fill: none; stroke: #5cb85c; stroke-linecap: square"/>
   </g>
   <g id="line2d_21">
    <path d="M 39.066505 353.025637 
L 45.164886 352.089136 
L 51.263266 344.792393 
L 57.361647 353.2239 
L 63.460027 353.218991 
L 69.558408 353.2239 
L 75.656788 353.147267 
L 81.755169 353.209173 
L 87.853549 353.2239 
L 106.14869 353.2239 
L 136.640592 353.223845 
L 167.132495 353.208137 
L 197.624397 352.002904 
L 228.116299 352.18415 
L 258.608201 350.045633 
L 289.100103 350.557627 
L 319.592006 348.889216 
L 350.083908 352.34516 
L 380.57581 353.216046 
L 411.067712 350.553209 
L 441.559614 351.474656 
L 472.051517 352.872262 
L 502.543419 352.708252 
L 533.035321 350.170373 
L 563.527223 351.354444 
L 594.019125 352.696962 
L 624.511028 352.075828 
L 655.00293 352.604566 
L 685.494832 353.009274 
L 715.986734 353.203828 
L 746.478636 350.437687 
L 776.970538 352.22762 
L 807.462441 353.126432 
L 837.954343 352.244638 
L 868.446245 350.497794 
L 898.938147 352.0893 
L 929.430049 353.2239 
L 947.725191 353.2239 
" clip-path="url(#pb5d69db51a)" style="fill: none; stroke: #5cb85c; stroke-linecap: square"/>
   </g>
   <g id="line2d_22">
    <path d="M 39.066505 343.142199 
L 45.164886 353.2239 
L 51.263266 353.213264 
L 57.361647 353.2239 
L 63.460027 353.2239 
L 69.558408 353.2239 
L 75.656788 353.2239 
L 81.755169 353.2239 
L 87.853549 353.2239 
L 106.14869 353.2239 
L 136.640592 353.223791 
L 167.132495 353.2239 
L 197.624397 353.2239 
L 228.116299 353.2239 
L 258.608201 353.2239 
L 289.100103 353.163194 
L 319.592006 353.218773 
L 350.083908 353.223791 
L 380.57581 353.2239 
L 411.067712 353.15643 
L 441.559614 353.191283 
L 472.051517 353.149558 
L 502.543419 352.393376 
L 533.035321 353.202519 
L 563.527223 353.222318 
L 594.019125 352.206676 
L 624.511028 352.052865 
L 655.00293 352.630092 
L 685.494832 352.834846 
L 715.986734 353.222209 
L 746.478636 353.2239 
L 776.970538 353.2239 
L 807.462441 353.2239 
L 837.954343 353.223845 
L 868.446245 353.220246 
L 898.938147 353.223791 
L 929.430049 353.2233 
L 947.725191 353.2239 
" clip-path="url(#pb5d69db51a)" style="fill: none; stroke: #5cb85c; stroke-linecap: square"/>
   </g>
   <g id="line2d_23">
    <path d="M 39.066505 353.040673 
L 45.164886 352.104245 
L 51.263266 344.934049 
L 57.361647 353.2239 
L 63.460027 353.220711 
L 69.558408 353.2239 
L 75.656788 353.151421 
L 81.755169 353.205925 
L 87.853549 353.2239 
L 106.14869 353.2239 
L 136.640592 353.223726 
L 167.132495 353.205519 
L 197.624397 352.003645 
L 228.116299 352.185654 
L 258.608201 350.056976 
L 289.100103 350.581724 
L 319.592006 348.903402 
L 350.083908 352.353689 
L 380.57581 353.21555 
L 411.067712 350.572968 
L 441.559614 351.486667 
L 472.051517 352.873856 
L 502.543419 352.714634 
L 533.035321 350.191033 
L 563.527223 351.366816 
L 594.019125 352.6886 
L 624.511028 352.076761 
L 655.00293 352.601161 
L 685.494832 353.001998 
L 715.986734 353.202562 
L 746.478636 350.466685 
L 776.970538 352.24039 
L 807.462441 353.130025 
L 837.954343 352.248044 
L 868.446245 350.501475 
L 898.938147 352.102216 
L 929.430049 353.2239 
L 947.725191 353.2239 
" clip-path="url(#pb5d69db51a)" style="fill: none; stroke: #5cb85c; stroke-linecap: square"/>
   </g>
   <g id="line2d_24">
    <path d="M 39.066505 343.165853 
L 45.164886 353.2239 
L 51.263266 353.208534 
L 57.361647 353.2239 
L 63.460027 353.2239 
L 69.558408 353.2239 
L 75.656788 353.2239 
L 81.755169 353.2239 
L 87.853549 353.2239 
L 106.14869 353.2239 
L 136.640592 353.2239 
L 167.132495 353.2239 
L 197.624397 353.2239 
L 228.116299 353.2239 
L 258.608201 353.2239 
L 289.100103 353.159365 
L 319.592006 353.218508 
L 350.083908 353.223842 
L 380.57581 353.223842 
L 411.067712 353.155016 
L 441.559614 353.190328 
L 472.051517 353.150029 
L 502.543419 352.310202 
L 533.035321 353.200185 
L 563.527223 353.222392 
L 594.019125 352.210123 
L 624.511028 352.057627 
L 655.00293 352.638038 
L 685.494832 352.744959 
L 715.986734 353.221175 
L 746.478636 353.223842 
L 776.970538 353.223842 
L 807.462441 353.2239 
L 837.954343 353.2239 
L 868.446245 353.21758 
L 898.938147 353.22332 
L 929.430049 353.222856 
L 947.725191 353.2239 
" clip-path="url(#pb5d69db51a)" style="fill: none; stroke: #5cb85c; stroke-linecap: square"/>
   </g>
   <g id="line2d_25">
    <path d="M 39.066505 353.038614 
L 45.164886 352.106839 
L 51.263266 344.912753 
L 57.361647 353.2239 
L 63.460027 353.2211 
L 69.558408 353.2239 
L 75.656788 353.154418 
L 81.755169 353.210665 
L 87.853549 353.2239 
L 106.14869 353.2239 
L 136.640592 353.223798 
L 167.132495 353.209342 
L 197.624397 352.018014 
L 228.116299 352.202231 
L 258.608201 350.092057 
L 289.100103 350.605564 
L 319.592006 348.952752 
L 350.083908 352.353667 
L 380.57581 353.216723 
L 411.067712 350.60587 
L 441.559614 351.508884 
L 472.051517 352.879085 
L 502.543419 352.739306 
L 533.035321 350.207097 
L 563.527223 351.384682 
L 594.019125 352.706575 
L 624.511028 352.092128 
L 655.00293 352.618106 
L 685.494832 353.017031 
L 715.986734 353.205677 
L 746.478636 350.476322 
L 776.970538 352.251403 
L 807.462441 353.131664 
L 837.954343 352.26591 
L 868.446245 350.511496 
L 898.938147 352.102614 
L 929.430049 353.2239 
L 947.725191 353.2239 
" clip-path="url(#pb5d69db51a)" style="fill: none; stroke: #5cb85c; stroke-linecap: square"/>
   </g>
   <g id="line2d_26">
    <path d="M 39.066505 343.240852 
L 45.164886 353.2239 
L 51.263266 353.212447 
L 57.361647 353.223645 
L 63.460027 353.2239 
L 69.558408 353.2239 
L 75.656788 353.2239 
L 81.755169 353.2239 
L 87.853549 353.2239 
L 106.14869 353.2239 
L 136.640592 353.223849 
L 167.132495 353.2239 
L 197.624397 353.2239 
L 228.116299 353.223798 
L 258.608201 353.2239 
L 289.100103 353.165667 
L 319.592006 353.218606 
L 350.083908 353.223696 
L 380.57581 353.223849 
L 411.067712 353.155996 
L 441.559614 353.187403 
L 472.051517 353.146528 
L 502.543419 352.429817 
L 533.035321 353.204964 
L 563.527223 353.222475 
L 594.019125 352.224272 
L 624.511028 352.072072 
L 655.00293 352.638671 
L 685.494832 352.870533 
L 715.986734 353.22222 
L 746.478636 353.223747 
L 776.970538 353.223849 
L 807.462441 353.2239 
L 837.954343 353.223696 
L 868.446245 353.220184 
L 898.938147 353.223442 
L 929.430049 353.223442 
L 947.725191 353.223518 
" clip-path="url(#pb5d69db51a)" style="fill: none; stroke: #5cb85c; stroke-linecap: square"/>
   </g>
   <g id="line2d_27">
    <path d="M 39.066505 353.045006 
L 45.164886 352.05489 
L 51.263266 344.73019 
L 57.361647 353.2239 
L 63.460027 353.21905 
L 69.558408 353.2239 
L 75.656788 353.146577 
L 81.755169 353.20531 
L 87.853549 353.2239 
L 106.14869 353.2239 
L 136.640592 353.223738 
L 167.132495 353.205795 
L 197.624397 351.997127 
L 228.116299 352.190139 
L 258.608201 350.048094 
L 289.100103 350.542694 
L 319.592006 348.887113 
L 350.083908 352.361705 
L 380.57581 353.216895 
L 411.067712 350.550399 
L 441.559614 351.485607 
L 472.051517 352.892083 
L 502.543419 352.705807 
L 533.035321 350.177254 
L 563.527223 351.344001 
L 594.019125 352.698048 
L 624.511028 352.092932 
L 655.00293 352.605691 
L 685.494832 353.008742 
L 715.986734 353.200945 
L 746.478636 350.43137 
L 776.970538 352.230659 
L 807.462441 353.130735 
L 837.954343 352.256847 
L 868.446245 350.514351 
L 898.938147 352.063296 
L 929.430049 353.2239 
L 947.725191 353.2239 
" clip-path="url(#pb5d69db51a)" style="fill: none; stroke: #5cb85c; stroke-linecap: square"/>
   </g>
   <g id="line2d_28">
    <path d="M 39.066505 343.192346 
L 45.164886 353.2239 
L 51.263266 353.190761 
L 57.361647 353.223092 
L 63.460027 353.2239 
L 69.558408 353.2239 
L 75.656788 353.2239 
L 81.755169 353.2239 
L 87.853549 353.2239 
L 106.14869 353.223092 
L 136.640592 353.223361 
L 167.132495 353.223361 
L 197.624397 353.2239 
L 228.116299 353.223792 
L 258.608201 353.2239 
L 289.100103 353.153905 
L 319.592006 353.218404 
L 350.083908 353.223684 
L 380.57581 353.2239 
L 411.067712 353.153097 
L 441.559614 353.192593 
L 472.051517 353.144098 
L 502.543419 352.334332 
L 533.035321 353.195934 
L 563.527223 353.222122 
L 594.019125 352.210722 
L 624.511028 352.075474 
L 655.00293 352.642493 
L 685.494832 352.755111 
L 715.986734 353.218404 
L 746.478636 353.222553 
L 776.970538 353.22196 
L 807.462441 353.222984 
L 837.954343 353.22223 
L 868.446245 353.213069 
L 898.938147 353.218242 
L 929.430049 353.219266 
L 947.725191 353.219993 
" clip-path="url(#pb5d69db51a)" style="fill: none; stroke: #5cb85c; stroke-linecap: square"/>
   </g>
   <g id="line2d_29">
    <path d="M 39.066505 353.037644 
L 45.164886 352.102204 
L 51.263266 344.859027 
L 57.361647 353.2239 
L 63.460027 353.221788 
L 69.558408 353.2239 
L 75.656788 353.146645 
L 81.755169 353.209947 
L 87.853549 353.2239 
L 106.14869 353.2239 
L 136.640592 353.223798 
L 167.132495 353.212443 
L 197.624397 352.012699 
L 228.116299 352.187908 
L 258.608201 350.056488 
L 289.100103 350.577697 
L 319.592006 348.899256 
L 350.083908 352.352261 
L 380.57581 353.218831 
L 411.067712 350.567098 
L 441.559614 351.491439 
L 472.051517 352.889945 
L 502.543419 352.735833 
L 533.035321 350.204033 
L 563.527223 351.371492 
L 594.019125 352.714903 
L 624.511028 352.105712 
L 655.00293 352.627433 
L 685.494832 353.03342 
L 715.986734 353.20617 
L 746.478636 350.447702 
L 776.970538 352.250851 
L 807.462441 353.13163 
L 837.954343 352.255536 
L 868.446245 350.506203 
L 898.938147 352.087944 
L 929.430049 353.2239 
L 947.725191 353.2239 
" clip-path="url(#pb5d69db51a)" style="fill: none; stroke: #5cb85c; stroke-linecap: square"/>
   </g>
   <g id="line2d_30">
    <path d="M 39.066505 343.167683 
L 45.164886 353.2239 
L 51.263266 353.216603 
L 57.361647 353.2239 
L 63.460027 353.2239 
L 69.558408 353.2239 
L 75.656788 353.2239 
L 81.755169 353.2239 
L 87.853549 353.2239 
L 106.14869 353.2239 
L 136.640592 353.223887 
L 167.132495 353.223887 
L 197.624397 353.2239 
L 228.116299 353.2239 
L 258.608201 353.2239 
L 289.100103 353.168983 
L 319.592006 353.218485 
L 350.083908 353.223862 
L 380.57581 353.2239 
L 411.067712 353.153724 
L 441.559614 353.188774 
L 472.051517 353.145084 
L 502.543419 352.475715 
L 533.035321 353.209908 
L 563.527223 353.223042 
L 594.019125 352.202565 
L 624.511028 352.05091 
L 655.00293 352.633462 
L 685.494832 352.920476 
L 715.986734 353.222722 
L 746.478636 353.223887 
L 776.970538 353.223887 
L 807.462441 353.223887 
L 837.954343 353.223785 
L 868.446245 353.221314 
L 898.938147 353.223708 
L 929.430049 353.223644 
L 947.725191 353.223868 
" clip-path="url(#pb5d69db51a)" style="fill: none; stroke: #5cb85c; stroke-linecap: square"/>
   </g>
   <g id="line2d_31">
    <path d="M 39.066505 353.082592 
L 45.164886 352.132822 
L 51.263266 344.893906 
L 57.361647 353.2239 
L 63.460027 353.222086 
L 69.558408 353.2239 
L 75.656788 353.139585 
L 81.755169 353.215042 
L 87.853549 353.2239 
L 106.14869 353.2239 
L 136.640592 353.223836 
L 167.132495 353.219631 
L 197.624397 352.052584 
L 228.116299 352.218098 
L 258.608201 350.116714 
L 289.100103 350.63349 
L 319.592006 348.975645 
L 350.083908 352.401328 
L 380.57581 353.222299 
L 411.067712 350.614087 
L 441.559614 351.554294 
L 472.051517 352.94929 
L 502.543419 352.785398 
L 533.035321 350.341034 
L 563.527223 351.431813 
L 594.019125 352.777671 
L 624.511028 352.195514 
L 655.00293 352.696665 
L 685.494832 353.084193 
L 715.986734 353.209193 
L 746.478636 350.504989 
L 776.970538 352.312402 
L 807.462441 353.150023 
L 837.954343 352.30237 
L 868.446245 350.563796 
L 898.938147 352.096279 
L 929.430049 353.2239 
L 947.725191 353.2239 
" clip-path="url(#pb5d69db51a)" style="fill: none; stroke: #5cb85c; stroke-linecap: square"/>
   </g>
   <g id="line2d_32">
    <path d="M 39.066505 343.397584 
L 45.164886 353.2239 
L 51.263266 353.220271 
L 57.361647 353.2239 
L 63.460027 353.2239 
L 69.558408 353.2239 
L 75.656788 353.2239 
L 81.755169 353.2239 
L 87.853549 353.2239 
L 106.14869 353.2239 
L 136.640592 353.223857 
L 167.132495 353.2239 
L 197.624397 353.2239 
L 228.116299 353.2239 
L 258.608201 353.2239 
L 289.100103 353.17504 
L 319.592006 353.218564 
L 350.083908 353.2239 
L 380.57581 353.2239 
L 411.067712 353.148166 
L 441.559614 353.185798 
L 472.051517 353.141592 
L 502.543419 352.662747 
L 533.035321 353.216066 
L 563.527223 353.223452 
L 594.019125 352.234662 
L 624.511028 352.115532 
L 655.00293 352.675149 
L 685.494832 353.077768 
L 715.986734 353.223302 
L 746.478636 353.2239 
L 776.970538 353.223879 
L 807.462441 353.2239 
L 837.954343 353.223836 
L 868.446245 353.222705 
L 898.938147 353.223815 
L 929.430049 353.223815 
L 947.725191 353.223793 
" clip-path="url(#pb5d69db51a)" style="fill: none; stroke: #5cb85c; stroke-linecap: square"/>
   </g>
   <g id="line2d_33">
    <path d="M 39.066505 353.061968 
L 45.164886 352.152086 
L 51.263266 344.825023 
L 57.361647 353.2239 
L 63.460027 353.222639 
L 69.558408 353.2239 
L 75.656788 353.14781 
L 81.755169 353.213727 
L 87.853549 353.2239 
L 106.14869 353.2239 
L 136.640592 353.223816 
L 167.132495 353.218872 
L 197.624397 352.029249 
L 228.116299 352.197773 
L 258.608201 350.083437 
L 289.100103 350.585646 
L 319.592006 348.938712 
L 350.083908 352.372485 
L 380.57581 353.221613 
L 411.067712 350.587614 
L 441.559614 351.514681 
L 472.051517 352.912445 
L 502.543419 352.762182 
L 533.035321 350.250196 
L 563.527223 351.387052 
L 594.019125 352.746359 
L 624.511028 352.142837 
L 655.00293 352.659524 
L 685.494832 353.061144 
L 715.986734 353.209119 
L 746.478636 350.470999 
L 776.970538 352.270029 
L 807.462441 353.13831 
L 837.954343 352.269861 
L 868.446245 350.53404 
L 898.938147 352.088961 
L 929.430049 353.2239 
L 947.725191 353.2239 
" clip-path="url(#pb5d69db51a)" style="fill: none; stroke: #5cb85c; stroke-linecap: square"/>
   </g>
   <g id="line2d_34">
    <path d="M 39.066505 343.323912 
L 45.164886 353.2239 
L 51.263266 353.220873 
L 57.361647 353.2239 
L 63.460027 353.2239 
L 69.558408 353.2239 
L 75.656788 353.2239 
L 81.755169 353.2239 
L 87.853549 353.2239 
L 106.14869 353.2239 
L 136.640592 353.2239 
L 167.132495 353.2239 
L 197.624397 353.2239 
L 228.116299 353.2239 
L 258.608201 353.2239 
L 289.100103 353.177523 
L 319.592006 353.219209 
L 350.083908 353.2239 
L 380.57581 353.2239 
L 411.067712 353.154452 
L 441.559614 353.18773 
L 472.051517 353.146532 
L 502.543419 352.60632 
L 533.035321 353.215509 
L 563.527223 353.223681 
L 594.019125 352.225182 
L 624.511028 352.087649 
L 655.00293 352.656229 
L 685.494832 353.04722 
L 715.986734 353.223429 
L 746.478636 353.2239 
L 776.970538 353.2239 
L 807.462441 353.2239 
L 837.954343 353.223799 
L 868.446245 353.222958 
L 898.938147 353.2239 
L 929.430049 353.2239 
L 947.725191 353.2239 
" clip-path="url(#pb5d69db51a)" style="fill: none; stroke: #5cb85c; stroke-linecap: square"/>
   </g>
   <g id="line2d_35">
    <path d="M 39.066505 353.047143 
L 45.164886 352.162083 
L 51.263266 344.832505 
L 57.361647 353.2239 
L 63.460027 353.220686 
L 69.558408 353.2239 
L 75.656788 353.152833 
L 81.755169 353.21056 
L 87.853549 353.2239 
L 106.14869 353.2239 
L 136.640592 353.223864 
L 167.132495 353.214331 
L 197.624397 352.008683 
L 228.116299 352.180456 
L 258.608201 350.043735 
L 289.100103 350.557793 
L 319.592006 348.890441 
L 350.083908 352.351986 
L 380.57581 353.219825 
L 411.067712 350.561346 
L 441.559614 351.484329 
L 472.051517 352.891487 
L 502.543419 352.737954 
L 533.035321 350.194261 
L 563.527223 351.363831 
L 594.019125 352.717422 
L 624.511028 352.103192 
L 655.00293 352.63002 
L 685.494832 353.037744 
L 715.986734 353.206897 
L 746.478636 350.446609 
L 776.970538 352.248976 
L 807.462441 353.132204 
L 837.954343 352.251353 
L 868.446245 350.503887 
L 898.938147 352.088384 
L 929.430049 353.2239 
L 947.725191 353.2239 
" clip-path="url(#pb5d69db51a)" style="fill: none; stroke: #5cb85c; stroke-linecap: square"/>
   </g>
   <g id="line2d_36">
    <path d="M 39.066505 343.165164 
L 45.164886 353.2239 
L 51.263266 353.216624 
L 57.361647 353.223839 
L 63.460027 353.2239 
L 69.558408 353.2239 
L 75.656788 353.2239 
L 81.755169 353.2239 
L 87.853549 353.2239 
L 106.14869 353.2239 
L 136.640592 353.223864 
L 167.132495 353.2239 
L 197.624397 353.2239 
L 228.116299 353.2239 
L 258.608201 353.2239 
L 289.100103 353.173826 
L 319.592006 353.219098 
L 350.083908 353.223888 
L 380.57581 353.2239 
L 411.067712 353.157296 
L 441.559614 353.190137 
L 472.051517 353.148734 
L 502.543419 352.522813 
L 533.035321 353.210305 
L 563.527223 353.222893 
L 594.019125 352.213576 
L 624.511028 352.063705 
L 655.00293 352.638206 
L 685.494832 352.973929 
L 715.986734 353.222724 
L 746.478636 353.223876 
L 776.970538 353.223876 
L 807.462441 353.223888 
L 837.954343 353.223827 
L 868.446245 353.221572 
L 898.938147 353.223851 
L 929.430049 353.223742 
L 947.725191 353.223839 
" clip-path="url(#pb5d69db51a)" style="fill: none; stroke: #5cb85c; stroke-linecap: square"/>
   </g>
   <g id="line2d_37">
    <path d="M 39.066505 353.04542 
L 45.164886 352.099812 
L 51.263266 344.777251 
L 57.361647 353.2239 
L 63.460027 353.221196 
L 69.558408 353.2239 
L 75.656788 353.150683 
L 81.755169 353.211055 
L 87.853549 353.2239 
L 106.14869 353.2239 
L 136.640592 353.223819 
L 167.132495 353.212299 
L 197.624397 352.010558 
L 228.116299 352.18889 
L 258.608201 350.066421 
L 289.100103 350.562664 
L 319.592006 348.919212 
L 350.083908 352.355526 
L 380.57581 353.21864 
L 411.067712 350.576861 
L 441.559614 351.500456 
L 472.051517 352.887383 
L 502.543419 352.723641 
L 533.035321 350.189207 
L 563.527223 351.356252 
L 594.019125 352.712662 
L 624.511028 352.099447 
L 655.00293 352.625328 
L 685.494832 353.029018 
L 715.986734 353.207512 
L 746.478636 350.450586 
L 776.970538 352.245801 
L 807.462441 353.131726 
L 837.954343 352.25317 
L 868.446245 350.514447 
L 898.938147 352.083276 
L 929.430049 353.2239 
L 947.725191 353.2239 
" clip-path="url(#pb5d69db51a)" style="fill: none; stroke: #5cb85c; stroke-linecap: square"/>
   </g>
   <g id="line2d_38">
    <path d="M 39.066505 343.225419 
L 45.164886 353.2239 
L 51.263266 353.216869 
L 57.361647 353.223832 
L 63.460027 353.2239 
L 69.558408 353.2239 
L 75.656788 353.2239 
L 81.755169 353.2239 
L 87.853549 353.2239 
L 106.14869 353.2239 
L 136.640592 353.223873 
L 167.132495 353.2239 
L 197.624397 353.2239 
L 228.116299 353.223886 
L 258.608201 353.2239 
L 289.100103 353.170018 
L 319.592006 353.219276 
L 350.083908 353.223886 
L 380.57581 353.2239 
L 411.067712 353.155293 
L 441.559614 353.190611 
L 472.051517 353.147126 
L 502.543419 352.491657 
L 533.035321 353.208351 
L 563.527223 353.223089 
L 594.019125 352.218177 
L 624.511028 352.081815 
L 655.00293 352.645786 
L 685.494832 352.937574 
L 715.986734 353.222683 
L 746.478636 353.223886 
L 776.970538 353.223886 
L 807.462441 353.2239 
L 837.954343 353.223832 
L 868.446245 353.22148 
L 898.938147 353.223846 
L 929.430049 353.223778 
L 947.725191 353.223832 
" clip-path="url(#pb5d69db51a)" style="fill: none; stroke: #5cb85c; stroke-linecap: square"/>
   </g>
   <g id="line2d_39">
    <path d="M 32.968125 353.2239 
L 993.158125 353.2239 
" clip-path="url(#pb5d69db51a)" style="fill: none; stroke: #dedede; stroke-width: 2; stroke-linecap: square"/>
   </g>
   <g id="text_17">
    <!-- FastQC: Per Base N Content -->
    <g transform="translate(402.209375 19.3575)scale(0.16 -0.16)">
     <defs>
      <path id="DejaVuSans-46" d="M 628 4666 
L 3309 4666 
L 3309 4134 
L 1259 4134 
L 1259 2759 
L 3109 2759 
L 3109 2228 
L 1259 2228 
L 1259 0 
L 628 0 
L 628 4666 
z
" transform="scale(0.015625)"/>
      <path id="DejaVuSans-51" d="M 2522 4238 
Q 1834 4238 1429 3725 
Q 1025 3213 1025 2328 
Q 1025 1447 1429 934 
Q 1834 422 2522 422 
Q 3209 422 3611 934 
Q 4013 1447 4013 2328 
Q 4013 3213 3611 3725 
Q 3209 4238 2522 4238 
z
M 3406 84 
L 4238 -825 
L 3475 -825 
L 2784 -78 
Q 2681 -84 2626 -87 
Q 2572 -91 2522 -91 
Q 1538 -91 948 567 
Q 359 1225 359 2328 
Q 359 3434 948 4092 
Q 1538 4750 2522 4750 
Q 3503 4750 4090 4092 
Q 4678 3434 4678 2328 
Q 4678 1516 4351 937 
Q 4025 359 3406 84 
z
" transform="scale(0.015625)"/>
      <path id="DejaVuSans-3a" d="M 750 794 
L 1409 794 
L 1409 0 
L 750 0 
L 750 794 
z
M 750 3309 
L 1409 3309 
L 1409 2516 
L 750 2516 
L 750 3309 
z
" transform="scale(0.015625)"/>
      <path id="DejaVuSans-42" d="M 1259 2228 
L 1259 519 
L 2272 519 
Q 2781 519 3026 730 
Q 3272 941 3272 1375 
Q 3272 1813 3026 2020 
Q 2781 2228 2272 2228 
L 1259 2228 
z
M 1259 4147 
L 1259 2741 
L 2194 2741 
Q 2656 2741 2882 2914 
Q 3109 3088 3109 3444 
Q 3109 3797 2882 3972 
Q 2656 4147 2194 4147 
L 1259 4147 
z
M 628 4666 
L 2241 4666 
Q 2963 4666 3353 4366 
Q 3744 4066 3744 3513 
Q 3744 3084 3544 2831 
Q 3344 2578 2956 2516 
Q 3422 2416 3680 2098 
Q 3938 1781 3938 1306 
Q 3938 681 3513 340 
Q 3088 0 2303 0 
L 628 0 
L 628 4666 
z
" transform="scale(0.015625)"/>
     </defs>
     <use xlink:href="#DejaVuSans-46"/>
     <use xlink:href="#DejaVuSans-61" x="48.394531"/>
     <use xlink:href="#DejaVuSans-73" x="109.673828"/>
     <use xlink:href="#DejaVuSans-74" x="161.773438"/>
     <use xlink:href="#DejaVuSans-51" x="200.982422"/>
     <use xlink:href="#DejaVuSans-43" x="279.693359"/>
     <use xlink:href="#DejaVuSans-3a" x="349.517578"/>
     <use xlink:href="#DejaVuSans-20" x="383.208984"/>
     <use xlink:href="#DejaVuSans-50" x="414.996094"/>
     <use xlink:href="#DejaVuSans-65" x="471.673828"/>
     <use xlink:href="#DejaVuSans-72" x="533.197266"/>
     <use xlink:href="#DejaVuSans-20" x="574.310547"/>
     <use xlink:href="#DejaVuSans-42" x="606.097656"/>
     <use xlink:href="#DejaVuSans-61" x="674.701172"/>
     <use xlink:href="#DejaVuSans-73" x="735.980469"/>
     <use xlink:href="#DejaVuSans-65" x="788.080078"/>
     <use xlink:href="#DejaVuSans-20" x="849.603516"/>
     <use xlink:href="#DejaVuSans-4e" x="881.390625"/>
     <use xlink:href="#DejaVuSans-20" x="956.195312"/>
     <use xlink:href="#DejaVuSans-43" x="987.982422"/>
     <use xlink:href="#DejaVuSans-6f" x="1057.806641"/>
     <use xlink:href="#DejaVuSans-6e" x="1118.988281"/>
     <use xlink:href="#DejaVuSans-74" x="1182.367188"/>
     <use xlink:href="#DejaVuSans-65" x="1221.576172"/>
     <use xlink:href="#DejaVuSans-6e" x="1283.099609"/>
     <use xlink:href="#DejaVuSans-74" x="1346.478516"/>
    </g>
   </g>
  </g>
 </g>
 <defs>
  <clipPath id="pb5d69db51a">
   <rect x="32.968125" y="35.2559" width="960.19" height="317.968"/>
  </clipPath>
 </defs>
</svg>
