<?xml version="1.0" encoding="utf-8" standalone="no"?>
<!DOCTYPE svg PUBLIC "-//W3C//DTD SVG 1.1//EN"
  "http://www.w3.org/Graphics/SVG/1.1/DTD/svg11.dtd">
<svg xmlns:xlink="http://www.w3.org/1999/xlink" width="1000.358125pt" height="388.844525pt" viewBox="0 0 1000.358125 388.844525" xmlns="http://www.w3.org/2000/svg" version="1.1">
 <metadata>
  <rdf:RDF xmlns:dc="http://purl.org/dc/elements/1.1/" xmlns:cc="http://creativecommons.org/ns#" xmlns:rdf="http://www.w3.org/1999/02/22-rdf-syntax-ns#">
   <cc:Work>
    <dc:type rdf:resource="http://purl.org/dc/dcmitype/StillImage"/>
    <dc:date>2023-04-21T00:02:15.819726</dc:date>
    <dc:format>image/svg+xml</dc:format>
    <dc:creator>
     <cc:Agent>
      <dc:title>Matplotlib v3.5.3, https://matplotlib.org/</dc:title>
     </cc:Agent>
    </dc:creator>
   </cc:Work>
  </rdf:RDF>
 </metadata>
 <defs>
  <style type="text/css">*{stroke-linejoin: round; stroke-linecap: butt}</style>
 </defs>
 <g id="figure_1">
  <g id="axes_1">
   <g id="patch_1">
    <path d="M 32.968125 353.2239 
L 993.158125 353.2239 
L 993.158125 35.2559 
L 32.968125 35.2559 
z
" style="fill: #ffffff"/>
   </g>
   <g id="matplotlib.axis_1">
    <g id="xtick_1">
     <g id="text_1">
      <!-- 0 -->
      <g transform="translate(68.248792 366.30265)scale(0.08 -0.08)">
       <defs>
        <path id="DejaVuSans-30" d="M 2034 4250 
Q 1547 4250 1301 3770 
Q 1056 3291 1056 2328 
Q 1056 1369 1301 889 
Q 1547 409 2034 409 
Q 2525 409 2770 889 
Q 3016 1369 3016 2328 
Q 3016 3291 2770 3770 
Q 2525 4250 2034 4250 
z
M 2034 4750 
Q 2819 4750 3233 4129 
Q 3647 3509 3647 2328 
Q 3647 1150 3233 529 
Q 2819 -91 2034 -91 
Q 1250 -91 836 529 
Q 422 1150 422 2328 
Q 422 3509 836 4129 
Q 1250 4750 2034 4750 
z
" transform="scale(0.015625)"/>
       </defs>
       <use xlink:href="#DejaVuSans-30"/>
      </g>
     </g>
    </g>
    <g id="xtick_2">
     <g id="text_2">
      <!-- 20 -->
      <g transform="translate(182.090458 366.30265)scale(0.08 -0.08)">
       <defs>
        <path id="DejaVuSans-32" d="M 1228 531 
L 3431 531 
L 3431 0 
L 469 0 
L 469 531 
Q 828 903 1448 1529 
Q 2069 2156 2228 2338 
Q 2531 2678 2651 2914 
Q 2772 3150 2772 3378 
Q 2772 3750 2511 3984 
Q 2250 4219 1831 4219 
Q 1534 4219 1204 4116 
Q 875 4013 500 3803 
L 500 4441 
Q 881 4594 1212 4672 
Q 1544 4750 1819 4750 
Q 2544 4750 2975 4387 
Q 3406 4025 3406 3419 
Q 3406 3131 3298 2873 
Q 3191 2616 2906 2266 
Q 2828 2175 2409 1742 
Q 1991 1309 1228 531 
z
" transform="scale(0.015625)"/>
       </defs>
       <use xlink:href="#DejaVuSans-32"/>
       <use xlink:href="#DejaVuSans-30" x="63.623047"/>
      </g>
     </g>
    </g>
    <g id="xtick_3">
     <g id="text_3">
      <!-- 40 -->
      <g transform="translate(298.477125 366.30265)scale(0.08 -0.08)">
       <defs>
        <path id="DejaVuSans-34" d="M 2419 4116 
L 825 1625 
L 2419 1625 
L 2419 4116 
z
M 2253 4666 
L 3047 4666 
L 3047 1625 
L 3713 1625 
L 3713 1100 
L 3047 1100 
L 3047 0 
L 2419 0 
L 2419 1100 
L 313 1100 
L 313 1709 
L 2253 4666 
z
" transform="scale(0.015625)"/>
       </defs>
       <use xlink:href="#DejaVuSans-34"/>
       <use xlink:href="#DejaVuSans-30" x="63.623047"/>
      </g>
     </g>
    </g>
    <g id="xtick_4">
     <g id="text_4">
      <!-- 60 -->
      <g transform="translate(414.863792 366.30265)scale(0.08 -0.08)">
       <defs>
        <path id="DejaVuSans-36" d="M 2113 2584 
Q 1688 2584 1439 2293 
Q 1191 2003 1191 1497 
Q 1191 994 1439 701 
Q 1688 409 2113 409 
Q 2538 409 2786 701 
Q 3034 994 3034 1497 
Q 3034 2003 2786 2293 
Q 2538 2584 2113 2584 
z
M 3366 4563 
L 3366 3988 
Q 3128 4100 2886 4159 
Q 2644 4219 2406 4219 
Q 1781 4219 1451 3797 
Q 1122 3375 1075 2522 
Q 1259 2794 1537 2939 
Q 1816 3084 2150 3084 
Q 2853 3084 3261 2657 
Q 3669 2231 3669 1497 
Q 3669 778 3244 343 
Q 2819 -91 2113 -91 
Q 1303 -91 875 529 
Q 447 1150 447 2328 
Q 447 3434 972 4092 
Q 1497 4750 2381 4750 
Q 2619 4750 2861 4703 
Q 3103 4656 3366 4563 
z
" transform="scale(0.015625)"/>
       </defs>
       <use xlink:href="#DejaVuSans-36"/>
       <use xlink:href="#DejaVuSans-30" x="63.623047"/>
      </g>
     </g>
    </g>
    <g id="xtick_5">
     <g id="text_5">
      <!-- 80 -->
      <g transform="translate(531.250458 366.30265)scale(0.08 -0.08)">
       <defs>
        <path id="DejaVuSans-38" d="M 2034 2216 
Q 1584 2216 1326 1975 
Q 1069 1734 1069 1313 
Q 1069 891 1326 650 
Q 1584 409 2034 409 
Q 2484 409 2743 651 
Q 3003 894 3003 1313 
Q 3003 1734 2745 1975 
Q 2488 2216 2034 2216 
z
M 1403 2484 
Q 997 2584 770 2862 
Q 544 3141 544 3541 
Q 544 4100 942 4425 
Q 1341 4750 2034 4750 
Q 2731 4750 3128 4425 
Q 3525 4100 3525 3541 
Q 3525 3141 3298 2862 
Q 3072 2584 2669 2484 
Q 3125 2378 3379 2068 
Q 3634 1759 3634 1313 
Q 3634 634 3220 271 
Q 2806 -91 2034 -91 
Q 1263 -91 848 271 
Q 434 634 434 1313 
Q 434 1759 690 2068 
Q 947 2378 1403 2484 
z
M 1172 3481 
Q 1172 3119 1398 2916 
Q 1625 2713 2034 2713 
Q 2441 2713 2670 2916 
Q 2900 3119 2900 3481 
Q 2900 3844 2670 4047 
Q 2441 4250 2034 4250 
Q 1625 4250 1398 4047 
Q 1172 3844 1172 3481 
z
" transform="scale(0.015625)"/>
       </defs>
       <use xlink:href="#DejaVuSans-38"/>
       <use xlink:href="#DejaVuSans-30" x="63.623047"/>
      </g>
     </g>
    </g>
    <g id="xtick_6">
     <g id="text_6">
      <!-- 100 -->
      <g transform="translate(645.092125 366.30265)scale(0.08 -0.08)">
       <defs>
        <path id="DejaVuSans-31" d="M 794 531 
L 1825 531 
L 1825 4091 
L 703 3866 
L 703 4441 
L 1819 4666 
L 2450 4666 
L 2450 531 
L 3481 531 
L 3481 0 
L 794 0 
L 794 531 
z
" transform="scale(0.015625)"/>
       </defs>
       <use xlink:href="#DejaVuSans-31"/>
       <use xlink:href="#DejaVuSans-30" x="63.623047"/>
       <use xlink:href="#DejaVuSans-30" x="127.246094"/>
      </g>
     </g>
    </g>
    <g id="xtick_7">
     <g id="text_7">
      <!-- 120 -->
      <g transform="translate(761.478792 366.30265)scale(0.08 -0.08)">
       <use xlink:href="#DejaVuSans-31"/>
       <use xlink:href="#DejaVuSans-32" x="63.623047"/>
       <use xlink:href="#DejaVuSans-30" x="127.246094"/>
      </g>
     </g>
    </g>
    <g id="xtick_8">
     <g id="text_8">
      <!-- 140 -->
      <g transform="translate(877.865458 366.30265)scale(0.08 -0.08)">
       <use xlink:href="#DejaVuSans-31"/>
       <use xlink:href="#DejaVuSans-34" x="63.623047"/>
       <use xlink:href="#DejaVuSans-30" x="127.246094"/>
      </g>
     </g>
    </g>
    <g id="text_9">
     <!-- Length Trimmed (bp) -->
     <g transform="translate(460.635781 379.564837)scale(0.1 -0.1)">
      <defs>
       <path id="DejaVuSans-4c" d="M 628 4666 
L 1259 4666 
L 1259 531 
L 3531 531 
L 3531 0 
L 628 0 
L 628 4666 
z
" transform="scale(0.015625)"/>
       <path id="DejaVuSans-65" d="M 3597 1894 
L 3597 1613 
L 953 1613 
Q 991 1019 1311 708 
Q 1631 397 2203 397 
Q 2534 397 2845 478 
Q 3156 559 3463 722 
L 3463 178 
Q 3153 47 2828 -22 
Q 2503 -91 2169 -91 
Q 1331 -91 842 396 
Q 353 884 353 1716 
Q 353 2575 817 3079 
Q 1281 3584 2069 3584 
Q 2775 3584 3186 3129 
Q 3597 2675 3597 1894 
z
M 3022 2063 
Q 3016 2534 2758 2815 
Q 2500 3097 2075 3097 
Q 1594 3097 1305 2825 
Q 1016 2553 972 2059 
L 3022 2063 
z
" transform="scale(0.015625)"/>
       <path id="DejaVuSans-6e" d="M 3513 2113 
L 3513 0 
L 2938 0 
L 2938 2094 
Q 2938 2591 2744 2837 
Q 2550 3084 2163 3084 
Q 1697 3084 1428 2787 
Q 1159 2491 1159 1978 
L 1159 0 
L 581 0 
L 581 3500 
L 1159 3500 
L 1159 2956 
Q 1366 3272 1645 3428 
Q 1925 3584 2291 3584 
Q 2894 3584 3203 3211 
Q 3513 2838 3513 2113 
z
" transform="scale(0.015625)"/>
       <path id="DejaVuSans-67" d="M 2906 1791 
Q 2906 2416 2648 2759 
Q 2391 3103 1925 3103 
Q 1463 3103 1205 2759 
Q 947 2416 947 1791 
Q 947 1169 1205 825 
Q 1463 481 1925 481 
Q 2391 481 2648 825 
Q 2906 1169 2906 1791 
z
M 3481 434 
Q 3481 -459 3084 -895 
Q 2688 -1331 1869 -1331 
Q 1566 -1331 1297 -1286 
Q 1028 -1241 775 -1147 
L 775 -588 
Q 1028 -725 1275 -790 
Q 1522 -856 1778 -856 
Q 2344 -856 2625 -561 
Q 2906 -266 2906 331 
L 2906 616 
Q 2728 306 2450 153 
Q 2172 0 1784 0 
Q 1141 0 747 490 
Q 353 981 353 1791 
Q 353 2603 747 3093 
Q 1141 3584 1784 3584 
Q 2172 3584 2450 3431 
Q 2728 3278 2906 2969 
L 2906 3500 
L 3481 3500 
L 3481 434 
z
" transform="scale(0.015625)"/>
       <path id="DejaVuSans-74" d="M 1172 4494 
L 1172 3500 
L 2356 3500 
L 2356 3053 
L 1172 3053 
L 1172 1153 
Q 1172 725 1289 603 
Q 1406 481 1766 481 
L 2356 481 
L 2356 0 
L 1766 0 
Q 1100 0 847 248 
Q 594 497 594 1153 
L 594 3053 
L 172 3053 
L 172 3500 
L 594 3500 
L 594 4494 
L 1172 4494 
z
" transform="scale(0.015625)"/>
       <path id="DejaVuSans-68" d="M 3513 2113 
L 3513 0 
L 2938 0 
L 2938 2094 
Q 2938 2591 2744 2837 
Q 2550 3084 2163 3084 
Q 1697 3084 1428 2787 
Q 1159 2491 1159 1978 
L 1159 0 
L 581 0 
L 581 4863 
L 1159 4863 
L 1159 2956 
Q 1366 3272 1645 3428 
Q 1925 3584 2291 3584 
Q 2894 3584 3203 3211 
Q 3513 2838 3513 2113 
z
" transform="scale(0.015625)"/>
       <path id="DejaVuSans-20" transform="scale(0.015625)"/>
       <path id="DejaVuSans-54" d="M -19 4666 
L 3928 4666 
L 3928 4134 
L 2272 4134 
L 2272 0 
L 1638 0 
L 1638 4134 
L -19 4134 
L -19 4666 
z
" transform="scale(0.015625)"/>
       <path id="DejaVuSans-72" d="M 2631 2963 
Q 2534 3019 2420 3045 
Q 2306 3072 2169 3072 
Q 1681 3072 1420 2755 
Q 1159 2438 1159 1844 
L 1159 0 
L 581 0 
L 581 3500 
L 1159 3500 
L 1159 2956 
Q 1341 3275 1631 3429 
Q 1922 3584 2338 3584 
Q 2397 3584 2469 3576 
Q 2541 3569 2628 3553 
L 2631 2963 
z
" transform="scale(0.015625)"/>
       <path id="DejaVuSans-69" d="M 603 3500 
L 1178 3500 
L 1178 0 
L 603 0 
L 603 3500 
z
M 603 4863 
L 1178 4863 
L 1178 4134 
L 603 4134 
L 603 4863 
z
" transform="scale(0.015625)"/>
       <path id="DejaVuSans-6d" d="M 3328 2828 
Q 3544 3216 3844 3400 
Q 4144 3584 4550 3584 
Q 5097 3584 5394 3201 
Q 5691 2819 5691 2113 
L 5691 0 
L 5113 0 
L 5113 2094 
Q 5113 2597 4934 2840 
Q 4756 3084 4391 3084 
Q 3944 3084 3684 2787 
Q 3425 2491 3425 1978 
L 3425 0 
L 2847 0 
L 2847 2094 
Q 2847 2600 2669 2842 
Q 2491 3084 2119 3084 
Q 1678 3084 1418 2786 
Q 1159 2488 1159 1978 
L 1159 0 
L 581 0 
L 581 3500 
L 1159 3500 
L 1159 2956 
Q 1356 3278 1631 3431 
Q 1906 3584 2284 3584 
Q 2666 3584 2933 3390 
Q 3200 3197 3328 2828 
z
" transform="scale(0.015625)"/>
       <path id="DejaVuSans-64" d="M 2906 2969 
L 2906 4863 
L 3481 4863 
L 3481 0 
L 2906 0 
L 2906 525 
Q 2725 213 2448 61 
Q 2172 -91 1784 -91 
Q 1150 -91 751 415 
Q 353 922 353 1747 
Q 353 2572 751 3078 
Q 1150 3584 1784 3584 
Q 2172 3584 2448 3432 
Q 2725 3281 2906 2969 
z
M 947 1747 
Q 947 1113 1208 752 
Q 1469 391 1925 391 
Q 2381 391 2643 752 
Q 2906 1113 2906 1747 
Q 2906 2381 2643 2742 
Q 2381 3103 1925 3103 
Q 1469 3103 1208 2742 
Q 947 2381 947 1747 
z
" transform="scale(0.015625)"/>
       <path id="DejaVuSans-28" d="M 1984 4856 
Q 1566 4138 1362 3434 
Q 1159 2731 1159 2009 
Q 1159 1288 1364 580 
Q 1569 -128 1984 -844 
L 1484 -844 
Q 1016 -109 783 600 
Q 550 1309 550 2009 
Q 550 2706 781 3412 
Q 1013 4119 1484 4856 
L 1984 4856 
z
" transform="scale(0.015625)"/>
       <path id="DejaVuSans-62" d="M 3116 1747 
Q 3116 2381 2855 2742 
Q 2594 3103 2138 3103 
Q 1681 3103 1420 2742 
Q 1159 2381 1159 1747 
Q 1159 1113 1420 752 
Q 1681 391 2138 391 
Q 2594 391 2855 752 
Q 3116 1113 3116 1747 
z
M 1159 2969 
Q 1341 3281 1617 3432 
Q 1894 3584 2278 3584 
Q 2916 3584 3314 3078 
Q 3713 2572 3713 1747 
Q 3713 922 3314 415 
Q 2916 -91 2278 -91 
Q 1894 -91 1617 61 
Q 1341 213 1159 525 
L 1159 0 
L 581 0 
L 581 4863 
L 1159 4863 
L 1159 2969 
z
" transform="scale(0.015625)"/>
       <path id="DejaVuSans-70" d="M 1159 525 
L 1159 -1331 
L 581 -1331 
L 581 3500 
L 1159 3500 
L 1159 2969 
Q 1341 3281 1617 3432 
Q 1894 3584 2278 3584 
Q 2916 3584 3314 3078 
Q 3713 2572 3713 1747 
Q 3713 922 3314 415 
Q 2916 -91 2278 -91 
Q 1894 -91 1617 61 
Q 1341 213 1159 525 
z
M 3116 1747 
Q 3116 2381 2855 2742 
Q 2594 3103 2138 3103 
Q 1681 3103 1420 2742 
Q 1159 2381 1159 1747 
Q 1159 1113 1420 752 
Q 1681 391 2138 391 
Q 2594 391 2855 752 
Q 3116 1113 3116 1747 
z
" transform="scale(0.015625)"/>
       <path id="DejaVuSans-29" d="M 513 4856 
L 1013 4856 
Q 1481 4119 1714 3412 
Q 1947 2706 1947 2009 
Q 1947 1309 1714 600 
Q 1481 -109 1013 -844 
L 513 -844 
Q 928 -128 1133 580 
Q 1338 1288 1338 2009 
Q 1338 2731 1133 3434 
Q 928 4138 513 4856 
z
" transform="scale(0.015625)"/>
      </defs>
      <use xlink:href="#DejaVuSans-4c"/>
      <use xlink:href="#DejaVuSans-65" x="53.962891"/>
      <use xlink:href="#DejaVuSans-6e" x="115.486328"/>
      <use xlink:href="#DejaVuSans-67" x="178.865234"/>
      <use xlink:href="#DejaVuSans-74" x="242.341797"/>
      <use xlink:href="#DejaVuSans-68" x="281.550781"/>
      <use xlink:href="#DejaVuSans-20" x="344.929688"/>
      <use xlink:href="#DejaVuSans-54" x="376.716797"/>
      <use xlink:href="#DejaVuSans-72" x="423.050781"/>
      <use xlink:href="#DejaVuSans-69" x="464.164062"/>
      <use xlink:href="#DejaVuSans-6d" x="491.947266"/>
      <use xlink:href="#DejaVuSans-6d" x="589.359375"/>
      <use xlink:href="#DejaVuSans-65" x="686.771484"/>
      <use xlink:href="#DejaVuSans-64" x="748.294922"/>
      <use xlink:href="#DejaVuSans-20" x="811.771484"/>
      <use xlink:href="#DejaVuSans-28" x="843.558594"/>
      <use xlink:href="#DejaVuSans-62" x="882.572266"/>
      <use xlink:href="#DejaVuSans-70" x="946.048828"/>
      <use xlink:href="#DejaVuSans-29" x="1009.525391"/>
     </g>
    </g>
   </g>
   <g id="matplotlib.axis_2">
    <g id="ytick_1">
     <g id="line2d_1">
      <path d="M 32.968125 353.2239 
L 993.158125 353.2239 
" clip-path="url(#pbb122d6f99)" style="fill: none; stroke: #dedede; stroke-linecap: square"/>
     </g>
     <g id="text_10">
      <!-- 0 -->
      <g transform="translate(20.878125 356.263275)scale(0.08 -0.08)">
       <use xlink:href="#DejaVuSans-30"/>
      </g>
     </g>
    </g>
    <g id="ytick_2">
     <g id="line2d_2">
      <path d="M 32.968125 290.079826 
L 993.158125 290.079826 
" clip-path="url(#pbb122d6f99)" style="fill: none; stroke: #dedede; stroke-linecap: square"/>
     </g>
     <g id="text_11">
      <!-- 1 -->
      <g transform="translate(20.878125 293.119201)scale(0.08 -0.08)">
       <use xlink:href="#DejaVuSans-31"/>
      </g>
     </g>
    </g>
    <g id="ytick_3">
     <g id="line2d_3">
      <path d="M 32.968125 226.935752 
L 993.158125 226.935752 
" clip-path="url(#pbb122d6f99)" style="fill: none; stroke: #dedede; stroke-linecap: square"/>
     </g>
     <g id="text_12">
      <!-- 2 -->
      <g transform="translate(20.878125 229.975127)scale(0.08 -0.08)">
       <use xlink:href="#DejaVuSans-32"/>
      </g>
     </g>
    </g>
    <g id="ytick_4">
     <g id="line2d_4">
      <path d="M 32.968125 163.791677 
L 993.158125 163.791677 
" clip-path="url(#pbb122d6f99)" style="fill: none; stroke: #dedede; stroke-linecap: square"/>
     </g>
     <g id="text_13">
      <!-- 3 -->
      <g transform="translate(20.878125 166.831052)scale(0.08 -0.08)">
       <defs>
        <path id="DejaVuSans-33" d="M 2597 2516 
Q 3050 2419 3304 2112 
Q 3559 1806 3559 1356 
Q 3559 666 3084 287 
Q 2609 -91 1734 -91 
Q 1441 -91 1130 -33 
Q 819 25 488 141 
L 488 750 
Q 750 597 1062 519 
Q 1375 441 1716 441 
Q 2309 441 2620 675 
Q 2931 909 2931 1356 
Q 2931 1769 2642 2001 
Q 2353 2234 1838 2234 
L 1294 2234 
L 1294 2753 
L 1863 2753 
Q 2328 2753 2575 2939 
Q 2822 3125 2822 3475 
Q 2822 3834 2567 4026 
Q 2313 4219 1838 4219 
Q 1578 4219 1281 4162 
Q 984 4106 628 3988 
L 628 4550 
Q 988 4650 1302 4700 
Q 1616 4750 1894 4750 
Q 2613 4750 3031 4423 
Q 3450 4097 3450 3541 
Q 3450 3153 3228 2886 
Q 3006 2619 2597 2516 
z
" transform="scale(0.015625)"/>
       </defs>
       <use xlink:href="#DejaVuSans-33"/>
      </g>
     </g>
    </g>
    <g id="ytick_5">
     <g id="line2d_5">
      <path d="M 32.968125 100.647603 
L 993.158125 100.647603 
" clip-path="url(#pbb122d6f99)" style="fill: none; stroke: #dedede; stroke-linecap: square"/>
     </g>
     <g id="text_14">
      <!-- 4 -->
      <g transform="translate(20.878125 103.686978)scale(0.08 -0.08)">
       <use xlink:href="#DejaVuSans-34"/>
      </g>
     </g>
    </g>
    <g id="ytick_6">
     <g id="line2d_6">
      <path d="M 32.968125 37.503529 
L 993.158125 37.503529 
" clip-path="url(#pbb122d6f99)" style="fill: none; stroke: #dedede; stroke-linecap: square"/>
     </g>
     <g id="text_15">
      <!-- 5 -->
      <g transform="translate(20.878125 40.542904)scale(0.08 -0.08)">
       <defs>
        <path id="DejaVuSans-35" d="M 691 4666 
L 3169 4666 
L 3169 4134 
L 1269 4134 
L 1269 2991 
Q 1406 3038 1543 3061 
Q 1681 3084 1819 3084 
Q 2600 3084 3056 2656 
Q 3513 2228 3513 1497 
Q 3513 744 3044 326 
Q 2575 -91 1722 -91 
Q 1428 -91 1123 -41 
Q 819 9 494 109 
L 494 744 
Q 775 591 1075 516 
Q 1375 441 1709 441 
Q 2250 441 2565 725 
Q 2881 1009 2881 1497 
Q 2881 1984 2565 2268 
Q 2250 2553 1709 2553 
Q 1456 2553 1204 2497 
Q 953 2441 691 2322 
L 691 4666 
z
" transform="scale(0.015625)"/>
       </defs>
       <use xlink:href="#DejaVuSans-35"/>
      </g>
     </g>
    </g>
    <g id="text_16">
     <!-- Count -->
     <g transform="translate(14.798437 209.088338)rotate(-90)scale(0.1 -0.1)">
      <defs>
       <path id="DejaVuSans-43" d="M 4122 4306 
L 4122 3641 
Q 3803 3938 3442 4084 
Q 3081 4231 2675 4231 
Q 1875 4231 1450 3742 
Q 1025 3253 1025 2328 
Q 1025 1406 1450 917 
Q 1875 428 2675 428 
Q 3081 428 3442 575 
Q 3803 722 4122 1019 
L 4122 359 
Q 3791 134 3420 21 
Q 3050 -91 2638 -91 
Q 1578 -91 968 557 
Q 359 1206 359 2328 
Q 359 3453 968 4101 
Q 1578 4750 2638 4750 
Q 3056 4750 3426 4639 
Q 3797 4528 4122 4306 
z
" transform="scale(0.015625)"/>
       <path id="DejaVuSans-6f" d="M 1959 3097 
Q 1497 3097 1228 2736 
Q 959 2375 959 1747 
Q 959 1119 1226 758 
Q 1494 397 1959 397 
Q 2419 397 2687 759 
Q 2956 1122 2956 1747 
Q 2956 2369 2687 2733 
Q 2419 3097 1959 3097 
z
M 1959 3584 
Q 2709 3584 3137 3096 
Q 3566 2609 3566 1747 
Q 3566 888 3137 398 
Q 2709 -91 1959 -91 
Q 1206 -91 779 398 
Q 353 888 353 1747 
Q 353 2609 779 3096 
Q 1206 3584 1959 3584 
z
" transform="scale(0.015625)"/>
       <path id="DejaVuSans-75" d="M 544 1381 
L 544 3500 
L 1119 3500 
L 1119 1403 
Q 1119 906 1312 657 
Q 1506 409 1894 409 
Q 2359 409 2629 706 
Q 2900 1003 2900 1516 
L 2900 3500 
L 3475 3500 
L 3475 0 
L 2900 0 
L 2900 538 
Q 2691 219 2414 64 
Q 2138 -91 1772 -91 
Q 1169 -91 856 284 
Q 544 659 544 1381 
z
M 1991 3584 
L 1991 3584 
z
" transform="scale(0.015625)"/>
      </defs>
      <use xlink:href="#DejaVuSans-43"/>
      <use xlink:href="#DejaVuSans-6f" x="69.824219"/>
      <use xlink:href="#DejaVuSans-75" x="131.005859"/>
      <use xlink:href="#DejaVuSans-6e" x="194.384766"/>
      <use xlink:href="#DejaVuSans-74" x="257.763672"/>
     </g>
    </g>
    <g id="text_17">
     <!-- 1e7 -->
     <g transform="translate(32.968125 32.2559)scale(0.1 -0.1)">
      <defs>
       <path id="DejaVuSans-37" d="M 525 4666 
L 3525 4666 
L 3525 4397 
L 1831 0 
L 1172 0 
L 2766 4134 
L 525 4134 
L 525 4666 
z
" transform="scale(0.015625)"/>
      </defs>
      <use xlink:href="#DejaVuSans-31"/>
      <use xlink:href="#DejaVuSans-65" x="63.623047"/>
      <use xlink:href="#DejaVuSans-37" x="125.146484"/>
     </g>
    </g>
   </g>
   <g id="line2d_7">
    <path d="M 76.613125 263.84364 
L 82.432458 349.654258 
L 88.251792 351.019218 
L 94.071125 352.012292 
L 105.709792 352.15112 
L 111.529125 351.785888 
L 117.348458 352.231768 
L 123.167792 352.103472 
L 128.987125 351.572253 
L 134.806458 352.759374 
L 140.625792 352.181328 
L 146.445125 352.162334 
L 152.264458 352.342775 
L 158.083792 352.03849 
L 163.903125 352.350276 
L 169.722458 352.137664 
L 175.541792 351.714864 
L 181.361125 352.909468 
L 192.999792 351.875774 
L 198.819125 352.859893 
L 210.457792 351.919527 
L 216.277125 352.618917 
L 222.096458 352.637191 
L 227.915792 352.46463 
L 251.193125 352.192599 
L 257.012458 353.05038 
L 262.831792 352.165473 
L 268.651125 353.059782 
L 274.470458 352.549843 
L 280.289792 352.292992 
L 286.109125 352.365595 
L 291.928458 352.956346 
L 303.567125 352.518871 
L 309.386458 352.959806 
L 315.205792 352.672842 
L 326.844458 352.528134 
L 332.663792 352.973527 
L 338.483125 352.850617 
L 344.302458 352.607709 
L 350.121792 352.830538 
L 355.941125 352.686809 
L 361.760458 351.878969 
L 373.399125 352.399523 
L 379.218458 352.801346 
L 390.857125 352.996423 
L 396.676458 352.560912 
L 402.495792 352.920133 
L 408.315125 353.148727 
L 414.134458 352.908761 
L 419.953792 353.080797 
L 501.424458 353.066033 
L 513.063125 353.205348 
L 542.159792 353.082262 
L 553.798458 353.212736 
L 577.075792 353.143745 
L 611.991792 353.128521 
L 949.513125 353.223509 
L 949.513125 353.223509 
" clip-path="url(#pbb122d6f99)" style="fill: none; stroke: #7cb5ec; stroke-linecap: square"/>
   </g>
   <g id="line2d_8">
    <path d="M 76.613125 297.149885 
L 82.432458 335.854689 
L 88.251792 347.222466 
L 94.071125 351.334149 
L 99.890458 351.878717 
L 105.709792 352.211688 
L 111.529125 352.046446 
L 117.348458 352.113568 
L 128.987125 351.547153 
L 134.806458 352.682105 
L 140.625792 352.502245 
L 146.445125 352.037928 
L 152.264458 351.875705 
L 158.083792 352.722182 
L 163.903125 352.230252 
L 169.722458 352.034089 
L 175.541792 352.539563 
L 181.361125 351.162726 
L 187.180458 352.368929 
L 192.999792 352.830475 
L 198.819125 352.638416 
L 204.638458 352.321849 
L 210.457792 351.570131 
L 216.277125 353.017596 
L 222.096458 352.181044 
L 227.915792 350.895462 
L 233.735125 352.671699 
L 245.373792 352.691425 
L 251.193125 352.848224 
L 257.012458 352.341127 
L 262.831792 352.189007 
L 268.651125 352.521397 
L 274.470458 352.439145 
L 280.289792 353.015234 
L 286.109125 352.787454 
L 291.928458 352.809094 
L 297.747792 353.104589 
L 303.567125 352.654151 
L 309.386458 353.084004 
L 315.205792 352.48692 
L 321.025125 352.966241 
L 326.844458 352.713576 
L 332.663792 352.140184 
L 338.483125 352.688104 
L 344.302458 352.965388 
L 355.941125 352.951339 
L 361.760458 352.247124 
L 367.579792 352.755081 
L 379.218458 353.06597 
L 385.037792 353.05677 
L 390.857125 352.908047 
L 402.495792 353.178619 
L 408.315125 352.977329 
L 414.134458 353.048467 
L 419.953792 352.914279 
L 437.411792 352.903179 
L 449.050458 352.516118 
L 454.869792 352.931455 
L 460.689125 353.173909 
L 472.327792 353.209901 
L 507.243792 353.042575 
L 646.907792 353.123135 
L 780.752458 353.148197 
L 914.597125 353.110689 
L 926.235792 353.218514 
L 949.513125 353.223022 
L 949.513125 353.223022 
" clip-path="url(#pbb122d6f99)" style="fill: none; stroke: #434348; stroke-linecap: square"/>
   </g>
   <g id="line2d_9">
    <path d="M 76.613125 242.169076 
L 82.432458 348.367571 
L 88.251792 351.455241 
L 99.890458 352.311866 
L 105.709792 352.323143 
L 111.529125 352.039671 
L 117.348458 352.43244 
L 123.167792 352.32882 
L 128.987125 351.871828 
L 134.806458 352.856566 
L 140.625792 352.381141 
L 146.445125 352.372061 
L 152.264458 352.513794 
L 158.083792 352.291773 
L 163.903125 352.526606 
L 169.722458 352.359767 
L 175.541792 352.043965 
L 181.361125 352.977758 
L 192.999792 352.168781 
L 198.819125 352.941273 
L 210.457792 352.19904 
L 216.277125 352.761515 
L 222.096458 352.769534 
L 233.735125 352.608978 
L 239.554458 352.625244 
L 251.193125 352.429724 
L 257.012458 353.098332 
L 262.831792 352.406311 
L 268.651125 353.113063 
L 274.470458 352.706832 
L 280.289792 352.531955 
L 286.109125 352.494415 
L 291.928458 353.050873 
L 303.567125 352.665391 
L 309.386458 353.029176 
L 315.205792 352.546427 
L 321.025125 353.132505 
L 326.844458 352.655389 
L 332.663792 353.02427 
L 338.483125 352.758686 
L 344.302458 353.015424 
L 350.121792 352.84359 
L 361.760458 352.203965 
L 367.579792 352.54022 
L 373.399125 352.711075 
L 379.218458 353.043447 
L 385.037792 352.948788 
L 390.857125 353.021283 
L 402.495792 352.768454 
L 408.315125 353.130422 
L 414.134458 353.057421 
L 419.953792 353.141958 
L 425.773125 353.077399 
L 437.411792 353.161501 
L 443.231125 353.049679 
L 460.689125 353.126519 
L 483.966458 353.087155 
L 501.424458 353.103061 
L 518.882458 353.190345 
L 542.159792 353.110594 
L 553.798458 353.213841 
L 594.533792 353.13923 
L 949.513125 353.223755 
L 949.513125 353.223755 
" clip-path="url(#pbb122d6f99)" style="fill: none; stroke: #90ed7d; stroke-linecap: square"/>
   </g>
   <g id="line2d_10">
    <path d="M 76.613125 280.736536 
L 82.432458 332.408159 
L 88.251792 346.200656 
L 94.071125 351.02617 
L 99.890458 352.091001 
L 105.709792 352.380807 
L 111.529125 352.275179 
L 117.348458 352.314114 
L 123.167792 352.037189 
L 128.987125 351.890695 
L 134.806458 352.751911 
L 140.625792 352.647407 
L 146.445125 352.26017 
L 152.264458 352.150659 
L 158.083792 352.820018 
L 163.903125 352.424206 
L 169.722458 352.290814 
L 175.541792 352.664128 
L 181.361125 351.512904 
L 187.180458 352.525874 
L 192.999792 352.876488 
L 198.819125 352.768265 
L 204.638458 352.51471 
L 210.457792 351.927312 
L 216.277125 353.045916 
L 222.096458 352.400943 
L 227.915792 351.405553 
L 233.735125 352.811127 
L 239.554458 352.743064 
L 251.193125 352.922854 
L 257.012458 352.568584 
L 262.831792 352.410371 
L 268.651125 352.678537 
L 274.470458 352.63976 
L 280.289792 353.052988 
L 286.109125 352.879001 
L 291.928458 352.922633 
L 297.747792 353.124865 
L 303.567125 352.800538 
L 309.386458 353.115677 
L 315.205792 352.658672 
L 321.025125 353.027838 
L 326.844458 352.835381 
L 332.663792 352.389539 
L 338.483125 352.818824 
L 344.302458 353.036899 
L 355.941125 353.009311 
L 361.760458 352.468937 
L 367.579792 352.863524 
L 379.218458 353.103598 
L 396.676458 353.048208 
L 402.495792 353.185382 
L 408.315125 353.037391 
L 414.134458 353.084579 
L 425.773125 352.989111 
L 437.411792 352.972808 
L 449.050458 352.680994 
L 454.869792 352.992123 
L 460.689125 353.178525 
L 478.147125 353.178853 
L 489.785792 353.076446 
L 577.075792 353.11163 
L 885.500458 353.145885 
L 926.235792 353.22001 
L 949.513125 353.22342 
L 949.513125 353.22342 
" clip-path="url(#pbb122d6f99)" style="fill: none; stroke: #f7a35c; stroke-linecap: square"/>
   </g>
   <g id="line2d_11">
    <path d="M 76.613125 284.778325 
L 82.432458 351.095825 
L 88.251792 352.225889 
L 94.071125 352.779303 
L 105.709792 352.940339 
L 134.806458 352.938861 
L 152.264458 352.93345 
L 722.559125 353.205689 
L 949.513125 353.223761 
L 949.513125 353.223761 
" clip-path="url(#pbb122d6f99)" style="fill: none; stroke: #8085e9; stroke-linecap: square"/>
   </g>
   <g id="line2d_12">
    <path d="M 76.613125 313.579638 
L 82.432458 344.195112 
L 88.251792 349.73471 
L 94.071125 351.963386 
L 99.890458 352.774851 
L 111.529125 352.896062 
L 117.348458 352.829578 
L 128.987125 352.884766 
L 140.625792 352.829502 
L 163.903125 352.873444 
L 169.722458 352.821679 
L 175.541792 352.999442 
L 181.361125 352.787252 
L 192.999792 352.964952 
L 216.277125 352.93936 
L 262.831792 352.9684 
L 268.651125 352.863745 
L 274.470458 353.116972 
L 280.289792 352.962446 
L 547.979125 353.167689 
L 949.513125 353.223711 
L 949.513125 353.223711 
" clip-path="url(#pbb122d6f99)" style="fill: none; stroke: #f15c80; stroke-linecap: square"/>
   </g>
   <g id="line2d_13">
    <path d="M 76.613125 337.094176 
L 82.432458 352.762468 
L 88.251792 352.999126 
L 99.890458 353.119213 
L 134.806458 353.141636 
L 192.999792 353.125938 
L 210.457792 353.146454 
L 396.676458 353.162012 
L 414.134458 353.180817 
L 577.075792 353.208708 
L 943.693792 353.223887 
L 943.693792 353.223887 
" clip-path="url(#pbb122d6f99)" style="fill: none; stroke: #e4d354; stroke-linecap: square"/>
   </g>
   <g id="line2d_14">
    <path d="M 76.613125 344.607487 
L 82.432458 350.979122 
L 88.251792 352.359552 
L 94.071125 352.913799 
L 99.890458 353.094808 
L 128.987125 353.124549 
L 152.264458 353.097328 
L 163.903125 353.121733 
L 187.180458 353.136325 
L 222.096458 353.145627 
L 257.012458 353.151928 
L 350.121792 353.171288 
L 949.513125 353.223887 
L 949.513125 353.223887 
" clip-path="url(#pbb122d6f99)" style="fill: none; stroke: #2b908f; stroke-linecap: square"/>
   </g>
   <g id="line2d_15">
    <path d="M 76.613125 334.098684 
L 82.432458 352.737419 
L 88.251792 352.962427 
L 99.890458 353.0934 
L 146.445125 353.098041 
L 291.928458 353.128483 
L 728.378458 353.214188 
L 949.513125 353.223862 
L 949.513125 353.223862 
" clip-path="url(#pbb122d6f99)" style="fill: none; stroke: #f45b5b; stroke-linecap: square"/>
   </g>
   <g id="line2d_16">
    <path d="M 76.613125 343.735448 
L 82.432458 350.668301 
L 88.251792 352.218394 
L 94.071125 352.828031 
L 99.890458 353.04632 
L 128.987125 353.077936 
L 152.264458 353.043542 
L 163.903125 353.067795 
L 187.180458 353.084244 
L 222.096458 353.093444 
L 239.554458 353.09011 
L 309.386458 353.118986 
L 350.121792 353.13313 
L 722.559125 353.210412 
L 949.513125 353.223862 
L 949.513125 353.223862 
" clip-path="url(#pbb122d6f99)" style="fill: none; stroke: #91e8e1; stroke-linecap: square"/>
   </g>
   <g id="line2d_17">
    <path d="M 76.613125 290.598365 
L 82.432458 351.883566 
L 88.251792 352.547955 
L 94.071125 352.967384 
L 111.529125 353.082129 
L 152.264458 353.076433 
L 670.185125 353.202204 
L 949.513125 353.223597 
L 949.513125 353.223597 
" clip-path="url(#pbb122d6f99)" style="fill: none; stroke: #7cb5ec; stroke-linecap: square"/>
   </g>
   <g id="line2d_18">
    <path d="M 76.613125 320.101909 
L 82.432458 345.102208 
L 88.251792 350.257297 
L 94.071125 352.219417 
L 99.890458 352.970888 
L 111.529125 353.048978 
L 134.806458 353.014969 
L 268.651125 353.036204 
L 274.470458 353.16426 
L 286.109125 353.088683 
L 309.386458 353.120521 
L 332.663792 353.092838 
L 344.302458 353.145854 
L 379.218458 353.149876 
L 408.315125 353.158009 
L 495.605125 353.166647 
L 617.811125 353.188748 
L 949.513125 353.223521 
L 949.513125 353.223521 
" clip-path="url(#pbb122d6f99)" style="fill: none; stroke: #434348; stroke-linecap: square"/>
   </g>
   <g id="line2d_19">
    <path d="M 76.613125 306.305952 
L 82.432458 351.809473 
L 88.251792 352.562308 
L 94.071125 352.92406 
L 105.709792 353.03275 
L 239.554458 353.081409 
L 373.399125 353.148632 
L 379.218458 353.104135 
L 390.857125 353.180659 
L 402.495792 353.157864 
L 414.134458 353.139779 
L 757.475125 353.214176 
L 949.513125 353.223868 
L 949.513125 353.223868 
" clip-path="url(#pbb122d6f99)" style="fill: none; stroke: #90ed7d; stroke-linecap: square"/>
   </g>
   <g id="line2d_20">
    <path d="M 76.613125 325.366294 
L 82.432458 346.784051 
L 88.251792 350.783022 
L 94.071125 352.346601 
L 99.890458 352.930438 
L 111.529125 353.016901 
L 123.167792 353.01896 
L 169.722458 352.969897 
L 175.541792 353.081043 
L 181.361125 352.950511 
L 192.999792 353.057844 
L 245.373792 353.070826 
L 443.231125 353.170348 
L 472.327792 353.174805 
L 943.693792 353.22378 
L 949.513125 353.223831 
L 949.513125 353.223831 
" clip-path="url(#pbb122d6f99)" style="fill: none; stroke: #f7a35c; stroke-linecap: square"/>
   </g>
   <g id="line2d_21">
    <path d="M 76.613125 293.001098 
L 82.432458 351.254013 
L 88.251792 352.281759 
L 94.071125 352.748968 
L 105.709792 352.877327 
L 117.348458 352.833537 
L 123.167792 352.982241 
L 128.987125 352.828485 
L 134.806458 352.887311 
L 146.445125 352.8544 
L 192.999792 352.814335 
L 198.819125 352.941438 
L 210.457792 352.88851 
L 379.218458 352.904372 
L 385.037792 353.141547 
L 402.495792 353.034411 
L 408.315125 353.131886 
L 414.134458 353.027446 
L 495.605125 353.149169 
L 501.424458 353.011332 
L 513.063125 353.152964 
L 530.521125 353.191374 
L 559.617792 353.154025 
L 949.513125 353.22373 
L 949.513125 353.22373 
" clip-path="url(#pbb122d6f99)" style="fill: none; stroke: #8085e9; stroke-linecap: square"/>
   </g>
   <g id="line2d_22">
    <path d="M 76.613125 320.099011 
L 82.432458 345.264949 
L 88.251792 350.055393 
L 94.071125 351.980246 
L 99.890458 352.685761 
L 111.529125 352.818616 
L 117.348458 352.729393 
L 123.167792 352.820327 
L 152.264458 352.679358 
L 158.083792 352.877106 
L 169.722458 352.693035 
L 175.541792 352.908066 
L 181.361125 352.641402 
L 187.180458 352.807875 
L 198.819125 352.829224 
L 216.277125 352.807673 
L 222.096458 352.838279 
L 227.915792 352.746828 
L 233.735125 352.928272 
L 239.554458 352.819746 
L 257.012458 352.878098 
L 262.831792 352.836271 
L 268.651125 352.669647 
L 274.470458 353.056606 
L 280.289792 352.820611 
L 291.928458 352.918706 
L 297.747792 352.979501 
L 309.386458 352.920865 
L 315.205792 352.86665 
L 321.025125 352.980189 
L 332.663792 352.839157 
L 338.483125 353.00897 
L 367.579792 352.8771 
L 373.399125 353.044318 
L 396.676458 352.981061 
L 402.495792 353.076856 
L 437.411792 353.001475 
L 449.050458 353.140424 
L 483.966458 353.086498 
L 606.172458 353.165687 
L 949.513125 353.223717 
L 949.513125 353.223717 
" clip-path="url(#pbb122d6f99)" style="fill: none; stroke: #f15c80; stroke-linecap: square"/>
   </g>
   <g id="line2d_23">
    <path d="M 76.613125 298.241551 
L 82.432458 351.228434 
L 88.251792 352.234805 
L 94.071125 352.769351 
L 105.709792 352.910099 
L 286.109125 353.008913 
L 332.663792 353.078978 
L 355.941125 353.057484 
L 379.218458 352.998109 
L 385.037792 353.165372 
L 402.495792 353.100371 
L 408.315125 353.162278 
L 414.134458 353.054282 
L 431.592458 353.12573 
L 437.411792 353.023519 
L 449.050458 353.147887 
L 478.147125 353.056897 
L 489.785792 353.161596 
L 676.004458 353.185603 
L 949.513125 353.223616 
L 949.513125 353.223616 
" clip-path="url(#pbb122d6f99)" style="fill: none; stroke: #e4d354; stroke-linecap: square"/>
   </g>
   <g id="line2d_24">
    <path d="M 76.613125 320.880091 
L 82.432458 345.312358 
L 88.251792 350.117723 
L 94.071125 352.071123 
L 99.890458 352.749701 
L 111.529125 352.87215 
L 117.348458 352.808399 
L 128.987125 352.864673 
L 140.625792 352.814025 
L 163.903125 352.849531 
L 169.722458 352.79853 
L 175.541792 352.984047 
L 181.361125 352.762039 
L 192.999792 352.955102 
L 216.277125 352.919091 
L 257.012458 352.974816 
L 268.651125 352.832628 
L 274.470458 353.104602 
L 280.289792 352.937605 
L 419.953792 353.068092 
L 431.592458 353.034771 
L 478.147125 353.123116 
L 547.979125 353.153097 
L 949.513125 353.223578 
L 949.513125 353.223578 
" clip-path="url(#pbb122d6f99)" style="fill: none; stroke: #2b908f; stroke-linecap: square"/>
   </g>
   <g id="line2d_25">
    <path d="M 76.613125 282.423998 
L 82.432458 351.615058 
L 88.251792 352.443723 
L 94.071125 352.861024 
L 105.709792 353.004796 
L 187.180458 353.026366 
L 204.638458 353.028728 
L 274.470458 353.078151 
L 315.205792 353.095225 
L 361.760458 353.12753 
L 460.689125 353.151531 
L 472.327792 353.189019 
L 478.147125 353.104766 
L 489.785792 353.178001 
L 873.861792 353.214744 
L 949.513125 353.22373 
L 949.513125 353.22373 
" clip-path="url(#pbb122d6f99)" style="fill: none; stroke: #f45b5b; stroke-linecap: square"/>
   </g>
   <g id="line2d_26">
    <path d="M 76.613125 315.129497 
L 82.432458 344.010643 
L 88.251792 349.787214 
L 94.071125 351.997522 
L 99.890458 352.856856 
L 111.529125 352.961176 
L 117.348458 352.902535 
L 128.987125 352.94755 
L 152.264458 352.890575 
L 158.083792 353.01966 
L 169.722458 352.905944 
L 175.541792 353.04238 
L 181.361125 352.879973 
L 192.999792 353.020052 
L 227.915792 352.968053 
L 233.735125 353.060502 
L 245.373792 353.030521 
L 268.651125 352.941873 
L 274.470458 353.136123 
L 280.289792 353.014066 
L 646.907792 353.180261 
L 949.513125 353.223704 
L 949.513125 353.223704 
" clip-path="url(#pbb122d6f99)" style="fill: none; stroke: #91e8e1; stroke-linecap: square"/>
   </g>
   <g id="line2d_27">
    <path d="M 76.613125 293.697299 
L 82.432458 351.212534 
L 88.251792 352.213532 
L 94.071125 352.717851 
L 105.709792 352.849506 
L 117.348458 352.808494 
L 123.167792 352.976104 
L 128.987125 352.796749 
L 134.806458 352.8777 
L 146.445125 352.837395 
L 192.999792 352.800254 
L 198.819125 352.9243 
L 210.457792 352.867389 
L 286.109125 352.926643 
L 291.928458 352.902137 
L 297.747792 352.990261 
L 303.567125 352.926308 
L 309.386458 352.982671 
L 315.205792 352.918674 
L 321.025125 353.042613 
L 326.844458 352.919823 
L 332.663792 353.058867 
L 344.302458 352.898847 
L 355.941125 353.048334 
L 361.760458 352.933772 
L 373.399125 353.035529 
L 379.218458 352.867875 
L 385.037792 353.1216 
L 390.857125 353.147906 
L 396.676458 352.920209 
L 408.315125 353.132354 
L 414.134458 352.956163 
L 431.592458 353.085558 
L 437.411792 352.965117 
L 449.050458 353.134886 
L 501.424458 353.036533 
L 513.063125 353.175412 
L 536.340458 353.174875 
L 577.075792 353.161331 
L 949.513125 353.223774 
L 949.513125 353.223774 
" clip-path="url(#pbb122d6f99)" style="fill: none; stroke: #7cb5ec; stroke-linecap: square"/>
   </g>
   <g id="line2d_28">
    <path d="M 76.613125 319.40192 
L 82.432458 345.030458 
L 88.251792 349.965388 
L 94.071125 351.933797 
L 99.890458 352.674174 
L 111.529125 352.817543 
L 117.348458 352.722542 
L 123.167792 352.817461 
L 152.264458 352.674768 
L 158.083792 352.875787 
L 169.722458 352.689916 
L 175.541792 352.902263 
L 181.361125 352.637494 
L 187.180458 352.802685 
L 198.819125 352.825461 
L 216.277125 352.802798 
L 222.096458 352.829439 
L 227.915792 352.736731 
L 233.735125 352.92884 
L 239.554458 352.812321 
L 257.012458 352.876039 
L 262.831792 352.832262 
L 268.651125 352.664867 
L 274.470458 353.066311 
L 280.289792 352.808639 
L 291.928458 352.922595 
L 297.747792 352.977802 
L 303.567125 352.890891 
L 326.844458 352.927824 
L 332.663792 352.846027 
L 338.483125 353.001216 
L 367.579792 352.88858 
L 373.399125 353.046257 
L 379.218458 353.002315 
L 385.037792 353.078258 
L 396.676458 352.979412 
L 402.495792 353.07841 
L 437.411792 352.990475 
L 449.050458 353.140828 
L 495.605125 353.095686 
L 559.617792 353.147275 
L 856.403792 353.202961 
L 949.513125 353.223736 
L 949.513125 353.223736 
" clip-path="url(#pbb122d6f99)" style="fill: none; stroke: #434348; stroke-linecap: square"/>
   </g>
   <g id="line2d_29">
    <path d="M 76.613125 80.469832 
L 82.432458 345.489288 
L 88.251792 349.481913 
L 94.071125 351.54978 
L 99.890458 351.933456 
L 105.709792 352.119131 
L 117.348458 352.015215 
L 123.167792 352.491378 
L 128.987125 351.999233 
L 134.806458 352.23106 
L 140.625792 352.039462 
L 152.264458 352.113391 
L 187.180458 352.219183 
L 192.999792 352.086454 
L 198.819125 352.415081 
L 204.638458 352.223654 
L 222.096458 352.327399 
L 257.012458 352.387576 
L 262.831792 352.559675 
L 280.289792 352.429775 
L 309.386458 352.552577 
L 315.205792 352.533843 
L 321.025125 352.366675 
L 326.844458 352.697373 
L 367.579792 352.650905 
L 373.399125 352.7398 
L 379.218458 352.103541 
L 385.037792 352.931101 
L 390.857125 353.017634 
L 396.676458 352.316848 
L 408.315125 352.952191 
L 414.134458 352.402099 
L 419.953792 352.617584 
L 425.773125 352.964877 
L 431.592458 352.809807 
L 437.411792 352.530218 
L 449.050458 352.997863 
L 460.689125 352.864073 
L 466.508458 353.090439 
L 472.327792 353.052369 
L 478.147125 352.673757 
L 483.966458 352.996985 
L 495.605125 352.994264 
L 501.424458 352.69928 
L 507.243792 353.011635 
L 524.701792 353.160434 
L 536.340458 353.078612 
L 553.798458 352.995028 
L 949.513125 353.222688 
L 949.513125 353.222688 
" clip-path="url(#pbb122d6f99)" style="fill: none; stroke: #90ed7d; stroke-linecap: square"/>
   </g>
   <g id="line2d_30">
    <path d="M 76.613125 202.780472 
L 82.432458 318.746876 
L 88.251792 340.109867 
L 94.071125 348.283426 
L 99.890458 351.52117 
L 105.709792 351.842655 
L 111.529125 351.987533 
L 117.348458 351.730069 
L 123.167792 351.992149 
L 128.987125 351.92908 
L 134.806458 351.706062 
L 152.264458 351.643183 
L 158.083792 352.221039 
L 163.903125 351.877498 
L 169.722458 351.72592 
L 175.541792 352.316507 
L 181.361125 351.576048 
L 187.180458 352.036608 
L 192.999792 352.179907 
L 204.638458 352.041167 
L 210.457792 351.832249 
L 216.277125 352.09114 
L 222.096458 352.178562 
L 227.915792 351.910996 
L 233.735125 352.434492 
L 239.554458 352.132335 
L 245.373792 352.258282 
L 251.193125 352.200297 
L 257.012458 352.304636 
L 262.831792 352.199444 
L 268.651125 351.758673 
L 274.470458 352.793049 
L 280.289792 352.162366 
L 286.109125 352.168137 
L 297.747792 352.569797 
L 303.567125 352.355423 
L 309.386458 352.425639 
L 315.205792 352.288414 
L 321.025125 352.574318 
L 332.663792 352.234527 
L 338.483125 352.644256 
L 367.579792 352.309163 
L 373.399125 352.745198 
L 379.218458 352.635189 
L 385.037792 352.829685 
L 396.676458 352.566008 
L 402.495792 352.820681 
L 431.592458 352.477581 
L 437.411792 352.563148 
L 449.050458 352.977139 
L 472.327792 352.846955 
L 495.605125 352.814783 
L 518.882458 352.905572 
L 547.979125 352.946085 
L 757.475125 353.067991 
L 868.042458 353.135498 
L 949.513125 353.222568 
L 949.513125 353.222568 
" clip-path="url(#pbb122d6f99)" style="fill: none; stroke: #f7a35c; stroke-linecap: square"/>
   </g>
   <g id="line2d_31">
    <path d="M 76.613125 187.542525 
L 82.432458 349.360146 
L 88.251792 351.249385 
L 94.071125 352.194418 
L 99.890458 352.414361 
L 105.709792 352.511786 
L 117.348458 352.43715 
L 123.167792 352.748021 
L 128.987125 352.401625 
L 134.806458 352.555829 
L 140.625792 352.433608 
L 163.903125 352.524087 
L 169.722458 352.453776 
L 181.361125 352.496689 
L 187.180458 352.531418 
L 192.999792 352.449179 
L 198.819125 352.663907 
L 204.638458 352.530427 
L 233.735125 352.649832 
L 257.012458 352.675652 
L 268.651125 352.706573 
L 291.928458 352.674774 
L 297.747792 352.784032 
L 315.205792 352.748337 
L 321.025125 352.706213 
L 326.844458 352.838677 
L 338.483125 352.715192 
L 350.121792 352.851363 
L 361.760458 352.748937 
L 373.399125 352.856143 
L 379.218458 352.341411 
L 385.037792 352.979368 
L 390.857125 353.089896 
L 396.676458 352.55182 
L 408.315125 353.01442 
L 414.134458 352.620306 
L 419.953792 352.779031 
L 425.773125 353.049629 
L 437.411792 352.785188 
L 449.050458 353.079799 
L 472.327792 353.109704 
L 478.147125 352.881817 
L 483.966458 353.066305 
L 495.605125 353.067789 
L 501.424458 352.890739 
L 507.243792 353.078403 
L 524.701792 353.178632 
L 542.159792 353.090028 
L 588.714458 353.084137 
L 949.513125 353.223464 
L 949.513125 353.223464 
" clip-path="url(#pbb122d6f99)" style="fill: none; stroke: #8085e9; stroke-linecap: square"/>
   </g>
   <g id="line2d_32">
    <path d="M 76.613125 266.553436 
L 82.432458 333.26964 
L 88.251792 345.635302 
L 94.071125 350.233327 
L 99.890458 352.108599 
L 111.529125 352.389546 
L 117.348458 352.188508 
L 123.167792 352.364099 
L 128.987125 352.345446 
L 134.806458 352.173959 
L 146.445125 352.241782 
L 152.264458 352.115286 
L 158.083792 352.531399 
L 163.903125 352.27816 
L 169.722458 352.154814 
L 175.541792 352.589037 
L 181.361125 352.065187 
L 187.180458 352.388794 
L 192.999792 352.491505 
L 204.638458 352.386142 
L 210.457792 352.231307 
L 222.096458 352.46542 
L 227.915792 352.268379 
L 233.735125 352.650122 
L 239.554458 352.433456 
L 245.373792 352.526669 
L 251.193125 352.485064 
L 257.012458 352.566166 
L 262.831792 352.488095 
L 268.651125 352.148897 
L 274.470458 352.915656 
L 280.289792 352.448484 
L 286.109125 352.457489 
L 297.747792 352.754083 
L 303.567125 352.601962 
L 309.386458 352.651688 
L 315.205792 352.551277 
L 321.025125 352.756122 
L 332.663792 352.493411 
L 338.483125 352.800816 
L 367.579792 352.557187 
L 373.399125 352.876052 
L 379.218458 352.792841 
L 385.037792 352.937889 
L 396.676458 352.73776 
L 402.495792 352.930211 
L 431.592458 352.67603 
L 437.411792 352.73759 
L 449.050458 353.05348 
L 472.327792 352.956794 
L 501.424458 352.966878 
L 559.617792 353.036147 
L 949.513125 353.22337 
L 949.513125 353.22337 
" clip-path="url(#pbb122d6f99)" style="fill: none; stroke: #f15c80; stroke-linecap: square"/>
   </g>
   <g id="line2d_33">
    <path d="M 76.613125 138.886928 
L 82.432458 348.074785 
L 88.251792 350.669779 
L 94.071125 352.005491 
L 99.890458 352.274302 
L 105.709792 352.406557 
L 117.348458 352.337698 
L 123.167792 352.705437 
L 128.987125 352.279126 
L 134.806458 352.481433 
L 140.625792 352.346463 
L 152.264458 352.400691 
L 192.999792 352.382354 
L 198.819125 352.631981 
L 204.638458 352.489459 
L 222.096458 352.553215 
L 274.470458 352.674761 
L 291.928458 352.662423 
L 303.567125 352.741189 
L 332.663792 352.787012 
L 338.483125 352.709667 
L 344.302458 352.91635 
L 361.760458 352.740033 
L 373.399125 352.892343 
L 379.218458 352.45711 
L 385.037792 352.995495 
L 390.857125 353.076326 
L 396.676458 352.580538 
L 408.315125 353.023986 
L 414.134458 352.676529 
L 419.953792 352.807553 
L 425.773125 353.050948 
L 437.411792 352.798934 
L 449.050458 353.080525 
L 472.327792 353.115722 
L 478.147125 352.893417 
L 483.966458 353.071559 
L 495.605125 353.07668 
L 501.424458 352.902213 
L 507.243792 353.080475 
L 524.701792 353.179996 
L 542.159792 353.097119 
L 588.714458 353.086164 
L 949.513125 353.223212 
L 949.513125 353.223212 
" clip-path="url(#pbb122d6f99)" style="fill: none; stroke: #e4d354; stroke-linecap: square"/>
   </g>
   <g id="line2d_34">
    <path d="M 76.613125 239.308018 
L 82.432458 327.219851 
L 88.251792 343.485139 
L 94.071125 349.496859 
L 99.890458 351.952728 
L 111.529125 352.283495 
L 117.348458 352.077974 
L 123.167792 352.264249 
L 128.987125 352.240639 
L 134.806458 352.055166 
L 146.445125 352.137645 
L 152.264458 352.015644 
L 158.083792 352.457047 
L 163.903125 352.184612 
L 169.722458 352.06854 
L 175.541792 352.519061 
L 181.361125 351.966222 
L 187.180458 352.322885 
L 192.999792 352.422488 
L 204.638458 352.329698 
L 210.457792 352.169148 
L 216.277125 352.358277 
L 222.096458 352.423839 
L 227.915792 352.216152 
L 233.735125 352.623406 
L 239.554458 352.39245 
L 245.373792 352.500496 
L 251.193125 352.462395 
L 257.012458 352.545095 
L 262.831792 352.461713 
L 268.651125 352.131255 
L 274.470458 352.906652 
L 280.289792 352.431221 
L 286.109125 352.437617 
L 297.747792 352.746209 
L 303.567125 352.59758 
L 309.386458 352.65446 
L 315.205792 352.553278 
L 321.025125 352.751791 
L 332.663792 352.513687 
L 338.483125 352.797968 
L 367.579792 352.585577 
L 373.399125 352.883812 
L 379.218458 352.805608 
L 385.037792 352.948333 
L 396.676458 352.762045 
L 402.495792 352.942056 
L 431.592458 352.705317 
L 437.411792 352.762645 
L 449.050458 353.056328 
L 472.327792 352.966297 
L 501.424458 352.974033 
L 547.979125 353.03061 
L 769.113792 353.089094 
L 873.861792 353.166767 
L 949.513125 353.223079 
L 949.513125 353.223079 
" clip-path="url(#pbb122d6f99)" style="fill: none; stroke: #2b908f; stroke-linecap: square"/>
   </g>
   <g id="line2d_35">
    <path d="M 76.613125 50.397233 
L 82.432458 346.260195 
L 88.251792 349.729898 
L 94.071125 351.704433 
L 99.890458 352.061399 
L 105.709792 352.24631 
L 117.348458 352.154524 
L 123.167792 352.529707 
L 128.987125 352.184662 
L 134.806458 352.331794 
L 140.625792 352.190535 
L 152.264458 352.265992 
L 192.999792 352.284512 
L 198.819125 352.538717 
L 204.638458 352.401398 
L 222.096458 352.486977 
L 274.470458 352.646012 
L 291.928458 352.622143 
L 297.747792 352.74917 
L 303.567125 352.688426 
L 315.205792 352.728364 
L 350.121792 352.727979 
L 355.941125 352.878369 
L 361.760458 352.713109 
L 373.399125 352.886869 
L 379.218458 352.392141 
L 385.037792 352.98435 
L 390.857125 353.081043 
L 396.676458 352.554813 
L 408.315125 353.015765 
L 414.134458 352.665934 
L 419.953792 352.799035 
L 425.773125 353.054781 
L 437.411792 352.834484 
L 449.050458 353.088873 
L 472.327792 353.117111 
L 478.147125 352.912398 
L 483.966458 353.07368 
L 495.605125 353.077267 
L 501.424458 352.913667 
L 513.063125 353.14204 
L 536.340458 353.142968 
L 553.798458 353.075253 
L 734.197792 353.149965 
L 949.513125 353.223464 
L 949.513125 353.223464 
" clip-path="url(#pbb122d6f99)" style="fill: none; stroke: #f45b5b; stroke-linecap: square"/>
   </g>
   <g id="line2d_36">
    <path d="M 76.613125 192.177307 
L 82.432458 315.444358 
L 88.251792 339.290806 
L 94.071125 348.105732 
L 99.890458 351.677944 
L 105.709792 351.975068 
L 111.529125 352.127536 
L 117.348458 351.889685 
L 123.167792 352.123179 
L 128.987125 352.07423 
L 134.806458 351.868241 
L 152.264458 351.847801 
L 158.083792 352.347265 
L 163.903125 352.050544 
L 169.722458 351.932048 
L 175.541792 352.438602 
L 181.361125 351.824116 
L 187.180458 352.213184 
L 192.999792 352.330967 
L 204.638458 352.232248 
L 210.457792 352.072784 
L 216.277125 352.2797 
L 222.096458 352.34686 
L 227.915792 352.15047 
L 233.735125 352.568805 
L 239.554458 352.342983 
L 245.373792 352.443578 
L 251.193125 352.407965 
L 257.012458 352.495198 
L 262.831792 352.414526 
L 268.651125 352.068376 
L 274.470458 352.886168 
L 280.289792 352.39999 
L 286.109125 352.401625 
L 297.747792 352.705765 
L 303.567125 352.564442 
L 309.386458 352.621745 
L 315.205792 352.526707 
L 321.025125 352.732039 
L 332.663792 352.515701 
L 338.483125 352.760681 
L 361.760458 352.650697 
L 367.579792 352.571085 
L 373.399125 352.874183 
L 379.218458 352.800689 
L 385.037792 352.937239 
L 396.676458 352.752378 
L 402.495792 352.935931 
L 431.592458 352.700745 
L 437.411792 352.760113 
L 449.050458 353.050033 
L 478.147125 352.944993 
L 501.424458 352.964517 
L 536.340458 352.991119 
L 635.269125 353.053607 
L 838.945792 353.113019 
L 937.874458 353.222726 
L 949.513125 353.223319 
L 949.513125 353.223319 
" clip-path="url(#pbb122d6f99)" style="fill: none; stroke: #91e8e1; stroke-linecap: square"/>
   </g>
   <g id="line2d_37">
    <path d="M 76.613125 86.01565 
L 82.432458 347.278835 
L 88.251792 350.313337 
L 94.071125 351.876046 
L 99.890458 352.228516 
L 105.709792 352.383484 
L 111.529125 352.40285 
L 117.348458 352.279113 
L 123.167792 352.589416 
L 128.987125 352.328896 
L 134.806458 352.413187 
L 140.625792 352.304251 
L 152.264458 352.359275 
L 192.999792 352.322114 
L 198.819125 352.642381 
L 204.638458 352.46309 
L 239.554458 352.59155 
L 245.373792 352.526006 
L 262.831792 352.72647 
L 280.289792 352.629828 
L 309.386458 352.758755 
L 326.844458 352.765228 
L 344.302458 352.764464 
L 350.121792 352.944216 
L 355.941125 352.763226 
L 361.760458 352.742831 
L 367.579792 352.891724 
L 373.399125 352.837843 
L 379.218458 352.573939 
L 385.037792 353.055899 
L 390.857125 352.964643 
L 396.676458 352.606945 
L 408.315125 353.044893 
L 414.134458 352.713045 
L 419.953792 352.794684 
L 425.773125 353.004878 
L 431.592458 352.928758 
L 437.411792 352.636079 
L 443.231125 352.897552 
L 449.050458 353.016105 
L 460.689125 352.932774 
L 466.508458 353.115147 
L 472.327792 353.085261 
L 478.147125 352.746329 
L 483.966458 353.047475 
L 495.605125 353.049433 
L 501.424458 352.752024 
L 507.243792 353.06741 
L 530.521125 353.160762 
L 547.979125 353.046629 
L 635.269125 353.074583 
L 949.513125 353.223477 
L 949.513125 353.223477 
" clip-path="url(#pbb122d6f99)" style="fill: none; stroke: #7cb5ec; stroke-linecap: square"/>
   </g>
   <g id="line2d_38">
    <path d="M 76.613125 208.356107 
L 82.432458 319.560695 
L 88.251792 340.736705 
L 94.071125 348.702045 
L 99.890458 351.861743 
L 111.529125 352.247244 
L 117.348458 352.03772 
L 123.167792 352.264123 
L 128.987125 352.203871 
L 134.806458 352.018177 
L 146.445125 352.116921 
L 152.264458 351.970831 
L 158.083792 352.456276 
L 163.903125 352.17406 
L 169.722458 352.029151 
L 175.541792 352.534297 
L 181.361125 351.926542 
L 187.180458 352.31806 
L 192.999792 352.438325 
L 204.638458 352.320997 
L 210.457792 352.134362 
L 216.277125 352.358315 
L 222.096458 352.419817 
L 227.915792 352.217112 
L 233.735125 352.616195 
L 239.554458 352.400407 
L 251.193125 352.477032 
L 257.012458 352.526568 
L 262.831792 352.439133 
L 268.651125 352.119655 
L 274.470458 352.898178 
L 280.289792 352.414159 
L 286.109125 352.433166 
L 297.747792 352.740014 
L 303.567125 352.59705 
L 309.386458 352.637115 
L 315.205792 352.524295 
L 321.025125 352.763706 
L 332.663792 352.550115 
L 338.483125 352.734369 
L 361.760458 352.592945 
L 367.579792 352.552565 
L 373.399125 352.86586 
L 379.218458 352.788888 
L 385.037792 352.932578 
L 396.676458 352.72546 
L 402.495792 352.924117 
L 431.592458 352.662417 
L 437.411792 352.713626 
L 449.050458 353.02953 
L 483.966458 352.893884 
L 571.256458 352.994864 
L 652.727125 353.052186 
L 809.849125 353.084257 
L 949.513125 353.223382 
L 949.513125 353.223382 
" clip-path="url(#pbb122d6f99)" style="fill: none; stroke: #434348; stroke-linecap: square"/>
   </g>
   <g id="line2d_39">
    <path d="M 76.613125 289.374974 
L 82.432458 351.15028 
L 88.251792 352.240014 
L 94.071125 352.776436 
L 105.709792 352.921648 
L 187.180458 352.942088 
L 192.999792 352.897376 
L 198.819125 353.006514 
L 210.457792 352.958316 
L 286.109125 353.010378 
L 338.483125 353.078492 
L 350.121792 353.064221 
L 373.399125 353.089113 
L 379.218458 353.015727 
L 385.037792 353.165643 
L 419.953792 353.080184 
L 431.592458 353.142097 
L 437.411792 353.045859 
L 449.050458 353.167923 
L 501.424458 353.105379 
L 513.063125 353.196552 
L 565.437125 353.181486 
L 949.513125 353.223761 
L 949.513125 353.223761 
" clip-path="url(#pbb122d6f99)" style="fill: none; stroke: #90ed7d; stroke-linecap: square"/>
   </g>
   <g id="line2d_40">
    <path d="M 76.613125 316.52106 
L 82.432458 344.843905 
L 88.251792 349.974967 
L 94.071125 352.023815 
L 99.890458 352.755611 
L 111.529125 352.879664 
L 117.348458 352.812756 
L 123.167792 352.898354 
L 152.264458 352.778084 
L 158.083792 352.954313 
L 169.722458 352.796105 
L 175.541792 352.986927 
L 181.361125 352.754998 
L 192.999792 352.951414 
L 216.277125 352.91803 
L 257.012458 352.974563 
L 268.651125 352.838235 
L 274.470458 353.107563 
L 280.289792 352.94318 
L 565.437125 353.173164 
L 879.681125 353.211644 
L 949.513125 353.223755 
L 949.513125 353.223755 
" clip-path="url(#pbb122d6f99)" style="fill: none; stroke: #f7a35c; stroke-linecap: square"/>
   </g>
   <g id="line2d_41">
    <path d="M 32.968125 353.2239 
L 993.158125 353.2239 
" clip-path="url(#pbb122d6f99)" style="fill: none; stroke: #dedede; stroke-width: 2; stroke-linecap: square"/>
   </g>
   <g id="text_18">
    <!-- Cutadapt: Lengths of Trimmed Sequences (3' end) -->
    <g transform="translate(311.710625 19.3575)scale(0.16 -0.16)">
     <defs>
      <path id="DejaVuSans-61" d="M 2194 1759 
Q 1497 1759 1228 1600 
Q 959 1441 959 1056 
Q 959 750 1161 570 
Q 1363 391 1709 391 
Q 2188 391 2477 730 
Q 2766 1069 2766 1631 
L 2766 1759 
L 2194 1759 
z
M 3341 1997 
L 3341 0 
L 2766 0 
L 2766 531 
Q 2569 213 2275 61 
Q 1981 -91 1556 -91 
Q 1019 -91 701 211 
Q 384 513 384 1019 
Q 384 1609 779 1909 
Q 1175 2209 1959 2209 
L 2766 2209 
L 2766 2266 
Q 2766 2663 2505 2880 
Q 2244 3097 1772 3097 
Q 1472 3097 1187 3025 
Q 903 2953 641 2809 
L 641 3341 
Q 956 3463 1253 3523 
Q 1550 3584 1831 3584 
Q 2591 3584 2966 3190 
Q 3341 2797 3341 1997 
z
" transform="scale(0.015625)"/>
      <path id="DejaVuSans-3a" d="M 750 794 
L 1409 794 
L 1409 0 
L 750 0 
L 750 794 
z
M 750 3309 
L 1409 3309 
L 1409 2516 
L 750 2516 
L 750 3309 
z
" transform="scale(0.015625)"/>
      <path id="DejaVuSans-73" d="M 2834 3397 
L 2834 2853 
Q 2591 2978 2328 3040 
Q 2066 3103 1784 3103 
Q 1356 3103 1142 2972 
Q 928 2841 928 2578 
Q 928 2378 1081 2264 
Q 1234 2150 1697 2047 
L 1894 2003 
Q 2506 1872 2764 1633 
Q 3022 1394 3022 966 
Q 3022 478 2636 193 
Q 2250 -91 1575 -91 
Q 1294 -91 989 -36 
Q 684 19 347 128 
L 347 722 
Q 666 556 975 473 
Q 1284 391 1588 391 
Q 1994 391 2212 530 
Q 2431 669 2431 922 
Q 2431 1156 2273 1281 
Q 2116 1406 1581 1522 
L 1381 1569 
Q 847 1681 609 1914 
Q 372 2147 372 2553 
Q 372 3047 722 3315 
Q 1072 3584 1716 3584 
Q 2034 3584 2315 3537 
Q 2597 3491 2834 3397 
z
" transform="scale(0.015625)"/>
      <path id="DejaVuSans-66" d="M 2375 4863 
L 2375 4384 
L 1825 4384 
Q 1516 4384 1395 4259 
Q 1275 4134 1275 3809 
L 1275 3500 
L 2222 3500 
L 2222 3053 
L 1275 3053 
L 1275 0 
L 697 0 
L 697 3053 
L 147 3053 
L 147 3500 
L 697 3500 
L 697 3744 
Q 697 4328 969 4595 
Q 1241 4863 1831 4863 
L 2375 4863 
z
" transform="scale(0.015625)"/>
      <path id="DejaVuSans-53" d="M 3425 4513 
L 3425 3897 
Q 3066 4069 2747 4153 
Q 2428 4238 2131 4238 
Q 1616 4238 1336 4038 
Q 1056 3838 1056 3469 
Q 1056 3159 1242 3001 
Q 1428 2844 1947 2747 
L 2328 2669 
Q 3034 2534 3370 2195 
Q 3706 1856 3706 1288 
Q 3706 609 3251 259 
Q 2797 -91 1919 -91 
Q 1588 -91 1214 -16 
Q 841 59 441 206 
L 441 856 
Q 825 641 1194 531 
Q 1563 422 1919 422 
Q 2459 422 2753 634 
Q 3047 847 3047 1241 
Q 3047 1584 2836 1778 
Q 2625 1972 2144 2069 
L 1759 2144 
Q 1053 2284 737 2584 
Q 422 2884 422 3419 
Q 422 4038 858 4394 
Q 1294 4750 2059 4750 
Q 2388 4750 2728 4690 
Q 3069 4631 3425 4513 
z
" transform="scale(0.015625)"/>
      <path id="DejaVuSans-71" d="M 947 1747 
Q 947 1113 1208 752 
Q 1469 391 1925 391 
Q 2381 391 2643 752 
Q 2906 1113 2906 1747 
Q 2906 2381 2643 2742 
Q 2381 3103 1925 3103 
Q 1469 3103 1208 2742 
Q 947 2381 947 1747 
z
M 2906 525 
Q 2725 213 2448 61 
Q 2172 -91 1784 -91 
Q 1150 -91 751 415 
Q 353 922 353 1747 
Q 353 2572 751 3078 
Q 1150 3584 1784 3584 
Q 2172 3584 2448 3432 
Q 2725 3281 2906 2969 
L 2906 3500 
L 3481 3500 
L 3481 -1331 
L 2906 -1331 
L 2906 525 
z
" transform="scale(0.015625)"/>
      <path id="DejaVuSans-63" d="M 3122 3366 
L 3122 2828 
Q 2878 2963 2633 3030 
Q 2388 3097 2138 3097 
Q 1578 3097 1268 2742 
Q 959 2388 959 1747 
Q 959 1106 1268 751 
Q 1578 397 2138 397 
Q 2388 397 2633 464 
Q 2878 531 3122 666 
L 3122 134 
Q 2881 22 2623 -34 
Q 2366 -91 2075 -91 
Q 1284 -91 818 406 
Q 353 903 353 1747 
Q 353 2603 823 3093 
Q 1294 3584 2113 3584 
Q 2378 3584 2631 3529 
Q 2884 3475 3122 3366 
z
" transform="scale(0.015625)"/>
      <path id="DejaVuSans-27" d="M 1147 4666 
L 1147 2931 
L 616 2931 
L 616 4666 
L 1147 4666 
z
" transform="scale(0.015625)"/>
     </defs>
     <use xlink:href="#DejaVuSans-43"/>
     <use xlink:href="#DejaVuSans-75" x="69.824219"/>
     <use xlink:href="#DejaVuSans-74" x="133.203125"/>
     <use xlink:href="#DejaVuSans-61" x="172.412109"/>
     <use xlink:href="#DejaVuSans-64" x="233.691406"/>
     <use xlink:href="#DejaVuSans-61" x="297.167969"/>
     <use xlink:href="#DejaVuSans-70" x="358.447266"/>
     <use xlink:href="#DejaVuSans-74" x="421.923828"/>
     <use xlink:href="#DejaVuSans-3a" x="461.132812"/>
     <use xlink:href="#DejaVuSans-20" x="494.824219"/>
     <use xlink:href="#DejaVuSans-4c" x="526.611328"/>
     <use xlink:href="#DejaVuSans-65" x="580.574219"/>
     <use xlink:href="#DejaVuSans-6e" x="642.097656"/>
     <use xlink:href="#DejaVuSans-67" x="705.476562"/>
     <use xlink:href="#DejaVuSans-74" x="768.953125"/>
     <use xlink:href="#DejaVuSans-68" x="808.162109"/>
     <use xlink:href="#DejaVuSans-73" x="871.541016"/>
     <use xlink:href="#DejaVuSans-20" x="923.640625"/>
     <use xlink:href="#DejaVuSans-6f" x="955.427734"/>
     <use xlink:href="#DejaVuSans-66" x="1016.609375"/>
     <use xlink:href="#DejaVuSans-20" x="1051.814453"/>
     <use xlink:href="#DejaVuSans-54" x="1083.601562"/>
     <use xlink:href="#DejaVuSans-72" x="1129.935547"/>
     <use xlink:href="#DejaVuSans-69" x="1171.048828"/>
     <use xlink:href="#DejaVuSans-6d" x="1198.832031"/>
     <use xlink:href="#DejaVuSans-6d" x="1296.244141"/>
     <use xlink:href="#DejaVuSans-65" x="1393.65625"/>
     <use xlink:href="#DejaVuSans-64" x="1455.179688"/>
     <use xlink:href="#DejaVuSans-20" x="1518.65625"/>
     <use xlink:href="#DejaVuSans-53" x="1550.443359"/>
     <use xlink:href="#DejaVuSans-65" x="1613.919922"/>
     <use xlink:href="#DejaVuSans-71" x="1675.443359"/>
     <use xlink:href="#DejaVuSans-75" x="1738.919922"/>
     <use xlink:href="#DejaVuSans-65" x="1802.298828"/>
     <use xlink:href="#DejaVuSans-6e" x="1863.822266"/>
     <use xlink:href="#DejaVuSans-63" x="1927.201172"/>
     <use xlink:href="#DejaVuSans-65" x="1982.181641"/>
     <use xlink:href="#DejaVuSans-73" x="2043.705078"/>
     <use xlink:href="#DejaVuSans-20" x="2095.804688"/>
     <use xlink:href="#DejaVuSans-28" x="2127.591797"/>
     <use xlink:href="#DejaVuSans-33" x="2166.605469"/>
     <use xlink:href="#DejaVuSans-27" x="2230.228516"/>
     <use xlink:href="#DejaVuSans-20" x="2257.71875"/>
     <use xlink:href="#DejaVuSans-65" x="2289.505859"/>
     <use xlink:href="#DejaVuSans-6e" x="2351.029297"/>
     <use xlink:href="#DejaVuSans-64" x="2414.408203"/>
     <use xlink:href="#DejaVuSans-29" x="2477.884766"/>
    </g>
   </g>
  </g>
 </g>
 <defs>
  <clipPath id="pbb122d6f99">
   <rect x="32.968125" y="35.2559" width="960.19" height="317.968"/>
  </clipPath>
 </defs>
</svg>
