<?xml version="1.0" encoding="utf-8" standalone="no"?>
<!DOCTYPE svg PUBLIC "-//W3C//DTD SVG 1.1//EN"
  "http://www.w3.org/Graphics/SVG/1.1/DTD/svg11.dtd">
<svg xmlns:xlink="http://www.w3.org/1999/xlink" width="1000.340625pt" height="388.844525pt" viewBox="0 0 1000.340625 388.844525" xmlns="http://www.w3.org/2000/svg" version="1.1">
 <metadata>
  <rdf:RDF xmlns:dc="http://purl.org/dc/elements/1.1/" xmlns:cc="http://creativecommons.org/ns#" xmlns:rdf="http://www.w3.org/1999/02/22-rdf-syntax-ns#">
   <cc:Work>
    <dc:type rdf:resource="http://purl.org/dc/dcmitype/StillImage"/>
    <dc:date>2023-04-21T00:02:30.623488</dc:date>
    <dc:format>image/svg+xml</dc:format>
    <dc:creator>
     <cc:Agent>
      <dc:title>Matplotlib v3.5.3, https://matplotlib.org/</dc:title>
     </cc:Agent>
    </dc:creator>
   </cc:Work>
  </rdf:RDF>
 </metadata>
 <defs>
  <style type="text/css">*{stroke-linejoin: round; stroke-linecap: butt}</style>
 </defs>
 <g id="figure_1">
  <g id="axes_1">
   <g id="patch_1">
    <path d="M 40.600625 353.2239 
L 993.140625 353.2239 
L 993.140625 35.2559 
L 40.600625 35.2559 
z
" style="fill: #ffffff"/>
   </g>
   <g id="patch_2">
    <path d="M 728.887593 353.2239 
L 2498.768367 353.2239 
L 2498.768367 35.2559 
L 728.887593 35.2559 
z
" clip-path="url(#pae69b6044b)" style="fill: #c3e6c3"/>
   </g>
   <g id="patch_3">
    <path d="M 532.234173 353.2239 
L 728.887593 353.2239 
L 728.887593 35.2559 
L 532.234173 35.2559 
z
" clip-path="url(#pae69b6044b)" style="fill: #e6dcc3"/>
   </g>
   <g id="patch_4">
    <path d="M 40.600625 353.2239 
L 532.234173 353.2239 
L 532.234173 35.2559 
L 40.600625 35.2559 
z
" clip-path="url(#pae69b6044b)" style="fill: #e6c3c3"/>
   </g>
   <g id="matplotlib.axis_1">
    <g id="xtick_1">
     <g id="text_1">
      <!-- 0 -->
      <g transform="translate(38.055625 366.30265)scale(0.08 -0.08)">
       <defs>
        <path id="DejaVuSans-30" d="M 2034 4250 
Q 1547 4250 1301 3770 
Q 1056 3291 1056 2328 
Q 1056 1369 1301 889 
Q 1547 409 2034 409 
Q 2525 409 2770 889 
Q 3016 1369 3016 2328 
Q 3016 3291 2770 3770 
Q 2525 4250 2034 4250 
z
M 2034 4750 
Q 2819 4750 3233 4129 
Q 3647 3509 3647 2328 
Q 3647 1150 3233 529 
Q 2819 -91 2034 -91 
Q 1250 -91 836 529 
Q 422 1150 422 2328 
Q 422 3509 836 4129 
Q 1250 4750 2034 4750 
z
" transform="scale(0.015625)"/>
       </defs>
       <use xlink:href="#DejaVuSans-30"/>
      </g>
     </g>
    </g>
    <g id="xtick_2">
     <g id="text_2">
      <!-- 5 -->
      <g transform="translate(160.964012 366.30265)scale(0.08 -0.08)">
       <defs>
        <path id="DejaVuSans-35" d="M 691 4666 
L 3169 4666 
L 3169 4134 
L 1269 4134 
L 1269 2991 
Q 1406 3038 1543 3061 
Q 1681 3084 1819 3084 
Q 2600 3084 3056 2656 
Q 3513 2228 3513 1497 
Q 3513 744 3044 326 
Q 2575 -91 1722 -91 
Q 1428 -91 1123 -41 
Q 819 9 494 109 
L 494 744 
Q 775 591 1075 516 
Q 1375 441 1709 441 
Q 2250 441 2565 725 
Q 2881 1009 2881 1497 
Q 2881 1984 2565 2268 
Q 2250 2553 1709 2553 
Q 1456 2553 1204 2497 
Q 953 2441 691 2322 
L 691 4666 
z
" transform="scale(0.015625)"/>
       </defs>
       <use xlink:href="#DejaVuSans-35"/>
      </g>
     </g>
    </g>
    <g id="xtick_3">
     <g id="text_3">
      <!-- 10 -->
      <g transform="translate(281.327399 366.30265)scale(0.08 -0.08)">
       <defs>
        <path id="DejaVuSans-31" d="M 794 531 
L 1825 531 
L 1825 4091 
L 703 3866 
L 703 4441 
L 1819 4666 
L 2450 4666 
L 2450 531 
L 3481 531 
L 3481 0 
L 794 0 
L 794 531 
z
" transform="scale(0.015625)"/>
       </defs>
       <use xlink:href="#DejaVuSans-31"/>
       <use xlink:href="#DejaVuSans-30" x="63.623047"/>
      </g>
     </g>
    </g>
    <g id="xtick_4">
     <g id="text_4">
      <!-- 15 -->
      <g transform="translate(404.235786 366.30265)scale(0.08 -0.08)">
       <use xlink:href="#DejaVuSans-31"/>
       <use xlink:href="#DejaVuSans-35" x="63.623047"/>
      </g>
     </g>
    </g>
    <g id="xtick_5">
     <g id="text_5">
      <!-- 20 -->
      <g transform="translate(527.144173 366.30265)scale(0.08 -0.08)">
       <defs>
        <path id="DejaVuSans-32" d="M 1228 531 
L 3431 531 
L 3431 0 
L 469 0 
L 469 531 
Q 828 903 1448 1529 
Q 2069 2156 2228 2338 
Q 2531 2678 2651 2914 
Q 2772 3150 2772 3378 
Q 2772 3750 2511 3984 
Q 2250 4219 1831 4219 
Q 1534 4219 1204 4116 
Q 875 4013 500 3803 
L 500 4441 
Q 881 4594 1212 4672 
Q 1544 4750 1819 4750 
Q 2544 4750 2975 4387 
Q 3406 4025 3406 3419 
Q 3406 3131 3298 2873 
Q 3191 2616 2906 2266 
Q 2828 2175 2409 1742 
Q 1991 1309 1228 531 
z
" transform="scale(0.015625)"/>
       </defs>
       <use xlink:href="#DejaVuSans-32"/>
       <use xlink:href="#DejaVuSans-30" x="63.623047"/>
      </g>
     </g>
    </g>
    <g id="xtick_6">
     <g id="text_6">
      <!-- 25 -->
      <g transform="translate(650.05256 366.30265)scale(0.08 -0.08)">
       <use xlink:href="#DejaVuSans-32"/>
       <use xlink:href="#DejaVuSans-35" x="63.623047"/>
      </g>
     </g>
    </g>
    <g id="xtick_7">
     <g id="text_7">
      <!-- 30 -->
      <g transform="translate(772.960948 366.30265)scale(0.08 -0.08)">
       <defs>
        <path id="DejaVuSans-33" d="M 2597 2516 
Q 3050 2419 3304 2112 
Q 3559 1806 3559 1356 
Q 3559 666 3084 287 
Q 2609 -91 1734 -91 
Q 1441 -91 1130 -33 
Q 819 25 488 141 
L 488 750 
Q 750 597 1062 519 
Q 1375 441 1716 441 
Q 2309 441 2620 675 
Q 2931 909 2931 1356 
Q 2931 1769 2642 2001 
Q 2353 2234 1838 2234 
L 1294 2234 
L 1294 2753 
L 1863 2753 
Q 2328 2753 2575 2939 
Q 2822 3125 2822 3475 
Q 2822 3834 2567 4026 
Q 2313 4219 1838 4219 
Q 1578 4219 1281 4162 
Q 984 4106 628 3988 
L 628 4550 
Q 988 4650 1302 4700 
Q 1616 4750 1894 4750 
Q 2613 4750 3031 4423 
Q 3450 4097 3450 3541 
Q 3450 3153 3228 2886 
Q 3006 2619 2597 2516 
z
" transform="scale(0.015625)"/>
       </defs>
       <use xlink:href="#DejaVuSans-33"/>
       <use xlink:href="#DejaVuSans-30" x="63.623047"/>
      </g>
     </g>
    </g>
    <g id="xtick_8">
     <g id="text_8">
      <!-- 35 -->
      <g transform="translate(895.869335 366.30265)scale(0.08 -0.08)">
       <use xlink:href="#DejaVuSans-33"/>
       <use xlink:href="#DejaVuSans-35" x="63.623047"/>
      </g>
     </g>
    </g>
    <g id="text_9">
     <!-- Mean Sequence Quality (Phred Score) -->
     <g transform="translate(422.078438 379.564837)scale(0.1 -0.1)">
      <defs>
       <path id="DejaVuSans-4d" d="M 628 4666 
L 1569 4666 
L 2759 1491 
L 3956 4666 
L 4897 4666 
L 4897 0 
L 4281 0 
L 4281 4097 
L 3078 897 
L 2444 897 
L 1241 4097 
L 1241 0 
L 628 0 
L 628 4666 
z
" transform="scale(0.015625)"/>
       <path id="DejaVuSans-65" d="M 3597 1894 
L 3597 1613 
L 953 1613 
Q 991 1019 1311 708 
Q 1631 397 2203 397 
Q 2534 397 2845 478 
Q 3156 559 3463 722 
L 3463 178 
Q 3153 47 2828 -22 
Q 2503 -91 2169 -91 
Q 1331 -91 842 396 
Q 353 884 353 1716 
Q 353 2575 817 3079 
Q 1281 3584 2069 3584 
Q 2775 3584 3186 3129 
Q 3597 2675 3597 1894 
z
M 3022 2063 
Q 3016 2534 2758 2815 
Q 2500 3097 2075 3097 
Q 1594 3097 1305 2825 
Q 1016 2553 972 2059 
L 3022 2063 
z
" transform="scale(0.015625)"/>
       <path id="DejaVuSans-61" d="M 2194 1759 
Q 1497 1759 1228 1600 
Q 959 1441 959 1056 
Q 959 750 1161 570 
Q 1363 391 1709 391 
Q 2188 391 2477 730 
Q 2766 1069 2766 1631 
L 2766 1759 
L 2194 1759 
z
M 3341 1997 
L 3341 0 
L 2766 0 
L 2766 531 
Q 2569 213 2275 61 
Q 1981 -91 1556 -91 
Q 1019 -91 701 211 
Q 384 513 384 1019 
Q 384 1609 779 1909 
Q 1175 2209 1959 2209 
L 2766 2209 
L 2766 2266 
Q 2766 2663 2505 2880 
Q 2244 3097 1772 3097 
Q 1472 3097 1187 3025 
Q 903 2953 641 2809 
L 641 3341 
Q 956 3463 1253 3523 
Q 1550 3584 1831 3584 
Q 2591 3584 2966 3190 
Q 3341 2797 3341 1997 
z
" transform="scale(0.015625)"/>
       <path id="DejaVuSans-6e" d="M 3513 2113 
L 3513 0 
L 2938 0 
L 2938 2094 
Q 2938 2591 2744 2837 
Q 2550 3084 2163 3084 
Q 1697 3084 1428 2787 
Q 1159 2491 1159 1978 
L 1159 0 
L 581 0 
L 581 3500 
L 1159 3500 
L 1159 2956 
Q 1366 3272 1645 3428 
Q 1925 3584 2291 3584 
Q 2894 3584 3203 3211 
Q 3513 2838 3513 2113 
z
" transform="scale(0.015625)"/>
       <path id="DejaVuSans-20" transform="scale(0.015625)"/>
       <path id="DejaVuSans-53" d="M 3425 4513 
L 3425 3897 
Q 3066 4069 2747 4153 
Q 2428 4238 2131 4238 
Q 1616 4238 1336 4038 
Q 1056 3838 1056 3469 
Q 1056 3159 1242 3001 
Q 1428 2844 1947 2747 
L 2328 2669 
Q 3034 2534 3370 2195 
Q 3706 1856 3706 1288 
Q 3706 609 3251 259 
Q 2797 -91 1919 -91 
Q 1588 -91 1214 -16 
Q 841 59 441 206 
L 441 856 
Q 825 641 1194 531 
Q 1563 422 1919 422 
Q 2459 422 2753 634 
Q 3047 847 3047 1241 
Q 3047 1584 2836 1778 
Q 2625 1972 2144 2069 
L 1759 2144 
Q 1053 2284 737 2584 
Q 422 2884 422 3419 
Q 422 4038 858 4394 
Q 1294 4750 2059 4750 
Q 2388 4750 2728 4690 
Q 3069 4631 3425 4513 
z
" transform="scale(0.015625)"/>
       <path id="DejaVuSans-71" d="M 947 1747 
Q 947 1113 1208 752 
Q 1469 391 1925 391 
Q 2381 391 2643 752 
Q 2906 1113 2906 1747 
Q 2906 2381 2643 2742 
Q 2381 3103 1925 3103 
Q 1469 3103 1208 2742 
Q 947 2381 947 1747 
z
M 2906 525 
Q 2725 213 2448 61 
Q 2172 -91 1784 -91 
Q 1150 -91 751 415 
Q 353 922 353 1747 
Q 353 2572 751 3078 
Q 1150 3584 1784 3584 
Q 2172 3584 2448 3432 
Q 2725 3281 2906 2969 
L 2906 3500 
L 3481 3500 
L 3481 -1331 
L 2906 -1331 
L 2906 525 
z
" transform="scale(0.015625)"/>
       <path id="DejaVuSans-75" d="M 544 1381 
L 544 3500 
L 1119 3500 
L 1119 1403 
Q 1119 906 1312 657 
Q 1506 409 1894 409 
Q 2359 409 2629 706 
Q 2900 1003 2900 1516 
L 2900 3500 
L 3475 3500 
L 3475 0 
L 2900 0 
L 2900 538 
Q 2691 219 2414 64 
Q 2138 -91 1772 -91 
Q 1169 -91 856 284 
Q 544 659 544 1381 
z
M 1991 3584 
L 1991 3584 
z
" transform="scale(0.015625)"/>
       <path id="DejaVuSans-63" d="M 3122 3366 
L 3122 2828 
Q 2878 2963 2633 3030 
Q 2388 3097 2138 3097 
Q 1578 3097 1268 2742 
Q 959 2388 959 1747 
Q 959 1106 1268 751 
Q 1578 397 2138 397 
Q 2388 397 2633 464 
Q 2878 531 3122 666 
L 3122 134 
Q 2881 22 2623 -34 
Q 2366 -91 2075 -91 
Q 1284 -91 818 406 
Q 353 903 353 1747 
Q 353 2603 823 3093 
Q 1294 3584 2113 3584 
Q 2378 3584 2631 3529 
Q 2884 3475 3122 3366 
z
" transform="scale(0.015625)"/>
       <path id="DejaVuSans-51" d="M 2522 4238 
Q 1834 4238 1429 3725 
Q 1025 3213 1025 2328 
Q 1025 1447 1429 934 
Q 1834 422 2522 422 
Q 3209 422 3611 934 
Q 4013 1447 4013 2328 
Q 4013 3213 3611 3725 
Q 3209 4238 2522 4238 
z
M 3406 84 
L 4238 -825 
L 3475 -825 
L 2784 -78 
Q 2681 -84 2626 -87 
Q 2572 -91 2522 -91 
Q 1538 -91 948 567 
Q 359 1225 359 2328 
Q 359 3434 948 4092 
Q 1538 4750 2522 4750 
Q 3503 4750 4090 4092 
Q 4678 3434 4678 2328 
Q 4678 1516 4351 937 
Q 4025 359 3406 84 
z
" transform="scale(0.015625)"/>
       <path id="DejaVuSans-6c" d="M 603 4863 
L 1178 4863 
L 1178 0 
L 603 0 
L 603 4863 
z
" transform="scale(0.015625)"/>
       <path id="DejaVuSans-69" d="M 603 3500 
L 1178 3500 
L 1178 0 
L 603 0 
L 603 3500 
z
M 603 4863 
L 1178 4863 
L 1178 4134 
L 603 4134 
L 603 4863 
z
" transform="scale(0.015625)"/>
       <path id="DejaVuSans-74" d="M 1172 4494 
L 1172 3500 
L 2356 3500 
L 2356 3053 
L 1172 3053 
L 1172 1153 
Q 1172 725 1289 603 
Q 1406 481 1766 481 
L 2356 481 
L 2356 0 
L 1766 0 
Q 1100 0 847 248 
Q 594 497 594 1153 
L 594 3053 
L 172 3053 
L 172 3500 
L 594 3500 
L 594 4494 
L 1172 4494 
z
" transform="scale(0.015625)"/>
       <path id="DejaVuSans-79" d="M 2059 -325 
Q 1816 -950 1584 -1140 
Q 1353 -1331 966 -1331 
L 506 -1331 
L 506 -850 
L 844 -850 
Q 1081 -850 1212 -737 
Q 1344 -625 1503 -206 
L 1606 56 
L 191 3500 
L 800 3500 
L 1894 763 
L 2988 3500 
L 3597 3500 
L 2059 -325 
z
" transform="scale(0.015625)"/>
       <path id="DejaVuSans-28" d="M 1984 4856 
Q 1566 4138 1362 3434 
Q 1159 2731 1159 2009 
Q 1159 1288 1364 580 
Q 1569 -128 1984 -844 
L 1484 -844 
Q 1016 -109 783 600 
Q 550 1309 550 2009 
Q 550 2706 781 3412 
Q 1013 4119 1484 4856 
L 1984 4856 
z
" transform="scale(0.015625)"/>
       <path id="DejaVuSans-50" d="M 1259 4147 
L 1259 2394 
L 2053 2394 
Q 2494 2394 2734 2622 
Q 2975 2850 2975 3272 
Q 2975 3691 2734 3919 
Q 2494 4147 2053 4147 
L 1259 4147 
z
M 628 4666 
L 2053 4666 
Q 2838 4666 3239 4311 
Q 3641 3956 3641 3272 
Q 3641 2581 3239 2228 
Q 2838 1875 2053 1875 
L 1259 1875 
L 1259 0 
L 628 0 
L 628 4666 
z
" transform="scale(0.015625)"/>
       <path id="DejaVuSans-68" d="M 3513 2113 
L 3513 0 
L 2938 0 
L 2938 2094 
Q 2938 2591 2744 2837 
Q 2550 3084 2163 3084 
Q 1697 3084 1428 2787 
Q 1159 2491 1159 1978 
L 1159 0 
L 581 0 
L 581 4863 
L 1159 4863 
L 1159 2956 
Q 1366 3272 1645 3428 
Q 1925 3584 2291 3584 
Q 2894 3584 3203 3211 
Q 3513 2838 3513 2113 
z
" transform="scale(0.015625)"/>
       <path id="DejaVuSans-72" d="M 2631 2963 
Q 2534 3019 2420 3045 
Q 2306 3072 2169 3072 
Q 1681 3072 1420 2755 
Q 1159 2438 1159 1844 
L 1159 0 
L 581 0 
L 581 3500 
L 1159 3500 
L 1159 2956 
Q 1341 3275 1631 3429 
Q 1922 3584 2338 3584 
Q 2397 3584 2469 3576 
Q 2541 3569 2628 3553 
L 2631 2963 
z
" transform="scale(0.015625)"/>
       <path id="DejaVuSans-64" d="M 2906 2969 
L 2906 4863 
L 3481 4863 
L 3481 0 
L 2906 0 
L 2906 525 
Q 2725 213 2448 61 
Q 2172 -91 1784 -91 
Q 1150 -91 751 415 
Q 353 922 353 1747 
Q 353 2572 751 3078 
Q 1150 3584 1784 3584 
Q 2172 3584 2448 3432 
Q 2725 3281 2906 2969 
z
M 947 1747 
Q 947 1113 1208 752 
Q 1469 391 1925 391 
Q 2381 391 2643 752 
Q 2906 1113 2906 1747 
Q 2906 2381 2643 2742 
Q 2381 3103 1925 3103 
Q 1469 3103 1208 2742 
Q 947 2381 947 1747 
z
" transform="scale(0.015625)"/>
       <path id="DejaVuSans-6f" d="M 1959 3097 
Q 1497 3097 1228 2736 
Q 959 2375 959 1747 
Q 959 1119 1226 758 
Q 1494 397 1959 397 
Q 2419 397 2687 759 
Q 2956 1122 2956 1747 
Q 2956 2369 2687 2733 
Q 2419 3097 1959 3097 
z
M 1959 3584 
Q 2709 3584 3137 3096 
Q 3566 2609 3566 1747 
Q 3566 888 3137 398 
Q 2709 -91 1959 -91 
Q 1206 -91 779 398 
Q 353 888 353 1747 
Q 353 2609 779 3096 
Q 1206 3584 1959 3584 
z
" transform="scale(0.015625)"/>
       <path id="DejaVuSans-29" d="M 513 4856 
L 1013 4856 
Q 1481 4119 1714 3412 
Q 1947 2706 1947 2009 
Q 1947 1309 1714 600 
Q 1481 -109 1013 -844 
L 513 -844 
Q 928 -128 1133 580 
Q 1338 1288 1338 2009 
Q 1338 2731 1133 3434 
Q 928 4138 513 4856 
z
" transform="scale(0.015625)"/>
      </defs>
      <use xlink:href="#DejaVuSans-4d"/>
      <use xlink:href="#DejaVuSans-65" x="86.279297"/>
      <use xlink:href="#DejaVuSans-61" x="147.802734"/>
      <use xlink:href="#DejaVuSans-6e" x="209.082031"/>
      <use xlink:href="#DejaVuSans-20" x="272.460938"/>
      <use xlink:href="#DejaVuSans-53" x="304.248047"/>
      <use xlink:href="#DejaVuSans-65" x="367.724609"/>
      <use xlink:href="#DejaVuSans-71" x="429.248047"/>
      <use xlink:href="#DejaVuSans-75" x="492.724609"/>
      <use xlink:href="#DejaVuSans-65" x="556.103516"/>
      <use xlink:href="#DejaVuSans-6e" x="617.626953"/>
      <use xlink:href="#DejaVuSans-63" x="681.005859"/>
      <use xlink:href="#DejaVuSans-65" x="735.986328"/>
      <use xlink:href="#DejaVuSans-20" x="797.509766"/>
      <use xlink:href="#DejaVuSans-51" x="829.296875"/>
      <use xlink:href="#DejaVuSans-75" x="908.007812"/>
      <use xlink:href="#DejaVuSans-61" x="971.386719"/>
      <use xlink:href="#DejaVuSans-6c" x="1032.666016"/>
      <use xlink:href="#DejaVuSans-69" x="1060.449219"/>
      <use xlink:href="#DejaVuSans-74" x="1088.232422"/>
      <use xlink:href="#DejaVuSans-79" x="1127.441406"/>
      <use xlink:href="#DejaVuSans-20" x="1186.621094"/>
      <use xlink:href="#DejaVuSans-28" x="1218.408203"/>
      <use xlink:href="#DejaVuSans-50" x="1257.421875"/>
      <use xlink:href="#DejaVuSans-68" x="1317.724609"/>
      <use xlink:href="#DejaVuSans-72" x="1381.103516"/>
      <use xlink:href="#DejaVuSans-65" x="1419.966797"/>
      <use xlink:href="#DejaVuSans-64" x="1481.490234"/>
      <use xlink:href="#DejaVuSans-20" x="1544.966797"/>
      <use xlink:href="#DejaVuSans-53" x="1576.753906"/>
      <use xlink:href="#DejaVuSans-63" x="1640.230469"/>
      <use xlink:href="#DejaVuSans-6f" x="1695.210938"/>
      <use xlink:href="#DejaVuSans-72" x="1756.392578"/>
      <use xlink:href="#DejaVuSans-65" x="1795.255859"/>
      <use xlink:href="#DejaVuSans-29" x="1856.779297"/>
     </g>
    </g>
   </g>
   <g id="matplotlib.axis_2">
    <g id="ytick_1">
     <g id="line2d_1">
      <path d="M 40.600625 353.2239 
L 993.140625 353.2239 
" clip-path="url(#pae69b6044b)" style="fill: none; stroke: #dedede; stroke-linecap: square"/>
     </g>
     <g id="text_10">
      <!-- 0.0 -->
      <g transform="translate(20.878125 356.263275)scale(0.08 -0.08)">
       <defs>
        <path id="DejaVuSans-2e" d="M 684 794 
L 1344 794 
L 1344 0 
L 684 0 
L 684 794 
z
" transform="scale(0.015625)"/>
       </defs>
       <use xlink:href="#DejaVuSans-30"/>
       <use xlink:href="#DejaVuSans-2e" x="63.623047"/>
       <use xlink:href="#DejaVuSans-30" x="95.410156"/>
      </g>
     </g>
    </g>
    <g id="ytick_2">
     <g id="line2d_2">
      <path d="M 40.600625 292.313343 
L 993.140625 292.313343 
" clip-path="url(#pae69b6044b)" style="fill: none; stroke: #dedede; stroke-linecap: square"/>
     </g>
     <g id="text_11">
      <!-- 0.5 -->
      <g transform="translate(20.878125 295.352718)scale(0.08 -0.08)">
       <use xlink:href="#DejaVuSans-30"/>
       <use xlink:href="#DejaVuSans-2e" x="63.623047"/>
       <use xlink:href="#DejaVuSans-35" x="95.410156"/>
      </g>
     </g>
    </g>
    <g id="ytick_3">
     <g id="line2d_3">
      <path d="M 40.600625 231.402785 
L 993.140625 231.402785 
" clip-path="url(#pae69b6044b)" style="fill: none; stroke: #dedede; stroke-linecap: square"/>
     </g>
     <g id="text_12">
      <!-- 1.0 -->
      <g transform="translate(20.878125 234.44216)scale(0.08 -0.08)">
       <use xlink:href="#DejaVuSans-31"/>
       <use xlink:href="#DejaVuSans-2e" x="63.623047"/>
       <use xlink:href="#DejaVuSans-30" x="95.410156"/>
      </g>
     </g>
    </g>
    <g id="ytick_4">
     <g id="line2d_4">
      <path d="M 40.600625 170.492228 
L 993.140625 170.492228 
" clip-path="url(#pae69b6044b)" style="fill: none; stroke: #dedede; stroke-linecap: square"/>
     </g>
     <g id="text_13">
      <!-- 1.5 -->
      <g transform="translate(20.878125 173.531603)scale(0.08 -0.08)">
       <use xlink:href="#DejaVuSans-31"/>
       <use xlink:href="#DejaVuSans-2e" x="63.623047"/>
       <use xlink:href="#DejaVuSans-35" x="95.410156"/>
      </g>
     </g>
    </g>
    <g id="ytick_5">
     <g id="line2d_5">
      <path d="M 40.600625 109.581671 
L 993.140625 109.581671 
" clip-path="url(#pae69b6044b)" style="fill: none; stroke: #dedede; stroke-linecap: square"/>
     </g>
     <g id="text_14">
      <!-- 2.0 -->
      <g transform="translate(20.878125 112.621046)scale(0.08 -0.08)">
       <use xlink:href="#DejaVuSans-32"/>
       <use xlink:href="#DejaVuSans-2e" x="63.623047"/>
       <use xlink:href="#DejaVuSans-30" x="95.410156"/>
      </g>
     </g>
    </g>
    <g id="ytick_6">
     <g id="line2d_6">
      <path d="M 40.600625 48.671113 
L 993.140625 48.671113 
" clip-path="url(#pae69b6044b)" style="fill: none; stroke: #dedede; stroke-linecap: square"/>
     </g>
     <g id="text_15">
      <!-- 2.5 -->
      <g transform="translate(20.878125 51.710488)scale(0.08 -0.08)">
       <use xlink:href="#DejaVuSans-32"/>
       <use xlink:href="#DejaVuSans-2e" x="63.623047"/>
       <use xlink:href="#DejaVuSans-35" x="95.410156"/>
      </g>
     </g>
    </g>
    <g id="text_16">
     <!-- Count -->
     <g transform="translate(14.798438 209.088338)rotate(-90)scale(0.1 -0.1)">
      <defs>
       <path id="DejaVuSans-43" d="M 4122 4306 
L 4122 3641 
Q 3803 3938 3442 4084 
Q 3081 4231 2675 4231 
Q 1875 4231 1450 3742 
Q 1025 3253 1025 2328 
Q 1025 1406 1450 917 
Q 1875 428 2675 428 
Q 3081 428 3442 575 
Q 3803 722 4122 1019 
L 4122 359 
Q 3791 134 3420 21 
Q 3050 -91 2638 -91 
Q 1578 -91 968 557 
Q 359 1206 359 2328 
Q 359 3453 968 4101 
Q 1578 4750 2638 4750 
Q 3056 4750 3426 4639 
Q 3797 4528 4122 4306 
z
" transform="scale(0.015625)"/>
      </defs>
      <use xlink:href="#DejaVuSans-43"/>
      <use xlink:href="#DejaVuSans-6f" x="69.824219"/>
      <use xlink:href="#DejaVuSans-75" x="131.005859"/>
      <use xlink:href="#DejaVuSans-6e" x="194.384766"/>
      <use xlink:href="#DejaVuSans-74" x="257.763672"/>
     </g>
    </g>
    <g id="text_17">
     <!-- 1e7 -->
     <g transform="translate(40.600625 32.2559)scale(0.1 -0.1)">
      <defs>
       <path id="DejaVuSans-37" d="M 525 4666 
L 3525 4666 
L 3525 4397 
L 1831 0 
L 1172 0 
L 2766 4134 
L 525 4134 
L 525 4666 
z
" transform="scale(0.015625)"/>
      </defs>
      <use xlink:href="#DejaVuSans-31"/>
      <use xlink:href="#DejaVuSans-65" x="63.623047"/>
      <use xlink:href="#DejaVuSans-37" x="125.146484"/>
     </g>
    </g>
   </g>
   <g id="line2d_7">
    <path d="M 310.999077 353.223876 
L 335.580754 353.223888 
L 360.162431 353.223778 
L 384.744109 353.223742 
L 409.325786 353.222377 
L 433.907464 353.199987 
L 458.489141 353.093576 
L 483.070819 352.916752 
L 507.652496 352.644251 
L 532.234173 352.273147 
L 556.815851 351.81499 
L 581.397528 351.231101 
L 605.979206 350.416216 
L 630.560883 349.339902 
L 655.14256 347.960716 
L 679.724238 346.292145 
L 704.305915 344.294912 
L 728.887593 341.875289 
L 753.46927 338.461873 
L 778.050948 332.746733 
L 802.632625 328.555258 
L 827.214302 318.769527 
L 851.79598 293.217402 
L 876.377657 194.305941 
L 900.959335 182.269333 
" clip-path="url(#pae69b6044b)" style="fill: none; stroke: #5cb85c; stroke-linecap: square"/>
   </g>
   <g id="line2d_8">
    <path d="M 89.76398 353.136956 
L 114.345657 353.202021 
L 138.927335 353.199 
L 163.509012 353.197599 
L 188.09069 353.197124 
L 212.672367 353.20006 
L 237.254044 353.196978 
L 261.835722 353.198305 
L 286.417399 353.197477 
L 310.999077 353.194565 
L 335.580754 353.19124 
L 360.162431 353.187061 
L 384.744109 353.183273 
L 409.325786 353.139783 
L 433.907464 353.043739 
L 458.489141 352.896652 
L 483.070819 352.688374 
L 507.652496 352.406541 
L 532.234173 352.033805 
L 556.815851 351.491531 
L 581.397528 350.733438 
L 605.979206 349.74754 
L 630.560883 348.562902 
L 655.14256 347.22689 
L 679.724238 345.809307 
L 704.305915 344.103238 
L 728.887593 341.969249 
L 753.46927 338.95174 
L 778.050948 334.940134 
L 802.632625 330.245551 
L 827.214302 323.498732 
L 851.79598 309.611746 
L 876.377657 259.033836 
L 900.959335 97.195424 
" clip-path="url(#pae69b6044b)" style="fill: none; stroke: #5cb85c; stroke-linecap: square"/>
   </g>
   <g id="line2d_9">
    <path d="M 310.999077 353.223888 
L 335.580754 353.223888 
L 360.162431 353.223839 
L 384.744109 353.223559 
L 409.325786 353.222231 
L 433.907464 353.197099 
L 458.489141 353.075607 
L 483.070819 352.871874 
L 507.652496 352.566261 
L 532.234173 352.147744 
L 556.815851 351.625047 
L 581.397528 350.93655 
L 605.979206 349.977708 
L 630.560883 348.70966 
L 655.14256 347.053356 
L 679.724238 345.06995 
L 704.305915 342.719399 
L 728.887593 339.849562 
L 753.46927 335.987881 
L 778.050948 329.883876 
L 802.632625 324.58752 
L 827.214302 312.617828 
L 851.79598 282.498313 
L 876.377657 171.045637 
L 900.959335 148.239031 
" clip-path="url(#pae69b6044b)" style="fill: none; stroke: #5cb85c; stroke-linecap: square"/>
   </g>
   <g id="line2d_10">
    <path d="M 89.76398 353.121034 
L 114.345657 353.195674 
L 138.927335 353.193554 
L 163.509012 353.19409 
L 188.09069 353.192336 
L 212.672367 353.195443 
L 237.254044 353.192068 
L 261.835722 353.194846 
L 286.417399 353.193457 
L 310.999077 353.188682 
L 335.580754 353.185758 
L 360.162431 353.180142 
L 384.744109 353.17494 
L 409.325786 353.119158 
L 433.907464 352.998628 
L 458.489141 352.83188 
L 483.070819 352.586069 
L 507.652496 352.251012 
L 532.234173 351.81164 
L 556.815851 351.178621 
L 581.397528 350.287475 
L 605.979206 349.108015 
L 630.560883 347.669296 
L 655.14256 346.009556 
L 679.724238 344.222587 
L 704.305915 342.145707 
L 728.887593 339.677831 
L 753.46927 336.331587 
L 778.050948 331.980953 
L 802.632625 326.774928 
L 827.214302 319.066709 
L 851.79598 303.115757 
L 876.377657 244.825742 
L 900.959335 50.397233 
" clip-path="url(#pae69b6044b)" style="fill: none; stroke: #5cb85c; stroke-linecap: square"/>
   </g>
   <g id="line2d_11">
    <path d="M 310.999077 353.223888 
L 335.580754 353.2239 
L 360.162431 353.223851 
L 384.744109 353.222767 
L 409.325786 353.216262 
L 433.907464 353.197782 
L 458.489141 353.157885 
L 483.070819 353.092333 
L 507.652496 352.963118 
L 532.234173 352.758458 
L 556.815851 352.445963 
L 581.397528 352.026971 
L 605.979206 351.342885 
L 630.560883 350.343903 
L 655.14256 348.702534 
L 679.724238 346.462304 
L 704.305915 343.250393 
L 728.887593 339.601985 
L 753.46927 335.239108 
L 778.050948 331.063555 
L 802.632625 326.093497 
L 827.214302 321.501207 
L 851.79598 316.196981 
L 876.377657 312.418712 
L 900.959335 305.023037 
L 925.541012 313.332955 
L 950.12269 352.986592 
" clip-path="url(#pae69b6044b)" style="fill: none; stroke: #5cb85c; stroke-linecap: square"/>
   </g>
   <g id="line2d_12">
    <path d="M 310.999077 353.223401 
L 335.580754 353.219161 
L 360.162431 353.209927 
L 384.744109 353.188913 
L 409.325786 353.1506 
L 433.907464 353.093052 
L 458.489141 352.992245 
L 483.070819 352.843818 
L 507.652496 352.611651 
L 532.234173 352.284148 
L 556.815851 351.771013 
L 581.397528 351.082468 
L 605.979206 350.069598 
L 630.560883 348.806557 
L 655.14256 347.075917 
L 679.724238 345.200847 
L 704.305915 342.838333 
L 728.887593 340.451407 
L 753.46927 337.539492 
L 778.050948 334.781462 
L 802.632625 331.050813 
L 827.214302 326.593134 
L 851.79598 318.815027 
L 876.377657 308.535822 
L 900.959335 296.768974 
L 925.541012 315.504733 
L 950.12269 352.610311 
" clip-path="url(#pae69b6044b)" style="fill: none; stroke: #5cb85c; stroke-linecap: square"/>
   </g>
   <g id="line2d_13">
    <path d="M 360.162431 353.223876 
L 384.744109 353.223766 
L 409.325786 353.221963 
L 433.907464 353.217809 
L 458.489141 353.209306 
L 483.070819 353.197757 
L 507.652496 353.183066 
L 532.234173 353.159103 
L 556.815851 353.118305 
L 581.397528 353.054593 
L 605.979206 352.939496 
L 630.560883 352.77293 
L 655.14256 352.480121 
L 679.724238 352.057767 
L 704.305915 351.426027 
L 728.887593 350.619986 
L 753.46927 349.509525 
L 778.050948 348.356269 
L 802.632625 346.81712 
L 827.214302 345.31023 
L 851.79598 343.866832 
L 876.377657 342.702746 
L 900.959335 340.403653 
L 925.541012 342.582472 
L 950.12269 353.167935 
" clip-path="url(#pae69b6044b)" style="fill: none; stroke: #5cb85c; stroke-linecap: square"/>
   </g>
   <g id="line2d_14">
    <path d="M 310.999077 353.223863 
L 335.580754 353.223169 
L 360.162431 353.22133 
L 384.744109 353.217431 
L 409.325786 353.208063 
L 433.907464 353.195162 
L 458.489141 353.169811 
L 483.070819 353.134459 
L 507.652496 353.075668 
L 532.234173 352.998665 
L 556.815851 352.879975 
L 581.397528 352.718866 
L 605.979206 352.47442 
L 630.560883 352.169892 
L 655.14256 351.748841 
L 679.724238 351.282303 
L 704.305915 350.687158 
L 728.887593 350.074654 
L 753.46927 349.302271 
L 778.050948 348.48512 
L 802.632625 347.323945 
L 827.214302 345.975934 
L 851.79598 343.949281 
L 876.377657 341.956032 
L 900.959335 340.836812 
L 925.541012 346.566595 
L 950.12269 353.170737 
" clip-path="url(#pae69b6044b)" style="fill: none; stroke: #5cb85c; stroke-linecap: square"/>
   </g>
   <g id="line2d_15">
    <path d="M 360.162431 353.223888 
L 384.744109 353.223315 
L 409.325786 353.219941 
L 433.907464 353.21078 
L 458.489141 353.195625 
L 483.070819 353.174355 
L 507.652496 353.144692 
L 532.234173 353.106513 
L 556.815851 353.042825 
L 581.397528 352.955029 
L 605.979206 352.816944 
L 630.560883 352.617024 
L 655.14256 352.298303 
L 679.724238 351.859053 
L 704.305915 351.182982 
L 728.887593 350.317918 
L 753.46927 349.148801 
L 778.050948 347.827688 
L 802.632625 346.112544 
L 827.214302 344.282194 
L 851.79598 342.27742 
L 876.377657 340.747201 
L 900.959335 337.414297 
L 925.541012 338.577213 
L 950.12269 353.12235 
" clip-path="url(#pae69b6044b)" style="fill: none; stroke: #5cb85c; stroke-linecap: square"/>
   </g>
   <g id="line2d_16">
    <path d="M 310.999077 353.223778 
L 335.580754 353.222304 
L 360.162431 353.218199 
L 384.744109 353.210353 
L 409.325786 353.19565 
L 433.907464 353.176183 
L 458.489141 353.146994 
L 483.070819 353.102554 
L 507.652496 353.039463 
L 532.234173 352.963398 
L 556.815851 352.847887 
L 581.397528 352.69689 
L 605.979206 352.469413 
L 630.560883 352.162838 
L 655.14256 351.742458 
L 679.724238 351.252213 
L 704.305915 350.613761 
L 728.887593 349.946035 
L 753.46927 349.035861 
L 778.050948 348.056114 
L 802.632625 346.623522 
L 827.214302 344.932061 
L 851.79598 342.505518 
L 876.377657 339.653174 
L 900.959335 336.657873 
L 925.541012 342.71131 
L 950.12269 353.140891 
" clip-path="url(#pae69b6044b)" style="fill: none; stroke: #5cb85c; stroke-linecap: square"/>
   </g>
   <g id="line2d_17">
    <path d="M 360.162431 353.223851 
L 384.744109 353.222986 
L 409.325786 353.217797 
L 433.907464 353.202557 
L 458.489141 353.169751 
L 483.070819 353.115906 
L 507.652496 353.004719 
L 532.234173 352.82803 
L 556.815851 352.554627 
L 581.397528 352.190979 
L 605.979206 351.614716 
L 630.560883 350.759118 
L 655.14256 349.345493 
L 679.724238 347.41408 
L 704.305915 344.646719 
L 728.887593 341.497339 
L 753.46927 337.72477 
L 778.050948 334.22234 
L 802.632625 330.06517 
L 827.214302 326.288582 
L 851.79598 321.81475 
L 876.377657 318.554914 
L 900.959335 312.234189 
L 925.541012 319.072739 
L 950.12269 353.021738 
" clip-path="url(#pae69b6044b)" style="fill: none; stroke: #5cb85c; stroke-linecap: square"/>
   </g>
   <g id="line2d_18">
    <path d="M 310.999077 353.223376 
L 335.580754 353.220099 
L 360.162431 353.211011 
L 384.744109 353.193116 
L 409.325786 353.163148 
L 433.907464 353.11247 
L 458.489141 353.028998 
L 483.070819 352.901695 
L 507.652496 352.700422 
L 532.234173 352.399939 
L 556.815851 351.913178 
L 581.397528 351.242796 
L 605.979206 350.260784 
L 630.560883 349.030038 
L 655.14256 347.393919 
L 679.724238 345.695526 
L 704.305915 343.586607 
L 728.887593 341.501347 
L 753.46927 339.017865 
L 778.050948 336.710609 
L 802.632625 333.516021 
L 827.214302 329.6281 
L 851.79598 322.954959 
L 876.377657 314.783966 
L 900.959335 307.749454 
L 925.541012 326.509626 
L 950.12269 352.80659 
" clip-path="url(#pae69b6044b)" style="fill: none; stroke: #5cb85c; stroke-linecap: square"/>
   </g>
   <g id="line2d_19">
    <path d="M 360.162431 353.223863 
L 384.744109 353.223413 
L 409.325786 353.2196 
L 433.907464 353.208197 
L 458.489141 353.181482 
L 483.070819 353.136579 
L 507.652496 353.050963 
L 532.234173 352.919761 
L 556.815851 352.721473 
L 581.397528 352.4752 
L 605.979206 352.052249 
L 630.560883 351.408339 
L 655.14256 350.334096 
L 679.724238 348.845905 
L 704.305915 346.623656 
L 728.887593 343.986144 
L 753.46927 340.718378 
L 778.050948 337.502544 
L 802.632625 333.701713 
L 827.214302 330.353874 
L 851.79598 326.667664 
L 876.377657 324.195463 
L 900.959335 319.827738 
L 925.541012 328.419026 
L 950.12269 353.105088 
" clip-path="url(#pae69b6044b)" style="fill: none; stroke: #5cb85c; stroke-linecap: square"/>
   </g>
   <g id="line2d_20">
    <path d="M 310.999077 353.223681 
L 335.580754 353.22189 
L 360.162431 353.216993 
L 384.744109 353.205359 
L 409.325786 353.1832 
L 433.907464 353.147664 
L 458.489141 353.084378 
L 483.070819 352.987506 
L 507.652496 352.829797 
L 532.234173 352.604829 
L 556.815851 352.265667 
L 581.397528 351.796668 
L 605.979206 351.08092 
L 630.560883 350.172537 
L 655.14256 348.912176 
L 679.724238 347.508212 
L 704.305915 345.726212 
L 728.887593 343.888005 
L 753.46927 341.627882 
L 778.050948 339.466812 
L 802.632625 336.511042 
L 827.214302 333.219216 
L 851.79598 327.9635 
L 876.377657 321.905738 
L 900.959335 316.857349 
L 925.541012 331.966834 
L 950.12269 352.97614 
" clip-path="url(#pae69b6044b)" style="fill: none; stroke: #5cb85c; stroke-linecap: square"/>
   </g>
   <g id="line2d_21">
    <path d="M 360.162431 353.223851 
L 384.744109 353.222755 
L 409.325786 353.216737 
L 433.907464 353.199207 
L 458.489141 353.164183 
L 483.070819 353.108243 
L 507.652496 353.006157 
L 532.234173 352.838495 
L 556.815851 352.577468 
L 581.397528 352.200932 
L 605.979206 351.570459 
L 630.560883 350.613846 
L 655.14256 349.042963 
L 679.724238 346.921619 
L 704.305915 343.925294 
L 728.887593 340.589381 
L 753.46927 336.615321 
L 778.050948 333.018662 
L 802.632625 328.749246 
L 827.214302 324.755244 
L 851.79598 319.788024 
L 876.377657 315.7072 
L 900.959335 308.388565 
L 925.541012 314.111355 
L 950.12269 352.970488 
" clip-path="url(#pae69b6044b)" style="fill: none; stroke: #5cb85c; stroke-linecap: square"/>
   </g>
   <g id="line2d_22">
    <path d="M 310.999077 353.223705 
L 335.580754 353.221366 
L 360.162431 353.215604 
L 384.744109 353.202886 
L 409.325786 353.178509 
L 433.907464 353.139795 
L 458.489141 353.077739 
L 483.070819 352.976676 
L 507.652496 352.808697 
L 532.234173 352.561912 
L 556.815851 352.169624 
L 581.397528 351.608345 
L 605.979206 350.758728 
L 630.560883 349.682658 
L 655.14256 348.209207 
L 679.724238 346.600608 
L 704.305915 344.527152 
L 728.887593 342.386889 
L 753.46927 339.759914 
L 778.050948 337.297422 
L 802.632625 333.90658 
L 827.214302 329.705311 
L 851.79598 322.099714 
L 876.377657 311.135533 
L 900.959335 297.011337 
L 925.541012 313.019996 
L 950.12269 352.487589 
" clip-path="url(#pae69b6044b)" style="fill: none; stroke: #5cb85c; stroke-linecap: square"/>
   </g>
   <g id="line2d_23">
    <path d="M 360.162431 353.223851 
L 384.744109 353.222718 
L 409.325786 353.215433 
L 433.907464 353.196356 
L 458.489141 353.154961 
L 483.070819 353.079944 
L 507.652496 352.940763 
L 532.234173 352.718062 
L 556.815851 352.40458 
L 581.397528 351.988013 
L 605.979206 351.341727 
L 630.560883 350.396895 
L 655.14256 348.879844 
L 679.724238 346.87529 
L 704.305915 344.081981 
L 728.887593 341.023735 
L 753.46927 337.398058 
L 778.050948 333.965553 
L 802.632625 329.834526 
L 827.214302 325.906197 
L 851.79598 321.365084 
L 876.377657 318.224876 
L 900.959335 312.277253 
L 925.541012 319.635955 
L 950.12269 353.028779 
" clip-path="url(#pae69b6044b)" style="fill: none; stroke: #5cb85c; stroke-linecap: square"/>
   </g>
   <g id="line2d_24">
    <path d="M 310.999077 353.223461 
L 335.580754 353.220928 
L 360.162431 353.214081 
L 384.744109 353.199024 
L 409.325786 353.173649 
L 433.907464 353.129818 
L 458.489141 353.061902 
L 483.070819 352.957721 
L 507.652496 352.780849 
L 532.234173 352.523745 
L 556.815851 352.106337 
L 581.397528 351.535703 
L 605.979206 350.68298 
L 630.560883 349.604034 
L 655.14256 348.16244 
L 679.724238 346.573113 
L 704.305915 344.553453 
L 728.887593 342.530004 
L 753.46927 340.044232 
L 778.050948 337.738451 
L 802.632625 334.512116 
L 827.214302 330.552844 
L 851.79598 323.586102 
L 876.377657 313.96182 
L 900.959335 302.387632 
L 925.541012 318.157838 
L 950.12269 352.65396 
" clip-path="url(#pae69b6044b)" style="fill: none; stroke: #5cb85c; stroke-linecap: square"/>
   </g>
   <g id="line2d_25">
    <path d="M 360.162431 353.223851 
L 384.744109 353.222901 
L 409.325786 353.215689 
L 433.907464 353.194017 
L 458.489141 353.153682 
L 483.070819 353.083318 
L 507.652496 352.950911 
L 532.234173 352.734009 
L 556.815851 352.408222 
L 581.397528 351.97231 
L 605.979206 351.277625 
L 630.560883 350.2573 
L 655.14256 348.570809 
L 679.724238 346.319542 
L 704.305915 343.077346 
L 728.887593 339.455434 
L 753.46927 335.081398 
L 778.050948 331.07849 
L 802.632625 326.316844 
L 827.214302 322.01143 
L 851.79598 316.874794 
L 876.377657 313.157934 
L 900.959335 306.022604 
L 925.541012 314.551531 
L 950.12269 352.999493 
" clip-path="url(#pae69b6044b)" style="fill: none; stroke: #5cb85c; stroke-linecap: square"/>
   </g>
   <g id="line2d_26">
    <path d="M 310.999077 353.223352 
L 335.580754 353.218321 
L 360.162431 353.20464 
L 384.744109 353.175293 
L 409.325786 353.119524 
L 433.907464 353.043739 
L 458.489141 352.931176 
L 483.070819 352.785977 
L 507.652496 352.567832 
L 532.234173 352.26529 
L 556.815851 351.790455 
L 581.397528 351.128845 
L 605.979206 350.117328 
L 630.560883 348.847452 
L 655.14256 347.124402 
L 679.724238 345.285512 
L 704.305915 342.950092 
L 728.887593 340.591392 
L 753.46927 337.770819 
L 778.050948 335.111853 
L 802.632625 331.444404 
L 827.214302 326.960047 
L 851.79598 318.973187 
L 876.377657 308.213069 
L 900.959335 296.75639 
L 925.541012 317.390974 
L 950.12269 352.667921 
" clip-path="url(#pae69b6044b)" style="fill: none; stroke: #5cb85c; stroke-linecap: square"/>
   </g>
   <g id="line2d_27">
    <path d="M 360.162431 353.223827 
L 384.744109 353.223059 
L 409.325786 353.217054 
L 433.907464 353.199987 
L 458.489141 353.165779 
L 483.070819 353.101847 
L 507.652496 352.981586 
L 532.234173 352.805201 
L 556.815851 352.544479 
L 581.397528 352.193135 
L 605.979206 351.622769 
L 630.560883 350.75366 
L 655.14256 349.309495 
L 679.724238 347.316636 
L 704.305915 344.434019 
L 728.887593 341.124834 
L 753.46927 337.025785 
L 778.050948 333.028883 
L 802.632625 328.148035 
L 827.214302 323.426602 
L 851.79598 318.35369 
L 876.377657 314.753413 
L 900.959335 307.224491 
L 925.541012 313.88947 
L 950.12269 352.983693 
" clip-path="url(#pae69b6044b)" style="fill: none; stroke: #5cb85c; stroke-linecap: square"/>
   </g>
   <g id="line2d_28">
    <path d="M 310.999077 353.22362 
L 335.580754 353.221719 
L 360.162431 353.215543 
L 384.744109 353.201814 
L 409.325786 353.176597 
L 433.907464 353.136225 
L 458.489141 353.066702 
L 483.070819 352.956746 
L 507.652496 352.783054 
L 532.234173 352.519408 
L 556.815851 352.106301 
L 581.397528 351.515042 
L 605.979206 350.614772 
L 630.560883 349.478534 
L 655.14256 347.883713 
L 679.724238 346.136469 
L 704.305915 343.909409 
L 728.887593 341.697771 
L 753.46927 339.002442 
L 778.050948 336.415498 
L 802.632625 332.805183 
L 827.214302 328.518395 
L 851.79598 321.122794 
L 876.377657 311.329399 
L 900.959335 299.076546 
L 925.541012 314.732923 
L 950.12269 352.652608 
" clip-path="url(#pae69b6044b)" style="fill: none; stroke: #5cb85c; stroke-linecap: square"/>
   </g>
   <g id="line2d_29">
    <path d="M 360.162431 353.223644 
L 384.744109 353.220452 
L 409.325786 353.198025 
L 433.907464 353.128575 
L 458.489141 352.994352 
L 483.070819 352.759932 
L 507.652496 352.311509 
L 532.234173 351.593239 
L 556.815851 350.475908 
L 581.397528 348.968701 
L 605.979206 346.449294 
L 630.560883 342.68842 
L 655.14256 336.427119 
L 679.724238 327.911921 
L 704.305915 315.544641 
L 728.887593 301.360534 
L 753.46927 284.008334 
L 778.050948 267.331718 
L 802.632625 246.985984 
L 827.214302 227.53198 
L 851.79598 206.919032 
L 876.377657 192.728431 
L 900.959335 161.014277 
L 925.541012 189.245383 
L 950.12269 352.203782 
" clip-path="url(#pae69b6044b)" style="fill: none; stroke: #5cb85c; stroke-linecap: square"/>
   </g>
   <g id="line2d_30">
    <path d="M 310.999077 353.222645 
L 335.580754 353.213289 
L 360.162431 353.185989 
L 384.744109 353.130488 
L 409.325786 353.022518 
L 433.907464 352.85628 
L 458.489141 352.567272 
L 483.070819 352.144601 
L 507.652496 351.447541 
L 532.234173 350.423281 
L 556.815851 348.792535 
L 581.397528 346.549504 
L 605.979206 343.114014 
L 630.560883 338.748214 
L 655.14256 332.783133 
L 679.724238 326.155906 
L 704.305915 317.568541 
L 728.887593 308.517476 
L 753.46927 297.285337 
L 778.050948 286.179308 
L 802.632625 271.020535 
L 827.214302 252.809289 
L 851.79598 220.338517 
L 876.377657 173.150694 
L 900.959335 110.324499 
L 925.541012 177.599881 
L 950.12269 350.521701 
" clip-path="url(#pae69b6044b)" style="fill: none; stroke: #5cb85c; stroke-linecap: square"/>
   </g>
   <g id="line2d_31">
    <path d="M 360.162431 353.22379 
L 384.744109 353.221914 
L 409.325786 353.20598 
L 433.907464 353.162539 
L 458.489141 353.077897 
L 483.070819 352.939898 
L 507.652496 352.656141 
L 532.234173 352.215343 
L 556.815851 351.543329 
L 581.397528 350.649552 
L 605.979206 349.227778 
L 630.560883 347.105837 
L 655.14256 343.594306 
L 679.724238 338.759372 
L 704.305915 331.592722 
L 728.887593 323.11463 
L 753.46927 312.358203 
L 778.050948 301.647313 
L 802.632625 288.544587 
L 827.214302 276.083298 
L 851.79598 264.033862 
L 876.377657 254.780708 
L 900.959335 235.874863 
L 925.541012 259.400749 
L 950.12269 352.713202 
" clip-path="url(#pae69b6044b)" style="fill: none; stroke: #5cb85c; stroke-linecap: square"/>
   </g>
   <g id="line2d_32">
    <path d="M 310.999077 353.223279 
L 335.580754 353.216091 
L 360.162431 353.197538 
L 384.744109 353.157032 
L 409.325786 353.091212 
L 433.907464 352.987933 
L 458.489141 352.819442 
L 483.070819 352.58027 
L 507.652496 352.190906 
L 532.234173 351.634232 
L 556.815851 350.701923 
L 581.397528 349.407756 
L 605.979206 347.370895 
L 630.560883 344.770721 
L 655.14256 341.11454 
L 679.724238 337.163467 
L 704.305915 332.005817 
L 728.887593 326.57435 
L 753.46927 319.582768 
L 778.050948 312.456744 
L 802.632625 302.629849 
L 827.214302 290.823361 
L 851.79598 270.744037 
L 876.377657 242.83694 
L 900.959335 208.259941 
L 925.541012 254.601668 
L 950.12269 352.032904 
" clip-path="url(#pae69b6044b)" style="fill: none; stroke: #5cb85c; stroke-linecap: square"/>
   </g>
   <g id="line2d_33">
    <path d="M 360.162431 353.223717 
L 384.744109 353.221464 
L 409.325786 353.203166 
L 433.907464 353.148334 
L 458.489141 353.044823 
L 483.070819 352.869937 
L 507.652496 352.529166 
L 532.234173 351.973455 
L 556.815851 351.139114 
L 581.397528 350.014511 
L 605.979206 348.227236 
L 630.560883 345.541373 
L 655.14256 341.032286 
L 679.724238 334.782656 
L 704.305915 325.498425 
L 728.887593 314.399328 
L 753.46927 300.69924 
L 778.050948 287.238787 
L 802.632625 271.171361 
L 827.214302 256.387943 
L 851.79598 240.679232 
L 876.377657 229.867413 
L 900.959335 206.576215 
L 925.541012 230.22095 
L 950.12269 352.485457 
" clip-path="url(#pae69b6044b)" style="fill: none; stroke: #5cb85c; stroke-linecap: square"/>
   </g>
   <g id="line2d_34">
    <path d="M 310.999077 353.222597 
L 335.580754 353.213716 
L 360.162431 353.189766 
L 384.744109 353.141427 
L 409.325786 353.045737 
L 433.907464 352.886553 
L 458.489141 352.615684 
L 483.070819 352.232069 
L 507.652496 351.632575 
L 532.234173 350.800768 
L 556.815851 349.539895 
L 581.397528 347.798353 
L 605.979206 345.15961 
L 630.560883 341.80378 
L 655.14256 337.118966 
L 679.724238 331.956126 
L 704.305915 325.299114 
L 728.887593 318.362559 
L 753.46927 309.570887 
L 778.050948 300.813496 
L 802.632625 288.801581 
L 827.214302 274.613319 
L 851.79598 250.308107 
L 876.377657 216.615152 
L 900.959335 173.411951 
L 925.541012 227.006249 
L 950.12269 351.463353 
" clip-path="url(#pae69b6044b)" style="fill: none; stroke: #5cb85c; stroke-linecap: square"/>
   </g>
   <g id="line2d_35">
    <path d="M 335.580754 353.223888 
L 360.162431 353.223754 
L 384.744109 353.220452 
L 409.325786 353.193737 
L 433.907464 353.119451 
L 458.489141 352.965018 
L 483.070819 352.70655 
L 507.652496 352.205086 
L 532.234173 351.364617 
L 556.815851 350.093475 
L 581.397528 348.428546 
L 605.979206 345.77432 
L 630.560883 341.858855 
L 655.14256 335.301176 
L 679.724238 326.259478 
L 704.305915 312.971049 
L 728.887593 297.418671 
L 753.46927 278.333334 
L 778.050948 260.173047 
L 802.632625 238.631309 
L 827.214302 218.876066 
L 851.79598 198.301089 
L 876.377657 183.516075 
L 900.959335 152.546674 
L 925.541012 190.203969 
L 950.12269 352.305296 
" clip-path="url(#pae69b6044b)" style="fill: none; stroke: #5cb85c; stroke-linecap: square"/>
   </g>
   <g id="line2d_36">
    <path d="M 310.999077 353.222231 
L 335.580754 353.209147 
L 360.162431 353.173892 
L 384.744109 353.097864 
L 409.325786 352.955991 
L 433.907464 352.726492 
L 458.489141 352.339418 
L 483.070819 351.793623 
L 507.652496 350.927889 
L 532.234173 349.738415 
L 556.815851 347.891376 
L 581.397528 345.347495 
L 605.979206 341.489627 
L 630.560883 336.601653 
L 655.14256 329.881257 
L 679.724238 322.561026 
L 704.305915 313.183468 
L 728.887593 303.511444 
L 753.46927 291.514001 
L 778.050948 279.901976 
L 802.632625 263.908874 
L 827.214302 245.059213 
L 851.79598 211.671493 
L 876.377657 164.847269 
L 900.959335 105.786188 
L 925.541012 182.469509 
L 950.12269 350.62805 
" clip-path="url(#pae69b6044b)" style="fill: none; stroke: #5cb85c; stroke-linecap: square"/>
   </g>
   <g id="line2d_37">
    <path d="M 335.580754 353.223876 
L 360.162431 353.223705 
L 384.744109 353.220477 
L 409.325786 353.195077 
L 433.907464 353.124445 
L 458.489141 352.97731 
L 483.070819 352.730817 
L 507.652496 352.272928 
L 532.234173 351.533267 
L 556.815851 350.428934 
L 581.397528 348.951719 
L 605.979206 346.556935 
L 630.560883 343.041153 
L 655.14256 337.146437 
L 679.724238 329.104196 
L 704.305915 317.326775 
L 728.887593 303.583903 
L 753.46927 286.7353 
L 778.050948 270.454456 
L 802.632625 251.185414 
L 827.214302 233.727997 
L 851.79598 213.798757 
L 876.377657 200.200938 
L 900.959335 173.404423 
L 925.541012 204.440544 
L 950.12269 352.324081 
" clip-path="url(#pae69b6044b)" style="fill: none; stroke: #5cb85c; stroke-linecap: square"/>
   </g>
   <g id="line2d_38">
    <path d="M 310.999077 353.22178 
L 335.580754 353.206662 
L 360.162431 353.162478 
L 384.744109 353.079298 
L 409.325786 352.91769 
L 433.907464 352.682064 
L 458.489141 352.290214 
L 483.070819 351.73069 
L 507.652496 350.858353 
L 532.234173 349.63332 
L 556.815851 347.721606 
L 581.397528 345.083569 
L 605.979206 341.088982 
L 630.560883 336.112053 
L 655.14256 329.243511 
L 679.724238 321.913084 
L 704.305915 312.601906 
L 728.887593 303.337569 
L 753.46927 292.063877 
L 778.050948 281.459008 
L 802.632625 266.836016 
L 827.214302 250.136509 
L 851.79598 221.932034 
L 876.377657 186.930599 
L 900.959335 151.876293 
L 925.541012 228.43716 
L 950.12269 351.581435 
" clip-path="url(#pae69b6044b)" style="fill: none; stroke: #5cb85c; stroke-linecap: square"/>
   </g>
   <g id="line2d_39">
    <path d="M 360.162431 353.223851 
L 384.744109 353.223047 
L 409.325786 353.216469 
L 433.907464 353.19632 
L 458.489141 353.149808 
L 483.070819 353.0706 
L 507.652496 352.926145 
L 532.234173 352.717295 
L 556.815851 352.415117 
L 581.397528 352.020186 
L 605.979206 351.354604 
L 630.560883 350.38989 
L 655.14256 348.787333 
L 679.724238 346.593786 
L 704.305915 343.536246 
L 728.887593 340.09011 
L 753.46927 336.021077 
L 778.050948 332.246073 
L 802.632625 327.611522 
L 827.214302 323.410704 
L 851.79598 318.608576 
L 876.377657 315.228235 
L 900.959335 308.166801 
L 925.541012 315.052801 
L 950.12269 352.982877 
" clip-path="url(#pae69b6044b)" style="fill: none; stroke: #5cb85c; stroke-linecap: square"/>
   </g>
   <g id="line2d_40">
    <path d="M 310.999077 353.22334 
L 335.580754 353.220026 
L 360.162431 353.210719 
L 384.744109 353.191642 
L 409.325786 353.156582 
L 433.907464 353.103626 
L 458.489141 353.005645 
L 483.070819 352.8651 
L 507.652496 352.633908 
L 532.234173 352.29873 
L 556.815851 351.780149 
L 581.397528 351.080421 
L 605.979206 350.032102 
L 630.560883 348.68208 
L 655.14256 346.8773 
L 679.724238 344.976745 
L 704.305915 342.574213 
L 728.887593 340.283562 
L 753.46927 337.618956 
L 778.050948 335.207069 
L 802.632625 331.786844 
L 827.214302 327.698015 
L 851.79598 320.705301 
L 876.377657 311.695131 
L 900.959335 302.101474 
L 925.541012 319.965578 
L 950.12269 352.713019 
" clip-path="url(#pae69b6044b)" style="fill: none; stroke: #5cb85c; stroke-linecap: square"/>
   </g>
   <g id="line2d_41">
    <path d="M 40.600625 353.2239 
L 993.140625 353.2239 
" clip-path="url(#pae69b6044b)" style="fill: none; stroke: #dedede; stroke-width: 2; stroke-linecap: square"/>
   </g>
   <g id="text_18">
    <!-- FastQC: Per Sequence Quality Scores -->
    <g transform="translate(368.678125 19.3575)scale(0.16 -0.16)">
     <defs>
      <path id="DejaVuSans-46" d="M 628 4666 
L 3309 4666 
L 3309 4134 
L 1259 4134 
L 1259 2759 
L 3109 2759 
L 3109 2228 
L 1259 2228 
L 1259 0 
L 628 0 
L 628 4666 
z
" transform="scale(0.015625)"/>
      <path id="DejaVuSans-73" d="M 2834 3397 
L 2834 2853 
Q 2591 2978 2328 3040 
Q 2066 3103 1784 3103 
Q 1356 3103 1142 2972 
Q 928 2841 928 2578 
Q 928 2378 1081 2264 
Q 1234 2150 1697 2047 
L 1894 2003 
Q 2506 1872 2764 1633 
Q 3022 1394 3022 966 
Q 3022 478 2636 193 
Q 2250 -91 1575 -91 
Q 1294 -91 989 -36 
Q 684 19 347 128 
L 347 722 
Q 666 556 975 473 
Q 1284 391 1588 391 
Q 1994 391 2212 530 
Q 2431 669 2431 922 
Q 2431 1156 2273 1281 
Q 2116 1406 1581 1522 
L 1381 1569 
Q 847 1681 609 1914 
Q 372 2147 372 2553 
Q 372 3047 722 3315 
Q 1072 3584 1716 3584 
Q 2034 3584 2315 3537 
Q 2597 3491 2834 3397 
z
" transform="scale(0.015625)"/>
      <path id="DejaVuSans-3a" d="M 750 794 
L 1409 794 
L 1409 0 
L 750 0 
L 750 794 
z
M 750 3309 
L 1409 3309 
L 1409 2516 
L 750 2516 
L 750 3309 
z
" transform="scale(0.015625)"/>
     </defs>
     <use xlink:href="#DejaVuSans-46"/>
     <use xlink:href="#DejaVuSans-61" x="48.394531"/>
     <use xlink:href="#DejaVuSans-73" x="109.673828"/>
     <use xlink:href="#DejaVuSans-74" x="161.773438"/>
     <use xlink:href="#DejaVuSans-51" x="200.982422"/>
     <use xlink:href="#DejaVuSans-43" x="279.693359"/>
     <use xlink:href="#DejaVuSans-3a" x="349.517578"/>
     <use xlink:href="#DejaVuSans-20" x="383.208984"/>
     <use xlink:href="#DejaVuSans-50" x="414.996094"/>
     <use xlink:href="#DejaVuSans-65" x="471.673828"/>
     <use xlink:href="#DejaVuSans-72" x="533.197266"/>
     <use xlink:href="#DejaVuSans-20" x="574.310547"/>
     <use xlink:href="#DejaVuSans-53" x="606.097656"/>
     <use xlink:href="#DejaVuSans-65" x="669.574219"/>
     <use xlink:href="#DejaVuSans-71" x="731.097656"/>
     <use xlink:href="#DejaVuSans-75" x="794.574219"/>
     <use xlink:href="#DejaVuSans-65" x="857.953125"/>
     <use xlink:href="#DejaVuSans-6e" x="919.476562"/>
     <use xlink:href="#DejaVuSans-63" x="982.855469"/>
     <use xlink:href="#DejaVuSans-65" x="1037.835938"/>
     <use xlink:href="#DejaVuSans-20" x="1099.359375"/>
     <use xlink:href="#DejaVuSans-51" x="1131.146484"/>
     <use xlink:href="#DejaVuSans-75" x="1209.857422"/>
     <use xlink:href="#DejaVuSans-61" x="1273.236328"/>
     <use xlink:href="#DejaVuSans-6c" x="1334.515625"/>
     <use xlink:href="#DejaVuSans-69" x="1362.298828"/>
     <use xlink:href="#DejaVuSans-74" x="1390.082031"/>
     <use xlink:href="#DejaVuSans-79" x="1429.291016"/>
     <use xlink:href="#DejaVuSans-20" x="1488.470703"/>
     <use xlink:href="#DejaVuSans-53" x="1520.257812"/>
     <use xlink:href="#DejaVuSans-63" x="1583.734375"/>
     <use xlink:href="#DejaVuSans-6f" x="1638.714844"/>
     <use xlink:href="#DejaVuSans-72" x="1699.896484"/>
     <use xlink:href="#DejaVuSans-65" x="1738.759766"/>
     <use xlink:href="#DejaVuSans-73" x="1800.283203"/>
    </g>
   </g>
  </g>
 </g>
 <defs>
  <clipPath id="pae69b6044b">
   <rect x="40.600625" y="35.2559" width="952.54" height="317.968"/>
  </clipPath>
 </defs>
</svg>
