<?xml version="1.0" encoding="utf-8" standalone="no"?>
<!DOCTYPE svg PUBLIC "-//W3C//DTD SVG 1.1//EN"
  "http://www.w3.org/Graphics/SVG/1.1/DTD/svg11.dtd">
<svg xmlns:xlink="http://www.w3.org/1999/xlink" width="1000.278125pt" height="388.844525pt" viewBox="0 0 1000.278125 388.844525" xmlns="http://www.w3.org/2000/svg" version="1.1">
 <metadata>
  <rdf:RDF xmlns:dc="http://purl.org/dc/elements/1.1/" xmlns:cc="http://creativecommons.org/ns#" xmlns:rdf="http://www.w3.org/1999/02/22-rdf-syntax-ns#">
   <cc:Work>
    <dc:type rdf:resource="http://purl.org/dc/dcmitype/StillImage"/>
    <dc:date>2023-04-18T05:56:21.237935</dc:date>
    <dc:format>image/svg+xml</dc:format>
    <dc:creator>
     <cc:Agent>
      <dc:title>Matplotlib v3.5.3, https://matplotlib.org/</dc:title>
     </cc:Agent>
    </dc:creator>
   </cc:Work>
  </rdf:RDF>
 </metadata>
 <defs>
  <style type="text/css">*{stroke-linejoin: round; stroke-linecap: butt}</style>
 </defs>
 <g id="figure_1">
  <g id="axes_1">
   <g id="patch_1">
    <path d="M 43.148125 353.2239 
L 993.078125 353.2239 
L 993.078125 35.2559 
L 43.148125 35.2559 
z
" style="fill: #ffffff"/>
   </g>
   <g id="matplotlib.axis_1">
    <g id="xtick_1">
     <g id="text_1">
      <!-- 0 -->
      <g transform="translate(77.138894 366.30265)scale(0.08 -0.08)">
       <defs>
        <path id="DejaVuSans-30" d="M 2034 4250 
Q 1547 4250 1301 3770 
Q 1056 3291 1056 2328 
Q 1056 1369 1301 889 
Q 1547 409 2034 409 
Q 2525 409 2770 889 
Q 3016 1369 3016 2328 
Q 3016 3291 2770 3770 
Q 2525 4250 2034 4250 
z
M 2034 4750 
Q 2819 4750 3233 4129 
Q 3647 3509 3647 2328 
Q 3647 1150 3233 529 
Q 2819 -91 2034 -91 
Q 1250 -91 836 529 
Q 422 1150 422 2328 
Q 422 3509 836 4129 
Q 1250 4750 2034 4750 
z
" transform="scale(0.015625)"/>
       </defs>
       <use xlink:href="#DejaVuSans-30"/>
      </g>
     </g>
    </g>
    <g id="xtick_2">
     <g id="text_2">
      <!-- 20 -->
      <g transform="translate(207.451237 366.30265)scale(0.08 -0.08)">
       <defs>
        <path id="DejaVuSans-32" d="M 1228 531 
L 3431 531 
L 3431 0 
L 469 0 
L 469 531 
Q 828 903 1448 1529 
Q 2069 2156 2228 2338 
Q 2531 2678 2651 2914 
Q 2772 3150 2772 3378 
Q 2772 3750 2511 3984 
Q 2250 4219 1831 4219 
Q 1534 4219 1204 4116 
Q 875 4013 500 3803 
L 500 4441 
Q 881 4594 1212 4672 
Q 1544 4750 1819 4750 
Q 2544 4750 2975 4387 
Q 3406 4025 3406 3419 
Q 3406 3131 3298 2873 
Q 3191 2616 2906 2266 
Q 2828 2175 2409 1742 
Q 1991 1309 1228 531 
z
" transform="scale(0.015625)"/>
       </defs>
       <use xlink:href="#DejaVuSans-32"/>
       <use xlink:href="#DejaVuSans-30" x="63.623047"/>
      </g>
     </g>
    </g>
    <g id="xtick_3">
     <g id="text_3">
      <!-- 40 -->
      <g transform="translate(340.30858 366.30265)scale(0.08 -0.08)">
       <defs>
        <path id="DejaVuSans-34" d="M 2419 4116 
L 825 1625 
L 2419 1625 
L 2419 4116 
z
M 2253 4666 
L 3047 4666 
L 3047 1625 
L 3713 1625 
L 3713 1100 
L 3047 1100 
L 3047 0 
L 2419 0 
L 2419 1100 
L 313 1100 
L 313 1709 
L 2253 4666 
z
" transform="scale(0.015625)"/>
       </defs>
       <use xlink:href="#DejaVuSans-34"/>
       <use xlink:href="#DejaVuSans-30" x="63.623047"/>
      </g>
     </g>
    </g>
    <g id="xtick_4">
     <g id="text_4">
      <!-- 60 -->
      <g transform="translate(473.165922 366.30265)scale(0.08 -0.08)">
       <defs>
        <path id="DejaVuSans-36" d="M 2113 2584 
Q 1688 2584 1439 2293 
Q 1191 2003 1191 1497 
Q 1191 994 1439 701 
Q 1688 409 2113 409 
Q 2538 409 2786 701 
Q 3034 994 3034 1497 
Q 3034 2003 2786 2293 
Q 2538 2584 2113 2584 
z
M 3366 4563 
L 3366 3988 
Q 3128 4100 2886 4159 
Q 2644 4219 2406 4219 
Q 1781 4219 1451 3797 
Q 1122 3375 1075 2522 
Q 1259 2794 1537 2939 
Q 1816 3084 2150 3084 
Q 2853 3084 3261 2657 
Q 3669 2231 3669 1497 
Q 3669 778 3244 343 
Q 2819 -91 2113 -91 
Q 1303 -91 875 529 
Q 447 1150 447 2328 
Q 447 3434 972 4092 
Q 1497 4750 2381 4750 
Q 2619 4750 2861 4703 
Q 3103 4656 3366 4563 
z
" transform="scale(0.015625)"/>
       </defs>
       <use xlink:href="#DejaVuSans-36"/>
       <use xlink:href="#DejaVuSans-30" x="63.623047"/>
      </g>
     </g>
    </g>
    <g id="xtick_5">
     <g id="text_5">
      <!-- 80 -->
      <g transform="translate(606.023265 366.30265)scale(0.08 -0.08)">
       <defs>
        <path id="DejaVuSans-38" d="M 2034 2216 
Q 1584 2216 1326 1975 
Q 1069 1734 1069 1313 
Q 1069 891 1326 650 
Q 1584 409 2034 409 
Q 2484 409 2743 651 
Q 3003 894 3003 1313 
Q 3003 1734 2745 1975 
Q 2488 2216 2034 2216 
z
M 1403 2484 
Q 997 2584 770 2862 
Q 544 3141 544 3541 
Q 544 4100 942 4425 
Q 1341 4750 2034 4750 
Q 2731 4750 3128 4425 
Q 3525 4100 3525 3541 
Q 3525 3141 3298 2862 
Q 3072 2584 2669 2484 
Q 3125 2378 3379 2068 
Q 3634 1759 3634 1313 
Q 3634 634 3220 271 
Q 2806 -91 2034 -91 
Q 1263 -91 848 271 
Q 434 634 434 1313 
Q 434 1759 690 2068 
Q 947 2378 1403 2484 
z
M 1172 3481 
Q 1172 3119 1398 2916 
Q 1625 2713 2034 2713 
Q 2441 2713 2670 2916 
Q 2900 3119 2900 3481 
Q 2900 3844 2670 4047 
Q 2441 4250 2034 4250 
Q 1625 4250 1398 4047 
Q 1172 3844 1172 3481 
z
" transform="scale(0.015625)"/>
       </defs>
       <use xlink:href="#DejaVuSans-38"/>
       <use xlink:href="#DejaVuSans-30" x="63.623047"/>
      </g>
     </g>
    </g>
    <g id="xtick_6">
     <g id="text_6">
      <!-- 100 -->
      <g transform="translate(736.335608 366.30265)scale(0.08 -0.08)">
       <defs>
        <path id="DejaVuSans-31" d="M 794 531 
L 1825 531 
L 1825 4091 
L 703 3866 
L 703 4441 
L 1819 4666 
L 2450 4666 
L 2450 531 
L 3481 531 
L 3481 0 
L 794 0 
L 794 531 
z
" transform="scale(0.015625)"/>
       </defs>
       <use xlink:href="#DejaVuSans-31"/>
       <use xlink:href="#DejaVuSans-30" x="63.623047"/>
       <use xlink:href="#DejaVuSans-30" x="127.246094"/>
      </g>
     </g>
    </g>
    <g id="xtick_7">
     <g id="text_7">
      <!-- 120 -->
      <g transform="translate(869.19295 366.30265)scale(0.08 -0.08)">
       <use xlink:href="#DejaVuSans-31"/>
       <use xlink:href="#DejaVuSans-32" x="63.623047"/>
       <use xlink:href="#DejaVuSans-30" x="127.246094"/>
      </g>
     </g>
    </g>
    <g id="text_8">
     <!-- Position (bp) -->
     <g transform="translate(486.81 379.564837)scale(0.1 -0.1)">
      <defs>
       <path id="DejaVuSans-50" d="M 1259 4147 
L 1259 2394 
L 2053 2394 
Q 2494 2394 2734 2622 
Q 2975 2850 2975 3272 
Q 2975 3691 2734 3919 
Q 2494 4147 2053 4147 
L 1259 4147 
z
M 628 4666 
L 2053 4666 
Q 2838 4666 3239 4311 
Q 3641 3956 3641 3272 
Q 3641 2581 3239 2228 
Q 2838 1875 2053 1875 
L 1259 1875 
L 1259 0 
L 628 0 
L 628 4666 
z
" transform="scale(0.015625)"/>
       <path id="DejaVuSans-6f" d="M 1959 3097 
Q 1497 3097 1228 2736 
Q 959 2375 959 1747 
Q 959 1119 1226 758 
Q 1494 397 1959 397 
Q 2419 397 2687 759 
Q 2956 1122 2956 1747 
Q 2956 2369 2687 2733 
Q 2419 3097 1959 3097 
z
M 1959 3584 
Q 2709 3584 3137 3096 
Q 3566 2609 3566 1747 
Q 3566 888 3137 398 
Q 2709 -91 1959 -91 
Q 1206 -91 779 398 
Q 353 888 353 1747 
Q 353 2609 779 3096 
Q 1206 3584 1959 3584 
z
" transform="scale(0.015625)"/>
       <path id="DejaVuSans-73" d="M 2834 3397 
L 2834 2853 
Q 2591 2978 2328 3040 
Q 2066 3103 1784 3103 
Q 1356 3103 1142 2972 
Q 928 2841 928 2578 
Q 928 2378 1081 2264 
Q 1234 2150 1697 2047 
L 1894 2003 
Q 2506 1872 2764 1633 
Q 3022 1394 3022 966 
Q 3022 478 2636 193 
Q 2250 -91 1575 -91 
Q 1294 -91 989 -36 
Q 684 19 347 128 
L 347 722 
Q 666 556 975 473 
Q 1284 391 1588 391 
Q 1994 391 2212 530 
Q 2431 669 2431 922 
Q 2431 1156 2273 1281 
Q 2116 1406 1581 1522 
L 1381 1569 
Q 847 1681 609 1914 
Q 372 2147 372 2553 
Q 372 3047 722 3315 
Q 1072 3584 1716 3584 
Q 2034 3584 2315 3537 
Q 2597 3491 2834 3397 
z
" transform="scale(0.015625)"/>
       <path id="DejaVuSans-69" d="M 603 3500 
L 1178 3500 
L 1178 0 
L 603 0 
L 603 3500 
z
M 603 4863 
L 1178 4863 
L 1178 4134 
L 603 4134 
L 603 4863 
z
" transform="scale(0.015625)"/>
       <path id="DejaVuSans-74" d="M 1172 4494 
L 1172 3500 
L 2356 3500 
L 2356 3053 
L 1172 3053 
L 1172 1153 
Q 1172 725 1289 603 
Q 1406 481 1766 481 
L 2356 481 
L 2356 0 
L 1766 0 
Q 1100 0 847 248 
Q 594 497 594 1153 
L 594 3053 
L 172 3053 
L 172 3500 
L 594 3500 
L 594 4494 
L 1172 4494 
z
" transform="scale(0.015625)"/>
       <path id="DejaVuSans-6e" d="M 3513 2113 
L 3513 0 
L 2938 0 
L 2938 2094 
Q 2938 2591 2744 2837 
Q 2550 3084 2163 3084 
Q 1697 3084 1428 2787 
Q 1159 2491 1159 1978 
L 1159 0 
L 581 0 
L 581 3500 
L 1159 3500 
L 1159 2956 
Q 1366 3272 1645 3428 
Q 1925 3584 2291 3584 
Q 2894 3584 3203 3211 
Q 3513 2838 3513 2113 
z
" transform="scale(0.015625)"/>
       <path id="DejaVuSans-20" transform="scale(0.015625)"/>
       <path id="DejaVuSans-28" d="M 1984 4856 
Q 1566 4138 1362 3434 
Q 1159 2731 1159 2009 
Q 1159 1288 1364 580 
Q 1569 -128 1984 -844 
L 1484 -844 
Q 1016 -109 783 600 
Q 550 1309 550 2009 
Q 550 2706 781 3412 
Q 1013 4119 1484 4856 
L 1984 4856 
z
" transform="scale(0.015625)"/>
       <path id="DejaVuSans-62" d="M 3116 1747 
Q 3116 2381 2855 2742 
Q 2594 3103 2138 3103 
Q 1681 3103 1420 2742 
Q 1159 2381 1159 1747 
Q 1159 1113 1420 752 
Q 1681 391 2138 391 
Q 2594 391 2855 752 
Q 3116 1113 3116 1747 
z
M 1159 2969 
Q 1341 3281 1617 3432 
Q 1894 3584 2278 3584 
Q 2916 3584 3314 3078 
Q 3713 2572 3713 1747 
Q 3713 922 3314 415 
Q 2916 -91 2278 -91 
Q 1894 -91 1617 61 
Q 1341 213 1159 525 
L 1159 0 
L 581 0 
L 581 4863 
L 1159 4863 
L 1159 2969 
z
" transform="scale(0.015625)"/>
       <path id="DejaVuSans-70" d="M 1159 525 
L 1159 -1331 
L 581 -1331 
L 581 3500 
L 1159 3500 
L 1159 2969 
Q 1341 3281 1617 3432 
Q 1894 3584 2278 3584 
Q 2916 3584 3314 3078 
Q 3713 2572 3713 1747 
Q 3713 922 3314 415 
Q 2916 -91 2278 -91 
Q 1894 -91 1617 61 
Q 1341 213 1159 525 
z
M 3116 1747 
Q 3116 2381 2855 2742 
Q 2594 3103 2138 3103 
Q 1681 3103 1420 2742 
Q 1159 2381 1159 1747 
Q 1159 1113 1420 752 
Q 1681 391 2138 391 
Q 2594 391 2855 752 
Q 3116 1113 3116 1747 
z
" transform="scale(0.015625)"/>
       <path id="DejaVuSans-29" d="M 513 4856 
L 1013 4856 
Q 1481 4119 1714 3412 
Q 1947 2706 1947 2009 
Q 1947 1309 1714 600 
Q 1481 -109 1013 -844 
L 513 -844 
Q 928 -128 1133 580 
Q 1338 1288 1338 2009 
Q 1338 2731 1133 3434 
Q 928 4138 513 4856 
z
" transform="scale(0.015625)"/>
      </defs>
      <use xlink:href="#DejaVuSans-50"/>
      <use xlink:href="#DejaVuSans-6f" x="56.677734"/>
      <use xlink:href="#DejaVuSans-73" x="117.859375"/>
      <use xlink:href="#DejaVuSans-69" x="169.958984"/>
      <use xlink:href="#DejaVuSans-74" x="197.742188"/>
      <use xlink:href="#DejaVuSans-69" x="236.951172"/>
      <use xlink:href="#DejaVuSans-6f" x="264.734375"/>
      <use xlink:href="#DejaVuSans-6e" x="325.916016"/>
      <use xlink:href="#DejaVuSans-20" x="389.294922"/>
      <use xlink:href="#DejaVuSans-28" x="421.082031"/>
      <use xlink:href="#DejaVuSans-62" x="460.095703"/>
      <use xlink:href="#DejaVuSans-70" x="523.572266"/>
      <use xlink:href="#DejaVuSans-29" x="587.048828"/>
     </g>
    </g>
   </g>
   <g id="matplotlib.axis_2">
    <g id="ytick_1">
     <g id="line2d_1">
      <path d="M 43.148125 353.2239 
L 993.078125 353.2239 
" clip-path="url(#pec662ce5d2)" style="fill: none; stroke: #dedede; stroke-linecap: square"/>
     </g>
     <g id="text_9">
      <!-- 0 -->
      <g transform="translate(31.058125 356.263275)scale(0.08 -0.08)">
       <use xlink:href="#DejaVuSans-30"/>
      </g>
     </g>
    </g>
    <g id="ytick_2">
     <g id="line2d_2">
      <path d="M 43.148125 289.6303 
L 993.078125 289.6303 
" clip-path="url(#pec662ce5d2)" style="fill: none; stroke: #dedede; stroke-linecap: square"/>
     </g>
     <g id="text_10">
      <!-- 20 -->
      <g transform="translate(25.968125 292.669675)scale(0.08 -0.08)">
       <use xlink:href="#DejaVuSans-32"/>
       <use xlink:href="#DejaVuSans-30" x="63.623047"/>
      </g>
     </g>
    </g>
    <g id="ytick_3">
     <g id="line2d_3">
      <path d="M 43.148125 226.0367 
L 993.078125 226.0367 
" clip-path="url(#pec662ce5d2)" style="fill: none; stroke: #dedede; stroke-linecap: square"/>
     </g>
     <g id="text_11">
      <!-- 40 -->
      <g transform="translate(25.968125 229.076075)scale(0.08 -0.08)">
       <use xlink:href="#DejaVuSans-34"/>
       <use xlink:href="#DejaVuSans-30" x="63.623047"/>
      </g>
     </g>
    </g>
    <g id="ytick_4">
     <g id="line2d_4">
      <path d="M 43.148125 162.4431 
L 993.078125 162.4431 
" clip-path="url(#pec662ce5d2)" style="fill: none; stroke: #dedede; stroke-linecap: square"/>
     </g>
     <g id="text_12">
      <!-- 60 -->
      <g transform="translate(25.968125 165.482475)scale(0.08 -0.08)">
       <use xlink:href="#DejaVuSans-36"/>
       <use xlink:href="#DejaVuSans-30" x="63.623047"/>
      </g>
     </g>
    </g>
    <g id="ytick_5">
     <g id="line2d_5">
      <path d="M 43.148125 98.8495 
L 993.078125 98.8495 
" clip-path="url(#pec662ce5d2)" style="fill: none; stroke: #dedede; stroke-linecap: square"/>
     </g>
     <g id="text_13">
      <!-- 80 -->
      <g transform="translate(25.968125 101.888875)scale(0.08 -0.08)">
       <use xlink:href="#DejaVuSans-38"/>
       <use xlink:href="#DejaVuSans-30" x="63.623047"/>
      </g>
     </g>
    </g>
    <g id="ytick_6">
     <g id="line2d_6">
      <path d="M 43.148125 35.2559 
L 993.078125 35.2559 
" clip-path="url(#pec662ce5d2)" style="fill: none; stroke: #dedede; stroke-linecap: square"/>
     </g>
     <g id="text_14">
      <!-- 100 -->
      <g transform="translate(20.878125 38.295275)scale(0.08 -0.08)">
       <use xlink:href="#DejaVuSans-31"/>
       <use xlink:href="#DejaVuSans-30" x="63.623047"/>
       <use xlink:href="#DejaVuSans-30" x="127.246094"/>
      </g>
     </g>
    </g>
    <g id="text_15">
     <!-- % Methylation -->
     <g transform="translate(14.798437 230.089119)rotate(-90)scale(0.1 -0.1)">
      <defs>
       <path id="DejaVuSans-25" d="M 4653 2053 
Q 4381 2053 4226 1822 
Q 4072 1591 4072 1178 
Q 4072 772 4226 539 
Q 4381 306 4653 306 
Q 4919 306 5073 539 
Q 5228 772 5228 1178 
Q 5228 1588 5073 1820 
Q 4919 2053 4653 2053 
z
M 4653 2450 
Q 5147 2450 5437 2106 
Q 5728 1763 5728 1178 
Q 5728 594 5436 251 
Q 5144 -91 4653 -91 
Q 4153 -91 3862 251 
Q 3572 594 3572 1178 
Q 3572 1766 3864 2108 
Q 4156 2450 4653 2450 
z
M 1428 4353 
Q 1159 4353 1004 4120 
Q 850 3888 850 3481 
Q 850 3069 1003 2837 
Q 1156 2606 1428 2606 
Q 1700 2606 1854 2837 
Q 2009 3069 2009 3481 
Q 2009 3884 1853 4118 
Q 1697 4353 1428 4353 
z
M 4250 4750 
L 4750 4750 
L 1831 -91 
L 1331 -91 
L 4250 4750 
z
M 1428 4750 
Q 1922 4750 2215 4408 
Q 2509 4066 2509 3481 
Q 2509 2891 2217 2550 
Q 1925 2209 1428 2209 
Q 931 2209 642 2551 
Q 353 2894 353 3481 
Q 353 4063 643 4406 
Q 934 4750 1428 4750 
z
" transform="scale(0.015625)"/>
       <path id="DejaVuSans-4d" d="M 628 4666 
L 1569 4666 
L 2759 1491 
L 3956 4666 
L 4897 4666 
L 4897 0 
L 4281 0 
L 4281 4097 
L 3078 897 
L 2444 897 
L 1241 4097 
L 1241 0 
L 628 0 
L 628 4666 
z
" transform="scale(0.015625)"/>
       <path id="DejaVuSans-65" d="M 3597 1894 
L 3597 1613 
L 953 1613 
Q 991 1019 1311 708 
Q 1631 397 2203 397 
Q 2534 397 2845 478 
Q 3156 559 3463 722 
L 3463 178 
Q 3153 47 2828 -22 
Q 2503 -91 2169 -91 
Q 1331 -91 842 396 
Q 353 884 353 1716 
Q 353 2575 817 3079 
Q 1281 3584 2069 3584 
Q 2775 3584 3186 3129 
Q 3597 2675 3597 1894 
z
M 3022 2063 
Q 3016 2534 2758 2815 
Q 2500 3097 2075 3097 
Q 1594 3097 1305 2825 
Q 1016 2553 972 2059 
L 3022 2063 
z
" transform="scale(0.015625)"/>
       <path id="DejaVuSans-68" d="M 3513 2113 
L 3513 0 
L 2938 0 
L 2938 2094 
Q 2938 2591 2744 2837 
Q 2550 3084 2163 3084 
Q 1697 3084 1428 2787 
Q 1159 2491 1159 1978 
L 1159 0 
L 581 0 
L 581 4863 
L 1159 4863 
L 1159 2956 
Q 1366 3272 1645 3428 
Q 1925 3584 2291 3584 
Q 2894 3584 3203 3211 
Q 3513 2838 3513 2113 
z
" transform="scale(0.015625)"/>
       <path id="DejaVuSans-79" d="M 2059 -325 
Q 1816 -950 1584 -1140 
Q 1353 -1331 966 -1331 
L 506 -1331 
L 506 -850 
L 844 -850 
Q 1081 -850 1212 -737 
Q 1344 -625 1503 -206 
L 1606 56 
L 191 3500 
L 800 3500 
L 1894 763 
L 2988 3500 
L 3597 3500 
L 2059 -325 
z
" transform="scale(0.015625)"/>
       <path id="DejaVuSans-6c" d="M 603 4863 
L 1178 4863 
L 1178 0 
L 603 0 
L 603 4863 
z
" transform="scale(0.015625)"/>
       <path id="DejaVuSans-61" d="M 2194 1759 
Q 1497 1759 1228 1600 
Q 959 1441 959 1056 
Q 959 750 1161 570 
Q 1363 391 1709 391 
Q 2188 391 2477 730 
Q 2766 1069 2766 1631 
L 2766 1759 
L 2194 1759 
z
M 3341 1997 
L 3341 0 
L 2766 0 
L 2766 531 
Q 2569 213 2275 61 
Q 1981 -91 1556 -91 
Q 1019 -91 701 211 
Q 384 513 384 1019 
Q 384 1609 779 1909 
Q 1175 2209 1959 2209 
L 2766 2209 
L 2766 2266 
Q 2766 2663 2505 2880 
Q 2244 3097 1772 3097 
Q 1472 3097 1187 3025 
Q 903 2953 641 2809 
L 641 3341 
Q 956 3463 1253 3523 
Q 1550 3584 1831 3584 
Q 2591 3584 2966 3190 
Q 3341 2797 3341 1997 
z
" transform="scale(0.015625)"/>
      </defs>
      <use xlink:href="#DejaVuSans-25"/>
      <use xlink:href="#DejaVuSans-20" x="95.019531"/>
      <use xlink:href="#DejaVuSans-4d" x="126.806641"/>
      <use xlink:href="#DejaVuSans-65" x="213.085938"/>
      <use xlink:href="#DejaVuSans-74" x="274.609375"/>
      <use xlink:href="#DejaVuSans-68" x="313.818359"/>
      <use xlink:href="#DejaVuSans-79" x="377.197266"/>
      <use xlink:href="#DejaVuSans-6c" x="436.376953"/>
      <use xlink:href="#DejaVuSans-61" x="464.160156"/>
      <use xlink:href="#DejaVuSans-74" x="525.439453"/>
      <use xlink:href="#DejaVuSans-69" x="564.648438"/>
      <use xlink:href="#DejaVuSans-6f" x="592.431641"/>
      <use xlink:href="#DejaVuSans-6e" x="653.613281"/>
     </g>
    </g>
   </g>
   <g id="line2d_7">
    <path d="M 86.326761 210.074706 
L 92.969628 209.852129 
L 99.612496 207.626353 
L 106.255363 208.103305 
L 112.89823 205.782138 
L 119.541097 207.212994 
L 126.183964 207.05401 
L 132.826831 204.637454 
L 139.469698 205.114406 
L 146.112566 204.287689 
L 152.755433 203.174801 
L 159.3983 203.77894 
L 166.041167 203.301988 
L 172.684034 203.365582 
L 179.326901 203.047614 
L 185.969768 203.015817 
L 192.612635 201.743945 
L 199.255503 202.061913 
L 205.89837 201.012618 
L 212.541237 200.853634 
L 219.184104 199.645356 
L 225.826971 200.281292 
L 232.469838 200.026918 
L 239.112705 199.327388 
L 245.755573 198.437078 
L 252.39844 200.122308 
L 259.041307 200.313089 
L 265.684174 199.073014 
L 272.327041 199.70895 
L 278.969908 197.991922 
L 285.612775 199.772543 
L 292.255642 199.836137 
L 298.89851 199.200201 
L 305.541377 199.454575 
L 312.184244 198.564265 
L 318.827111 199.613559 
L 325.469978 198.2145 
L 332.112845 198.882233 
L 338.755712 196.942628 
L 345.39858 198.91403 
L 352.041447 196.815441 
L 358.684314 196.974425 
L 365.327181 196.52927 
L 371.970048 195.893334 
L 378.612915 195.638959 
L 385.255782 197.006222 
L 391.898649 196.561066 
L 398.541517 196.879034 
L 405.184384 197.069815 
L 411.827251 196.338489 
L 418.470118 196.688254 
L 425.112985 197.578564 
L 431.755852 196.052318 
L 438.398719 195.098414 
L 445.041587 195.607162 
L 451.684454 195.702553 
L 458.327321 196.052318 
L 464.970188 195.543569 
L 471.613055 195.320991 
L 478.255922 194.303494 
L 484.898789 194.557868 
L 491.541656 195.13021 
L 498.184524 194.589665 
L 504.827391 195.575366 
L 511.470258 193.731151 
L 524.755992 195.73435 
L 531.398859 194.462478 
L 538.041726 194.685055 
L 544.684594 195.13021 
L 551.327461 193.127012 
L 557.970328 192.681857 
L 564.613195 191.473578 
L 571.256062 192.300295 
L 577.898929 192.459279 
L 584.541796 191.282798 
L 591.184663 191.251001 
L 597.827531 192.300295 
L 604.470398 193.476777 
L 611.113265 193.413183 
L 617.756132 192.173108 
L 624.398999 192.713654 
L 631.041866 193.953729 
L 637.684733 191.505375 
L 644.327601 192.618263 
L 650.970468 191.06022 
L 657.613335 191.473578 
L 664.256202 190.678658 
L 670.899069 192.109514 
L 677.541936 189.247802 
L 684.184803 192.173108 
L 690.82767 190.774049 
L 697.470538 190.933033 
L 704.113405 189.820145 
L 710.756272 189.533974 
L 717.399139 190.583268 
L 724.042006 191.028423 
L 730.684873 188.707257 
L 737.32774 189.947332 
L 743.970608 188.961631 
L 750.613475 188.548273 
L 757.256342 189.502177 
L 763.899209 189.629364 
L 770.542076 188.230305 
L 777.184943 187.212807 
L 783.82781 189.152412 
L 790.470677 187.753353 
L 797.113545 186.799449 
L 803.756412 187.435385 
L 810.399279 187.657962 
L 817.042146 187.212807 
L 823.685013 187.657962 
L 830.32788 186.099919 
L 836.970747 186.735855 
L 843.613615 187.117417 
L 850.256482 187.08562 
L 856.899349 187.276401 
L 863.542216 186.545074 
L 870.185083 186.767652 
L 876.82795 185.559374 
L 883.470817 186.545074 
L 890.113684 187.08562 
L 896.756552 186.926636 
L 903.399419 186.258903 
L 910.042286 188.516476 
L 916.685153 185.972732 
L 923.32802 188.103118 
L 929.970887 186.894839 
L 936.613754 188.548273 
L 943.256622 187.594369 
L 949.899489 188.039524 
L 949.899489 188.039524 
" clip-path="url(#pec662ce5d2)" style="fill: none; stroke: #7cb5ec; stroke-linecap: square"/>
   </g>
   <g id="line2d_8">
    <path d="M 86.326761 224.574047 
L 92.969628 223.779127 
L 99.612496 222.316474 
L 106.255363 222.380068 
L 112.89823 220.313276 
L 119.541097 222.284678 
L 126.183964 221.076399 
L 132.826831 220.885618 
L 139.469698 220.027105 
L 146.112566 220.217886 
L 152.755433 218.437265 
L 159.3983 218.691639 
L 166.041167 218.659842 
L 172.684034 218.405468 
L 179.326901 217.38797 
L 185.969768 217.546954 
L 192.612635 216.306879 
L 199.255503 217.642345 
L 205.89837 216.370473 
L 212.541237 216.783831 
L 219.184104 216.179692 
L 225.826971 216.084302 
L 232.469838 215.193991 
L 239.112705 213.826729 
L 245.755573 214.176494 
L 252.39844 215.670943 
L 259.041307 213.826729 
L 265.684174 214.621649 
L 272.327041 214.303681 
L 278.969908 212.841028 
L 285.612775 214.20829 
L 292.255642 215.352975 
L 298.89851 213.286183 
L 305.541377 215.035007 
L 312.184244 213.763135 
L 318.827111 214.748836 
L 325.469978 213.031809 
L 332.112845 213.158996 
L 338.755712 212.52306 
L 345.39858 213.572354 
L 352.041447 212.777434 
L 358.684314 212.52306 
L 365.327181 212.872825 
L 371.970048 211.473766 
L 378.612915 211.537359 
L 385.255782 212.554857 
L 391.898649 212.713841 
L 398.541517 211.378375 
L 405.184384 212.364076 
L 411.827251 213.095402 
L 418.470118 212.554857 
L 425.112985 213.445167 
L 431.755852 212.682044 
L 438.398719 212.61845 
L 445.041587 210.742439 
L 451.684454 212.459466 
L 464.970188 211.219391 
L 471.613055 211.696343 
L 478.255922 211.187594 
L 484.898789 210.011113 
L 491.541656 210.170097 
L 498.184524 210.93322 
L 504.827391 210.710642 
L 511.470258 210.774236 
L 518.113125 209.756738 
L 524.755992 210.806033 
L 531.398859 210.011113 
L 538.041726 210.074706 
L 544.684594 209.34338 
L 551.327461 209.788535 
L 557.970328 207.785337 
L 564.613195 208.612054 
L 571.256062 207.117604 
L 577.898929 207.689946 
L 584.541796 208.039711 
L 591.184663 208.039711 
L 597.827531 209.534161 
L 604.470398 209.120802 
L 611.113265 208.930022 
L 617.756132 208.135102 
L 624.398999 210.551658 
L 631.041866 209.883926 
L 637.684733 209.025412 
L 644.327601 208.54846 
L 650.970468 207.499166 
L 657.613335 207.022214 
L 664.256202 208.135102 
L 670.899069 206.990417 
L 684.184803 208.166898 
L 690.82767 206.640652 
L 697.470538 206.577058 
L 704.113405 206.06831 
L 710.756272 206.386278 
L 717.399139 207.085807 
L 724.042006 208.421273 
L 730.684873 205.845732 
L 737.32774 206.672449 
L 743.970608 206.06831 
L 750.613475 205.941122 
L 757.256342 204.987218 
L 763.899209 205.305186 
L 770.542076 205.36878 
L 777.184943 204.224095 
L 783.82781 205.050812 
L 790.470677 204.255892 
L 797.113545 204.510266 
L 803.756412 205.46417 
L 810.399279 204.57386 
L 817.042146 204.414876 
L 823.685013 204.66925 
L 830.32788 205.050812 
L 836.970747 203.270191 
L 843.613615 205.019015 
L 850.256482 205.782138 
L 856.899349 205.27339 
L 863.542216 203.87433 
L 870.185083 204.096908 
L 876.82795 203.619956 
L 883.470817 204.891828 
L 890.113684 204.414876 
L 896.756552 204.319486 
L 903.399419 204.66925 
L 910.042286 204.065111 
L 916.685153 204.732844 
L 923.32802 203.842534 
L 929.970887 203.524566 
L 936.613754 205.46417 
L 943.256622 205.750342 
L 949.899489 207.562759 
L 949.899489 207.562759 
" clip-path="url(#pec662ce5d2)" style="fill: none; stroke: #434348; stroke-linecap: square"/>
   </g>
   <g id="line2d_9">
    <path d="M 86.326761 232.078092 
L 92.969628 229.184583 
L 99.612496 227.022401 
L 106.255363 228.548647 
L 112.89823 226.450058 
L 119.541097 227.213182 
L 126.183964 227.594743 
L 132.826831 225.718732 
L 139.469698 225.178186 
L 146.112566 228.103492 
L 152.755433 224.35147 
L 159.3983 224.478657 
L 166.041167 223.938111 
L 172.684034 225.591545 
L 179.326901 223.365769 
L 185.969768 225.178186 
L 192.612635 223.779127 
L 199.255503 224.033502 
L 205.89837 223.333972 
L 212.541237 223.365769 
L 219.184104 221.426164 
L 225.826971 223.969908 
L 232.469838 224.383266 
L 239.112705 220.504057 
L 245.755573 220.981009 
L 252.39844 222.252881 
L 259.041307 222.15749 
L 265.684174 221.903116 
L 272.327041 221.330774 
L 278.969908 217.674142 
L 285.612775 222.221084 
L 292.255642 222.634442 
L 298.89851 219.327575 
L 305.541377 221.807726 
L 312.184244 219.868121 
L 318.827111 221.298977 
L 325.469978 219.995308 
L 332.112845 218.88242 
L 338.755712 220.47226 
L 345.39858 221.553351 
L 352.041447 220.122495 
L 358.684314 218.914217 
L 365.327181 220.599447 
L 371.970048 219.836324 
L 378.612915 214.558055 
L 385.255782 221.616945 
L 391.898649 220.631244 
L 398.541517 218.023906 
L 405.184384 221.330774 
L 411.827251 220.408666 
L 418.470118 218.246484 
L 425.112985 222.634442 
L 431.755852 217.801329 
L 438.398719 219.740934 
L 445.041587 219.295778 
L 451.684454 218.023906 
L 458.327321 218.119297 
L 464.970188 218.723436 
L 471.613055 220.981009 
L 478.255922 218.373671 
L 484.898789 217.833126 
L 491.541656 217.896719 
L 498.184524 218.946014 
L 504.827391 217.737735 
L 511.470258 217.070002 
L 518.113125 215.575553 
L 524.755992 218.532655 
L 531.398859 218.0875 
L 538.041726 218.18289 
L 544.684594 217.29258 
L 551.327461 216.974612 
L 557.970328 216.179692 
L 564.613195 215.225788 
L 571.256062 216.561254 
L 577.898929 213.158996 
L 584.541796 214.526258 
L 591.184663 215.448366 
L 597.827531 213.158996 
L 604.470398 216.815628 
L 611.113265 213.890322 
L 617.756132 215.225788 
L 624.398999 217.38797 
L 631.041866 215.70274 
L 637.684733 215.639146 
L 644.327601 215.448366 
L 650.970468 214.653446 
L 657.613335 213.41337 
L 664.256202 214.939617 
L 670.899069 213.604151 
L 677.541936 212.872825 
L 684.184803 215.79813 
L 690.82767 211.982514 
L 697.470538 212.236889 
L 704.113405 213.095402 
L 710.756272 214.081103 
L 717.399139 214.367274 
L 724.042006 214.81243 
L 730.684873 214.939617 
L 737.32774 211.887124 
L 743.970608 214.653446 
L 750.613475 212.777434 
L 757.256342 212.300482 
L 763.899209 209.406974 
L 770.542076 208.325882 
L 777.184943 207.371978 
L 783.82781 211.696343 
L 790.470677 207.976118 
L 797.113545 209.629551 
L 803.756412 211.63275 
L 810.399279 209.820332 
L 817.042146 210.456268 
L 823.685013 210.806033 
L 830.32788 211.791734 
L 836.970747 209.184396 
L 843.613615 212.109702 
L 850.256482 211.950718 
L 856.899349 212.52306 
L 863.542216 209.470567 
L 870.185083 210.996814 
L 876.82795 209.057209 
L 883.470817 212.109702 
L 890.113684 209.565958 
L 896.756552 208.675647 
L 903.399419 209.693145 
L 910.042286 214.526258 
L 916.685153 209.565958 
L 923.32802 211.378375 
L 929.970887 212.364076 
L 936.613754 213.127199 
L 943.256622 208.993615 
L 949.899489 211.696343 
L 949.899489 211.696343 
" clip-path="url(#pec662ce5d2)" style="fill: none; stroke: #90ed7d; stroke-linecap: square"/>
   </g>
   <g id="line2d_10">
    <path d="M 86.326761 244.606031 
L 92.969628 240.695025 
L 99.612496 239.963698 
L 106.255363 241.330961 
L 112.89823 238.596436 
L 119.541097 239.995495 
L 126.183964 240.408854 
L 132.826831 236.497847 
L 139.469698 240.790415 
L 146.112566 238.691826 
L 152.755433 235.989098 
L 159.3983 234.494649 
L 166.041167 237.578938 
L 172.684034 237.292767 
L 179.326901 234.812617 
L 185.969768 238.85081 
L 192.612635 231.569343 
L 199.255503 234.558242 
L 205.89837 236.052692 
L 212.541237 234.908007 
L 219.184104 231.823718 
L 225.826971 237.419954 
L 232.469838 234.144884 
L 239.112705 230.647236 
L 245.755573 233.540745 
L 252.39844 234.590039 
L 259.041307 233.477151 
L 265.684174 234.494649 
L 272.327041 230.90161 
L 278.969908 228.962006 
L 285.612775 233.477151 
L 292.255642 233.254574 
L 298.89851 231.664734 
L 305.541377 235.67113 
L 312.184244 229.91591 
L 318.827111 232.427857 
L 325.469978 228.644038 
L 332.112845 229.788722 
L 338.755712 232.364263 
L 345.39858 231.155985 
L 352.041447 231.473953 
L 358.684314 231.569343 
L 365.327181 232.459654 
L 371.970048 229.21638 
L 378.612915 226.227481 
L 385.255782 231.760124 
L 391.898649 228.866615 
L 398.541517 230.647236 
L 405.184384 230.170284 
L 418.470118 229.884113 
L 425.112985 234.971601 
L 431.755852 232.364263 
L 438.398719 232.49145 
L 445.041587 230.488252 
L 451.684454 233.731526 
L 458.327321 230.138487 
L 464.970188 229.375364 
L 471.613055 231.473953 
L 478.255922 226.004903 
L 484.898789 226.672636 
L 491.541656 229.820519 
L 498.184524 230.233878 
L 504.827391 230.233878 
L 511.470258 227.372166 
L 518.113125 226.481855 
L 524.755992 227.181385 
L 531.398859 223.906314 
L 538.041726 226.704433 
L 544.684594 230.329268 
L 551.327461 228.103492 
L 557.970328 227.62654 
L 564.613195 229.979503 
L 571.256062 226.83162 
L 577.898929 223.270378 
L 584.541796 223.047801 
L 597.827531 229.248177 
L 604.470398 227.022401 
L 611.113265 225.909513 
L 617.756132 223.302175 
L 624.398999 229.629738 
L 631.041866 224.764828 
L 637.684733 222.348271 
L 644.327601 227.880914 
L 650.970468 222.15749 
L 657.613335 220.37687 
L 664.256202 226.100294 
L 670.899069 223.397566 
L 677.541936 225.33717 
L 684.184803 227.562946 
L 690.82767 221.553351 
L 697.470538 218.78703 
L 704.113405 224.733031 
L 710.756272 224.415063 
L 717.399139 227.435759 
L 724.042006 226.418262 
L 730.684873 221.807726 
L 737.32774 222.380068 
L 743.970608 222.570849 
L 750.613475 218.055703 
L 757.256342 219.295778 
L 763.899209 219.327575 
L 770.542076 218.914217 
L 777.184943 220.058902 
L 783.82781 218.500858 
L 790.470677 216.020708 
L 797.113545 220.408666 
L 803.756412 223.397566 
L 810.399279 221.807726 
L 817.042146 217.864922 
L 823.685013 221.775929 
L 830.32788 217.546954 
L 836.970747 218.310078 
L 843.613615 219.77273 
L 850.256482 219.422966 
L 856.899349 217.674142 
L 863.542216 218.278281 
L 870.185083 218.310078 
L 876.82795 213.763135 
L 883.470817 222.316474 
L 890.113684 216.720238 
L 896.756552 220.853822 
L 903.399419 220.981009 
L 910.042286 228.008102 
L 916.685153 220.440463 
L 923.32802 222.920614 
L 929.970887 225.750529 
L 936.613754 223.429362 
L 943.256622 221.298977 
L 949.899489 213.572354 
L 949.899489 213.572354 
" clip-path="url(#pec662ce5d2)" style="fill: none; stroke: #f7a35c; stroke-linecap: square"/>
   </g>
   <g id="line2d_11">
    <path d="M 86.326761 240.854009 
L 92.969628 239.709324 
L 99.612496 235.607537 
L 106.255363 238.278468 
L 112.89823 238.05589 
L 119.541097 238.723623 
L 126.183964 238.914404 
L 132.826831 238.75542 
L 139.469698 237.16558 
L 146.112566 238.532842 
L 152.755433 233.381761 
L 159.3983 234.049494 
L 166.041167 234.176681 
L 172.684034 236.46605 
L 179.326901 232.841215 
L 185.969768 233.477151 
L 192.612635 233.127386 
L 199.255503 232.109889 
L 205.89837 231.791921 
L 212.541237 233.9859 
L 219.184104 229.438958 
L 225.826971 230.138487 
L 232.469838 236.052692 
L 239.112705 229.502551 
L 245.755573 230.615439 
L 252.39844 232.618638 
L 259.041307 230.742626 
L 265.684174 232.555044 
L 272.327041 232.618638 
L 278.969908 227.562946 
L 285.612775 233.349964 
L 292.255642 233.858713 
L 298.89851 232.237076 
L 305.541377 230.202081 
L 312.184244 231.69653 
L 318.827111 231.632937 
L 325.469978 230.551846 
L 332.112845 229.756926 
L 338.755712 229.947706 
L 345.39858 229.057396 
L 352.041447 229.31177 
L 358.684314 229.788722 
L 365.327181 230.933407 
L 371.970048 229.566145 
L 378.612915 224.287876 
L 385.255782 231.124188 
L 391.898649 230.361065 
L 398.541517 229.025599 
L 405.184384 230.742626 
L 411.827251 231.346766 
L 418.470118 229.279974 
L 425.112985 231.791921 
L 431.755852 227.753727 
L 438.398719 226.895214 
L 445.041587 229.661535 
L 451.684454 229.566145 
L 458.327321 229.31177 
L 464.970188 228.294273 
L 471.613055 228.707631 
L 478.255922 227.054198 
L 484.898789 227.817321 
L 491.541656 227.690134 
L 498.184524 227.244978 
L 504.827391 226.0367 
L 511.470258 226.291074 
L 518.113125 223.047801 
L 524.755992 225.845919 
L 531.398859 223.047801 
L 538.041726 223.938111 
L 544.684594 227.435759 
L 551.327461 226.704433 
L 557.970328 227.658337 
L 564.613195 224.065298 
L 571.256062 222.15749 
L 577.898929 224.128892 
L 584.541796 222.984207 
L 591.184663 222.984207 
L 597.827531 226.100294 
L 604.470398 226.291074 
L 611.113265 226.640839 
L 617.756132 221.96671 
L 624.398999 228.580444 
L 631.041866 226.163887 
L 637.684733 221.744132 
L 644.327601 226.513652 
L 650.970468 223.906314 
L 657.613335 221.744132 
L 664.256202 224.923812 
L 670.899069 224.097095 
L 677.541936 222.15749 
L 684.184803 225.814122 
L 690.82767 220.313276 
L 697.470538 217.483361 
L 704.113405 221.044602 
L 710.756272 222.634442 
L 717.399139 224.701234 
L 724.042006 228.071695 
L 730.684873 221.934913 
L 737.32774 223.397566 
L 743.970608 221.426164 
L 750.613475 220.027105 
L 757.256342 219.168591 
L 763.899209 222.984207 
L 770.542076 216.243286 
L 777.184943 219.709137 
L 783.82781 224.415063 
L 790.470677 217.260783 
L 797.113545 218.310078 
L 803.756412 220.885618 
L 810.399279 212.364076 
L 817.042146 216.529457 
L 823.685013 221.26718 
L 830.32788 218.151094 
L 836.970747 217.642345 
L 843.613615 219.709137 
L 850.256482 220.281479 
L 856.899349 221.298977 
L 863.542216 218.437265 
L 870.185083 219.58195 
L 876.82795 214.049306 
L 883.470817 222.252881 
L 890.113684 215.639146 
L 896.756552 220.758431 
L 903.399419 221.012806 
L 910.042286 226.0367 
L 916.685153 216.624847 
L 923.32802 217.642345 
L 929.970887 222.316474 
L 936.613754 218.946014 
L 943.256622 224.796625 
L 949.899489 217.356174 
L 949.899489 217.356174 
" clip-path="url(#pec662ce5d2)" style="fill: none; stroke: #8085e9; stroke-linecap: square"/>
   </g>
   <g id="line2d_12">
    <path d="M 86.326761 222.380068 
L 92.969628 222.85702 
L 99.612496 220.535854 
L 106.255363 221.426164 
L 112.89823 220.154292 
L 119.541097 221.394367 
L 126.183964 220.917415 
L 132.826831 219.931714 
L 139.469698 219.613746 
L 146.112566 219.168591 
L 152.755433 218.564452 
L 159.3983 217.133596 
L 166.041167 218.119297 
L 179.326901 216.942815 
L 185.969768 217.228986 
L 192.612635 216.59305 
L 199.255503 216.40227 
L 205.89837 215.130398 
L 212.541237 216.847425 
L 219.184104 214.081103 
L 232.469838 215.861724 
L 239.112705 212.141498 
L 245.755573 214.621649 
L 252.39844 215.988911 
L 259.041307 215.066804 
L 265.684174 214.780633 
L 272.327041 213.794932 
L 278.969908 212.61845 
L 285.612775 214.20829 
L 292.255642 216.116098 
L 298.89851 212.777434 
L 305.541377 215.035007 
L 312.184244 213.731338 
L 318.827111 212.745638 
L 325.469978 213.635948 
L 332.112845 210.996814 
L 338.755712 212.968215 
L 345.39858 213.445167 
L 352.041447 214.399071 
L 358.684314 213.349777 
L 365.327181 213.190793 
L 371.970048 211.759937 
L 378.612915 209.947519 
L 385.255782 212.650247 
L 391.898649 211.72814 
L 405.184384 212.713841 
L 411.827251 214.430868 
L 418.470118 212.968215 
L 425.112985 214.176494 
L 431.755852 212.52306 
L 438.398719 211.378375 
L 445.041587 211.82353 
L 451.684454 211.887124 
L 458.327321 212.141498 
L 464.970188 210.710642 
L 471.613055 211.664546 
L 478.255922 210.583455 
L 484.898789 210.04291 
L 491.541656 211.155798 
L 498.184524 212.109702 
L 504.827391 212.236889 
L 511.470258 211.092204 
L 518.113125 209.597754 
L 524.755992 211.155798 
L 531.398859 210.710642 
L 538.041726 211.441969 
L 544.684594 212.745638 
L 551.327461 208.898225 
L 557.970328 209.216193 
L 564.613195 208.612054 
L 571.256062 207.117604 
L 577.898929 207.181198 
L 584.541796 208.262289 
L 591.184663 208.103305 
L 597.827531 207.212994 
L 604.470398 209.820332 
L 611.113265 209.184396 
L 617.756132 206.990417 
L 624.398999 210.011113 
L 631.041866 209.820332 
L 637.684733 209.375177 
L 644.327601 209.43877 
L 650.970468 206.86323 
L 657.613335 206.036513 
L 664.256202 207.75354 
L 670.899069 207.75354 
L 677.541936 205.432374 
L 684.184803 208.771038 
L 690.82767 206.06831 
L 697.470538 205.750342 
L 704.113405 206.704246 
L 710.756272 206.100106 
L 717.399139 206.290887 
L 724.042006 208.357679 
L 730.684873 206.322684 
L 737.32774 204.987218 
L 743.970608 207.817134 
L 750.613475 206.1637 
L 757.256342 205.146202 
L 763.899209 205.591358 
L 770.542076 203.301988 
L 777.184943 200.154105 
L 783.82781 204.57386 
L 790.470677 205.718545 
L 797.113545 203.715346 
L 803.756412 204.987218 
L 810.399279 200.567463 
L 817.042146 204.446673 
L 823.685013 204.446673 
L 830.32788 202.920426 
L 836.970747 204.160502 
L 843.613615 206.354481 
L 850.256482 206.513465 
L 856.899349 204.096908 
L 863.542216 203.842534 
L 870.185083 205.972919 
L 876.82795 200.726447 
L 883.470817 205.750342 
L 890.113684 201.680351 
L 896.756552 202.88863 
L 903.399419 202.443474 
L 910.042286 205.177999 
L 916.685153 203.524566 
L 923.32802 207.117604 
L 929.970887 204.192298 
L 936.613754 208.357679 
L 943.256622 204.414876 
L 949.899489 201.934726 
L 949.899489 201.934726 
" clip-path="url(#pec662ce5d2)" style="fill: none; stroke: #f15c80; stroke-linecap: square"/>
   </g>
   <g id="line2d_13">
    <path d="M 86.326761 230.679033 
L 92.969628 229.629738 
L 99.612496 227.181385 
L 106.255363 227.53115 
L 112.89823 226.513652 
L 119.541097 227.022401 
L 126.183964 228.389663 
L 132.826831 224.828422 
L 139.469698 224.860218 
L 146.112566 226.513652 
L 152.755433 225.24178 
L 159.3983 224.383266 
L 166.041167 224.860218 
L 172.684034 225.877716 
L 179.326901 222.316474 
L 185.969768 222.888817 
L 192.612635 221.553351 
L 199.255503 222.729833 
L 212.541237 221.235383 
L 219.184104 219.836324 
L 225.826971 220.504057 
L 232.469838 220.981009 
L 239.112705 219.041404 
L 245.755573 219.836324 
L 252.39844 220.154292 
L 259.041307 219.963511 
L 265.684174 221.203586 
L 272.327041 218.78703 
L 278.969908 216.911018 
L 285.612775 220.217886 
L 292.255642 221.012806 
L 298.89851 217.006409 
L 305.541377 219.899918 
L 312.184244 217.928516 
L 318.827111 220.122495 
L 325.469978 217.928516 
L 332.112845 218.0875 
L 338.755712 217.165393 
L 345.39858 218.946014 
L 352.041447 216.879222 
L 358.684314 217.483361 
L 365.327181 218.564452 
L 371.970048 215.321178 
L 378.612915 214.271884 
L 385.255782 217.896719 
L 391.898649 216.815628 
L 398.541517 216.40227 
L 405.184384 219.67734 
L 411.827251 217.99211 
L 418.470118 219.136794 
L 425.112985 219.073201 
L 431.755852 217.674142 
L 438.398719 215.321178 
L 445.041587 217.546954 
L 451.684454 216.783831 
L 458.327321 215.162194 
L 464.970188 216.783831 
L 471.613055 215.957114 
L 478.255922 215.766334 
L 484.898789 214.081103 
L 491.541656 215.00321 
L 498.184524 216.275082 
L 504.827391 215.670943 
L 511.470258 216.879222 
L 518.113125 213.953916 
L 524.755992 215.225788 
L 531.398859 214.558055 
L 538.041726 213.572354 
L 544.684594 214.939617 
L 551.327461 213.922119 
L 557.970328 212.141498 
L 564.613195 214.526258 
L 571.256062 212.61845 
L 577.898929 212.42767 
L 584.541796 211.72814 
L 591.184663 212.61845 
L 597.827531 211.219391 
L 604.470398 214.399071 
L 611.113265 212.173295 
L 617.756132 209.470567 
L 624.398999 215.035007 
L 631.041866 215.893521 
L 637.684733 210.23369 
L 644.327601 213.381574 
L 650.970468 209.597754 
L 657.613335 209.43877 
L 664.256202 212.109702 
L 670.899069 213.445167 
L 677.541936 212.046108 
L 684.184803 212.968215 
L 690.82767 210.806033 
L 697.470538 210.011113 
L 710.756272 209.311583 
L 717.399139 209.597754 
L 724.042006 210.742439 
L 730.684873 209.852129 
L 737.32774 211.092204 
L 743.970608 210.265487 
L 750.613475 208.930022 
L 757.256342 209.756738 
L 763.899209 207.181198 
L 770.542076 205.082609 
L 777.184943 207.05401 
L 783.82781 211.124001 
L 790.470677 208.294086 
L 797.113545 206.513465 
L 803.756412 209.025412 
L 810.399279 205.177999 
L 817.042146 209.375177 
L 823.685013 208.357679 
L 830.32788 206.418074 
L 836.970747 206.545262 
L 843.613615 208.739241 
L 850.256482 207.817134 
L 856.899349 205.591358 
L 863.542216 207.817134 
L 870.185083 208.230492 
L 876.82795 202.761442 
L 883.470817 207.689946 
L 890.113684 206.322684 
L 896.756552 205.877529 
L 903.399419 211.155798 
L 910.042286 209.057209 
L 916.685153 205.972919 
L 923.32802 206.481668 
L 929.970887 206.640652 
L 936.613754 208.961818 
L 943.256622 206.513465 
L 949.899489 207.626353 
L 949.899489 207.626353 
" clip-path="url(#pec662ce5d2)" style="fill: none; stroke: #e4d354; stroke-linecap: square"/>
   </g>
   <g id="line2d_14">
    <path d="M 86.326761 223.874518 
L 92.969628 221.712335 
L 99.612496 219.295778 
L 106.255363 221.680538 
L 112.89823 219.263982 
L 119.541097 221.203586 
L 126.183964 219.995308 
L 139.469698 217.928516 
L 146.112566 219.58195 
L 152.755433 217.101799 
L 159.3983 217.38797 
L 166.041167 216.815628 
L 172.684034 218.0875 
L 179.326901 215.893521 
L 185.969768 216.656644 
L 192.612635 215.511959 
L 199.255503 216.434066 
L 205.89837 213.953916 
L 212.541237 213.922119 
L 219.184104 212.077905 
L 225.826971 214.240087 
L 232.469838 215.60735 
L 239.112705 212.809231 
L 245.755573 213.031809 
L 252.39844 214.621649 
L 259.041307 212.777434 
L 265.684174 213.731338 
L 272.327041 214.01751 
L 278.969908 212.682044 
L 285.612775 212.300482 
L 292.255642 214.081103 
L 298.89851 212.841028 
L 305.541377 213.476964 
L 312.184244 212.459466 
L 318.827111 211.314782 
L 325.469978 212.904622 
L 332.112845 211.600953 
L 338.755712 212.141498 
L 345.39858 211.569156 
L 352.041447 212.872825 
L 358.684314 211.473766 
L 365.327181 211.219391 
L 371.970048 208.866428 
L 378.612915 208.421273 
L 385.255782 211.378375 
L 391.898649 210.615252 
L 398.541517 210.583455 
L 405.184384 210.23369 
L 411.827251 211.219391 
L 418.470118 211.473766 
L 425.112985 211.060407 
L 431.755852 210.297284 
L 438.398719 210.106503 
L 445.041587 208.898225 
L 451.684454 209.057209 
L 458.327321 209.724942 
L 464.970188 211.02861 
L 471.613055 210.806033 
L 478.255922 208.707444 
L 484.898789 207.340182 
L 491.541656 209.375177 
L 498.184524 208.993615 
L 504.827391 209.43877 
L 511.470258 206.990417 
L 518.113125 207.65815 
L 524.755992 210.074706 
L 531.398859 207.785337 
L 538.041726 209.34338 
L 544.684594 208.993615 
L 551.327461 207.944321 
L 557.970328 208.262289 
L 564.613195 206.195497 
L 571.256062 206.513465 
L 577.898929 206.036513 
L 584.541796 206.004716 
L 591.184663 204.66925 
L 597.827531 206.386278 
L 604.470398 205.019015 
L 611.113265 206.767839 
L 617.756132 204.637454 
L 624.398999 206.704246 
L 631.041866 207.594556 
L 637.684733 206.672449 
L 644.327601 208.580257 
L 650.970468 204.414876 
L 657.613335 204.033314 
L 664.256202 206.481668 
L 677.541936 205.400577 
L 684.184803 206.545262 
L 690.82767 204.510266 
L 697.470538 202.856833 
L 704.113405 204.637454 
L 710.756272 204.923625 
L 717.399139 203.429175 
L 724.042006 206.227294 
L 730.684873 203.365582 
L 737.32774 205.305186 
L 743.970608 204.955422 
L 750.613475 203.906127 
L 757.256342 202.443474 
L 763.899209 202.825036 
L 770.542076 199.89973 
L 777.184943 200.59926 
L 783.82781 199.963324 
L 790.470677 199.80434 
L 797.113545 199.390982 
L 803.756412 203.333785 
L 810.399279 201.330586 
L 817.042146 200.408479 
L 823.685013 201.108009 
L 830.32788 199.89973 
L 836.970747 197.832938 
L 843.613615 202.634255 
L 850.256482 200.726447 
L 856.899349 199.70895 
L 863.542216 199.327388 
L 870.185083 202.952223 
L 876.82795 198.278094 
L 883.470817 201.203399 
L 890.113684 200.821838 
L 896.756552 198.182703 
L 903.399419 201.680351 
L 910.042286 203.143004 
L 916.685153 200.058714 
L 923.32802 202.030116 
L 929.970887 199.836137 
L 936.613754 202.920426 
L 943.256622 200.344886 
L 949.899489 202.061913 
L 949.899489 202.061913 
" clip-path="url(#pec662ce5d2)" style="fill: none; stroke: #2b908f; stroke-linecap: square"/>
   </g>
   <g id="line2d_15">
    <path d="M 86.326761 207.467369 
L 92.969628 206.767839 
L 99.612496 204.414876 
L 106.255363 205.305186 
L 112.89823 204.065111 
L 119.541097 204.732844 
L 126.183964 205.527764 
L 132.826831 202.761442 
L 139.469698 203.524566 
L 146.112566 205.36878 
L 152.755433 202.856833 
L 159.3983 201.108009 
L 166.041167 201.743945 
L 172.684034 203.747143 
L 179.326901 201.871132 
L 185.969768 202.252694 
L 192.612635 201.712148 
L 199.255503 203.270191 
L 205.89837 201.457774 
L 212.541237 199.89973 
L 219.184104 200.344886 
L 225.826971 202.348084 
L 232.469838 200.058714 
L 239.112705 198.150906 
L 245.755573 198.755046 
L 252.39844 200.408479 
L 259.041307 198.818639 
L 265.684174 198.596062 
L 272.327041 199.422778 
L 278.969908 196.879034 
L 285.612775 196.910831 
L 292.255642 201.076212 
L 298.89851 196.974425 
L 305.541377 198.500671 
L 312.184244 198.087313 
L 318.827111 198.405281 
L 325.469978 196.910831 
L 332.112845 195.193804 
L 338.755712 195.638959 
L 345.39858 198.977623 
L 352.041447 196.62466 
L 358.684314 194.93943 
L 365.327181 199.836137 
L 371.970048 195.13021 
L 378.612915 193.890135 
L 385.255782 197.546767 
L 391.898649 195.607162 
L 398.541517 193.890135 
L 405.184384 197.705751 
L 411.827251 196.783644 
L 418.470118 196.115911 
L 425.112985 198.532468 
L 431.755852 195.384585 
L 438.398719 193.572167 
L 451.684454 195.797943 
L 458.327321 194.430681 
L 464.970188 195.73435 
L 471.613055 195.352788 
L 484.898789 193.762948 
L 491.541656 194.303494 
L 498.184524 194.271697 
L 504.827391 195.956927 
L 511.470258 193.54037 
L 518.113125 191.537172 
L 524.755992 194.780446 
L 531.398859 192.904434 
L 538.041726 191.95053 
L 544.684594 193.667558 
L 551.327461 191.06022 
L 557.970328 193.285996 
L 564.613195 191.696156 
L 571.256062 191.505375 
L 591.184663 187.88054 
L 597.827531 191.75975 
L 604.470398 192.904434 
L 611.113265 190.774049 
L 617.756132 190.487878 
L 624.398999 193.190606 
L 631.041866 191.028423 
L 637.684733 191.06022 
L 644.327601 192.332092 
L 650.970468 187.848743 
L 657.613335 187.276401 
L 664.256202 188.389289 
L 670.899069 190.710455 
L 677.541936 186.799449 
L 684.184803 188.739054 
L 690.82767 187.816946 
L 697.470538 185.49578 
L 704.113405 187.308198 
L 710.756272 186.608668 
L 717.399139 187.467182 
L 724.042006 192.809044 
L 730.684873 186.672262 
L 737.32774 185.273202 
L 743.970608 187.467182 
L 750.613475 185.750154 
L 757.256342 186.863042 
L 763.899209 184.859844 
L 770.542076 180.058527 
L 777.184943 181.839148 
L 783.82781 185.654764 
L 790.470677 180.758057 
L 797.113545 181.998132 
L 803.756412 184.60547 
L 810.399279 181.489383 
L 823.685013 185.177812 
L 830.32788 183.365394 
L 836.970747 178.913842 
L 843.613615 183.651566 
L 850.256482 184.382892 
L 856.899349 183.778753 
L 863.542216 182.665865 
L 870.185083 183.874143 
L 876.82795 180.917041 
L 883.470817 182.347897 
L 890.113684 184.064924 
L 896.756552 181.330399 
L 903.399419 184.128518 
L 910.042286 186.036326 
L 916.685153 183.270004 
L 923.32802 184.287502 
L 929.970887 183.842346 
L 936.613754 181.52118 
L 943.256622 181.998132 
L 949.899489 179.009233 
L 949.899489 179.009233 
" clip-path="url(#pec662ce5d2)" style="fill: none; stroke: #f45b5b; stroke-linecap: square"/>
   </g>
   <g id="line2d_16">
    <path d="M 86.326761 222.570849 
L 92.969628 222.252881 
L 99.612496 219.804527 
L 106.255363 221.489758 
L 112.89823 220.058902 
L 119.541097 221.871319 
L 126.183964 220.949212 
L 132.826831 219.550153 
L 139.469698 217.546954 
L 146.112566 219.359372 
L 152.755433 218.723436 
L 159.3983 218.437265 
L 166.041167 217.29258 
L 172.684034 218.659842 
L 179.326901 216.688441 
L 185.969768 216.529457 
L 192.612635 215.543756 
L 199.255503 216.59305 
L 205.89837 216.179692 
L 212.541237 216.211489 
L 219.184104 214.049306 
L 225.826971 215.639146 
L 232.469838 215.480162 
L 239.112705 213.22259 
L 245.755573 213.22259 
L 252.39844 213.794932 
L 259.041307 213.540558 
L 265.684174 213.667745 
L 272.327041 214.303681 
L 278.969908 212.173295 
L 285.612775 213.922119 
L 292.255642 215.416569 
L 298.89851 211.664546 
L 305.541377 213.922119 
L 312.184244 212.682044 
L 318.827111 213.763135 
L 325.469978 212.904622 
L 332.112845 211.092204 
L 338.755712 211.346578 
L 345.39858 212.777434 
L 352.041447 212.046108 
L 358.684314 211.759937 
L 365.327181 211.187594 
L 371.970048 210.774236 
L 378.612915 209.661348 
L 385.255782 211.378375 
L 391.898649 211.696343 
L 398.541517 210.710642 
L 405.184384 212.236889 
L 411.827251 212.586654 
L 418.470118 212.109702 
L 425.112985 213.604151 
L 431.755852 211.72814 
L 438.398719 210.93322 
L 445.041587 211.060407 
L 451.684454 211.537359 
L 458.327321 210.04291 
L 464.970188 209.089006 
L 471.613055 211.600953 
L 478.255922 209.947519 
L 484.898789 208.64385 
L 491.541656 209.756738 
L 498.184524 210.1383 
L 504.827391 212.141498 
L 511.470258 210.106503 
L 518.113125 208.707444 
L 524.755992 210.678846 
L 531.398859 208.866428 
L 538.041726 209.375177 
L 544.684594 208.739241 
L 551.327461 209.216193 
L 557.970328 207.912524 
L 564.613195 208.421273 
L 571.256062 206.227294 
L 577.898929 206.704246 
L 584.541796 207.626353 
L 591.184663 206.926823 
L 597.827531 207.244791 
L 604.470398 206.545262 
L 611.113265 207.626353 
L 617.756132 205.813935 
L 624.398999 208.675647 
L 631.041866 207.276588 
L 637.684733 205.432374 
L 644.327601 208.739241 
L 650.970468 206.577058 
L 657.613335 204.891828 
L 664.256202 206.95862 
L 670.899069 205.559561 
L 677.541936 204.987218 
L 684.184803 208.071508 
L 690.82767 205.46417 
L 697.470538 204.955422 
L 710.756272 206.513465 
L 717.399139 205.146202 
L 724.042006 207.308385 
L 730.684873 205.559561 
L 737.32774 203.301988 
L 743.970608 204.66925 
L 750.613475 205.114406 
L 757.256342 204.255892 
L 763.899209 202.697849 
L 770.542076 202.538865 
L 777.184943 201.966522 
L 790.470677 202.825036 
L 797.113545 200.376682 
L 803.756412 205.432374 
L 810.399279 200.440276 
L 817.042146 201.616758 
L 823.685013 203.842534 
L 830.32788 202.220897 
L 836.970747 202.761442 
L 843.613615 202.793239 
L 850.256482 204.065111 
L 856.899349 203.365582 
L 863.542216 200.631057 
L 870.185083 202.729646 
L 876.82795 199.772543 
L 883.470817 203.143004 
L 890.113684 201.425977 
L 896.756552 200.662854 
L 903.399419 202.666052 
L 910.042286 203.047614 
L 916.685153 201.330586 
L 923.32802 202.125506 
L 929.970887 202.379881 
L 936.613754 202.88863 
L 943.256622 200.440276 
L 949.899489 203.969721 
L 949.899489 203.969721 
" clip-path="url(#pec662ce5d2)" style="fill: none; stroke: #91e8e1; stroke-linecap: square"/>
   </g>
   <g id="line2d_17">
    <path d="M 86.326761 238.977998 
L 92.969628 235.734724 
L 99.612496 233.445354 
L 106.255363 234.87621 
L 112.89823 235.321366 
L 119.541097 234.749023 
L 126.183964 235.925505 
L 132.826831 233.954103 
L 139.469698 232.873012 
L 146.112566 233.445354 
L 152.755433 230.583642 
L 159.3983 230.297471 
L 166.041167 230.615439 
L 172.684034 229.566145 
L 185.969768 230.869814 
L 192.612635 229.089193 
L 199.255503 229.184583 
L 205.89837 229.597942 
L 212.541237 228.485054 
L 219.184104 226.83162 
L 225.826971 229.152786 
L 232.469838 229.470754 
L 239.112705 227.690134 
L 245.755573 225.432561 
L 252.39844 228.612241 
L 259.041307 226.322871 
L 265.684174 227.435759 
L 272.327041 227.62654 
L 278.969908 223.016004 
L 285.612775 226.863417 
L 292.255642 226.259278 
L 298.89851 224.828422 
L 305.541377 226.418262 
L 312.184244 226.227481 
L 318.827111 225.178186 
L 325.469978 224.54225 
L 332.112845 224.605844 
L 338.755712 224.478657 
L 345.39858 225.686935 
L 352.041447 225.591545 
L 358.684314 224.033502 
L 365.327181 224.415063 
L 371.970048 223.588346 
L 378.612915 220.56765 
L 385.255782 225.273577 
L 391.898649 222.666239 
L 398.541517 223.492956 
L 405.184384 226.513652 
L 411.827251 224.637641 
L 418.470118 225.782326 
L 425.112985 225.559748 
L 431.755852 224.383266 
L 438.398719 221.807726 
L 445.041587 222.380068 
L 451.684454 222.0621 
L 464.970188 222.602646 
L 471.613055 223.842721 
L 478.255922 221.17179 
L 484.898789 221.139993 
L 491.541656 222.316474 
L 498.184524 222.252881 
L 511.470258 223.429362 
L 518.113125 220.122495 
L 524.755992 222.984207 
L 531.398859 221.17179 
L 538.041726 221.108196 
L 544.684594 220.37687 
L 557.970328 219.963511 
L 564.613195 221.298977 
L 571.256062 218.310078 
L 577.898929 216.752034 
L 584.541796 216.847425 
L 591.184663 217.546954 
L 597.827531 218.850623 
L 604.470398 221.044602 
L 611.113265 219.232185 
L 617.756132 216.656644 
L 624.398999 219.422966 
L 631.041866 219.136794 
L 637.684733 216.052505 
L 644.327601 219.073201 
L 650.970468 216.847425 
L 657.613335 213.731338 
L 664.256202 217.833126 
L 670.899069 216.370473 
L 677.541936 214.780633 
L 684.184803 217.419767 
L 690.82767 217.642345 
L 697.470538 216.529457 
L 704.113405 217.483361 
L 710.756272 217.896719 
L 717.399139 216.815628 
L 724.042006 217.960313 
L 730.684873 212.141498 
L 737.32774 214.20829 
L 743.970608 213.540558 
L 750.613475 216.020708 
L 757.256342 213.445167 
L 763.899209 212.491263 
L 770.542076 208.771038 
L 777.184943 209.216193 
L 783.82781 213.826729 
L 790.470677 210.996814 
L 803.756412 212.713841 
L 810.399279 209.406974 
L 817.042146 210.965017 
L 823.685013 212.395873 
L 830.32788 210.710642 
L 836.970747 210.647049 
L 843.613615 213.063606 
L 850.256482 210.04291 
L 856.899349 210.329081 
L 863.542216 209.947519 
L 870.185083 213.763135 
L 876.82795 209.216193 
L 883.470817 212.332279 
L 890.113684 208.166898 
L 896.756552 211.918921 
L 903.399419 210.265487 
L 916.685153 209.724942 
L 929.970887 211.282985 
L 936.613754 212.52306 
L 943.256622 207.75354 
L 949.899489 210.265487 
L 949.899489 210.265487 
" clip-path="url(#pec662ce5d2)" style="fill: none; stroke: #7cb5ec; stroke-linecap: square"/>
   </g>
   <g id="line2d_18">
    <path d="M 86.326761 227.785524 
L 92.969628 227.054198 
L 99.612496 224.796625 
L 106.255363 225.019202 
L 112.89823 223.810924 
L 119.541097 224.892015 
L 126.183964 225.082796 
L 132.826831 223.810924 
L 139.469698 223.143191 
L 146.112566 223.397566 
L 152.755433 221.839522 
L 159.3983 222.825223 
L 166.041167 222.15749 
L 172.684034 223.365769 
L 179.326901 222.252881 
L 185.969768 222.284678 
L 192.612635 220.345073 
L 199.255503 221.96671 
L 205.89837 221.26718 
L 212.541237 220.345073 
L 219.184104 219.58195 
L 232.469838 220.154292 
L 245.755573 218.214687 
L 252.39844 220.027105 
L 259.041307 218.564452 
L 265.684174 219.200388 
L 272.327041 219.136794 
L 278.969908 217.101799 
L 292.255642 220.122495 
L 298.89851 218.469062 
L 305.541377 219.613746 
L 312.184244 219.168591 
L 318.827111 218.437265 
L 325.469978 218.278281 
L 332.112845 217.451564 
L 338.755712 217.769532 
L 345.39858 218.659842 
L 352.041447 217.896719 
L 358.684314 217.260783 
L 365.327181 217.960313 
L 371.970048 217.006409 
L 378.612915 215.384772 
L 385.255782 218.659842 
L 391.898649 217.515158 
L 398.541517 216.561254 
L 405.184384 218.055703 
L 411.827251 218.214687 
L 418.470118 216.783831 
L 425.112985 218.88242 
L 431.755852 217.451564 
L 438.398719 216.688441 
L 445.041587 216.59305 
L 451.684454 216.815628 
L 464.970188 216.179692 
L 471.613055 216.561254 
L 478.255922 216.465863 
L 484.898789 214.971414 
L 491.541656 215.957114 
L 498.184524 215.225788 
L 504.827391 216.084302 
L 511.470258 214.90782 
L 518.113125 213.953916 
L 524.755992 215.734537 
L 531.398859 215.448366 
L 538.041726 214.367274 
L 544.684594 215.639146 
L 551.327461 214.335478 
L 557.970328 214.240087 
L 564.613195 212.554857 
L 571.256062 211.282985 
L 577.898929 212.046108 
L 591.184663 212.841028 
L 597.827531 212.650247 
L 604.470398 214.494462 
L 611.113265 213.604151 
L 617.756132 213.000012 
L 624.398999 214.240087 
L 631.041866 214.399071 
L 637.684733 213.158996 
L 644.327601 213.858526 
L 650.970468 212.109702 
L 657.613335 211.187594 
L 664.256202 212.968215 
L 670.899069 211.982514 
L 677.541936 211.537359 
L 684.184803 213.540558 
L 690.82767 210.647049 
L 697.470538 210.551658 
L 704.113405 211.187594 
L 710.756272 210.901423 
L 717.399139 210.392674 
L 724.042006 211.63275 
L 730.684873 210.011113 
L 737.32774 209.852129 
L 743.970608 210.424471 
L 750.613475 210.551658 
L 757.256342 209.724942 
L 763.899209 210.074706 
L 770.542076 207.912524 
L 777.184943 207.84893 
L 783.82781 210.074706 
L 790.470677 208.580257 
L 797.113545 207.84893 
L 803.756412 209.693145 
L 810.399279 207.721743 
L 817.042146 207.371978 
L 823.685013 208.898225 
L 830.32788 208.834631 
L 836.970747 207.340182 
L 843.613615 208.993615 
L 850.256482 207.817134 
L 856.899349 208.198695 
L 863.542216 207.689946 
L 870.185083 209.406974 
L 876.82795 206.290887 
L 883.470817 208.834631 
L 890.113684 207.308385 
L 896.756552 206.322684 
L 903.399419 208.516663 
L 910.042286 209.852129 
L 916.685153 207.499166 
L 923.32802 209.34338 
L 929.970887 207.181198 
L 936.613754 207.976118 
L 943.256622 207.022214 
L 949.899489 208.771038 
L 949.899489 208.771038 
" clip-path="url(#pec662ce5d2)" style="fill: none; stroke: #434348; stroke-linecap: square"/>
   </g>
   <g id="line2d_19">
    <path d="M 86.326761 192.999825 
L 92.969628 192.268498 
L 99.612496 190.233503 
L 106.255363 190.996626 
L 112.89823 190.074519 
L 119.541097 189.692958 
L 126.183964 190.233503 
L 132.826831 188.325695 
L 139.469698 187.022026 
L 146.112566 187.626166 
L 159.3983 187.18101 
L 166.041167 186.2907 
L 172.684034 187.212807 
L 179.326901 186.831246 
L 185.969768 186.735855 
L 192.612635 185.940935 
L 199.255503 185.718358 
L 205.89837 184.923438 
L 212.541237 184.859844 
L 219.184104 183.365394 
L 225.826971 184.223908 
L 232.469838 183.874143 
L 245.755573 181.648367 
L 252.39844 183.365394 
L 259.041307 184.478282 
L 265.684174 183.683362 
L 272.327041 184.510079 
L 278.969908 181.775554 
L 285.612775 183.270004 
L 292.255642 184.064924 
L 298.89851 182.761255 
L 305.541377 183.556175 
L 312.184244 183.20641 
L 318.827111 183.587972 
L 325.469978 184.382892 
L 332.112845 182.856646 
L 338.755712 183.301801 
L 345.39858 182.22071 
L 352.041447 182.22071 
L 358.684314 180.217511 
L 365.327181 181.870945 
L 371.970048 180.63087 
L 378.612915 181.203212 
L 385.255782 180.440089 
L 391.898649 181.298602 
L 398.541517 180.090324 
L 405.184384 182.506881 
L 411.827251 182.952036 
L 418.470118 182.443287 
L 425.112985 184.478282 
L 431.755852 182.061726 
L 438.398719 180.535479 
L 445.041587 181.235009 
L 451.684454 180.72626 
L 464.970188 180.980634 
L 471.613055 182.443287 
L 478.255922 181.807351 
L 484.898789 180.058527 
L 491.541656 179.994934 
L 498.184524 181.711961 
L 504.827391 180.853447 
L 511.470258 180.281105 
L 518.113125 180.471886 
L 524.755992 181.775554 
L 531.398859 180.503682 
L 538.041726 181.552977 
L 544.684594 180.503682 
L 557.970328 179.517982 
L 564.613195 178.309703 
L 571.256062 179.13642 
L 577.898929 178.055329 
L 591.184663 178.913842 
L 597.827531 178.786655 
L 604.470398 179.04103 
L 611.113265 180.058527 
L 617.756132 178.882046 
L 624.398999 179.168217 
L 631.041866 179.645169 
L 637.684733 179.104623 
L 644.327601 179.549778 
L 650.970468 177.769158 
L 657.613335 177.54658 
L 664.256202 179.263607 
L 670.899069 179.740559 
L 677.541936 177.769158 
L 684.184803 179.13642 
L 690.82767 177.64197 
L 697.470538 177.705564 
L 704.113405 176.560879 
L 710.756272 177.705564 
L 717.399139 175.988537 
L 724.042006 178.3415 
L 730.684873 178.277906 
L 737.32774 177.069628 
L 743.970608 178.182516 
L 750.613475 177.069628 
L 757.256342 178.087126 
L 763.899209 177.832751 
L 770.542076 175.86135 
L 777.184943 175.702366 
L 783.82781 177.037831 
L 790.470677 175.797756 
L 797.113545 175.384398 
L 803.756412 176.560879 
L 810.399279 175.638772 
L 817.042146 177.165018 
L 823.685013 175.86135 
L 830.32788 175.638772 
L 836.970747 174.303306 
L 843.613615 175.225414 
L 850.256482 177.355799 
L 856.899349 175.86135 
L 863.542216 174.653071 
L 870.185083 176.783457 
L 876.82795 173.508386 
L 883.470817 176.306505 
L 890.113684 177.45119 
L 896.756552 175.829553 
L 903.399419 177.705564 
L 910.042286 177.037831 
L 916.685153 176.878847 
L 923.32802 177.610174 
L 929.970887 177.419393 
L 936.613754 174.398697 
L 943.256622 174.843852 
L 949.899489 175.86135 
L 949.899489 175.86135 
" clip-path="url(#pec662ce5d2)" style="fill: none; stroke: #90ed7d; stroke-linecap: square"/>
   </g>
   <g id="line2d_20">
    <path d="M 86.326761 199.454575 
L 92.969628 198.596062 
L 99.612496 196.72005 
L 106.255363 196.274895 
L 112.89823 196.179505 
L 119.541097 195.797943 
L 126.183964 196.656457 
L 132.826831 194.844039 
L 139.469698 194.589665 
L 146.112566 195.225601 
L 152.755433 193.731151 
L 166.041167 192.809044 
L 172.684034 193.762948 
L 179.326901 193.222402 
L 185.969768 192.459279 
L 192.612635 192.936231 
L 199.255503 192.045921 
L 205.89837 191.441782 
L 212.541237 191.028423 
L 219.184104 189.947332 
L 225.826971 191.092017 
L 232.469838 190.106316 
L 239.112705 188.866241 
L 245.755573 189.661161 
L 252.39844 191.15561 
L 259.041307 190.456081 
L 265.684174 190.96483 
L 272.327041 191.123814 
L 278.969908 188.039524 
L 285.612775 189.661161 
L 292.255642 190.933033 
L 298.89851 190.297097 
L 305.541377 190.297097 
L 312.184244 189.820145 
L 325.469978 189.724754 
L 332.112845 189.883738 
L 338.755712 189.025225 
L 345.39858 189.502177 
L 352.041447 189.120615 
L 358.684314 187.435385 
L 365.327181 188.198508 
L 371.970048 187.18101 
L 378.612915 186.608668 
L 385.255782 188.421086 
L 391.898649 188.421086 
L 398.541517 187.88054 
L 405.184384 189.724754 
L 411.827251 189.247802 
L 418.470118 188.389289 
L 425.112985 189.820145 
L 431.755852 188.325695 
L 438.398719 188.389289 
L 445.041587 188.166711 
L 451.684454 187.18101 
L 458.327321 188.516476 
L 464.970188 187.339994 
L 471.613055 187.467182 
L 478.255922 186.608668 
L 484.898789 186.99023 
L 498.184524 186.131716 
L 504.827391 187.562572 
L 511.470258 186.799449 
L 518.113125 187.08562 
L 524.755992 186.672262 
L 531.398859 187.944134 
L 538.041726 186.99023 
L 544.684594 187.530775 
L 551.327461 185.654764 
L 557.970328 185.273202 
L 564.613195 185.336796 
L 571.256062 184.732657 
L 577.898929 184.446486 
L 584.541796 184.70086 
L 591.184663 183.746956 
L 597.827531 185.940935 
L 604.470398 186.704058 
L 611.113265 185.781951 
L 617.756132 184.70086 
L 624.398999 185.750154 
L 631.041866 186.19531 
L 637.684733 185.082422 
L 644.327601 186.322497 
L 650.970468 184.60547 
L 657.613335 184.764454 
L 664.256202 184.637266 
L 670.899069 185.304999 
L 677.541936 184.510079 
L 684.184803 185.146015 
L 690.82767 183.619769 
L 697.470538 182.3161 
L 704.113405 184.00133 
L 710.756272 183.397191 
L 717.399139 182.379694 
L 724.042006 183.715159 
L 730.684873 182.602271 
L 737.32774 183.047426 
L 743.970608 184.478282 
L 757.256342 182.538678 
L 763.899209 183.20641 
L 777.184943 182.061726 
L 783.82781 183.397191 
L 790.470677 183.174614 
L 797.113545 182.729458 
L 803.756412 183.587972 
L 810.399279 182.093522 
L 817.042146 181.648367 
L 823.685013 182.634068 
L 830.32788 181.807351 
L 836.970747 181.711961 
L 843.613615 182.475084 
L 850.256482 181.966335 
L 856.899349 182.188913 
L 863.542216 181.044228 
L 870.185083 182.634068 
L 876.82795 181.52118 
L 883.470817 182.379694 
L 903.399419 182.029929 
L 910.042286 184.128518 
L 916.685153 183.174614 
L 923.32802 182.761255 
L 929.970887 181.330399 
L 936.613754 182.379694 
L 943.256622 181.266806 
L 949.899489 183.651566 
L 949.899489 183.651566 
" clip-path="url(#pec662ce5d2)" style="fill: none; stroke: #f7a35c; stroke-linecap: square"/>
   </g>
   <g id="line2d_21">
    <path d="M 86.326761 236.720425 
L 92.969628 235.607537 
L 99.612496 233.858713 
L 106.255363 233.445354 
L 112.89823 233.19098 
L 119.541097 233.826916 
L 126.183964 233.477151 
L 132.826831 232.014498 
L 139.469698 231.473953 
L 146.112566 232.109889 
L 152.755433 230.679033 
L 159.3983 230.90161 
L 166.041167 229.566145 
L 172.684034 230.90161 
L 179.326901 229.057396 
L 185.969768 229.407161 
L 192.612635 228.32607 
L 199.255503 229.438958 
L 205.89837 228.644038 
L 212.541237 228.198882 
L 219.184104 226.672636 
L 225.826971 227.562946 
L 232.469838 227.880914 
L 239.112705 225.877716 
L 245.755573 226.322871 
L 252.39844 227.403962 
L 259.041307 226.704433 
L 265.684174 227.117791 
L 272.327041 227.276775 
L 278.969908 224.987406 
L 285.612775 226.672636 
L 292.255642 227.690134 
L 298.89851 226.545449 
L 305.541377 226.958807 
L 312.184244 226.100294 
L 318.827111 226.958807 
L 325.469978 225.623342 
L 332.112845 226.068497 
L 338.755712 225.305374 
L 345.39858 225.623342 
L 358.684314 225.24178 
L 365.327181 226.163887 
L 371.970048 224.287876 
L 378.612915 223.715534 
L 385.255782 225.33717 
L 391.898649 225.082796 
L 398.541517 224.574047 
L 405.184384 226.291074 
L 411.827251 225.94131 
L 418.470118 226.259278 
L 425.112985 226.73623 
L 431.755852 225.845919 
L 438.398719 223.588346 
L 445.041587 225.496154 
L 451.684454 225.050999 
L 458.327321 224.065298 
L 464.970188 224.192486 
L 471.613055 224.510454 
L 478.255922 223.524753 
L 484.898789 223.874518 
L 498.184524 224.128892 
L 504.827391 223.620143 
L 511.470258 223.365769 
L 518.113125 223.524753 
L 524.755992 222.984207 
L 531.398859 224.287876 
L 544.684594 223.74733 
L 551.327461 223.588346 
L 557.970328 221.998506 
L 564.613195 221.298977 
L 571.256062 221.139993 
L 577.898929 221.648742 
L 584.541796 221.553351 
L 591.184663 220.790228 
L 597.827531 221.903116 
L 604.470398 223.270378 
L 611.113265 222.221084 
L 617.756132 221.616945 
L 624.398999 222.316474 
L 631.041866 223.842721 
L 637.684733 222.729833 
L 644.327601 221.330774 
L 650.970468 220.726634 
L 657.613335 220.37687 
L 664.256202 220.853822 
L 670.899069 221.076399 
L 677.541936 219.454762 
L 684.184803 221.775929 
L 690.82767 220.345073 
L 697.470538 219.804527 
L 704.113405 218.818826 
L 710.756272 220.37687 
L 717.399139 220.090698 
L 724.042006 220.217886 
L 730.684873 219.740934 
L 737.32774 220.663041 
L 743.970608 220.726634 
L 750.613475 218.914217 
L 757.256342 219.486559 
L 763.899209 218.437265 
L 770.542076 218.055703 
L 777.184943 215.893521 
L 783.82781 219.899918 
L 790.470677 216.847425 
L 797.113545 218.373671 
L 810.399279 218.659842 
L 817.042146 218.341874 
L 823.685013 219.073201 
L 830.32788 218.214687 
L 836.970747 216.656644 
L 843.613615 219.041404 
L 850.256482 218.97781 
L 856.899349 219.263982 
L 863.542216 217.960313 
L 870.185083 218.405468 
L 876.82795 217.165393 
L 883.470817 219.836324 
L 890.113684 217.483361 
L 896.756552 216.847425 
L 903.399419 218.500858 
L 910.042286 218.97781 
L 923.32802 218.151094 
L 929.970887 217.610548 
L 936.613754 217.896719 
L 943.256622 216.752034 
L 949.899489 220.504057 
L 949.899489 220.504057 
" clip-path="url(#pec662ce5d2)" style="fill: none; stroke: #8085e9; stroke-linecap: square"/>
   </g>
   <g id="line2d_22">
    <path d="M 86.326761 196.561066 
L 92.969628 196.402082 
L 99.612496 194.685055 
L 106.255363 193.731151 
L 112.89823 193.572167 
L 119.541097 193.603964 
L 126.183964 193.44498 
L 132.826831 193.095215 
L 139.469698 192.014124 
L 146.112566 192.014124 
L 152.755433 190.774049 
L 159.3983 190.837642 
L 172.684034 190.16991 
L 179.326901 189.851942 
L 185.969768 190.010926 
L 192.612635 189.438583 
L 199.255503 189.47038 
L 212.541237 188.516476 
L 219.184104 187.371791 
L 232.469838 187.753353 
L 239.112705 186.2907 
L 245.755573 185.718358 
L 252.39844 187.308198 
L 259.041307 187.530775 
L 265.684174 188.293898 
L 272.327041 188.103118 
L 278.969908 186.163513 
L 285.612775 186.354294 
L 292.255642 188.103118 
L 298.89851 186.958433 
L 305.541377 187.08562 
L 312.184244 186.735855 
L 318.827111 187.403588 
L 325.469978 187.053823 
L 332.112845 187.117417 
L 338.755712 186.481481 
L 345.39858 186.672262 
L 352.041447 185.877342 
L 358.684314 184.382892 
L 365.327181 185.209609 
L 371.970048 184.414689 
L 378.612915 184.859844 
L 385.255782 184.637266 
L 398.541517 185.368593 
L 405.184384 186.099919 
L 411.827251 185.622967 
L 418.470118 186.004529 
L 425.112985 186.513278 
L 431.755852 184.891641 
L 438.398719 185.527577 
L 445.041587 184.987031 
L 451.684454 184.192111 
L 458.327321 185.146015 
L 464.970188 184.891641 
L 478.255922 184.79625 
L 484.898789 183.333598 
L 504.827391 184.382892 
L 511.470258 183.270004 
L 518.113125 184.096721 
L 524.755992 184.160314 
L 531.398859 183.524378 
L 538.041726 183.81055 
L 544.684594 184.732657 
L 551.327461 182.793052 
L 557.970328 183.01563 
L 564.613195 182.125319 
L 577.898929 181.076025 
L 584.541796 182.157116 
L 591.184663 181.012431 
L 611.113265 182.284303 
L 617.756132 182.125319 
L 624.398999 182.888442 
L 637.684733 182.729458 
L 650.970468 181.298602 
L 657.613335 179.93134 
L 664.256202 181.552977 
L 670.899069 181.52118 
L 677.541936 180.058527 
L 684.184803 181.711961 
L 690.82767 179.83595 
L 697.470538 179.994934 
L 704.113405 179.23181 
L 710.756272 180.567276 
L 724.042006 180.281105 
L 730.684873 179.200014 
L 737.32774 179.23181 
L 743.970608 181.203212 
L 750.613475 181.076025 
L 757.256342 180.090324 
L 763.899209 179.358998 
L 770.542076 178.277906 
L 777.184943 178.087126 
L 783.82781 180.153918 
L 790.470677 178.468687 
L 797.113545 178.087126 
L 803.756412 179.867746 
L 810.399279 178.691265 
L 817.042146 178.723062 
L 823.685013 179.772356 
L 830.32788 178.754858 
L 836.970747 177.610174 
L 843.613615 178.564078 
L 850.256482 178.977436 
L 856.899349 179.613372 
L 863.542216 177.896345 
L 870.185083 179.13642 
L 876.82795 177.896345 
L 883.470817 178.945639 
L 890.113684 177.832751 
L 896.756552 178.564078 
L 903.399419 178.43689 
L 910.042286 178.595874 
L 916.685153 178.150719 
L 923.32802 179.200014 
L 929.970887 178.023532 
L 936.613754 178.818452 
L 943.256622 176.497286 
L 949.899489 179.263607 
L 949.899489 179.263607 
" clip-path="url(#pec662ce5d2)" style="fill: none; stroke: #f15c80; stroke-linecap: square"/>
   </g>
   <g id="line2d_23">
    <path d="M 43.148125 353.2239 
L 993.078125 353.2239 
" clip-path="url(#pec662ce5d2)" style="fill: none; stroke: #dedede; stroke-width: 2; stroke-linecap: square"/>
   </g>
   <g id="text_16">
    <!-- Bismark: M-Bias -->
    <g transform="translate(454.100625 19.3575)scale(0.16 -0.16)">
     <defs>
      <path id="DejaVuSans-42" d="M 1259 2228 
L 1259 519 
L 2272 519 
Q 2781 519 3026 730 
Q 3272 941 3272 1375 
Q 3272 1813 3026 2020 
Q 2781 2228 2272 2228 
L 1259 2228 
z
M 1259 4147 
L 1259 2741 
L 2194 2741 
Q 2656 2741 2882 2914 
Q 3109 3088 3109 3444 
Q 3109 3797 2882 3972 
Q 2656 4147 2194 4147 
L 1259 4147 
z
M 628 4666 
L 2241 4666 
Q 2963 4666 3353 4366 
Q 3744 4066 3744 3513 
Q 3744 3084 3544 2831 
Q 3344 2578 2956 2516 
Q 3422 2416 3680 2098 
Q 3938 1781 3938 1306 
Q 3938 681 3513 340 
Q 3088 0 2303 0 
L 628 0 
L 628 4666 
z
" transform="scale(0.015625)"/>
      <path id="DejaVuSans-6d" d="M 3328 2828 
Q 3544 3216 3844 3400 
Q 4144 3584 4550 3584 
Q 5097 3584 5394 3201 
Q 5691 2819 5691 2113 
L 5691 0 
L 5113 0 
L 5113 2094 
Q 5113 2597 4934 2840 
Q 4756 3084 4391 3084 
Q 3944 3084 3684 2787 
Q 3425 2491 3425 1978 
L 3425 0 
L 2847 0 
L 2847 2094 
Q 2847 2600 2669 2842 
Q 2491 3084 2119 3084 
Q 1678 3084 1418 2786 
Q 1159 2488 1159 1978 
L 1159 0 
L 581 0 
L 581 3500 
L 1159 3500 
L 1159 2956 
Q 1356 3278 1631 3431 
Q 1906 3584 2284 3584 
Q 2666 3584 2933 3390 
Q 3200 3197 3328 2828 
z
" transform="scale(0.015625)"/>
      <path id="DejaVuSans-72" d="M 2631 2963 
Q 2534 3019 2420 3045 
Q 2306 3072 2169 3072 
Q 1681 3072 1420 2755 
Q 1159 2438 1159 1844 
L 1159 0 
L 581 0 
L 581 3500 
L 1159 3500 
L 1159 2956 
Q 1341 3275 1631 3429 
Q 1922 3584 2338 3584 
Q 2397 3584 2469 3576 
Q 2541 3569 2628 3553 
L 2631 2963 
z
" transform="scale(0.015625)"/>
      <path id="DejaVuSans-6b" d="M 581 4863 
L 1159 4863 
L 1159 1991 
L 2875 3500 
L 3609 3500 
L 1753 1863 
L 3688 0 
L 2938 0 
L 1159 1709 
L 1159 0 
L 581 0 
L 581 4863 
z
" transform="scale(0.015625)"/>
      <path id="DejaVuSans-3a" d="M 750 794 
L 1409 794 
L 1409 0 
L 750 0 
L 750 794 
z
M 750 3309 
L 1409 3309 
L 1409 2516 
L 750 2516 
L 750 3309 
z
" transform="scale(0.015625)"/>
      <path id="DejaVuSans-2d" d="M 313 2009 
L 1997 2009 
L 1997 1497 
L 313 1497 
L 313 2009 
z
" transform="scale(0.015625)"/>
     </defs>
     <use xlink:href="#DejaVuSans-42"/>
     <use xlink:href="#DejaVuSans-69" x="68.603516"/>
     <use xlink:href="#DejaVuSans-73" x="96.386719"/>
     <use xlink:href="#DejaVuSans-6d" x="148.486328"/>
     <use xlink:href="#DejaVuSans-61" x="245.898438"/>
     <use xlink:href="#DejaVuSans-72" x="307.177734"/>
     <use xlink:href="#DejaVuSans-6b" x="348.291016"/>
     <use xlink:href="#DejaVuSans-3a" x="406.201172"/>
     <use xlink:href="#DejaVuSans-20" x="439.892578"/>
     <use xlink:href="#DejaVuSans-4d" x="471.679688"/>
     <use xlink:href="#DejaVuSans-2d" x="557.958984"/>
     <use xlink:href="#DejaVuSans-42" x="590.417969"/>
     <use xlink:href="#DejaVuSans-69" x="659.021484"/>
     <use xlink:href="#DejaVuSans-61" x="686.804688"/>
     <use xlink:href="#DejaVuSans-73" x="748.083984"/>
    </g>
   </g>
  </g>
 </g>
 <defs>
  <clipPath id="pec662ce5d2">
   <rect x="43.148125" y="35.2559" width="949.93" height="317.968"/>
  </clipPath>
 </defs>
</svg>
